<svg xmlns="http://www.w3.org/2000/svg" width="95" height="123" viewBox="0 0 94.9 122.5">
  <style>
    .a{fill:#6fd517}.b{fill:#6ebf5e}
  </style>
  <circle cx="48.7" cy="76.2" r="38.6" fill="#FFF"/>
  <path d="M13.7 16.3c-9.4-3.1-10.8 3.8-11 5-.5 3.4 2.6 7.8 8.9 8.7 6.3.9 13.7-2.6 13.7-2.6a39.8 39.8 0 0 0-11.6-11.1zM31.1 26.1S29.2 16 32.2 8.6 41.6-1.2 45.6.5c1.4.6 9.3 4.5 2.7 15a50.3 50.3 0 0 1-17.2 10.6z" class="a"/>
  <path fill="#FF1A52" d="M47.4 39.7a35.5 35.5 0 0 1 0 70.8 35.5 35.5 0 0 1 0-70.8m0-12a47.4 47.4 0 1 0 0 94.7 47.4 47.4 0 0 0 0-94.7z"/>
  <path d="M31.3 26.3S26.6 12.5 35.5 4c3.1-2.9 9-5.7 13.1-1.1L31.3 26.3zM25.2 27.2s-9.7 6.4-18 1.2c-2.9-1.8-6.1-5.8-3.4-9.8l21.4 8.6z" class="b"/>
</svg>
