<svg xmlns="http://www.w3.org/2000/svg" width="129" height="129" viewBox="0 0 129.1 129.1">
  <path fill="#FFF" d="M61.7 9.2l-56.2 55 25 24 30 32s-.5 5.8 12-6.5c12.5-12.2 49.8-49.5 50.8-49.5s-13-15.5-13-15.5l-46-42.8-2.6 3.3z"/>
  <path fill="#EE3724" d="M64.6 12c.3 0 .8.1 1.3.5l50.7 50.7c.7.7.7 1.9 0 2.6l-50.7 50.7c-.4.4-.9.5-1.3.5-.3 0-.8-.1-1.3-.5L12.5 65.8c-.7-.7-.7-1.9 0-2.6l50.7-50.7c.5-.4 1-.5 1.4-.5m0-12c-3.5 0-7.1 1.3-9.8 4L4 54.8a13.8 13.8 0 0 0 0 19.5L54.7 125c2.7 2.7 6.2 4 9.8 4 3.5 0 7.1-1.4 9.8-4L125 74.3a13.8 13.8 0 0 0 0-19.5L74.3 4c-2.7-2.7-6.2-4-9.7-4z"/>
</svg>
