<?xml version="1.0" encoding="utf-8"?>
<!-- Generator: Adobe Illustrator 22.0.1, SVG Export Plug-In . SVG Version: 6.00 Build 0)  -->
<svg version="1.1" id="Layer_1" xmlns="http://www.w3.org/2000/svg" xmlns:xlink="http://www.w3.org/1999/xlink" x="0px" y="0px"
	 viewBox="0 0 431.2 419.6" style="enable-background:new 0 0 431.2 419.6;" xml:space="preserve">
<style type="text/css">
	.st0{clip-path:url(#SVGID_2_);fill:#F3E8D6;}
	.st1{clip-path:url(#SVGID_2_);fill:#FF7E45;}
	.st2{clip-path:url(#SVGID_2_);fill:#FF6417;}
	.st3{clip-path:url(#SVGID_2_);fill:#E85513;}
	.st4{clip-path:url(#SVGID_2_);fill:#FFFFFF;}
	.st5{clip-path:url(#SVGID_2_);fill:#E2EBF9;}
	.st6{clip-path:url(#SVGID_2_);fill:#5DE1C0;}
	.st7{clip-path:url(#SVGID_2_);fill:#00C395;}
	.st8{clip-path:url(#SVGID_2_);fill:#434C54;}
</style>
<g>
	<defs>
		<rect id="SVGID_1_" width="431.2" height="419.6"/>
	</defs>
	<clipPath id="SVGID_2_">
		<use xlink:href="#SVGID_1_"  style="overflow:visible;"/>
	</clipPath>
	<path class="st0" d="M424.9,321c0,51-41.3,92.3-92.3,92.3s-92.3-41.3-92.3-92.3c0-51,41.3-92.3,92.3-92.3S424.9,270,424.9,321"/>
	<path class="st1" d="M424.9,321c0,51-41.3,92.3-92.3,92.3s-92.3-41.3-92.3-92.3c0-51,41.3-92.3,92.3-92.3S424.9,270,424.9,321"/>
	<path class="st2" d="M380.7,242.2c8.6,14,13.6,30.5,13.6,48.2c0,51-41.3,92.3-92.3,92.3c-17.6,0-34.1-4.9-48.2-13.5
		c16.2,26.5,45.4,44.1,78.8,44.1c51,0,92.3-41.3,92.3-92.3C424.9,287.6,407.2,258.4,380.7,242.2"/>
	<path class="st3" d="M332.6,419.6c-3.5,0-6.3-2.8-6.3-6.3V298.4c0-3.5,2.8-6.3,6.3-6.3c3.5,0,6.3,2.8,6.3,6.3v114.9
		C338.9,416.8,336.1,419.6,332.6,419.6"/>
	<path class="st3" d="M332.6,275.1c-3.5,0-6.3-2.8-6.3-6.3v-40.1c0-3.5,2.8-6.3,6.3-6.3c3.5,0,6.3,2.8,6.3,6.3v40.1
		C338.9,272.2,336.1,275.1,332.6,275.1"/>
	<path class="st4" d="M30,338.2c-31.5-31.5-31.5-82.6,0-114.1L224.1,29.9c31.5-31.5,82.6-31.5,114.1,0s31.5,82.6,0,114.1
		L144.1,338.2C112.5,369.7,61.5,369.7,30,338.2"/>
	<path class="st5" d="M338.2,30c-5-5-10.6-9.3-16.5-12.7c18,30.9,13.8,71.2-12.7,97.6L114.9,309c-26.5,26.5-66.7,30.7-97.6,12.7
		c3.4,5.9,7.7,11.4,12.7,16.5c31.5,31.5,82.6,31.5,114.1,0L338.2,144C369.7,112.5,369.7,61.5,338.2,30"/>
	<path class="st6" d="M338.2,30c-31.5-31.5-82.6-31.5-114.1,0l-97,97l114.1,114.1l97-97C369.7,112.5,369.7,61.5,338.2,30"/>
	<path class="st7" d="M355.9,117.4c0.5-1.2,0.9-2.4,1.4-3.7c1.3-3.7,2.3-7.5,3-11.3c0.3-1.3,0.5-2.6,0.6-3.8
		c0.4-2.6,0.6-5.1,0.7-7.7c1.1-21.9-6.8-44.2-23.5-60.9c-0.6-0.6-1.2-1.1-1.7-1.7c-0.2-0.2-0.4-0.3-0.5-0.5
		c-0.4-0.4-0.9-0.8-1.3-1.2c-0.2-0.2-0.4-0.3-0.5-0.5c-0.5-0.5-1-0.9-1.5-1.3c-0.1-0.1-0.2-0.2-0.3-0.2c-0.7-0.5-1.3-1-2-1.6
		c0,0,0,0-0.1-0.1c-0.6-0.5-1.3-0.9-1.9-1.4c-0.1-0.1-0.2-0.1-0.3-0.2c-0.6-0.4-1.2-0.8-1.8-1.3c-0.1,0-0.1-0.1-0.2-0.1
		c-1.4-0.9-2.8-1.8-4.3-2.7c18,30.9,13.8,71.2-12.7,97.6l-97,97l29.2,29.2l97-97C346,136.2,352,127.1,355.9,117.4"/>
	<path class="st8" d="M332.6,222.3c-54.4,0-98.6,44.2-98.6,98.6c0,54.4,44.2,98.6,98.6,98.6s98.6-44.2,98.6-98.6
		C431.2,266.6,387,222.3,332.6,222.3 M332.6,406.9c-47.4,0-86-38.6-86-86c0-47.4,38.6-86,86-86c47.4,0,86,38.6,86,86
		C418.6,368.4,380,406.9,332.6,406.9"/>
	<path class="st8" d="M342.6,25.5C326.2,9.1,304.4,0,281.1,0c-23.2,0-45.1,9-61.5,25.5L25.5,219.6C9,236,0,257.9,0,281.1
		c0,23.2,9,45.1,25.5,61.5c17,17,39.2,25.4,61.5,25.4c22.3,0,44.5-8.5,61.5-25.4l194.1-194.1C376.6,114.6,376.6,59.4,342.6,25.5
		 M241.1,232.2l-69.6-69.6c-2.5-2.5-6.5-2.5-8.9,0c-2.5,2.5-2.5,6.5,0,8.9l69.6,69.6l-92.6,92.6c-29,29-76.2,29-105.2,0
		c-14.1-14-21.8-32.7-21.8-52.6c0-19.9,7.7-38.5,21.8-52.6l92.6-92.6l14.7,14.7c1.2,1.2,2.8,1.9,4.5,1.9c1.6,0,3.2-0.6,4.5-1.9
		c2.5-2.5,2.5-6.5,0-8.9L136,127l92.6-92.6c14.5-14.5,33.5-21.8,52.6-21.8s38.1,7.3,52.6,21.8c29,29,29,76.2,0,105.2L241.1,232.2z"
		/>
</g>
</svg>
