<?xml version="1.0" encoding="utf-8"?>
<!-- Generator: Adobe Illustrator 22.0.1, SVG Export Plug-In . SVG Version: 6.00 Build 0)  -->
<svg version="1.1" id="Layer_1" xmlns="http://www.w3.org/2000/svg" xmlns:xlink="http://www.w3.org/1999/xlink" x="0px" y="0px"
	 viewBox="0 0 454.1 512" style="enable-background:new 0 0 454.1 512;" xml:space="preserve">
<style type="text/css">
	.st0{clip-path:url(#SVGID_2_);fill:#E2EBF9;}
	.st1{clip-path:url(#SVGID_2_);fill:#C1C8D2;}
	.st2{clip-path:url(#SVGID_2_);fill:#76FFDA;}
	.st3{clip-path:url(#SVGID_2_);fill:#5DE1C0;}
	.st4{clip-path:url(#SVGID_2_);fill:#FF914D;}
	.st5{clip-path:url(#SVGID_2_);fill:#FFFFFF;}
	.st6{clip-path:url(#SVGID_2_);fill:#FFAA16;}
	.st7{clip-path:url(#SVGID_2_);fill:#FF8125;}
	.st8{clip-path:url(#SVGID_2_);fill:#434C54;}
	.st9{clip-path:url(#SVGID_2_);fill:#AAB2B9;}
</style>
<g>
	<defs>
		<rect id="SVGID_1_" width="454.1" height="512"/>
	</defs>
	<clipPath id="SVGID_2_">
		<use xlink:href="#SVGID_1_"  style="overflow:visible;"/>
	</clipPath>
	<path class="st0" d="M140.5,166.2v-28.1h-17.1c-8.1,0-14.7,6.6-14.7,14.7v11.4c0,8.1,6.6,14.7,14.7,14.7h17.1V166.2z"/>
	<path class="st0" d="M330.7,138.2h-17.1V179h17.1c8.1,0,14.7-6.6,14.7-14.7v-11.4C345.4,144.8,338.8,138.2,330.7,138.2"/>
	<path class="st0" d="M261.6,357.4l52.8-49.6l-21-3.9c-10.1-2-17.4-13.8-17.4-24.1v-46h-98v46c0,10.3-7.3,22.1-17.4,24.1l-21,3.9
		l52.8,49.6C211.9,375.7,242.2,375.7,261.6,357.4"/>
	<path class="st1" d="M252.3,233.9v69.7c0,10.3,7.3,22.1,17.4,24.1l18.1,5.2l26.6-25l-21-3.9c-10.1-2-17.4-13.8-17.4-24.1v-46H252.3
		z"/>
	<path class="st2" d="M288.2,301.4L227,347.1l-61.2-45.7c-3.3-2.5-7.5-3.2-11.4-2l-102.8,31c-11.1,3.3-19.3,12.6-21.2,24L7.7,487
		c-1.6,9.1,5.5,17.5,14.7,17.5h409.2c9.3,0,16.3-8.3,14.7-17.5l-22.6-132.6c-1.9-11.4-10.2-20.7-21.2-24l-102.8-31
		C295.8,298.2,291.5,299,288.2,301.4"/>
	<path class="st3" d="M154.4,299.4l-17.7,5.3l39,54.6c3.1,4.3,8.7,5.9,13.6,3.8l37.7-16l-61.2-45.7
		C162.6,299,158.3,298.2,154.4,299.4"/>
	<path class="st3" d="M264.8,363.2c4.9,2.1,10.5,0.5,13.6-3.8l39-54.6l-0.1,0l-17.6-5.3c-3.9-1.2-8.2-0.4-11.5,2L227,347.1
		L264.8,363.2z"/>
	<polygon class="st4" points="227,347.1 197.4,359.7 214.7,379.9 239.4,379.9 256.7,359.7 	"/>
	<polygon class="st4" points="239.4,379.9 214.7,379.9 192,504.5 262.1,504.5 	"/>
	<path class="st5" d="M289.9,42.6c-14.8-12.7-35.5-11.9-62.9-12.2c-27.4,0.3-48.1-0.5-62.9,12.2c-18.8,16.2-29,40.3-29,65.1v72.2
		c0,24.8,31.2,90.7,91.9,90.7s91.9-65.9,91.9-90.7v-72.2C319,82.9,308.8,58.8,289.9,42.6"/>
	<path class="st0" d="M289.9,42.6c-5.9-5-12.7-8-20.5-9.7c0,0,0,0.1,0,0.1v146.9c0,21.2-22.8,72.3-67.2,86.8
		c7.6,2.5,15.9,3.9,24.7,3.9c60.7,0,91.9-65.9,91.9-90.7v-72.2C319,82.9,308.8,58.8,289.9,42.6"/>
	<path class="st5" d="M227,481.4c0,0-68.7-183.2-72.6-182l-102.8,31c-11.1,3.3-19.3,12.6-21.2,24L7.7,487
		c-1.6,9.1,5.5,17.5,14.7,17.5h409.2c9.3,0,16.3-8.3,14.7-17.5l-22.6-132.6c-1.9-11.4-10.2-20.7-21.2-24l-102.8-31
		C295.8,298.2,227,481.4,227,481.4"/>
	<path class="st0" d="M446.4,487l-22.6-132.6c-1.9-11.4-10.2-20.7-21.2-24l-102.8-31c-1.1-0.3-6.9,13-14.9,32.5l74.6,22.5
		c5.6,1.7,9.8,6.4,10.8,12.2l23.5,137.9h37.9C440.9,504.5,447.9,496.2,446.4,487"/>
	<path class="st6" d="M282.3,7.5H171.7c-28.5,0-51.5,23.1-51.5,51.5v84.6c0,0,14.2-0.3,23.3,8.7c1.9,1.9,5.1,0.5,5.1-2.2V80.9
		c0-12.6,10.2-22.8,22.8-22.8h20.7c5.4,0,10.7,1.9,14.9,5.3l2,1.7c5.1,4.2,11.4,6.4,18,6.4c6.6,0,12.9-2.3,18-6.4l2-1.7
		c4.2-3.4,9.5-5.3,14.9-5.3h20.7c12.6,0,22.8,10.2,22.8,22.8v69.2c0,2.7,3.2,4,5.1,2.2c9.1-9,23.3-8.7,23.3-8.7V59
		C333.9,30.6,310.8,7.5,282.3,7.5"/>
	<path class="st4" d="M282.3,7.5h-49.5c28.2,0,51.1,22.6,51.5,50.7c11.8,0.9,21.1,10.7,21.1,22.7v69.2c0,2.7,3.2,4,5.1,2.2
		c9.1-9,23.3-8.7,23.3-8.7V59C333.9,30.6,310.8,7.5,282.3,7.5"/>
	<path class="st7" d="M367.5,398.4c0,17.3-14,31.3-31.3,31.3c-17.3,0-31.3-14-31.3-31.3c0-17.3,14-31.3,31.3-31.3
		C353.5,367.1,367.5,381.1,367.5,398.4"/>
	<path class="st6" d="M350,398.4c0,7.6-6.2,13.8-13.8,13.8c-7.6,0-13.8-6.2-13.8-13.8c0-7.6,6.2-13.8,13.8-13.8
		C343.9,384.6,350,390.8,350,398.4"/>
	<path class="st8" d="M453.8,485.8l-22.6-132.6c-2.4-14.3-12.6-25.8-26.5-30l-61.1-18.4c-1.3-14.9-7.4-29-17.6-40.2
		c-8.1-8.9-18.4-15.4-29.7-19c1.9-2.1,3.7-4.3,5.4-6.4c14.5-18.5,22.3-38.8,24.3-52.7h4.7c12.3,0,22.2-10,22.2-22.2v-11.4
		c0-8.2-4.6-15.6-11.5-19.4v-27.4c0-4.1-3.4-7.5-7.5-7.5c-4.1,0-7.5,3.4-7.5,7.5v30.8c-2.9,0.5-6.4,1.4-10,2.9
		c-0.4,0.1-0.7,0.3-1.1,0.5c-0.8,0.4-1.6,0.8-2.4,1.2V80.9c0-16.7-13.6-30.3-30.3-30.3H262c-7.1,0-14.1,2.5-19.6,7l-2,1.7
		c-3.7,3.1-8.4,4.7-13.3,4.7c-4.8,0-9.5-1.7-13.3-4.7l-2-1.7c-5.5-4.5-12.5-7-19.6-7h-20.7c-16.7,0-30.3,13.6-30.3,30.3v60.4
		c-0.8-0.4-1.6-0.8-2.4-1.2c-0.3-0.2-0.7-0.3-1.1-0.5c-3.6-1.5-7-2.4-10-2.9V59c0-24.3,19.7-44,44-44h110.6c24.3,0,44,19.8,44,44
		v11.8c0,4.1,3.4,7.5,7.5,7.5c4.1,0,7.5-3.4,7.5-7.5V59c0-32.5-26.5-59-59-59H171.7c-32.5,0-59,26.5-59,59v74.4
		c-6.9,3.8-11.5,11.3-11.5,19.4v11.4c0,12.3,10,22.2,22.2,22.2h4.7c2,13.9,9.8,34.2,24.3,52.7c1.6,2.1,3.4,4.2,5.4,6.4
		c-26,8.3-44.9,31.6-47.3,59.2l-61.1,18.4c-13.9,4.2-24,15.7-26.5,30L13.8,407c-0.7,4.1,2,8,6.1,8.7c4.1,0.7,8-2,8.7-6.1l9.2-53.8
		c1.5-8.6,7.6-15.6,16-18.1l56.5-17v20.9c0,4.1,3.4,7.5,7.5,7.5c4.1,0,7.5-3.4,7.5-7.5V316l25.8-7.8c2.4,5.1,7.3,16.3,17.1,41
		c9.1,22.9,20.2,51.6,30.9,79.5c0.1,0.2,0.2,0.5,0.3,0.7c7.4,19.3,14.5,38.2,20.7,54.5c1.1,2.9,3.9,4.9,7,4.9c3.1,0,5.9-1.9,7-4.9
		c6.1-16.3,13.3-35.2,20.7-54.5c0.1-0.2,0.2-0.5,0.3-0.7c10.9-28.4,22.2-57.6,31.4-80.6c9.5-23.9,14.3-34.8,16.7-39.9l25.8,7.8v51.1
		c0,4.1,3.4,7.5,7.5,7.5c4.1,0,7.5-3.4,7.5-7.5v-46.5l56.5,17c8.4,2.5,14.5,9.5,16,18.1L439,488.3c0.4,2.2-0.2,4.3-1.6,6.1
		c-1.4,1.7-3.5,2.6-5.7,2.6H22.4c-2.2,0-4.3-0.9-5.7-2.6c-1.4-1.7-2-3.9-1.6-6.1l7.5-43.8c0.7-4.1-2-8-6.1-8.7c-4.1-0.7-8,2-8.7,6.1
		l-7.5,43.8c-1.1,6.5,0.7,13.2,5,18.3c4.3,5.1,10.5,8,17.2,8h409.2c6.6,0,12.9-2.9,17.2-8C453.1,499,454.9,492.3,453.8,485.8
		 M327.8,300l-25.9-7.8c0,0,0,0,0,0c0,0,0,0,0,0c-4.4-1.3-9-1.1-13.2,0.5c-3-3.3-5.1-8.2-5.1-12.9V258
		C306,261.3,323.5,278.3,327.8,300 M282.3,318.4c-0.3,0.8-0.7,1.6-1,2.5c-0.1,0.3-0.2,0.5-0.3,0.8c-0.3,0.7-0.6,1.4-0.9,2.2
		c-0.1,0.2-0.2,0.4-0.2,0.6c-0.1,0.2-0.2,0.5-0.3,0.7c-0.2,0.4-0.3,0.8-0.5,1.2c-0.2,0.5-0.4,1-0.6,1.5c-0.1,0.4-0.3,0.7-0.4,1.1
		c-0.4,1-0.8,2-1.2,3c-0.2,0.4-0.3,0.8-0.5,1.1c-0.2,0.6-0.5,1.1-0.7,1.7c-0.2,0.4-0.3,0.8-0.5,1.2c-0.2,0.6-0.5,1.1-0.7,1.7
		c-0.2,0.5-0.4,1.1-0.6,1.6c-0.2,0.5-0.4,1-0.6,1.5c-0.4,1-0.8,2-1.2,3c-0.2,0.4-0.3,0.8-0.5,1.2c-0.3,0.7-0.6,1.5-0.9,2.3
		c-0.2,0.5-0.4,0.9-0.5,1.4c-0.3,0.7-0.6,1.4-0.9,2.2c-0.2,0.5-0.4,0.9-0.6,1.4c-0.3,0.9-0.7,1.8-1.1,2.7c-0.1,0.3-0.2,0.6-0.4,0.9
		c0,0.1-0.1,0.2-0.1,0.3l-7.4-3.1c0,0-0.1,0-0.1-0.1l-17.6-7.5l42.2-31.6c-0.2,0.5-0.4,0.9-0.6,1.4c-0.4,0.8-0.7,1.7-1.1,2.6
		C282.4,318,282.3,318.2,282.3,318.4 M254.9,387.2c-1.5,3.9-3,7.7-4.5,11.6l-3.1-16.7l11.4-13.3l2.8,1.2
		C259.5,375.4,257.2,381.2,254.9,387.2 M199.2,387.2c-2.3-6-4.6-11.8-6.7-17.2l2.8-1.2l11.4,13.3l-3.1,16.7
		C202.2,394.9,200.7,391.1,199.2,387.2 M186.5,354.8c-0.4-0.9-0.7-1.8-1.1-2.7c-0.2-0.5-0.4-0.9-0.6-1.4c-0.3-0.7-0.6-1.4-0.8-2.1
		c-0.2-0.5-0.4-1-0.6-1.5c-0.3-0.7-0.6-1.4-0.8-2.1c-0.2-0.4-0.4-0.9-0.5-1.3c-0.4-1-0.8-2-1.2-3c-0.2-0.6-0.4-1.1-0.7-1.7
		c-0.2-0.5-0.4-0.9-0.5-1.4c-0.2-0.6-0.5-1.2-0.7-1.8c-0.2-0.4-0.3-0.8-0.5-1.2c-0.2-0.6-0.5-1.2-0.7-1.7c-0.2-0.4-0.3-0.7-0.4-1.1
		c-0.4-1-0.8-2-1.2-2.9c-0.2-0.4-0.3-0.8-0.5-1.2c-0.2-0.5-0.4-0.9-0.6-1.4c-0.2-0.4-0.4-0.9-0.5-1.3c-0.1-0.2-0.2-0.4-0.3-0.6
		c-0.1-0.2-0.1-0.3-0.2-0.5c-0.4-0.9-0.7-1.8-1.1-2.6c0-0.1-0.1-0.1-0.1-0.2c-0.4-1-0.8-1.9-1.2-2.9c-0.1-0.1-0.1-0.2-0.2-0.4
		c-0.4-0.9-0.8-1.9-1.1-2.7c-0.2-0.5-0.4-0.9-0.6-1.4l42.2,31.6l-17.6,7.5c0,0-0.1,0-0.1,0L187,356c0-0.1-0.1-0.2-0.1-0.3
		C186.8,355.4,186.7,355.1,186.5,354.8 M185.5,267.8c11.6,6.2,25.3,10.4,41.5,10.4c16.2,0,30-4.2,41.5-10.4v12.1
		c0,7.1,2.7,15,7.6,21.2L227,337.8l-49.1-36.7c4.9-6.2,7.6-14.1,7.6-21.2V267.8z M218.2,372.4l-8.4-9.8l17.3-7.3l17.3,7.3l-8.4,9.8
		L218.2,372.4L218.2,372.4z M337.9,164.3c0,4-3.2,7.2-7.2,7.2h-4.2v-19.4c4-1,7.2-1,7.2-1c1.3,0,2.5-0.3,3.7-0.9
		c0.3,0.8,0.5,1.7,0.5,2.7V164.3z M116.2,164.3v-11.4c0-0.9,0.2-1.8,0.5-2.7c1.1,0.6,2.4,0.9,3.7,0.9c0.1,0,3.3,0,7.2,1v19.4h-4.2
		C119.4,171.5,116.2,168.3,116.2,164.3 M142.6,179.9v-19.7c2.3,0.7,4.8,0.6,7.1-0.4c3.9-1.6,6.5-5.5,6.5-9.7V80.9
		c0-8.4,6.9-15.3,15.3-15.3h20.7c3.7,0,7.3,1.3,10.1,3.6l2,1.7c6.4,5.2,14.5,8.1,22.8,8.1c8.3,0,16.4-2.9,22.8-8.1l2-1.7
		c2.9-2.3,6.5-3.6,10.1-3.6h20.7c8.4,0,15.3,6.9,15.3,15.3v69.2c0,4.3,2.5,8.1,6.5,9.7c1.3,0.6,2.7,0.8,4.1,0.8c1,0,2-0.1,3-0.4
		v19.7c0,10.9-7.6,32.2-21.6,50c-4.6,5.9-10.6,12.3-18,17.8c-0.2,0.2-0.5,0.3-0.7,0.5c-11.4,8.4-26,14.9-44.2,14.9
		c-18.1,0-32.8-6.5-44.2-14.9c-0.2-0.2-0.4-0.4-0.7-0.5c-7.3-5.5-13.3-11.9-18-17.8C150.2,212.1,142.6,190.9,142.6,179.9 M170.5,258
		v21.8c0,4.7-2.1,9.6-5.1,12.9c-4.2-1.6-8.8-1.8-13.2-0.5c0,0,0,0,0,0l-25.9,7.8C130.7,278.5,148.2,261.3,170.5,258 M227.2,459.7
		c-0.2-0.4-0.5-0.9-0.8-1.3c-3.4-9-7.7-20.3-12.4-32.8l7-38.3h12.1l7,38.3C235.1,438.8,230.6,450.6,227.2,459.7"/>
	<path class="st9" d="M142.6,459.8h-9.3c-4.1,0-7.5-3.4-7.5-7.5c0-4.1,3.4-7.5,7.5-7.5h9.3c1.1,0,2.2-0.5,3-1.3
		c0.8-0.8,1.2-1.9,1.1-3.1l-5.5-70.1c-0.2-2.5-0.8-4.9-1.8-7.2c-3.5-8.2-11.7-13.4-20.9-13.4h-0.2l-1.2,0
		c-9.5,0.1-18.1,5.9-21.2,14.4c-0.7,2-1.2,4.1-1.3,6.2L89,440.4c-0.1,1.1,0.3,2.2,1.1,3.1c0.8,0.8,1.9,1.3,3,1.3h9.3
		c4.1,0,7.5,3.4,7.5,7.5c0,4.1-3.4,7.5-7.5,7.5h-9.3c-5.3,0-10.4-2.2-14-6.1c-3.6-3.9-5.4-9.1-5-14.4l5.5-70.1
		c0.3-3.5,1-6.9,2.2-10.2c5.3-14.4,19.4-24.2,35.2-24.3l1.2,0h0.3c15.3,0,28.9,8.8,34.7,22.6c1.6,3.8,2.6,7.8,2.9,11.9l5.5,70.1
		c0.4,5.3-1.4,10.5-5,14.4C152.9,457.6,147.9,459.8,142.6,459.8"/>
</g>
</svg>
