<?xml version="1.0" encoding="utf-8"?>
<!-- Generator: Adobe Illustrator 22.0.1, SVG Export Plug-In . SVG Version: 6.00 Build 0)  -->
<svg version="1.1" id="Layer_1" xmlns="http://www.w3.org/2000/svg" xmlns:xlink="http://www.w3.org/1999/xlink" x="0px" y="0px"
	 viewBox="0 0 406.9 512" style="enable-background:new 0 0 406.9 512;" xml:space="preserve">
<style type="text/css">
	.st0{clip-path:url(#SVGID_2_);fill:#FFC943;}
	.st1{clip-path:url(#SVGID_2_);fill:#FFAA16;}
	.st2{clip-path:url(#SVGID_2_);fill:#FFFFFF;}
	.st3{clip-path:url(#SVGID_2_);fill:#E2EBF9;}
	.st4{clip-path:url(#SVGID_2_);fill:#00C395;}
	.st5{clip-path:url(#SVGID_2_);fill:#00A97D;}
	.st6{clip-path:url(#SVGID_2_);fill:#FF914D;}
	.st7{clip-path:url(#SVGID_2_);fill:#FF8125;}
	.st8{clip-path:url(#SVGID_2_);fill:#434C54;}
	.st9{clip-path:url(#SVGID_2_);fill:#C1C8D2;}
	.st10{clip-path:url(#SVGID_2_);fill:#AAB2B9;}
</style>
<g>
	<defs>
		<rect id="SVGID_1_" width="406.9" height="512"/>
	</defs>
	<clipPath id="SVGID_2_">
		<use xlink:href="#SVGID_1_"  style="overflow:visible;"/>
	</clipPath>
	<path class="st0" d="M105.2,7.5C88.7,7.5,75.2,20.6,74.8,37l-3,101.6h66.8l-3-101.6C135.1,20.6,121.6,7.5,105.2,7.5"/>
	<path class="st1" d="M135.6,37c-0.5-16.4-14-29.5-30.4-29.5c-6,0-11.6,1.7-16.3,4.7l-0.6,126.3h50.3L135.6,37z"/>
	<path class="st2" d="M153.7,193.6v-67.8H56.6v67.8l-35.9,21.3c-8.2,4.9-13.2,13.7-13.2,23.2v242c0,13.4,10.9,24.3,24.3,24.3h146.6
		c13.5,0,24.3-10.9,24.3-24.3v-242c0-9.5-5-18.4-13.2-23.2L153.7,193.6z"/>
	<path class="st3" d="M189.6,214.9l-35.9-21.3v-67.8h-49.5v67.8l45.6,27.1c2.2,1.3,3.5,3.7,3.5,6.2v277.6h25.2
		c13.4,0,24.3-10.9,24.3-24.3v-242C202.8,228.6,197.8,219.8,189.6,214.9"/>
	<path class="st4" d="M153.7,193.6H56.6l-35.9,21.3c-8.2,4.9-13.2,13.7-13.2,23.2v242c0,13.4,10.9,24.3,24.3,24.3h146.6
		c13.5,0,24.3-10.9,24.3-24.3v-242c0-9.5-5-18.4-13.2-23.2L153.7,193.6z"/>
	<path class="st5" d="M202.8,238.2c0-6.6-2.4-12.9-6.6-17.7c-0.5-0.6-1.1-1.2-1.7-1.8c-0.6-0.5-1.1-1.1-1.8-1.5
		c-1-0.8-2-1.5-3.1-2.2l-35.9-21.3h-49.5l45.6,27.1c2.2,1.3,3.5,3.7,3.5,6.2v277.6h25.2c3.8,0,7.4-0.9,10.6-2.4
		c0.4-0.2,0.7-0.3,1.1-0.5c1.7-0.9,3.3-2.1,4.8-3.4c0.3-0.3,0.6-0.5,0.9-0.8c0.6-0.6,1.1-1.1,1.6-1.7c0.3-0.4,0.6-0.8,0.9-1.2
		c0.4-0.5,0.8-1.1,1.1-1.7c2.2-3.7,3.5-8,3.5-12.6L202.8,238.2z"/>
	<rect x="7.5" y="250" class="st2" width="195.3" height="204.7"/>
	<rect x="154.9" y="250" class="st3" width="49.5" height="204.7"/>
	<path class="st6" d="M155.2,166.1H55.1c-4,0-7.2-3.2-7.2-7.2v-38.2c0-4,3.2-7.2,7.2-7.2h100.1c4,0,7.2,3.2,7.2,7.2v38.2
		C162.4,162.8,159.2,166.1,155.2,166.1"/>
	<path class="st7" d="M155.2,113.4h-41.8v52.6h41.8c4,0,7.2-3.2,7.2-7.2v-38.2C162.4,116.7,159.2,113.4,155.2,113.4"/>
	<path class="st3" d="M144.3,341.2h-31.7v-31.6c0-4.1-3.4-7.5-7.5-7.5s-7.5,3.4-7.5,7.5v31.6H66c-4.1,0-7.5,3.4-7.5,7.5
		s3.4,7.5,7.5,7.5h31.7v31.6c0,4.1,3.4,7.5,7.5,7.5s7.5-3.4,7.5-7.5v-31.6h31.7c4.1,0,7.5-3.4,7.5-7.5S148.5,341.2,144.3,341.2"/>
	<path class="st8" d="M202.8,400.8c4.1,0,7.5-3.4,7.5-7.5V238.2c0-12.1-6.5-23.5-16.9-29.7l-32.2-19.1v-17.1
		c5.1-2.3,8.7-7.4,8.7-13.4v-38.2c0-8.1-6.6-14.7-14.7-14.7h-10.1l-2-69.1C142.5,16.2,125.8,0,105.2,0S67.9,16.2,67.3,36.8l-2,69.1
		H55.1c-8.1,0-14.7,6.6-14.7,14.7v38.2c0,6,3.6,11.1,8.7,13.4v17.1l-32.2,19.1C6.5,214.7,0,226,0,238.2v242
		C0,497.7,14.3,512,31.8,512h146.6c17.6,0,31.8-14.3,31.8-31.8v-51.4c0-4.1-3.4-7.5-7.5-7.5s-7.5,3.4-7.5,7.5v51.4
		c0,9.3-7.6,16.8-16.8,16.8H31.8c-9.3,0-16.8-7.6-16.8-16.8v-242c0-6.9,3.7-13.3,9.6-16.8l34.1-20.3h93l34.1,20.3
		c5.9,3.5,9.6,9.9,9.6,16.8v155.2C195.3,397.5,198.7,400.8,202.8,400.8 M64.1,173.6h82.1v12.5H64.1V173.6z M82.3,37.2
		C82.6,24.8,92.7,15,105.2,15s22.5,9.8,22.9,22.3l2,68.7H80.3L82.3,37.2z M55.4,120.9h99.5v37.6h-1.2h0H56.6h0h-1.2V120.9z"/>
	<path class="st9" d="M373.5,284.6v-35.4h-91.9v35.4l-17.8,16c-5.2,4.7-8.2,11.4-8.2,18.4v157.6c0,7.7,6.3,14,14,14h115.8
		c7.8,0,14-6.3,14-14V319c0-7-3-13.7-8.2-18.4L373.5,284.6z"/>
	<path class="st10" d="M391.2,300.6l-17.8-16v-35.4h-48.7v35.4l24.4,21.9c1,0.9,1.6,2.2,1.6,3.6v180.5h34.7c7.8,0,14-6.3,14-14V319
		C399.4,311.9,396.5,305.2,391.2,300.6"/>
	<path class="st2" d="M373.5,284.6h-91.9l-17.8,16c-5.2,4.7-8.2,11.4-8.2,18.4v157.6c0,7.7,6.3,14,14,14h115.8c7.8,0,14-6.3,14-14
		V319c0-7-3-13.7-8.2-18.4L373.5,284.6z"/>
	<path class="st3" d="M398.2,311.3c-0.1-0.4-0.3-0.8-0.4-1.2c-0.3-0.8-0.7-1.6-1-2.3c-0.4-0.8-0.8-1.5-1.3-2.2
		c-0.5-0.7-1-1.4-1.5-2.1c-0.8-1-1.7-2-2.7-2.8l-17.8-16h-48.7l24.4,21.9c1,0.9,1.6,2.2,1.6,3.6v180.5h34.7c2.9,0,5.6-0.9,7.8-2.4
		c2.2-1.5,4-3.7,5.1-6.2c0.7-1.7,1.1-3.5,1.1-5.5V319C399.5,316.3,399,313.7,398.2,311.3"/>
	<path class="st1" d="M379.8,261.7H275.2c-3.7,0-6.7-3-6.7-6.7v-38.8c0-3.7,3-6.7,6.7-6.7h104.6c3.7,0,6.7,3,6.7,6.7V255
		C386.5,258.7,383.5,261.7,379.8,261.7"/>
	<path class="st6" d="M379.8,209.6h-42.4v52.1h42.4c3.7,0,6.7-3,6.7-6.7v-38.8C386.5,212.6,383.5,209.6,379.8,209.6"/>
	<path class="st2" d="M329.3,450h-73.7V343.3h73.7c3.2,0,5.8,2.6,5.8,5.8v95.1C335.1,447.4,332.5,450,329.3,450"/>
	<path class="st2" d="M329.3,343.3h-43.2V450h43.2c3.2,0,5.8-2.6,5.8-5.8v-95.1C335.1,345.9,332.5,343.3,329.3,343.3"/>
	<path class="st8" d="M396.3,295L381,281.2v-12.1c7.3-0.6,13-6.7,13-14.1v-38.8c0-7.8-6.4-14.2-14.2-14.2H275.2
		c-7.8,0-14.2,6.4-14.2,14.2V255c0,7.4,5.7,13.5,13,14.1v12.1L258.8,295c-6.8,6.1-10.7,14.9-10.7,24v157.6
		c0,11.9,9.7,21.5,21.5,21.5h115.8c11.9,0,21.5-9.7,21.5-21.5V319C406.9,309.8,403.1,301.1,396.3,295 M289.1,269.2H366v7.9h-76.9
		V269.2z M276.1,217.1H379v37.1H276.1V217.1z M391.9,476.5c0,3.6-2.9,6.5-6.5,6.5H269.6c-3.6,0-6.5-2.9-6.5-6.5V319
		c0-4.9,2.1-9.6,5.7-12.8l15.6-14.1h86.1l15.6,14.1c3.6,3.3,5.7,8,5.7,12.8L391.9,476.5L391.9,476.5z"/>
</g>
</svg>
