<?xml version="1.0" encoding="utf-8"?>
<!-- Generator: Adobe Illustrator 22.0.1, SVG Export Plug-In . SVG Version: 6.00 Build 0)  -->
<svg version="1.1" id="Layer_1" xmlns="http://www.w3.org/2000/svg" xmlns:xlink="http://www.w3.org/1999/xlink" x="0px" y="0px"
	 viewBox="0 0 269.7 326.3" style="enable-background:new 0 0 269.7 326.3;" xml:space="preserve">
<style type="text/css">
	.st0{clip-path:url(#SVGID_2_);fill:url(#SVGID_3_);}
	.st1{clip-path:url(#SVGID_5_);fill:#FFFFFF;}
	.st2{clip-path:url(#SVGID_5_);fill:url(#SVGID_6_);}
	.st3{clip-path:url(#SVGID_8_);fill:url(#SVGID_9_);}
	.st4{clip-path:url(#SVGID_11_);fill:url(#SVGID_12_);}
	.st5{clip-path:url(#SVGID_14_);fill:none;stroke:#FFFFFF;stroke-width:2;stroke-miterlimit:10;}
	.st6{clip-path:url(#SVGID_16_);fill:url(#SVGID_17_);}
	.st7{clip-path:url(#SVGID_19_);fill:url(#SVGID_20_);}
	.st8{clip-path:url(#SVGID_19_);fill:none;stroke:#FFFFFF;stroke-width:2;stroke-miterlimit:10;}
</style>
<g>
	<defs>
		<path id="SVGID_1_" d="M117.2,70.7l-37.9,45.7c-2,2.5-4.3,4.7-6.7,6.6c-7.3,5.8-16.1,9-25.4,9.2c-0.3,0-0.6,0-0.9,0
			c-4.4,0-8.9-0.7-13.3-2c-9.9,17.5-15.5,37.6-15.5,59.1c0,66.5,54.1,120.5,120.9,120.5c66.8,0,120.9-53.9,120.9-120.5
			c0-66.5-54.1-120.5-120.9-120.5C131,68.9,124,69.5,117.2,70.7"/>
	</defs>
	<clipPath id="SVGID_2_">
		<use xlink:href="#SVGID_1_"  style="overflow:visible;"/>
	</clipPath>
	
		<linearGradient id="SVGID_3_" gradientUnits="userSpaceOnUse" x1="2.043241e-06" y1="326.332" x2="1" y2="326.332" gradientTransform="matrix(241.7744 0 0 -241.7744 17.3345 79088.0781)">
		<stop  offset="0" style="stop-color:#00B798"/>
		<stop  offset="1" style="stop-color:#0A9B6C"/>
	</linearGradient>
	<rect x="17.3" y="68.9" class="st0" width="241.8" height="241"/>
</g>
<g>
	<defs>
		<rect id="SVGID_4_" width="269.7" height="326.3"/>
	</defs>
	<clipPath id="SVGID_5_">
		<use xlink:href="#SVGID_4_"  style="overflow:visible;"/>
	</clipPath>
	<path class="st1" d="M237,240.3c-8,2.9-16.1,2.6-23.3-2.7c-4.7-3.5-6.8-8.5-7-14.2c-0.1-3.9,0.3-7.8,0.9-11.7c1-6,2.4-12,3.7-18
		c0.9-4.6,2.2-9.1,2.7-13.7c1.3-13.9-3.7-25.5-14.3-34.4c-9.3-7.9-20.4-10.9-32.7-9.1c-7.7,1.1-14.5,4.3-20.3,9.4
		c-1.1,0.9-1.7,1-2.8,0c-9.8-8.2-21.1-11.3-33.7-9.3c-7.5,1.2-14.1,4.4-19.8,9.4c-0.4,0.4-0.9,0.7-1.2,0.9c-3-2.1-5.5-4.5-8.5-6
		c-7-3.5-15.4,0.4-18.2,7.5c-2.1,5.4,0.3,12.3,5.1,15.5c4.9,3.4,7.1,8.3,6.7,14.1c-0.2,3.6-0.9,7.2-1.5,10.8
		c-0.9,4.5-1.9,8.9-2.9,13.3c-0.9,4.2-1.9,8.3-2.8,12.5c-0.6,2.8-1.2,5.7-1.4,8.6c-0.4,5.9,4.3,11.7,10.9,13
		c6.1,1.2,12.8-2.4,14.9-8.2c1-2.9,1.6-5.9,2.2-8.9c1-4.5,2-9.1,3-13.6c1.8-8.5,3.6-17.1,5.6-25.6c0.8-3.4,1.6-6.8,2.9-9.9
		c1.9-4.3,7.2-7.9,14.3-7c4.6,0.6,9.1,3.8,10.9,9.1c0.9,2.6,1,5.2,0.4,7.9c-1.7,7.5-3.2,15-4.8,22.5c-1.2,5.8-2.6,11.5-3.9,17.3
		c-1.5,6.5,1.2,12.2,7.1,15.3c7.1,3.8,16.8-0.3,18.8-8.1c1.6-6.2,2.8-12.5,4.2-18.8c1.3-5.9,2.7-11.9,4-17.8
		c1.4-6.1,2.6-12.2,4.1-18.3c1.3-5,6.5-8.9,11.8-9.2c6.2-0.4,10.9,2.1,13.7,7.5c1.5,2.9,1.9,6,1.1,9.3c-1.4,6-2.6,12.1-3.8,18.2
		c-0.9,4.4-2,8.8-2.7,13.2c-1.9,12.4-0.6,24.2,5.9,35.2c3.7,6.2,8.7,11.1,14.7,15c0.4,0.2,0.7,0.5,1.1,0.8c1.6,0.9,3.5,1.9,5.6,2.8
		c0.5,0.1,1.1,0.3,1.5,0.5c6.2,2.2,12.5,3.5,19.1,3.2c0.1,0,0.3,0,0.7,0.1c8.1-9.1,15.1-16.7,20.1-27.9c1.7-3.8-14.2,5.6-12.9,1.6
		c-2.2,4,10.4-6.3,6.7-3.6C240.6,240.2,239.9,239.3,237,240.3"/>
	<path class="st1" d="M93.4,161.8c-5.7,7.8-16.7,9.5-24.5,3.7c-7.8-5.7-9.5-16.7-3.7-24.5c5.7-7.8,16.7-9.5,24.5-3.7
		C97.5,143,99.1,154,93.4,161.8"/>
	
		<linearGradient id="SVGID_6_" gradientUnits="userSpaceOnUse" x1="0" y1="326.332" x2="1" y2="326.332" gradientTransform="matrix(30.6201 22.493 22.493 -30.6201 -7276.1729 10132.4932)">
		<stop  offset="0" style="stop-color:#00B798"/>
		<stop  offset="1" style="stop-color:#0A9B6C"/>
	</linearGradient>
	<path class="st2" d="M93.4,161.8l0.8,0.6c-3.6,4.9-9.2,7.5-14.9,7.5c-3.8,0-7.6-1.2-10.9-3.6c-4.9-3.6-7.5-9.2-7.5-14.9
		c0-3.8,1.2-7.6,3.6-10.9c3.6-4.9,9.2-7.5,14.9-7.5c3.8,0,7.6,1.2,10.9,3.6c4.9,3.6,7.6,9.2,7.5,14.9c0,3.8-1.2,7.6-3.6,10.9
		L93.4,161.8l-0.8-0.6c2.2-2.9,3.2-6.4,3.2-9.8c0-5.1-2.3-10.1-6.7-13.3c-2.9-2.2-6.4-3.2-9.8-3.2c-5.1,0-10.1,2.3-13.3,6.7
		c-2.2,2.9-3.2,6.4-3.2,9.8c0,5.1,2.3,10.1,6.7,13.3c2.9,2.2,6.4,3.2,9.8,3.2c5.1,0,10.1-2.3,13.3-6.7L93.4,161.8z"/>
</g>
<g>
	<defs>
		<path id="SVGID_7_" d="M90.9,0.5C79.1-1.5,67.6,2.6,59.8,12L48.7,25.4l-2.3-1.9l0,0l0,0L13.7,62.9c-6.6,8-9.3,17.8-7.7,27.6
			c1.6,9.4,6.9,18.3,15.1,25.1c0.1,0.1,0.2,0.2,0.3,0.3C7.9,137,0,162.2,0,189.1c0,75.7,62.3,137.3,138.8,137.3
			c39,0,74.2-15.9,99.4-41.6c5.9-6.1-1.3-7.6-6-6.5c-1.2,0.3-3,2.1-3.5,2.4c-23.3,22.3-55,36.1-89.9,36.1
			c-71.3,0-129.2-57.3-129.2-127.7c0-25,7.3-48.3,19.9-68c2.5,1.3,5,2.3,7.5,3.1c3.8,1.1,7.7,1.7,11.6,1.6
			c7.5-0.2,14.5-2.7,20.3-7.4c2-1.5,3.8-3.3,5.4-5.3l32.3-38.9l0.4-0.5l-2.3-1.9l11.1-13.3c6.8-8.2,9.2-18.3,6.9-28.4
			c0.7-1.4,0.7-3.2-0.1-4.9c-1.3-2.7-4.1-4.1-6.3-3c-2.2,1-3,4.1-1.7,6.8c1,2.1,2.9,3.4,4.8,3.4c1.5,8.4-0.7,16.9-6.4,23.7
			l-11.1,13.4l-2.5-2l-11,13.2l-21.2,25.6c-6.4,7.7-15.3,11-24.3,9.8c-5.5-0.7-11.1-3.1-16.1-7.3C13.7,97.9,11.6,81,21.9,68.6
			L54,29.9l-2.5-2l11.1-13.4C69.2,6.6,78.7,2.8,88.6,4c0,2,1.6,4,4,4.8c2.9,0.9,5.8-0.2,6.5-2.6c0.7-2.3-1-5-3.8-5.9
			C94.6,0.1,93.9,0,93.3,0C92.5,0,91.6,0.2,90.9,0.5"/>
	</defs>
	<clipPath id="SVGID_8_">
		<use xlink:href="#SVGID_7_"  style="overflow:visible;"/>
	</clipPath>
	
		<linearGradient id="SVGID_9_" gradientUnits="userSpaceOnUse" x1="0" y1="326.3363" x2="1" y2="326.3363" gradientTransform="matrix(0 426.8778 426.8778 0 -139183.6719 -86.8585)">
		<stop  offset="0" style="stop-color:#00B798"/>
		<stop  offset="0.2658" style="stop-color:#07B494"/>
		<stop  offset="0.5347" style="stop-color:#0BAD8A"/>
		<stop  offset="0.8042" style="stop-color:#0BA47B"/>
		<stop  offset="1" style="stop-color:#0A9B6C"/>
	</linearGradient>
	<rect x="0" y="-1.5" class="st3" width="244.1" height="327.9"/>
</g>
<g>
	<defs>
		<path id="SVGID_10_" d="M224,256.9c-2.3,12.2,5.8,24,18.1,26.2c12.2,2.3,24-5.8,26.2-18.1c2.3-12.2-5.8-24-18.1-26.2
			c-1.4-0.3-2.8-0.4-4.1-0.4C235.5,238.4,226,246,224,256.9"/>
	</defs>
	<clipPath id="SVGID_11_">
		<use xlink:href="#SVGID_10_"  style="overflow:visible;"/>
	</clipPath>
	
		<linearGradient id="SVGID_12_" gradientUnits="userSpaceOnUse" x1="0" y1="326.3358" x2="1" y2="326.3358" gradientTransform="matrix(-8.1757 44.3218 44.3218 8.1757 -14213.334 -2429.1948)">
		<stop  offset="0" style="stop-color:#00B798"/>
		<stop  offset="1" style="stop-color:#0A9B6C"/>
	</linearGradient>
	<polygon class="st4" points="279,240 269,294.1 213.4,283.8 223.4,229.7 	"/>
</g>
<g>
	<defs>
		<rect id="SVGID_13_" width="269.7" height="326.3"/>
	</defs>
	<clipPath id="SVGID_14_">
		<use xlink:href="#SVGID_13_"  style="overflow:visible;"/>
	</clipPath>
	<path class="st5" d="M242.1,283.1c-12.2-2.3-20.3-14-18.1-26.2c2.3-12.2,14-20.3,26.2-18.1c12.2,2.3,20.3,14,18.1,26.2
		C266.1,277.3,254.3,285.4,242.1,283.1z"/>
</g>
<g>
	<defs>
		<path id="SVGID_15_" d="M224,256.9c-2.3,12.2,5.8,24,18.1,26.2c12.2,2.3,24-5.8,26.2-18.1c2.3-12.2-5.8-24-18.1-26.2
			c-1.4-0.3-2.8-0.4-4.1-0.4C235.5,238.4,226,246,224,256.9"/>
	</defs>
	<clipPath id="SVGID_16_">
		<use xlink:href="#SVGID_15_"  style="overflow:visible;"/>
	</clipPath>
	
		<linearGradient id="SVGID_17_" gradientUnits="userSpaceOnUse" x1="0" y1="326.3358" x2="1" y2="326.3358" gradientTransform="matrix(-8.1757 44.3218 44.3218 8.1757 -14213.334 -2429.1948)">
		<stop  offset="0" style="stop-color:#00B798"/>
		<stop  offset="1" style="stop-color:#0A9B6C"/>
	</linearGradient>
	<polygon class="st6" points="279,240 269,294.1 213.4,283.8 223.4,229.7 	"/>
</g>
<g>
	<defs>
		<rect id="SVGID_18_" width="269.7" height="326.3"/>
	</defs>
	<clipPath id="SVGID_19_">
		<use xlink:href="#SVGID_18_"  style="overflow:visible;"/>
	</clipPath>
	
		<linearGradient id="SVGID_20_" gradientUnits="userSpaceOnUse" x1="0" y1="326.332" x2="1" y2="326.332" gradientTransform="matrix(-8.5385 46.2886 46.2886 8.5385 -14854.9854 -2548.5715)">
		<stop  offset="0" style="stop-color:#00B798"/>
		<stop  offset="1" style="stop-color:#0A9B6C"/>
	</linearGradient>
	<path class="st7" d="M242.1,283.1l-0.1,0.5c-11.1-2.1-18.9-11.7-18.9-22.6c0-1.4,0.1-2.8,0.4-4.2c2-11.1,11.7-18.9,22.6-18.9
		c1.4,0,2.8,0.1,4.2,0.4c11.1,2.1,18.9,11.7,18.9,22.6c0,1.4-0.1,2.8-0.4,4.2c-2,11.1-11.7,18.9-22.6,18.9c-1.4,0-2.8-0.1-4.2-0.4
		L242.1,283.1l0.1-0.5c1.3,0.2,2.7,0.4,4,0.4c10.4,0,19.7-7.4,21.7-18c0.2-1.3,0.4-2.7,0.4-4c0-10.4-7.4-19.7-18-21.6
		c-1.3-0.2-2.7-0.4-4-0.4c-10.4,0-19.7,7.4-21.6,18c-0.2,1.4-0.4,2.7-0.4,4c0,10.4,7.4,19.7,18,21.6L242.1,283.1z"/>
	<path class="st8" d="M259.4,264c-1.7,7.3-9,11.8-16.3,10.1c-7.3-1.7-11.8-9-10.1-16.3c1.7-7.3,9-11.8,16.3-10.1
		C256.6,249.4,261.1,256.7,259.4,264z"/>
</g>
</svg>
