<?xml version="1.0" encoding="utf-8"?>
<!-- Generator: Adobe Illustrator 22.0.1, SVG Export Plug-In . SVG Version: 6.00 Build 0)  -->
<svg version="1.1" id="Layer_1" xmlns="http://www.w3.org/2000/svg" xmlns:xlink="http://www.w3.org/1999/xlink" x="0px" y="0px"
	 viewBox="0 0 277.2 332.3" style="enable-background:new 0 0 277.2 332.3;" xml:space="preserve">
<style type="text/css">
	.st0{clip-path:url(#SVGID_2_);fill:#FFFFFF;}
	.st1{clip-path:url(#SVGID_4_);fill:url(#SVGID_5_);}
	.st2{clip-path:url(#SVGID_7_);fill:#00B798;}
	.st3{clip-path:url(#SVGID_7_);fill:none;stroke:#FFFFFF;stroke-width:2;stroke-miterlimit:10;}
	.st4{clip-path:url(#SVGID_7_);fill:#FFFFFF;}
	.st5{clip-path:url(#SVGID_7_);fill:none;stroke:#FFFFFF;stroke-miterlimit:10;}
	.st6{clip-path:url(#SVGID_7_);fill:none;stroke:#00B798;stroke-miterlimit:10;}
	.st7{clip-path:url(#SVGID_7_);fill:url(#SVGID_8_);}
	.st8{clip-path:url(#SVGID_7_);fill:url(#SVGID_9_);}
</style>
<g>
	<defs>
		<rect id="SVGID_1_" width="277.2" height="332.3"/>
	</defs>
	<clipPath id="SVGID_2_">
		<use xlink:href="#SVGID_1_"  style="overflow:visible;"/>
	</clipPath>
	<path class="st0" d="M140.8,70.1c-7.3,0-14.5,0.7-21.4,1.9l-38.6,46.6c-2.1,2.5-4.4,4.8-6.9,6.7c-7.4,5.9-16.4,9.2-25.9,9.4
		c-0.3,0-0.6,0-0.9,0c-4.5,0-9-0.7-13.6-2c-10.1,17.8-15.8,38.3-15.8,60.2c0,67.8,55.1,122.7,123.1,122.7
		c68,0,123.1-54.9,123.1-122.7C263.9,125.1,208.7,70.1,140.8,70.1"/>
</g>
<g>
	<defs>
		<path id="SVGID_3_" d="M170,138.9c-7.8,1.1-14.7,4.4-20.7,9.5c-1.1,0.9-1.7,1-2.9,0c-10-8.4-21.5-11.5-34.4-9.4
			c-7.6,1.2-14.3,4.5-20.1,9.5c-0.4,0.4-0.9,0.7-1.2,0.9c-3-2.1-5.6-4.6-8.7-6.1c-7.2-3.6-15.7,0.5-18.5,7.7
			c-2.1,5.5,0.3,12.5,5.1,15.8c5,3.4,7.2,8.4,6.8,14.4c-0.2,3.7-0.9,7.3-1.6,11c-0.9,4.5-1.9,9-3,13.6c-0.9,4.2-2,8.4-2.8,12.7
			c-0.6,2.9-1.2,5.8-1.4,8.7c-0.4,6,4.4,11.9,11.1,13.2c6.2,1.2,13-2.4,15.2-8.3c1.1-2.9,1.6-6,2.3-9.1c1.1-4.6,2-9.3,3.1-13.9
			c1.9-8.7,3.7-17.4,5.7-26.1c0.8-3.4,1.6-6.9,3-10.1c1.9-4.4,7.3-8.1,14.5-7.1c4.6,0.6,9.3,3.8,11.1,9.2c0.9,2.6,1,5.3,0.4,8
			c-1.7,7.6-3.3,15.3-4.9,22.9c-1.3,5.9-2.6,11.7-3.9,17.6c-1.5,6.6,1.2,12.4,7.2,15.6c7.3,3.9,17.2-0.3,19.1-8.2
			c1.6-6.3,2.9-12.7,4.3-19.1c1.4-6,2.7-12.1,4.1-18.1c1.4-6.2,2.7-12.4,4.2-18.6c1.3-5.1,6.7-9.1,12-9.4c6.3-0.4,11.1,2.1,14,7.7
			c1.6,3,1.9,6.1,1.2,9.4c-1.4,6.1-2.6,12.3-3.9,18.5c-0.9,4.5-2.1,8.9-2.8,13.4c-2,12.6-0.6,24.7,6,35.9
			c3.7,6.3,8.8,11.3,14.9,15.3c0.4,0.3,0.8,0.5,1.1,0.9c1.6,1,3.5,1.9,5.7,2.8c0.5,0.1,1.1,0.3,1.6,0.5c6.3,2.3,12.7,3.5,19.5,3.2
			c0.1,0,0.3,0,0.7,0.1c8.3-9.3,15.2-19.8,20.3-31.3c0.9-1.9-2.7,0.2-6.3,2.3c-2.5,1.5-5.1,2.9-6.2,3c0.9-0.4,2.4-1.4,3.8-2.4
			c2.3-1.7,4.3-3.4,2.5-2.1c-2.3,1.7-3,0.7-5.9,1.7c-8.2,2.9-16.4,2.7-23.7-2.8c-4.8-3.6-7-8.7-7.2-14.4c-0.1-3.9,0.3-8,0.9-11.9
			c1-6.2,2.5-12.2,3.7-18.4c1-4.6,2.3-9.3,2.7-14c1.3-14.1-3.8-25.9-14.6-35.1c-7.7-6.5-16.6-9.7-26.3-9.7
			C174.7,138.4,172.4,138.6,170,138.9"/>
	</defs>
	<clipPath id="SVGID_4_">
		<use xlink:href="#SVGID_3_"  style="overflow:visible;"/>
	</clipPath>
	
		<linearGradient id="SVGID_5_" gradientUnits="userSpaceOnUse" x1="0" y1="332.3207" x2="1" y2="332.3207" gradientTransform="matrix(362.1283 0 0 -362.1283 -41.3917 120548.0547)">
		<stop  offset="0" style="stop-color:#00B798"/>
		<stop  offset="0.2447" style="stop-color:#0AB292"/>
		<stop  offset="0.5983" style="stop-color:#0AA983"/>
		<stop  offset="1" style="stop-color:#0A9B6C"/>
	</linearGradient>
	<rect x="61.4" y="137" class="st1" width="192.8" height="136.6"/>
</g>
<g>
	<defs>
		<rect id="SVGID_6_" width="277.2" height="332.3"/>
	</defs>
	<clipPath id="SVGID_7_">
		<use xlink:href="#SVGID_6_"  style="overflow:visible;"/>
	</clipPath>
	<path class="st2" d="M98.6,154.2c0,9.8-8,17.8-17.8,17.8c-9.8,0-17.8-8-17.8-17.8c0-9.8,8-17.8,17.8-17.8
		C90.6,136.4,98.6,144.4,98.6,154.2"/>
	<path class="st3" d="M98.6,154.2c0,9.8-8,17.8-17.8,17.8c-9.8,0-17.8-8-17.8-17.8c0-9.8,8-17.8,17.8-17.8
		C90.6,136.4,98.6,144.4,98.6,154.2z"/>
	<path class="st4" d="M233,285.8c-23.7,22.7-56,36.7-91.6,36.7c-72.6,0-131.6-58.3-131.6-130c0-25.4,7.4-49.2,20.3-69.2
		c2.5,1.3,5.1,2.4,7.7,3.1c3.9,1.2,7.9,1.7,11.8,1.7c7.6-0.2,14.8-2.8,20.7-7.5c2-1.6,3.8-3.4,5.5-5.4l32.9-39.7l0.4-0.5l-2.3-1.9
		L118,59.6c6.9-8.3,9.4-18.7,7-28.9c0.7-1.4,0.7-3.3-0.1-5c-1.3-2.8-4.2-4.1-6.5-3.1c-2.3,1.1-3,4.2-1.7,6.9c1,2.1,3,3.4,4.9,3.4
		c1.6,8.6-0.7,17.2-6.5,24.2l-11.3,13.6l-2.5-2.1L90,82.1l-21.6,26.1c-6.5,7.8-15.6,11.2-24.7,10c-5.6-0.7-11.3-3.2-16.4-7.4
		c-13.4-11.1-15.5-28.3-5-40.9L55,30.4l-2.5-2.1l11.3-13.6c6.6-8,16.2-11.8,26.3-10.6c0,2.1,1.6,4.1,4.1,4.9
		c2.9,0.9,5.9-0.3,6.6-2.6c0.8-2.4-1-5.1-3.9-6c-1.6-0.5-3.2-0.4-4.4,0.2C80.5-1.6,68.8,2.7,60.9,12.2L49.6,25.8l-2.3-1.9l0,0l0,0
		L14,64c-6.7,8.1-9.5,18.1-7.9,28.1c1.6,9.5,7.1,18.6,15.4,25.5c0.1,0.1,0.2,0.2,0.3,0.3C8,139.6,0,165.1,0,192.5
		c0,77.1,63.4,139.8,141.4,139.8c39.7,0,75.6-16.2,101.3-42.3C242.6,280.4,235.4,284,233,285.8"/>
	<path class="st2" d="M264.7,267.5c0,8.4-6.8,15.2-15.2,15.2c-8.4,0-15.2-6.8-15.2-15.2c0-8.4,6.8-15.2,15.2-15.2
		C257.8,252.3,264.7,259.1,264.7,267.5"/>
	<path class="st5" d="M264.7,267.5c0,8.4-6.8,15.2-15.2,15.2c-8.4,0-15.2-6.8-15.2-15.2c0-8.4,6.8-15.2,15.2-15.2
		C257.8,252.3,264.7,259.1,264.7,267.5z"/>
	<path class="st4" d="M276.7,267.5c0,15.1-12.2,27.3-27.3,27.3c-15.1,0-27.3-12.2-27.3-27.3c0-15.1,12.2-27.3,27.3-27.3
		C264.5,240.2,276.7,252.5,276.7,267.5"/>
	<ellipse class="st6" cx="249.4" cy="267.5" rx="27.3" ry="27.3"/>
	
		<linearGradient id="SVGID_8_" gradientUnits="userSpaceOnUse" x1="0" y1="332.319" x2="1" y2="332.319" gradientTransform="matrix(55.5977 0 0 -55.5977 221.631 18743.7168)">
		<stop  offset="0" style="stop-color:#00B798"/>
		<stop  offset="3.763440e-02" style="stop-color:#00B798"/>
		<stop  offset="0.2779" style="stop-color:#08B394"/>
		<stop  offset="0.5595" style="stop-color:#0BAC88"/>
		<stop  offset="0.8609" style="stop-color:#0BA176"/>
		<stop  offset="1" style="stop-color:#0A9B6C"/>
	</linearGradient>
	<path class="st7" d="M276.7,267.5L276.7,267.5c0,15.1-12.2,27.3-27.3,27.3c-15.1,0-27.3-12.2-27.3-27.3c0-15.1,12.2-27.3,27.3-27.3
		C264.5,240.2,276.7,252.5,276.7,267.5L276.7,267.5L276.7,267.5c0-15.1-12.2-27.3-27.3-27.3c-15.1,0-27.3,12.2-27.3,27.3
		c0,15.1,12.2,27.3,27.3,27.3C264.5,294.8,276.7,282.6,276.7,267.5L276.7,267.5z"/>
	
		<linearGradient id="SVGID_9_" gradientUnits="userSpaceOnUse" x1="0" y1="332.319" x2="1" y2="332.319" gradientTransform="matrix(37.8526 0 0 -37.8526 230.503 12846.6865)">
		<stop  offset="0" style="stop-color:#00B798"/>
		<stop  offset="3.763440e-02" style="stop-color:#00B798"/>
		<stop  offset="0.2779" style="stop-color:#08B394"/>
		<stop  offset="0.5595" style="stop-color:#0BAC88"/>
		<stop  offset="0.8609" style="stop-color:#0BA176"/>
		<stop  offset="1" style="stop-color:#0A9B6C"/>
	</linearGradient>
	<path class="st8" d="M267.4,267.5h0.5c0,10.2-8.3,18.4-18.4,18.4c-10.2,0-18.4-8.3-18.4-18.4c0-10.2,8.3-18.4,18.4-18.4
		c10.2,0,18.4,8.2,18.4,18.4H267.4h-0.5c0-9.6-7.8-17.4-17.4-17.4c-9.6,0-17.4,7.8-17.4,17.4c0,9.6,7.8,17.4,17.4,17.4
		c9.6,0,17.4-7.8,17.4-17.4H267.4z"/>
	<polyline class="st4" points="231.8,286.4 240.9,291.2 241.3,291.4 237.4,295 228.5,289.9 232.3,286.4 	"/>
</g>
</svg>
