<?xml version="1.0" encoding="utf-8"?>
<!-- Generator: Adobe Illustrator 22.0.1, SVG Export Plug-In . SVG Version: 6.00 Build 0)  -->
<svg version="1.1" id="Layer_1" xmlns="http://www.w3.org/2000/svg" xmlns:xlink="http://www.w3.org/1999/xlink" x="0px" y="0px"
	 viewBox="0 0 469.3 469.3" style="enable-background:new 0 0 469.3 469.3;" xml:space="preserve">
<style type="text/css">
	.st0{clip-path:url(#SVGID_2_);fill:#434C54;}
</style>
<g>
	<defs>
		<rect id="SVGID_1_" width="469.3" height="469.3"/>
	</defs>
	<clipPath id="SVGID_2_">
		<use xlink:href="#SVGID_1_"  style="overflow:visible;"/>
	</clipPath>
	<path class="st0" d="M234.7,149.3c-47.1,0-85.3,38.2-85.3,85.3s38.2,85.3,85.3,85.3s85.3-38.2,85.3-85.3
		C320,187.5,281.8,149.3,234.7,149.3 M425.4,213.3C415.6,124.4,345,53.8,256,43.9V0h-42.7v43.9c-89,9.8-159.6,80.4-169.4,169.4H0
		V256h43.9c9.8,89,80.4,159.6,169.4,169.4v43.9H256v-43.9c89-9.8,159.6-80.4,169.4-169.4h43.9v-42.7H425.4z M234.7,384
		c-82.5,0-149.3-66.9-149.3-149.3S152.2,85.3,234.7,85.3S384,152.2,384,234.7S317.1,384,234.7,384"/>
</g>
</svg>
