<?xml version="1.0" encoding="utf-8"?>
<!-- Generator: Adobe Illustrator 23.0.1, SVG Export Plug-In . SVG Version: 6.00 Build 0)  -->
<svg version="1.1" id="Layer_1" xmlns="http://www.w3.org/2000/svg" xmlns:xlink="http://www.w3.org/1999/xlink" x="0px" y="0px"
	 viewBox="0 0 512 512" style="enable-background:new 0 0 512 512;" xml:space="preserve">
<style type="text/css">
	.st0{fill:#E2EBF9;}
	.st1{fill:#FFFFFF;}
	.st2{fill:#FF9052;}
	.st3{fill:#434C54;}
</style>
<path class="st0" d="M486.41,431.58v32.68c-16.54,19.42-62.58,33.08-119.61,40.67H139.2c-53.17-7.07-96.79-19.43-115.85-36.81v-40.4
	c4.88-4.46,11.34-8.53,19.06-12.25c12.61-6.06,28.6-11.17,46.59-15.38c22.12-5.18,47.27-9.02,72.88-11.63h182.23
	c27.64,2.82,54.73,7.06,78.07,12.89C451.87,408.75,475.48,418.71,486.41,431.58z"/>
<path class="st1" d="M481.12,438.99L481.12,438.99c0,7.75-4.53,14.8-11.6,17.98c-21.62,9.71-60.66,16.76-107.08,21.05
	c-0.61,0.06-1.23,0.08-1.85,0.08H134.83c-0.61,0-1.23-0.03-1.84-0.08c-43.25-3.99-80.1-10.39-102.41-19.1
	c-7.56-2.95-12.52-10.25-12.52-18.37l6.35-1.28c0-8.14,4.05-10.11,11.65-13.06c2.04-0.79,9.03-2.78,11.29-3.53
	c12.61-4.16,18.37-13.63,36.36-16.52c21.91-3.52,46.8-6.14,72.17-7.93c0.47-0.03,0.95-0.05,1.42-0.05h180.8
	c0.48,0,0.95,0.02,1.43,0.05c27.39,1.93,54.22,4.83,77.36,8.79c21.62,3.7,40.02,8.33,52.65,13.98
	C476.61,424.19,481.12,431.25,481.12,438.99z"/>
<path class="st0" d="M422.18,401.35v16.67c-29.64-7.84-71.03-14.33-123.43-16.91c-16.33,22.43-29.73,39.59-35.97,47.44h-19.56
	c-6.24-7.85-19.64-25.01-35.97-47.44c-49.42,2.43-89.04,8.35-118.25,15.59v-16.61c31.97-7.49,70.25-12.16,107.14-14.42
	C151.29,322.45,93,229.93,93,176c0-88.37,71.63-160,160-160s160,71.63,160,160c0,53.93-58.29,146.45-103.14,209.67
	C348.77,388.05,389.22,393.12,422.18,401.35z"/>
<path class="st1" d="M252.16,400.83c-4.41,6.05-8.6,11.72-12.5,16.93c-3.64,4.86-7.01,9.31-10.06,13.3
	c-6.28-8.21-13.93-18.38-22.35-29.95c-15.65,0.77-30.32,1.89-43.98,3.29c-0.86-1.17-1.73-2.36-2.61-3.57
	c-49.42,2.43-89.04,8.35-118.25,15.59v-0.95c12.61-6.06,28.6-11.17,46.59-15.38c31.97-7.49,70.25-12.16,107.14-14.42
	C151.29,322.45,93,229.93,93,176c0-80.79,59.87-147.59,137.67-158.46c18.65,2.84,36.25,8.9,52.2,17.59
	c49.77,27.13,83.54,79.91,83.54,140.59c0,53.93-58.29,146.45-103.14,209.67C261,391.52,258.41,393.64,252.16,400.83z"/>
<path class="st2" d="M293,224v-48h16c3.34,0,6.34-2.09,7.5-5.23c1.16-3.14,0.24-6.67-2.3-8.84l-56-48c-2.99-2.56-7.41-2.56-10.4,0
	l-56,48c-2.54,2.18-3.46,5.7-2.3,8.84c1.16,3.14,4.15,5.22,7.5,5.23h16v48c0,4.42,3.58,8,8,8h64C289.42,232,293,228.41,293,224z
	 M253,130.53L287.4,160h-68.8L253,130.53z M229,216v-40h48v40H229z"/>
<path class="st3" d="M357,176c0-57.44-46.56-104-104-104s-104,46.56-104,104s46.56,104,104,104C310.41,279.93,356.93,233.41,357,176
	z M165,176c0-48.6,39.4-88,88-88s88,39.4,88,88s-39.4,88-88,88C204.42,263.94,165.06,224.57,165,176z"/>
<path class="st2" d="M253,288c-4.42,0-8,3.58-8,8v24c0,4.42,3.58,8,8,8s8-3.58,8-8v-24C261,291.58,257.42,288,253,288z"/>
<path class="st2" d="M253,336c-4.42,0-8,3.58-8,8v16c0,4.42,3.58,8,8,8s8-3.58,8-8v-16C261,339.58,257.42,336,253,336z"/>
<path class="st2" d="M261,400v-16c0-4.42-3.58-8-8-8s-8,3.58-8,8v16c0,4.42,3.58,8,8,8S261,404.41,261,400z"/>
<path class="st3" d="M486.41,431.58c-10.93-12.87-34.54-22.83-64.23-30.23c-23.34-5.83-50.43-10.07-78.07-12.89
	c-11.39-1.17-22.89-2.1-34.25-2.79C354.71,322.45,413,229.93,413,176c0-88.37-71.63-160-160-160c-7.58,0-15.03,0.53-22.33,1.54
	C152.87,28.41,93,95.21,93,176c0,53.93,58.29,146.45,103.14,209.67c-11.36,0.7-22.85,1.62-34.26,2.79
	c-25.61,2.61-50.76,6.45-72.88,11.63c-17.99,4.21-33.98,9.32-46.59,15.38c-7.72,3.72-14.18,7.79-19.06,12.25
	C16.71,433.76,13,440.51,13,448c0,7.32,3.66,14.03,10.35,20.12c19.06,17.38,62.68,29.74,115.85,36.81
	c35.2,4.69,74.58,7.07,113.8,7.07s78.6-2.38,113.8-7.07c57.03-7.59,103.07-21.25,119.61-40.67C490.7,459.22,493,453.8,493,448
	C493,442.07,490.67,436.6,486.41,431.58z M109,176c0.09-79.5,64.51-143.91,144-144c10.24,0.01,20.23,1.09,29.87,3.13
	C348.02,48.94,396.92,106.74,397,176c0,52.46-63.71,149.82-108.15,211.35c-0.27,0.37-0.54,0.74-0.8,1.11
	c-3.57,4.92-6.99,9.6-10.26,14.01c-10.55,14.26-19.3,25.61-24.79,32.63c-3.35-4.28-7.9-10.16-13.34-17.34
	c-6.24-8.23-13.64-18.16-21.7-29.3C173.48,327,109,228.78,109,176z M253,496c-138.79,0-224-27.97-224-48c0-9.29,20.49-21.51,60-31.3
	c19.96-4.95,44.78-9.28,74.27-12.3c13.66-1.4,28.33-2.52,43.98-3.29c8.42,11.57,16.07,21.74,22.35,29.95
	c5.9,7.7,10.6,13.68,13.62,17.49c1.88,2.37,3.11,3.9,3.57,4.47c1.51,1.87,3.8,2.96,6.21,2.96s4.7-1.09,6.21-2.96
	c0.46-0.57,1.69-2.1,3.57-4.47c5.95-7.49,18.43-23.45,33.74-44.39c0.74-1,1.48-2.02,2.23-3.05c29.04,1.43,54.69,4.06,76.84,7.46
	c17.82,2.73,33.37,5.95,46.59,9.45C458.3,427.58,477,439.12,477,448C477,468.03,391.79,496,253,496z"/>
</svg>
