<?xml version="1.0" encoding="utf-8"?>
<!-- Generator: Adobe Illustrator 23.0.1, SVG Export Plug-In . SVG Version: 6.00 Build 0)  -->
<svg version="1.1" id="Capa_1" xmlns="http://www.w3.org/2000/svg" xmlns:xlink="http://www.w3.org/1999/xlink" x="0px" y="0px"
	 viewBox="0 0 385.41 309.18" style="enable-background:new 0 0 385.41 309.18;" xml:space="preserve">
<style type="text/css">
	.st0{fill:#E2EBF9;}
	.st1{fill:#FFFFFF;}
	.st2{fill:#5DE1C0;}
	.st3{fill:#F46856;}
	.st4{fill:#FFAA16;}
	.st5{fill:#DBDBDB;}
	.st6{fill:#9E9E9E;}
	.st7{display:none;fill:#FFFFFF;}
	.st8{fill:#FF914D;}
</style>
<g>
	<g>
		<g>
			<g>
				<path class="st0" d="M267.33,108.23c2.91,4.83,6.93,8.67,11.66,11.69c0.94-0.36,1.84-0.83,2.68-1.37
					c-7.24-5.96-14.66-13.24-16.77-22.67c-0.09-0.43,0.79-1.14,0.92-0.66c2.47,9.53,9.86,16.33,17.23,22.3
					c0.86-0.72,1.64-1.54,2.28-2.47c2.35-3.41,3.31-8.4,1.17-12.14c-0.04-0.07-0.04-0.15-0.03-0.23c-4.1-4.4-6.12-10.04-6.3-16.04
					c-0.26-8.3,3.04-18,11.44-21.19c4.63-1.76,10.05-1.06,13.86,2.19c3.7,3.17,6.16,8.41,5.66,13.33c0.71,0,1.43,0,2.15,0
					c-0.65-5.94-2.09-11.65-7.39-15.17c-0.31-0.2,0.33-0.93,0.64-0.75c5.59,3.27,7.61,9.49,8.04,15.66
					c0.01,0.08-0.02,0.17-0.06,0.26c2.19,0,4.38,0,6.57,0c0.7,0,1.44-0.02,2.18-0.03c0-0.12,0.01-0.23,0.02-0.35
					c0.21-6.15-1.3-12.31-4.86-17.4c-3.24-4.63-7.79-8.34-13.09-10.32c-11.4-4.26-25.4-1.4-33.85,7.45
					c-7.87,8.24-10.61,21.05-9.33,32.12C262.79,97.97,264.45,103.44,267.33,108.23z"/>
				<path class="st1" d="M242.29,221.02c-2.86,0-5.73,0.01-8.6,0.01c-3.01,0-6.03,0-9.04,0.03c-1.5,0.02-3,0.01-4.51,0.01
					c-0.97,0-2,0.08-2.97-0.07c-0.65,4.2-1.32,8.39-1.99,12.58c-0.35,2.14-0.68,4.29-1.02,6.43c-0.26,1.68-0.46,3.39-0.96,5.02
					c1.25-0.35,2.62-0.21,3.92-0.21c1.51,0,3.01-0.03,4.52,0c3,0.06,5.99,0.07,8.98,0.07c3.01,0,6.03-0.01,9.05-0.03
					c2.35-0.01,4.85-0.31,7.2-0.02c0.02-1.65,0.48-3.36,0.74-4.97c0.34-2.1,0.68-4.21,1.02-6.31c0.34-2.08,0.67-4.15,1-6.22
					c0.33-2.09,0.48-4.37,1.13-6.39c0.01-0.05,0.06-0.11,0.11-0.17C248.02,221.08,245.15,221.01,242.29,221.02z M244.42,242.49
					c-2.38,0.41-4.79,0.29-7.2,0.29c-2.52,0.01-5.05,0.02-7.57,0.02c-2.52,0-5.04,0-7.56,0c-1.34,0-2.68,0-4.02-0.02
					c-0.87-0.01-1.81,0.18-2.53-0.33c-0.24-0.17,0.17-0.6,0.32-0.66c1.07-0.46,2.2-0.32,3.35-0.33c1.18-0.01,2.36-0.01,3.53-0.01
					c2.52,0,5.04,0,7.57,0c2.52,0,5.04,0.01,7.55,0.02c2.3,0,4.65-0.17,6.92,0.3C245.17,241.83,244.63,242.46,244.42,242.49z"/>
				<path class="st1" d="M280.32,244.86c2.35-0.01,4.85-0.31,7.2-0.02c0.02-1.65,0.48-3.36,0.74-4.97c0.34-2.1,0.68-4.21,1.01-6.31
					c0.33-2.08,0.67-4.15,1-6.22c0.34-2.09,0.48-4.37,1.13-6.39c0.01-0.05,0.06-0.11,0.1-0.17c-2.84,0.32-5.71,0.25-8.57,0.26
					c-2.87,0-5.73,0.01-8.6,0.01c-3.01,0-6.03,0-9.05,0.03c-1.5,0.02-3,0.01-4.5,0.01c-0.97,0-2,0.08-2.97-0.07
					c-0.65,4.2-1.32,8.39-2,12.58c-0.35,2.14-0.68,4.29-1.02,6.43c-0.26,1.68-0.46,3.39-0.96,5.02c1.25-0.35,2.62-0.21,3.92-0.21
					c1.51,0,3.01-0.03,4.52,0c2.99,0.06,5.99,0.07,8.98,0.07C274.29,244.88,277.31,244.87,280.32,244.86z"/>
				<path class="st1" d="M186.62,181.78c1.51,0,3.01-0.03,4.52,0c2.99,0.06,5.99,0.07,8.98,0.07c3.02,0,6.03-0.01,9.05-0.03
					c2.35-0.01,4.85-0.31,7.2-0.02c0.02-1.65,0.48-3.37,0.74-4.97c0.34-2.1,0.68-4.21,1.02-6.31c0.33-2.07,0.67-4.15,1-6.22
					c0.34-2.1,0.48-4.37,1.13-6.39c0.01-0.05,0.05-0.11,0.11-0.17c-2.84,0.32-5.71,0.26-8.57,0.26c-2.87,0-5.73,0-8.6,0.01
					c-3.02,0-6.03,0-9.05,0.03c-1.5,0.01-3,0.01-4.5,0c-0.97,0-2,0.08-2.97-0.07c-0.62,4.03-1.26,8.06-1.92,12.09
					c-0.35,2.14-0.69,4.29-1.02,6.43c-0.29,1.83-0.48,3.73-1.04,5.51C183.95,181.63,185.32,181.78,186.62,181.78z"/>
				<path class="st1" d="M222.19,213.3c1.51,0,3.01-0.03,4.52,0c3,0.06,5.99,0.07,8.98,0.07c3.01,0,6.03-0.01,9.05-0.03
					c2.35-0.01,4.85-0.31,7.2-0.02c0.02-1.65,0.48-3.37,0.74-4.97c0.34-2.1,0.68-4.21,1.02-6.31c0.33-2.08,0.67-4.15,1-6.22
					c0.33-2.09,0.49-4.37,1.13-6.39c0.01-0.05,0.06-0.11,0.1-0.17c-2.84,0.32-5.71,0.25-8.57,0.26c-2.86,0-5.73,0.01-8.6,0.01
					c-3.01,0-6.03,0-9.05,0.03c-1.5,0.02-3,0.01-4.5,0c-0.97,0-2,0.08-2.97-0.07c-0.62,4.03-1.26,8.06-1.91,12.09
					c-0.35,2.14-0.69,4.29-1.02,6.43c-0.29,1.84-0.48,3.74-1.04,5.51C219.53,213.15,220.9,213.3,222.19,213.3z M220.95,210.19
					c1.07-0.46,2.2-0.32,3.35-0.33c1.18-0.01,2.36-0.01,3.54-0.01c2.52,0,5.04,0,7.56,0c2.52,0,5.04,0.01,7.56,0.02
					c2.3,0.01,4.65-0.17,6.92,0.3c0.39,0.08-0.16,0.7-0.36,0.74c-2.38,0.41-4.79,0.29-7.2,0.29c-2.53,0.01-5.05,0.02-7.57,0.02
					c-2.52,0-5.04,0-7.56,0c-1.34,0-2.68,0-4.02-0.02c-0.86-0.01-1.81,0.18-2.53-0.33C220.39,210.68,220.8,210.25,220.95,210.19z"/>
				<path class="st1" d="M262.85,213.3c1.51,0,3.01-0.03,4.52,0c2.99,0.06,5.99,0.07,8.98,0.07c3.02,0,6.03-0.01,9.05-0.03
					c2.35-0.01,4.85-0.31,7.2-0.02c0.02-1.65,0.48-3.37,0.74-4.97c0.34-2.1,0.68-4.21,1.02-6.31c0.33-2.08,0.67-4.15,1-6.22
					c0.34-2.09,0.49-4.37,1.13-6.39c0.01-0.05,0.06-0.11,0.11-0.17c-2.84,0.32-5.71,0.25-8.57,0.26c-2.86,0-5.73,0.01-8.6,0.01
					c-3.01,0-6.03,0-9.05,0.03c-1.5,0.02-3,0.01-4.5,0c-0.97,0-2,0.08-2.97-0.07c-0.62,4.03-1.27,8.06-1.92,12.09
					c-0.35,2.14-0.69,4.29-1.02,6.43c-0.29,1.84-0.48,3.74-1.04,5.51C260.19,213.15,261.56,213.3,262.85,213.3z"/>
				<path class="st2" d="M227.27,181.78c1.51,0,3.02-0.03,4.52,0c3,0.06,5.99,0.07,8.98,0.07c3.02,0,6.03-0.01,9.05-0.03
					c2.35-0.01,4.85-0.31,7.2-0.02c0.01-1.65,0.48-3.37,0.74-4.97c0.34-2.1,0.68-4.21,1.02-6.31c0.33-2.07,0.67-4.15,1-6.22
					c0.34-2.1,0.49-4.37,1.13-6.39c0.01-0.05,0.06-0.11,0.11-0.17c-2.84,0.32-5.71,0.26-8.57,0.26c-2.86,0-5.73,0-8.6,0.01
					c-3.01,0-6.03,0-9.05,0.03c-1.5,0.01-3,0.01-4.5,0c-0.97,0-2,0.08-2.97-0.07c-0.62,4.03-1.26,8.06-1.91,12.09
					c-0.35,2.14-0.69,4.29-1.02,6.43c-0.29,1.83-0.48,3.73-1.04,5.51C224.61,181.63,225.98,181.78,227.27,181.78z M225.93,179.27
					c1.07-0.46,2.2-0.32,3.35-0.33c1.18-0.01,2.36-0.01,3.53-0.01c2.52,0,5.04,0,7.56,0c2.52,0,5.04,0.01,7.56,0.01
					c2.3,0.01,4.65-0.16,6.92,0.3c0.39,0.08-0.16,0.7-0.36,0.74c-2.38,0.41-4.79,0.29-7.2,0.29c-2.52,0.01-5.05,0.02-7.57,0.02
					c-2.52,0-5.04,0-7.56,0c-1.34,0-2.68,0-4.03-0.02c-0.86-0.01-1.8,0.18-2.53-0.33C225.37,179.76,225.78,179.33,225.93,179.27z"/>
				<path class="st1" d="M267.93,181.78c1.51,0,3.01-0.03,4.52,0c3,0.06,5.99,0.07,8.98,0.07c3.02,0,6.03-0.01,9.05-0.03
					c2.35-0.01,4.85-0.31,7.2-0.02c0.01-1.65,0.48-3.37,0.74-4.97c0.34-2.1,0.68-4.21,1.02-6.31c0.33-2.07,0.67-4.15,1-6.22
					c0.34-2.1,0.49-4.37,1.13-6.39c0.01-0.05,0.06-0.11,0.11-0.17c-2.85,0.32-5.72,0.26-8.57,0.26c-2.87,0-5.73,0-8.6,0.01
					c-3.02,0-6.03,0-9.05,0.03c-1.5,0.01-3,0.01-4.5,0c-0.97,0-2.01,0.08-2.97-0.07c-0.62,4.03-1.27,8.06-1.91,12.09
					c-0.35,2.14-0.69,4.29-1.02,6.43c-0.29,1.83-0.48,3.73-1.04,5.51C265.27,181.63,266.64,181.78,267.93,181.78z"/>
				<path class="st1" d="M237.21,252.54c-2.86,0-5.73,0.01-8.6,0.01c-3.02,0-6.03-0.01-9.05,0.03c-1.5,0.02-3,0.01-4.5,0.01
					c-0.97,0-2,0.08-2.97-0.07c-0.62,4.03-1.26,8.06-1.92,12.09c-0.35,2.14-0.69,4.29-1.02,6.44c-0.29,1.83-0.48,3.73-1.04,5.51
					c1.25-0.35,2.62-0.2,3.92-0.21c1.51,0,3.01-0.03,4.52,0c2.99,0.06,5.99,0.07,8.98,0.07c3.01,0,6.03-0.01,9.05-0.03
					c2.35-0.01,4.85-0.31,7.2-0.02c0.01-1.65,0.48-3.37,0.74-4.97c0.34-2.1,0.68-4.21,1.02-6.31c0.33-2.07,0.67-4.15,1-6.22
					c0.34-2.09,0.49-4.37,1.13-6.39c0.01-0.05,0.05-0.11,0.11-0.18C242.94,252.59,240.07,252.53,237.21,252.54z M239.33,274.08
					c-2.38,0.41-4.79,0.29-7.2,0.29c-2.52,0.01-5.05,0.02-7.57,0.02c-2.52,0-5.04,0-7.56,0c-1.34,0-2.68,0-4.02-0.02
					c-0.87-0.01-1.81,0.18-2.53-0.33c-0.24-0.17,0.17-0.6,0.32-0.66c1.07-0.46,2.2-0.32,3.35-0.33c1.18-0.01,2.36-0.01,3.54-0.01
					c2.52,0,5.04,0,7.56,0c2.52,0,5.04,0.01,7.55,0.02c2.3,0.01,4.66-0.16,6.92,0.3C240.08,273.42,239.54,274.05,239.33,274.08z"/>
				<path class="st1" d="M115.24,252.54c-2.87,0-5.73,0.01-8.6,0.01c-3.02,0-6.03-0.01-9.05,0.03c-1.5,0.02-3,0.01-4.5,0.01
					c-0.97,0-2,0.08-2.97-0.07c-0.62,4.03-1.27,8.06-1.92,12.09c-0.35,2.14-0.69,4.29-1.02,6.44c-0.29,1.83-0.48,3.73-1.04,5.51
					c1.25-0.35,2.62-0.2,3.91-0.21c1.51,0,3.01-0.03,4.52,0c3,0.06,5.99,0.07,8.98,0.07c3.02,0,6.03-0.01,9.05-0.03
					c2.35-0.01,4.85-0.31,7.2-0.02c0.02-1.65,0.48-3.37,0.74-4.97c0.34-2.1,0.68-4.21,1.02-6.31c0.33-2.07,0.67-4.15,1-6.22
					c0.34-2.09,0.48-4.37,1.13-6.39c0.02-0.05,0.06-0.11,0.11-0.18C120.97,252.59,118.1,252.53,115.24,252.54z"/>
				<path class="st3" d="M333.72,86.41c1.29,0.87,2.11,1.95,2.6,3.15c0.82,0.58,1.43,1.25,1.89,1.98c-0.23-1.44-0.58-2.83-1.38-4.13
					c-1.19-1.93-2.94-3.12-5.01-3.61c0.61,0.78,1.05,1.68,1.36,2.63C333.37,86.34,333.57,86.31,333.72,86.41z"/>
				<path class="st1" d="M155.9,252.54c-2.86,0-5.73,0.01-8.6,0.01c-3.01,0-6.03-0.01-9.04,0.03c-1.5,0.02-3,0.01-4.5,0.01
					c-0.97,0-2,0.08-2.97-0.07c-0.62,4.03-1.27,8.06-1.92,12.09c-0.35,2.14-0.69,4.29-1.02,6.44c-0.29,1.83-0.48,3.73-1.04,5.51
					c1.25-0.35,2.62-0.2,3.91-0.21c1.5,0,3.01-0.03,4.52,0c2.99,0.06,5.99,0.07,8.98,0.07c3.02,0,6.03-0.01,9.05-0.03
					c2.35-0.01,4.85-0.31,7.2-0.02c0.01-1.65,0.48-3.37,0.74-4.97c0.34-2.1,0.68-4.21,1.02-6.31c0.33-2.07,0.67-4.15,1-6.22
					c0.34-2.09,0.48-4.37,1.13-6.39c0.01-0.05,0.06-0.11,0.11-0.18C161.63,252.59,158.76,252.53,155.9,252.54z"/>
				<path class="st3" d="M103.06,144.59c36.93,0,73.85,0,110.78,0c18.46,0,36.92,0,55.39,0c9.24,0,18.48,0,27.72,0
					c4.59,0,9.17,0,13.76,0c4.35,0,8.73-0.17,13.05,0.23c0.29-1.79,0.58-3.59,0.87-5.38c-6.67,0.6-13.47,0.25-20.16,0.25
					c-6.64,0-13.27,0-19.92,0c-13.3,0-26.6,0-39.9,0c-36.91,0-73.83,0-110.74,0c-28.76,0-57.53,0.17-86.3-0.04
					c-0.27,1.67-0.55,3.35-0.82,5.02c0.05-0.02,0.11-0.04,0.16-0.04C65.65,144.5,84.36,144.59,103.06,144.59z"/>
				<path class="st4" d="M104.06,138.35c36.93,0,73.85,0,110.78,0c18.46,0,36.92,0,55.39,0c9.24,0,18.48,0,27.72,0
					c4.59,0,9.17,0,13.76,0c4.35,0,8.73-0.17,13.05,0.22c1.91-11.85,3.82-23.7,5.73-35.55c0.66-4.06,1.61-8.19,1.93-12.29
					c0.19-2.4-0.21-5-2.07-6.74c-0.18-0.16-0.36-0.31-0.54-0.45c-0.02,0-0.04,0-0.05,0c-0.21,0-0.29-0.1-0.3-0.24
					c-1.18-0.76-2.54-1.09-3.94-1.22c-0.56,0.01-1.13,0.01-1.7,0.02c-0.2,0.08-0.37,0.09-0.48,0c-0.05,0-0.1,0-0.15,0
					c-0.13,0-0.2-0.05-0.25-0.11c-0.63,0-1.25,0.02-1.85,0.02c-13.09,0-26.19,0-39.29-0.01c-0.78,7.06,1.15,14.69,5.6,19.99
					c0.07,0.03,0.13,0.07,0.18,0.15c2.36,4,1.31,9.64-1.29,13.27c-0.86,1.2-1.89,2.28-3.04,3.22c-0.14,0.17-0.32,0.31-0.51,0.38
					c-1.92,1.44-4.13,2.49-6.48,2.92c-3.81,0.71-7.94-0.01-10.8-2.79c-3.62-3.53-3.72-9.47-1.75-13.89
					c-2.84-6.61-3.84-14.06-3.2-21.2c0.06-0.69,0.14-1.37,0.23-2.06c-3.52,0.48-7.14,0.26-10.69,0.26c-4.54,0-9.09,0-13.63,0
					c-9.32,0-18.63-0.01-27.95-0.01c-33.78-0.01-67.56-0.02-101.34-0.01c-0.57,6.86,1.45,14.18,5.73,19.33
					c0.08,0,0.16,0.03,0.21,0.1c2.61,3.78,1.83,9.34-0.52,13.06c-2.17,3.44-5.74,6.08-9.71,7.05c-3.75,0.91-7.93,0.47-10.98-2.08
					c-3.93-3.29-4.37-9.06-2.68-13.64C86.1,99.22,85,91.47,85.67,84.04c0.06-0.61,0.13-1.21,0.2-1.82c-6.63,0-13.25,0.05-19.88-0.02
					c-0.15,0-0.24-0.06-0.29-0.13c-3.94,0.17-7.41,2.25-9.07,5.92c-1.1,2.42-1.42,5.03-1.84,7.63c-0.36,2.21-0.72,4.43-1.08,6.64
					c-0.9,5.54-1.8,11.07-2.7,16.61c-1.06,6.52-2.13,13.04-3.19,19.56c0.05-0.01,0.1-0.04,0.14-0.04
					C66.66,138.26,85.36,138.35,104.06,138.35z M260.46,111.85c0.32,4.03,1.99,7.79,5.48,10.01c2.59,1.65,5.73,2.31,8.78,2.07
					c6.51-0.53,12.5-4.61,15.03-10.68c0.27-0.64,1.56-0.96,1.16,0.01c-2.75,6.58-9.39,11.4-16.51,11.94
					c-3.32,0.25-6.72-0.41-9.52-2.28c-3.61-2.41-5.32-6.22-5.65-10.47C259.17,111.88,260.4,111.07,260.46,111.85z M86.28,111.85
					c0.31,4.02,1.98,7.79,5.48,10.01c2.6,1.65,5.73,2.31,8.78,2.07c6.51-0.53,12.49-4.61,15.03-10.68c0.27-0.64,1.56-0.96,1.16,0.01
					c-2.74,6.58-9.38,11.4-16.51,11.94c-3.32,0.25-6.72-0.41-9.52-2.28c-3.61-2.41-5.32-6.22-5.65-10.47
					C85,111.88,86.22,111.07,86.28,111.85z"/>
				<path class="st1" d="M177.62,213.5c1.25-0.35,2.62-0.21,3.92-0.21c1.51,0,3.01-0.03,4.52,0c2.99,0.06,5.99,0.07,8.98,0.07
					c3.02,0,6.03-0.01,9.05-0.03c2.35-0.01,4.85-0.31,7.2-0.02c0.01-1.65,0.48-3.37,0.74-4.97c0.34-2.1,0.68-4.21,1.02-6.31
					c0.33-2.08,0.67-4.15,1-6.22c0.34-2.09,0.48-4.37,1.13-6.39c0.02-0.05,0.06-0.11,0.11-0.17c-2.84,0.32-5.71,0.25-8.57,0.26
					c-2.87,0-5.73,0.01-8.6,0.01c-3.01,0-6.03,0-9.04,0.03c-1.5,0.02-3,0.01-4.5,0c-0.97,0-2,0.08-2.97-0.07
					c-0.65,4.2-1.32,8.39-2,12.58c-0.35,2.14-0.68,4.29-1.02,6.43C178.32,210.17,178.12,211.88,177.62,213.5z"/>
				<path d="M269.72,114.79c-2.21-2.47-4-5.25-5.41-8.21c-1.27,4.06-0.75,9.04,2.61,11.85c2.66,2.23,6.29,2.93,9.66,2.22
					c0.08-0.02,0.16-0.05,0.25-0.07C274.17,119.04,271.78,117.09,269.72,114.79z"/>
				<path class="st2" d="M210.1,220.93c0.02-0.05,0.06-0.11,0.11-0.17c-2.84,0.32-5.71,0.25-8.57,0.26c-2.87,0-5.73,0.01-8.6,0.01
					c-3.02,0-6.03,0-9.05,0.03c-1.5,0.02-3,0.01-4.5,0.01c-0.97,0-2,0.08-2.97-0.07c-0.65,4.2-1.32,8.39-2,12.58
					c-0.35,2.14-0.68,4.29-1.02,6.43c-0.26,1.68-0.46,3.39-0.96,5.02c1.25-0.35,2.62-0.21,3.92-0.21c1.51,0,3.02-0.03,4.52,0
					c2.99,0.06,5.99,0.07,8.98,0.07c3.02,0,6.03-0.01,9.05-0.03c2.35-0.01,4.85-0.31,7.2-0.02c0.01-1.65,0.48-3.36,0.74-4.97
					c0.34-2.1,0.68-4.21,1.02-6.31c0.33-2.08,0.67-4.15,1-6.22C209.3,225.23,209.45,222.96,210.1,220.93z"/>
				<path class="st1" d="M92.49,108.23c2.94,4.88,7.02,8.75,11.81,11.8c0.03,0.02,0.03,0.04,0.05,0.06
					c0.73-0.26,1.44-0.58,2.13-0.94c-3.64-2.86-6.95-6.16-9.7-9.9c-2.64-3.58-5.42-7.79-6.34-12.21c-0.08-0.36,0.57-1.04,0.83-0.6
					c1.19,1.99,2.05,4.17,3.22,6.19c1.22,2.1,2.52,4.13,4.01,6.05c2.77,3.56,5.97,6.73,9.54,9.49c1.35-0.97,2.53-2.16,3.43-3.58
					c2.14-3.39,3.01-8.47,0.66-11.98c-0.05-0.07-0.06-0.15-0.06-0.23c-4.05-4.29-6.14-9.76-6.46-15.65
					c-0.45-8.3,2.7-18.06,11.12-21.28c4.64-1.77,10.08-1.08,13.9,2.18c3.65,3.12,6.09,8.26,5.68,13.12c1.14,0,2.28,0,3.42,0
					c-0.1-0.72-0.12-1.46-0.27-2.18c-0.18-0.89-0.4-1.78-0.68-2.64c-0.58-1.77-1.34-3.5-2.33-5.08c-1.97-3.15-4.83-5.89-8.42-7.06
					c-0.44-0.14,0.22-0.9,0.58-0.81c3.91,0.91,6.84,3.6,8.97,6.91c1.09,1.69,1.96,3.55,2.56,5.47c0.5,1.62,1.14,3.64,0.95,5.35
					c0,0.01-0.01,0.03-0.02,0.05c2.45,0,4.9,0,7.35,0c0-0.06,0.01-0.11,0.01-0.17c0.21-6.15-1.31-12.31-4.86-17.4
					c-3.24-4.63-7.79-8.34-13.09-10.32c-11.4-4.26-25.4-1.4-33.86,7.45c-5.25,5.49-8.2,13.03-9.21,20.72c0,0.07,0,0.14-0.03,0.22
					c-0.48,3.77-0.5,7.57-0.08,11.18C87.95,97.97,89.61,103.44,92.49,108.23z"/>
				<path d="M94.88,114.79c-2-2.24-3.65-4.73-5-7.38c-0.98,4.04-0.15,8.77,3.27,11.35c2.56,1.93,5.88,2.5,9,1.92
					C99.43,119.12,96.97,117.14,94.88,114.79z"/>
				<path class="st1" d="M196.56,252.54c-2.87,0-5.73,0.01-8.6,0.01c-3.02,0-6.03-0.01-9.05,0.03c-1.5,0.02-3,0.01-4.5,0.01
					c-0.97,0-2,0.08-2.97-0.07c-0.62,4.03-1.27,8.06-1.92,12.09c-0.35,2.14-0.69,4.29-1.02,6.44c-0.29,1.83-0.48,3.73-1.04,5.51
					c1.25-0.35,2.62-0.2,3.91-0.21c1.51,0,3.01-0.03,4.52,0c2.99,0.06,5.99,0.07,8.98,0.07c3.02,0,6.03-0.01,9.05-0.03
					c2.35-0.01,4.85-0.31,7.2-0.02c0.02-1.65,0.48-3.37,0.74-4.97c0.34-2.1,0.68-4.21,1.02-6.31c0.33-2.07,0.67-4.15,1-6.22
					c0.34-2.09,0.48-4.37,1.13-6.39c0.02-0.05,0.06-0.11,0.11-0.18C202.28,252.59,199.41,252.53,196.56,252.54z"/>
				<path class="st1" d="M54.48,244.81c1.51,0,3.01-0.03,4.52,0c3,0.06,5.99,0.07,8.98,0.07c3.02,0,6.03-0.01,9.05-0.03
					c2.35-0.01,4.85-0.31,7.2-0.02c0.02-1.65,0.48-3.36,0.74-4.97c0.34-2.1,0.68-4.21,1.02-6.31c0.33-2.08,0.67-4.15,1-6.22
					c0.34-2.09,0.48-4.37,1.13-6.39c0.02-0.05,0.06-0.11,0.11-0.17c-2.84,0.32-5.71,0.25-8.57,0.26c-2.87,0-5.73,0.01-8.6,0.01
					c-3.01,0-6.03,0-9.05,0.03c-1.5,0.02-3,0.01-4.5,0.01c-0.97,0-2,0.08-2.97-0.07c-0.65,4.2-1.32,8.39-1.99,12.58
					c-0.35,2.14-0.68,4.29-1.02,6.43c-0.26,1.68-0.46,3.39-0.96,5.02C51.82,244.67,53.19,244.82,54.48,244.81z"/>
				<path class="st1" d="M49.4,276.33c1.5,0,3.01-0.03,4.52,0c2.99,0.06,5.99,0.07,8.98,0.07c3.02,0,6.03-0.01,9.05-0.03
					c2.35-0.01,4.85-0.31,7.2-0.02c0.02-1.65,0.48-3.37,0.74-4.97c0.34-2.1,0.68-4.21,1.02-6.31c0.33-2.07,0.67-4.15,1-6.22
					c0.34-2.09,0.48-4.37,1.13-6.39c0.02-0.05,0.06-0.11,0.11-0.18c-2.84,0.32-5.71,0.26-8.57,0.26c-2.87,0-5.73,0.01-8.6,0.01
					c-3.02,0-6.03-0.01-9.05,0.03c-1.5,0.02-3,0.01-4.5,0.01c-0.97,0-2,0.08-2.97-0.07c-0.62,4.03-1.27,8.06-1.92,12.09
					c-0.35,2.14-0.69,4.29-1.02,6.44c-0.29,1.83-0.48,3.73-1.04,5.51C46.74,276.19,48.11,276.34,49.4,276.33z"/>
				<path class="st1" d="M59.56,213.3c1.51,0,3.01-0.03,4.52,0c3,0.06,5.99,0.07,8.98,0.07c3.02,0,6.03-0.01,9.05-0.03
					c2.35-0.01,4.85-0.31,7.2-0.02c0.02-1.65,0.48-3.37,0.74-4.97c0.34-2.1,0.68-4.21,1.02-6.31c0.33-2.08,0.67-4.15,1-6.22
					c0.34-2.09,0.48-4.37,1.13-6.39c0.01-0.05,0.06-0.11,0.11-0.17c-2.84,0.32-5.71,0.25-8.57,0.26c-2.87,0-5.73,0.01-8.6,0.01
					c-3.02,0-6.03,0-9.05,0.03c-1.5,0.02-3,0.01-4.5,0c-0.97,0-2,0.08-2.97-0.07c-0.65,4.2-1.32,8.39-2,12.58
					c-0.35,2.14-0.68,4.29-1.02,6.43c-0.26,1.68-0.46,3.39-0.96,5.01C56.9,213.15,58.27,213.3,59.56,213.3z"/>
				<path class="st1" d="M91.22,245.02c1.25-0.35,2.62-0.21,3.92-0.21c1.51,0,3.01-0.03,4.52,0c3,0.06,5.99,0.07,8.98,0.07
					c3.02,0,6.03-0.01,9.05-0.03c2.35-0.01,4.85-0.31,7.2-0.02c0.02-1.65,0.48-3.36,0.74-4.97c0.34-2.1,0.68-4.21,1.02-6.31
					c0.33-2.08,0.67-4.15,1-6.22c0.34-2.09,0.48-4.37,1.13-6.39c0.02-0.05,0.06-0.11,0.11-0.17c-2.84,0.32-5.71,0.25-8.57,0.26
					c-2.87,0-5.73,0.01-8.6,0.01c-3.02,0-6.03,0-9.05,0.03c-1.5,0.02-3,0.01-4.5,0.01c-0.97,0-2,0.08-2.97-0.07
					c-0.65,4.2-1.32,8.39-2,12.58c-0.35,2.14-0.68,4.29-1.02,6.43C91.92,241.69,91.73,243.4,91.22,245.02z"/>
				<path class="st1" d="M100.22,213.3c1.51,0,3.01-0.03,4.52,0c2.99,0.06,5.99,0.07,8.98,0.07c3.01,0,6.03-0.01,9.05-0.03
					c2.35-0.01,4.85-0.31,7.2-0.02c0.02-1.65,0.48-3.37,0.74-4.97c0.34-2.1,0.68-4.21,1.02-6.31c0.33-2.08,0.67-4.15,1-6.22
					c0.34-2.09,0.48-4.37,1.13-6.39c0.02-0.05,0.06-0.11,0.11-0.17c-2.84,0.32-5.71,0.25-8.57,0.26c-2.87,0-5.73,0.01-8.6,0.01
					c-3.02,0-6.03,0-9.05,0.03c-1.5,0.02-3,0.01-4.5,0c-0.97,0-2,0.08-2.97-0.07c-0.65,4.2-1.32,8.39-2,12.58
					c-0.35,2.14-0.68,4.29-1.02,6.43c-0.26,1.68-0.46,3.39-0.96,5.01C97.56,213.15,98.93,213.3,100.22,213.3z"/>
				<path class="st1" d="M39.28,288.12c18.47-0.01,36.94-0.06,55.41-0.11c36.98-0.1,73.97-0.15,110.95-0.17
					c18.42-0.01,36.84-0.02,55.26-0.01c9.18,0,18.36,0,27.54,0c3.53,0,7.12,0.02,9.87-2.57c2.29-2.16,3.49-5.09,4.04-8.14
					c0.01-0.07,0.05-0.15,0.09-0.22c0.84-5.48,1.74-10.95,2.63-16.42c5.18-31.82,10.29-63.66,15.42-95.49
					c1.04-6.44,2.08-12.88,3.11-19.31c-6.67,0.59-13.47,0.25-20.16,0.25c-6.64,0-13.28,0-19.91,0c-13.3,0-26.6,0-39.9,0
					c-36.92,0-73.83,0-110.74,0c-28.77,0-57.54,0.16-86.31-0.04c-0.47,2.89-0.94,5.78-1.41,8.67c-5.17,31.74-10.26,63.5-15.39,95.25
					c-1.43,8.88-2.87,17.76-4.3,26.64c-0.57,3.55,0.62,7.05,3.44,9.35c1.26,1.03,2.73,1.85,4.34,2.16
					C35.22,288.33,37.31,288.12,39.28,288.12z M123.83,258.53c-0.33,2.07-0.67,4.15-1,6.22c-0.34,2.1-0.68,4.21-1.02,6.31
					c-0.31,1.94-0.48,3.96-1.16,5.81c-0.04,0.12-0.21,0.27-0.38,0.36c-0.01,0.01-0.02,0.01-0.03,0.02
					c-0.02,0.01-0.03,0.01-0.04,0.02c-0.01,0-0.03,0.01-0.04,0.01c-0.01,0-0.02,0-0.02,0c-0.04,0.01-0.08,0.02-0.11,0.01
					c-2.65,0.42-5.34,0.34-8.02,0.33c-3.01-0.01-6.01-0.03-9.02-0.03c-3.02,0-6.03,0.07-9.05,0.07c-1.51,0-3.01,0-4.52,0
					c-1.13,0-2.76,0.29-3.81-0.25c-0.12,0.05-0.22,0.04-0.23-0.14c0-0.02,0-0.04,0-0.06c-0.01-0.04-0.01-0.08-0.01-0.13
					c-0.11-1.92,0.44-3.92,0.75-5.8c0.36-2.15,0.71-4.29,1.05-6.44c0.67-4.14,1.34-8.28,2.03-12.41c0.02-0.12,0.1-0.23,0.2-0.33
					c0.08-0.27,0.45-0.62,0.61-0.65c1.36-0.3,2.81-0.17,4.19-0.17c1.5,0,3,0,4.5,0.01c2.84,0.03,5.68,0.02,8.52,0.02
					c3.03,0,6.06,0.01,9.1,0.01c2.7,0,5.43-0.08,8.12,0.29c0.13,0.02,0.17,0.08,0.16,0.17c0.09,0.02,0.16,0.1,0.16,0.28
					C124.81,254.18,124.17,256.44,123.83,258.53z M164.49,258.53c-0.33,2.07-0.67,4.15-1,6.22c-0.34,2.1-0.68,4.21-1.02,6.31
					c-0.31,1.94-0.48,3.96-1.16,5.81c-0.04,0.12-0.21,0.27-0.38,0.36c-0.01,0.01-0.02,0.01-0.03,0.02
					c-0.01,0.01-0.03,0.01-0.04,0.02c-0.01,0-0.03,0.01-0.04,0.01c-0.01,0-0.02,0-0.02,0c-0.04,0.01-0.08,0.02-0.11,0.01
					c-2.65,0.42-5.34,0.34-8.02,0.33c-3.01-0.01-6.01-0.03-9.02-0.03c-3.02,0-6.03,0.07-9.05,0.07c-1.51,0-3.01,0-4.52,0
					c-1.13,0-2.76,0.29-3.81-0.25c-0.12,0.05-0.22,0.04-0.23-0.14c0-0.02,0-0.04,0-0.06c-0.01-0.04-0.01-0.08,0-0.12
					c-0.11-1.92,0.44-3.92,0.75-5.8c0.36-2.15,0.71-4.29,1.05-6.44c0.67-4.14,1.34-8.28,2.03-12.41c0.02-0.12,0.1-0.23,0.2-0.33
					c0.08-0.27,0.45-0.62,0.62-0.65c1.36-0.3,2.81-0.17,4.19-0.17c1.5,0,3,0,4.5,0.01c2.84,0.03,5.68,0.02,8.52,0.02
					c3.03,0,6.06,0.01,9.1,0.01c2.7,0,5.43-0.08,8.11,0.29c0.13,0.02,0.17,0.08,0.16,0.17c0.09,0.02,0.16,0.1,0.16,0.28
					C165.47,254.18,164.83,256.44,164.49,258.53z M205.15,258.53c-0.33,2.07-0.67,4.15-1,6.22c-0.34,2.1-0.68,4.21-1.02,6.31
					c-0.31,1.94-0.48,3.96-1.16,5.81c-0.04,0.12-0.21,0.27-0.38,0.36c-0.01,0.01-0.02,0.01-0.03,0.02
					c-0.02,0.01-0.03,0.01-0.05,0.02c-0.01,0-0.02,0.01-0.03,0.01c-0.01,0-0.02,0-0.02,0c-0.04,0.01-0.08,0.02-0.11,0.01
					c-2.65,0.42-5.34,0.34-8.02,0.33c-3.01-0.01-6.01-0.03-9.02-0.03c-3.02,0-6.03,0.07-9.05,0.07c-1.51,0-3.01,0-4.52,0
					c-1.13,0-2.76,0.29-3.81-0.25c-0.12,0.05-0.22,0.04-0.23-0.14c0-0.02,0-0.04,0-0.06c-0.01-0.04-0.01-0.08-0.01-0.13
					c-0.11-1.92,0.44-3.92,0.75-5.8c0.36-2.15,0.71-4.29,1.05-6.44c0.66-4.14,1.34-8.28,2.03-12.41c0.02-0.12,0.1-0.23,0.2-0.33
					c0.08-0.27,0.45-0.62,0.62-0.65c1.36-0.3,2.81-0.17,4.19-0.17c1.5,0,3,0,4.5,0.01c2.84,0.03,5.68,0.02,8.52,0.02
					c3.03,0,6.06,0.01,9.1,0.01c2.7,0,5.43-0.08,8.11,0.29c0.13,0.02,0.17,0.08,0.17,0.17c0.09,0.02,0.16,0.1,0.16,0.28
					C206.12,254.18,205.49,256.44,205.15,258.53z M206.67,245.72c-0.01,0.01-0.02,0.01-0.03,0.01c-0.01,0.01-0.03,0.01-0.05,0.02
					c-0.01,0-0.02,0.01-0.03,0.01c-0.01,0-0.02,0-0.02,0c-0.04,0.01-0.08,0.01-0.11,0.01c-2.65,0.42-5.34,0.34-8.02,0.33
					c-3.01-0.01-6.01-0.03-9.02-0.03c-3.02,0-6.03,0.07-9.05,0.07c-1.51,0-3.01,0-4.52,0c-1.13,0-2.76,0.28-3.8-0.24
					c-0.12,0.04-0.23,0.02-0.24-0.14c0-0.02,0-0.04,0-0.06c-0.01-0.04-0.01-0.08,0-0.13c-0.11-1.92,0.43-3.91,0.75-5.8
					c0.36-2.15,0.71-4.29,1.05-6.44c0.67-4.14,1.34-8.28,2.03-12.41c0.02-0.12,0.1-0.23,0.2-0.33c0.08-0.27,0.45-0.62,0.62-0.66
					c1.36-0.3,2.81-0.17,4.19-0.17c1.5,0,3,0,4.5,0.01c2.84,0.03,5.68,0.02,8.52,0.02c3.03,0,6.06,0.01,9.1,0.01
					c2.7,0,5.43-0.08,8.11,0.29c0.13,0.02,0.17,0.08,0.16,0.16c0.09,0.02,0.16,0.1,0.16,0.28c0.04,2.12-0.6,4.38-0.93,6.47
					c-0.33,2.07-0.67,4.15-1,6.22c-0.34,2.1-0.68,4.21-1.02,6.31c-0.31,1.94-0.48,3.96-1.16,5.81
					C207.01,245.47,206.85,245.63,206.67,245.72z M245.81,258.53c-0.33,2.07-0.67,4.15-1,6.22c-0.34,2.1-0.68,4.21-1.02,6.31
					c-0.31,1.94-0.48,3.96-1.16,5.81c-0.04,0.12-0.21,0.27-0.37,0.36c-0.01,0.01-0.02,0.01-0.03,0.02
					c-0.02,0.01-0.03,0.01-0.04,0.02c-0.01,0-0.02,0.01-0.04,0.01c-0.01,0-0.02,0-0.02,0c-0.04,0.01-0.08,0.02-0.12,0.01
					c-2.65,0.42-5.34,0.34-8.02,0.33c-3.01-0.01-6.01-0.03-9.02-0.03c-3.02,0-6.03,0.07-9.05,0.07c-1.51,0-3.01,0-4.52,0
					c-1.13,0-2.76,0.29-3.81-0.25c-0.12,0.05-0.22,0.04-0.23-0.14c0-0.02,0-0.04,0-0.06c-0.01-0.04-0.01-0.07,0-0.12
					c-0.11-1.92,0.43-3.92,0.75-5.81c0.36-2.15,0.71-4.29,1.05-6.44c0.67-4.14,1.34-8.28,2.04-12.41c0.02-0.12,0.1-0.23,0.2-0.33
					c0.08-0.27,0.45-0.62,0.62-0.65c1.36-0.3,2.81-0.17,4.19-0.17c1.5,0,3,0,4.5,0.01c2.84,0.03,5.68,0.02,8.52,0.02
					c3.03,0,6.07,0.01,9.1,0.01c2.7,0,5.43-0.08,8.12,0.29c0.13,0.02,0.17,0.08,0.16,0.17c0.09,0.02,0.16,0.1,0.16,0.28
					C246.78,254.18,246.14,256.44,245.81,258.53z M250.89,227.01c-0.33,2.07-0.67,4.15-1,6.22c-0.34,2.1-0.68,4.21-1.02,6.31
					c-0.31,1.94-0.48,3.96-1.16,5.81c-0.04,0.12-0.2,0.27-0.38,0.36c-0.01,0.01-0.02,0.01-0.03,0.01c-0.02,0.01-0.03,0.01-0.04,0.02
					c-0.01,0-0.03,0.01-0.04,0.01c-0.01,0-0.02,0-0.02,0c-0.04,0.01-0.08,0.01-0.12,0.01c-2.65,0.42-5.34,0.34-8.02,0.33
					c-3.01-0.01-6.01-0.03-9.02-0.03c-3.02,0-6.03,0.07-9.05,0.07c-1.51,0-3.01,0-4.52,0c-1.13,0-2.76,0.28-3.8-0.24
					c-0.12,0.04-0.23,0.02-0.24-0.14c0-0.02,0-0.04,0-0.06c-0.01-0.04-0.01-0.08-0.01-0.13c-0.11-1.92,0.44-3.92,0.75-5.8
					c0.36-2.15,0.71-4.29,1.05-6.44c0.66-4.14,1.34-8.28,2.03-12.41c0.02-0.12,0.1-0.23,0.2-0.34c0.08-0.27,0.45-0.62,0.62-0.65
					c1.36-0.3,2.81-0.17,4.19-0.17c1.5,0,3,0,4.5,0.01c2.84,0.03,5.68,0.02,8.52,0.02c3.03,0,6.07,0.01,9.1,0.01
					c2.7,0,5.43-0.08,8.11,0.29c0.13,0.02,0.17,0.08,0.16,0.16c0.1,0.02,0.16,0.1,0.16,0.28
					C251.86,222.66,251.22,224.92,250.89,227.01z M257.13,246.15c-1.13,0-2.76,0.28-3.8-0.24c-0.12,0.04-0.23,0.02-0.25-0.14
					c0-0.02,0-0.04,0-0.06c-0.01-0.04-0.01-0.08,0-0.12c-0.11-1.92,0.43-3.92,0.75-5.81c0.36-2.15,0.71-4.29,1.06-6.44
					c0.66-4.14,1.34-8.28,2.04-12.41c0.02-0.12,0.1-0.23,0.2-0.33c0.08-0.27,0.45-0.62,0.61-0.66c1.36-0.3,2.81-0.17,4.19-0.17
					c1.5,0,3,0,4.49,0.01c2.84,0.03,5.68,0.02,8.52,0.02c3.03,0,6.06,0.01,9.09,0.01c2.7,0,5.43-0.08,8.11,0.29
					c0.13,0.02,0.17,0.08,0.17,0.16c0.09,0.02,0.16,0.1,0.16,0.28c0.04,2.12-0.6,4.38-0.93,6.47c-0.34,2.07-0.67,4.15-1,6.22
					c-0.34,2.1-0.68,4.21-1.01,6.31c-0.31,1.94-0.48,3.96-1.16,5.81c-0.04,0.12-0.21,0.27-0.38,0.36c-0.01,0.01-0.02,0.01-0.03,0.01
					c-0.02,0.01-0.03,0.01-0.05,0.02c-0.01,0-0.02,0.01-0.03,0.01c-0.01,0-0.02,0-0.03,0c-0.04,0.01-0.08,0.01-0.11,0.01
					c-2.65,0.42-5.34,0.34-8.02,0.33c-3.01-0.01-6.01-0.03-9.02-0.03c-3.02,0-6.04,0.07-9.05,0.07
					C260.14,246.15,258.64,246.15,257.13,246.15z M283.49,285.1c-1.52,0.39-3.17,0.28-4.73,0.33c-1.51,0.05-3.03,0.04-4.54,0.02
					c-3.14-0.03-6.32,0.09-9.44-0.23c-0.53-0.06,0.07-0.76,0.38-0.79c3.2-0.3,6.44-0.2,9.66-0.23c1.67-0.02,3.34-0.02,5.02,0.04
					c1.27,0.04,2.71-0.1,3.92,0.31C284.06,284.65,283.64,285.06,283.49,285.1z M295.7,284.27c-3.06,1.3-6.86,1.38-10.1,0.99
					c-0.44-0.05,0.06-0.63,0.31-0.66c2.96-0.32,6.15,0.05,9.02-0.89c1.09-0.36,2.15-0.92,2.83-1.88c0.81-1.15,0.97-2.41,1.37-3.72
					c0.07-0.24,0.81-0.85,0.82-0.3C300,280.47,298.11,283.25,295.7,284.27z M304.8,244.66c0.06-0.23,0.74-0.72,0.71-0.26
					c-0.25,5.03-1.36,10.07-2.15,15.04c-0.42,2.67-0.89,5.34-1.36,8.01c-0.45,2.54-0.73,5.18-1.56,7.62
					c-0.04,0.13-0.42,0.46-0.44,0.16c-0.12-2.48,0.51-5.05,0.87-7.5c0.37-2.49,0.73-4.99,1.14-7.47
					C302.86,255.07,303.46,249.74,304.8,244.66z M263.99,176.74c0.36-2.15,0.71-4.29,1.06-6.44c0.66-4.14,1.33-8.28,2.03-12.41
					c0.02-0.12,0.1-0.24,0.2-0.33c0.08-0.27,0.45-0.62,0.62-0.65c1.36-0.3,2.8-0.17,4.19-0.17c1.5,0,3,0,4.5,0.01
					c2.84,0.03,5.68,0.02,8.52,0.02c3.03,0,6.06,0.01,9.1,0.01c2.7,0,5.43-0.08,8.11,0.29c0.13,0.02,0.17,0.08,0.16,0.17
					c0.09,0.02,0.16,0.1,0.16,0.28c0.04,2.12-0.6,4.38-0.93,6.47c-0.33,2.08-0.67,4.15-1,6.22c-0.34,2.1-0.68,4.21-1.02,6.31
					c-0.31,1.94-0.48,3.96-1.16,5.81c-0.04,0.12-0.21,0.27-0.38,0.36c-0.01,0.01-0.02,0.01-0.03,0.02
					c-0.02,0.01-0.03,0.01-0.05,0.02c-0.01,0-0.02,0.01-0.03,0.01c-0.01,0-0.02,0-0.02,0c-0.04,0.01-0.08,0.02-0.12,0.01
					c-2.65,0.42-5.34,0.34-8.02,0.33c-3.01-0.01-6.02-0.03-9.02-0.03c-3.02,0-6.03,0.07-9.05,0.07c-1.51,0-3.01,0-4.52,0
					c-1.13,0-2.76,0.29-3.81-0.25c-0.12,0.05-0.22,0.04-0.24-0.14c0-0.02,0-0.04,0-0.06c-0.01-0.04-0.01-0.08,0-0.12
					C263.13,180.63,263.68,178.63,263.99,176.74z M262.2,189.07c0.08-0.27,0.45-0.62,0.61-0.65c1.36-0.3,2.81-0.17,4.19-0.17
					c1.5,0,3,0,4.49,0.01c2.84,0.03,5.68,0.02,8.52,0.02c3.03,0,6.06,0.01,9.1,0.01c2.7,0,5.43-0.09,8.12,0.28
					c0.13,0.02,0.17,0.08,0.16,0.16c0.09,0.02,0.16,0.1,0.16,0.28c0.04,2.11-0.6,4.38-0.94,6.47c-0.33,2.07-0.67,4.15-1,6.22
					c-0.34,2.1-0.68,4.21-1.02,6.31c-0.32,1.94-0.48,3.96-1.16,5.81c-0.04,0.12-0.2,0.27-0.38,0.36c-0.01,0.01-0.02,0.01-0.03,0.01
					c-0.02,0.01-0.03,0.01-0.05,0.02c-0.01,0-0.02,0.01-0.03,0.01c-0.01,0-0.02,0-0.02,0c-0.04,0.01-0.08,0.02-0.12,0.01
					c-2.65,0.42-5.34,0.34-8.02,0.33c-3.01-0.01-6.02-0.03-9.02-0.03c-3.02,0-6.03,0.07-9.05,0.07c-1.51,0-3.01,0-4.52,0
					c-1.13,0-2.76,0.29-3.81-0.25c-0.12,0.05-0.22,0.04-0.23-0.14c0-0.02,0-0.04,0-0.06c-0.01-0.04-0.01-0.07,0-0.12
					c-0.11-1.92,0.43-3.92,0.75-5.81c0.36-2.15,0.71-4.29,1.06-6.44c0.66-4.14,1.34-8.28,2.03-12.41
					C262.02,189.29,262.1,189.17,262.2,189.07z M223.33,176.74c0.36-2.15,0.71-4.29,1.05-6.44c0.67-4.14,1.34-8.28,2.03-12.41
					c0.02-0.12,0.1-0.24,0.2-0.33c0.08-0.27,0.45-0.62,0.62-0.65c1.36-0.3,2.81-0.17,4.19-0.17c1.5,0,3,0,4.5,0.01
					c2.84,0.03,5.68,0.02,8.52,0.02c3.03,0,6.06,0.01,9.1,0.01c2.7,0,5.43-0.08,8.12,0.29c0.13,0.02,0.17,0.08,0.16,0.17
					c0.09,0.02,0.16,0.1,0.16,0.28c0.04,1.96-0.55,4.05-0.86,5.99c-0.34,2.07-0.67,4.15-1,6.22c-0.33,2.1-0.67,4.2-1.01,6.3
					c-0.33,2.05-0.48,4.24-1.2,6.2c-0.02,0.06-0.09,0.15-0.17,0.24c-0.12,0.14-0.27,0.27-0.36,0.28c-0.01,0-0.02,0-0.04,0
					c-0.06,0.03-0.11,0.04-0.16,0.02c-2.63,0.41-5.3,0.33-7.96,0.32c-3.01-0.01-6.01-0.03-9.02-0.03c-3.02,0-6.04,0.07-9.05,0.07
					c-1.51,0-3.01,0-4.52,0c-1.13,0-2.76,0.29-3.81-0.25c-0.12,0.05-0.22,0.04-0.23-0.14c0-0.02,0-0.04,0-0.06
					c-0.01-0.04-0.01-0.08,0-0.13C222.47,180.63,223.02,178.63,223.33,176.74z M221.54,189.07c0.08-0.27,0.45-0.62,0.62-0.66
					c1.36-0.3,2.81-0.17,4.19-0.17c1.5,0,3,0,4.5,0.01c2.84,0.03,5.68,0.02,8.52,0.02c3.03,0,6.07,0.01,9.1,0.01
					c2.7,0,5.43-0.09,8.11,0.28c0.13,0.02,0.17,0.08,0.16,0.16c0.1,0.02,0.16,0.1,0.17,0.28c0.04,2.11-0.6,4.38-0.94,6.47
					c-0.33,2.07-0.67,4.15-1,6.22c-0.34,2.1-0.68,4.21-1.01,6.31c-0.31,1.94-0.48,3.96-1.16,5.81c-0.04,0.12-0.21,0.27-0.38,0.36
					c-0.01,0.01-0.02,0.01-0.03,0.01c-0.02,0.01-0.03,0.01-0.05,0.02c-0.01,0-0.02,0.01-0.03,0.01c-0.01,0-0.02,0-0.03,0
					c-0.04,0.01-0.08,0.02-0.11,0.01c-2.65,0.42-5.34,0.34-8.02,0.33c-3.01-0.01-6.01-0.03-9.02-0.03c-3.02,0-6.03,0.07-9.05,0.07
					c-1.51,0-3.01,0-4.52,0c-1.13,0-2.76,0.29-3.81-0.25c-0.12,0.05-0.22,0.04-0.23-0.14c0-0.02,0-0.04,0-0.06
					c-0.01-0.04-0.01-0.08-0.01-0.13c-0.11-1.92,0.44-3.92,0.75-5.8c0.36-2.15,0.71-4.29,1.05-6.44c0.67-4.14,1.34-8.28,2.04-12.41
					C221.36,189.29,221.44,189.17,221.54,189.07z M182.67,176.74c0.36-2.15,0.71-4.29,1.05-6.44c0.67-4.14,1.34-8.28,2.03-12.41
					c0.02-0.12,0.1-0.24,0.2-0.33c0.08-0.27,0.45-0.62,0.61-0.65c1.36-0.3,2.81-0.17,4.19-0.17c1.5,0,3,0,4.5,0.01
					c2.84,0.03,5.68,0.02,8.52,0.02c3.03,0,6.06,0.01,9.1,0.01c2.7,0,5.43-0.08,8.11,0.29c0.13,0.02,0.17,0.08,0.16,0.17
					c0.09,0.02,0.16,0.1,0.16,0.28c0.04,2.12-0.6,4.38-0.94,6.47c-0.33,2.08-0.67,4.15-1,6.22c-0.34,2.1-0.68,4.21-1.02,6.31
					c-0.31,1.94-0.48,3.96-1.16,5.81c-0.04,0.12-0.21,0.27-0.38,0.36c-0.01,0.01-0.02,0.01-0.03,0.02
					c-0.01,0.01-0.03,0.01-0.04,0.02c-0.01,0-0.03,0.01-0.04,0.01c-0.01,0-0.02,0-0.02,0c-0.04,0.01-0.08,0.02-0.11,0.01
					c-2.65,0.42-5.34,0.34-8.02,0.33c-3.01-0.01-6.01-0.03-9.02-0.03c-3.02,0-6.03,0.07-9.05,0.07c-1.51,0-3.01,0-4.52,0
					c-1.13,0-2.76,0.29-3.81-0.25c-0.12,0.05-0.22,0.04-0.23-0.14c0-0.02,0-0.04,0-0.06c-0.01-0.04-0.01-0.08,0-0.12
					C181.81,180.63,182.36,178.63,182.67,176.74z M180.89,189.07c0.08-0.27,0.45-0.62,0.61-0.65c1.36-0.3,2.81-0.17,4.19-0.17
					c1.5,0,3,0,4.5,0.01c2.84,0.03,5.68,0.02,8.52,0.02c3.03,0,6.06,0.01,9.1,0.01c2.7,0,5.43-0.09,8.11,0.28
					c0.13,0.02,0.17,0.08,0.16,0.16c0.09,0.02,0.16,0.1,0.16,0.28c0.04,2.11-0.6,4.38-0.94,6.47c-0.33,2.07-0.67,4.15-1,6.22
					c-0.34,2.1-0.68,4.21-1.02,6.31c-0.31,1.94-0.48,3.96-1.16,5.81c-0.04,0.12-0.2,0.27-0.38,0.36c-0.01,0.01-0.02,0.01-0.03,0.01
					c-0.02,0.01-0.03,0.01-0.04,0.02c-0.01,0-0.02,0.01-0.04,0.01c-0.01,0-0.02,0-0.02,0c-0.04,0.01-0.08,0.02-0.11,0.01
					c-2.65,0.42-5.34,0.34-8.02,0.33c-3.01-0.01-6.01-0.03-9.02-0.03c-3.02,0-6.03,0.07-9.05,0.07c-1.51,0-3.01,0-4.52,0
					c-1.13,0-2.76,0.28-3.8-0.25c-0.12,0.04-0.23,0.02-0.24-0.14c0-0.02,0-0.04,0-0.06c-0.01-0.04-0.01-0.08,0-0.12
					c-0.11-1.92,0.44-3.92,0.75-5.8c0.36-2.15,0.71-4.29,1.05-6.44c0.67-4.14,1.34-8.28,2.03-12.41
					C180.7,189.29,180.78,189.17,180.89,189.07z M142.02,176.74c0.36-2.15,0.71-4.29,1.05-6.44c0.67-4.14,1.34-8.28,2.03-12.41
					c0.02-0.12,0.1-0.23,0.2-0.33c0.08-0.27,0.45-0.62,0.62-0.65c1.36-0.3,2.81-0.17,4.19-0.17c1.5,0,3,0,4.5,0.01
					c2.84,0.03,5.68,0.02,8.52,0.02c3.03,0,6.06,0.01,9.1,0.01c2.7,0,5.43-0.08,8.12,0.29c0.13,0.02,0.17,0.08,0.16,0.17
					c0.09,0.02,0.16,0.1,0.16,0.28c0.04,2.12-0.6,4.38-0.94,6.47c-0.33,2.08-0.67,4.15-1,6.22c-0.34,2.1-0.68,4.21-1.02,6.31
					c-0.31,1.94-0.48,3.96-1.16,5.81c-0.04,0.12-0.21,0.27-0.38,0.36c-0.01,0.01-0.02,0.01-0.03,0.02
					c-0.02,0.01-0.03,0.01-0.04,0.02c-0.01,0-0.02,0.01-0.04,0.01c-0.01,0-0.02,0-0.03,0c-0.04,0.01-0.08,0.02-0.11,0.01
					c-2.65,0.42-5.34,0.34-8.02,0.33c-3.01-0.01-6.01-0.03-9.02-0.03c-3.02,0-6.04,0.07-9.05,0.07c-1.51,0-3.01,0-4.52,0
					c-1.13,0-2.76,0.29-3.81-0.25c-0.12,0.05-0.22,0.04-0.23-0.14c0-0.02,0-0.04,0-0.06c-0.01-0.04-0.01-0.08,0-0.13
					C141.16,180.63,141.7,178.63,142.02,176.74z M136.94,208.26c0.36-2.15,0.71-4.29,1.05-6.44c0.67-4.14,1.34-8.28,2.03-12.41
					c0.02-0.12,0.1-0.23,0.2-0.33c0.08-0.27,0.45-0.62,0.61-0.65c1.36-0.3,2.81-0.17,4.19-0.17c1.5,0,3,0,4.5,0.01
					c2.84,0.03,5.68,0.02,8.52,0.02c3.03,0,6.06,0.01,9.1,0.01c2.7,0,5.43-0.09,8.12,0.28c0.13,0.02,0.17,0.08,0.16,0.16
					c0.09,0.02,0.16,0.1,0.16,0.28c0.04,2.11-0.6,4.38-0.94,6.47c-0.33,2.07-0.67,4.15-1,6.22c-0.34,2.1-0.68,4.21-1.02,6.31
					c-0.31,1.94-0.48,3.96-1.16,5.81c-0.04,0.12-0.21,0.27-0.38,0.36c-0.01,0.01-0.02,0.01-0.03,0.02
					c-0.01,0.01-0.03,0.01-0.04,0.02c-0.01,0-0.03,0.01-0.04,0.01c-0.01,0-0.02,0-0.02,0c-0.04,0.01-0.08,0.02-0.11,0.01
					c-2.65,0.42-5.34,0.34-8.02,0.33c-3.01-0.01-6.01-0.03-9.02-0.03c-3.02,0-6.03,0.07-9.05,0.07c-1.51,0-3.01,0-4.52,0
					c-1.13,0-2.76,0.28-3.8-0.25c-0.12,0.04-0.23,0.02-0.24-0.14c0-0.02,0-0.04,0-0.06c-0.01-0.04-0.01-0.08,0-0.12
					C136.08,212.14,136.62,210.15,136.94,208.26z M135.15,220.59c0.08-0.27,0.45-0.62,0.61-0.65c1.36-0.3,2.81-0.17,4.19-0.17
					c1.5,0,3,0,4.5,0.01c2.84,0.03,5.68,0.02,8.52,0.02c3.03,0,6.06,0.01,9.1,0.01c2.7,0,5.43-0.08,8.11,0.29
					c0.13,0.02,0.17,0.08,0.16,0.16c0.09,0.02,0.16,0.1,0.16,0.28c0.04,2.12-0.6,4.38-0.94,6.47c-0.33,2.07-0.67,4.15-1,6.22
					c-0.34,2.1-0.68,4.21-1.02,6.31c-0.31,1.94-0.48,3.96-1.16,5.81c-0.04,0.12-0.21,0.27-0.37,0.36c-0.01,0.01-0.02,0.01-0.03,0.02
					c-0.01,0.01-0.03,0.01-0.04,0.02c-0.01,0-0.03,0.01-0.04,0.01c-0.01,0-0.02,0-0.02,0c-0.04,0.01-0.08,0.01-0.11,0.01
					c-2.65,0.42-5.34,0.34-8.02,0.33c-3.01-0.01-6.01-0.03-9.02-0.03c-3.02,0-6.03,0.07-9.05,0.07c-1.51,0-3.01,0-4.52,0
					c-1.13,0-2.76,0.28-3.8-0.24c-0.12,0.04-0.23,0.02-0.24-0.14c0-0.02,0-0.04,0-0.06c-0.01-0.04-0.01-0.08,0-0.13
					c-0.11-1.92,0.44-3.92,0.75-5.8c0.36-2.15,0.71-4.29,1.05-6.44c0.67-4.14,1.34-8.28,2.03-12.41
					C134.96,220.81,135.04,220.69,135.15,220.59z M96.28,208.26c0.36-2.15,0.71-4.29,1.05-6.44c0.67-4.14,1.34-8.28,2.03-12.41
					c0.02-0.12,0.1-0.23,0.2-0.33c0.08-0.27,0.45-0.62,0.61-0.65c1.36-0.3,2.81-0.17,4.19-0.17c1.5,0,3,0,4.5,0.01
					c2.84,0.03,5.68,0.02,8.52,0.02c3.03,0,6.06,0.01,9.1,0.01c2.7,0,5.43-0.09,8.11,0.28c0.13,0.02,0.17,0.08,0.16,0.16
					c0.09,0.02,0.16,0.1,0.16,0.28c0.04,2.11-0.6,4.38-0.94,6.47c-0.33,2.07-0.67,4.15-1,6.22c-0.34,2.1-0.68,4.21-1.02,6.31
					c-0.31,1.94-0.48,3.96-1.16,5.81c-0.04,0.12-0.21,0.27-0.38,0.36c-0.01,0.01-0.02,0.01-0.03,0.02
					c-0.02,0.01-0.03,0.01-0.04,0.02c-0.01,0-0.02,0.01-0.04,0.01c-0.01,0-0.02,0-0.02,0c-0.04,0.01-0.08,0.02-0.11,0.01
					c-2.65,0.42-5.34,0.34-8.02,0.33c-3.01-0.01-6.01-0.03-9.02-0.03c-3.02,0-6.03,0.07-9.05,0.07c-1.51,0-3.01,0-4.52,0
					c-1.13,0-2.76,0.28-3.8-0.25c-0.12,0.04-0.23,0.02-0.24-0.14c0-0.02,0-0.04,0-0.06c-0.01-0.04-0.01-0.08-0.01-0.12
					C95.42,212.14,95.97,210.15,96.28,208.26z M94.49,220.59c0.08-0.27,0.45-0.62,0.62-0.66c1.36-0.3,2.81-0.17,4.19-0.17
					c1.5,0,3,0,4.49,0.01c2.84,0.03,5.68,0.02,8.52,0.02c3.03,0,6.06,0.01,9.1,0.01c2.7,0,5.43-0.08,8.12,0.29
					c0.13,0.02,0.17,0.08,0.16,0.16c0.09,0.02,0.16,0.1,0.16,0.28c0.04,2.12-0.6,4.38-0.94,6.47c-0.33,2.07-0.67,4.15-1,6.22
					c-0.34,2.1-0.68,4.21-1.02,6.31c-0.31,1.94-0.48,3.96-1.16,5.81c-0.04,0.12-0.21,0.27-0.38,0.36c-0.01,0.01-0.02,0.01-0.03,0.01
					c-0.02,0.01-0.03,0.01-0.04,0.02c-0.01,0-0.02,0.01-0.04,0.01c-0.01,0-0.02,0-0.02,0c-0.04,0.01-0.08,0.01-0.11,0.01
					c-2.65,0.42-5.35,0.34-8.02,0.33c-3.01-0.01-6.01-0.03-9.02-0.03c-3.02,0-6.03,0.07-9.05,0.07c-1.5,0-3.01,0-4.52,0
					c-1.13,0-2.76,0.28-3.8-0.24c-0.12,0.04-0.23,0.02-0.24-0.14c0-0.02,0-0.04,0-0.06c-0.01-0.04-0.01-0.08,0-0.13
					c-0.11-1.92,0.44-3.92,0.75-5.8c0.36-2.15,0.71-4.29,1.05-6.44c0.67-4.14,1.34-8.28,2.03-12.41
					C94.31,220.81,94.38,220.69,94.49,220.59z M55.62,208.26c0.36-2.15,0.71-4.29,1.05-6.44c0.67-4.14,1.34-8.28,2.03-12.41
					c0.02-0.12,0.1-0.23,0.2-0.33c0.08-0.27,0.45-0.62,0.61-0.65c1.36-0.3,2.81-0.17,4.19-0.17c1.5,0,3,0,4.5,0.01
					c2.84,0.03,5.68,0.02,8.52,0.02c3.03,0,6.06,0.01,9.1,0.01c2.7,0,5.43-0.09,8.11,0.28c0.13,0.02,0.17,0.08,0.16,0.16
					c0.09,0.02,0.16,0.1,0.16,0.28c0.04,2.11-0.6,4.38-0.94,6.47c-0.33,2.07-0.67,4.15-1,6.22c-0.34,2.1-0.68,4.21-1.02,6.31
					c-0.31,1.94-0.48,3.96-1.16,5.81c-0.04,0.12-0.21,0.27-0.38,0.36c-0.01,0.01-0.02,0.01-0.03,0.02
					c-0.01,0.01-0.03,0.01-0.04,0.02c-0.01,0-0.03,0.01-0.04,0.01c-0.01,0-0.02,0-0.02,0c-0.04,0.01-0.08,0.02-0.11,0.01
					c-2.65,0.42-5.34,0.34-8.02,0.33c-3.01-0.01-6.01-0.03-9.02-0.03c-3.02,0-6.03,0.07-9.05,0.07c-1.51,0-3.01,0-4.52,0
					c-1.13,0-2.76,0.28-3.8-0.25c-0.12,0.04-0.23,0.02-0.24-0.14c0-0.02,0-0.04,0-0.06c-0.01-0.04-0.01-0.08,0-0.12
					C54.76,212.15,55.31,210.15,55.62,208.26z M50.54,239.78c0.36-2.15,0.71-4.29,1.05-6.44c0.67-4.14,1.34-8.28,2.03-12.41
					c0.02-0.12,0.1-0.23,0.2-0.34c0.08-0.27,0.45-0.62,0.61-0.65c1.36-0.3,2.81-0.17,4.19-0.17c1.5,0,3,0,4.5,0.01
					c2.84,0.03,5.68,0.02,8.52,0.02c3.03,0,6.06,0.01,9.1,0.01c2.7,0,5.43-0.08,8.11,0.29c0.13,0.02,0.17,0.08,0.16,0.16
					c0.1,0.02,0.16,0.1,0.16,0.28c0.04,2.12-0.6,4.38-0.94,6.47c-0.33,2.07-0.67,4.15-1,6.22c-0.34,2.1-0.68,4.21-1.02,6.31
					c-0.31,1.94-0.48,3.96-1.16,5.81c-0.04,0.12-0.21,0.27-0.38,0.36c-0.01,0.01-0.02,0.01-0.03,0.02
					c-0.02,0.01-0.03,0.01-0.04,0.02c-0.01,0-0.03,0.01-0.04,0.01c-0.01,0-0.02,0-0.02,0c-0.04,0.01-0.08,0.01-0.11,0.01
					c-2.65,0.42-5.34,0.34-8.02,0.33c-3.01-0.01-6.01-0.03-9.02-0.03c-3.02,0-6.03,0.07-9.05,0.07c-1.51,0-3.01,0-4.52,0
					c-1.13,0-2.76,0.28-3.8-0.24c-0.12,0.04-0.23,0.02-0.24-0.14c0-0.02,0-0.04,0-0.06c-0.01-0.04-0.01-0.08,0-0.12
					C49.68,243.66,50.23,241.66,50.54,239.78z M45.46,271.3c0.36-2.15,0.71-4.29,1.05-6.44c0.67-4.14,1.34-8.28,2.03-12.41
					c0.02-0.12,0.1-0.23,0.2-0.33c0.08-0.27,0.45-0.62,0.62-0.65c1.36-0.3,2.81-0.17,4.19-0.17c1.5,0,3,0,4.5,0.01
					c2.84,0.03,5.68,0.02,8.52,0.02c3.03,0,6.06,0.01,9.1,0.01c2.7,0,5.43-0.08,8.11,0.29c0.13,0.02,0.17,0.08,0.16,0.17
					c0.1,0.02,0.16,0.1,0.16,0.28c0.04,2.11-0.6,4.38-0.94,6.47c-0.33,2.07-0.67,4.15-1,6.22c-0.34,2.1-0.68,4.21-1.02,6.31
					c-0.31,1.94-0.48,3.96-1.16,5.81c-0.04,0.12-0.21,0.27-0.38,0.36c-0.01,0.01-0.02,0.01-0.03,0.02
					c-0.02,0.01-0.03,0.01-0.04,0.02c-0.01,0-0.03,0.01-0.04,0.01c-0.01,0-0.02,0-0.03,0c-0.04,0.01-0.08,0.02-0.11,0.01
					c-2.65,0.42-5.34,0.34-8.02,0.33c-3.01-0.01-6.01-0.03-9.02-0.03c-3.02,0-6.04,0.07-9.05,0.07c-1.51,0-3.01,0-4.52,0
					c-1.13,0-2.76,0.29-3.81-0.25c-0.12,0.05-0.22,0.04-0.23-0.14c0-0.02,0-0.04,0-0.06c-0.01-0.04-0.01-0.08,0-0.13
					C44.6,275.18,45.15,273.18,45.46,271.3z M38.85,284.55c11.45-0.02,22.9-0.02,34.35,0.02c11.32,0.04,22.67-0.15,33.99,0.24
					c0.47,0.02-0.04,0.73-0.36,0.75c-11.56,0.38-23.16,0.2-34.72,0.24c-11.29,0.04-22.57,0.04-33.86,0.02
					C37.47,285.8,38.28,284.55,38.85,284.55z"/>
				<path class="st5" d="M363.33,250.03c-2.26-16.86-4.51-33.72-6.76-50.58c-3.2-24.04-6.41-48.07-9.61-72.1
					c-1.37-10.22-2.73-20.44-4.08-30.67c-0.66-4.97-0.83-10.97-5.79-13.76c-1.41-0.79-2.92-0.86-4.51-0.88c-0.94-0.01-1.88,0-2.81,0
					c0.15,0.08,0.31,0.15,0.45,0.24c0.02,0.01,0.04,0.03,0.06,0.04c0.03,0,0.05-0.02,0.08-0.02c5.47,0.09,8.9,4.3,9.28,9.55
					c0.29,3.94,1.02,7.89,1.55,11.81c2.78,20.68,5.55,41.36,8.32,62.05c4.3,32.13,8.6,64.26,12.89,96.39
					c0.49,3.71,0.99,7.42,1.48,11.13c0.39,2.9,1.05,5.9,0.52,8.83c-0.39,2.19-1.37,4.26-3.1,5.71c-0.05,0.04-0.11,0.08-0.16,0.12
					c1.3-0.42,2.52-1.07,3.48-2.08c3.35-3.53,2.36-8.56,1.78-12.89C365.37,265.3,364.35,257.67,363.33,250.03z"/>
				<path class="st6" d="M43.14,292.3c5.48,0,10.97-0.01,16.45-0.02c10.99-0.02,21.98-0.05,32.97-0.08
					c40.74-0.11,81.47-0.12,122.21-0.14c20.2-0.01,40.41-0.02,60.61-0.03c5.01,0,10.01,0,15.02-0.01c4,0,8.3,0.35,11.41-2.66
					c2.67-2.58,3.57-5.95,4.14-9.5c0.71-4.37,1.41-8.74,2.11-13.12c5.69-35.34,11.38-70.67,17.08-106
					c2.1-13.01,4.19-26.03,6.29-39.04c0.96-5.93,1.92-11.87,2.87-17.8c0.36-2.24,0.72-4.48,1.08-6.72c0.37-2.31,0.53-4.69-0.27-6.71
					c-0.01,0-0.01-0.01-0.02-0.01c-0.1-0.07-0.12-0.17-0.11-0.28c-0.33-0.73-0.8-1.4-1.43-2.01c0.17,1.91-0.34,3.95-0.63,5.8
					c-0.31,1.95-0.63,3.9-0.94,5.85c-0.79,4.92-1.59,9.85-2.38,14.77c-3.5,21.74-7,43.49-10.51,65.23
					c-5.2,32.24-10.14,64.53-15.57,96.73c0.02,0.07,0.03,0.15,0.01,0.27c-0.65,3.98-2.53,8.03-6.02,10.29
					c-4.36,2.81-9.71,2.04-14.65,2.05c-36.83,0.01-73.66,0.01-110.48-0.02c-37-0.03-74,0.08-110.99,0.16
					c-4.61,0.01-9.23,0.02-13.84,0.02c-4.51,0.01-9.12,0.29-13.61,0c-1.01-0.06-1.97-0.29-2.88-0.64c1.17,1.39,2.67,2.52,4.38,3.1
					C37.88,292.61,40.59,292.3,43.14,292.3z"/>
				<path class="st6" d="M310.49,269.78c5.69-35.34,11.37-70.67,17.07-106.01c2.1-13.01,4.2-26.03,6.3-39.04
					c0.96-5.93,1.91-11.87,2.87-17.8c0.36-2.24,0.73-4.48,1.09-6.72c0.45-2.77,0.59-5.63-0.87-7.87c0.12,1.7-0.11,3.51-0.39,5.24
					c-0.53,3.28-1.06,6.56-1.59,9.85c-1.37,8.56-2.75,17.12-4.13,25.68c-4.92,30.54-9.83,61.07-14.76,91.61
					c-1.62,10.01-3.23,20.02-4.84,30.03c-1.43,8.87-2.59,17.84-4.31,26.66c-1.16,5.93-5.25,11.35-11.65,11.86
					c-4.78,0.38-9.7,0.06-14.49,0.06c-5.01,0-10.03,0-15.04,0c-40.58-0.02-81.16-0.08-121.74-0.03
					c-20.39,0.03-40.78,0.09-61.18,0.15c-10.17,0.03-20.34,0.05-30.51,0.06c-2.64,0-5.28,0-7.92,0.01c-2.35,0-4.78,0.18-7.12-0.01
					c-0.89-0.07-1.74-0.25-2.54-0.54c0.93,0.8,1.98,1.45,3.14,1.84c2.45,0.82,5.15,0.52,7.7,0.52c5.48,0,10.97-0.01,16.45-0.02
					c10.99-0.02,21.98-0.04,32.97-0.08c40.73-0.11,81.47-0.12,122.21-0.14c20.2-0.01,40.41-0.02,60.61-0.03c5.01,0,10.01,0,15.02,0
					c4,0,8.3,0.35,11.41-2.66c2.67-2.58,3.57-5.95,4.14-9.5C309.08,278.52,309.78,274.15,310.49,269.78z"/>
				<path class="st3" d="M362.31,284.96c1.22-2.58,0.99-5.36,0.62-8.11c-0.49-3.67-0.98-7.34-1.48-11
					c-2.2-16.44-4.4-32.89-6.59-49.33c-3.43-25.71-6.85-51.41-10.28-77.12c-1.47-11.04-2.94-22.07-4.41-33.11
					c-0.32-2.42-0.64-4.85-0.96-7.27c-0.07,0.53-0.15,1.06-0.23,1.59c-0.53,3.28-1.06,6.57-1.59,9.85
					c-1.38,8.56-2.76,17.12-4.13,25.68c-4.92,30.54-9.83,61.07-14.76,91.61c-1.62,10.01-3.23,20.02-4.85,30.03
					c-1.43,8.87-2.59,17.84-4.31,26.66c-0.29,1.46-0.75,2.89-1.38,4.22c11.75-0.05,23.51-0.05,35.26-0.05c4.17,0,8.37,0.16,12.54,0
					C358.43,288.48,361.11,287.52,362.31,284.96z"/>
				<path class="st1" d="M145.96,181.78c1.51,0,3.02-0.03,4.52,0c2.99,0.06,5.99,0.07,8.98,0.07c3.02,0,6.03-0.01,9.05-0.03
					c2.35-0.01,4.85-0.31,7.2-0.02c0.01-1.65,0.48-3.36,0.74-4.97c0.34-2.1,0.68-4.21,1.02-6.31c0.33-2.07,0.67-4.15,1-6.22
					c0.34-2.1,0.48-4.37,1.13-6.39c0.02-0.05,0.06-0.11,0.11-0.17c-2.84,0.32-5.71,0.26-8.57,0.26c-2.87,0-5.73,0-8.6,0.01
					c-3.01,0-6.03,0-9.05,0.03c-1.5,0.01-3,0.01-4.5,0c-0.97,0-2,0.08-2.97-0.07c-0.62,4.03-1.26,8.06-1.91,12.09
					c-0.35,2.14-0.69,4.29-1.02,6.43c-0.29,1.83-0.48,3.73-1.04,5.51C143.3,181.63,144.66,181.78,145.96,181.78z"/>
				<path class="st2" d="M140.88,213.3c1.5,0,3.01-0.03,4.52,0c2.99,0.06,5.99,0.07,8.98,0.07c3.02,0,6.03-0.01,9.05-0.03
					c2.35-0.01,4.85-0.31,7.2-0.02c0.01-1.65,0.48-3.37,0.74-4.97c0.34-2.1,0.68-4.21,1.02-6.31c0.33-2.08,0.67-4.15,1-6.22
					c0.34-2.09,0.48-4.37,1.13-6.39c0.02-0.05,0.06-0.11,0.11-0.17c-2.84,0.32-5.71,0.25-8.57,0.26c-2.87,0-5.73,0.01-8.6,0.01
					c-3.02,0-6.03,0-9.05,0.03c-1.5,0.02-3,0.01-4.5,0c-0.97,0-2,0.08-2.97-0.07c-0.65,4.2-1.32,8.39-1.99,12.58
					c-0.35,2.14-0.68,4.29-1.02,6.43c-0.26,1.68-0.46,3.39-0.96,5.01C138.21,213.15,139.58,213.3,140.88,213.3z"/>
				<path class="st1" d="M131.88,245.02c1.25-0.35,2.62-0.21,3.92-0.21c1.5,0,3.01-0.03,4.52,0c3,0.06,5.99,0.07,8.98,0.07
					c3.02,0,6.03-0.01,9.05-0.03c2.35-0.01,4.85-0.31,7.2-0.02c0.02-1.65,0.48-3.36,0.74-4.97c0.34-2.1,0.68-4.21,1.02-6.31
					c0.33-2.08,0.67-4.15,1-6.22c0.34-2.09,0.48-4.37,1.13-6.39c0.02-0.05,0.06-0.11,0.11-0.17c-2.84,0.32-5.71,0.25-8.57,0.26
					c-2.87,0-5.73,0.01-8.6,0.01c-3.01,0-6.03,0-9.05,0.03c-1.5,0.02-3,0.01-4.5,0.01c-0.97,0-2,0.08-2.97-0.07
					c-0.65,4.2-1.32,8.39-2,12.58c-0.35,2.14-0.68,4.29-1.02,6.43C132.58,241.69,132.38,243.4,131.88,245.02z"/>
			</g>
			<path class="st4" d="M103.06,144.59c36.93,0,73.85,0,110.78,0c18.46,0,36.92,0,55.39,0c9.24,0,18.48,0,27.72,0
				c4.59,0,9.17,0,13.76,0c4.35,0,8.73-0.17,13.05,0.23c0.29-1.79,0.58-3.59,0.87-5.38c-6.67,0.6-13.47,0.25-20.16,0.25
				c-6.64,0-13.27,0-19.92,0c-13.3,0-26.6,0-39.9,0c-36.91,0-73.83,0-110.74,0c-28.76,0-57.53,0.17-86.3-0.04
				c-0.27,1.67-0.55,3.35-0.82,5.02c0.05-0.02,0.11-0.04,0.16-0.04C65.65,144.5,84.36,144.59,103.06,144.59z"/>
			<path class="st1" d="M280.41,56.69c-5.83,2.68-10.04,7.57-12.85,13.24c-2.42,4.87-4.81,13.35-2.91,18.64
				c0.61,1.71,2.93-0.7,3.16-1.53c1.29-4.53,0.97-9.36,2.29-13.95c1.73-6.08,5.99-10.12,10.73-13.98
				C281.84,58.29,282.5,55.73,280.41,56.69z"/>
			<path class="st1" d="M102.5,58.85c-5.41,2.96-8.69,7.96-10.88,13.61c-1.7,4.4-4.61,13.8-1.62,18.08
				c0.85,1.21,2.77-1.06,2.97-1.79c1.09-4.1,0.42-8.61,1.35-12.84c1.25-5.63,4.08-11.13,8.56-14.84
				C103.79,60.33,104.37,57.83,102.5,58.85z"/>
			<path class="st7" d="M253.53,81.45c-24.04-1.19-48.43-0.06-72.51-0.05c-12.1,0-24.2,0.01-36.3,0.01
				c-11.68,0-24.19-1.22-35.8,0.35c0-0.39-0.16-0.57-0.4-0.62c-0.72-0.17-2.17,0.99-2.16,1.86c0,0.18,0,0.35,0,0.52
				c-0.04,0.18-0.05,0.35,0,0.49c0.06,7.36,2.13,13.44,7.83,18.26c-0.3,0.38-0.5,0.78-0.48,1.08c0.15,3.09,0.83,5.83-0.32,8.86
				c-0.34,0.9-0.09,1.36,0.37,1.5c-2.09,2.74-5.12,4.97-7.86,6.15c-0.03,0.01-0.06,0.04-0.09,0.05c-0.85-0.32-1.76-0.42-2.77-0.72
				c-2.17-0.65-4.04-1.98-5.72-3.45c-3.19-2.8-5.2-6.76-6.78-10.62c-3.14-7.64-3.93-15.89-4.73-24.03
				c-0.13-1.35-1.46-0.68-2.26,0.23c-1.38,0.17-2.66,0.49-3.93,1c-2.44,0-5.02-0.65-7.2-0.98c-3.51-0.54-6.51-0.6-9.84,0.67
				c-5.34,2.04-9.09,8.65-8.15,14.2c0,0.03,0.02,0.05,0.02,0.08c-2.03,4.15-1.56,10.43-1.97,14.4c-0.74,7.18-2.3,14.05-4.37,20.96
				c-1.94,6.47-2.67,12.49-2.96,19.23c-0.31,7.41-1.93,14.54-3.78,21.69c-1.77,6.85-2.87,13.67-3.94,20.66
				c-2.27,14.69-4.5,29.39-6.73,44.09c-1.21,7.97-3.43,15.7-4.89,23.62c-1.29,7-2.43,15.06,0.52,21.79c3.57,8.15,14.14,7,21.33,6.17
				c5.92-0.68,11.39-0.79,17.33-0.24c5.52,0.51,10.96,0.94,16.45,0.3c0.27,0.08,0.59,0.04,0.94-0.12c0.15-0.02,0.3-0.03,0.45-0.06
				c1.18-0.18,2.4-1.77,2.56-2.94c54.36-61.39,114.78-123.67,160.81-191.54c2.52-3.72,5.69-6.81,7.83-10.8
				c0.17-0.32,0.24-0.56,0.25-0.76C254.57,82.09,254.45,81.5,253.53,81.45z"/>
			<path class="st8" d="M362.31,284.96c1.22-2.58,0.99-5.36,0.62-8.11c-0.49-3.67-0.98-7.34-1.48-11
				c-2.2-16.44-4.4-32.89-6.59-49.33c-3.43-25.71-6.85-51.41-10.28-77.12c-1.47-11.04-2.94-22.07-4.41-33.11
				c-0.32-2.42-0.64-4.85-0.96-7.27c-0.07,0.53-0.15,1.06-0.23,1.59c-0.53,3.28-1.06,6.57-1.59,9.85
				c-1.38,8.56-2.76,17.12-4.13,25.68c-4.92,30.54-9.83,61.07-14.76,91.61c-1.62,10.01-3.23,20.02-4.85,30.03
				c-1.43,8.87-2.59,17.84-4.31,26.66c-0.29,1.46-0.75,2.89-1.38,4.22c11.75-0.05,23.51-0.05,35.26-0.05c4.17,0,8.37,0.16,12.54,0
				C358.43,288.48,361.11,287.52,362.31,284.96z"/>
		</g>
		<g>
			<g>
				<g>
					<path d="M302.37,277.12c-0.55,3.1-1.78,6.21-4.22,8.31c-2.89,2.49-6.39,2.43-9.99,2.43c-9.27,0-18.55,0-27.82-0.01
						c-18.61,0-37.21,0-55.82,0.01c-18.65,0.01-37.3,0.01-55.94,0.03c-18.71,0.02-37.41,0.08-56.12,0.13
						c-18.65,0.05-37.3,0.1-55.95,0.1c-1.85,0-3.53-0.04-5.24-0.83c-1.46-0.67-2.75-1.7-3.77-2.94c-1.1-1.35-1.88-3-2.12-4.72
						c-0.29-2.04,0.25-4.1,0.57-6.1c1.45-9,2.9-18,4.36-27c2.97-18.42,5.94-36.83,8.91-55.25c2.11-13.09,4.22-26.18,6.35-39.27
						c1.98-12.12,3.96-24.24,5.93-36.36c0.87-5.36,1.75-10.72,2.62-16.08c0.8-4.93,0.92-11.06,4.69-14.75
						c1.93-1.89,4.59-2.76,7.26-2.79c0.5-0.01,1.2-1.11,0.53-1.1c-5.66,0.06-9.98,3.5-11.79,8.82c-0.79,2.33-1.04,4.84-1.43,7.26
						c-0.4,2.45-0.79,4.9-1.19,7.34c-2.01,12.37-4.04,24.74-6.05,37.1c-1.89,11.61-3.77,23.21-5.64,34.83
						c-3.08,19.14-6.16,38.28-9.24,57.42c-1.54,9.55-3.07,19.1-4.61,28.65c-0.73,4.53-1.46,9.06-2.19,13.58
						c-0.54,3.34-0.33,6.35,1.79,9.14c1.81,2.38,4.67,4.08,7.69,4.22c4.7,0.22,9.46,0,14.16,0c9.69-0.01,19.39-0.03,29.08-0.06
						c19.34-0.05,38.68-0.12,58.03-0.13c19.4-0.02,38.8,0.01,58.19,0.02c19.26,0.01,38.52,0.02,57.77,0.02
						c9.65,0,19.29,0,28.94-0.01c2.38,0,4.76,0,7.15,0c1.91,0,3.85,0.12,5.74-0.22c2.81-0.5,5.33-2.04,7.14-4.23
						c1.86-2.24,2.9-5,3.37-7.86C303.66,275.99,302.47,276.58,302.37,277.12L302.37,277.12z"/>
				</g>
			</g>
			<g>
				<g>
					<path d="M280.94,81.98c8.41,0.01,16.82,0.01,25.23,0.01c4.02,0,8.04,0,12.06,0c2.37,0,4.8-0.14,7.17,0.05
						c1.75,0.14,3.56,0.63,4.87,1.85c2.47,2.31,2.41,5.65,1.91,8.74c-0.37,2.32-0.75,4.64-1.12,6.96c-1,6.23-2.01,12.46-3.01,18.69
						c-2.17,13.43-4.33,26.87-6.5,40.3c-2.77,17.17-5.54,34.34-8.31,51.5c-3.25,20.18-6.52,40.36-9.8,60.53
						c-0.35,2.16-0.68,4.33-1.02,6.5c-0.12,0.76,0.95,0.23,1.03-0.26c3.39-20.1,6.47-40.26,9.71-60.38
						c2.96-18.38,5.92-36.75,8.88-55.13c2.16-13.4,4.32-26.8,6.48-40.21c1.05-6.5,2.09-12.99,3.14-19.49
						c0.41-2.57,0.83-5.15,1.24-7.72c0.44-2.74,1.06-5.55-0.01-8.22c-1.13-2.8-3.5-4.26-6.45-4.62c-2.43-0.3-4.96-0.1-7.41-0.1
						c-1.9,0-3.8,0-5.7,0c-8.73,0-17.47,0-26.2,0.01c-1.91,0-3.82,0-5.73,0C280.97,80.99,280.33,81.98,280.94,81.98L280.94,81.98z"
						/>
				</g>
			</g>
			<g>
				<g>
					<path d="M46.35,145.88c13.14,0.07,26.27,0.03,39.41,0.03c18.03,0,36.05,0,54.08,0c19.66,0,39.31,0,58.97,0
						c19.66,0,39.32,0,58.97,0c19.63,0,39.26,0,58.89,0c2.44,0,4.84-0.04,7.27-0.26c0.3-0.03,0.89-0.72,0.37-0.77
						c-4.79-0.46-9.64-0.26-14.45-0.26c-4.87,0-9.73,0-14.6,0c-9.89,0-19.78,0-29.66,0c-19.57,0-39.14,0-58.7,0
						c-19.65,0-39.31,0-58.96,0c-18.92,0-37.83,0-56.75,0c-13.61,0-27.22-0.06-40.83,0.01c-1.14,0.01-2.28,0.01-3.42,0.02
						C46.39,144.65,45.6,145.87,46.35,145.88L46.35,145.88z"/>
				</g>
			</g>
			<g>
				<g>
					<path d="M47.36,139.63c13.14,0.07,26.27,0.03,39.41,0.03c18.03,0,36.05,0,54.08,0c19.66,0,39.31,0,58.97,0
						c19.66,0,39.32,0,58.97,0c19.63,0,39.26,0,58.89,0c2.44,0,4.84-0.04,7.27-0.26c0.3-0.03,0.89-0.72,0.37-0.77
						c-4.79-0.46-9.64-0.26-14.45-0.26c-4.87,0-9.73,0-14.6,0c-9.89,0-19.78,0-29.66,0c-19.57,0-39.14,0-58.7,0
						c-19.65,0-39.31,0-58.96,0c-18.92,0-37.83,0-56.75,0c-13.61,0-27.22-0.06-40.83,0.01c-1.14,0.01-2.28,0.01-3.42,0.02
						C47.4,138.41,46.6,139.63,47.36,139.63L47.36,139.63z"/>
				</g>
			</g>
			<g>
				<g>
					<path d="M264.08,104.52c-1.95,3.76-2.3,8.58-0.26,12.39c1.5,2.8,4.39,4.56,7.47,5.09c6.2,1.07,12.73-2.48,15.78-7.86
						c1.97-3.48,2.6-8.43,0.51-11.99c-0.31-0.52-1.3,0.32-1.05,0.75c3.3,5.77-0.36,13.25-5.71,16.22
						c-4.65,2.58-11.27,2.69-14.92-1.69c-2.94-3.52-2.77-9-0.75-12.89C265.58,103.68,264.36,103.96,264.08,104.52L264.08,104.52z"/>
				</g>
			</g>
			<g>
				<g>
					<path d="M89.42,105.49c-1.59,3.84-1.67,8.57,0.65,12.15c1.7,2.61,4.75,4.12,7.78,4.47c6.24,0.71,12.68-3.12,15.42-8.7
						c1.73-3.53,2.11-8.39-0.2-11.75c-0.29-0.42-1.25,0.47-0.94,0.94c1.92,2.87,1.66,6.97,0.36,10.04c-1.11,2.63-3.06,4.79-5.5,6.26
						c-4.55,2.72-10.98,2.99-14.89-1.02c-3.09-3.16-3.24-8.48-1.63-12.37C90.85,104.62,89.66,104.91,89.42,105.49L89.42,105.49z"/>
				</g>
			</g>
			<g>
				<g>
					<path d="M302.37,277.12c-0.55,3.1-1.78,6.21-4.22,8.31c-2.89,2.49-6.39,2.43-9.99,2.43c-9.27,0-18.55,0-27.82-0.01
						c-18.61,0-37.21,0-55.82,0.01c-18.65,0.01-37.3,0.01-55.94,0.03c-18.71,0.02-37.41,0.08-56.12,0.13
						c-18.65,0.05-37.3,0.1-55.95,0.1c-1.85,0-3.53-0.04-5.24-0.83c-1.46-0.67-2.75-1.7-3.77-2.94c-1.1-1.35-1.88-3-2.12-4.72
						c-0.29-2.04,0.25-4.1,0.57-6.1c1.45-9,2.9-18,4.36-27c2.97-18.42,5.94-36.83,8.91-55.25c2.11-13.09,4.22-26.18,6.35-39.27
						c1.98-12.12,3.96-24.24,5.93-36.36c0.87-5.36,1.75-10.72,2.62-16.08c0.8-4.93,0.92-11.06,4.69-14.75
						c1.93-1.89,4.59-2.76,7.26-2.79c0.5-0.01,1.2-1.11,0.53-1.1c-5.66,0.06-9.98,3.5-11.79,8.82c-0.79,2.33-1.04,4.84-1.43,7.26
						c-0.4,2.45-0.79,4.9-1.19,7.34c-2.01,12.37-4.04,24.74-6.05,37.1c-1.89,11.61-3.77,23.21-5.64,34.83
						c-3.08,19.14-6.16,38.28-9.24,57.42c-1.54,9.55-3.07,19.1-4.61,28.65c-0.73,4.53-1.46,9.06-2.19,13.58
						c-0.54,3.34-0.33,6.35,1.79,9.14c1.81,2.38,4.67,4.08,7.69,4.22c4.7,0.22,9.46,0,14.16,0c9.69-0.01,19.39-0.03,29.08-0.06
						c19.34-0.05,38.68-0.12,58.03-0.13c19.4-0.02,38.8,0.01,58.19,0.02c19.26,0.01,38.52,0.02,57.77,0.02
						c9.65,0,19.29,0,28.94-0.01c2.38,0,4.76,0,7.15,0c1.91,0,3.85,0.12,5.74-0.22c2.81-0.5,5.33-2.04,7.14-4.23
						c1.86-2.24,2.9-5,3.37-7.86C303.66,275.99,302.47,276.58,302.37,277.12L302.37,277.12z"/>
				</g>
			</g>
			<g>
				<g>
					<path d="M332.69,87.44c4.92,3.4,2.67,10.09,1.88,14.98c-0.81,5.01-1.62,10.01-2.42,15.02c-1.91,11.83-3.82,23.67-5.72,35.5
						c-4.71,29.23-9.43,58.47-14.13,87.7c-1.39,8.62-2.77,17.24-4.16,25.86c-0.64,3.96-1.27,7.92-1.91,11.88
						c-0.52,3.22-0.94,6.44-2.84,9.2c-1.84,2.67-4.71,4.24-7.94,4.46c-4.25,0.28-8.6,0.03-12.86,0.03c-8.92,0-17.84,0.01-26.77,0.01
						c-36.06,0.01-72.13,0-108.19,0.03c-36.05,0.03-72.1,0.21-108.15,0.22c-3.94,0-7.25-1.52-9.4-4.93
						c-0.35-0.56-1.42,0.36-1.14,0.81c1.68,2.66,4.31,4.71,7.48,5.2c1.99,0.31,4.13,0.1,6.15,0.1c2.44,0,4.87,0,7.31-0.01
						c9.35-0.01,18.71-0.03,28.06-0.05c18.55-0.05,37.1-0.11,55.66-0.14c37.03-0.07,74.07-0.02,111.1,0
						c9.23,0,18.45,0.01,27.68,0.01c4.61,0,9.22,0,13.83,0c3.69,0,7.84,0.55,11.43-0.5c5.59-1.63,8.53-6.83,9.42-12.27
						c1.34-8.19,2.65-16.38,3.97-24.58c5.16-31.95,10.31-63.9,15.46-95.85c1.91-11.84,3.81-23.68,5.72-35.52
						c0.92-5.72,1.84-11.43,2.76-17.15c0.71-4.41,1.75-8.9,2.06-13.36c0.21-2.97-0.74-5.92-3.3-7.65
						C333.21,86.09,332.23,87.13,332.69,87.44L332.69,87.44z"/>
				</g>
			</g>
			<g>
				<g>
					<path d="M335.11,90.46c4.92,3.39,2.67,10.09,1.88,14.98c-0.81,5.01-1.62,10.01-2.42,15.02c-1.91,11.83-3.82,23.67-5.73,35.5
						c-4.72,29.23-9.43,58.47-14.13,87.7c-1.39,8.62-2.77,17.24-4.16,25.86c-0.64,3.96-1.27,7.92-1.91,11.88
						c-0.52,3.22-0.94,6.44-2.83,9.2c-1.84,2.67-4.71,4.25-7.93,4.46c-4.25,0.28-8.6,0.03-12.86,0.03c-8.92,0-17.85,0.01-26.77,0.01
						c-36.06,0.01-72.13,0-108.19,0.03c-36.05,0.03-72.1,0.21-108.15,0.21c-3.94,0-7.25-1.52-9.4-4.93
						c-0.35-0.56-1.42,0.36-1.14,0.81c1.68,2.66,4.31,4.71,7.48,5.2c1.99,0.31,4.13,0.1,6.15,0.1c2.44,0,4.87,0,7.31-0.01
						c9.35-0.01,18.71-0.03,28.06-0.05c18.55-0.05,37.1-0.11,55.66-0.14c37.03-0.07,74.07-0.02,111.1,0
						c9.23,0,18.45,0.01,27.68,0.01c4.61,0,9.22,0,13.83,0c3.69,0,7.84,0.55,11.43-0.5c5.59-1.63,8.53-6.83,9.42-12.27
						c1.34-8.19,2.64-16.38,3.97-24.58c5.16-31.95,10.31-63.9,15.45-95.85c1.91-11.84,3.81-23.68,5.72-35.52
						c0.92-5.72,1.84-11.43,2.76-17.15c0.71-4.4,1.76-8.9,2.06-13.36c0.2-2.97-0.74-5.92-3.3-7.65
						C335.63,89.1,334.65,90.14,335.11,90.46L335.11,90.46z"/>
				</g>
			</g>
			<g>
				<g>
					<path d="M355.67,289.9c3.26-0.03,6.61-0.71,9.11-2.92c1.85-1.64,2.98-3.94,3.37-6.36c0.51-3.16-0.19-6.36-0.61-9.5
						c-0.62-4.64-1.24-9.27-1.86-13.91c-2.85-21.39-5.71-42.78-8.58-64.17c-2.03-15.15-4.06-30.29-6.08-45.44
						c-1.88-14.05-3.76-28.1-5.64-42.15c-0.38-2.86-0.77-5.72-1.15-8.58c-0.33-2.47-0.55-4.99-1.06-7.44
						c-0.68-3.28-2.77-6.79-6.03-8.1c-2.07-0.83-4.69-0.52-6.86-0.5c-2.17,0.02-4.34,0.05-6.5,0.06c-0.54,0-1.3,1.19-0.57,1.19
						c3.53,0,7.09-0.21,10.62-0.01c2.84,0.16,4.86,1.6,6.48,3.98c1.78,2.6,1.95,5.78,2.36,8.81c0.34,2.56,0.68,5.12,1.02,7.68
						c1.78,13.38,3.57,26.76,5.35,40.14c1.78,13.38,3.57,26.76,5.35,40.14c2.76,20.66,5.51,41.33,8.28,61.99
						c1.27,9.47,2.53,18.94,3.8,28.41c0.38,2.86,0.96,5.74,0.27,8.6c-0.64,2.69-2.32,4.8-4.89,5.86c-1.75,0.73-3.67,0.93-5.55,0.95
						C355.71,288.63,354.89,289.9,355.67,289.9L355.67,289.9z"/>
				</g>
			</g>
			<g>
				<g>
					<path d="M306.93,289.85c10.38,0.04,20.75,0.04,31.13,0.04c5.73,0,11.52,0.22,17.25-0.01c3.23-0.13,6.25-1.55,7.88-4.43
						c1.88-3.31,1.34-7.04,0.86-10.64c-0.67-5.01-1.34-10.03-2.01-15.04c-1.53-11.46-3.06-22.92-4.59-34.38
						c-2.76-20.66-5.54-41.32-8.3-61.98c-1.93-14.4-3.86-28.81-5.79-43.21c-0.92-6.87-1.84-13.74-2.77-20.62
						c-0.34-2.51-0.76-5.04-0.98-7.56c-0.29-3.21-1.51-6.53-4.34-8.34c-1.49-0.95-3.19-1.32-4.94-1.35
						c-0.54-0.01-1.3,1.18-0.57,1.19c3.92,0.07,6.86,2.36,8.06,6.06c0.8,2.47,0.85,5.3,1.2,7.88c0.84,6.32,1.68,12.65,2.52,18.97
						c1.91,14.35,3.83,28.7,5.74,43.04c2.45,18.41,4.91,36.83,7.37,55.24c2.82,21.16,5.92,42.31,8.49,63.5
						c0.4,3.28,0.03,7.36-3.07,9.27c-1.8,1.1-3.87,1.14-5.91,1.14c-2.78,0-5.56,0-8.35,0c-11.08,0-22.17-0.02-33.25,0.02
						c-1.69,0.01-3.37,0.01-5.06,0.02C306.97,288.67,306.2,289.85,306.93,289.85L306.93,289.85z"/>
				</g>
			</g>
			<g>
				<g>
					<path d="M106.17,82.19c20.59,0,41.18-0.01,61.77,0c20.63,0.01,41.26,0.02,61.89,0.02c5.71,0,11.42,0,17.13,0.01
						c4.74,0,9.67,0.38,14.37-0.31c0.32-0.05,0.83-0.76,0.31-0.85c-3.98-0.69-8.24-0.3-12.27-0.3c-5.06,0-10.12,0-15.18,0.01
						c-10.3,0-20.61,0.01-30.91,0.01c-20.7,0.01-41.4,0.02-62.1,0.02c-11.44,0-22.89,0-34.33-0.01
						C106.21,80.78,105.31,82.19,106.17,82.19L106.17,82.19z"/>
				</g>
			</g>
			<g>
				<g>
					<path d="M66.01,82.17c6.78,0.07,13.56,0.02,20.35,0.02c0.64,0,1.55-1.42,0.68-1.42c-6.79,0-13.58-0.05-20.37,0.02
						C66.06,80.8,65.15,82.17,66.01,82.17L66.01,82.17z"/>
				</g>
			</g>
			<g>
				<g>
					<path d="M145.12,157.88c-0.71,4.22-1.39,8.43-2.07,12.66c-0.34,2.11-0.68,4.21-1.03,6.32c-0.32,1.91-0.87,3.93-0.73,5.87
						c0.03,0.41,0.54-0.06,0.6-0.22c0.73-2.03,0.91-4.27,1.24-6.39c0.32-2.02,0.64-4.04,0.96-6.07c0.67-4.13,1.33-8.26,1.97-12.4
						C146.16,156.96,145.19,157.44,145.12,157.88L145.12,157.88z"/>
				</g>
			</g>
			<g>
				<g>
					<path d="M145.47,157.84c1.24,0.34,2.68,0.16,3.95,0.16c1.39,0,2.78,0.01,4.18,0c2.96-0.02,5.92-0.02,8.88-0.02
						c2.9,0,5.79-0.01,8.69-0.01c2.96,0,5.93,0.07,8.88-0.28c0.23-0.03,0.72-0.56,0.3-0.62c-2.76-0.37-5.58-0.28-8.36-0.28
						c-2.98,0-5.95-0.01-8.93-0.01c-2.87,0-5.74,0-8.61-0.02c-1.39-0.01-2.78-0.01-4.17-0.01c-1.43,0-2.95-0.14-4.35,0.16
						C145.68,156.96,144.98,157.7,145.47,157.84L145.47,157.84z"/>
				</g>
			</g>
			<g>
				<g>
					<path d="M141.36,182.79c1.03,0.62,2.73,0.3,3.9,0.3c1.56,0,3.13,0.02,4.69,0c3.05-0.03,6.09-0.06,9.14-0.06
						c2.96,0,5.91,0.01,8.87,0.02c2.7,0.01,5.43,0.1,8.11-0.33c0.22-0.04,0.81-0.73,0.39-0.8c-2.48-0.44-5.16-0.09-7.67-0.08
						c-3.13,0.01-6.26,0.02-9.39,0.02c-3.03,0-6.05-0.04-9.08-0.06c-1.48-0.01-2.96,0-4.44,0c-1.42,0-2.93-0.19-4.27,0.33
						C141.39,182.22,141.09,182.62,141.36,182.79L141.36,182.79z"/>
				</g>
			</g>
			<g>
				<g>
					<path d="M179.61,157.89c-0.63,1.97-0.77,4.2-1.1,6.24c-0.34,2.1-0.68,4.21-1.02,6.31c-0.33,2.05-0.66,4.11-0.99,6.16
						c-0.31,1.91-0.91,3.97-0.76,5.91c0.04,0.58,0.76-0.08,0.84-0.31c0.7-1.94,0.85-4.11,1.17-6.15c0.34-2.13,0.69-4.26,1.03-6.39
						c0.33-2.03,0.65-4.05,0.98-6.08c0.32-1.97,0.92-4.1,0.89-6.09C180.64,156.81,179.71,157.6,179.61,157.89L179.61,157.89z"/>
				</g>
			</g>
			<g>
				<g>
					<path d="M185.77,157.88c-0.71,4.22-1.39,8.43-2.07,12.66c-0.34,2.11-0.68,4.21-1.03,6.32c-0.32,1.91-0.87,3.93-0.73,5.87
						c0.03,0.41,0.54-0.06,0.6-0.22c0.73-2.03,0.91-4.27,1.24-6.39c0.32-2.02,0.64-4.04,0.96-6.07c0.67-4.13,1.33-8.26,1.96-12.4
						C186.82,156.96,185.85,157.44,185.77,157.88L185.77,157.88z"/>
				</g>
			</g>
			<g>
				<g>
					<path d="M186.13,157.84c1.24,0.34,2.68,0.16,3.95,0.16c1.39,0,2.78,0.01,4.18,0c2.96-0.02,5.92-0.02,8.87-0.02
						c2.9,0,5.79-0.01,8.69-0.01c2.96,0,5.93,0.07,8.88-0.28c0.23-0.03,0.72-0.56,0.3-0.62c-2.76-0.37-5.58-0.28-8.36-0.28
						c-2.98,0-5.95-0.01-8.93-0.01c-2.87,0-5.74,0-8.61-0.02c-1.39-0.01-2.78-0.01-4.17-0.01c-1.43,0-2.95-0.14-4.35,0.16
						C186.34,156.96,185.63,157.7,186.13,157.84L186.13,157.84z"/>
				</g>
			</g>
			<g>
				<g>
					<path d="M182.02,182.79c1.03,0.62,2.73,0.3,3.9,0.3c1.56,0,3.13,0.02,4.69,0c3.05-0.03,6.09-0.06,9.14-0.06
						c2.96,0,5.91,0.01,8.87,0.02c2.7,0.01,5.43,0.1,8.11-0.33c0.22-0.04,0.81-0.73,0.39-0.8c-2.48-0.44-5.15-0.09-7.67-0.08
						c-3.13,0.01-6.26,0.02-9.39,0.02c-3.03,0-6.05-0.04-9.08-0.06c-1.48-0.01-2.96,0-4.44,0c-1.42,0-2.93-0.19-4.27,0.33
						C182.05,182.22,181.75,182.62,182.02,182.79L182.02,182.79z"/>
				</g>
			</g>
			<g>
				<g>
					<path d="M220.27,157.89c-0.63,1.97-0.77,4.2-1.1,6.24c-0.34,2.1-0.68,4.21-1.02,6.31c-0.33,2.05-0.66,4.11-0.99,6.16
						c-0.31,1.91-0.91,3.97-0.76,5.91c0.04,0.58,0.76-0.08,0.84-0.31c0.7-1.94,0.85-4.11,1.17-6.15c0.34-2.13,0.69-4.26,1.03-6.39
						c0.33-2.03,0.65-4.05,0.98-6.08c0.32-1.97,0.92-4.1,0.89-6.09C221.3,156.81,220.36,157.6,220.27,157.89L220.27,157.89z"/>
				</g>
			</g>
			<g>
				<g>
					<path d="M226.43,157.88c-0.71,4.22-1.39,8.43-2.07,12.66c-0.34,2.11-0.68,4.21-1.03,6.32c-0.32,1.91-0.87,3.93-0.73,5.87
						c0.03,0.41,0.54-0.06,0.6-0.22c0.73-2.03,0.91-4.27,1.24-6.39c0.32-2.02,0.64-4.04,0.96-6.07c0.67-4.13,1.33-8.26,1.96-12.4
						C227.48,156.96,226.51,157.44,226.43,157.88L226.43,157.88z"/>
				</g>
			</g>
			<g>
				<g>
					<path d="M226.79,157.84c1.24,0.34,2.68,0.16,3.95,0.16c1.39,0,2.78,0.01,4.17,0c2.96-0.02,5.92-0.02,8.87-0.02
						c2.89,0,5.79-0.01,8.68-0.01c2.96,0,5.93,0.07,8.88-0.28c0.23-0.03,0.72-0.56,0.3-0.62c-2.76-0.37-5.58-0.28-8.36-0.28
						c-2.98,0-5.95-0.01-8.93-0.01c-2.87,0-5.74,0-8.61-0.02c-1.39-0.01-2.78-0.01-4.17-0.01c-1.43,0-2.95-0.14-4.35,0.16
						C227,156.96,226.29,157.7,226.79,157.84L226.79,157.84z"/>
				</g>
			</g>
			<g>
				<g>
					<path d="M222.68,182.79c1.03,0.62,2.73,0.3,3.9,0.3c1.56,0,3.13,0.02,4.69,0c3.05-0.03,6.09-0.06,9.14-0.06
						c2.96,0,5.91,0.01,8.87,0.02c2.7,0.01,5.43,0.1,8.11-0.33c0.22-0.04,0.81-0.73,0.39-0.8c-2.48-0.44-5.15-0.09-7.67-0.08
						c-3.13,0.01-6.26,0.02-9.39,0.02c-3.03,0-6.05-0.04-9.08-0.06c-1.48-0.01-2.96,0-4.44,0c-1.42,0-2.93-0.19-4.27,0.33
						C222.71,182.22,222.41,182.62,222.68,182.79L222.68,182.79z"/>
				</g>
			</g>
			<g>
				<g>
					<path d="M260.93,157.89c-0.63,1.97-0.77,4.2-1.09,6.24c-0.34,2.1-0.68,4.21-1.02,6.31c-0.33,2.05-0.66,4.11-0.99,6.16
						c-0.31,1.91-0.91,3.97-0.77,5.91c0.04,0.58,0.76-0.08,0.84-0.31c0.7-1.94,0.85-4.11,1.18-6.15c0.34-2.13,0.69-4.26,1.03-6.39
						c0.33-2.03,0.65-4.05,0.98-6.08c0.32-1.97,0.92-4.1,0.89-6.09C261.95,156.81,261.02,157.6,260.93,157.89L260.93,157.89z"/>
				</g>
			</g>
			<g>
				<g>
					<path d="M267.09,157.88c-0.71,4.22-1.39,8.43-2.07,12.66c-0.34,2.11-0.68,4.21-1.03,6.32c-0.32,1.91-0.87,3.93-0.73,5.87
						c0.03,0.41,0.54-0.06,0.6-0.22c0.73-2.03,0.91-4.27,1.24-6.39c0.32-2.02,0.64-4.04,0.96-6.07c0.67-4.13,1.33-8.26,1.97-12.4
						C268.13,156.96,267.16,157.44,267.09,157.88L267.09,157.88z"/>
				</g>
			</g>
			<g>
				<g>
					<path d="M267.45,157.84c1.24,0.34,2.68,0.16,3.96,0.16c1.39,0,2.78,0.01,4.18,0c2.96-0.02,5.92-0.02,8.88-0.02
						c2.9,0,5.79-0.01,8.69-0.01c2.96,0,5.93,0.07,8.88-0.28c0.23-0.03,0.72-0.56,0.3-0.62c-2.76-0.37-5.58-0.28-8.36-0.28
						c-2.98,0-5.95-0.01-8.93-0.01c-2.87,0-5.74,0-8.61-0.02c-1.39-0.01-2.78-0.01-4.17-0.01c-1.43,0-2.95-0.14-4.35,0.16
						C267.65,156.96,266.95,157.7,267.45,157.84L267.45,157.84z"/>
				</g>
			</g>
			<g>
				<g>
					<path d="M263.34,182.79c1.03,0.62,2.73,0.3,3.9,0.3c1.56,0,3.13,0.02,4.69,0c3.05-0.03,6.09-0.06,9.14-0.06
						c2.96,0,5.91,0.01,8.87,0.02c2.7,0.01,5.43,0.1,8.11-0.33c0.22-0.04,0.81-0.73,0.39-0.8c-2.48-0.44-5.15-0.09-7.66-0.08
						c-3.13,0.01-6.26,0.02-9.39,0.02c-3.03,0-6.05-0.04-9.08-0.06c-1.48-0.01-2.96,0-4.44,0c-1.42,0-2.93-0.19-4.27,0.33
						C263.37,182.22,263.07,182.62,263.34,182.79L263.34,182.79z"/>
				</g>
			</g>
			<g>
				<g>
					<path d="M301.59,157.89c-0.63,1.97-0.77,4.2-1.1,6.24c-0.34,2.1-0.68,4.21-1.02,6.31c-0.33,2.05-0.66,4.11-0.99,6.16
						c-0.31,1.91-0.91,3.97-0.76,5.91c0.04,0.58,0.76-0.08,0.84-0.31c0.7-1.94,0.85-4.11,1.17-6.15c0.34-2.13,0.69-4.26,1.03-6.39
						c0.33-2.03,0.65-4.05,0.98-6.08c0.32-1.97,0.92-4.1,0.89-6.09C302.61,156.81,301.68,157.6,301.59,157.89L301.59,157.89z"/>
				</g>
			</g>
			<g>
				<g>
					<path d="M58.72,189.4c-0.71,4.22-1.39,8.44-2.07,12.66c-0.34,2.11-0.68,4.21-1.03,6.32c-0.32,1.91-0.87,3.93-0.73,5.87
						c0.03,0.41,0.54-0.06,0.6-0.22c0.73-2.03,0.91-4.27,1.24-6.39c0.32-2.02,0.64-4.04,0.96-6.07c0.67-4.13,1.33-8.26,1.97-12.4
						C59.76,188.48,58.8,188.96,58.72,189.4L58.72,189.4z"/>
				</g>
			</g>
			<g>
				<g>
					<path d="M59.08,189.36c1.24,0.34,2.68,0.16,3.95,0.16c1.39,0,2.78,0.01,4.17,0c2.96-0.02,5.92-0.02,8.87-0.02
						c2.9,0,5.79-0.01,8.69-0.01c2.96,0,5.93,0.07,8.88-0.28c0.23-0.03,0.72-0.56,0.3-0.62c-2.76-0.37-5.58-0.28-8.36-0.28
						c-2.98,0-5.95-0.01-8.93-0.01c-2.87,0-5.74,0-8.61-0.02c-1.39-0.01-2.78-0.01-4.17-0.01c-1.43,0-2.95-0.14-4.35,0.16
						C59.28,188.48,58.58,189.22,59.08,189.36L59.08,189.36z"/>
				</g>
			</g>
			<g>
				<g>
					<path d="M54.97,214.31c1.03,0.62,2.73,0.3,3.9,0.3c1.56,0,3.13,0.02,4.69,0c3.05-0.03,6.09-0.06,9.14-0.06
						c2.96,0,5.91,0.01,8.87,0.02c2.71,0.01,5.43,0.1,8.11-0.33c0.22-0.04,0.81-0.73,0.39-0.8c-2.48-0.44-5.16-0.08-7.67-0.07
						c-3.13,0.01-6.26,0.02-9.39,0.02c-3.03,0-6.05-0.04-9.08-0.06c-1.48-0.01-2.96,0-4.44,0c-1.42,0-2.93-0.19-4.27,0.33
						C55,213.74,54.7,214.14,54.97,214.31L54.97,214.31z"/>
				</g>
			</g>
			<g>
				<g>
					<path d="M93.22,189.41c-0.63,1.97-0.77,4.2-1.1,6.24c-0.34,2.1-0.68,4.21-1.02,6.31c-0.33,2.05-0.66,4.11-0.99,6.16
						c-0.31,1.91-0.91,3.98-0.76,5.91c0.04,0.58,0.76-0.08,0.84-0.31c0.7-1.94,0.85-4.12,1.17-6.15c0.34-2.13,0.69-4.26,1.03-6.39
						c0.33-2.03,0.65-4.05,0.98-6.08c0.32-1.96,0.92-4.1,0.89-6.09C94.24,188.33,93.31,189.12,93.22,189.41L93.22,189.41z"/>
				</g>
			</g>
			<g>
				<g>
					<path d="M99.38,189.4c-0.71,4.22-1.39,8.44-2.07,12.66c-0.34,2.11-0.68,4.21-1.03,6.32c-0.32,1.91-0.87,3.93-0.73,5.87
						c0.03,0.41,0.54-0.06,0.6-0.22c0.73-2.03,0.91-4.27,1.24-6.39c0.32-2.02,0.64-4.04,0.96-6.07c0.67-4.13,1.33-8.26,1.96-12.4
						C100.42,188.48,99.45,188.96,99.38,189.4L99.38,189.4z"/>
				</g>
			</g>
			<g>
				<g>
					<path d="M99.74,189.36c1.24,0.34,2.68,0.16,3.95,0.16c1.39,0,2.78,0.01,4.18,0c2.96-0.02,5.92-0.02,8.87-0.02
						c2.9,0,5.79-0.01,8.69-0.01c2.96,0,5.93,0.07,8.88-0.28c0.23-0.03,0.72-0.56,0.3-0.62c-2.76-0.37-5.58-0.28-8.36-0.28
						c-2.98,0-5.95-0.01-8.93-0.01c-2.87,0-5.74,0-8.61-0.02c-1.39-0.01-2.78-0.01-4.17-0.01c-1.43,0-2.95-0.14-4.35,0.16
						C99.94,188.48,99.24,189.22,99.74,189.36L99.74,189.36z"/>
				</g>
			</g>
			<g>
				<g>
					<path d="M95.63,214.31c1.03,0.62,2.73,0.3,3.9,0.3c1.56,0,3.13,0.02,4.69,0c3.05-0.03,6.09-0.06,9.14-0.06
						c2.96,0,5.91,0.01,8.87,0.02c2.7,0.01,5.43,0.1,8.11-0.33c0.22-0.04,0.81-0.73,0.39-0.8c-2.48-0.44-5.15-0.08-7.67-0.07
						c-3.13,0.01-6.26,0.02-9.39,0.02c-3.03,0-6.05-0.04-9.08-0.06c-1.48-0.01-2.96,0-4.44,0c-1.42,0-2.93-0.19-4.27,0.33
						C95.65,213.74,95.35,214.14,95.63,214.31L95.63,214.31z"/>
				</g>
			</g>
			<g>
				<g>
					<path d="M133.88,189.41c-0.63,1.97-0.77,4.2-1.1,6.24c-0.34,2.1-0.68,4.21-1.02,6.31c-0.33,2.05-0.66,4.11-0.99,6.16
						c-0.31,1.91-0.91,3.98-0.77,5.91c0.04,0.58,0.76-0.08,0.84-0.31c0.7-1.94,0.85-4.12,1.18-6.15c0.34-2.13,0.69-4.26,1.03-6.39
						c0.33-2.03,0.65-4.05,0.98-6.08c0.32-1.97,0.92-4.1,0.89-6.09C134.9,188.33,133.97,189.12,133.88,189.41L133.88,189.41z"/>
				</g>
			</g>
			<g>
				<g>
					<path d="M140.04,189.4c-0.71,4.22-1.39,8.44-2.07,12.66c-0.34,2.11-0.68,4.21-1.03,6.32c-0.32,1.91-0.87,3.93-0.73,5.87
						c0.03,0.41,0.54-0.06,0.6-0.22c0.73-2.03,0.91-4.27,1.24-6.39c0.32-2.02,0.64-4.04,0.96-6.07c0.67-4.13,1.33-8.26,1.97-12.4
						C141.08,188.48,140.11,188.96,140.04,189.4L140.04,189.4z"/>
				</g>
			</g>
			<g>
				<g>
					<path d="M140.39,189.36c1.24,0.34,2.68,0.16,3.95,0.16c1.39,0,2.78,0.01,4.18,0c2.96-0.02,5.92-0.02,8.87-0.02
						c2.89,0,5.79-0.01,8.68-0.01c2.96,0,5.93,0.07,8.88-0.28c0.23-0.03,0.72-0.56,0.3-0.62c-2.76-0.37-5.58-0.28-8.36-0.28
						c-2.98,0-5.95-0.01-8.93-0.01c-2.87,0-5.74,0-8.61-0.02c-1.39-0.01-2.78-0.01-4.17-0.01c-1.43,0-2.95-0.14-4.35,0.16
						C140.6,188.48,139.9,189.22,140.39,189.36L140.39,189.36z"/>
				</g>
			</g>
			<g>
				<g>
					<path d="M136.29,214.31c1.03,0.62,2.73,0.3,3.9,0.3c1.56,0,3.13,0.02,4.69,0c3.05-0.03,6.09-0.06,9.14-0.06
						c2.96,0,5.91,0.01,8.87,0.02c2.71,0.01,5.43,0.1,8.11-0.33c0.22-0.04,0.81-0.73,0.39-0.8c-2.48-0.44-5.16-0.08-7.67-0.07
						c-3.13,0.01-6.26,0.02-9.39,0.02c-3.03,0-6.05-0.04-9.08-0.06c-1.48-0.01-2.96,0-4.44,0c-1.42,0-2.93-0.19-4.27,0.33
						C136.31,213.74,136.01,214.14,136.29,214.31L136.29,214.31z"/>
				</g>
			</g>
			<g>
				<g>
					<path d="M174.53,189.41c-0.63,1.97-0.77,4.2-1.1,6.24c-0.34,2.1-0.68,4.21-1.02,6.31c-0.33,2.05-0.66,4.11-0.99,6.16
						c-0.31,1.91-0.91,3.98-0.76,5.91c0.04,0.58,0.76-0.08,0.84-0.31c0.7-1.94,0.85-4.11,1.18-6.15c0.34-2.13,0.69-4.26,1.03-6.39
						c0.33-2.03,0.65-4.05,0.98-6.08c0.32-1.96,0.92-4.1,0.89-6.09C175.56,188.33,174.63,189.12,174.53,189.41L174.53,189.41z"/>
				</g>
			</g>
			<g>
				<g>
					<path d="M180.7,189.4c-0.71,4.22-1.39,8.44-2.07,12.66c-0.34,2.11-0.68,4.21-1.03,6.32c-0.32,1.91-0.87,3.93-0.73,5.87
						c0.03,0.41,0.54-0.06,0.6-0.22c0.73-2.03,0.91-4.27,1.24-6.39c0.32-2.02,0.64-4.04,0.96-6.07c0.67-4.13,1.33-8.26,1.96-12.4
						C181.74,188.48,180.77,188.96,180.7,189.4L180.7,189.4z"/>
				</g>
			</g>
			<g>
				<g>
					<path d="M181.05,189.36c1.24,0.34,2.68,0.16,3.95,0.16c1.39,0,2.78,0.01,4.17,0c2.96-0.02,5.92-0.02,8.87-0.02
						c2.9,0,5.79-0.01,8.69-0.01c2.96,0,5.93,0.07,8.88-0.28c0.23-0.03,0.72-0.56,0.3-0.62c-2.76-0.37-5.57-0.28-8.36-0.28
						c-2.98,0-5.95-0.01-8.93-0.01c-2.87,0-5.74,0-8.61-0.02c-1.39-0.01-2.78-0.01-4.17-0.01c-1.43,0-2.95-0.14-4.35,0.16
						C181.26,188.48,180.56,189.22,181.05,189.36L181.05,189.36z"/>
				</g>
			</g>
			<g>
				<g>
					<path d="M176.94,214.31c1.03,0.62,2.73,0.3,3.9,0.3c1.56,0,3.13,0.02,4.69,0c3.05-0.03,6.09-0.06,9.14-0.06
						c2.96,0,5.91,0.01,8.87,0.02c2.7,0.01,5.43,0.1,8.11-0.33c0.22-0.04,0.81-0.73,0.39-0.8c-2.48-0.44-5.15-0.08-7.67-0.07
						c-3.13,0.01-6.26,0.02-9.39,0.02c-3.03,0-6.05-0.04-9.08-0.06c-1.48-0.01-2.96,0-4.44,0c-1.42,0-2.93-0.19-4.27,0.33
						C176.97,213.74,176.67,214.14,176.94,214.31L176.94,214.31z"/>
				</g>
			</g>
			<g>
				<g>
					<path d="M215.19,189.41c-0.63,1.97-0.77,4.2-1.1,6.24c-0.34,2.1-0.68,4.21-1.02,6.31c-0.33,2.05-0.66,4.11-0.99,6.16
						c-0.31,1.91-0.91,3.98-0.77,5.91c0.04,0.58,0.76-0.08,0.84-0.31c0.7-1.94,0.85-4.12,1.18-6.15c0.34-2.13,0.69-4.26,1.03-6.39
						c0.33-2.03,0.65-4.05,0.98-6.08c0.32-1.97,0.92-4.1,0.89-6.09C216.22,188.33,215.28,189.12,215.19,189.41L215.19,189.41z"/>
				</g>
			</g>
			<g>
				<g>
					<path d="M221.35,189.4c-0.71,4.22-1.39,8.44-2.07,12.66c-0.34,2.11-0.69,4.21-1.03,6.32c-0.32,1.91-0.87,3.93-0.73,5.87
						c0.03,0.41,0.54-0.06,0.6-0.22c0.73-2.03,0.91-4.27,1.24-6.39c0.32-2.02,0.64-4.04,0.96-6.07c0.67-4.13,1.33-8.26,1.97-12.4
						C222.4,188.48,221.43,188.96,221.35,189.4L221.35,189.4z"/>
				</g>
			</g>
			<g>
				<g>
					<path d="M221.71,189.36c1.24,0.34,2.68,0.16,3.96,0.16c1.39,0,2.78,0.01,4.18,0c2.96-0.02,5.92-0.02,8.88-0.02
						c2.9,0,5.79-0.01,8.69-0.01c2.96,0,5.93,0.07,8.87-0.28c0.23-0.03,0.72-0.56,0.3-0.62c-2.76-0.37-5.57-0.28-8.36-0.28
						c-2.98,0-5.95-0.01-8.93-0.01c-2.87,0-5.74,0-8.61-0.02c-1.39-0.01-2.78-0.01-4.17-0.01c-1.43,0-2.95-0.14-4.35,0.16
						C221.91,188.48,221.21,189.22,221.71,189.36L221.71,189.36z"/>
				</g>
			</g>
			<g>
				<g>
					<path d="M217.6,214.31c1.03,0.62,2.73,0.3,3.9,0.3c1.56,0,3.13,0.02,4.69,0c3.05-0.03,6.09-0.06,9.14-0.06
						c2.96,0,5.91,0.01,8.87,0.02c2.7,0.01,5.43,0.1,8.11-0.33c0.22-0.04,0.81-0.73,0.39-0.8c-2.48-0.44-5.15-0.08-7.67-0.07
						c-3.13,0.01-6.26,0.02-9.39,0.02c-3.03,0-6.05-0.04-9.08-0.06c-1.48-0.01-2.96,0-4.44,0c-1.42,0-2.93-0.19-4.27,0.33
						C217.63,213.74,217.33,214.14,217.6,214.31L217.6,214.31z"/>
				</g>
			</g>
			<g>
				<g>
					<path d="M255.85,189.41c-0.63,1.97-0.77,4.2-1.1,6.24c-0.34,2.1-0.68,4.21-1.02,6.31c-0.33,2.05-0.66,4.11-0.99,6.16
						c-0.31,1.91-0.91,3.98-0.77,5.91c0.04,0.58,0.76-0.08,0.84-0.31c0.7-1.94,0.85-4.12,1.18-6.15c0.34-2.13,0.69-4.26,1.03-6.39
						c0.33-2.03,0.65-4.05,0.98-6.08c0.32-1.97,0.92-4.1,0.89-6.09C256.87,188.33,255.94,189.12,255.85,189.41L255.85,189.41z"/>
				</g>
			</g>
			<g>
				<g>
					<path d="M262.01,189.4c-0.71,4.22-1.39,8.44-2.07,12.66c-0.34,2.11-0.69,4.21-1.03,6.32c-0.32,1.91-0.87,3.93-0.73,5.87
						c0.03,0.41,0.54-0.06,0.6-0.22c0.73-2.03,0.91-4.27,1.24-6.39c0.32-2.02,0.64-4.04,0.96-6.07c0.67-4.13,1.33-8.26,1.97-12.4
						C263.06,188.48,262.09,188.96,262.01,189.4L262.01,189.4z"/>
				</g>
			</g>
			<g>
				<g>
					<path d="M262.37,189.36c1.24,0.34,2.68,0.16,3.95,0.16c1.39,0,2.78,0.01,4.17,0c2.96-0.02,5.92-0.02,8.88-0.02
						c2.9,0,5.79-0.01,8.69-0.01c2.96,0,5.93,0.07,8.87-0.28c0.23-0.03,0.72-0.56,0.3-0.62c-2.76-0.37-5.57-0.28-8.36-0.28
						c-2.98,0-5.95-0.01-8.93-0.01c-2.87,0-5.74,0-8.61-0.02c-1.39-0.01-2.78-0.01-4.17-0.01c-1.43,0-2.95-0.14-4.35,0.16
						C262.57,188.48,261.87,189.22,262.37,189.36L262.37,189.36z"/>
				</g>
			</g>
			<g>
				<g>
					<path d="M258.26,214.31c1.03,0.62,2.73,0.3,3.9,0.3c1.56,0,3.13,0.02,4.69,0c3.05-0.03,6.09-0.06,9.14-0.06
						c2.96,0,5.91,0.01,8.87,0.02c2.7,0.01,5.43,0.1,8.11-0.33c0.22-0.04,0.81-0.73,0.39-0.8c-2.48-0.44-5.15-0.08-7.67-0.07
						c-3.13,0.01-6.26,0.02-9.39,0.02c-3.03,0-6.05-0.04-9.08-0.06c-1.48-0.01-2.96,0-4.44,0c-1.42,0-2.93-0.19-4.27,0.33
						C258.29,213.74,257.99,214.14,258.26,214.31L258.26,214.31z"/>
				</g>
			</g>
			<g>
				<g>
					<path d="M296.51,189.41c-0.63,1.97-0.77,4.2-1.1,6.24c-0.34,2.1-0.68,4.21-1.02,6.31c-0.33,2.05-0.66,4.11-0.99,6.16
						c-0.31,1.91-0.91,3.98-0.76,5.91c0.04,0.58,0.76-0.08,0.84-0.31c0.7-1.94,0.85-4.12,1.18-6.15c0.34-2.13,0.69-4.26,1.03-6.39
						c0.33-2.03,0.65-4.05,0.98-6.08c0.32-1.96,0.92-4.1,0.89-6.09C297.53,188.33,296.6,189.12,296.51,189.41L296.51,189.41z"/>
				</g>
			</g>
			<g>
				<g>
					<path d="M53.64,220.92c-0.71,4.22-1.39,8.43-2.07,12.66c-0.34,2.11-0.68,4.21-1.03,6.32c-0.32,1.91-0.87,3.93-0.73,5.87
						c0.03,0.41,0.54-0.06,0.6-0.22c0.73-2.03,0.91-4.27,1.24-6.39c0.32-2.02,0.64-4.04,0.96-6.06c0.67-4.13,1.33-8.26,1.96-12.4
						C54.68,220,53.72,220.47,53.64,220.92L53.64,220.92z"/>
				</g>
			</g>
			<g>
				<g>
					<path d="M54,220.87c1.24,0.34,2.68,0.16,3.95,0.16c1.39,0,2.78,0.01,4.17,0c2.96-0.02,5.92-0.02,8.87-0.02
						c2.9,0,5.79-0.01,8.69-0.01c2.96,0,5.93,0.07,8.88-0.28c0.23-0.03,0.72-0.56,0.3-0.62c-2.76-0.37-5.58-0.28-8.36-0.28
						c-2.98,0-5.95-0.01-8.93-0.01c-2.87,0-5.74,0-8.61-0.02c-1.39-0.01-2.78-0.01-4.17-0.01c-1.43,0-2.95-0.14-4.35,0.16
						C54.2,220,53.5,220.74,54,220.87L54,220.87z"/>
				</g>
			</g>
			<g>
				<g>
					<path d="M49.89,245.82c1.03,0.62,2.73,0.3,3.9,0.3c1.56,0,3.13,0.02,4.69,0c3.05-0.03,6.09-0.06,9.14-0.06
						c2.96,0,5.91,0.01,8.87,0.02c2.7,0.01,5.43,0.1,8.11-0.33c0.22-0.04,0.81-0.73,0.39-0.8c-2.48-0.44-5.16-0.09-7.67-0.08
						c-3.13,0.01-6.26,0.02-9.39,0.02c-3.03,0-6.05-0.04-9.08-0.06c-1.48-0.01-2.96,0-4.44,0c-1.42,0-2.93-0.19-4.27,0.33
						C49.92,245.25,49.62,245.66,49.89,245.82L49.89,245.82z"/>
				</g>
			</g>
			<g>
				<g>
					<path d="M88.14,220.93c-0.63,1.97-0.77,4.2-1.1,6.24c-0.34,2.1-0.68,4.21-1.02,6.31c-0.33,2.05-0.66,4.11-0.99,6.16
						c-0.31,1.91-0.91,3.98-0.77,5.91c0.04,0.58,0.76-0.08,0.84-0.31c0.7-1.94,0.85-4.12,1.18-6.15c0.34-2.13,0.69-4.26,1.03-6.39
						c0.33-2.03,0.65-4.05,0.98-6.08c0.32-1.97,0.92-4.1,0.89-6.09C89.16,219.85,88.23,220.64,88.14,220.93L88.14,220.93z"/>
				</g>
			</g>
			<g>
				<g>
					<path d="M94.3,220.92c-0.71,4.22-1.39,8.43-2.07,12.66c-0.34,2.11-0.68,4.21-1.03,6.32c-0.32,1.91-0.87,3.93-0.73,5.87
						c0.03,0.41,0.54-0.06,0.6-0.22c0.73-2.03,0.91-4.27,1.24-6.39c0.32-2.02,0.64-4.04,0.96-6.06c0.67-4.13,1.33-8.26,1.97-12.4
						C95.34,220,94.37,220.47,94.3,220.92L94.3,220.92z"/>
				</g>
			</g>
			<g>
				<g>
					<path d="M94.66,220.87c1.24,0.34,2.68,0.16,3.96,0.16c1.39,0,2.78,0.01,4.18,0c2.96-0.02,5.92-0.02,8.87-0.02
						c2.9,0,5.79-0.01,8.69-0.01c2.96,0,5.93,0.07,8.88-0.28c0.23-0.03,0.72-0.56,0.3-0.62c-2.76-0.37-5.58-0.28-8.36-0.28
						c-2.98,0-5.95-0.01-8.93-0.01c-2.87,0-5.74,0-8.61-0.02c-1.39-0.01-2.78-0.01-4.17-0.01c-1.43,0-2.95-0.14-4.35,0.16
						C94.86,220,94.16,220.74,94.66,220.87L94.66,220.87z"/>
				</g>
			</g>
			<g>
				<g>
					<path d="M90.55,245.82c1.03,0.62,2.73,0.3,3.9,0.3c1.56,0,3.13,0.02,4.69,0c3.05-0.03,6.09-0.06,9.14-0.06
						c2.96,0,5.91,0.01,8.87,0.02c2.7,0.01,5.43,0.1,8.11-0.33c0.22-0.04,0.81-0.73,0.39-0.8c-2.48-0.44-5.15-0.09-7.67-0.08
						c-3.13,0.01-6.26,0.02-9.39,0.02c-3.03,0-6.05-0.04-9.08-0.06c-1.48-0.01-2.96,0-4.44,0c-1.42,0-2.93-0.19-4.27,0.33
						C90.58,245.25,90.27,245.66,90.55,245.82L90.55,245.82z"/>
				</g>
			</g>
			<g>
				<g>
					<path d="M128.8,220.93c-0.63,1.97-0.77,4.2-1.1,6.24c-0.34,2.1-0.68,4.21-1.02,6.31c-0.33,2.05-0.66,4.11-0.99,6.16
						c-0.31,1.91-0.91,3.98-0.76,5.91c0.04,0.58,0.76-0.08,0.84-0.31c0.7-1.94,0.85-4.12,1.18-6.15c0.34-2.13,0.69-4.26,1.03-6.39
						c0.33-2.03,0.65-4.05,0.98-6.08c0.32-1.97,0.92-4.1,0.89-6.09C129.82,219.85,128.89,220.64,128.8,220.93L128.8,220.93z"/>
				</g>
			</g>
			<g>
				<g>
					<path d="M134.96,220.92c-0.71,4.22-1.39,8.43-2.07,12.66c-0.34,2.11-0.68,4.21-1.03,6.32c-0.32,1.91-0.87,3.93-0.73,5.87
						c0.03,0.41,0.54-0.06,0.6-0.22c0.73-2.03,0.91-4.27,1.24-6.39c0.32-2.02,0.64-4.04,0.96-6.06c0.67-4.13,1.33-8.26,1.97-12.4
						C136,220,135.03,220.47,134.96,220.92L134.96,220.92z"/>
				</g>
			</g>
			<g>
				<g>
					<path d="M135.31,220.87c1.24,0.34,2.68,0.16,3.95,0.16c1.39,0,2.78,0.01,4.17,0c2.96-0.02,5.92-0.02,8.87-0.02
						c2.9,0,5.79-0.01,8.69-0.01c2.96,0,5.93,0.07,8.88-0.28c0.23-0.03,0.72-0.56,0.3-0.62c-2.76-0.37-5.58-0.28-8.36-0.28
						c-2.98,0-5.95-0.01-8.93-0.01c-2.87,0-5.74,0-8.61-0.02c-1.39-0.01-2.78-0.01-4.17-0.01c-1.43,0-2.95-0.14-4.35,0.16
						C135.52,220,134.82,220.74,135.31,220.87L135.31,220.87z"/>
				</g>
			</g>
			<g>
				<g>
					<path d="M131.21,245.82c1.03,0.62,2.73,0.3,3.9,0.3c1.56,0,3.13,0.02,4.69,0c3.05-0.03,6.09-0.06,9.14-0.06
						c2.96,0,5.91,0.01,8.87,0.02c2.7,0.01,5.43,0.1,8.11-0.33c0.22-0.04,0.81-0.73,0.39-0.8c-2.48-0.44-5.16-0.09-7.67-0.08
						c-3.13,0.01-6.26,0.02-9.39,0.02c-3.03,0-6.05-0.04-9.08-0.06c-1.48-0.01-2.96,0-4.44,0c-1.42,0-2.93-0.19-4.27,0.33
						C131.23,245.25,130.93,245.66,131.21,245.82L131.21,245.82z"/>
				</g>
			</g>
			<g>
				<g>
					<path d="M169.46,220.93c-0.63,1.97-0.77,4.2-1.1,6.24c-0.34,2.1-0.68,4.21-1.02,6.31c-0.33,2.05-0.66,4.11-0.99,6.16
						c-0.31,1.91-0.91,3.98-0.77,5.91c0.04,0.58,0.76-0.08,0.84-0.31c0.7-1.94,0.85-4.12,1.18-6.15c0.34-2.13,0.69-4.26,1.03-6.39
						c0.33-2.03,0.65-4.05,0.98-6.08c0.32-1.97,0.92-4.1,0.89-6.09C170.48,219.85,169.55,220.64,169.46,220.93L169.46,220.93z"/>
				</g>
			</g>
			<g>
				<g>
					<path d="M175.62,220.92c-0.71,4.22-1.39,8.43-2.07,12.66c-0.34,2.11-0.68,4.21-1.03,6.32c-0.32,1.91-0.87,3.93-0.73,5.87
						c0.03,0.41,0.54-0.06,0.6-0.22c0.73-2.03,0.91-4.27,1.24-6.39c0.32-2.02,0.64-4.04,0.96-6.06c0.67-4.13,1.33-8.26,1.96-12.4
						C176.66,220,175.69,220.47,175.62,220.92L175.62,220.92z"/>
				</g>
			</g>
			<g>
				<g>
					<path d="M175.97,220.87c1.24,0.34,2.68,0.16,3.96,0.16c1.39,0,2.78,0.01,4.18,0c2.96-0.02,5.92-0.02,8.87-0.02
						c2.9,0,5.79-0.01,8.69-0.01c2.96,0,5.93,0.07,8.88-0.28c0.23-0.03,0.72-0.56,0.3-0.62c-2.76-0.37-5.58-0.28-8.36-0.28
						c-2.98,0-5.95-0.01-8.93-0.01c-2.87,0-5.74,0-8.61-0.02c-1.39-0.01-2.78-0.01-4.17-0.01c-1.43,0-2.95-0.14-4.35,0.16
						C176.18,220,175.48,220.74,175.97,220.87L175.97,220.87z"/>
				</g>
			</g>
			<g>
				<g>
					<path d="M171.86,245.82c1.03,0.62,2.73,0.3,3.9,0.3c1.56,0,3.13,0.02,4.69,0c3.05-0.03,6.09-0.06,9.14-0.06
						c2.96,0,5.91,0.01,8.87,0.02c2.7,0.01,5.43,0.1,8.11-0.33c0.22-0.04,0.81-0.73,0.39-0.8c-2.48-0.44-5.15-0.09-7.67-0.08
						c-3.13,0.01-6.26,0.02-9.39,0.02c-3.03,0-6.05-0.04-9.08-0.06c-1.48-0.01-2.96,0-4.44,0c-1.42,0-2.93-0.19-4.27,0.33
						C171.89,245.25,171.59,245.66,171.86,245.82L171.86,245.82z"/>
				</g>
			</g>
			<g>
				<g>
					<path d="M210.11,220.93c-0.63,1.97-0.77,4.2-1.1,6.24c-0.34,2.1-0.68,4.21-1.02,6.31c-0.33,2.05-0.66,4.11-0.99,6.16
						c-0.31,1.91-0.91,3.98-0.76,5.91c0.04,0.58,0.76-0.08,0.84-0.31c0.7-1.94,0.85-4.12,1.18-6.15c0.34-2.13,0.69-4.26,1.03-6.39
						c0.33-2.03,0.65-4.05,0.98-6.08c0.32-1.97,0.92-4.1,0.89-6.09C211.14,219.85,210.21,220.64,210.11,220.93L210.11,220.93z"/>
				</g>
			</g>
			<g>
				<g>
					<path d="M216.27,220.92c-0.71,4.22-1.39,8.43-2.07,12.66c-0.34,2.11-0.68,4.21-1.03,6.32c-0.32,1.91-0.87,3.93-0.73,5.87
						c0.03,0.41,0.54-0.06,0.6-0.22c0.73-2.03,0.91-4.27,1.24-6.39c0.32-2.02,0.64-4.04,0.96-6.06c0.67-4.13,1.33-8.26,1.96-12.4
						C217.32,220,216.35,220.47,216.27,220.92L216.27,220.92z"/>
				</g>
			</g>
			<g>
				<g>
					<path d="M216.63,220.87c1.24,0.34,2.68,0.16,3.95,0.16c1.39,0,2.78,0.01,4.17,0c2.96-0.02,5.92-0.02,8.87-0.02
						c2.9,0,5.79-0.01,8.69-0.01c2.96,0,5.93,0.07,8.88-0.28c0.23-0.03,0.72-0.56,0.3-0.62c-2.76-0.37-5.58-0.28-8.36-0.28
						c-2.98,0-5.95-0.01-8.93-0.01c-2.87,0-5.74,0-8.61-0.02c-1.39-0.01-2.78-0.01-4.17-0.01c-1.43,0-2.95-0.14-4.35,0.16
						C216.84,220,216.13,220.74,216.63,220.87L216.63,220.87z"/>
				</g>
			</g>
			<g>
				<g>
					<path d="M212.52,245.82c1.03,0.62,2.73,0.3,3.9,0.3c1.56,0,3.13,0.02,4.69,0c3.05-0.03,6.09-0.06,9.14-0.06
						c2.96,0,5.91,0.01,8.87,0.02c2.7,0.01,5.43,0.1,8.11-0.33c0.22-0.04,0.81-0.73,0.39-0.8c-2.48-0.44-5.16-0.09-7.67-0.08
						c-3.13,0.01-6.26,0.02-9.39,0.02c-3.03,0-6.05-0.04-9.08-0.06c-1.48-0.01-2.96,0-4.44,0c-1.42,0-2.93-0.19-4.27,0.33
						C212.55,245.25,212.25,245.66,212.52,245.82L212.52,245.82z"/>
				</g>
			</g>
			<g>
				<g>
					<path d="M250.77,220.93c-0.63,1.97-0.77,4.2-1.1,6.24c-0.34,2.1-0.68,4.21-1.02,6.31c-0.33,2.05-0.66,4.11-0.99,6.16
						c-0.31,1.91-0.91,3.98-0.76,5.91c0.04,0.58,0.76-0.08,0.84-0.31c0.7-1.94,0.85-4.12,1.17-6.15c0.34-2.13,0.69-4.26,1.03-6.39
						c0.33-2.03,0.65-4.05,0.98-6.08c0.32-1.97,0.92-4.1,0.89-6.09C251.79,219.85,250.86,220.64,250.77,220.93L250.77,220.93z"/>
				</g>
			</g>
			<g>
				<g>
					<path d="M256.93,220.92c-0.71,4.22-1.4,8.43-2.07,12.66c-0.34,2.11-0.68,4.21-1.03,6.32c-0.32,1.91-0.87,3.93-0.73,5.87
						c0.03,0.41,0.54-0.06,0.6-0.22c0.73-2.03,0.91-4.27,1.24-6.39c0.32-2.02,0.64-4.04,0.96-6.06c0.67-4.13,1.33-8.26,1.97-12.4
						C257.98,220,257.01,220.48,256.93,220.92L256.93,220.92z"/>
				</g>
			</g>
			<g>
				<g>
					<path d="M257.29,220.87c1.24,0.34,2.68,0.16,3.95,0.16c1.39,0,2.78,0.01,4.17,0c2.96-0.02,5.92-0.02,8.88-0.02
						c2.9,0,5.79-0.01,8.69-0.01c2.96,0,5.93,0.07,8.87-0.28c0.23-0.03,0.72-0.56,0.3-0.62c-2.76-0.37-5.57-0.28-8.36-0.28
						c-2.98,0-5.95-0.01-8.93-0.01c-2.87,0-5.74,0-8.61-0.02c-1.39-0.01-2.78-0.01-4.17-0.01c-1.43,0-2.95-0.14-4.35,0.16
						C257.49,220,256.79,220.74,257.29,220.87L257.29,220.87z"/>
				</g>
			</g>
			<g>
				<g>
					<path d="M253.18,245.82c1.03,0.62,2.73,0.3,3.9,0.3c1.56,0,3.13,0.02,4.69,0c3.05-0.03,6.09-0.06,9.14-0.06
						c2.96,0,5.91,0.01,8.87,0.02c2.7,0.01,5.43,0.1,8.11-0.33c0.22-0.04,0.81-0.73,0.39-0.8c-2.48-0.44-5.15-0.09-7.67-0.08
						c-3.13,0.01-6.26,0.02-9.39,0.02c-3.03,0-6.05-0.04-9.08-0.06c-1.48-0.01-2.96,0-4.44,0c-1.42,0-2.93-0.19-4.27,0.33
						C253.21,245.25,252.91,245.66,253.18,245.82L253.18,245.82z"/>
				</g>
			</g>
			<g>
				<g>
					<path d="M291.43,220.93c-0.63,1.97-0.77,4.2-1.1,6.24c-0.34,2.1-0.68,4.21-1.02,6.31c-0.33,2.05-0.66,4.11-0.99,6.16
						c-0.31,1.91-0.91,3.98-0.77,5.91c0.04,0.58,0.76-0.08,0.84-0.31c0.7-1.94,0.85-4.11,1.18-6.15c0.34-2.13,0.69-4.26,1.03-6.39
						c0.33-2.03,0.65-4.05,0.98-6.08c0.32-1.97,0.92-4.1,0.89-6.09C292.45,219.85,291.52,220.64,291.43,220.93L291.43,220.93z"/>
				</g>
			</g>
			<g>
				<g>
					<path d="M48.56,252.44c-0.71,4.22-1.39,8.43-2.07,12.65c-0.34,2.11-0.68,4.21-1.03,6.32c-0.32,1.91-0.87,3.93-0.73,5.87
						c0.03,0.41,0.54-0.06,0.6-0.22c0.73-2.03,0.91-4.27,1.24-6.39c0.32-2.02,0.64-4.04,0.96-6.07c0.67-4.13,1.33-8.26,1.97-12.4
						C49.61,251.51,48.64,251.99,48.56,252.44L48.56,252.44z"/>
				</g>
			</g>
			<g>
				<g>
					<path d="M48.92,252.39c1.24,0.34,2.68,0.16,3.96,0.16c1.39,0,2.78,0.01,4.18,0c2.96-0.02,5.92-0.02,8.87-0.02
						c2.89,0,5.79-0.01,8.68-0.01c2.96,0,5.93,0.07,8.88-0.28c0.23-0.03,0.72-0.56,0.3-0.62c-2.76-0.37-5.58-0.28-8.36-0.28
						c-2.98,0-5.95-0.01-8.93-0.01c-2.87,0-5.74,0-8.61-0.02c-1.39-0.01-2.78-0.01-4.17-0.01c-1.43,0-2.95-0.14-4.35,0.16
						C49.12,251.52,48.42,252.26,48.92,252.39L48.92,252.39z"/>
				</g>
			</g>
			<g>
				<g>
					<path d="M44.81,277.34c1.03,0.62,2.73,0.3,3.9,0.3c1.56,0,3.13,0.02,4.69,0c3.05-0.03,6.09-0.06,9.14-0.06
						c2.96,0,5.91,0.01,8.87,0.02c2.7,0.01,5.43,0.1,8.11-0.33c0.22-0.04,0.81-0.73,0.39-0.8c-2.48-0.44-5.15-0.09-7.67-0.08
						c-3.13,0.01-6.26,0.02-9.39,0.02c-3.03,0-6.05-0.04-9.08-0.06c-1.48-0.01-2.96,0-4.44,0c-1.42,0-2.93-0.19-4.27,0.33
						C44.84,276.77,44.54,277.17,44.81,277.34L44.81,277.34z"/>
				</g>
			</g>
			<g>
				<g>
					<path d="M83.06,252.45c-0.63,1.97-0.77,4.2-1.1,6.24c-0.34,2.1-0.68,4.21-1.02,6.31c-0.33,2.05-0.66,4.11-0.99,6.16
						c-0.31,1.91-0.91,3.98-0.76,5.91c0.04,0.58,0.76-0.08,0.84-0.31c0.7-1.94,0.85-4.12,1.18-6.15c0.34-2.13,0.69-4.26,1.03-6.39
						c0.33-2.03,0.65-4.05,0.98-6.08c0.32-1.96,0.92-4.1,0.89-6.08C84.08,251.37,83.15,252.16,83.06,252.45L83.06,252.45z"/>
				</g>
			</g>
			<g>
				<g>
					<path d="M89.22,252.44c-0.71,4.22-1.39,8.43-2.07,12.65c-0.34,2.11-0.68,4.21-1.03,6.32c-0.32,1.91-0.87,3.93-0.73,5.87
						c0.03,0.41,0.54-0.06,0.6-0.22c0.73-2.03,0.91-4.27,1.24-6.39c0.32-2.02,0.64-4.04,0.96-6.07c0.67-4.13,1.33-8.26,1.97-12.4
						C90.26,251.51,89.29,251.99,89.22,252.44L89.22,252.44z"/>
				</g>
			</g>
			<g>
				<g>
					<path d="M89.58,252.39c1.24,0.34,2.68,0.16,3.95,0.16c1.39,0,2.78,0.01,4.18,0c2.96-0.02,5.92-0.02,8.87-0.02
						c2.9,0,5.79-0.01,8.69-0.01c2.96,0,5.93,0.07,8.88-0.28c0.23-0.03,0.72-0.56,0.3-0.62c-2.76-0.37-5.58-0.28-8.36-0.28
						c-2.98,0-5.95-0.01-8.93-0.01c-2.87,0-5.74,0-8.61-0.02c-1.39-0.01-2.78-0.01-4.17-0.01c-1.43,0-2.95-0.14-4.35,0.16
						C89.78,251.52,89.08,252.26,89.58,252.39L89.58,252.39z"/>
				</g>
			</g>
			<g>
				<g>
					<path d="M85.47,277.34c1.03,0.62,2.73,0.3,3.9,0.3c1.56,0,3.13,0.02,4.69,0c3.05-0.03,6.09-0.06,9.14-0.06
						c2.96,0,5.91,0.01,8.87,0.02c2.7,0.01,5.43,0.1,8.11-0.33c0.22-0.04,0.81-0.73,0.39-0.8c-2.48-0.44-5.15-0.09-7.67-0.08
						c-3.13,0.01-6.26,0.02-9.39,0.02c-3.03,0-6.05-0.04-9.08-0.06c-1.48-0.01-2.96,0-4.44,0c-1.42,0-2.93-0.19-4.27,0.33
						C85.5,276.77,85.2,277.17,85.47,277.34L85.47,277.34z"/>
				</g>
			</g>
			<g>
				<g>
					<path d="M123.72,252.45c-0.63,1.97-0.77,4.2-1.1,6.24c-0.34,2.1-0.68,4.21-1.02,6.31c-0.33,2.05-0.66,4.11-0.99,6.16
						c-0.31,1.91-0.91,3.98-0.76,5.91c0.04,0.58,0.76-0.08,0.84-0.31c0.7-1.94,0.85-4.12,1.18-6.15c0.34-2.13,0.69-4.26,1.03-6.39
						c0.33-2.03,0.65-4.05,0.98-6.08c0.32-1.96,0.92-4.1,0.89-6.08C124.74,251.37,123.81,252.16,123.72,252.45L123.72,252.45z"/>
				</g>
			</g>
			<g>
				<g>
					<path d="M129.88,252.44c-0.71,4.22-1.39,8.43-2.07,12.65c-0.34,2.11-0.68,4.21-1.03,6.32c-0.32,1.91-0.87,3.93-0.73,5.87
						c0.03,0.41,0.54-0.06,0.6-0.22c0.73-2.03,0.91-4.27,1.24-6.39c0.32-2.02,0.64-4.04,0.96-6.07c0.67-4.13,1.33-8.26,1.96-12.4
						C130.92,251.51,129.95,251.99,129.88,252.44L129.88,252.44z"/>
				</g>
			</g>
			<g>
				<g>
					<path d="M130.23,252.39c1.24,0.34,2.68,0.16,3.95,0.16c1.39,0,2.78,0.01,4.18,0c2.96-0.02,5.92-0.02,8.87-0.02
						c2.9,0,5.79-0.01,8.69-0.01c2.96,0,5.93,0.07,8.88-0.28c0.23-0.03,0.72-0.56,0.3-0.62c-2.76-0.37-5.58-0.28-8.36-0.28
						c-2.98,0-5.95-0.01-8.93-0.01c-2.87,0-5.74,0-8.61-0.02c-1.39-0.01-2.78-0.01-4.17-0.01c-1.43,0-2.95-0.14-4.35,0.16
						C130.44,251.52,129.74,252.26,130.23,252.39L130.23,252.39z"/>
				</g>
			</g>
			<g>
				<g>
					<path d="M126.13,277.34c1.03,0.62,2.73,0.3,3.9,0.3c1.56,0,3.13,0.02,4.69,0c3.05-0.03,6.09-0.06,9.14-0.06
						c2.96,0,5.91,0.01,8.87,0.02c2.7,0.01,5.43,0.1,8.11-0.33c0.22-0.04,0.81-0.73,0.39-0.8c-2.48-0.44-5.16-0.09-7.67-0.08
						c-3.13,0.01-6.26,0.02-9.39,0.02c-3.03,0-6.05-0.04-9.08-0.06c-1.48-0.01-2.96,0-4.44,0c-1.42,0-2.93-0.19-4.27,0.33
						C126.15,276.77,125.85,277.17,126.13,277.34L126.13,277.34z"/>
				</g>
			</g>
			<g>
				<g>
					<path d="M164.38,252.45c-0.63,1.97-0.77,4.2-1.1,6.24c-0.34,2.1-0.68,4.21-1.02,6.31c-0.33,2.05-0.66,4.11-0.99,6.16
						c-0.31,1.91-0.91,3.98-0.76,5.91c0.04,0.58,0.76-0.08,0.84-0.31c0.7-1.94,0.85-4.12,1.17-6.15c0.34-2.13,0.69-4.26,1.03-6.39
						c0.33-2.03,0.65-4.05,0.98-6.08c0.32-1.96,0.92-4.1,0.89-6.08C165.4,251.37,164.47,252.16,164.38,252.45L164.38,252.45z"/>
				</g>
			</g>
			<g>
				<g>
					<path d="M170.54,252.44c-0.71,4.22-1.39,8.43-2.07,12.65c-0.34,2.11-0.68,4.21-1.03,6.32c-0.32,1.91-0.87,3.93-0.73,5.87
						c0.03,0.41,0.54-0.06,0.6-0.22c0.73-2.03,0.91-4.27,1.24-6.39c0.32-2.02,0.64-4.04,0.96-6.07c0.67-4.13,1.33-8.26,1.96-12.4
						C171.58,251.51,170.61,251.99,170.54,252.44L170.54,252.44z"/>
				</g>
			</g>
			<g>
				<g>
					<path d="M170.89,252.39c1.24,0.34,2.68,0.16,3.96,0.16c1.39,0,2.78,0.01,4.18,0c2.96-0.02,5.92-0.02,8.87-0.02
						c2.9,0,5.79-0.01,8.69-0.01c2.96,0,5.93,0.07,8.88-0.28c0.23-0.03,0.72-0.56,0.3-0.62c-2.76-0.37-5.58-0.28-8.36-0.28
						c-2.98,0-5.95-0.01-8.93-0.01c-2.87,0-5.74,0-8.61-0.02c-1.39-0.01-2.78-0.01-4.17-0.01c-1.43,0-2.95-0.14-4.35,0.16
						C171.1,251.52,170.4,252.26,170.89,252.39L170.89,252.39z"/>
				</g>
			</g>
			<g>
				<g>
					<path d="M166.78,277.34c1.03,0.62,2.73,0.3,3.9,0.3c1.56,0,3.13,0.02,4.69,0c3.05-0.03,6.09-0.06,9.14-0.06
						c2.96,0,5.91,0.01,8.87,0.02c2.7,0.01,5.43,0.1,8.11-0.33c0.22-0.04,0.81-0.73,0.39-0.8c-2.48-0.44-5.16-0.09-7.67-0.08
						c-3.13,0.01-6.26,0.02-9.39,0.02c-3.03,0-6.05-0.04-9.08-0.06c-1.48-0.01-2.96,0-4.44,0c-1.42,0-2.93-0.19-4.27,0.33
						C166.81,276.77,166.51,277.17,166.78,277.34L166.78,277.34z"/>
				</g>
			</g>
			<g>
				<g>
					<path d="M205.03,252.45c-0.63,1.97-0.77,4.2-1.1,6.24c-0.34,2.1-0.68,4.21-1.02,6.31c-0.33,2.05-0.66,4.11-0.99,6.16
						c-0.31,1.91-0.91,3.98-0.76,5.91c0.04,0.58,0.76-0.08,0.84-0.31c0.7-1.94,0.85-4.12,1.18-6.15c0.34-2.13,0.69-4.26,1.03-6.39
						c0.33-2.03,0.65-4.05,0.98-6.08c0.32-1.96,0.92-4.1,0.89-6.08C206.06,251.37,205.13,252.16,205.03,252.45L205.03,252.45z"/>
				</g>
			</g>
			<g>
				<g>
					<path d="M211.2,252.44c-0.71,4.22-1.39,8.43-2.07,12.65c-0.34,2.11-0.69,4.21-1.03,6.32c-0.32,1.91-0.87,3.93-0.73,5.87
						c0.03,0.41,0.54-0.06,0.6-0.22c0.73-2.03,0.91-4.27,1.24-6.39c0.32-2.02,0.64-4.04,0.96-6.07c0.67-4.13,1.33-8.26,1.97-12.4
						C212.24,251.51,211.27,251.99,211.2,252.44L211.2,252.44z"/>
				</g>
			</g>
			<g>
				<g>
					<path d="M211.55,252.39c1.24,0.34,2.68,0.16,3.95,0.16c1.39,0,2.78,0.01,4.17,0c2.96-0.02,5.92-0.02,8.87-0.02
						c2.9,0,5.79-0.01,8.69-0.01c2.96,0,5.93,0.07,8.87-0.28c0.23-0.03,0.72-0.56,0.3-0.62c-2.76-0.37-5.57-0.28-8.36-0.28
						c-2.98,0-5.95-0.01-8.93-0.01c-2.87,0-5.74,0-8.61-0.02c-1.39-0.01-2.78-0.01-4.17-0.01c-1.43,0-2.95-0.14-4.35,0.16
						C211.76,251.52,211.05,252.26,211.55,252.39L211.55,252.39z"/>
				</g>
			</g>
			<g>
				<g>
					<path d="M207.44,277.34c1.03,0.62,2.73,0.3,3.9,0.3c1.56,0,3.13,0.02,4.69,0c3.05-0.03,6.09-0.06,9.14-0.06
						c2.96,0,5.91,0.01,8.87,0.02c2.7,0.01,5.43,0.1,8.11-0.33c0.22-0.04,0.81-0.73,0.39-0.8c-2.48-0.44-5.16-0.09-7.67-0.08
						c-3.13,0.01-6.26,0.02-9.39,0.02c-3.03,0-6.05-0.04-9.08-0.06c-1.48-0.01-2.96,0-4.44,0c-1.42,0-2.93-0.19-4.27,0.33
						C207.47,276.77,207.17,277.17,207.44,277.34L207.44,277.34z"/>
				</g>
			</g>
			<g>
				<g>
					<path d="M245.69,252.45c-0.63,1.97-0.77,4.2-1.1,6.24c-0.34,2.1-0.68,4.21-1.02,6.31c-0.33,2.05-0.66,4.11-0.99,6.16
						c-0.31,1.91-0.91,3.98-0.76,5.91c0.04,0.58,0.76-0.08,0.84-0.31c0.7-1.94,0.85-4.12,1.17-6.15c0.34-2.13,0.69-4.26,1.03-6.39
						c0.33-2.03,0.65-4.05,0.98-6.08c0.32-1.96,0.92-4.09,0.89-6.08C246.72,251.37,245.79,252.16,245.69,252.45L245.69,252.45z"/>
				</g>
			</g>
			<g>
				<g>
					<path d="M85.06,112.44c0.26,3.39,1.39,6.83,3.97,9.17c1.96,1.78,4.41,2.93,7,3.38c5.28,0.92,10.86-0.87,14.98-4.21
						c2.48-2.01,4.46-4.57,5.69-7.52c0.39-0.93-0.85-0.63-1.11-0.01c-2.53,6.05-8.57,10.25-15.1,10.7c-3.06,0.21-6.21-0.42-8.8-2.11
						c-3.45-2.25-5.11-5.95-5.42-9.98C86.21,111.11,85.02,111.89,85.06,112.44L85.06,112.44z"/>
				</g>
			</g>
			<g>
				<g>
					<path d="M259.23,112.44c0.26,3.4,1.39,6.83,3.97,9.17c1.96,1.78,4.4,2.93,7,3.38c5.28,0.92,10.86-0.87,14.98-4.21
						c2.48-2.01,4.46-4.57,5.69-7.52c0.39-0.93-0.85-0.63-1.11-0.01c-2.53,6.05-8.57,10.25-15.1,10.7c-3.06,0.21-6.21-0.42-8.8-2.11
						c-3.45-2.25-5.11-5.95-5.42-9.98C260.38,111.11,259.19,111.89,259.23,112.44L259.23,112.44z"/>
				</g>
			</g>
			<g>
				<g>
					<path d="M304.81,244.66c-1.33,5.08-1.94,10.4-2.77,15.58c-0.41,2.57-0.81,5.15-1.19,7.72c-0.35,2.38-0.95,4.85-0.84,7.26
						c0.01,0.29,0.39-0.04,0.43-0.16c0.85-2.52,1.14-5.25,1.6-7.87c0.45-2.58,0.88-5.17,1.3-7.75c0.8-4.97,1.9-10.02,2.17-15.05
						C305.52,243.96,304.86,244.44,304.81,244.66L304.81,244.66z"/>
				</g>
			</g>
			<g>
				<g>
					<path d="M264.79,285.21c3.12,0.32,6.3,0.2,9.43,0.23c1.56,0.01,3.11,0.02,4.67-0.02c1.51-0.04,3.13,0.06,4.61-0.32
						c0.14-0.04,0.55-0.44,0.26-0.54c-1.32-0.44-2.92-0.28-4.3-0.32c-1.55-0.05-3.1-0.04-4.64-0.02c-3.21,0.03-6.45-0.07-9.65,0.23
						C264.86,284.46,264.27,285.16,264.79,285.21L264.79,285.21z"/>
				</g>
			</g>
			<g>
				<g>
					<path d="M285.6,285.25c3.22,0.36,7.18,0.35,10.2-1.04c2.35-1.08,4.19-3.75,4.14-6.39c-0.01-0.54-0.73,0.07-0.8,0.29
						c-0.4,1.28-0.52,2.55-1.34,3.68c-0.71,0.97-1.74,1.57-2.87,1.93c-2.88,0.92-6.06,0.58-9.02,0.89
						C285.66,284.64,285.16,285.21,285.6,285.25L285.6,285.25z"/>
				</g>
			</g>
			<g>
				<g>
					<path d="M225.62,179.92c0.82,0.56,2.01,0.31,2.97,0.32c1.31,0.01,2.63,0.01,3.94,0.01c2.47,0,4.94,0,7.41,0
						c2.47,0,4.94-0.01,7.41-0.01c2.39-0.01,4.79,0.12,7.15-0.28c0.19-0.03,0.73-0.64,0.35-0.72c-2.25-0.45-4.6-0.27-6.88-0.28
						c-2.47-0.01-4.93-0.01-7.4-0.01c-2.47,0-4.94,0-7.41,0c-1.32,0-2.64,0-3.95,0.01c-1.12,0.01-2.23-0.12-3.28,0.32
						C225.79,179.34,225.38,179.76,225.62,179.92L225.62,179.92z"/>
				</g>
			</g>
			<g>
				<g>
					<path d="M220.64,210.84c0.82,0.56,2.01,0.31,2.97,0.32c1.31,0.01,2.63,0.01,3.94,0.01c2.47,0,4.94,0,7.4,0
						c2.47,0,4.94-0.01,7.41-0.01c2.39-0.01,4.79,0.12,7.15-0.28c0.19-0.03,0.73-0.64,0.35-0.72c-2.25-0.45-4.6-0.27-6.88-0.28
						c-2.47-0.01-4.93-0.01-7.4-0.01c-2.47,0-4.94,0-7.4,0c-1.32,0-2.64,0-3.95,0.01c-1.12,0.01-2.23-0.12-3.28,0.32
						C220.81,210.26,220.39,210.68,220.64,210.84L220.64,210.84z"/>
				</g>
			</g>
			<g>
				<g>
					<path d="M215.54,242.44c0.82,0.56,2.01,0.31,2.97,0.32c1.31,0.01,2.63,0.01,3.94,0.01c2.47,0,4.94,0,7.41,0
						c2.47,0,4.94-0.01,7.41-0.01c2.39-0.01,4.79,0.12,7.15-0.28c0.19-0.03,0.73-0.64,0.35-0.72c-2.25-0.45-4.6-0.27-6.88-0.28
						c-2.47-0.01-4.93-0.01-7.4-0.01c-2.47,0-4.94,0-7.41,0c-1.32,0-2.64,0-3.95,0.01c-1.12,0.01-2.23-0.12-3.28,0.32
						C215.72,241.85,215.3,242.27,215.54,242.44L215.54,242.44z"/>
				</g>
			</g>
			<g>
				<g>
					<path d="M210.45,274.03c0.82,0.56,2.01,0.31,2.97,0.32c1.31,0.01,2.63,0.01,3.94,0.01c2.47,0,4.94,0,7.41,0
						c2.47,0,4.94-0.01,7.41-0.01c2.39-0.01,4.79,0.12,7.15-0.28c0.19-0.03,0.73-0.64,0.35-0.72c-2.25-0.45-4.59-0.27-6.88-0.28
						c-2.47-0.01-4.93-0.01-7.4-0.01c-2.47,0-4.94,0-7.41,0c-1.32,0-2.64,0-3.95,0.01c-1.12,0.01-2.23-0.12-3.28,0.32
						C210.62,273.44,210.21,273.87,210.45,274.03L210.45,274.03z"/>
				</g>
			</g>
			<g>
				<g>
					<path d="M38.25,285.79c17.74,0.03,35.49-0.02,53.23-0.09c5.12-0.02,10.24,0,15.35-0.17c0.31-0.01,0.81-0.71,0.35-0.72
						c-8.82-0.3-17.66-0.17-26.49-0.2c-8.86-0.03-17.72-0.05-26.57-0.05c-5.09,0-10.18,0-15.28,0
						C38.29,284.56,37.5,285.79,38.25,285.79L38.25,285.79z"/>
				</g>
			</g>
			<g>
				<g>
					<path d="M287.44,102.05c-5.56-6.57-7.15-16.63-4.71-24.76c1.09-3.66,3.16-7.21,6.44-9.31c3.86-2.46,9.1-2.52,13.06-0.26
						c5.04,2.89,7.25,8.44,7.83,13.94c0.07,0.71,0.99-0.11,1.04-0.5c0.65-5.17-2.19-10.99-6.33-14.03
						c-4.05-2.98-9.49-3.37-14.04-1.3c-8.4,3.81-11.28,14.29-10.39,22.78c0.57,5.4,2.55,10.29,6.31,14.24
						C286.97,103.18,287.74,102.41,287.44,102.05L287.44,102.05z"/>
				</g>
			</g>
			<g>
				<g>
					<path d="M279.01,119.98c-7.69-4.87-13.12-12.08-15.59-20.84c-2.43-8.61-2-17.95,0.82-26.41c2.97-8.94,9.17-16.13,18.04-19.59
						c8.75-3.41,19.41-3.01,27.53,1.88c9.32,5.62,14.17,16.01,13.44,26.73c-0.07,0.97,1.55-0.07,1.61-0.78
						c0.87-9.91-3.42-19.8-11.41-25.78c-7.92-5.92-18.61-7.17-28.01-4.49c-9.15,2.61-16.97,9.15-20.9,17.85
						c-3.89,8.62-5.12,18.5-3.45,27.81c1.83,10.2,7.58,20.04,16.99,24.91C278.64,121.56,279.64,120.38,279.01,119.98L279.01,119.98z
						"/>
				</g>
			</g>
			<g>
				<g>
					<path d="M112.97,101.68c-5.52-6.51-7.28-16.46-4.91-24.57c1.06-3.65,3.13-7.2,6.44-9.23c3.83-2.36,9.01-2.38,12.9-0.15
						c5.04,2.89,7.24,8.44,7.83,13.94c0.07,0.64,0.98,0,1.03-0.38c0.64-5.08-1.97-10.73-5.95-13.87c-4.03-3.19-9.56-3.7-14.23-1.67
						c-8.4,3.65-11.23,14.02-10.31,22.41c0.6,5.43,2.63,10.35,6.41,14.32C112.49,102.81,113.27,102.04,112.97,101.68L112.97,101.68z
						"/>
				</g>
			</g>
			<g>
				<g>
					<path d="M104.17,119.98c-7.69-4.87-13.12-12.08-15.59-20.84c-2.43-8.61-2-17.95,0.82-26.41c2.97-8.94,9.17-16.13,18.05-19.59
						c8.75-3.41,19.41-3.01,27.53,1.88c9.32,5.62,14.17,16.01,13.44,26.73c-0.07,0.97,1.55-0.07,1.61-0.78
						c0.87-9.91-3.42-19.8-11.42-25.78c-7.92-5.92-18.61-7.17-28.01-4.49c-9.15,2.61-16.97,9.15-20.9,17.85
						c-3.89,8.62-5.12,18.5-3.45,27.81c1.83,10.2,7.58,20.04,16.99,24.91C103.79,121.56,104.8,120.38,104.17,119.98L104.17,119.98z"
						/>
				</g>
			</g>
			<g>
				<g>
					<path d="M305.9,65.79c5.41,3.58,6.79,9.45,7.44,15.51c0.08,0.76,1.26-0.04,1.22-0.59c-0.42-6.16-2.45-12.39-8.03-15.66
						C306.23,64.89,305.61,65.59,305.9,65.79L305.9,65.79z"/>
				</g>
			</g>
			<g>
				<g>
					<path d="M264.92,95.87c2.16,9.65,9.89,17.06,17.29,23.08c0.52,0.43,1.64-0.74,1.14-1.14c-7.47-6.04-15.04-12.9-17.54-22.57
						C265.69,94.76,264.82,95.45,264.92,95.87L264.92,95.87z"/>
				</g>
			</g>
			<g>
				<g>
					<path d="M128.04,63.79c3.63,1.17,6.57,3.98,8.52,7.2c0.95,1.57,1.71,3.26,2.27,5.01c0.57,1.8,0.64,3.62,1.04,5.44
						c0.15,0.69,1.17-0.36,1.21-0.72c0.15-1.74-0.46-3.78-0.99-5.42c-0.62-1.93-1.49-3.78-2.58-5.48c-2.1-3.27-5.04-5.91-8.9-6.82
						C128.25,62.91,127.6,63.65,128.04,63.79L128.04,63.79z"/>
				</g>
			</g>
			<g>
				<g>
					<path d="M90.45,97.04c0.94,4.45,3.78,8.76,6.48,12.36c2.83,3.78,6.19,7.13,9.92,10.02c0.56,0.43,1.72-0.79,1.19-1.19
						c-3.63-2.81-6.9-6.04-9.69-9.68c-1.41-1.84-2.68-3.79-3.84-5.8c-1.18-2.05-2.05-4.26-3.25-6.29
						C91.01,96.03,90.38,96.69,90.45,97.04L90.45,97.04z"/>
				</g>
			</g>
		</g>
	</g>
</g>
</svg>
