<?xml version="1.0" encoding="utf-8"?>
<!-- Generator: Adobe Illustrator 23.0.1, SVG Export Plug-In . SVG Version: 6.00 Build 0)  -->
<svg version="1.1" id="Capa_1" xmlns="http://www.w3.org/2000/svg" xmlns:xlink="http://www.w3.org/1999/xlink" x="0px" y="0px"
	 viewBox="0 0 419.29 455.29" style="enable-background:new 0 0 419.29 455.29;" xml:space="preserve">
<style type="text/css">
	.st0{fill:none;}
	.st1{fill:#FFFFFF;}
	.st2{fill:#E2EBF9;}
	.st3{fill:#FF914D;}
	.st4{fill:#FF8125;}
	.st5{fill:#434C54;}
	.st6{fill:#5DE1C0;}
	.st7{fill:#FFAA16;}
</style>
<path class="st0" d="M285.14,294.71c-27.88,5.35-94.27,8.59-108.99,0c-9.59-5.59-36.96-6.17-54.88-5.89v4.23
	c18.3-1.98,34.11-0.06,54.17,6.35c0.2,0.07,0.39,0.14,0.58,0.22c0.22,0.06,0.47,0.13,0.74,0.2c0.53,0.14,1.11,0.3,1.73,0.47
	c7.69,2.1,23.7,6.45,37.72,4.56c16.01-2.17,43.11-4.33,62.87-5.51c0.24-0.01,0.49-0.01,0.73,0.01c10.13,0.71,17.97,3.64,23.48,8.74
	v-9.84C299.17,294.99,293.42,293.12,285.14,294.71z"/>
<path class="st1" d="M377.07,275.99l-53.21,58.79c-0.7,0.78-1.6,1.34-2.6,1.64c-1.68,0.5-3.38,1.12-5.17,1.78
	c-2.7,0.99-5.49,2-8.47,2.68c-0.07,0.02-0.14,0.04-0.21,0.06c-25.36,6.09-53.46,10.03-80.63,13.84
	c-10.89,1.53-21.18,2.97-31.31,4.54c-0.29,0.04-0.58,0.07-0.87,0.07c-0.04,0-0.08,0-0.12,0c-7.52-0.16-12.9-5-13.38-12.04
	c-0.21-3.13,2.15-5.85,5.28-6.06c3.13-0.21,5.85,2.15,6.06,5.28c0.04,0.56,0.09,1.3,1.85,1.44c10.06-1.56,20.66-3.04,30.92-4.48
	c25.43-3.57,51.68-7.25,75.44-12.67c0.05-0.3,0.1-0.59,0.15-0.86c0.13-0.73,0.32-1.83,0.29-2.21c-1.84-10.91-8.33-16.04-21.69-17.06
	c-19.51,1.17-46.03,3.29-61.64,5.4c-16.31,2.21-33.82-2.57-42.23-4.86c-0.61-0.17-1.17-0.32-1.69-0.46
	c-1.37-0.37-2.26-0.61-2.81-0.76c-0.65-0.18-1.21-0.4-1.7-0.64c-19.77-6.02-34.57-7.13-53.66-4.14c-5.97,0.94-13.16,2.23-20.77,3.61
	c-3.03,0.54-6.07,1.09-9.08,1.63v59.97c23.7,3.99,70.48,12.23,94.87,19.03c9.98,2.78,20.54,2.62,30.43-0.46
	c36.51-11.4,97.86-28.19,119.75-39.24c4.65-0.76,22.53-19.39,22.53-19.39c10.39-18.61,23.21-37.8,35.5-56.43
	c-1.31-0.46-2.88-0.81-4.57-0.84C381.28,273.05,378.86,274.04,377.07,275.99z"/>
<path class="st2" d="M330.84,349.79c-21.89,11.05-83.24,27.84-119.75,39.24c-9.89,3.09-20.45,3.25-30.43,0.46
	c-24.39-6.8-71.17-15.04-94.87-19.03v32.19c23.77,3.99,71.49,12.37,96.39,19.32c8.94,2.49,18.35,2.35,27.21-0.42
	c9.18-2.87,19.86-6.05,31.16-9.42c33.64-10.03,71.76-21.41,87.72-29.46c0.41-0.2,0.83-0.36,1.27-0.46
	c2.74-1.25,11.96-9.76,19.22-17.27c9.64-17.18,21.29-34.84,32.57-51.92c4.66-7.05,9.47-14.35,13.96-21.34
	c3.76-5.85-1.28-13.85-2.84-15.67c-0.46-0.54-1.78-1.4-3.59-2.03c-12.29,18.63-25.11,37.82-35.5,56.43
	C353.37,330.39,335.48,349.02,330.84,349.79z"/>
<rect x="31.38" y="300.4" class="st3" width="11.79" height="115.96"/>
<path class="st4" d="M71.27,368.06v-60.88c1.03-0.16,2.09-0.33,3.16-0.51v-6.27H43.18v115.96h31.25v-9.84
	c-2.03-0.33-3.16-0.51-3.16-0.51V368.06z"/>
<path class="st4" d="M71.27,307.18v60.88c0,0,1.13,0.18,3.16,0.51v-61.9C73.36,306.84,72.3,307.02,71.27,307.18z"/>
<path class="st4" d="M71.27,406.01c0,0,1.13,0.18,3.16,0.51v-37.95c-2.03-0.33-3.16-0.51-3.16-0.51V406.01z"/>
<path class="st5" d="M401.1,268.61c-3.41-3.99-10.08-6.74-16.61-6.85c-6.2-0.1-11.83,2.22-15.82,6.58l-52.19,57.67
	c-0.61,0.2-1.2,0.41-1.8,0.61l-11.37-18.54c-5.51-5.1-13.35-8.03-23.48-8.74c-0.25-0.02-0.49-0.02-0.73-0.01
	c-19.76,1.18-46.86,3.34-62.87,5.51c-14.02,1.89-30.03-2.46-37.72-4.56c-0.63-0.17-1.21-0.33-1.73-0.47
	c-0.27-0.07-0.51-0.14-0.74-0.2c-0.19-0.08-0.38-0.16-0.58-0.22c-20.06-6.41-35.87-8.32-54.17-6.35l-11.37,1.62
	c-5.18,0.86-10.97,1.91-17.04,3c-2.37,0.43-4.77,0.86-7.14,1.28c-0.61-5.57-5.33-9.92-11.06-9.92H31.15
	c-6.14,0-11.13,4.99-11.13,11.13v116.43c0,6.14,4.99,11.13,11.13,11.13h43.51c6.14,0,11.13-5,11.13-11.13v-2.42
	c24.12,4.07,69.57,12.11,93.34,18.74c5.23,1.46,10.59,2.19,15.95,2.19c5.96,0,11.92-0.9,17.69-2.7c9.11-2.84,19.75-6.02,31.02-9.38
	c33.69-10.05,71.81-21.42,88.98-29.9c2.27-0.66,5.95-2.76,14.96-11.22c5.1-4.8,9.54-9.42,9.73-9.61c0.33-0.35,0.62-0.74,0.86-1.17
	c9.5-17.02,21.19-34.72,32.49-51.85c4.67-7.09,9.51-14.41,14.03-21.46C411.53,287.42,406.26,274.66,401.1,268.61z M400.08,294.74
	c-15.29,23.81-33.09,49.21-46.71,73.6c0,0-17.89,18.63-22.53,19.39c-21.2,10.7-79.44,26.8-116.25,38.15
	c-1.19,0.37-2.35,0.73-3.49,1.08c-9.89,3.09-20.45,3.25-30.43,0.46c-26.53-7.4-79.57-16.5-100.55-19.98v9.14
	c0,3.01-2.44,5.45-5.45,5.45H43.18H31.15c-3.01,0-5.45-2.44-5.45-5.45V300.16c0-3.01,2.44-5.45,5.45-5.45h12.03h31.49
	c0.19,0,0.37,0.01,0.56,0.03c2.75,0.28,4.89,2.6,4.89,5.42v5.54c11.77-2.03,24.93-4.55,34.66-6.07c21.65-3.4,38.09-1.49,58.94,5.17
	c0,0-5.23-1.33,1.57,0.49c7.56,2.02,25.4,7.38,41.69,5.17c16.29-2.2,43.97-4.36,62.44-5.46c14.8,1.04,24.79,7.13,27.27,21.86
	c0.41,2.47-1.1,5.95-0.59,8.52c4.58-1,9.01-3.08,13.54-4.42l53.24-58.82c5.7-6.22,14.47-5.35,19.94-2.69c0,0,0,0,0,0
	c0.24,0.12,0.47,0.23,0.69,0.35c0.01,0.01,0.03,0.02,0.04,0.02c0.21,0.11,0.41,0.23,0.6,0.34c0.03,0.02,0.06,0.03,0.08,0.05
	c0.18,0.11,0.35,0.22,0.51,0.33c0.04,0.02,0.08,0.05,0.11,0.07c0.15,0.1,0.3,0.21,0.44,0.31c0.04,0.03,0.09,0.07,0.13,0.1
	c0.13,0.1,0.25,0.2,0.37,0.3c0.05,0.04,0.1,0.08,0.14,0.12c0.12,0.1,0.22,0.2,0.33,0.3c0.04,0.04,0.08,0.08,0.12,0.11
	c0.14,0.14,0.27,0.28,0.39,0.42C399.78,275.82,405.53,286.24,400.08,294.74z"/>
<path class="st5" d="M394.86,270.64c0.15,0.1,0.3,0.21,0.44,0.31C395.15,270.85,395.01,270.74,394.86,270.64z"/>
<path class="st5" d="M394.23,270.24c0.18,0.11,0.35,0.22,0.51,0.33C394.58,270.45,394.41,270.34,394.23,270.24z"/>
<path class="st5" d="M395.43,271.05c0.13,0.1,0.25,0.2,0.37,0.3C395.68,271.25,395.56,271.15,395.43,271.05z"/>
<path class="st5" d="M395.94,271.47c0.12,0.1,0.22,0.2,0.33,0.3C396.16,271.67,396.05,271.57,395.94,271.47z"/>
<path class="st5" d="M393.55,269.84c0.21,0.11,0.41,0.23,0.6,0.34C393.95,270.07,393.75,269.95,393.55,269.84z"/>
<path class="st5" d="M392.81,269.46c0.24,0.11,0.47,0.23,0.69,0.35C393.28,269.7,393.05,269.58,392.81,269.46z"/>
<path class="st5" d="M400.08,294.74c-15.29,23.81-33.09,49.21-46.71,73.6C366.99,343.95,384.79,318.55,400.08,294.74z"/>
<path class="st5" d="M396.39,271.89c0.14,0.14,0.27,0.28,0.39,0.42C396.66,272.17,396.53,272.03,396.39,271.89z"/>
<path class="st5" d="M85.8,370.45v-59.97c3.01-0.53,6.06-1.08,9.08-1.63c7.61-1.37,14.8-2.67,20.77-3.61
	c19.08-2.99,33.89-1.88,53.66,4.14c0.49,0.25,1.05,0.46,1.7,0.64c0.55,0.15,1.44,0.39,2.81,0.76c0.52,0.14,1.08,0.29,1.69,0.46
	c8.42,2.29,25.92,7.06,42.23,4.86c15.62-2.11,42.13-4.23,61.64-5.4c13.36,1.02,19.86,6.15,21.69,17.06
	c0.03,0.38-0.16,1.48-0.29,2.21c-0.05,0.28-0.1,0.57-0.15,0.86c-23.76,5.42-50.01,9.11-75.44,12.67
	c-10.26,1.44-20.87,2.92-30.92,4.48c-1.76-0.14-1.81-0.89-1.85-1.44c-0.22-3.13-2.93-5.49-6.06-5.28c-3.13,0.22-5.49,2.93-5.28,6.06
	c0.49,7.05,5.86,11.89,13.38,12.04c0.04,0,0.08,0,0.12,0c0.29,0,0.58-0.02,0.87-0.07c10.14-1.57,20.42-3.02,31.31-4.54
	c27.17-3.81,55.27-7.75,80.63-13.84c0.07-0.02,0.14-0.04,0.21-0.06c2.97-0.68,5.77-1.69,8.47-2.68c1.8-0.66,3.5-1.28,5.17-1.78
	c1-0.29,1.9-0.86,2.6-1.64l53.21-58.79c1.79-1.95,4.21-2.94,7.23-2.87c1.7,0.03,3.26,0.38,4.57,0.84c1.07-1.62,2.13-3.24,3.19-4.85
	c0.26,0.11,0.51,0.23,0.75,0.34c-5.47-2.65-14.24-3.53-19.94,2.69l-53.24,58.82c-4.53,1.34-8.96,3.42-13.54,4.42
	c-0.52-2.57,1-6.04,0.59-8.52c-2.48-14.73-12.47-20.83-27.27-21.86c-18.47,1.1-46.15,3.26-62.44,5.46
	c-16.29,2.21-34.14-3.15-41.69-5.17c-6.81-1.83-1.57-0.49-1.57-0.49c-20.85-6.66-37.29-8.57-58.94-5.17
	c-9.73,1.53-22.89,4.04-34.66,6.07v63.8C81.81,369.79,83.71,370.1,85.8,370.45z"/>
<path class="st5" d="M393.5,269.82c0.01,0.01,0.03,0.02,0.04,0.02C393.53,269.83,393.52,269.83,393.5,269.82z"/>
<path class="st5" d="M394.15,270.19c0.03,0.02,0.06,0.03,0.08,0.05C394.2,270.22,394.18,270.2,394.15,270.19z"/>
<path class="st5" d="M392.81,269.46C392.81,269.46,392.81,269.46,392.81,269.46C392.81,269.46,392.81,269.46,392.81,269.46z"/>
<path class="st5" d="M180.66,427.43c9.98,2.78,20.54,2.62,30.43-0.46C201.2,430.05,190.64,430.22,180.66,427.43z"/>
<path class="st5" d="M330.84,387.73c-21.2,10.7-79.44,26.8-116.25,38.15C251.39,414.53,309.63,398.44,330.84,387.73z"/>
<path class="st5" d="M394.75,270.57c0.04,0.02,0.08,0.05,0.11,0.07C394.82,270.62,394.78,270.59,394.75,270.57z"/>
<path class="st5" d="M395.29,270.95c0.04,0.03,0.09,0.07,0.13,0.1C395.39,271.02,395.34,270.99,395.29,270.95z"/>
<path class="st5" d="M395.8,271.35c0.05,0.04,0.1,0.08,0.14,0.12C395.89,271.43,395.85,271.39,395.8,271.35z"/>
<path class="st5" d="M396.27,271.78c0.04,0.04,0.08,0.08,0.12,0.11C396.35,271.85,396.31,271.81,396.27,271.78z"/>
<path class="st5" d="M396.39,271.89c-0.04-0.04-0.08-0.08-0.12-0.11c-0.11-0.1-0.21-0.2-0.33-0.3c-0.04-0.04-0.09-0.08-0.14-0.12
	c-0.12-0.1-0.24-0.2-0.37-0.3c-0.04-0.03-0.09-0.07-0.13-0.1c-0.14-0.11-0.29-0.21-0.44-0.31c-0.04-0.03-0.07-0.05-0.11-0.07
	c-0.17-0.11-0.34-0.22-0.51-0.33c-0.03-0.02-0.06-0.03-0.08-0.05c-0.19-0.12-0.39-0.23-0.6-0.34c-0.01-0.01-0.03-0.02-0.04-0.02
	c-0.22-0.12-0.45-0.24-0.69-0.35c0,0,0,0,0,0c-0.24-0.12-0.49-0.23-0.75-0.34c-1.06,1.61-2.12,3.23-3.19,4.85
	c1.81,0.64,3.13,1.49,3.59,2.03c1.55,1.82,6.59,9.82,2.84,15.67c-4.48,6.99-9.3,14.28-13.96,21.34
	c-11.27,17.08-22.93,34.74-32.57,51.92c-7.26,7.52-16.48,16.03-19.22,17.27c-0.44,0.1-0.87,0.26-1.27,0.46
	c-15.95,8.05-54.08,19.43-87.72,29.46c-11.3,3.37-21.98,6.56-31.16,9.42c-8.86,2.76-18.27,2.91-27.21,0.42
	c-24.91-6.95-72.63-15.33-96.39-19.32v-32.19c-2.08-0.35-3.99-0.67-5.69-0.95v37.95c20.98,3.48,74.02,12.58,100.55,19.98
	c9.98,2.78,20.54,2.62,30.43-0.46c1.14-0.36,2.31-0.72,3.49-1.08c36.81-11.36,95.05-27.45,116.25-38.15
	c4.65-0.76,22.53-19.39,22.53-19.39c13.62-24.39,31.42-49.79,46.71-73.6c5.46-8.5-0.3-18.92-3.3-22.43
	C396.66,272.17,396.53,272.03,396.39,271.89z"/>
<path class="st5" d="M31.38,416.36V300.4h11.79v-5.68H31.15c-3.01,0-5.45,2.44-5.45,5.45v116.43c0,3.01,2.44,5.45,5.45,5.45h12.03
	v-5.68H31.38z"/>
<path class="st5" d="M80.11,300.16c0-2.82-2.14-5.14-4.89-5.42C77.97,295.02,80.11,297.34,80.11,300.16z"/>
<path class="st5" d="M74.43,300.4v6.27c1.84-0.3,3.74-0.62,5.68-0.96v-5.54c0-2.82-2.14-5.14-4.89-5.42
	c-0.18-0.02-0.37-0.03-0.56-0.03H43.18v5.68H74.43z"/>
<path class="st5" d="M74.43,416.36H43.18v5.68h31.49c3.01,0,5.45-2.44,5.45-5.45v-9.14c-2.31-0.38-4.23-0.7-5.68-0.93V416.36z"/>
<path class="st5" d="M74.43,368.57c1.45,0.24,3.38,0.55,5.68,0.93v-63.8c-1.94,0.34-3.84,0.66-5.68,0.96V368.57z"/>
<path class="st5" d="M74.43,368.57v37.95c1.45,0.24,3.38,0.55,5.68,0.93V369.5C77.8,369.12,75.88,368.81,74.43,368.57z"/>
<path class="st4" d="M285.95,296.98h-32.46c-17.32,0-31.41-14.09-31.41-31.41v-1.97c0-2.28,1.85-4.14,4.14-4.14
	c2.29,0,4.14,1.85,4.14,4.14v1.97c0,12.76,10.38,23.13,23.13,23.13h32.46c12.75,0,23.13-10.38,23.13-23.13V102.24
	c0-16.2,13.18-29.39,29.39-29.39c16.21,0,29.39,13.18,29.39,29.39v12.81c0,2.28-1.85,4.14-4.14,4.14c-2.29,0-4.14-1.85-4.14-4.14
	v-12.81c0-11.64-9.47-21.11-21.11-21.11s-21.11,9.47-21.11,21.11v163.33C317.36,282.89,303.27,296.98,285.95,296.98z"/>
<path class="st6" d="M366.97,142.83h-6.17c-3.1,0-5.61-2.51-5.61-5.61v-16.55c0-3.1,2.51-5.61,5.61-5.61h6.17
	c3.1,0,5.61,2.51,5.61,5.61v16.55C372.59,140.32,370.07,142.83,366.97,142.83z"/>
<path class="st1" d="M260.42,37.12c-16.21-12.01-35.85-18.5-56.02-18.5h-28.31c-20.17,0-39.81,6.49-56.02,18.5
	c-6.41,4.75-10.2,12.27-10.2,20.25v149.45c0,9.6,5.73,18.27,14.56,22.03l20.59,8.77h0v8.35c0,1.98,1.6,3.58,3.58,3.58h12.08
	c1.98,0,3.58-1.6,3.58-3.58v-8.35h52.07v22.41c0,1.98,1.6,3.58,3.58,3.58h12.08c1.98,0,3.58-1.6,3.58-3.58v-22.45l20.49-8.73
	c8.83-3.76,14.56-12.43,14.56-22.03V57.37C270.62,49.39,266.83,41.88,260.42,37.12z"/>
<path class="st2" d="M260.42,37.12c-16.21-12.01-35.85-18.5-56.02-18.5h-27.04c20.17,0,39.81,6.49,56.02,18.5
	c6.41,4.75,10.2,12.27,10.2,20.25v149.45c0,9.6-5.73,18.27-14.56,22.03l-20.49,8.73v0.04h7.8v22.41c0,1.98,1.6,3.58,3.58,3.58h12.08
	c1.98,0,3.58-1.6,3.58-3.58v-22.45l20.49-8.73c8.83-3.76,14.56-12.43,14.56-22.03V57.37C270.62,49.39,266.83,41.88,260.42,37.12z"/>
<path class="st7" d="M167.4,221.71c-12.63,0-25.12-2.55-36.73-7.5c-2.97-1.27-4.89-4.17-4.89-7.39v-133c0-2.92,1.36-5.68,3.7-7.42
	c13.38-9.94,29.93-15.41,46.6-15.41h28.31c16.67,0,33.22,5.47,46.6,15.41c2.34,1.74,3.7,4.51,3.7,7.42v133.01
	c0,3.22-1.92,6.13-4.88,7.39h0c-11.61,4.95-24.11,7.5-36.73,7.5H167.4z"/>
<path class="st3" d="M251,66.39c-7.07-5.25-15.03-9.26-23.42-11.86v166.05c7.63-1.19,15.1-3.33,22.24-6.37h0
	c2.96-1.26,4.88-4.17,4.88-7.39V73.82C254.7,70.9,253.34,68.13,251,66.39z"/>
<path class="st1" d="M190.24,87.83c0,0-21.67,22.79-21.67,41.33c0,11.11,9.7,20.11,21.67,20.11c11.97,0,21.67-9,21.67-20.11
	C211.91,110.62,190.24,87.83,190.24,87.83z"/>
<g>
	<path class="st4" d="M228.88,195.57H151.6c-2.28,0-4.14-1.85-4.14-4.14s1.85-4.14,4.14-4.14h77.28c2.29,0,4.14,1.85,4.14,4.14
		S231.17,195.57,228.88,195.57z"/>
	<path class="st4" d="M228.88,179.73h-49.17c-2.29,0-4.14-1.85-4.14-4.14s1.85-4.14,4.14-4.14h49.17c2.29,0,4.14,1.85,4.14,4.14
		S231.17,179.73,228.88,179.73z"/>
	<path class="st4" d="M160.26,179.73h-8.66c-2.28,0-4.14-1.85-4.14-4.14s1.85-4.14,4.14-4.14h8.66c2.28,0,4.14,1.85,4.14,4.14
		S162.54,179.73,160.26,179.73z"/>
</g>
<path class="st5" d="M262.88,33.8c-16.8-12.46-37.57-19.31-58.48-19.31h-28.31c-20.91,0-41.68,6.86-58.48,19.31
	c-7.43,5.51-11.87,14.32-11.87,23.57v149.45c0,11.28,6.7,21.42,17.08,25.84l18.08,7.7v5.61c0,4.25,3.46,7.71,7.72,7.71h12.08
	c4.25,0,7.71-3.46,7.71-7.71v-4.21h43.79v18.27c0,4.25,3.46,7.72,7.72,7.72h12.08c4.25,0,7.72-3.46,7.72-7.72v-19.71l17.98-7.66
	c10.37-4.42,17.08-14.56,17.08-25.84V57.37C274.75,48.12,270.32,39.31,262.88,33.8z M199.57,22.76v1.28c0,2.29-1.86,4.16-4.16,4.16
	h-10.34c-2.29,0-4.16-1.86-4.16-4.16v-1.28H199.57z M266.48,206.82c0,7.96-4.73,15.11-12.05,18.23l-20.5,8.73
	c-1.53,0.65-2.52,2.15-2.52,3.81v21.89h-10.96v-21.85c0-2.28-1.85-4.14-4.14-4.14h-52.06c-2.28,0-4.14,1.85-4.14,4.14v7.79h-10.96
	v-7.79c0-1.75-1.09-3.24-2.62-3.85l-20.49-8.73c-7.32-3.12-12.05-10.27-12.05-18.23V57.37c0-6.64,3.19-12.97,8.52-16.93
	c14.46-10.72,32.14-16.91,50.11-17.62v1.21c0,6.85,5.58,12.43,12.43,12.43h10.34c6.86,0,12.43-5.58,12.43-12.43v-1.21
	c17.98,0.7,35.65,6.9,50.11,17.62c5.34,3.95,8.52,10.28,8.52,16.93V206.82z"/>
<path class="st5" d="M366.97,110.91h-6.17c-5.38,0-9.75,4.37-9.75,9.75v16.55c0,4.96,3.73,9.06,8.53,9.67v11.06
	c0,2.28,1.85,4.14,4.14,4.14c2.28,0,4.14-1.85,4.14-4.14v-11.02c4.96-0.45,8.87-4.63,8.87-9.71v-16.55
	C376.72,115.28,372.35,110.91,366.97,110.91z M368.45,137.22c0,0.81-0.66,1.47-1.47,1.47h-6.17c-0.81,0-1.47-0.66-1.47-1.47v-16.55
	c0-0.81,0.66-1.47,1.47-1.47h6.17c0.81,0,1.47,0.66,1.47,1.47V137.22z"/>
</svg>
