<?xml version="1.0" encoding="utf-8"?>
<!-- Generator: Adobe Illustrator 23.0.1, SVG Export Plug-In . SVG Version: 6.00 Build 0)  -->
<svg version="1.1" id="Layer_1" xmlns="http://www.w3.org/2000/svg" xmlns:xlink="http://www.w3.org/1999/xlink" x="0px" y="0px"
	 viewBox="0 0 512 512" style="enable-background:new 0 0 512 512;" xml:space="preserve">
<style type="text/css">
	.st0{fill:#E2EBF9;}
	.st1{fill:#434C54;}
	.st2{fill:#FF9052;}
</style>
<g id="Blood_test">
	<path class="st0" d="M184,24H40c-8.84,0-16,7.16-16,16s7.16,16,16,16h144c8.84,0,16-7.16,16-16S192.84,24,184,24z"/>
	<path class="st0" d="M48,424c0,35.35,28.65,64,64,64s64-28.65,64-64v-24v-48v-48v-48H48V424z"/>
	<path class="st0" d="M320,456c0,17.67,14.33,32,32,32s32-14.33,32-32V328h-64V456z"/>
	<path class="st0" d="M352,72c0,0-72,80.23-72,120c0,39.76,32.24,72,72,72s72-32.24,72-72C424,152.23,352,72,352,72z"/>
	<path class="st0" d="M304.44,287.28H304V328h96v-40.72h-0.44C368.92,298.91,335.08,298.91,304.44,287.28z"/>
	<g>
		<path class="st1" d="M184,16H40c-13.25,0-24,10.75-24,24s10.75,24,24,24v360c0,39.76,32.24,72,72,72s72-32.24,72-72V64
			c13.25,0,24-10.75,24-24S197.25,16,184,16z M168,144h-40v16h40v40h-40v16h40v32h-40v16h40v32h-40v16h40v32h-40v16h40v32h-40v16h40
			v16c0,30.93-25.07,56-56,56s-56-25.07-56-56V264h56v-16H56V64h112V144z M184,48H40c-4.42,0-8-3.58-8-8s3.58-8,8-8h144
			c4.42,0,8,3.58,8,8S188.42,48,184,48z"/>
		<path class="st1" d="M496,160c0-79.53-64.47-144-144-144c-79.53,0-144,64.47-144,144c0,57.89,34.67,110.15,88,132.67V336h16v120
			c0,22.09,17.91,40,40,40s40-17.91,40-40V336h16v-43.34C461.29,270.11,495.94,217.87,496,160z M376,456c0,13.25-10.75,24-24,24
			s-24-10.75-24-24V336h48V456z M392,320h-80v-21.77c26.11,7.69,53.89,7.69,80,0V320z M352,288c-70.69,0-128-57.31-128-128
			S281.31,32,352,32s128,57.31,128,128C479.92,230.66,422.66,287.92,352,288z"/>
		<path class="st2" d="M409.64,64l-8.26,13.7C430.2,95.13,447.86,126.32,448,160h16C463.84,120.71,443.25,84.34,409.64,64z"/>
		<path class="st2" d="M395.06,56.61c-5.58-2.33-11.34-4.2-17.22-5.6l-3.68,15.58c5.03,1.2,9.96,2.8,14.73,4.8L395.06,56.61z"/>
		<path class="st2" d="M360,144h-32v80h32c13.2,0.06,23.94-10.59,24-23.79c0.03-5.99-2.2-11.78-6.24-16.21
			c8.89-9.75,8.2-24.86-1.55-33.76C371.78,146.2,365.99,143.97,360,144z M344,160h16c4.42,0,8,3.58,8,8s-3.58,8-8,8h-16V160z
			 M360,208h-16v-16h16c4.42,0,8,3.58,8,8S364.42,208,360,208z"/>
		<path class="st1" d="M352,272c-44.16-0.05-79.95-35.84-80-80c0-41.6,66.47-116.9,74.05-125.34L352,60l5.95,6.63
			C365.53,75.1,432,150.4,432,192C431.95,236.16,396.16,271.95,352,272z M352,84.15c-22.18,25.94-64,80.47-64,107.85
			c0,35.35,28.65,64,64,64s64-28.65,64-64C416,164.62,374.18,110.1,352,84.15z"/>
	</g>
</g>
</svg>
