<?xml version="1.0" encoding="utf-8"?>
<!-- Generator: Adobe Illustrator 23.0.1, SVG Export Plug-In . SVG Version: 6.00 Build 0)  -->
<!DOCTYPE svg PUBLIC "-//W3C//DTD SVG 1.1//EN" "http://www.w3.org/Graphics/SVG/1.1/DTD/svg11.dtd" [
	<!ENTITY ns_extend "http://ns.adobe.com/Extensibility/1.0/">
	<!ENTITY ns_ai "http://ns.adobe.com/AdobeIllustrator/10.0/">
	<!ENTITY ns_graphs "http://ns.adobe.com/Graphs/1.0/">
	<!ENTITY ns_vars "http://ns.adobe.com/Variables/1.0/">
	<!ENTITY ns_imrep "http://ns.adobe.com/ImageReplacement/1.0/">
	<!ENTITY ns_sfw "http://ns.adobe.com/SaveForWeb/1.0/">
	<!ENTITY ns_custom "http://ns.adobe.com/GenericCustomNamespace/1.0/">
	<!ENTITY ns_adobe_xpath "http://ns.adobe.com/XPath/1.0/">
	<!ENTITY st0 "opacity:0.47;fill:#A2D5D2;enable-background:new    ;">
	<!ENTITY st1 "opacity:0.29;fill:#72BFC1;enable-background:new    ;">
	<!ENTITY st2 "fill:#A2D5D2;">
	<!ENTITY st3 "opacity:0.47;">
	<!ENTITY st4 "fill:#819897;">
	<!ENTITY st5 "fill:#4E69FF;">
	<!ENTITY st6 "fill:#17014C;">
	<!ENTITY st7 "fill:#FFB54A;">
	<!ENTITY st8 "opacity:0.62;fill:#72BFC1;enable-background:new    ;">
	<!ENTITY st9 "fill:#FFFFFF;">
	<!ENTITY st10 "fill:#FCF0E3;">
	<!ENTITY st11 "fill:#72BFC1;">
	<!ENTITY st12 "fill:#47ACB2;">
	<!ENTITY st13 "fill:url(#SVGID_1_);">
	<!ENTITY st14 "fill:#FEAD3A;">
	<!ENTITY st15 "fill:url(#SVGID_2_);">
	<!ENTITY st16 "fill:#EDF6FF;">
	<!ENTITY st17 "clip-path:url(#SVGID_4_);">
	<!ENTITY st18 "fill:url(#SVGID_6_);">
	<!ENTITY st19 "opacity:0.4;fill:#0073AA;enable-background:new    ;">
	<!ENTITY st20 "fill:url(#XMLID_2_);">
	<!ENTITY st21 "clip-path:url(#SVGID_8_);fill:#F0CAA4;">
	<!ENTITY st22 "fill:#475269;">
	<!ENTITY st23 "fill:url(#SVGID_9_);">
	<!ENTITY st24 "fill:none;stroke:#56627E;stroke-miterlimit:10;">
	<!ENTITY st25 "fill:url(#SVGID_10_);">
	<!ENTITY st26 "display:none;clip-path:url(#SVGID_12_);">
	<!ENTITY st27 "display:inline;">
	<!ENTITY st28 "fill:url(#SVGID_13_);">
	<!ENTITY st29 "fill:#D6400B;">
	<!ENTITY st30 "display:inline;fill:url(#SVGID_14_);">
	<!ENTITY st31 "fill:url(#XMLID_3_);">
	<!ENTITY st32 "clip-path:url(#SVGID_16_);fill:#F0CAA4;">
	<!ENTITY st33 "fill:url(#SVGID_17_);">
	<!ENTITY st34 "fill:#F0CAA4;">
	<!ENTITY st35 "fill:none;stroke:#56627E;stroke-width:0.75;stroke-miterlimit:10;">
	<!ENTITY st36 "fill:url(#SVGID_18_);">
	<!ENTITY st37 "fill:url(#SVGID_19_);">
	<!ENTITY st38 "fill:none;stroke:#8296BE;stroke-width:0.5;stroke-miterlimit:10;">
	<!ENTITY st39 "fill:none;stroke:#8296BE;stroke-width:0.5;stroke-miterlimit:10;stroke-dasharray:6.0532,6.0532;">
	<!ENTITY st40 "fill:url(#SVGID_20_);">
	<!ENTITY st41 "fill:#EDF7FF;">
	<!ENTITY st42 "fill:url(#SVGID_21_);">
	<!ENTITY st43 "fill:url(#SVGID_22_);">
	<!ENTITY st44 "fill:url(#SVGID_23_);">
	<!ENTITY st45 "fill:url(#SVGID_24_);">
	<!ENTITY st46 "fill:url(#SVGID_25_);">
	<!ENTITY st47 "fill:#8FA925;">
	<!ENTITY st48 "fill:url(#SVGID_26_);">
	<!ENTITY st49 "fill:none;stroke:#8296BE;stroke-miterlimit:10;">
]>
<svg version="1.1" id="Isolation_Mode" xmlns:x="&ns_extend;" xmlns:i="&ns_ai;" xmlns:graph="&ns_graphs;"
	 xmlns="http://www.w3.org/2000/svg" xmlns:xlink="http://www.w3.org/1999/xlink" x="0px" y="0px" width="698.8px" height="375.6px"
	 viewBox="0 0 698.8 375.6" style="enable-background:new 0 0 698.8 375.6;" xml:space="preserve">
<metadata>
	<sfw  xmlns="&ns_sfw;">
		<slices></slices>
		<sliceSourceBounds  bottomLeftOrigin="true" height="360.2" width="685.6" x="7.9" y="13.9"></sliceSourceBounds>
	</sfw>
</metadata>
<g>
	<g>
		<g>
			<path style="&st0;" d="M618.8,169.4c-2.7-27-15.8-54.1-38.5-73.4C545,65.8,491.6,58.2,444.8,65.2c-19.6,2.9-39,8.1-59.1,6.5
				C356.5,69.3,330.7,53,304,41.1c-36.3-16.2-77.9-25-116.4-17.9c-43.7,8-79.6,38.3-83.9,78.4c-1.9,18.2,17.8,50.2,11.5,67.5
				c-6.3,17.5-52.3,71.1-51.2,111.8c1.1,40.6,11.7,53.2,26.7,73.8h12h451.3h26c9.3-20.9,16.6-37.6,5.7-65.1
				c-8.7-21.9,15-40,24.2-60.4C618.1,211,620.8,189.2,618.8,169.4z"/>
		</g>
		<path style="&st1;" d="M12,173.5c-9.3-18.3-2.1-40.6,16.2-50s53.3-8.6,62.7,9.7s-18.8,33.9-30.3,50.9
			C44.6,207.8,21.4,191.7,12,173.5z"/>
		<path style="&st1;" d="M653.5,244.2c8.9,9.7,9.7,23.5,1.6,31c-8,7.4-27.4,10.7-36.3,1c-8.9-9.7,3.2-21.8,5.9-33
			C628.5,227.6,644.5,234.5,653.5,244.2z"/>
		<path style="&st1;" d="M578.2,26.3c10.4-5.5,23.2-1.5,28.7,8.9c5.5,10.4,5.3,30.4-5.1,35.9s-19.5-10.5-29.3-16.9
			C558.9,45.1,567.9,31.8,578.2,26.3z"/>
	</g>
	<g>
		<path style="&st2;" d="M564.8,330.8c4.8-23.7-2.9-43.9-4.8-67.2c-1.8-22,6-40.5,10.3-61.5c3.9-18.6,2.6-39.8-2.3-58.1
			c-6.6-25-21.8-48.2-43.8-62.3c-34.2-22-79.8-19.4-117.6-4.3c-15.8,6.3-31.1,14.8-48.1,16.9c-24.7,3.1-48.8-7.5-72.8-13.9
			c-32.8-8.7-68.7-9.3-99.7,4.4c-35.1,15.6-60,50.7-57.1,89.4c1.3,17.5,8.1,34.8,5.7,52.3c-2.4,17.7-12.9,32.4-18.5,49.1
			c-7.6,22.7-8.3,56.1,3.9,79.1h436.4C560.4,347.1,563.1,339.1,564.8,330.8z"/>
	</g>
	<g>
		<g>
			<g style="&st3;">
				<path style="&st2;" d="M483.7,256.5c-1.4-14.3-8.1-28.7-19.7-38.9c-18.1-16-45.4-20-69.4-16.3c-10,1.6-20,4.3-30.3,3.4
					c-15-1.3-28.2-9.9-41.9-16.2c-18.6-8.6-39.9-13.2-59.7-9.5c-22.4,4.2-40.8,20.3-43,41.6c-1,9.6,9.1,26.6,5.9,35.8
					c-3.2,9.3-26.8,37.6-26.2,59.2c0.6,21.5,6,28.2,13.7,39.1h6.1h231.2h13.3c4.8-11.1,8.5-19.9,2.9-34.5
					c-4.5-11.6,7.7-21.2,12.4-32C483.3,278.6,484.7,267,483.7,256.5z"/>
			</g>
		</g>
	</g>
</g>
<path style="&st4;" d="M687.4,357.8H37.3c-0.9,0-1.6-0.7-1.6-1.6l0,0c0-0.9,0.7-1.6,1.6-1.6h650.1c0.9,0,1.6,0.7,1.6,1.6l0,0
	C689,357.1,688.3,357.8,687.4,357.8z"/>
<circle style="&st1;" cx="662.6" cy="208.2" r="4.5"/>
<circle style="&st5;" cx="630.6" cy="333.2" r="3.5"/>
<circle style="&st1;" cx="87.6" cy="52.2" r="4.5"/>
<path style="&st6;" d="M45.3,320.1c0,2.6-2.1,4.8-4.8,4.8s-4.8-2.1-4.8-4.8c0-2.6,2.1-4.8,4.8-4.8S45.3,317.5,45.3,320.1z"/>
<circle style="&st6;" cx="58.6" cy="74.2" r="1.5"/>
<path style="&st1;" d="M442.1,16.1c-1.4,6.5-7.8,10.6-14.3,9.2c-6.5-1.4-10.6-7.8-9.2-14.3s7.8-10.6,14.3-9.2
	C439.4,3.3,443.5,9.6,442.1,16.1z"/>
<path style="&st7;" d="M631.6,34.1c-0.4,2-2.4,3.2-4.3,2.8c-2-0.4-3.2-2.4-2.8-4.3s2.4-3.2,4.3-2.8
	C630.8,30.2,632.1,32.2,631.6,34.1z"/>
<path style="&st7;" d="M161.8,10.9c-0.4,2-2.4,3.2-4.3,2.8s-3.2-2.4-2.8-4.3s2.4-3.2,4.3-2.8C160.9,7,162.2,8.9,161.8,10.9z"/>
<path style="&st1;" d="M661.7,116.3c-0.4,2-2.4,3.2-4.3,2.8c-2-0.4-3.2-2.4-2.8-4.3s2.4-3.2,4.3-2.8
	C660.9,112.4,662.1,114.3,661.7,116.3z"/>
<path style="&st8;" d="M399,27.6c-0.3,1.5-1.9,2.5-3.4,2.2s-2.5-1.9-2.2-3.4s1.9-2.5,3.4-2.2C398.4,24.5,399.4,26,399,27.6z"/>
<g>
	<path style="&st9;" d="M257.7,97.5L257.7,97.5c0-6.2-5.1-11.3-11.3-11.3l0,0c6.2,0,11.3-5.1,11.3-11.3l0,0
		c0,6.2,5.1,11.3,11.3,11.3l0,0C262.8,86.2,257.7,91.3,257.7,97.5z"/>
	<path style="&st9;" d="M390.4,154.3L390.4,154.3c0-4.6-3.7-8.3-8.3-8.3l0,0c4.6,0,8.3-3.7,8.3-8.3l0,0c0,4.6,3.7,8.3,8.3,8.3l0,0
		C394.1,146,390.4,149.7,390.4,154.3z"/>
	<path style="&st9;" d="M336.2,194.2L336.2,194.2c0-8.4-6.8-15.3-15.3-15.3l0,0c8.4,0,15.3-6.8,15.3-15.3l0,0
		c0,8.4,6.8,15.3,15.3,15.3l0,0C343,179,336.2,185.8,336.2,194.2z"/>
	<path style="&st10;" d="M388.8,76.6L388.8,76.6c0-7.9-6.4-14.3-14.3-14.3l0,0c7.9,0,14.3-6.4,14.3-14.3l0,0
		c0,7.9,6.4,14.3,14.3,14.3l0,0C395.2,62.3,388.8,68.7,388.8,76.6z"/>
	<path style="&st9;" d="M436.6,86.2L436.6,86.2c0-4.3-3.5-7.9-7.9-7.9l0,0c4.4,0,7.9-3.5,7.9-7.9l0,0c0,4.3,3.5,7.9,7.9,7.9l0,0
		C440.1,78.3,436.6,81.9,436.6,86.2z"/>
</g>
<g>
	<path style="&st11;" d="M195.1,59.9h-87.8c-9,0-16.3,7.3-16.3,16.4s7.3,16.3,16.3,16.3h72.4l9.9,9.1v-9.1h5.5
		c9,0,16.4-7.3,16.4-16.3C211.4,67.2,204.1,59.9,195.1,59.9z"/>
	<path style="&st7;" d="M115.2,74c1.1-0.9,1.9-2.4,1.9-4c0-2.9-2.3-5.2-5.2-5.2s-5.2,2.3-5.2,5.2c0,1.6,0.7,3,1.9,4
		c-3.7,1.3-6.3,4.9-6.3,9c0,5.3,19.2,5.3,19.2,0C121.5,78.9,118.8,75.4,115.2,74z"/>
	<g>
		<path style="&st9;" d="M196.1,68.7h-62.9c-0.3,0-0.5-0.2-0.5-0.5s0.2-0.5,0.5-0.5h62.9c0.3,0,0.5,0.2,0.5,0.5
			C196.6,68.5,196.4,68.7,196.1,68.7z"/>
		<path style="&st9;" d="M186.4,83.5h-53.2c-0.3,0-0.5-0.2-0.5-0.5s0.2-0.5,0.5-0.5h53.1c0.3,0,0.5,0.2,0.5,0.5
			C186.9,83.2,186.7,83.5,186.4,83.5z"/>
		<path style="&st9;" d="M171.9,76.6h-38.7c-0.3,0-0.5-0.2-0.5-0.5s0.2-0.5,0.5-0.5h38.7c0.3,0,0.5,0.2,0.5,0.5
			S172.2,76.6,171.9,76.6z"/>
		<path style="&st9;" d="M196.1,76.6h-19.4c-0.3,0-0.5-0.2-0.5-0.5s0.2-0.5,0.5-0.5h19.4c0.3,0,0.5,0.2,0.5,0.5
			S196.4,76.6,196.1,76.6z"/>
	</g>
	<path style="&st9;" d="M118.1,81.5c-0.4,0-0.8-0.2-1.1-0.4l-3.8-3.8c-0.6-0.6-0.6-1.5,0-2.1c0.6-0.6,1.5-0.6,2.1,0l2.7,2.7l7.3-7.3
		c0.6-0.6,1.5-0.6,2.1,0c0.6,0.6,0.6,1.5,0,2.1l-8.3,8.3C118.8,81.4,118.5,81.5,118.1,81.5z"/>
	<g>
		<path style="&st7;" d="M586.6,145.1h90.1c9.3,0,16.8,7.5,16.8,16.8c0,9.3-7.5,16.8-16.8,16.8h-74.2l-10.2,9.3v-9.3h-5.6
			c-9.3,0-16.8-7.5-16.8-16.8C569.9,152.6,577.4,145.1,586.6,145.1z"/>
		<g>
			<g>
				<g>
					<g>
						<path style="&st12;" d="M674.7,159.4c1.1-0.9,1.9-2.4,1.9-4c0-2.9-2.3-5.2-5.2-5.2s-5.2,2.3-5.2,5.2c0,1.6,0.7,3,1.9,4
							c-3.7,1.4-6.3,4.9-6.3,9c0,5.3,19.2,5.3,19.2,0C681,164.2,678.4,160.7,674.7,159.4z"/>
					</g>
					<g>
						<path style="&st9;" d="M682.6,162.3h-2.5v-2.5c0-0.3-0.2-0.5-0.5-0.5h-2.3c-0.3,0-0.5,0.2-0.5,0.5v2.5h-2.5
							c-0.3,0-0.5,0.2-0.5,0.5v2.3c0,0.3,0.2,0.5,0.5,0.5h2.5v2.5c0,0.3,0.2,0.5,0.5,0.5h2.3c0.3,0,0.5-0.2,0.5-0.5v-2.5h2.5
							c0.3,0,0.5-0.2,0.5-0.5v-2.3C683.1,162.5,682.9,162.3,682.6,162.3z"/>
					</g>
				</g>
			</g>
		</g>
		<g>
			<path style="&st9;" d="M653.9,155.1H591c-0.3,0-0.5-0.2-0.5-0.5s0.2-0.5,0.5-0.5h62.9c0.3,0,0.5,0.2,0.5,0.5
				C654.4,154.8,654.2,155.1,653.9,155.1z"/>
			<path style="&st9;" d="M644.2,169.8H591c-0.3,0-0.5-0.2-0.5-0.5s0.2-0.5,0.5-0.5h53.2c0.3,0,0.5,0.2,0.5,0.5
				C644.7,169.6,644.4,169.8,644.2,169.8z"/>
			<path style="&st9;" d="M629.7,162.9H591c-0.3,0-0.5-0.2-0.5-0.5s0.2-0.5,0.5-0.5h38.7c0.3,0,0.5,0.2,0.5,0.5
				S630,162.9,629.7,162.9z"/>
			<path style="&st9;" d="M653.9,162.9h-19.4c-0.3,0-0.5-0.2-0.5-0.5s0.2-0.5,0.5-0.5h19.4c0.3,0,0.5,0.2,0.5,0.5
				S654.2,162.9,653.9,162.9z"/>
		</g>
	</g>
	<g>
		
			<linearGradient id="SVGID_1_" gradientUnits="userSpaceOnUse" x1="461.84" y1="318.08" x2="547.02" y2="318.08" gradientTransform="matrix(1 0 0 -1 0 378)">
			<stop  offset="0" style="stop-color:#018C99"/>
			<stop  offset="0.2349" style="stop-color:#30A1AA"/>
			<stop  offset="0.6003" style="stop-color:#74C0C2"/>
			<stop  offset="0.8651" style="stop-color:#9FD4D1"/>
			<stop  offset="1" style="stop-color:#AFDBD7"/>
		</linearGradient>
		<path style="&st13;" d="M473.4,48.4h62.1c6.4,0,11.6,5.2,11.6,11.6s-5.2,11.6-11.6,11.6h-58.2h-3.9c-6.4,0-11.6-5.2-11.6-11.6
			S467,48.4,473.4,48.4z"/>
		<g>
			<path style="&st9;" d="M528.5,56.1h-48.1c-0.3,0-0.5-0.2-0.5-0.5s0.2-0.5,0.5-0.5h48.1c0.3,0,0.5,0.2,0.5,0.5
				S528.7,56.1,528.5,56.1z"/>
			<path style="&st9;" d="M521,64.8h-40.6c-0.3,0-0.5-0.2-0.5-0.5s0.2-0.5,0.5-0.5H521c0.3,0,0.5,0.2,0.5,0.5S521.3,64.8,521,64.8z"
				/>
			<path style="&st9;" d="M509.9,60.8h-29.6c-0.3,0-0.5-0.2-0.5-0.5s0.2-0.5,0.5-0.5h29.6c0.3,0,0.5,0.2,0.5,0.5
				C510.4,60.5,510.2,60.8,509.9,60.8z"/>
			<path style="&st9;" d="M528.5,60.8h-14.8c-0.3,0-0.5-0.2-0.5-0.5s0.2-0.5,0.5-0.5h14.8c0.3,0,0.5,0.2,0.5,0.5
				C529,60.5,528.7,60.8,528.5,60.8z"/>
		</g>
	</g>
	<g>
		<path style="&st7;" d="M52.8,212.2H108c5.7,0,10.3,4.6,10.3,10.3s-4.6,10.3-10.3,10.3H56.3h-3.5c-5.7,0-10.3-4.6-10.3-10.3
			C42.6,216.8,47.2,212.2,52.8,212.2z"/>
		<g>
			<path style="&st9;" d="M101.8,219.1H59c-0.3,0-0.5-0.2-0.5-0.5s0.2-0.5,0.5-0.5h42.8c0.3,0,0.5,0.2,0.5,0.5
				C102.3,218.9,102.1,219.1,101.8,219.1z"/>
			<path style="&st9;" d="M95.2,226.9H59c-0.3,0-0.5-0.2-0.5-0.5s0.2-0.5,0.5-0.5h36.1c0.3,0,0.5,0.2,0.5,0.5S95.4,226.9,95.2,226.9
				z"/>
			<path style="&st9;" d="M85.3,223.3H59c-0.3,0-0.5-0.2-0.5-0.5s0.2-0.5,0.5-0.5h26.3c0.3,0,0.5,0.2,0.5,0.5S85.6,223.3,85.3,223.3
				z"/>
			<path style="&st9;" d="M101.8,223.3H88.6c-0.3,0-0.5-0.2-0.5-0.5s0.2-0.5,0.5-0.5h13.2c0.3,0,0.5,0.2,0.5,0.5
				S102.1,223.3,101.8,223.3z"/>
		</g>
	</g>
</g>
<g>
	<g>
		<path style="&st9;" d="M460.6,267.8h-98c-0.3,0-0.5-0.2-0.5-0.5s0.2-0.5,0.5-0.5h98c0.3,0,0.5,0.2,0.5,0.5
			S460.9,267.8,460.6,267.8z"/>
		<path style="&st9;" d="M460.6,290.8h-82.8c-0.3,0-0.5-0.2-0.5-0.5s0.2-0.5,0.5-0.5h82.8c0.3,0,0.5,0.2,0.5,0.5
			S460.9,290.8,460.6,290.8z"/>
		<path style="&st9;" d="M460.6,280h-60.3c-0.3,0-0.5-0.2-0.5-0.5s0.2-0.5,0.5-0.5h60.3c0.3,0,0.5,0.2,0.5,0.5S460.9,280,460.6,280z
			"/>
		<path style="&st9;" d="M392.9,280h-30.3c-0.3,0-0.5-0.2-0.5-0.5s0.2-0.5,0.5-0.5h30.3c0.3,0,0.5,0.2,0.5,0.5S393.1,280,392.9,280z
			"/>
	</g>
	<g>
		<path style="&st9;" d="M349.8,304.2h-98c-0.3,0-0.5-0.2-0.5-0.5s0.2-0.5,0.5-0.5h98c0.3,0,0.5,0.2,0.5,0.5
			C350.3,304,350,304.2,349.8,304.2z"/>
		<path style="&st9;" d="M334.6,327.2h-82.8c-0.3,0-0.5-0.2-0.5-0.5s0.2-0.5,0.5-0.5h82.8c0.3,0,0.5,0.2,0.5,0.5
			S334.8,327.2,334.6,327.2z"/>
		<path style="&st9;" d="M312,316.5h-60.3c-0.3,0-0.5-0.2-0.5-0.5s0.2-0.5,0.5-0.5H312c0.3,0,0.5,0.2,0.5,0.5
			C312.5,316.2,312.3,316.5,312,316.5z"/>
		<path style="&st9;" d="M349.8,316.5h-30.3c-0.3,0-0.5-0.2-0.5-0.5s0.2-0.5,0.5-0.5h30.3c0.3,0,0.5,0.2,0.5,0.5
			C350.3,316.2,350,316.5,349.8,316.5z"/>
	</g>
</g>
<g>
	<path style="&st14;" d="M317,84.5c-0.2,0-0.4,0-0.6,0c-1.9,0-3.8,0-5.8,0c-0.1,0-0.2,0-0.2-0.2c0-0.3,0-0.7,0-1
		c0-0.1,0-0.2,0.1-0.2c1.5,0,2.9,0,4.4,0c0.6,0,1.1,0,1.7,0c0,0,0.1,0,0.1,0c0-0.1-0.1-0.2-0.1-0.3c-0.7-1.5-1.9-2.3-3.6-2.3
		c-0.8,0-1.7,0-2.5,0c-0.1,0-0.2,0-0.2-0.2c0-0.3,0-0.7,0-1c0-0.1,0-0.1,0.1-0.1c1.8,0,3.6,0,5.4,0c1.6,0,3.2,0,4.9,0
		c0.2,0,0.2,0,0.2,0.2c0,0.3,0,0.7,0,1c0,0.1,0,0.1-0.1,0.1c-1.4,0-2.7,0-4.1,0c0,0-0.1,0-0.2,0c0,0,0,0.1,0.1,0.1
		c0.7,0.7,1.2,1.5,1.5,2.4c0,0.1,0.1,0.1,0.2,0.1c0.8,0,1.7,0,2.5,0c0.1,0,0.2,0,0.2,0.2c0,0.3,0,0.7,0,1c0,0.1,0,0.1-0.1,0.1
		c-0.8,0-1.6,0-2.3,0c0,0-0.1,0-0.2,0c0,1.6-0.7,3-1.9,4c-1.2,1.1-2.7,1.3-4.3,1.2c0,0,0,0,0,0.1c2.4,2.2,4.7,4.3,7.1,6.5
		c-0.1,0-0.1,0-0.1,0c-0.6,0-1.1,0-1.7,0c-0.1,0-0.2,0-0.2-0.1c-1.9-1.8-3.9-3.6-5.8-5.3c-0.3-0.3-0.6-0.6-0.9-0.8
		c-0.1-0.1-0.1-0.1-0.1-0.2c0-0.4,0-0.9,0-1.3c0-0.1,0-0.1,0.1-0.1c0.8,0,1.6,0,2.4,0c1.5,0,2.6-0.6,3.4-1.8
		C316.8,86,317,85.3,317,84.5C317,84.6,317,84.5,317,84.5z"/>
</g>
<g>
	
		<linearGradient id="SVGID_2_" gradientUnits="userSpaceOnUse" x1="310.3982" y1="290.235" x2="320.94" y2="290.235" gradientTransform="matrix(1 0 0 -1 0 378)">
		<stop  offset="0.3081" style="stop-color:#FFA340"/>
		<stop  offset="1" style="stop-color:#FCD224"/>
	</linearGradient>
	<path style="&st15;" d="M317,84.5c-0.2,0-0.4,0-0.6,0c-1.9,0-3.8,0-5.8,0c-0.1,0-0.2,0-0.2-0.2c0-0.3,0-0.7,0-1
		c0-0.1,0-0.2,0.1-0.2c1.5,0,2.9,0,4.4,0c0.6,0,1.1,0,1.7,0c0,0,0.1,0,0.1,0c0-0.1-0.1-0.2-0.1-0.3c-0.7-1.5-1.9-2.3-3.6-2.3
		c-0.8,0-1.7,0-2.5,0c-0.1,0-0.2,0-0.2-0.2c0-0.3,0-0.7,0-1c0-0.1,0-0.1,0.1-0.1c1.8,0,3.6,0,5.4,0c1.6,0,3.2,0,4.9,0
		c0.2,0,0.2,0,0.2,0.2c0,0.3,0,0.7,0,1c0,0.1,0,0.1-0.1,0.1c-1.4,0-2.7,0-4.1,0c0,0-0.1,0-0.2,0c0,0,0,0.1,0.1,0.1
		c0.7,0.7,1.2,1.5,1.5,2.4c0,0.1,0.1,0.1,0.2,0.1c0.8,0,1.7,0,2.5,0c0.1,0,0.2,0,0.2,0.2c0,0.3,0,0.7,0,1c0,0.1,0,0.1-0.1,0.1
		c-0.8,0-1.6,0-2.3,0c0,0-0.1,0-0.2,0c0,1.6-0.7,3-1.9,4c-1.2,1.1-2.7,1.3-4.3,1.2c0,0,0,0,0,0.1c2.4,2.2,4.7,4.3,7.1,6.5
		c-0.1,0-0.1,0-0.1,0c-0.6,0-1.1,0-1.7,0c-0.1,0-0.2,0-0.2-0.1c-1.9-1.8-3.9-3.6-5.8-5.3c-0.3-0.3-0.6-0.6-0.9-0.8
		c-0.1-0.1-0.1-0.1-0.1-0.2c0-0.4,0-0.9,0-1.3c0-0.1,0-0.1,0.1-0.1c0.8,0,1.6,0,2.4,0c1.5,0,2.6-0.6,3.4-1.8
		C316.8,86,317,85.3,317,84.5C317,84.6,317,84.5,317,84.5z"/>
</g>
<g>
	<g>
		<g>
			<path id="SVGID_5_" style="&st16;" d="M500.4,271.5c0.8-20.4-4.1-40.4-10.7-59.5c-6.1-17.5-14.6-28.9-13.2-48.8
				c0.9-13.4,3.8-26.7,2.4-40C475.9,95.3,449,82,424.9,75c-64-18.7-135.7-9.9-193.8,23.8c-15,8.7-29.4,19.2-39.5,33.4
				c-10.1,14.1-15.5,32.4-11.4,49.2c5.2,20.9,23.5,35.5,33.6,54.5c10.2,19.3,11.4,42,17.1,63.1c5.6,21.1,18.6,43,39.9,47.5
				c17.9,3.8,35.7-5.9,53.6-10.2c28.3-6.8,57.6,0.1,86.6,1.5c29,1.5,61.9-4.6,78.3-28.8C496.7,298.1,499.8,284.7,500.4,271.5z"/>
		</g>
		<g>
			<defs>
				<path id="SVGID_3_" d="M500.4,271.5c0.8-20.4-4.1-40.4-10.7-59.5c-6.1-17.5-14.6-28.9-13.2-48.8c0.9-13.4,3.8-26.7,2.4-40
					C475.9,95.3,449,82,424.9,75c-64-18.7-135.7-9.9-193.8,23.8c-15,8.7-29.4,19.2-39.5,33.4c-10.1,14.1-15.5,32.4-11.4,49.2
					c5.2,20.9,23.5,35.5,33.6,54.5c10.2,19.3,11.4,42,17.1,63.1c5.6,21.1,18.6,43,39.9,47.5c17.9,3.8,35.7-5.9,53.6-10.2
					c28.3-6.8,57.6,0.1,86.6,1.5c29,1.5,61.9-4.6,78.3-28.8C496.7,298.1,499.8,284.7,500.4,271.5z"/>
			</defs>
			<clipPath id="SVGID_4_">
				<use xlink:href="#SVGID_3_"  style="overflow:visible;"/>
			</clipPath>
			<g style="&st17;">
				
					<linearGradient id="SVGID_6_" gradientUnits="userSpaceOnUse" x1="250.05" y1="82.99" x2="391.25" y2="82.99" gradientTransform="matrix(1 0 0 -1 0 378)">
					<stop  offset="0" style="stop-color:#8FA925"/>
					<stop  offset="0.306" style="stop-color:#8CA526"/>
					<stop  offset="0.6148" style="stop-color:#829929"/>
					<stop  offset="0.9239" style="stop-color:#71852F"/>
					<stop  offset="0.9946" style="stop-color:#6C7F30"/>
				</linearGradient>
				<path style="&st18;" d="M391.3,361.8l-1.6-64.2c0-46.2-31.8-69.4-78.1-69.4c-50.8,0-54.5,25.1-55.3,84.6l-6.2,49L391.3,361.8
					L391.3,361.8z"/>
				<path style="&st19;" d="M353.7,361.8v-65.3h-0.6c-15.8,27.4-39.6,50.1-68.6,65.3L353.7,361.8L353.7,361.8z"/>
				<g>
					<g>
						<g>
							<g>
								
									<linearGradient id="XMLID_2_" gradientUnits="userSpaceOnUse" x1="295.67" y1="159.5344" x2="331.87" y2="159.5344" gradientTransform="matrix(1 0 0 -1 0 378)">
									<stop  offset="1.610000e-02" style="stop-color:#F0CAA4"/>
									<stop  offset="0.3479" style="stop-color:#F0CEA8"/>
									<stop  offset="0.6496" style="stop-color:#F2D8B3"/>
									<stop  offset="0.9386" style="stop-color:#F4EAC5"/>
									<stop  offset="1" style="stop-color:#F5EFCA"/>
								</linearGradient>
								<path id="XMLID_83_" style="&st20;" d="M296.5,199.2l-0.9,36.9c0,9.4,1.3,12.2,12.9,13c8,0.5,20.9-2.9,20.9-12.3l2.4-48.9
									L296.5,199.2z"/>
							</g>
							<g>
								<defs>
									<path id="SVGID_7_" d="M296.5,199.2l-0.9,36.9c0,9.4,1.3,12.2,12.9,13c8,0.5,20.9-2.9,20.9-12.3l2.4-48.9L296.5,199.2z"/>
								</defs>
								<clipPath id="SVGID_8_">
									<use xlink:href="#SVGID_7_"  style="overflow:visible;"/>
								</clipPath>
								<path style="&st21;" d="M329,190c0,22.4-16.3,40.5-36.4,40.5c-20.1,0-36.4-18.1-36.4-40.5s16.3-40.5,36.4-40.5
									C312.7,149.5,329,167.6,329,190z"/>
							</g>
						</g>
						<g>
							<path style="&st22;" d="M325.8,146.1c-12.6-5.3-19.2,3.6-29.1,8.3c-3.8,1.8-10.6,4.4-15.4,4.6c-4.1,0.2-11.5-8-12-4
								c-1.3,13.6,9.9,17.1,13.6,26.9c2.8,7.4,4.2,25.7,4.2,25.7s30.5,3.4,36.8,3.1c5.5-0.3,8.4-3.8,8.4-3.8s13.6-12.5,14.8-28.2
								C348.5,161.3,343.3,153.4,325.8,146.1z"/>
							<g>
								
									<linearGradient id="SVGID_9_" gradientUnits="userSpaceOnUse" x1="293.2611" y1="200.2311" x2="328.0729" y2="165.4192" gradientTransform="matrix(1 0 0 -1 0 378)">
									<stop  offset="1.610000e-02" style="stop-color:#F0CAA4"/>
									<stop  offset="0.4933" style="stop-color:#F3DEB8"/>
									<stop  offset="1" style="stop-color:#F5EFCA"/>
								</linearGradient>
								<path style="&st23;" d="M327.5,167.4c-4,4-10.7,6.6-17.1,9.8c-8.3,4.2-16.8,6.8-23.4,6.8l-2.1,15.7
									c-0.7,17.9,6.9,23.8,19.3,25.6c7.4,0.4,23.8-6.9,25.6-19.3l2.6-18.9C334.8,176.4,332.5,173.4,327.5,167.4z"/>
								<g>
									<path style="&st22;" d="M299.6,187.8c-0.2,1.1-1.3,1.8-2.3,1.5c-1.1-0.2-1.8-1.3-1.5-2.3s1.3-1.8,2.3-1.5
										C299.1,185.7,299.8,186.8,299.6,187.8z"/>
									<path style="&st22;" d="M321.5,191c-0.2,1.1-1.3,1.8-2.3,1.5c-1.1-0.2-1.7-1.3-1.5-2.3c0.2-1.1,1.3-1.8,2.3-1.5
										C321,188.9,321.7,189.9,321.5,191z"/>
									<path style="&st9;" d="M304.2,209.1c-2.9-0.3-5.5-1.2-7.5-2.7c-0.1,0.3-0.1,0.6-0.1,0.9c-0.2,5.3,4.5,9.9,12,6.1
										c1.7-0.9,3.1-2.5,3.4-4.2c0.1-0.5,0.1-1,0.1-1.4C309.8,208.8,307.1,209.3,304.2,209.1z"/>
								</g>
							</g>
						</g>
					</g>
					<path style="&st24;" d="M307.8,184.4c-0.9,1.6-1.3,3.5-2.1,5.2c-1,2.1-2.3,4.2-3.4,6.3c-0.5,1-2,2.7-1.2,3.6
						c0.8,0.9,4,0.7,5,1.1"/>
				</g>
				
					<linearGradient id="SVGID_10_" gradientUnits="userSpaceOnUse" x1="268.1538" y1="212.7208" x2="327.5049" y2="212.7208" gradientTransform="matrix(1 0 0 -1 0 378)">
					<stop  offset="0" style="stop-color:#697A9C"/>
					<stop  offset="0.3377" style="stop-color:#677899"/>
					<stop  offset="0.58" style="stop-color:#617090"/>
					<stop  offset="0.7918" style="stop-color:#566480"/>
					<stop  offset="0.9863" style="stop-color:#48536A"/>
					<stop  offset="0.9946" style="stop-color:#475269"/>
				</linearGradient>
				<path style="&st25;" d="M294.5,150.6c-4.4,2.8-10.2,7.1-15.7,4.4c-4-2-8.9-5.8-10.4,1.1c-1,4.3,0.8,9.5,2.8,13.2
					c5.4,10.5,17.5,16.1,29,15c11.2-1,26-4.8,27.2-16.9c0.4-4.4-3.2-12.6-6-16.1C315,143.1,302.2,145.8,294.5,150.6z"/>
				<path style="&st24;" d="M317.3,182.9c1.7,0.7,5.9,0.5,7.7,0.4"/>
			</g>
		</g>
		<g>
			<defs>
				<path id="SVGID_11_" d="M500.4,271.5c0.8-20.4-4.1-40.4-10.7-59.5c-6.1-17.5-14.6-28.9-13.2-48.8c0.9-13.4,3.8-26.7,2.4-40
					C475.9,95.3,449,82,424.9,75c-64-18.7-135.7-9.9-193.8,23.8c-15,8.7-29.4,19.2-39.5,33.4c-10.1,14.1-15.5,32.4-11.4,49.2
					c5.2,20.9,23.5,35.5,33.6,54.5c10.2,19.3,11.4,42,17.1,63.1c5.6,21.1,18.6,43,39.9,47.5c17.9,3.8,35.7-5.9,53.6-10.2
					c28.3-6.8,57.6,0.1,86.6,1.5c29,1.5,61.9-4.6,78.3-28.8C496.7,298.1,499.8,284.7,500.4,271.5z"/>
			</defs>
			<clipPath id="SVGID_12_">
				<use xlink:href="#SVGID_11_"  style="overflow:visible;"/>
			</clipPath>
			<g style="&st26;">
				<g style="&st27;">
					
						<linearGradient id="SVGID_13_" gradientUnits="userSpaceOnUse" x1="377.72" y1="86.7942" x2="485.11" y2="86.7942" gradientTransform="matrix(1 0 0 -1 0 378)">
						<stop  offset="0" style="stop-color:#C8462D"/>
						<stop  offset="0.2506" style="stop-color:#D54E3C"/>
						<stop  offset="0.7051" style="stop-color:#E95953"/>
						<stop  offset="0.9946" style="stop-color:#F05D5B"/>
					</linearGradient>
					<path style="&st28;" d="M485.1,344.1l-4.4-43.1c0.4-19.4,8.7-62.4-49.4-63.4c-32.3-0.5-53.6,24-53.6,58.1v49.2L485.1,344.1z"/>
					<path style="&st29;" d="M485.1,344.1l-3.7-36.7c-10,17.3-30,27.2-48.3,36.8L485.1,344.1z"/>
				</g>
				
					<linearGradient id="SVGID_14_" gradientUnits="userSpaceOnUse" x1="391.25" y1="186.245" x2="460.05" y2="186.245" gradientTransform="matrix(1 0 0 -1 0 378)">
					<stop  offset="0" style="stop-color:#697A9C"/>
					<stop  offset="0.3038" style="stop-color:#5B6A88"/>
					<stop  offset="0.7258" style="stop-color:#4C5871"/>
					<stop  offset="0.9946" style="stop-color:#475269"/>
				</linearGradient>
				<path style="&st30;" d="M430.6,162.7c-2.7,0-5.3,0.2-7.9,0.6c-2.2-6.2-8.2-10.6-15.3-10.6c-8.9,0-16.2,7.1-16.2,15.8
					c0,4.9,2.3,9.2,5.8,12.1c-2.5,5.2-3.6,11.6-3,19.5c1.5,19.8,13.6,30.7,33.3,30.7s32.7-11.2,32.7-31.1
					C460,179.9,452.7,162.7,430.6,162.7z"/>
				<g style="&st27;">
					<g>
						<g>
							
								<linearGradient id="XMLID_3_" gradientUnits="userSpaceOnUse" x1="415.2769" y1="133.6095" x2="444.6337" y2="162.9663" gradientTransform="matrix(1 0 0 -1 0 378)">
								<stop  offset="0" style="stop-color:#F5EFCA"/>
								<stop  offset="6.140000e-02" style="stop-color:#F4EAC5"/>
								<stop  offset="0.3504" style="stop-color:#F2D8B3"/>
								<stop  offset="0.6521" style="stop-color:#F0CEA8"/>
								<stop  offset="0.9839" style="stop-color:#F0CAA4"/>
							</linearGradient>
							<path id="XMLID_84_" style="&st31;" d="M444.9,215.3l0.7,29.1c0,7.4-1,9.6-10.2,10.2c-6.3,0.4-16.5-2.3-16.5-9.7l-1.9-38.6
								L444.9,215.3z"/>
						</g>
						<g>
							<defs>
								<path id="SVGID_15_" d="M444.9,215.3l0.7,29.1c0,7.4-1,9.6-10.2,10.2c-6.3,0.4-16.5-2.3-16.5-9.7l-1.9-38.6L444.9,215.3z"/>
							</defs>
							<clipPath id="SVGID_16_">
								<use xlink:href="#SVGID_15_"  style="overflow:visible;"/>
							</clipPath>
							<path style="&st32;" d="M419.3,208c0,17.7,12.9,32,28.7,32s28.7-14.3,28.7-32c0-17.6-12.9-32-28.7-32
								C432.1,176.1,419.3,190.4,419.3,208z"/>
						</g>
					</g>
					<g>
						
							<linearGradient id="SVGID_17_" gradientUnits="userSpaceOnUse" x1="396.4757" y1="168.6979" x2="459.1012" y2="168.6979" gradientTransform="matrix(1 0 0 -1 0 378)">
							<stop  offset="0" style="stop-color:#F5EFCA"/>
							<stop  offset="0.5067" style="stop-color:#F3DEB8"/>
							<stop  offset="0.9839" style="stop-color:#F0CAA4"/>
						</linearGradient>
						<path style="&st33;" d="M459,204.3c-0.6-3.7-4.4-6.1-8.4-5.4c-0.4,0.1-0.7,0.2-1.1,0.3c-1.7-10.1-6.7-15.7-19.4-15.8
							c-12.6,0-23.7,9.6-23.2,23.2c-0.4-0.1-0.8-0.2-1.2-0.3c-4.4-0.7-8.5,2.1-9.1,6.1s2.5,7.8,6.9,8.4c2.5,0.4,5-0.4,6.7-1.8
							c5.9,11.3,18.1,15.7,23.8,16.1c9.5,0.7,15.7-8.8,16.2-22.9c0.8,0.1,1.7,0.1,2.6,0C456.8,211.5,459.6,208,459,204.3z"/>
						<path style="&st34;" d="M452.6,204.7c0.5,1.3,0.6,2.6,0.4,3.6c0,0,0,0,0,0c1.5-0.6,2.1-2.6,1.3-4.3c-0.8-1.8-2.6-2.7-4-2.1
							c0,0,0,0-0.1,0C451.1,202.4,452,203.4,452.6,204.7z"/>
						<path style="&st34;" d="M402.4,212.9c0.1-1.2,0.5-2.3,1.2-3c0,0,0,0,0,0c-1.4-0.1-2.7,1.2-2.8,2.9c-0.1,1.7,0.9,3.2,2.3,3.3
							c0,0,0,0,0.1,0C402.6,215.3,402.3,214.1,402.4,212.9z"/>
					</g>
					<g>
						<g>
							<path style="&st22;" d="M419.1,205.5c0.2,0.9,1.1,1.5,2,1.3c0.9-0.2,1.5-1.1,1.3-2s-1.1-1.5-2-1.3
								C419.5,203.7,418.9,204.6,419.1,205.5z"/>
							<path style="&st22;" d="M439.9,204.6c0.2,0.9,1.1,1.5,2,1.3c0.9-0.2,1.5-1.1,1.3-2s-1.1-1.5-2-1.3
								C440.3,202.8,439.7,203.7,439.9,204.6z"/>
							<path style="&st9;" d="M434.1,220.4c3-0.6,5.7-1.8,7.6-3.3c0.1,0.3,0.2,0.5,0.3,0.8c0.9,4.7-2.9,10.7-11.3,8.2
								c-1.9-0.6-4.2-3.1-4.8-4.6c-0.2-0.4-0.3-0.8-0.3-1.2C428.1,220.9,431.1,221,434.1,220.4z"/>
							<path style="&st22;" d="M418.2,201.9l-0.9-0.7c1.6-2.1,4.7-2.4,6.8-0.8l-0.7,0.9C421.8,200.1,419.5,200.4,418.2,201.9z"/>
							<path style="&st22;" d="M437.9,200.5l-0.9-0.7c2.8-3.6,6.6-0.9,6.8-0.8l-0.7,0.9C441.5,198.7,439.2,198.9,437.9,200.5z"/>
						</g>
						<path style="&st35;" d="M433.9,205.1c0.1,3.5,3.2,2.7,4.9,4.4c1.9,1.8-1.5,3.9-3,3.5"/>
					</g>
				</g>
			</g>
		</g>
	</g>
	<g>
		
			<linearGradient id="SVGID_18_" gradientUnits="userSpaceOnUse" x1="298.97" y1="27.28" x2="438.77" y2="27.28" gradientTransform="matrix(1 0 0 -1 0 378)">
			<stop  offset="5.376360e-03" style="stop-color:#BFCEED"/>
			<stop  offset="0.2227" style="stop-color:#BBCAE9"/>
			<stop  offset="0.4364" style="stop-color:#AFBFDE"/>
			<stop  offset="0.6485" style="stop-color:#9CABCC"/>
			<stop  offset="0.8585" style="stop-color:#8090B2"/>
			<stop  offset="1" style="stop-color:#697A9C"/>
		</linearGradient>
		<path style="&st36;" d="M299,350.7c0,2,1.5,3.6,3.2,3.6h133.4c1.8,0,3.2-1.6,3.2-3.6l0,0c0-2-1.4-3.6-3.2-3.6H302.2
			C300.4,347.1,299,348.7,299,350.7L299,350.7z"/>
		
			<linearGradient id="SVGID_19_" gradientUnits="userSpaceOnUse" x1="342.55" y1="60.295" x2="458.08" y2="60.295" gradientTransform="matrix(1 0 0 -1 0 378)">
			<stop  offset="2.000000e-08" style="stop-color:#D0E4F5"/>
			<stop  offset="0.2036" style="stop-color:#CDE0F5"/>
			<stop  offset="1" style="stop-color:#C6D6F6"/>
		</linearGradient>
		<path style="&st37;" d="M342.5,350.6c0,2,1.6,3.7,3.7,3.7h91.4c2,0,3.7-1.6,3.7-3.7l16.7-65.8c0-2-1.6-3.7-3.7-3.7H363
			c-2,0-3.7,1.6-3.7,3.7L342.5,350.6z"/>
		<polygon style="&st9;" points="412.1,311.4 406.2,300.1 399.7,311.4 		"/>
	</g>
	<path style="&st9;" d="M333.2,109.5c-1.3-7.5-8.2-13.2-16.5-13.2c-6.1,0-11.5,3.1-14.5,7.8c-2.1-1.1-4.5-1.8-7.1-1.8
		c-6.2,0-11.4,3.6-13.2,8.5c-1.6-1.1-3.6-1.8-5.8-1.8c-5.3,0-9.7,3.9-9.7,8.8s4.3,8.8,9.7,8.8c3.6,0,14.7,0,19,0
		c3.8,0,50.8,5.8,50.8-8.3C345.8,110.3,340.5,110.7,333.2,109.5z"/>
	<path style="&st9;" d="M382.3,122.9c1.1-6.5,7.1-11.5,14.4-11.5c5.4,0,10.1,2.7,12.6,6.8c1.8-1,4-1.5,6.2-1.5
		c5.4,0,10,3.1,11.5,7.4c1.4-1,3.2-1.6,5.1-1.6c4.7,0,8.4,3.4,8.4,7.7s-3.8,7.7-8.4,7.7c-3.1,0-12.8,0-16.6,0
		c-3.3,0-44.3,5-44.3-7.2C371.3,123.6,375.9,124,382.3,122.9z"/>
	<path style="&st9;" d="M381.7,216.6c-0.6-3.6-3.9-6.3-7.9-6.3c-2.9,0-5.5,1.5-6.9,3.7c-1-0.5-2.1-0.8-3.4-0.8c-2.9,0-5.4,1.7-6.3,4
		c-0.8-0.5-1.7-0.9-2.8-0.9c-2.5,0-4.6,1.9-4.6,4.2c0,2.3,2.1,4.2,4.6,4.2c1.7,0,7,0,9,0c1.8,0,24.1,2.7,24.1-3.9
		C387.8,217,385.2,217.2,381.7,216.6z"/>
	<path style="&st9;" d="M482.3,230.1c-0.4-2.1-2.3-3.7-4.7-3.7c-1.7,0-3.3,0.9-4.1,2.2c-0.6-0.3-1.3-0.5-2-0.5c-1.7,0-3.2,1-3.7,2.4
		c-0.5-0.3-1-0.5-1.6-0.5c-1.5,0-2.7,1.1-2.7,2.5s1.2,2.5,2.7,2.5c1,0,4.1,0,5.4,0c1.1,0,14.3,1.6,14.3-2.3
		C485.8,230.4,484.4,230.5,482.3,230.1z"/>
	<path style="&st9;" d="M259.2,206.8c-0.6-3.4-3.7-5.9-7.4-5.9c-2.8,0-5.2,1.4-6.5,3.5c-0.9-0.5-2-0.8-3.2-0.8
		c-2.8,0-5.1,1.6-5.9,3.8c-0.7-0.5-1.6-0.8-2.6-0.8c-2.4,0-4.4,1.8-4.4,4s1.9,4,4.4,4c1.6,0,6.6,0,8.5,0c1.7,0,22.8,2.6,22.8-3.7
		C264.9,207.1,262.5,207.4,259.2,206.8z"/>
	<g>
		<g>
			<g>
				<path style="&st38;" d="M354.4,64.1c-1,0.2-2,0.3-3,0.5"/>
				<path style="&st39;" d="M345.5,65.8C244.9,87,176.9,178.6,189.8,276"/>
				<path style="&st38;" d="M190.3,279c0.1,1,0.3,2,0.5,3"/>
			</g>
		</g>
		<g>
			
				<linearGradient id="SVGID_20_" gradientUnits="userSpaceOnUse" x1="327.22" y1="304.47" x2="389.51" y2="304.47" gradientTransform="matrix(1 0 0 -1 0 378)">
				<stop  offset="0" style="stop-color:#C6D6F6"/>
				<stop  offset="0.7964" style="stop-color:#CDE0F5"/>
				<stop  offset="1" style="stop-color:#D0E4F5"/>
			</linearGradient>
			<polygon style="&st40;" points="330.6,59.9 327.2,94.6 389.5,54.5 388.3,52.4 			"/>
			<polygon style="&st41;" points="319.7,40.8 388.3,52.4 335.6,68.8 			"/>
			<polygon style="&st9;" points="357,106.5 389.5,54.5 341.1,78.5 			"/>
		</g>
	</g>
	<g>
		
			<linearGradient id="SVGID_21_" gradientUnits="userSpaceOnUse" x1="394.79" y1="293.985" x2="437.24" y2="293.985" gradientTransform="matrix(1 0 0 -1 0 378)">
			<stop  offset="5.376340e-03" style="stop-color:#FFCE0C"/>
			<stop  offset="0.3389" style="stop-color:#FFC90B"/>
			<stop  offset="0.9731" style="stop-color:#FFC50B"/>
		</linearGradient>
		<path style="&st42;" d="M437.2,84c0,11.7-9.5,21.2-21.2,21.2c-11.7,0-21.2-9.5-21.2-21.2c0-11.7,9.5-21.2,21.2-21.2
			C427.7,62.8,437.2,72.3,437.2,84z"/>
		<path id="XMLID_81_" style="&st9;" d="M420.5,87.9c-0.9-0.2-1.9,0.1-2.3,1c-0.2,0.5-0.3,1.1-0.7,1.3c-0.3,0.2-0.7,0-1.1-0.2
			c-1.6-0.9-4.9-7.3-4.6-9.2c0-0.4,0.1-0.8,0.5-1c0.5-0.3,1,0.1,1.5,0.2c0.9,0.2,1.8-0.5,2.1-1.3c0.4-0.8,0.3-1.8,0.2-2.7
			c-0.1-1-0.4-2.1-1.1-2.9c-2-2.3-4.9,0-6.1,1.9c-0.8,1.2-1.2,2.6-1.4,4c-0.4,3,5,13.7,7.6,15.2c1.3,0.7,2.6,1.2,4,1.3
			c2.2,0.2,5.8-0.8,5.2-3.7c-0.2-1-0.9-1.9-1.7-2.6C422.1,88.7,421.4,88.1,420.5,87.9z"/>
	</g>
	<g>
		
			<linearGradient id="SVGID_22_" gradientUnits="userSpaceOnUse" x1="452.3939" y1="272.7558" x2="508.6776" y2="272.7558" gradientTransform="matrix(1 0 0 -1 0 378)">
			<stop  offset="2.000000e-08" style="stop-color:#D0E4F5"/>
			<stop  offset="0.2036" style="stop-color:#CDE0F5"/>
			<stop  offset="1" style="stop-color:#C6D6F6"/>
		</linearGradient>
		<path style="&st43;" d="M506.5,116.1c-6,14.3-22.5,21.1-36.8,15.1c-14.3-6-21.1-22.5-15.1-36.8c6-14.3,22.5-21.1,36.8-15.1
			C505.8,85.3,512.5,101.8,506.5,116.1z"/>
		<g>
			<g>
				<polygon style="&st9;" points="495.9,101.2 472.7,91.4 481.3,103.5 				"/>
				<polygon style="&st9;" points="479.8,107 469.1,92 462.4,108.1 491.2,120.2 498,104.1 				"/>
			</g>
		</g>
	</g>
	<g>
		
			<linearGradient id="SVGID_23_" gradientUnits="userSpaceOnUse" x1="495.54" y1="218.345" x2="538" y2="218.345" gradientTransform="matrix(1 0 0 -1 0 378)">
			<stop  offset="0" style="stop-color:#8FA925"/>
			<stop  offset="0.306" style="stop-color:#8CA526"/>
			<stop  offset="0.6148" style="stop-color:#829929"/>
			<stop  offset="0.9239" style="stop-color:#71852F"/>
			<stop  offset="0.9946" style="stop-color:#6C7F30"/>
		</linearGradient>
		<path style="&st44;" d="M538,159.6c0,11.7-9.5,21.2-21.2,21.2c-11.7,0-21.2-9.5-21.2-21.2c0-11.7,9.5-21.2,21.2-21.2
			C528.5,138.4,538,147.9,538,159.6z"/>
		<g>
			<g>
				<path id="XMLID_148_" style="&st9;" d="M505.3,159.2h5.9c0-1.7,0.3-3.4,0.8-5c-1.4-0.4-2.8-1-4.2-1.7
					C506.3,154.4,505.4,156.7,505.3,159.2z"/>
				<path id="XMLID_147_" style="&st9;" d="M511.1,160.1h-5.9c0.1,2.5,1,4.9,2.5,6.7c1.3-0.8,2.7-1.3,4.2-1.7
					C511.5,163.5,511.2,161.8,511.1,160.1z"/>
				<path id="XMLID_146_" style="&st9;" d="M516.3,160.1H512c0,1.6,0.3,3.3,0.8,4.8c1.2-0.3,2.4-0.4,3.5-0.4L516.3,160.1
					L516.3,160.1z"/>
				<path id="XMLID_145_" style="&st9;" d="M516.3,159.2v-4.4c-1.2,0-2.4-0.2-3.5-0.4c-0.5,1.5-0.8,3.1-0.8,4.8L516.3,159.2
					L516.3,159.2z"/>
				<path id="XMLID_144_" style="&st9;" d="M516.3,165.3c-1.1,0-2.2,0.2-3.3,0.4c0.7,2,1.8,3.8,3.3,5.4V165.3z"/>
				<path id="XMLID_143_" style="&st9;" d="M520.7,154.4c-1.2,0.3-2.3,0.4-3.5,0.4v4.4h4.3C521.5,157.6,521.2,156,520.7,154.4z"/>
				<path id="XMLID_142_" style="&st9;" d="M517.2,154c1.1,0,2.2-0.2,3.3-0.4c-0.7-1.9-1.8-3.8-3.3-5.4V154L517.2,154z"/>
				<path id="XMLID_141_" style="&st9;" d="M516.3,154v-5.8c-1.4,1.6-2.5,3.4-3.3,5.4C514.2,153.8,515.2,154,516.3,154z"/>
				<path id="XMLID_140_" style="&st9;" d="M512.2,153.4c0.7-1.8,1.6-3.6,2.9-5.1c-2.7,0.4-5,1.7-6.8,3.6
					C509.6,152.5,510.9,153,512.2,153.4z"/>
				<path id="XMLID_139_" style="&st9;" d="M512.2,165.9c-1.3,0.4-2.6,0.9-3.9,1.6c1.7,1.9,4.1,3.2,6.8,3.6
					C513.9,169.5,512.9,167.7,512.2,165.9z"/>
				<path id="XMLID_138_" style="&st9;" d="M517.2,165.3v5.8c1.5-1.6,2.5-3.5,3.3-5.4C519.4,165.5,518.3,165.3,517.2,165.3z"/>
				<path id="XMLID_137_" style="&st9;" d="M521.3,165.9c-0.7,1.8-1.6,3.6-2.9,5.1c2.7-0.4,5-1.7,6.8-3.6
					C524,166.8,522.6,166.3,521.3,165.9z"/>
				<path id="XMLID_136_" style="&st9;" d="M521.3,153.4c1.3-0.4,2.6-0.9,3.9-1.6c-1.7-1.9-4.1-3.2-6.8-3.6
					C519.7,149.9,520.6,151.6,521.3,153.4z"/>
				<path id="XMLID_135_" style="&st9;" d="M517.2,160.1v4.4c1.2,0,2.4,0.2,3.5,0.4c0.5-1.6,0.8-3.2,0.8-4.8H517.2L517.2,160.1z"/>
				<path id="XMLID_134_" style="&st9;" d="M528.3,160.1h-5.8c0,1.7-0.3,3.4-0.8,5c1.5,0.4,2.9,1,4.2,1.7
					C527.2,164.9,528.2,162.6,528.3,160.1z"/>
				<path id="XMLID_133_" style="&st9;" d="M522.4,159.2h5.8c-0.1-2.5-1-4.9-2.5-6.7c-1.3,0.8-2.7,1.3-4.2,1.7
					C522.1,155.9,522.3,157.5,522.4,159.2z"/>
			</g>
		</g>
	</g>
	<g>
		<g>
			
				<linearGradient id="SVGID_24_" gradientUnits="userSpaceOnUse" x1="179.2653" y1="172.5975" x2="217.5085" y2="172.5975" gradientTransform="matrix(1 0 0 -1 0 378)">
				<stop  offset="0" style="stop-color:#F5EFCA"/>
				<stop  offset="0.5067" style="stop-color:#F3DEB8"/>
				<stop  offset="0.9839" style="stop-color:#F0CAA4"/>
			</linearGradient>
			<path style="&st45;" d="M200.1,228.3c2.6-2.5-1.6-7.4,1.6-8.4c3.2-1,3.2-3.3,7.7-6.4c4.5-3.1,7.1-3.6,7.9-5.7
				c0.7-2.1-0.4-4.8-4.4-3.8c-3.9,1-6.2,1.6-8.4,4.8c0,0-1.8-5.5,0.5-9.5s5.4-12.1,2.2-14.3c-3.1-2.2-3.9,0.3-5,3.4
				s-3.4,11.2-3.4,11.2s1-15.4,0.3-17.8c-0.7-2.5-4.9-2.2-5.5,0.9c-0.6,3.2-0.3,16.3-0.3,16.3s-2.6-11-2.9-13.5
				c-0.3-2.5-4.7-1.9-4.8,0.4c0,2.3,1.7,12.4,1.7,12.4s-2.7-6.8-4.2-9.4c-1.5-2.7-4.2-1.1-3.9,1.3c0.3,2.5,3.4,8.5,3.3,11
				c-0.1,2.5-0.6,12.4,0.3,14.7c0.8,2.3,1.3,5.9,1.2,9.9C184,229.9,195.1,233.1,200.1,228.3z"/>
			<g>
				
					<linearGradient id="SVGID_25_" gradientUnits="userSpaceOnUse" x1="202.9827" y1="52.0523" x2="202.9827" y2="156.04" gradientTransform="matrix(1 0 0 -1 0 378)">
					<stop  offset="0" style="stop-color:#8FA925"/>
					<stop  offset="0.3632" style="stop-color:#8DA626"/>
					<stop  offset="0.624" style="stop-color:#859D28"/>
					<stop  offset="0.852" style="stop-color:#788D2C"/>
					<stop  offset="0.9946" style="stop-color:#6C7F30"/>
				</linearGradient>
				<path style="&st46;" d="M203.9,222c-5.8,1.9-6.7,2.1-13.4,3.2c-4.2,0.6-4.7-0.3-8.7,0c0.3,3.2,3.9,84.5,3.9,84.5
					c1.6,10.5,11.5,17.8,22.1,16.1c10.5-1.6,17.7-11.5,16.1-22C223.9,303.7,204.3,223.5,203.9,222z"/>
				<path style="&st47;" d="M208.3,314c2.8,5.1,3.8,10.8,5.1,10l43.1-26.1c0,0-1-8.5,3.3-27.4c2.6-11.6,41.4-47.5,1.5-26.9
					l-43.8,33.9C215.9,278.5,202.5,303.5,208.3,314z"/>
			</g>
		</g>
		<path style="&st19;" d="M214.5,324.1c0,0,28.5-25.3,37.1-38.4c8.6-13,4.9,12.1,4.9,12.1L214.5,324.1z"/>
	</g>
	<g>
		
			<linearGradient id="SVGID_26_" gradientUnits="userSpaceOnUse" x1="179.2878" y1="243.7406" x2="262.8585" y2="243.7406" gradientTransform="matrix(1 0 0 -1 0 378)">
			<stop  offset="2.000000e-08" style="stop-color:#D0E4F5"/>
			<stop  offset="0.2036" style="stop-color:#CDE0F5"/>
			<stop  offset="1" style="stop-color:#C6D6F6"/>
		</linearGradient>
		<path style="&st48;" d="M257.9,141.5c6.5-4.6,5.1-8.4,3.9-16.2s-8.4-33.8-13.7-35.7c-5.2-1.9-5.7-1.5-21.5,2.5
			c-15.8,4.1-43.6,14.9-43.6,14.9s-5.1,2.6-3.5,10.9s10.9,42.1,17.7,44.6c6.9,2.4,4.5,1.5,18.3-2.7c7-2.1,16.1-5.6,24.3-9.1
			c1.7,5.5,4.2,12.3,7,16.9c5.3,8.9,10.8,12.6,10.8,12.6s-3.9-32-3.2-36.5C255.8,142.8,257,142.1,257.9,141.5z"/>
		<line style="&st49;" x1="192.8" y1="122.2" x2="242.4" y2="105.2"/>
		<line style="&st49;" x1="198.4" y1="134.3" x2="247.1" y2="117.4"/>
		<line style="&st49;" x1="203" y1="148.2" x2="250.4" y2="130.9"/>
	</g>
</g>
</svg>
