<?xml version="1.0" encoding="utf-8"?>
<!-- Generator: Adobe Illustrator 23.0.1, SVG Export Plug-In . SVG Version: 6.00 Build 0)  -->
<svg version="1.1" id="Layer_1" xmlns="http://www.w3.org/2000/svg" xmlns:xlink="http://www.w3.org/1999/xlink" x="0px" y="0px"
	 viewBox="0 0 381.18 381.06" style="enable-background:new 0 0 381.18 381.06;" xml:space="preserve">
<style type="text/css">
	.st0{fill:#C6C6C6;}
</style>
<g>
	<g>
		<path class="st0" d="M169.9,10.69C88.25,19.79,21.94,84.62,11.2,166.06C-4.01,281.48,90.35,379.67,204.64,371
			c42.04-3.19,81.4-21.98,112.23-50.74l2.65-2.47c3.05-2.84,3.21-7.61,0.37-10.66L309.6,296.1c-2.84-3.05-7.61-3.21-10.66-0.37
			l-5.52,5.15c-34.3,31.98-81.38,46.37-128.88,38.28C97.22,327.68,45.47,270.53,40.22,202.44
			c-6.95-90.04,65.68-165.27,154.84-162.68c82.22,2.39,146.36,72.55,146.36,154.81v11.05c0,17.63-15.19,31.77-33.17,30.02
			c-15.67-1.52-27.16-15.61-27.16-31.36v-66.54c0-4.17-3.38-7.54-7.54-7.54h-15.08c-3.03,0-5.6,1.81-6.8,4.39
			c-15.18-16.55-36.9-27.01-61.07-27.01c-45.74,0-82.96,37.21-82.96,82.96s37.21,82.96,82.96,82.96c28.82,0,54.22-14.78,69.1-37.15
			c11.2,18.72,32.01,31.05,55.7,29.47c32.03-2.15,56.2-30.22,56.2-62.32v-12.95C371.59,83.91,278.92-1.48,169.9,10.69z
			 M190.59,243.32c-29.11,0-52.79-23.69-52.79-52.79s23.69-52.79,52.79-52.79s52.79,23.69,52.79,52.79S219.69,243.32,190.59,243.32z
			"/>
	</g>
</g>
</svg>
