<?xml version="1.0" encoding="utf-8"?>
<!-- Generator: Adobe Illustrator 23.0.1, SVG Export Plug-In . SVG Version: 6.00 Build 0)  -->
<svg version="1.1" id="Capa_1" xmlns="http://www.w3.org/2000/svg" xmlns:xlink="http://www.w3.org/1999/xlink" x="0px" y="0px"
	 viewBox="0 0 512 512" style="enable-background:new 0 0 512 512;" xml:space="preserve">
<style type="text/css">
	.st0{fill:#C6C6C6;}
</style>
<g>
	<path class="st0" d="M349.21,34.99H162.79c-17.97,0-32.6,14.63-32.6,32.6V446.4c0,17.98,14.63,32.61,32.6,32.61h186.4
		c17.98,0,32.61-14.63,32.61-32.6V67.59C381.8,49.62,367.17,34.99,349.21,34.99z M145,94.19H367V375.4H145V94.19z M162.79,49.79
		h186.4c9.82,0,17.8,7.98,17.8,17.8v11.8H145v-11.8C145,57.78,152.98,49.79,162.79,49.79z M349.21,464.21H162.79
		c-9.81,0-17.8-7.98-17.8-17.8v-56.2H367v56.2C367,456.22,359.02,464.21,349.21,464.21z"/>
	<path class="st0" d="M256,397.6c-16.32,0-29.6,13.28-29.6,29.6s13.28,29.6,29.6,29.6s29.6-13.28,29.6-29.6S272.32,397.6,256,397.6z
		 M256,442.01c-8.16,0-14.8-6.64-14.8-14.8s6.64-14.8,14.8-14.8s14.8,6.64,14.8,14.8S264.16,442.01,256,442.01z"/>
	<path class="st0" d="M226.4,71.99H256c4.09,0,7.4-3.31,7.4-7.4s-3.31-7.4-7.4-7.4h-29.6c-4.09,0-7.4,3.31-7.4,7.4
		S222.31,71.99,226.4,71.99z"/>
	<path class="st0" d="M278.2,71.99h7.4c4.09,0,7.4-3.31,7.4-7.4s-3.31-7.4-7.4-7.4h-7.4c-4.09,0-7.4,3.31-7.4,7.4
		S274.11,71.99,278.2,71.99z"/>
	<path class="st0" d="M452.94,68.8c-2.89-2.89-7.57-2.89-10.46,0s-2.89,7.57,0,10.46c27.65,27.65,27.65,72.63,0,100.29
		c-2.89,2.89-2.89,7.57,0,10.46c1.44,1.44,3.34,2.17,5.23,2.17s3.79-0.73,5.23-2.17C486.35,156.61,486.35,102.22,452.94,68.8z"/>
	<path class="st0" d="M421.77,85.65c-2.89-2.89-7.57-2.89-10.46,0c-2.89,2.89-2.89,7.57,0,10.46c9.15,9.15,14.19,21.35,14.19,34.33
		s-5.04,25.17-14.19,34.32c-2.89,2.89-2.89,7.57,0,10.46c1.44,1.44,3.34,2.17,5.23,2.17s3.79-0.73,5.23-2.17
		c11.95-11.94,18.53-27.85,18.53-44.79S433.73,97.59,421.77,85.65z"/>
	<path class="st0" d="M69.53,79.27c2.89-2.89,2.89-7.57,0-10.46c-2.89-2.89-7.57-2.89-10.46,0c-33.42,33.42-33.42,87.8,0,121.22
		c1.44,1.44,3.34,2.17,5.23,2.17c1.89,0,3.79-0.73,5.23-2.17c2.89-2.89,2.89-7.57,0-10.46C41.87,151.91,41.87,106.92,69.53,79.27z"
		/>
	<path class="st0" d="M100.69,83.6c-2.89-2.89-7.57-2.89-10.46,0C78.28,95.55,71.7,111.46,71.7,128.39s6.58,32.84,18.53,44.79
		c1.44,1.44,3.34,2.17,5.23,2.17c1.89,0,3.79-0.73,5.23-2.17c2.89-2.89,2.89-7.57,0-10.46c-9.15-9.15-14.19-21.35-14.19-34.33
		s5.03-25.17,14.19-34.32C103.58,91.18,103.58,86.5,100.69,83.6z"/>
</g>
</svg>
