<?xml version="1.0" encoding="utf-8"?>
<!-- Generator: Adobe Illustrator 23.0.1, SVG Export Plug-In . SVG Version: 6.00 Build 0)  -->
<svg version="1.1" id="Capa_1" xmlns="http://www.w3.org/2000/svg" xmlns:xlink="http://www.w3.org/1999/xlink" x="0px" y="0px"
	 viewBox="0 0 374.61 379.39" style="enable-background:new 0 0 374.61 379.39;" xml:space="preserve">
<style type="text/css">
	.st0{fill:#E2EBF9;}
	.st1{fill:#FFFFFF;}
	.st2{fill:#E3E7F2;}
	.st3{fill:#1AE5BE;}
	.st4{fill:#434C54;}
	.st5{fill:#99AAC1;}
	.st6{fill:#FF9052;}
</style>
<g>
	<path class="st0" d="M200.21,27.16h69.22c11.23,0,20.33,9.1,20.33,20.33v305.6c0,11.23-9.1,20.33-20.33,20.33h-69.22
		c-11.23,0-20.33-9.1-20.33-20.33V47.49C179.88,36.26,188.98,27.16,200.21,27.16z"/>
	<path class="st1" d="M113.08,27.16h69.22c11.23,0,20.33,9.1,20.33,20.33v305.6c0,11.23-9.1,20.33-20.33,20.33h-69.22
		c-11.23,0-20.33-9.1-20.33-20.33V47.49C92.75,36.26,101.85,27.16,113.08,27.16z"/>
	<path class="st2" d="M130.99,27.16h114.56c11.23,0,20.33,9.1,20.33,20.33v305.6c0,11.23-9.1,20.33-20.33,20.33H130.99
		c-11.23,0-20.33-9.1-20.33-20.33V47.49C110.66,36.26,119.76,27.16,130.99,27.16z"/>
	<rect x="110.66" y="62.98" class="st1" width="155.22" height="238.8"/>
	<circle class="st3" cx="188.27" cy="337.6" r="17.91"/>
	<g>
		<path class="st4" d="M263.46,379.39H113.08c-14.52-0.02-26.28-11.78-26.3-26.3V47.49c0.02-14.52,11.78-26.28,26.3-26.3h150.38
			c14.52,0.02,26.28,11.78,26.3,26.3v305.6C289.74,367.61,277.98,379.37,263.46,379.39L263.46,379.39z M113.08,33.13
			c-7.93,0.01-14.35,6.43-14.36,14.36v305.6c0.01,7.93,6.43,14.35,14.36,14.36h150.38c7.93-0.01,14.35-6.43,14.36-14.36V47.49
			c-0.01-7.93-6.43-14.35-14.36-14.36H113.08z"/>
		<path class="st5" d="M188.27,361.48c-13.19,0-23.88-10.69-23.88-23.88s10.69-23.88,23.88-23.88s23.88,10.69,23.88,23.88
			C212.14,350.78,201.45,361.47,188.27,361.48L188.27,361.48z M188.27,325.66c-6.59,0-11.94,5.35-11.94,11.94
			c0,6.59,5.35,11.94,11.94,11.94c6.59,0,11.94-5.35,11.94-11.94C200.2,331.01,194.86,325.67,188.27,325.66L188.27,325.66z"/>
		<path class="st4" d="M283.79,307.75H92.75c-3.3,0-5.97-2.67-5.97-5.97s2.67-5.97,5.97-5.97h191.04c3.3,0,5.97,2.67,5.97,5.97
			S287.09,307.75,283.79,307.75z"/>
		<path class="st4" d="M283.79,68.95H92.75c-3.3,0-5.97-2.67-5.97-5.97c0-3.3,2.67-5.97,5.97-5.97h191.04c3.3,0,5.97,2.67,5.97,5.97
			C289.76,66.28,287.09,68.95,283.79,68.95z"/>
		<path class="st4" d="M188.27,51.04h-23.88c-3.3,0-5.97-2.67-5.97-5.97s2.67-5.97,5.97-5.97h23.88c3.3,0,5.97,2.67,5.97,5.97
			S191.57,51.04,188.27,51.04z"/>
		<path class="st4" d="M212.15,51.04h-5.97c-3.3,0-5.97-2.67-5.97-5.97s2.67-5.97,5.97-5.97h5.97c3.3,0,5.97,2.67,5.97,5.97
			S215.45,51.04,212.15,51.04z"/>
		<path class="st6" d="M342.92,148.01c-2.41,0-4.59-1.46-5.51-3.69c-0.92-2.23-0.41-4.8,1.29-6.5c22.31-22.36,22.31-58.55,0-80.9
			c-1.51-1.51-2.1-3.71-1.55-5.77c0.55-2.06,2.16-3.67,4.22-4.22s4.26,0.04,5.77,1.54c26.96,27.02,26.96,70.77,0,97.79
			C346.03,147.38,344.51,148.01,342.92,148.01L342.92,148.01z"/>
		<path class="st6" d="M317.78,136.07c-2.41,0-4.59-1.46-5.51-3.69c-0.92-2.23-0.41-4.8,1.29-6.5c15.27-15.3,15.27-40.08,0-55.38
			c-2.33-2.33-2.33-6.11,0-8.44s6.11-2.33,8.44,0c19.93,19.96,19.93,52.3,0,72.26C320.89,135.44,319.37,136.07,317.78,136.07
			L317.78,136.07z"/>
		<path class="st6" d="M33.62,148.01c-1.58,0-3.1-0.63-4.22-1.75c-26.96-27.02-26.96-70.77,0-97.79c1.51-1.51,3.71-2.1,5.77-1.54
			c2.06,0.55,3.67,2.16,4.22,4.22c0.55,2.06-0.04,4.26-1.55,5.77c-22.31,22.36-22.31,58.55,0,80.9c1.71,1.71,2.22,4.27,1.29,6.5
			C38.21,146.55,36.03,148.01,33.62,148.01L33.62,148.01z"/>
		<path class="st6" d="M58.76,134.42c-1.58,0-3.1-0.63-4.22-1.75c-19.93-19.96-19.93-52.3,0-72.26c2.33-2.33,6.11-2.33,8.44,0
			c2.33,2.33,2.33,6.11,0,8.44c-15.27,15.3-15.27,40.08,0,55.38c1.71,1.71,2.22,4.27,1.29,6.5
			C63.35,132.97,61.17,134.42,58.76,134.42L58.76,134.42z"/>
	</g>
</g>
</svg>
