<?xml version="1.0" encoding="utf-8"?>
<!-- Generator: Adobe Illustrator 23.0.1, SVG Export Plug-In . SVG Version: 6.00 Build 0)  -->
<svg version="1.1" id="Capa_1" xmlns="http://www.w3.org/2000/svg" xmlns:xlink="http://www.w3.org/1999/xlink" x="0px" y="0px"
	 viewBox="0 0 402.92 362.12" style="enable-background:new 0 0 402.92 362.12;" xml:space="preserve">
<style type="text/css">
	.st0{fill:none;}
	.st1{fill:#FFFFFF;}
	.st2{fill:#E2EBF9;}
	.st3{fill:#FF914D;}
	.st4{fill:#FF8125;}
	.st5{fill:#434C54;}
	.st6{fill:url(#SVGID_1_);}
	.st7{fill:url(#SVGID_2_);}
	.st8{display:none;fill:url(#SVGID_3_);}
	.st9{display:none;fill:url(#SVGID_4_);}
	.st10{fill:url(#SVGID_5_);}
	.st11{fill:url(#SVGID_6_);}
	.st12{fill:#FEAD3A;}
	.st13{fill:url(#SVGID_7_);}
</style>
<path class="st0" d="M276.96,204.32c-27.9,5.4-94.3,8.6-109,0c-9.6-5.6-37-6.2-54.9-5.9v4.2c18.3-2,34.1-0.1,54.2,6.4
	c0.2,0.1,0.4,0.1,0.6,0.2s0.5,0.1,0.7,0.2c0.5,0.1,1.1,0.3,1.7,0.5c7.7,2.1,23.7,6.5,37.7,4.6c16-2.2,43.1-4.3,62.9-5.5
	c0.2,0,0.5,0,0.7,0c10.1,0.7,18,3.6,23.5,8.7v-9.8C290.96,204.62,285.26,202.82,276.96,204.32z"/>
<path class="st1" d="M368.86,185.62l-53.2,58.8c-0.7,0.8-1.6,1.3-2.6,1.6c-1.7,0.5-3.4,1.1-5.2,1.8c-2.7,1-5.5,2-8.5,2.7
	c-0.1,0-0.1,0-0.2,0.1c-25.4,6.1-53.5,10-80.6,13.8c-10.9,1.5-21.2,3-31.3,4.5c-0.3,0-0.6,0.1-0.9,0.1h-0.1c-7.5-0.2-12.9-5-13.4-12
	c-0.2-3.1,2.1-5.9,5.3-6.1s5.9,2.1,6.1,5.3c0,0.6,0.1,1.3,1.9,1.4c10.1-1.6,20.7-3,30.9-4.5c25.4-3.6,51.7-7.3,75.4-12.7
	c0-0.3,0.1-0.6,0.1-0.9c0.1-0.7,0.3-1.8,0.3-2.2c-1.8-10.9-8.3-16-21.7-17.1c-19.5,1.2-46,3.3-61.6,5.4c-16.3,2.2-33.8-2.6-42.2-4.9
	c-0.6-0.2-1.2-0.3-1.7-0.5c-1.4-0.4-2.3-0.6-2.8-0.8c-0.6-0.2-1.2-0.4-1.7-0.6c-19.8-6-34.6-7.1-53.7-4.1c-6,0.9-13.2,2.2-20.8,3.6
	c-3,0.5-6.1,1.1-9.1,1.6v60c23.7,4,70.5,12.2,94.9,19c10,2.8,20.5,2.6,30.4-0.5c36.5-11.4,97.9-28.2,119.8-39.2
	c4.6-0.8,22.5-19.4,22.5-19.4c10.4-18.6,23.2-37.8,35.5-56.4c-1.3-0.5-2.9-0.8-4.6-0.8C373.06,182.72,370.66,183.72,368.86,185.62z"
	/>
<path class="st2" d="M322.66,259.42c-21.9,11-83.2,27.8-119.8,39.2c-9.9,3.1-20.5,3.3-30.4,0.5c-24.4-6.8-71.2-15-94.9-19v32.2
	c23.8,4,71.5,12.4,96.4,19.3c8.9,2.5,18.4,2.4,27.2-0.4c9.2-2.9,19.9-6,31.2-9.4c33.6-10,71.8-21.4,87.7-29.5
	c0.4-0.2,0.8-0.4,1.3-0.5c2.7-1.3,12-9.8,19.2-17.3c9.6-17.2,21.3-34.8,32.6-51.9c4.7-7,9.5-14.4,14-21.3c3.8-5.9-1.3-13.9-2.8-15.7
	c-0.5-0.5-1.8-1.4-3.6-2c-12.3,18.6-25.1,37.8-35.5,56.4C345.16,240.02,327.36,258.72,322.66,259.42z"/>
<rect x="23.16" y="210.02" class="st3" width="11.8" height="116"/>
<path class="st4" d="M63.06,277.72v-60.9c1-0.2,2.1-0.3,3.2-0.5v-6.3h-31.3v116h31.3v-9.8c-2-0.3-3.2-0.5-3.2-0.5V277.72z"/>
<path class="st4" d="M63.06,216.82v60.9c0,0,1.1,0.2,3.2,0.5v-61.9C65.16,216.52,64.16,216.62,63.06,216.82z"/>
<path class="st4" d="M63.06,315.62c0,0,1.1,0.2,3.2,0.5v-38c-2-0.3-3.2-0.5-3.2-0.5V315.62z"/>
<path class="st5" d="M392.96,178.22c-3.4-4-10.1-6.7-16.6-6.9c-6.2-0.1-11.8,2.2-15.8,6.6l-52.2,57.7c-0.6,0.2-1.2,0.4-1.8,0.6
	l-11.4-18.5c-5.5-5.1-13.4-8-23.5-8.7c-0.3,0-0.5,0-0.7,0c-19.8,1.2-46.9,3.3-62.9,5.5c-14,1.9-30-2.5-37.7-4.6
	c-0.6-0.2-1.2-0.3-1.7-0.5c-0.3-0.1-0.5-0.1-0.7-0.2s-0.4-0.2-0.6-0.2c-20.1-6.4-35.9-8.3-54.2-6.4l-11.4,1.6c-5.2,0.9-11,1.9-17,3
	c-2.4,0.4-4.8,0.9-7.1,1.3c-0.6-5.6-5.3-9.9-11.1-9.9h-43.5c-6.1,0-11.1,5-11.1,11.1v116.4c0,6.1,5,11.1,11.1,11.1h43.5
	c6.1,0,11.1-5,11.1-11.1v-2.3c24.1,4.1,69.6,12.1,93.3,18.7c5.2,1.5,10.6,2.2,16,2.2c6,0,11.9-0.9,17.7-2.7c9.1-2.8,19.8-6,31-9.4
	c33.7-10,71.8-21.4,89-29.9c2.3-0.7,6-2.8,15-11.2c5.1-4.8,9.5-9.4,9.7-9.6c0.3-0.4,0.6-0.7,0.9-1.2c9.5-17,21.2-34.7,32.5-51.9
	c4.7-7.1,9.5-14.4,14-21.5C403.36,197.12,398.06,184.32,392.96,178.22z M391.86,204.42c-15.3,23.8-33.1,49.2-46.7,73.6
	c0,0-17.9,18.6-22.5,19.4c-21.2,10.7-79.4,26.8-116.3,38.1c-1.2,0.4-2.4,0.7-3.5,1.1c-9.9,3.1-20.5,3.3-30.4,0.5
	c-26.5-7.4-79.6-16.5-100.6-20v9.1c0,3-2.4,5.5-5.4,5.5h-31.5h-12c-3,0-5.4-2.4-5.4-5.5v-116.4c0-3,2.4-5.5,5.4-5.5h12h31.5
	c0.2,0,0.4,0,0.6,0c2.8,0.3,4.9,2.6,4.9,5.4v5.5c11.8-2,24.9-4.5,34.7-6.1c21.6-3.4,38.1-1.5,58.9,5.2c0,0-5.2-1.3,1.6,0.5
	c7.6,2,25.4,7.4,41.7,5.2c16.3-2.2,44-4.4,62.4-5.5c14.8,1,24.8,7.1,27.3,21.9c0.4,2.5-1.1,6-0.6,8.5c4.6-1,9-3.1,13.5-4.4
	l53.2-58.8c5.7-6.2,14.5-5.4,19.9-2.7l0,0c0.2,0.1,0.5,0.2,0.7,0.4l0,0c0.2,0.1,0.4,0.2,0.6,0.3h0.1c0.2,0.1,0.4,0.2,0.5,0.3
	c0,0,0.1,0,0.1,0.1c0.1,0.1,0.3,0.2,0.4,0.3l0.1,0.1c0.1,0.1,0.3,0.2,0.4,0.3l0.1,0.1c0.1,0.1,0.2,0.2,0.3,0.3l0.1,0.1
	c0.1,0.1,0.3,0.3,0.4,0.4C391.56,185.42,397.36,195.92,391.86,204.42z"/>
<path class="st5" d="M386.66,180.32c0.1,0.1,0.3,0.2,0.4,0.3C386.96,180.52,386.86,180.42,386.66,180.32z"/>
<path class="st5" d="M386.06,179.92c0.2,0.1,0.4,0.2,0.5,0.3C386.36,180.12,386.26,180.02,386.06,179.92z"/>
<path class="st5" d="M387.26,180.72c0.1,0.1,0.3,0.2,0.4,0.3C387.46,180.92,387.36,180.82,387.26,180.72z"/>
<path class="st5" d="M387.76,181.12c0.1,0.1,0.2,0.2,0.3,0.3C387.96,181.32,387.86,181.22,387.76,181.12z"/>
<path class="st5" d="M385.36,179.52c0.2,0.1,0.4,0.2,0.6,0.3C385.76,179.72,385.56,179.62,385.36,179.52z"/>
<path class="st5" d="M384.66,179.12c0.2,0.1,0.5,0.2,0.7,0.4C385.06,179.32,384.86,179.22,384.66,179.12z"/>
<path class="st5" d="M391.86,204.42c-15.3,23.8-33.1,49.2-46.7,73.6C358.86,253.62,376.66,228.22,391.86,204.42z"/>
<path class="st5" d="M388.26,181.52c0.1,0.1,0.3,0.3,0.4,0.4C388.46,181.82,388.36,181.72,388.26,181.52z"/>
<path class="st5" d="M77.66,280.12v-60c3-0.5,6.1-1.1,9.1-1.6c7.6-1.4,14.8-2.7,20.8-3.6c19.1-3,33.9-1.9,53.7,4.1
	c0.5,0.3,1,0.5,1.7,0.6c0.5,0.1,1.4,0.4,2.8,0.8c0.5,0.1,1.1,0.3,1.7,0.5c8.4,2.3,25.9,7.1,42.2,4.9c15.6-2.1,42.1-4.2,61.6-5.4
	c13.4,1,19.9,6.1,21.7,17.1c0,0.4-0.2,1.5-0.3,2.2c0,0.3-0.1,0.6-0.1,0.9c-23.8,5.4-50,9.1-75.4,12.7c-10.3,1.4-20.9,2.9-30.9,4.5
	c-1.8-0.1-1.8-0.9-1.9-1.4c-0.2-3.1-2.9-5.5-6.1-5.3c-3.1,0.2-5.5,2.9-5.3,6.1c0.5,7,5.9,11.9,13.4,12h0.1c0.3,0,0.6,0,0.9-0.1
	c10.1-1.6,20.4-3,31.3-4.5c27.2-3.8,55.3-7.8,80.6-13.8c0.1,0,0.1,0,0.2-0.1c3-0.7,5.8-1.7,8.5-2.7c1.8-0.7,3.5-1.3,5.2-1.8
	c1-0.3,1.9-0.9,2.6-1.6l53.2-58.8c1.8-2,4.2-2.9,7.2-2.9c1.7,0,3.3,0.4,4.6,0.8c1.1-1.6,2.1-3.2,3.2-4.9c0.3,0.1,0.5,0.2,0.8,0.3
	c-5.5-2.6-14.2-3.5-19.9,2.7l-53.2,58.8c-4.5,1.3-9,3.4-13.5,4.4c-0.5-2.6,1-6,0.6-8.5c-2.5-14.7-12.5-20.8-27.3-21.9
	c-18.5,1.1-46.1,3.3-62.4,5.5s-34.1-3.1-41.7-5.2c-6.8-1.8-1.6-0.5-1.6-0.5c-20.9-6.7-37.3-8.6-58.9-5.2c-9.7,1.5-22.9,4-34.7,6.1
	v63.8C73.66,279.42,75.56,279.72,77.66,280.12z"/>
<path class="st5" d="M385.36,179.42C385.36,179.52,385.36,179.52,385.36,179.42C385.36,179.52,385.36,179.42,385.36,179.42z"/>
<path class="st5" d="M385.96,179.82C385.96,179.82,386.06,179.82,385.96,179.82C386.06,179.82,385.96,179.82,385.96,179.82z"/>
<path class="st5" d="M384.66,179.12L384.66,179.12L384.66,179.12z"/>
<path class="st5" d="M172.46,337.12c10,2.8,20.5,2.6,30.4-0.5C193.06,339.72,182.46,339.82,172.46,337.12z"/>
<path class="st5" d="M322.66,297.42c-21.2,10.7-79.4,26.8-116.3,38.1C243.26,324.22,301.46,308.12,322.66,297.42z"/>
<path class="st5" d="M386.56,180.22c0,0,0.1,0,0.1,0.1C386.66,180.22,386.56,180.22,386.56,180.22z"/>
<path class="st5" d="M387.16,180.62l0.1,0.1C387.16,180.62,387.16,180.62,387.16,180.62z"/>
<path class="st5" d="M387.66,181.02l0.1,0.1C387.76,181.12,387.66,181.02,387.66,181.02z"/>
<path class="st5" d="M388.06,181.42l0.1,0.1C388.16,181.52,388.16,181.42,388.06,181.42z"/>
<path class="st5" d="M388.26,181.52l-0.1-0.1c-0.1-0.1-0.2-0.2-0.3-0.3l-0.1-0.1c-0.1-0.1-0.2-0.2-0.4-0.3l-0.1-0.1
	c-0.1-0.1-0.3-0.2-0.4-0.3c0,0-0.1,0-0.1-0.1c-0.2-0.1-0.3-0.2-0.5-0.3h-0.1c-0.2-0.1-0.4-0.2-0.6-0.3l0,0c-0.2-0.1-0.5-0.2-0.7-0.4
	l0,0c-0.2-0.1-0.5-0.2-0.8-0.3c-1.1,1.6-2.1,3.2-3.2,4.9c1.8,0.6,3.1,1.5,3.6,2c1.5,1.8,6.6,9.8,2.8,15.7c-4.5,7-9.3,14.3-14,21.3
	c-11.3,17.1-22.9,34.7-32.6,51.9c-7.3,7.5-16.5,16-19.2,17.3c-0.4,0.1-0.9,0.3-1.3,0.5c-16,8-54.1,19.4-87.7,29.5
	c-11.3,3.4-22,6.6-31.2,9.4c-8.9,2.8-18.3,2.9-27.2,0.4c-24.9-7-72.6-15.3-96.4-19.3v-32.2c-2.1-0.4-4-0.7-5.7-1v38
	c21,3.5,74,12.6,100.6,20c10,2.8,20.5,2.6,30.4-0.5c1.1-0.4,2.3-0.7,3.5-1.1c36.8-11.4,95.1-27.5,116.3-38.1
	c4.6-0.8,22.5-19.4,22.5-19.4c13.6-24.4,31.4-49.8,46.7-73.6c5.5-8.5-0.3-18.9-3.3-22.4C388.46,181.82,388.36,181.72,388.26,181.52z
	"/>
<path class="st5" d="M23.16,326.02v-116h11.8v-5.7h-12c-3,0-5.4,2.4-5.4,5.5v116.4c0,3,2.4,5.5,5.4,5.5h12v-5.7L23.16,326.02
	L23.16,326.02z"/>
<path class="st5" d="M71.96,209.82c0-2.8-2.1-5.1-4.9-5.4C69.76,204.62,71.96,207.02,71.96,209.82z"/>
<path class="st5" d="M66.26,210.02v6.3c1.8-0.3,3.7-0.6,5.7-1v-5.5c0-2.8-2.1-5.1-4.9-5.4c-0.2,0-0.4,0-0.6,0h-31.5v5.7
	L66.26,210.02L66.26,210.02z"/>
<path class="st5" d="M66.26,326.02h-31.3v5.7h31.5c3,0,5.4-2.4,5.4-5.5v-9.1c-2.3-0.4-4.2-0.7-5.7-0.9L66.26,326.02L66.26,326.02z"
	/>
<path class="st5" d="M66.26,278.22c1.4,0.2,3.4,0.5,5.7,0.9v-63.8c-1.9,0.3-3.8,0.7-5.7,1V278.22z"/>
<path class="st5" d="M66.26,278.22v38c1.4,0.2,3.4,0.5,5.7,0.9v-38C69.66,278.82,67.66,278.42,66.26,278.22z"/>
<g>
	<g>
		
			<linearGradient id="SVGID_1_" gradientUnits="userSpaceOnUse" x1="79.8435" y1="-54.706" x2="79.8435" y2="76.6946" gradientTransform="matrix(1 0 0 1 119.9533 66.2063)">
			<stop  offset="0" style="stop-color:#FCD224"/>
			<stop  offset="1" style="stop-color:#FFA340"/>
		</linearGradient>
		<circle class="st6" cx="199.8" cy="98.09" r="82.33"/>
		
			<linearGradient id="SVGID_2_" gradientUnits="userSpaceOnUse" x1="79.8438" y1="-48.3007" x2="79.8438" y2="52.6365" gradientTransform="matrix(1 0 0 1 119.9533 66.2063)">
			<stop  offset="0" style="stop-color:#FFA340"/>
			<stop  offset="1" style="stop-color:#FCD224"/>
		</linearGradient>
		<path class="st7" d="M261.54,98.09c0,34.1-27.64,61.75-61.75,61.75c-34.1,0-61.75-27.64-61.75-61.75
			c0-34.1,27.64-61.75,61.75-61.75C233.9,36.34,261.54,63.98,261.54,98.09z"/>
		<g>
			
				<linearGradient id="SVGID_3_" gradientUnits="userSpaceOnUse" x1="82.7644" y1="-20.9728" x2="82.7644" y2="95.5637" gradientTransform="matrix(1 0 0 1 119.9533 66.2063)">
				<stop  offset="0" style="stop-color:#FCD224"/>
				<stop  offset="1" style="stop-color:#FFA340"/>
			</linearGradient>
			<path class="st8" d="M197.6,83.24c1.06-0.69,2.9-1.05,5.52-1.08c5.51-0.05,11.71,1.54,18.59,4.76l5.71-15.02
				c-6.65-2.98-13.25-4.64-19.78-4.96l-0.07-7.09l-10.18,0.1l0.07,7.19c-6.95,0.84-12.14,2.9-15.59,6.19
				c-3.45,3.29-5.14,7.82-5.09,13.6c0.04,3.78,0.65,6.94,1.83,9.46c1.19,2.53,3.07,4.8,5.65,6.83c2.58,2.02,5.96,3.84,10.14,5.45
				c3.72,1.4,6.67,2.6,8.87,3.59c2.19,1,3.76,1.89,4.7,2.69c0.94,0.8,1.42,1.77,1.43,2.93c0.02,1.68-0.62,2.89-1.91,3.62
				c-1.29,0.73-3.33,1.11-6.12,1.13c-3.38,0.03-7.3-0.62-11.78-1.96c-4.47-1.34-8.62-3.03-12.45-5.06l0.16,17.43
				c6.69,3.02,13.62,4.67,20.81,4.95l0.09,9.82l10.18-0.1l-0.09-10.14c6.68-0.94,11.75-3.26,15.21-6.97
				c3.46-3.71,5.16-8.5,5.11-14.39c-0.05-5.22-1.58-9.46-4.6-12.74c-3.02-3.28-7.96-6.18-14.84-8.71c-3.39-1.19-6.04-2.25-7.95-3.16
				c-1.91-0.91-3.26-1.74-4.03-2.48c-0.78-0.75-1.17-1.7-1.18-2.85C196.02,84.94,196.54,83.93,197.6,83.24z"/>
			
				<linearGradient id="SVGID_4_" gradientUnits="userSpaceOnUse" x1="82.7641" y1="-26.6601" x2="82.7641" y2="89.8768" gradientTransform="matrix(1 0 0 1 119.9533 66.2063)">
				<stop  offset="0.3081" style="stop-color:#FFA340"/>
				<stop  offset="1" style="stop-color:#FCD224"/>
			</linearGradient>
			<path class="st9" d="M197.6,77.55c1.06-0.69,2.9-1.05,5.53-1.08c5.51-0.05,11.71,1.54,18.59,4.76l5.71-15.02
				c-6.65-2.98-13.25-4.64-19.78-4.96l-0.07-7.09l-10.18,0.1l0.07,7.19c-6.95,0.84-12.14,2.9-15.59,6.19
				c-3.45,3.29-5.14,7.82-5.09,13.6c0.04,3.78,0.65,6.94,1.83,9.46c1.19,2.53,3.07,4.8,5.65,6.83c2.58,2.02,5.96,3.84,10.14,5.45
				c3.72,1.4,6.67,2.6,8.87,3.59c2.19,0.99,3.76,1.89,4.7,2.69c0.94,0.8,1.42,1.77,1.43,2.93c0.02,1.68-0.62,2.89-1.91,3.62
				c-1.29,0.73-3.33,1.11-6.12,1.13c-3.38,0.03-7.3-0.62-11.78-1.96c-4.47-1.34-8.62-3.03-12.45-5.06l0.16,17.43
				c6.69,3.02,13.62,4.67,20.81,4.95l0.09,9.82l10.18-0.1l-0.09-10.14c6.68-0.94,11.75-3.26,15.21-6.97
				c3.46-3.71,5.16-8.5,5.11-14.39c-0.05-5.22-1.58-9.46-4.6-12.75c-3.02-3.28-7.96-6.18-14.84-8.71c-3.39-1.19-6.04-2.25-7.95-3.16
				c-1.91-0.91-3.26-1.74-4.03-2.48c-0.78-0.75-1.17-1.7-1.18-2.85C196.02,79.25,196.54,78.24,197.6,77.55z"/>
			
				<linearGradient id="SVGID_5_" gradientUnits="userSpaceOnUse" x1="104.6257" y1="-3.433" x2="104.6257" y2="24.0068" gradientTransform="matrix(1 0 0 1 119.9533 66.2063)">
				<stop  offset="0" style="stop-color:#FCD224"/>
				<stop  offset="1" style="stop-color:#FFA340"/>
			</linearGradient>
			<polygon class="st10" points="227.44,66.22 227.44,71.9 221.72,86.92 221.72,81.24 			"/>
		</g>
		
			<linearGradient id="SVGID_6_" gradientUnits="userSpaceOnUse" x1="79.8442" y1="-39.5084" x2="79.8442" y2="13.2851" gradientTransform="matrix(1 0 0 1 119.9533 66.2063)">
			<stop  offset="0" style="stop-color:#FFA340"/>
			<stop  offset="1" style="stop-color:#FCD224;stop-opacity:0"/>
		</linearGradient>
		<path class="st11" d="M199.8,42.03c33.14,0,60.11,26.13,61.6,58.9c0.04-0.95,0.14-1.88,0.14-2.84c0-34.1-27.65-61.75-61.75-61.75
			c-34.1,0-61.75,27.64-61.75,61.75c0,0.96,0.1,1.89,0.14,2.84C139.69,68.16,166.66,42.03,199.8,42.03z"/>
	</g>
</g>
<g>
	<path class="st12" d="M209.46,83.3c-0.9,0-1.79,0-2.68,0c-7.99,0-15.99,0-23.98,0.02c-0.53,0-0.7-0.12-0.69-0.67
		c0.04-1.41,0.03-2.81,0.01-4.22c-0.01-0.46,0.11-0.62,0.59-0.61c6.07,0.02,12.14,0.01,18.21,0.02c2.33,0,4.66,0,7-0.01
		c0.16,0,0.31-0.02,0.56-0.04c-0.15-0.4-0.26-0.75-0.42-1.08c-2.99-6.21-7.89-9.58-14.82-9.78c-3.49-0.1-6.98-0.03-10.47-0.02
		c-0.51,0-0.67-0.14-0.66-0.66c0.03-1.44,0.03-2.88,0-4.33c-0.01-0.44,0.15-0.54,0.56-0.54c7.46,0.01,14.92,0.01,22.38,0.01
		c6.73,0,13.46,0,20.19,0c0.71,0,0.7,0,0.7,0.69c0,1.41-0.02,2.81,0.01,4.22c0.01,0.48-0.15,0.6-0.61,0.6
		c-5.7-0.01-11.4-0.01-17.09-0.01c-0.21,0-0.42,0-0.73,0c0.15,0.18,0.21,0.27,0.29,0.35c3.04,2.81,5.16,6.19,6.27,10.19
		c0.11,0.4,0.36,0.41,0.68,0.41c3.51-0.01,7.02,0,10.52-0.02c0.56,0,0.69,0.17,0.68,0.7c-0.03,1.42-0.03,2.85,0,4.27
		c0.01,0.43-0.13,0.54-0.55,0.54c-3.24-0.02-6.48-0.01-9.72-0.01c-0.21,0-0.42,0-0.66,0c-0.19,6.77-2.76,12.38-7.88,16.76
		c-5.14,4.39-11.22,5.61-17.81,5.07c-0.01,0.07-0.03,0.15-0.04,0.22c9.78,9.03,19.56,18.06,29.43,27.17
		c-0.26,0.03-0.4,0.06-0.55,0.06c-2.33,0-4.67,0.02-7-0.02c-0.3,0-0.66-0.16-0.88-0.37c-8.04-7.4-16.07-14.82-24.1-22.24
		c-1.23-1.14-2.45-2.28-3.69-3.4c-0.27-0.25-0.4-0.5-0.39-0.87c0.02-1.8,0.02-3.6-0.01-5.39c-0.01-0.45,0.12-0.57,0.57-0.57
		c3.29,0.02,6.59,0.01,9.88,0.02c6.06,0.02,10.86-2.43,14.27-7.45c1.75-2.57,2.57-5.46,2.66-8.56
		C209.5,83.61,209.48,83.49,209.46,83.3z"/>
</g>
<g>
	<linearGradient id="SVGID_7_" gradientUnits="userSpaceOnUse" x1="182.1141" y1="96.9823" x2="225.9636" y2="96.9823">
		<stop  offset="0.3081" style="stop-color:#FFA340"/>
		<stop  offset="1" style="stop-color:#FCD224"/>
	</linearGradient>
	<path class="st13" d="M209.46,83.3c-0.9,0-1.79,0-2.68,0c-7.99,0-15.99,0-23.98,0.02c-0.53,0-0.7-0.12-0.69-0.67
		c0.04-1.41,0.03-2.81,0.01-4.22c-0.01-0.46,0.11-0.62,0.59-0.61c6.07,0.02,12.14,0.01,18.21,0.02c2.33,0,4.66,0,7-0.01
		c0.16,0,0.31-0.02,0.56-0.04c-0.15-0.4-0.26-0.75-0.42-1.08c-2.99-6.21-7.89-9.58-14.82-9.78c-3.49-0.1-6.98-0.03-10.47-0.02
		c-0.51,0-0.67-0.14-0.66-0.66c0.03-1.44,0.03-2.88,0-4.33c-0.01-0.44,0.15-0.54,0.56-0.54c7.46,0.01,14.92,0.01,22.38,0.01
		c6.73,0,13.46,0,20.19,0c0.71,0,0.7,0,0.7,0.69c0,1.41-0.02,2.81,0.01,4.22c0.01,0.48-0.15,0.6-0.61,0.6
		c-5.7-0.01-11.4-0.01-17.09-0.01c-0.21,0-0.42,0-0.73,0c0.15,0.18,0.21,0.27,0.29,0.35c3.04,2.81,5.16,6.19,6.27,10.19
		c0.11,0.4,0.36,0.41,0.68,0.41c3.51-0.01,7.02,0,10.52-0.02c0.56,0,0.69,0.17,0.68,0.7c-0.03,1.42-0.03,2.85,0,4.27
		c0.01,0.43-0.13,0.54-0.55,0.54c-3.24-0.02-6.48-0.01-9.72-0.01c-0.21,0-0.42,0-0.66,0c-0.19,6.77-2.76,12.38-7.88,16.76
		c-5.14,4.39-11.22,5.61-17.81,5.07c-0.01,0.07-0.03,0.15-0.04,0.22c9.78,9.03,19.56,18.06,29.43,27.17
		c-0.26,0.03-0.4,0.06-0.55,0.06c-2.33,0-4.67,0.02-7-0.02c-0.3,0-0.66-0.16-0.88-0.37c-8.04-7.4-16.07-14.82-24.1-22.24
		c-1.23-1.14-2.45-2.28-3.69-3.4c-0.27-0.25-0.4-0.5-0.39-0.87c0.02-1.8,0.02-3.6-0.01-5.39c-0.01-0.45,0.12-0.57,0.57-0.57
		c3.29,0.02,6.59,0.01,9.88,0.02c6.06,0.02,10.86-2.43,14.27-7.45c1.75-2.57,2.57-5.46,2.66-8.56
		C209.5,83.61,209.48,83.49,209.46,83.3z"/>
</g>
</svg>
