<?xml version="1.0" encoding="utf-8"?>
<!-- Generator: Adobe Illustrator 23.0.1, SVG Export Plug-In . SVG Version: 6.00 Build 0)  -->
<svg version="1.1" id="Layer_1" xmlns="http://www.w3.org/2000/svg" xmlns:xlink="http://www.w3.org/1999/xlink" x="0px" y="0px"
	 viewBox="0 0 512 512" style="enable-background:new 0 0 512 512;" xml:space="preserve">
<style type="text/css">
	.st0{fill:#E2EBF9;}
	.st1{fill:#FFFFFF;}
	.st2{fill:#434C54;}
	.st3{fill:#FF9052;}
</style>
<rect x="66.6" y="131.49" class="st0" width="339.02" height="301.09"/>
<path class="st1" d="M384.55,432.04H75.88c-16.76,0-30.35-13.59-30.35-30.35V155.08c0-18.27,14.81-33.09,33.09-33.09h305.93V432.04z
	"/>
<path class="st2" d="M428.12,144.99c0,89,0,178,0,267c-0.25,0.81-0.56,1.61-0.74,2.43c-3.56,15.92-13.06,26.5-28.48,31.75
	c-2.21,0.75-4.51,1.22-6.77,1.82c-104,0-208,0-312,0c-0.2-0.15-0.38-0.37-0.6-0.43c-23.97-5.67-35.4-20.15-35.4-44.86
	c0-70.61,0-141.22,0-211.83c0-13.75-0.19-27.5,0.07-41.24c0.26-14.05,6.43-25.21,17.87-33.34c7.35-5.22,15.73-7.38,24.81-7.38
	c0.27-1.1,0.53-2.05,0.73-3.02c1.83-8.8,5.25-16.91,10.6-24.15c13.75-18.58,36.44-23.13,54.53-10.89c9,6.09,14.97,14.61,18.78,24.64
	c1.63,4.29,2.7,8.79,4.04,13.27c5.41,0,10.84,0,16.38,0c0.26-1.15,0.48-2.11,0.68-3.08c2.2-10.33,6.46-19.66,13.55-27.58
	c16.51-18.45,42.28-18.79,59.12-0.83c6.18,6.6,10.35,14.34,12.87,22.98c0.83,2.84,1.52,5.73,2.27,8.59c5.58,0,10.93,0,16.21,0
	c0.2-0.34,0.38-0.54,0.44-0.77c0.21-0.85,0.38-1.7,0.57-2.55c2.26-10.17,6.43-19.4,13.39-27.26c12.81-14.46,31.77-18.34,47.83-9.75
	c9.86,5.28,16.73,13.42,21.14,23.52c2.33,5.34,3.85,11.02,5.82,16.79c0.65,0.04,1.63,0.11,2.62,0.17
	c14.15,0.92,25.55,7.01,32.95,19.13C424.52,133.23,425.93,139.34,428.12,144.99z M66.64,221.69c0,1.57,0,2.91,0,4.26
	c-0.01,59.48-0.02,118.96-0.02,178.44c0,13.59,7.5,21.1,21.08,21.1c98.97,0,197.93,0,296.9,0c13.56,0,21.02-7.51,21.02-21.15
	c0-59.48-0.01-118.96-0.02-178.44c0-1.34,0-2.68,0-4.22C292.57,221.69,179.9,221.69,66.64,221.69z M109.85,131.63
	c0.98,2.71,1.61,5,2.62,7.11c4.1,8.52,9.6,15.01,20.17,15.44c5.71,0.23,9.91,5.79,9.71,11.44c-0.2,5.83-4.91,10.67-10.85,10.83
	c-7.31,0.19-14.07-1.85-20.25-5.72c-12.23-7.64-19.03-19.11-22.85-32.65c-0.6-2.12-1.04-4.29-1.52-6.34
	c-11.13-0.75-20.1,7.34-20.2,18.21c-0.14,15.62-0.05,31.24-0.04,46.86c0,0.69,0.24,1.39,0.35,2c112.91,0,225.59,0,338.63,0
	c0-1.39,0-2.61,0-3.82c-0.01-14.37,0-28.74-0.02-43.11c-0.02-12.63-7.71-20.37-20.27-20.38c-20.49-0.02-40.99-0.01-61.48,0
	c-1.18,0-2.36,0.11-3.79,0.18c0.29,1.05,0.45,1.77,0.7,2.46c3.8,10.67,9.19,19.32,22.22,20.1c5.7,0.34,9.75,6.12,9.37,11.72
	c-0.39,5.82-5.19,10.61-11.18,10.42c-3.94-0.12-8.03-0.67-11.74-1.95c-16.26-5.64-25.11-18.15-30.25-33.82
	c-0.96-2.93-1.6-5.97-2.38-8.94c-27.29,0-54.36,0-81.46,0c1.46,9.78,10.57,23.05,22.14,22.57c5.55-0.23,9.8,5.31,9.89,10.83
	c0.08,5.52-4,10.48-9.57,11.25c-2.07,0.29-4.26,0.16-6.34-0.16c-15.17-2.35-25.69-11.23-32.55-24.42
	c-3.24-6.23-5.14-13.17-7.77-20.1C164.63,131.63,137.54,131.63,109.85,131.63z M110.1,108.79c14.25,0,28.02,0,41.82,0
	c-1.21-6.81-4.96-13.57-9.79-17.78c-6.86-5.98-15.14-6.02-21.98-0.02C114.81,95.67,111.86,101.72,110.1,108.79z M320.11,108.76
	c14.21,0,28.01,0,42.04,0c-1.68-6.69-4.45-12.46-9.29-17.08c-7.22-6.89-16.16-6.91-23.42-0.03
	C324.58,96.26,321.8,102.03,320.11,108.76z M215.04,108.86c14.19,0,28,0,42.16,0c-2.09-7.71-5.27-14.46-11.74-19.16
	c-6.3-4.57-13.54-4.27-19.64,0.73C220.09,95.11,217,101.37,215.04,108.86z"/>
<path class="st3" d="M203.65,321.05c-19.54-21.87-14.11-49.88,2.37-64.72c17.37-15.64,43.74-15.43,60.94,0.73
	c16.51,15.52,20.41,42.9,1.73,63.85c2.76,2.08,5.63,4.01,8.24,6.24c14.82,12.61,22.39,28.73,22.91,48.15
	c0.14,5.12,0.11,10.24,0.03,15.36c-0.11,6.8-4.81,11.56-11.62,11.57c-34.73,0.04-69.45,0.03-104.18-0.02
	c-6.21-0.01-11.41-4.18-11.56-10c-0.29-11.08-0.99-22.25,2.15-33.13c4.43-15.37,13.3-27.49,26.6-36.38
	C201.97,322.22,202.67,321.72,203.65,321.05z M277.4,379.58c0.3-17.17-5.96-30.68-20.73-39.18c-14.75-8.49-29.8-7.8-43.84,1.74
	c-13,8.82-18.46,21.67-17.92,37.44C222.48,379.58,249.67,379.58,277.4,379.58z M258.6,289.59c-0.07-12.32-10.19-22.36-22.52-22.34
	c-12.44,0.02-22.59,10.34-22.45,22.82c0.14,12.27,10.38,22.26,22.71,22.16C248.58,312.13,258.67,301.87,258.6,289.59z"/>
</svg>
