<?xml version="1.0" encoding="utf-8"?>
<!-- Generator: Adobe Illustrator 23.0.1, SVG Export Plug-In . SVG Version: 6.00 Build 0)  -->
<svg version="1.1" id="Capa_1" xmlns="http://www.w3.org/2000/svg" xmlns:xlink="http://www.w3.org/1999/xlink" x="0px" y="0px"
	 viewBox="0 0 400 410" style="enable-background:new 0 0 400 410;" xml:space="preserve">
<style type="text/css">
	.st0{fill:none;}
	.st1{fill:#FFFFFF;}
	.st2{fill:#E2EBF9;}
	.st3{fill:#FF914D;}
	.st4{fill:#FF8125;}
	.st5{fill:#434C54;}
</style>
<path class="st0" d="M272.9,256.5c-27.9,5.4-94.3,8.6-109,0c-9.6-5.6-37-6.2-54.9-5.9v4.2c18.3-2,34.1-0.1,54.2,6.4
	c0.2,0.1,0.4,0.1,0.6,0.2s0.5,0.1,0.7,0.2c0.5,0.1,1.1,0.3,1.7,0.5c7.7,2.1,23.7,6.5,37.7,4.6c16-2.2,43.1-4.3,62.9-5.5
	c0.2,0,0.5,0,0.7,0c10.1,0.7,18,3.6,23.5,8.7v-9.8C286.9,256.8,281.2,255,272.9,256.5z"/>
<path class="st1" d="M364.8,237.8l-53.2,58.8c-0.7,0.8-1.6,1.3-2.6,1.6c-1.7,0.5-3.4,1.1-5.2,1.8c-2.7,1-5.5,2-8.5,2.7
	c-0.1,0-0.1,0-0.2,0.1c-25.4,6.1-53.5,10-80.6,13.8c-10.9,1.5-21.2,3-31.3,4.5c-0.3,0-0.6,0.1-0.9,0.1h-0.1c-7.5-0.2-12.9-5-13.4-12
	c-0.2-3.1,2.1-5.9,5.3-6.1s5.9,2.1,6.1,5.3c0,0.6,0.1,1.3,1.9,1.4c10.1-1.6,20.7-3,30.9-4.5c25.4-3.6,51.7-7.3,75.4-12.7
	c0-0.3,0.1-0.6,0.1-0.9c0.1-0.7,0.3-1.8,0.3-2.2c-1.8-10.9-8.3-16-21.7-17.1c-19.5,1.2-46,3.3-61.6,5.4c-16.3,2.2-33.8-2.6-42.2-4.9
	c-0.6-0.2-1.2-0.3-1.7-0.5c-1.4-0.4-2.3-0.6-2.8-0.8c-0.6-0.2-1.2-0.4-1.7-0.6c-19.8-6-34.6-7.1-53.7-4.1c-6,0.9-13.2,2.2-20.8,3.6
	c-3,0.5-6.1,1.1-9.1,1.6v60c23.7,4,70.5,12.2,94.9,19c10,2.8,20.5,2.6,30.4-0.5c36.5-11.4,97.9-28.2,119.8-39.2
	c4.6-0.8,22.5-19.4,22.5-19.4c10.4-18.6,23.2-37.8,35.5-56.4c-1.3-0.5-2.9-0.8-4.6-0.8C369,234.9,366.6,235.9,364.8,237.8z"/>
<path class="st2" d="M318.6,311.6c-21.9,11-83.2,27.8-119.8,39.2c-9.9,3.1-20.5,3.3-30.4,0.5c-24.4-6.8-71.2-15-94.9-19v32.2
	c23.8,4,71.5,12.4,96.4,19.3c8.9,2.5,18.4,2.4,27.2-0.4c9.2-2.9,19.9-6,31.2-9.4c33.6-10,71.8-21.4,87.7-29.5
	c0.4-0.2,0.8-0.4,1.3-0.5c2.7-1.3,12-9.8,19.2-17.3c9.6-17.2,21.3-34.8,32.6-51.9c4.7-7,9.5-14.4,14-21.3c3.8-5.9-1.3-13.9-2.8-15.7
	c-0.5-0.5-1.8-1.4-3.6-2c-12.3,18.6-25.1,37.8-35.5,56.4C341.1,292.2,323.3,310.9,318.6,311.6z"/>
<rect x="19.1" y="262.2" class="st3" width="11.8" height="116"/>
<path class="st4" d="M59,329.9V269c1-0.2,2.1-0.3,3.2-0.5v-6.3H30.9v116h31.3v-9.8c-2-0.3-3.2-0.5-3.2-0.5V329.9z"/>
<path class="st4" d="M59,269v60.9c0,0,1.1,0.2,3.2,0.5v-61.9C61.1,268.7,60.1,268.8,59,269z"/>
<path class="st4" d="M59,367.8c0,0,1.1,0.2,3.2,0.5v-38c-2-0.3-3.2-0.5-3.2-0.5V367.8z"/>
<path class="st5" d="M388.9,230.4c-3.4-4-10.1-6.7-16.6-6.9c-6.2-0.1-11.8,2.2-15.8,6.6l-52.2,57.7c-0.6,0.2-1.2,0.4-1.8,0.6
	l-11.4-18.5c-5.5-5.1-13.4-8-23.5-8.7c-0.3,0-0.5,0-0.7,0c-19.8,1.2-46.9,3.3-62.9,5.5c-14,1.9-30-2.5-37.7-4.6
	c-0.6-0.2-1.2-0.3-1.7-0.5c-0.3-0.1-0.5-0.1-0.7-0.2s-0.4-0.2-0.6-0.2c-20.1-6.4-35.9-8.3-54.2-6.4l-11.4,1.6c-5.2,0.9-11,1.9-17,3
	c-2.4,0.4-4.8,0.9-7.1,1.3c-0.6-5.6-5.3-9.9-11.1-9.9H19c-6.1,0-11.1,5-11.1,11.1v116.4c0,6.1,5,11.1,11.1,11.1h43.5
	c6.1,0,11.1-5,11.1-11.1V376c24.1,4.1,69.6,12.1,93.3,18.7c5.2,1.5,10.6,2.2,16,2.2c6,0,11.9-0.9,17.7-2.7c9.1-2.8,19.8-6,31-9.4
	c33.7-10,71.8-21.4,89-29.9c2.3-0.7,6-2.8,15-11.2c5.1-4.8,9.5-9.4,9.7-9.6c0.3-0.4,0.6-0.7,0.9-1.2c9.5-17,21.2-34.7,32.5-51.9
	c4.7-7.1,9.5-14.4,14-21.5C399.3,249.3,394,236.5,388.9,230.4z M387.8,256.6c-15.3,23.8-33.1,49.2-46.7,73.6
	c0,0-17.9,18.6-22.5,19.4c-21.2,10.7-79.4,26.8-116.3,38.1c-1.2,0.4-2.4,0.7-3.5,1.1c-9.9,3.1-20.5,3.3-30.4,0.5
	c-26.5-7.4-79.6-16.5-100.6-20v9.1c0,3-2.4,5.5-5.4,5.5H30.9h-12c-3,0-5.4-2.4-5.4-5.5V262c0-3,2.4-5.5,5.4-5.5h12h31.5
	c0.2,0,0.4,0,0.6,0c2.8,0.3,4.9,2.6,4.9,5.4v5.5c11.8-2,24.9-4.5,34.7-6.1c21.6-3.4,38.1-1.5,58.9,5.2c0,0-5.2-1.3,1.6,0.5
	c7.6,2,25.4,7.4,41.7,5.2c16.3-2.2,44-4.4,62.4-5.5c14.8,1,24.8,7.1,27.3,21.9c0.4,2.5-1.1,6-0.6,8.5c4.6-1,9-3.1,13.5-4.4
	l53.2-58.8c5.7-6.2,14.5-5.4,19.9-2.7l0,0c0.2,0.1,0.5,0.2,0.7,0.4l0,0c0.2,0.1,0.4,0.2,0.6,0.3h0.1c0.2,0.1,0.4,0.2,0.5,0.3
	c0,0,0.1,0,0.1,0.1c0.1,0.1,0.3,0.2,0.4,0.3l0.1,0.1c0.1,0.1,0.3,0.2,0.4,0.3l0.1,0.1c0.1,0.1,0.2,0.2,0.3,0.3l0.1,0.1
	c0.1,0.1,0.3,0.3,0.4,0.4C387.5,237.6,393.3,248.1,387.8,256.6z"/>
<path class="st5" d="M382.6,232.5c0.1,0.1,0.3,0.2,0.4,0.3C382.9,232.7,382.8,232.6,382.6,232.5z"/>
<path class="st5" d="M382,232.1c0.2,0.1,0.4,0.2,0.5,0.3C382.3,232.3,382.2,232.2,382,232.1z"/>
<path class="st5" d="M383.2,232.9c0.1,0.1,0.3,0.2,0.4,0.3C383.4,233.1,383.3,233,383.2,232.9z"/>
<path class="st5" d="M383.7,233.3c0.1,0.1,0.2,0.2,0.3,0.3C383.9,233.5,383.8,233.4,383.7,233.3z"/>
<path class="st5" d="M381.3,231.7c0.2,0.1,0.4,0.2,0.6,0.3C381.7,231.9,381.5,231.8,381.3,231.7z"/>
<path class="st5" d="M380.6,231.3c0.2,0.1,0.5,0.2,0.7,0.4C381,231.5,380.8,231.4,380.6,231.3z"/>
<path class="st5" d="M387.8,256.6c-15.3,23.8-33.1,49.2-46.7,73.6C354.8,305.8,372.6,280.4,387.8,256.6z"/>
<path class="st5" d="M384.2,233.7c0.1,0.1,0.3,0.3,0.4,0.4C384.4,234,384.3,233.9,384.2,233.7z"/>
<path class="st5" d="M73.6,332.3v-60c3-0.5,6.1-1.1,9.1-1.6c7.6-1.4,14.8-2.7,20.8-3.6c19.1-3,33.9-1.9,53.7,4.1
	c0.5,0.3,1,0.5,1.7,0.6c0.5,0.1,1.4,0.4,2.8,0.8c0.5,0.1,1.1,0.3,1.7,0.5c8.4,2.3,25.9,7.1,42.2,4.9c15.6-2.1,42.1-4.2,61.6-5.4
	c13.4,1,19.9,6.1,21.7,17.1c0,0.4-0.2,1.5-0.3,2.2c0,0.3-0.1,0.6-0.1,0.9c-23.8,5.4-50,9.1-75.4,12.7c-10.3,1.4-20.9,2.9-30.9,4.5
	c-1.8-0.1-1.8-0.9-1.9-1.4c-0.2-3.1-2.9-5.5-6.1-5.3c-3.1,0.2-5.5,2.9-5.3,6.1c0.5,7,5.9,11.9,13.4,12h0.1c0.3,0,0.6,0,0.9-0.1
	c10.1-1.6,20.4-3,31.3-4.5c27.2-3.8,55.3-7.8,80.6-13.8c0.1,0,0.1,0,0.2-0.1c3-0.7,5.8-1.7,8.5-2.7c1.8-0.7,3.5-1.3,5.2-1.8
	c1-0.3,1.9-0.9,2.6-1.6l53.2-58.8c1.8-2,4.2-2.9,7.2-2.9c1.7,0,3.3,0.4,4.6,0.8c1.1-1.6,2.1-3.2,3.2-4.9c0.3,0.1,0.5,0.2,0.8,0.3
	c-5.5-2.6-14.2-3.5-19.9,2.7l-53.2,58.8c-4.5,1.3-9,3.4-13.5,4.4c-0.5-2.6,1-6,0.6-8.5c-2.5-14.7-12.5-20.8-27.3-21.9
	c-18.5,1.1-46.1,3.3-62.4,5.5s-34.1-3.1-41.7-5.2c-6.8-1.8-1.6-0.5-1.6-0.5c-20.9-6.7-37.3-8.6-58.9-5.2c-9.7,1.5-22.9,4-34.7,6.1
	v63.8C69.6,331.6,71.5,331.9,73.6,332.3z"/>
<path class="st5" d="M381.3,231.6C381.3,231.7,381.3,231.7,381.3,231.6C381.3,231.7,381.3,231.6,381.3,231.6z"/>
<path class="st5" d="M381.9,232C381.9,232,382,232,381.9,232C382,232,381.9,232,381.9,232z"/>
<path class="st5" d="M380.6,231.3L380.6,231.3L380.6,231.3z"/>
<path class="st5" d="M168.4,389.3c10,2.8,20.5,2.6,30.4-0.5C189,391.9,178.4,392,168.4,389.3z"/>
<path class="st5" d="M318.6,349.6c-21.2,10.7-79.4,26.8-116.3,38.1C239.2,376.4,297.4,360.3,318.6,349.6z"/>
<path class="st5" d="M382.5,232.4c0,0,0.1,0,0.1,0.1C382.6,232.4,382.5,232.4,382.5,232.4z"/>
<path class="st5" d="M383.1,232.8l0.1,0.1C383.1,232.8,383.1,232.8,383.1,232.8z"/>
<path class="st5" d="M383.6,233.2l0.1,0.1C383.7,233.3,383.6,233.2,383.6,233.2z"/>
<path class="st5" d="M384,233.6l0.1,0.1C384.1,233.7,384.1,233.6,384,233.6z"/>
<path class="st5" d="M384.2,233.7l-0.1-0.1c-0.1-0.1-0.2-0.2-0.3-0.3l-0.1-0.1c-0.1-0.1-0.2-0.2-0.4-0.3l-0.1-0.1
	c-0.1-0.1-0.3-0.2-0.4-0.3c0,0-0.1,0-0.1-0.1c-0.2-0.1-0.3-0.2-0.5-0.3h-0.1c-0.2-0.1-0.4-0.2-0.6-0.3l0,0c-0.2-0.1-0.5-0.2-0.7-0.4
	l0,0c-0.2-0.1-0.5-0.2-0.8-0.3c-1.1,1.6-2.1,3.2-3.2,4.9c1.8,0.6,3.1,1.5,3.6,2c1.5,1.8,6.6,9.8,2.8,15.7c-4.5,7-9.3,14.3-14,21.3
	c-11.3,17.1-22.9,34.7-32.6,51.9c-7.3,7.5-16.5,16-19.2,17.3c-0.4,0.1-0.9,0.3-1.3,0.5c-16,8-54.1,19.4-87.7,29.5
	c-11.3,3.4-22,6.6-31.2,9.4c-8.9,2.8-18.3,2.9-27.2,0.4c-24.9-7-72.6-15.3-96.4-19.3v-32.2c-2.1-0.4-4-0.7-5.7-1v38
	c21,3.5,74,12.6,100.6,20c10,2.8,20.5,2.6,30.4-0.5c1.1-0.4,2.3-0.7,3.5-1.1c36.8-11.4,95.1-27.5,116.3-38.1
	c4.6-0.8,22.5-19.4,22.5-19.4c13.6-24.4,31.4-49.8,46.7-73.6c5.5-8.5-0.3-18.9-3.3-22.4C384.4,234,384.3,233.9,384.2,233.7z"/>
<path class="st5" d="M19.1,378.2v-116h11.8v-5.7h-12c-3,0-5.4,2.4-5.4,5.5v116.4c0,3,2.4,5.5,5.4,5.5h12v-5.7L19.1,378.2L19.1,378.2
	z"/>
<path class="st5" d="M67.9,262c0-2.8-2.1-5.1-4.9-5.4C65.7,256.8,67.9,259.2,67.9,262z"/>
<path class="st5" d="M62.2,262.2v6.3c1.8-0.3,3.7-0.6,5.7-1V262c0-2.8-2.1-5.1-4.9-5.4c-0.2,0-0.4,0-0.6,0H30.9v5.7L62.2,262.2
	L62.2,262.2z"/>
<path class="st5" d="M62.2,378.2H30.9v5.7h31.5c3,0,5.4-2.4,5.4-5.5v-9.1c-2.3-0.4-4.2-0.7-5.7-0.9L62.2,378.2L62.2,378.2z"/>
<path class="st5" d="M62.2,330.4c1.4,0.2,3.4,0.5,5.7,0.9v-63.8c-1.9,0.3-3.8,0.7-5.7,1V330.4z"/>
<path class="st5" d="M62.2,330.4v38c1.4,0.2,3.4,0.5,5.7,0.9v-38C65.6,331,63.6,330.6,62.2,330.4z"/>
<g>
	<path class="st5" d="M169.93,87.94c31.16,0,62.33,0.23,93.49-0.11c13.45-0.15,21.63,8.7,21.54,20.35
		c-0.3,36.93-0.1,73.87-0.1,110.81c0,11.89-7.95,19.57-20.34,19.57c-62.95,0.01-125.9,0.01-188.85-0.01
		c-12.71,0-20.52-7.37-20.53-19.26c-0.01-37.52,0.02-75.04-0.03-112.56c-0.01-4.88,1.36-9.21,4.84-12.85
		c4.06-4.25,9.23-5.96,15.25-5.95c17.7,0.05,35.41,0.01,53.11,0.01C142.18,87.94,156.06,87.94,169.93,87.94z M170.09,105.57
		C170.09,105.57,170.09,105.56,170.09,105.57c-9.01-0.01-18.02-0.01-27.03-0.01c-19.88,0-39.76,0.03-59.65-0.01
		c-4.02-0.01-7.2,1.32-8.73,4.85c-0.75,1.73-0.84,3.79-0.85,5.7c-0.05,31.59-0.04,63.19-0.03,94.78c0,6.99,3.11,9.97,10.5,9.98
		c13.15,0.02,26.3,0.02,39.45,0.02c43.8,0,87.61,0.01,131.41,0c7.94,0,10.76-2.73,10.76-10.26c0-31.79,0-63.58,0-95.37
		c0-6.72-3.06-9.67-10.09-9.68C227.25,105.56,198.67,105.57,170.09,105.57z"/>
	<path class="st5" d="M295.19,190.29c0-6.89-0.47-13.62,0.17-20.26c0.39-4.12,2.78-8.03,3.72-12.15
		c4.33-18.77,8.46-37.59,12.75-56.77c-5.15-1.05-10.14-2.18-15.18-3.04c-1.98-0.34-2.93-1.15-3.76-2.86
		c-5.35-11.07-14.55-16.96-27.54-17.05c-21.43-0.14-42.88,0.3-64.3-0.21c-8.16-0.19-16.33-2.11-24.4-3.63
		c-17.03-3.21-33.99-6.68-50.99-10.04c-0.49-0.1-1-0.07-1.79-0.11c-1.06,4.59-2.11,9.1-3.2,13.78c-6.21,0-12.39,0-19.06,0
		c0.75-3.56,1.46-7.02,2.22-10.47c3.48-15.58,6.98-31.15,10.45-46.73c2.45-10.98,11.58-17.05,23.29-14.83
		c26.04,4.94,52.02,10.15,78.02,15.29c36.01,7.11,72.02,14.25,108.03,21.38c11.75,2.32,17.99,11.21,15.51,22.29
		c-8.28,37.04-16.58,74.08-24.9,111.12C312.26,184.87,304.37,190.87,295.19,190.29z M316.75,79.15c0.93-4.09,1.9-7.67,2.51-11.3
		c0.84-4.99-2.03-8.49-7.57-9.58c-31.77-6.26-63.55-12.52-95.32-18.79c-24.79-4.89-49.57-9.81-74.36-14.72
		c-4.44-0.88-8.69,0.7-10.01,4.41c-1.46,4.08-2.19,8.39-3.29,12.85C191.58,54.44,253.97,66.76,316.75,79.15z"/>
	<path class="st2" d="M170.09,105.57c28.58,0,57.16-0.01,85.74,0.01c7.04,0,10.09,2.95,10.09,9.68c0.01,31.79,0,63.58,0,95.37
		c0,7.53-2.82,10.26-10.76,10.26c-43.8,0.01-87.61,0-131.41,0c-13.15,0-26.3,0.01-39.45-0.02c-7.39-0.01-10.5-2.99-10.5-9.98
		c0-31.59-0.01-63.19,0.03-94.78c0-1.91,0.1-3.98,0.85-5.7c1.53-3.53,4.71-4.85,8.73-4.85c19.88,0.04,39.76,0.01,59.65,0.01
		C152.08,105.56,161.08,105.56,170.09,105.57C170.09,105.56,170.09,105.57,170.09,105.57z M220.94,121.25c0,0,0,0.01,0,0.01
		c-6.52,0-13.04-0.04-19.56,0.01c-4.98,0.04-6.91,1.89-6.93,6.59c-0.03,7.29-0.02,14.58,0,21.86c0.01,5,1.98,6.96,7.26,6.97
		c12.84,0.04,25.67,0.04,38.51,0c4.98-0.02,6.99-1.93,7.01-6.56c0.03-7.29,0-14.58,0-21.86c0-5.39-1.79-7.03-7.65-7.03
		C233.37,121.25,227.16,121.25,220.94,121.25z M133.74,146.51c-11.49,0-22.99-0.01-34.48,0.01c-4.12,0.01-6.61,1.87-6.7,4.94
		c-0.1,3.07,2.42,5.22,6.45,5.23c23.19,0.04,46.39,0.04,69.58,0c4.22-0.01,6.48-1.91,6.47-5.14c-0.02-3.22-2.33-5.02-6.53-5.03
		C156.94,146.5,145.34,146.51,133.74,146.51z M123.48,131.3c8.38,0,16.76,0.02,25.14-0.01c4.03-0.01,6.54-2.04,6.46-5.13
		c-0.08-3.01-2.45-4.88-6.39-4.89c-16.56-0.02-33.11-0.02-49.67,0c-4.06,0.01-6.56,2.04-6.47,5.12c0.09,3.01,2.49,4.88,6.4,4.9
		C107.14,131.32,115.31,131.3,123.48,131.3z M115.23,205.27c5.48,0,10.97,0.03,16.45-0.01c3.98-0.03,6.53-2.13,6.45-5.22
		c-0.08-3-2.53-4.99-6.36-5c-10.86-0.04-21.73-0.04-32.59-0.01c-4.05,0.01-6.57,2-6.61,5.09c-0.04,3.05,2.53,5.12,6.53,5.15
		C104.47,205.3,109.85,205.27,115.23,205.27z M169.9,205.27c5.48,0,10.97,0.02,16.45-0.01c3.86-0.02,6.24-1.96,6.28-5.02
		c0.04-3.11-2.29-5.21-6.08-5.22c-11.07-0.04-22.14-0.04-33.21,0.01c-3.84,0.02-6.18,2.07-6.15,5.16c0.03,3.05,2.43,5.04,6.26,5.06
		C158.93,205.3,164.41,205.27,169.9,205.27z M224.42,205.27c5.48,0,10.96,0.03,16.44-0.01c4.06-0.03,6.4-2.01,6.33-5.25
		c-0.07-3.08-2.37-4.97-6.3-4.98c-10.86-0.04-21.72-0.03-32.57,0c-4.13,0.01-6.49,1.92-6.5,5.1c-0.01,3.2,2.35,5.1,6.47,5.13
		C213.67,205.29,219.05,205.27,224.42,205.27z"/>
	<path class="st1" d="M159.13,105.57c28.58,0,57.16-0.01,85.74,0.01c7.04,0,10.09,2.95,10.09,9.68c0.01,31.79,0,63.58,0,95.37
		c0,7.53-2.82,10.26-10.76,10.26c-43.8,0.01-87.61,0-131.41,0c-13.15,0-26.3,0.01-39.45-0.02c-7.39-0.01-10.5-2.99-10.5-9.98
		c0-31.59-0.01-63.19,0.03-94.78c0-1.91,0.1-3.98,0.85-5.7c1.53-3.53,4.71-4.85,8.73-4.85c19.88,0.04,39.76,0.01,59.65,0.01
		C141.11,105.56,150.12,105.56,159.13,105.57C159.13,105.56,159.13,105.57,159.13,105.57z M209.98,121.25c0,0,0,0.01,0,0.01
		c-6.52,0-13.04-0.04-19.56,0.01c-4.98,0.04-6.91,1.89-6.93,6.59c-0.03,7.29-0.02,14.58,0,21.86c0.01,5,1.98,6.96,7.26,6.97
		c12.84,0.04,25.67,0.04,38.51,0c4.98-0.02,6.99-1.93,7.01-6.56c0.03-7.29,0-14.58,0-21.86c0-5.39-1.79-7.03-7.65-7.03
		C222.4,121.25,216.19,121.25,209.98,121.25z M122.78,146.51c-11.49,0-22.99-0.01-34.48,0.01c-4.12,0.01-6.61,1.87-6.7,4.94
		c-0.1,3.07,2.42,5.22,6.45,5.23c23.19,0.04,46.39,0.04,69.58,0c4.22-0.01,6.48-1.91,6.47-5.14c-0.02-3.22-2.33-5.02-6.53-5.03
		C145.97,146.5,134.37,146.51,122.78,146.51z M112.52,131.3c8.38,0,16.76,0.02,25.14-0.01c4.03-0.01,6.54-2.04,6.46-5.13
		c-0.08-3.01-2.45-4.88-6.39-4.89c-16.56-0.02-33.11-0.02-49.67,0c-4.06,0.01-6.56,2.04-6.47,5.12c0.09,3.01,2.49,4.88,6.4,4.9
		C96.17,131.32,104.34,131.3,112.52,131.3z M104.26,205.27c5.48,0,10.97,0.03,16.45-0.01c3.98-0.03,6.53-2.13,6.45-5.22
		c-0.08-3-2.53-4.99-6.36-5c-10.86-0.04-21.73-0.04-32.59-0.01c-4.05,0.01-6.57,2-6.61,5.09c-0.04,3.05,2.53,5.12,6.53,5.15
		C93.5,205.3,98.88,205.27,104.26,205.27z M158.93,205.27c5.48,0,10.97,0.02,16.45-0.01c3.86-0.02,6.24-1.96,6.28-5.02
		c0.04-3.11-2.29-5.21-6.08-5.22c-11.07-0.04-22.14-0.04-33.21,0.01c-3.84,0.02-6.18,2.07-6.15,5.16c0.03,3.05,2.43,5.04,6.26,5.06
		C147.96,205.3,153.45,205.27,158.93,205.27z M213.46,205.27c5.48,0,10.96,0.03,16.44-0.01c4.06-0.03,6.4-2.01,6.33-5.25
		c-0.07-3.08-2.37-4.97-6.3-4.98c-10.86-0.04-21.72-0.03-32.57,0c-4.13,0.01-6.49,1.92-6.5,5.1c-0.01,3.2,2.35,5.1,6.47,5.13
		C202.7,205.29,208.08,205.27,213.46,205.27z"/>
	<path class="st1" d="M316.75,79.15c-62.77-12.39-125.16-24.71-188.03-37.12c1.11-4.46,1.84-8.77,3.29-12.85
		c1.32-3.71,5.57-5.28,10.01-4.41c24.79,4.91,49.57,9.82,74.36,14.72c31.77,6.27,63.54,12.52,95.32,18.79
		c5.54,1.09,8.41,4.59,7.57,9.58C318.65,71.48,317.67,75.06,316.75,79.15z"/>
	<path class="st5" d="M220.94,121.25c6.21,0,12.42,0,18.63,0c5.86,0,7.65,1.64,7.65,7.03c0,7.29,0.04,14.58,0,21.86
		c-0.02,4.63-2.03,6.54-7.01,6.56c-12.84,0.04-25.67,0.04-38.51,0c-5.28-0.02-7.25-1.97-7.26-6.97c-0.01-7.29-0.03-14.58,0-21.86
		c0.02-4.7,1.95-6.55,6.93-6.59c6.52-0.05,13.04-0.01,19.56-0.01C220.94,121.26,220.94,121.25,220.94,121.25z"/>
	<path class="st5" d="M133.74,146.51c11.6,0,23.19-0.01,34.79,0c4.2,0.01,6.51,1.81,6.53,5.03c0.02,3.23-2.25,5.14-6.47,5.14
		c-23.19,0.03-46.39,0.03-69.58,0c-4.03-0.01-6.55-2.15-6.45-5.23c0.1-3.07,2.58-4.94,6.7-4.94
		C110.76,146.5,122.25,146.51,133.74,146.51z"/>
	<path class="st5" d="M123.48,131.3c-8.17,0-16.35,0.02-24.52-0.01c-3.91-0.01-6.31-1.89-6.4-4.9c-0.09-3.08,2.41-5.12,6.47-5.12
		c16.56-0.02,33.11-0.02,49.67,0c3.94,0.01,6.31,1.88,6.39,4.89c0.08,3.09-2.42,5.12-6.46,5.13
		C140.25,131.32,131.87,131.3,123.48,131.3z"/>
	<path class="st5" d="M115.23,205.27c-5.38,0-10.76,0.03-16.14-0.01c-4-0.03-6.57-2.1-6.53-5.15c0.04-3.09,2.56-5.08,6.61-5.09
		c10.86-0.03,21.73-0.02,32.59,0.01c3.84,0.01,6.28,2,6.36,5c0.08,3.09-2.46,5.2-6.45,5.22
		C126.2,205.29,120.71,205.27,115.23,205.27z"/>
	<path class="st5" d="M169.9,205.27c-5.48,0-10.97,0.03-16.45-0.01c-3.83-0.03-6.23-2.02-6.26-5.06c-0.03-3.09,2.31-5.14,6.15-5.16
		c11.07-0.05,22.14-0.05,33.21-0.01c3.79,0.01,6.12,2.12,6.08,5.22c-0.04,3.06-2.42,5-6.28,5.02
		C180.86,205.3,175.38,205.27,169.9,205.27z"/>
	<path class="st5" d="M224.42,205.27c-5.38,0-10.75,0.02-16.13-0.01c-4.11-0.03-6.47-1.93-6.47-5.13c0.01-3.18,2.37-5.09,6.5-5.1
		c10.86-0.03,21.72-0.03,32.57,0c3.93,0.01,6.23,1.9,6.3,4.98c0.07,3.23-2.27,5.21-6.33,5.25
		C235.38,205.3,229.9,205.27,224.42,205.27z"/>
</g>
<g>
	<path class="st1" d="M223.7,134.71c-0.37,0-0.73,0-1.1,0c-3.27,0-6.55,0-9.82,0.01c-0.22,0-0.29-0.05-0.28-0.26
		c0.02-0.54,0.01-1.08,0-1.62c0-0.18,0.04-0.24,0.24-0.24c2.49,0.01,4.97,0.01,7.46,0.01c0.96,0,1.91,0,2.87,0
		c0.06,0,0.13-0.01,0.23-0.01c-0.06-0.15-0.11-0.29-0.17-0.42c-1.22-2.39-3.23-3.68-6.07-3.76c-1.43-0.04-2.86-0.01-4.29-0.01
		c-0.21,0-0.28-0.05-0.27-0.25c0.01-0.55,0.01-1.11,0-1.66c0-0.17,0.06-0.21,0.23-0.21c3.06,0,6.11,0,9.17,0c2.76,0,5.51,0,8.27,0
		c0.29,0,0.29,0,0.29,0.27c0,0.54-0.01,1.08,0,1.62c0,0.18-0.06,0.23-0.25,0.23c-2.33-0.01-4.67,0-7,0c-0.09,0-0.17,0-0.3,0
		c0.06,0.07,0.09,0.11,0.12,0.13c1.24,1.08,2.11,2.38,2.57,3.92c0.05,0.16,0.15,0.16,0.28,0.16c1.44,0,2.87,0,4.31-0.01
		c0.23,0,0.28,0.07,0.28,0.27c-0.01,0.55-0.01,1.1,0,1.64c0,0.17-0.05,0.21-0.22,0.21c-1.33-0.01-2.65,0-3.98-0.01
		c-0.09,0-0.17,0-0.27,0c-0.08,2.6-1.13,4.76-3.23,6.44c-2.1,1.69-4.59,2.16-7.29,1.95c-0.01,0.03-0.01,0.06-0.02,0.08
		c4.01,3.47,8.01,6.94,12.05,10.45c-0.11,0.01-0.17,0.02-0.22,0.02c-0.96,0-1.91,0.01-2.87-0.01c-0.12,0-0.27-0.06-0.36-0.14
		c-3.29-2.85-6.58-5.7-9.87-8.55c-0.5-0.44-1-0.88-1.51-1.31c-0.11-0.1-0.16-0.19-0.16-0.34c0.01-0.69,0.01-1.38,0-2.07
		c0-0.17,0.05-0.22,0.23-0.22c1.35,0.01,2.7,0,4.05,0.01c2.48,0.01,4.45-0.93,5.84-2.86c0.72-0.99,1.05-2.1,1.09-3.29
		C223.72,134.83,223.71,134.78,223.7,134.71z"/>
</g>
</svg>
