<?xml version="1.0" encoding="utf-8"?>
<!-- Generator: Adobe Illustrator 23.0.1, SVG Export Plug-In . SVG Version: 6.00 Build 0)  -->
<svg version="1.1" id="Capa_1" xmlns="http://www.w3.org/2000/svg" xmlns:xlink="http://www.w3.org/1999/xlink" x="0px" y="0px"
	 viewBox="0 0 528 528.35" style="enable-background:new 0 0 528 528.35;" xml:space="preserve">
<style type="text/css">
	.st0{fill:#434C54;}
	.st1{fill:#E2EBF9;}
	.st2{fill:#C1C8D2;}
	.st3{fill:#76FFDA;}
	.st4{fill:#5DE1C0;}
	.st5{fill:#FF914D;}
	.st6{fill:#FFFFFF;}
	.st7{fill:#FFAA16;}
	.st8{fill:#FF8125;}
	.st9{fill:#AAB2B9;}
</style>
<path class="st0" d="M-27.78,124.05c0.1,0.1,0.3,0.2,0.4,0.3C-27.48,124.25-27.58,124.15-27.78,124.05z"/>
<path class="st0" d="M-28.38,123.65c0.2,0.1,0.4,0.2,0.5,0.3C-28.08,123.85-28.18,123.75-28.38,123.65z"/>
<path class="st0" d="M-27.18,124.45c0.1,0.1,0.3,0.2,0.4,0.3C-26.98,124.65-27.08,124.55-27.18,124.45z"/>
<path class="st0" d="M-26.68,124.85c0.1,0.1,0.2,0.2,0.3,0.3C-26.48,125.05-26.58,124.95-26.68,124.85z"/>
<path class="st0" d="M-29.08,123.25c0.2,0.1,0.4,0.2,0.6,0.3C-28.68,123.45-28.88,123.35-29.08,123.25z"/>
<path class="st0" d="M-29.78,122.85c0.2,0.1,0.5,0.2,0.7,0.4C-29.38,123.05-29.58,122.95-29.78,122.85z"/>
<path class="st0" d="M-26.18,125.25c0.1,0.1,0.3,0.3,0.4,0.4C-25.98,125.55-26.08,125.45-26.18,125.25z"/>
<path class="st0" d="M-29.08,123.15C-29.08,123.25-29.08,123.25-29.08,123.15C-29.08,123.25-29.08,123.15-29.08,123.15z"/>
<path class="st0" d="M-28.48,123.55C-28.48,123.55-28.38,123.55-28.48,123.55C-28.38,123.55-28.48,123.55-28.48,123.55z"/>
<path class="st0" d="M-29.78,122.85L-29.78,122.85L-29.78,122.85z"/>
<path class="st0" d="M-27.88,123.95c0,0,0.1,0,0.1,0.1C-27.78,123.95-27.88,123.95-27.88,123.95z"/>
<path class="st0" d="M-27.28,124.35l0.1,0.1C-27.28,124.35-27.28,124.35-27.28,124.35z"/>
<path class="st0" d="M-26.78,124.75l0.1,0.1C-26.68,124.85-26.78,124.75-26.78,124.75z"/>
<path class="st0" d="M-26.38,125.15l0.1,0.1C-26.28,125.25-26.28,125.15-26.38,125.15z"/>
<g>
	<path class="st1" d="M182.15,178.84v-28.05h-17.11c-8.14,0-14.73,6.6-14.73,14.73v11.39c0,8.14,6.59,14.73,14.73,14.73h17.11
		V178.84z"/>
	<path class="st1" d="M372.27,150.78h-17.11v40.86h17.11c8.14,0,14.73-6.6,14.73-14.73v-11.39
		C387,157.38,380.41,150.78,372.27,150.78z"/>
	<path class="st1" d="M303.23,370.02l52.79-49.59l-20.96-3.89c-10.11-2.03-17.39-13.77-17.39-24.09v-45.98h-98.03v45.98
		c0,10.32-7.28,22.05-17.39,24.09l-20.96,3.89l52.79,49.59C253.51,388.28,283.79,388.28,303.23,370.02z"/>
</g>
<path class="st2" d="M293.93,246.47v69.73c0,10.32,7.28,22.05,17.39,24.09l18.07,5.17l26.64-25.02l-20.96-3.89
	c-10.11-2.03-17.39-13.77-17.39-24.09v-45.98H293.93z"/>
<path class="st3" d="M329.85,314.02l-61.2,45.74l-61.2-45.74c-3.28-2.45-7.53-3.2-11.45-2.02L93.2,343.02
	c-11.06,3.34-19.29,12.65-21.23,24.04l-22.65,132.6c-1.56,9.13,5.47,17.46,14.73,17.46h409.21c9.26,0,16.29-8.33,14.73-17.46
	l-22.65-132.6c-1.95-11.39-10.17-20.7-21.23-24.04L341.3,312C337.38,310.82,333.13,311.57,329.85,314.02z"/>
<path class="st4" d="M196.01,312l-17.69,5.34l39.03,54.62c3.07,4.3,8.72,5.89,13.59,3.82l37.71-16.02l-61.2-45.74
	C204.18,311.57,199.93,310.82,196.01,312z"/>
<path class="st4" d="M306.37,375.78c4.86,2.07,10.51,0.48,13.58-3.82l39.03-54.62l-0.09-0.03L341.3,312
	c-3.92-1.18-8.17-0.43-11.45,2.02l-61.2,45.74L306.37,375.78z"/>
<path class="st5" d="M268.65,359.76l-29.66,12.6l17.34,20.16h24.64l17.34-20.16L268.65,359.76z"/>
<path class="st5" d="M280.97,392.52h-24.64l-22.76,124.6h70.16L280.97,392.52z"/>
<path class="st6" d="M331.55,55.24c-14.76-12.71-35.5-11.88-62.9-12.19c-27.4,0.3-48.14-0.52-62.9,12.19
	c-18.82,16.21-29.02,40.27-29.02,65.11v72.2c0,24.84,31.22,90.72,91.92,90.72s91.92-65.88,91.92-90.72v-72.2
	C360.57,95.51,350.37,71.44,331.55,55.24z"/>
<path class="st1" d="M331.55,55.24c-5.86-5.05-12.67-7.96-20.46-9.65c0,0.04,0,0.07,0,0.11v146.86c0,21.2-22.76,72.31-67.18,86.82
	c7.62,2.48,15.86,3.9,24.74,3.9c60.7,0,91.92-65.88,91.92-90.72v-72.2C360.57,95.51,350.37,71.44,331.55,55.24z"/>
<path class="st6" d="M268.65,493.98c0,0-68.73-183.16-72.64-181.98L93.2,343.02c-11.06,3.34-19.29,12.65-21.23,24.04l-22.65,132.6
	c-1.56,9.13,5.47,17.46,14.73,17.46h409.21c9.26,0,16.29-8.33,14.73-17.46l-22.65-132.6c-1.95-11.39-10.17-20.7-21.23-24.04
	L341.3,312C337.38,310.82,268.65,493.98,268.65,493.98z"/>
<path class="st1" d="M487.98,499.66l-22.65-132.6c-1.95-11.39-10.17-20.7-21.23-24.04L341.3,312c-1.07-0.32-6.92,12.98-14.88,32.52
	l74.56,22.5c5.64,1.7,9.82,6.45,10.82,12.25l23.55,137.85h37.91C482.52,517.12,489.54,508.78,487.98,499.66z"/>
<path class="st7" d="M323.95,20.12h-110.6c-28.46,0-51.53,23.07-51.53,51.53v84.59c0,0,14.19-0.32,23.31,8.7
	c1.9,1.88,5.13,0.5,5.13-2.16V93.56c0-12.58,10.2-22.78,22.78-22.78h20.7c5.43,0,10.69,1.88,14.89,5.31l2.03,1.66
	c5.08,4.15,11.44,6.42,18,6.42s12.92-2.27,18-6.42l2.03-1.66c4.2-3.43,9.46-5.31,14.89-5.31h20.7c12.58,0,22.77,10.2,22.77,22.78
	v69.21c0,2.67,3.23,4.04,5.13,2.16c9.12-9.02,23.31-8.7,23.31-8.7V71.64C375.48,43.19,352.41,20.12,323.95,20.12z"/>
<path class="st5" d="M323.95,20.12h-49.48c28.19,0,51.08,22.64,51.51,50.73c11.78,0.88,21.07,10.7,21.07,22.71v69.21
	c0,2.67,3.23,4.04,5.13,2.16c9.12-9.02,23.31-8.7,23.31-8.7V71.64C375.48,43.19,352.41,20.12,323.95,20.12z"/>
<path class="st8" d="M409.15,410.99c0,17.29-14.01,31.3-31.3,31.3s-31.3-14.02-31.3-31.3c0-17.28,14.01-31.3,31.3-31.3
	S409.15,393.71,409.15,410.99z"/>
<path class="st7" d="M391.64,410.99c0,7.62-6.18,13.79-13.79,13.79s-13.79-6.17-13.79-13.79c0-7.61,6.18-13.79,13.79-13.79
	S391.64,403.37,391.64,410.99z"/>
<path class="st0" d="M495.38,498.4l-22.65-132.6c-2.44-14.29-12.58-25.77-26.46-29.95l-61.09-18.43
	c-1.27-14.93-7.39-29.02-17.58-40.17c-8.15-8.92-18.4-15.41-29.7-19c1.93-2.14,3.73-4.28,5.37-6.37
	c14.53-18.48,22.3-38.83,24.29-52.72h4.71c12.26,0,22.23-9.98,22.23-22.23v-11.39c0-8.18-4.6-15.6-11.52-19.45v-27.4
	c0-4.14-3.36-7.5-7.5-7.5c-4.14,0-7.5,3.36-7.5,7.5v30.76c-2.92,0.51-6.41,1.38-9.97,2.88c-0.36,0.13-0.72,0.29-1.05,0.47
	c-0.8,0.37-1.61,0.75-2.41,1.19V93.56c0-16.7-13.58-30.28-30.28-30.28h-20.7c-7.14,0-14.11,2.49-19.64,7.01l-2.03,1.66
	c-3.73,3.05-8.43,4.73-13.25,4.73s-9.53-1.68-13.25-4.73l-2.03-1.66c-5.53-4.52-12.5-7.01-19.64-7.01h-20.7
	c-16.69,0-30.27,13.58-30.27,30.28v60.41c-0.8-0.43-1.61-0.82-2.41-1.19c-0.33-0.18-0.69-0.34-1.05-0.47
	c-3.56-1.5-7.05-2.38-9.96-2.89V71.64c0-24.28,19.75-44.03,44.03-44.03h110.6c24.28,0,44.03,19.75,44.03,44.03v11.79
	c0,4.14,3.36,7.5,7.5,7.5c4.14,0,7.5-3.36,7.5-7.5V71.64c0-32.55-26.48-59.03-59.03-59.03h-110.6c-32.55,0-59.03,26.48-59.03,59.03
	v74.43c-6.92,3.85-11.52,11.26-11.52,19.45v11.39c0,12.26,9.97,22.23,22.23,22.23h4.71c1.98,13.89,9.76,34.25,24.29,52.72
	c1.64,2.09,3.43,4.22,5.36,6.37c-25.98,8.25-44.92,31.61-47.27,59.18l-61.09,18.43c-13.88,4.19-24.02,15.66-26.46,29.95l-9.2,53.85
	c-0.7,4.08,2.05,7.96,6.13,8.65c4.09,0.71,7.96-2.05,8.66-6.13l9.2-53.85c1.47-8.64,7.61-15.59,16-18.12l56.5-17.05v20.93
	c0,4.14,3.36,7.5,7.5,7.5c4.14,0,7.5-3.36,7.5-7.5v-25.46l25.77-7.77c2.43,5.11,7.31,16.35,17.13,40.96
	c9.11,22.86,20.24,51.59,30.93,79.55c0.08,0.25,0.17,0.48,0.27,0.71c7.38,19.31,14.54,38.22,20.66,54.54
	c1.1,2.93,3.89,4.87,7.02,4.87c3.13,0,5.92-1.94,7.02-4.87c6.12-16.32,13.28-35.23,20.66-54.54c0.1-0.23,0.19-0.47,0.27-0.71
	c10.86-28.41,22.18-57.61,31.36-80.64c9.54-23.86,14.31-34.85,16.7-39.88l25.77,7.77v51.06c0,4.14,3.36,7.5,7.5,7.5
	s7.5-3.36,7.5-7.5v-46.54l56.5,17.05c8.39,2.53,14.53,9.48,16,18.12l22.65,132.6c0.38,2.2-0.21,4.35-1.65,6.05
	c-1.44,1.7-3.46,2.64-5.69,2.64H64.05c-2.23,0-4.25-0.94-5.69-2.64c-1.44-1.71-2.02-3.86-1.64-6.05l7.47-43.76
	c0.7-4.08-2.05-7.96-6.13-8.65c-4.08-0.7-7.96,2.05-8.66,6.13l-7.47,43.76c-1.12,6.53,0.69,13.18,4.97,18.25
	c4.27,5.06,10.52,7.97,17.15,7.97h409.21c6.63,0,12.88-2.91,17.15-7.97C494.68,511.58,496.49,504.93,495.38,498.4z M369.39,312.65
	l-25.91-7.82c-0.01,0-0.02,0-0.02-0.01c0,0-0.01,0-0.01,0c-4.35-1.31-9-1.1-13.17,0.49c-3.02-3.29-5.11-8.15-5.11-12.86v-21.83
	C347.64,273.94,365.07,290.92,369.39,312.65z M323.86,331.05c-0.34,0.8-0.68,1.63-1.03,2.47c-0.11,0.27-0.22,0.54-0.34,0.81
	c-0.29,0.71-0.59,1.44-0.9,2.18c-0.08,0.2-0.16,0.38-0.24,0.57c-0.09,0.22-0.18,0.45-0.28,0.68c-0.16,0.38-0.31,0.77-0.47,1.15
	c-0.2,0.49-0.4,0.98-0.6,1.48c-0.15,0.36-0.3,0.73-0.45,1.09c-0.4,0.98-0.81,1.98-1.23,3.01c-0.15,0.38-0.3,0.75-0.46,1.14
	c-0.23,0.56-0.46,1.14-0.69,1.71c-0.17,0.41-0.33,0.82-0.5,1.24c-0.22,0.55-0.45,1.11-0.68,1.68c-0.21,0.52-0.42,1.05-0.63,1.58
	c-0.2,0.51-0.41,1.01-0.61,1.53c-0.39,0.99-0.8,1.99-1.2,3.01c-0.15,0.39-0.31,0.79-0.47,1.18c-0.3,0.75-0.59,1.49-0.9,2.25
	c-0.18,0.46-0.36,0.92-0.55,1.39c-0.29,0.71-0.57,1.43-0.86,2.16c-0.18,0.46-0.37,0.93-0.56,1.41c-0.35,0.88-0.7,1.77-1.05,2.68
	c-0.13,0.31-0.25,0.62-0.37,0.93c-0.04,0.09-0.07,0.18-0.11,0.26l-7.36-3.13c-0.04-0.02-0.08-0.04-0.12-0.05l-17.64-7.49
	l42.23-31.56c-0.2,0.46-0.39,0.93-0.6,1.4c-0.35,0.83-0.71,1.7-1.09,2.59C324.05,330.61,323.95,330.83,323.86,331.05z
	 M296.51,399.84c-1.49,3.86-2.98,7.72-4.46,11.56L289,394.69l11.43-13.29l2.79,1.19C301.08,388.06,298.85,393.8,296.51,399.84z
	 M240.79,399.84c-2.34-6.04-4.57-11.78-6.71-17.25l2.8-1.19l11.43,13.29l-3.05,16.71C243.78,407.56,242.29,403.7,240.79,399.84z
	 M228.14,367.44c-0.36-0.91-0.71-1.81-1.07-2.7c-0.19-0.47-0.37-0.93-0.55-1.39c-0.29-0.72-0.57-1.43-0.84-2.14
	c-0.2-0.49-0.39-0.98-0.58-1.46c-0.28-0.7-0.55-1.39-0.83-2.08c-0.18-0.44-0.35-0.89-0.53-1.32c-0.4-1.01-0.8-2.01-1.19-2.99
	c-0.23-0.57-0.45-1.12-0.68-1.68c-0.18-0.45-0.36-0.91-0.54-1.35c-0.25-0.6-0.48-1.2-0.72-1.79c-0.16-0.4-0.32-0.8-0.48-1.19
	c-0.23-0.58-0.47-1.16-0.7-1.73c-0.15-0.38-0.3-0.74-0.45-1.11c-0.41-1-0.81-1.99-1.2-2.95c-0.16-0.4-0.33-0.8-0.49-1.2
	c-0.19-0.46-0.38-0.92-0.56-1.38c-0.18-0.44-0.36-0.87-0.53-1.3c-0.08-0.2-0.17-0.41-0.25-0.61c-0.07-0.17-0.14-0.33-0.21-0.5
	c-0.37-0.89-0.73-1.77-1.08-2.62c-0.03-0.07-0.06-0.14-0.09-0.21c-0.41-0.99-0.8-1.94-1.19-2.87c-0.05-0.12-0.11-0.25-0.16-0.37
	c-0.39-0.94-0.78-1.86-1.15-2.73c-0.2-0.48-0.4-0.95-0.6-1.4l42.23,31.57l-17.64,7.5c-0.04,0.01-0.07,0.03-0.1,0.04l-7.36,3.13
	c-0.04-0.09-0.07-0.17-0.11-0.26C228.38,368.05,228.26,367.75,228.14,367.44z M227.14,280.37c11.55,6.21,25.33,10.4,41.52,10.4
	s29.97-4.19,41.52-10.4v12.08c0,7.09,2.73,15.04,7.6,21.23l-49.12,36.71l-49.12-36.71c4.87-6.19,7.6-14.14,7.6-21.23V280.37z
	 M259.77,385.02l-8.4-9.77l17.28-7.34l17.28,7.34l-8.4,9.77L259.77,385.02L259.77,385.02z M379.5,176.91c0,3.99-3.25,7.23-7.23,7.23
	h-4.2v-19.43c4-1,7.2-0.98,7.24-0.98c1.29,0.02,2.54-0.29,3.66-0.87c0.33,0.83,0.53,1.72,0.53,2.65V176.91z M157.8,176.91v-11.39
	c0-0.93,0.2-1.82,0.53-2.65c1.12,0.58,2.37,0.89,3.66,0.87c0.05,0.01,3.25-0.01,7.23,0.98v19.43h-4.2
	C161.05,184.14,157.8,180.9,157.8,176.91z M184.23,192.55v-19.7c2.27,0.68,4.76,0.59,7.05-0.37c3.93-1.64,6.48-5.46,6.48-9.71V93.56
	c0-8.43,6.86-15.28,15.28-15.28h20.7c3.69,0,7.29,1.29,10.14,3.62l2.03,1.66c6.4,5.23,14.48,8.12,22.75,8.12
	c8.27,0,16.35-2.88,22.75-8.12l2.03-1.66c2.86-2.33,6.46-3.62,10.14-3.62h20.7c8.42,0,15.28,6.86,15.28,15.28v69.21
	c0,4.26,2.54,8.07,6.48,9.71c1.32,0.55,2.69,0.82,4.05,0.82c1.02,0,2.02-0.15,3-0.44v19.69c0,10.95-7.57,32.2-21.59,50.04
	c-4.64,5.91-10.61,12.25-17.96,17.8c-0.24,0.16-0.46,0.33-0.68,0.52c-11.39,8.42-26.03,14.87-44.18,14.87s-32.79-6.45-44.18-14.87
	c-0.22-0.18-0.45-0.36-0.68-0.52c-7.35-5.55-13.32-11.89-17.96-17.8C191.8,224.76,184.23,203.5,184.23,192.55z M212.14,270.64v21.82
	c0,4.7-2.1,9.56-5.12,12.86c-4.18-1.59-8.82-1.8-13.18-0.49c0,0-0.01,0-0.01,0l-25.89,7.81
	C172.32,291.1,189.81,273.96,212.14,270.64z M268.8,472.34c-0.21-0.45-0.47-0.86-0.77-1.25c-3.39-8.96-7.68-20.29-12.45-32.75
	l7-38.32h12.13l7,38.32C276.73,451.39,272.25,463.2,268.8,472.34z"/>
<path class="st9" d="M184.16,472.41h-9.35c-4.14,0-7.5-3.36-7.5-7.5c0-4.14,3.36-7.5,7.5-7.5h9.35c1.13,0,2.21-0.48,2.98-1.3
	s1.16-1.95,1.07-3.07l-5.46-70.1c-0.19-2.48-0.79-4.91-1.75-7.2c-3.46-8.17-11.66-13.42-20.93-13.42c-0.06,0-0.12,0-0.18,0
	l-1.23,0.01c-9.54,0.07-18.06,5.87-21.22,14.45c-0.73,1.98-1.18,4.05-1.35,6.16l-5.46,70.1c-0.09,1.13,0.3,2.24,1.07,3.07
	s1.85,1.3,2.98,1.3h9.35c4.14,0,7.5,3.36,7.5,7.5c0,4.14-3.36,7.5-7.5,7.5h-9.35c-5.3,0-10.39-2.23-13.99-6.12
	s-5.42-9.14-5.01-14.43l5.46-70.09c0.27-3.48,1.02-6.91,2.22-10.18c5.3-14.4,19.45-24.15,35.19-24.27l1.23-0.01h0.29
	c15.3,0,28.92,8.84,34.74,22.57c1.61,3.79,2.58,7.79,2.9,11.89l5.46,70.09c0.41,5.28-1.41,10.54-5.01,14.43
	C194.55,470.18,189.46,472.41,184.16,472.41z"/>
</svg>
