<?xml version="1.0" encoding="utf-8"?>
<!-- Generator: Adobe Illustrator 23.0.1, SVG Export Plug-In . SVG Version: 6.00 Build 0)  -->
<svg version="1.1" id="Layer_1" xmlns="http://www.w3.org/2000/svg" xmlns:xlink="http://www.w3.org/1999/xlink" x="0px" y="0px"
	 viewBox="0 0 546.47 512" style="enable-background:new 0 0 546.47 512;" xml:space="preserve">
<style type="text/css">
	.st0{fill:#E2EBF9;}
	.st1{fill:#FFFFFF;}
	.st2{fill:#FF9052;}
	.st3{fill:#434C54;}
</style>
<rect x="60.94" y="110.78" class="st0" width="339.02" height="267.1"/>
<path class="st1" d="M378.88,377.4H70.22c-16.76,0-30.35-13.59-30.35-30.35V135.44c0-18.27,14.81-33.09,33.09-33.09h305.93V377.4z"
	/>
<path class="st2" d="M461.06,379.15c0,0,56.47,56.38,53.65-36.79c-2.82-93.18-125.65-87.68-125.65-87.68s-111.53,32.73-74.82,141.38
	s151.06,56.42,151.06,56.42s19.76-29.65,1.41-52.24"/>
<g>
	<g>
		<path class="st3" d="M422.57,240.87V133.67c0-23.53-19.14-42.67-42.67-42.67h-320c-23.53,0-42.67,19.14-42.67,42.67V347
			c0,23.53,19.13,42.67,42.67,42.67h239.21C313.09,438.84,358.31,475,411.9,475c20.63,0,40.91-5.43,58.68-15.71
			c5.09-2.95,6.84-9.47,3.89-14.57c-2.95-5.1-9.48-6.86-14.57-3.89c-14.52,8.4-31.11,12.83-47.99,12.83c-52.94,0-96-43.06-96-96
			s43.06-96,96-96s96,43.06,96,96v10.67c0,11.76-9.57,21.33-21.33,21.33s-21.33-9.57-21.33-21.33v-42.67
			c0-5.9-4.77-10.67-10.67-10.67c-2.87,0-5.45,1.16-7.36,3c-9.43-8.4-21.71-13.67-35.3-13.67c-29.41,0-53.33,23.93-53.33,53.33
			S382.5,411,411.9,411c15.9,0,30.03-7.13,39.81-18.2c7.73,10.98,20.44,18.2,34.86,18.2c23.53,0,42.67-19.14,42.67-42.67v-10.67
			C529.24,296.57,482.28,246.29,422.57,240.87z M59.9,112.33h320c0.44,0,0.82,0.23,1.25,0.25L228.67,237.75
			c-5.43,3.42-13.29,2.71-16.82,0.54L58.66,112.58C59.09,112.56,59.46,112.33,59.9,112.33z M401.24,240.87
			c-59.71,5.41-106.67,55.7-106.67,116.79c0,3.6,0.22,7.15,0.54,10.67H59.9c-11.76,0-21.33-9.57-21.33-21.33V133.67
			c0-3.02,0.67-5.87,1.81-8.48l158.88,130.29c6.21,4.05,13.34,6.19,20.65,6.19c7.02,0,13.88-1.98,19.93-5.73
			c0.6-0.32,1.18-0.71,1.72-1.16l157.88-129.6c1.14,2.61,1.81,5.46,1.81,8.48L401.24,240.87L401.24,240.87z M411.9,389.67
			c-17.65,0-32-14.35-32-32s14.35-32,32-32s32,14.35,32,32S429.55,389.67,411.9,389.67z"/>
	</g>
</g>
</svg>
