<?xml version="1.0" encoding="utf-8"?>
<!-- Generator: Adobe Illustrator 23.0.1, SVG Export Plug-In . SVG Version: 6.00 Build 0)  -->
<svg version="1.1" id="Capa_1" xmlns="http://www.w3.org/2000/svg" xmlns:xlink="http://www.w3.org/1999/xlink" x="0px" y="0px"
	 viewBox="0 0 289.74 379.39" style="enable-background:new 0 0 289.74 379.39;" xml:space="preserve">
<style type="text/css">
	.st0{fill:#E4EAF8;}
	.st1{fill:#FFFFFF;}
	.st2{fill:#FF9052;}
	.st3{fill:#434C54;}
</style>
<circle class="st0" cx="96.62" cy="195.51" r="69.26"/>
<circle class="st1" cx="96.62" cy="195.51" r="52.8"/>
<g>
	<path class="st2" d="M246.34,94.25c-6.56,0-13.12,0.05-19.68-0.01c-6.66-0.07-11.45-3.12-11.37-10.06
		c0.09-6.93,4.96-9.82,11.61-9.82c15.18,0,30.36-0.04,45.55,0.01c6.97,0.02,10.64,3.67,10.68,10.6c0.09,15.47,0.03,30.94,0.04,46.41
		c0,6.49-3.28,10.66-9.67,10.76c-6.54,0.1-9.68-4.46-9.93-10.66c-0.27-6.8-0.06-13.61-0.06-22.05c-3,2.32-4.81,3.45-6.3,4.91
		c-7.78,7.61-15.02,15.86-23.35,22.8c-7.33,6.11-7.48,10.75-2.53,19.02c16.19,27.03,13.21,61.13-6.15,86.24
		c-19.06,24.73-51.3,36.2-81.16,27.96c-32.59-8.99-52.17-30.4-58.39-63.81c-3.46-18.6,0.69-35.79,9.61-52.06
		c3.13-5.71,7.28-9.95,14.5-6.49c5.87,2.82,7.1,8.84,2.74,16.21c-20.99,35.54-0.48,80.07,39.74,88.12
		c32.18,6.44,64.64-16.72,69.3-49.85c4.65-33.02-20.33-64.49-53.06-66.82c-1.14-0.08-2.29-0.03-3.44-0.11
		c-7.7-0.55-12.6-4.76-11.71-10.69c1.11-7.39,6.25-9.64,13.15-9.12c13.92,1.05,27.16,4.5,38.72,12.5c4.73,3.27,7.62,2.9,11.54-1.15
		c10.07-10.43,20.58-20.43,30.91-30.6C247.2,95.74,246.77,94.99,246.34,94.25z"/>
	<path class="st3" d="M104.22,301.64c7.7,0,14.5-0.12,21.29,0.03c8.46,0.19,13.64,4.24,12.91,10.41c-0.89,7.5-6.09,9.58-12.97,9.34
		c-6.56-0.23-13.13-0.05-21.23-0.05c0,7.51-0.05,14.53,0.01,21.54c0.06,6.78-2.06,12.03-9.67,12.7
		c-6.46,0.57-10.12-4.21-10.24-12.87c-0.09-6.79-0.02-13.59-0.02-21.37c-8.09,0-15.18-0.12-22.26,0.03
		c-6.72,0.15-11.6-2.55-11.86-9.48c-0.26-7.04,4.71-10.04,11.25-10.22c7.14-0.2,14.3-0.04,22.8-0.04c0-8.94,0.37-17.44-0.31-25.86
		c-0.14-1.71-4.06-3.89-6.57-4.52c-37.24-9.24-62.11-40.32-61.87-77.68c0.26-41.31,33.14-75.15,75.51-77.69
		c39.81-2.39,75.93,28.64,80.75,69.03c2.12,17.74-1.27,34.16-10.25,49.47c-4.52,7.71-9.79,9.9-15.23,6.3
		c-6.91-4.57-5.44-10.16-1.98-16.39c11.38-20.49,11.37-41.24-1.03-61.12c-12.05-19.31-30.24-28.28-52.96-27.51
		c-30.48,1.04-55.02,26.96-55.29,58.07c-0.27,31.48,24.25,57.97,54.93,59.34c11.89,0.53,14.25,3.01,14.28,15.07
		C104.24,278.99,104.22,289.8,104.22,301.64z"/>
</g>
</svg>
