<?xml version="1.0" encoding="utf-8"?>
<!-- Generator: Adobe Illustrator 23.0.1, SVG Export Plug-In . SVG Version: 6.00 Build 0)  -->
<svg version="1.1" id="Layer_1" xmlns="http://www.w3.org/2000/svg" xmlns:xlink="http://www.w3.org/1999/xlink" x="0px" y="0px"
	 viewBox="0 0 512 512" style="enable-background:new 0 0 512 512;" xml:space="preserve">
<style type="text/css">
	.st0{fill:#FF9052;}
	.st1{fill:#434C54;}
	.st2{fill:#E2EBF9;}
	.st3{fill:#FFFFFF;}
</style>
<path class="st0" d="M120.77,204.6c0,46.78,38.05,84.83,84.83,84.83c11.03,0,19.96,8.94,19.96,19.96c0,11.03-8.93,19.96-19.96,19.96
	c-68.79,0-124.75-55.96-124.75-124.75c0-68.79,55.96-124.76,124.75-124.76c68.79,0,124.76,55.96,124.76,124.76
	c0,11.02-8.94,19.96-19.96,19.96s-19.96-8.94-19.96-19.96c0-46.78-38.06-84.84-84.84-84.84S120.77,157.82,120.77,204.6z"/>
<path class="st1" d="M136.45,381.15c-51.22-56.09-95.46-104.54-95.53-176.75c0.11-90.7,73.98-164.48,164.68-164.48
	c90.7,0,164.57,73.79,164.68,164.48c0.02,11.02,8.95,19.94,19.96,19.94h0.02c11.02-0.01,19.95-8.96,19.94-19.98
	c-0.06-54.6-21.37-105.92-60-144.51C311.56,21.25,260.21,0,205.6,0C150.99,0,99.64,21.25,61,59.85C22.38,98.44,1.06,149.76,1,204.4
	c0.04,39.78,11.09,77.1,33.78,114.09c19.64,32.04,45.17,59.98,72.19,89.58c26.49,29.02,53.89,59.02,75.77,93.63
	c3.8,6.01,10.27,9.3,16.89,9.3c3.65,0,7.34-1,10.65-3.09c9.32-5.89,12.1-18.22,6.21-27.54
	C192.72,442.78,164.11,411.45,136.45,381.15z"/>
<path class="st1" d="M506.77,390.73c-3.94,4.31-9.33,6.49-14.73,6.49c-4.81,0-9.64-1.73-13.46-5.23l-2.5-2.29v66.05
	c0,31.01-25.21,56.24-56.2,56.24H307.7c-30.98,0-56.2-25.23-56.2-56.24v-65.14l-1.5,1.37c-8.14,7.44-20.76,6.88-28.2-1.26
	c-7.44-8.14-6.87-20.77,1.27-28.2l103.03-94.2c21.77-19.9,54.61-19.9,76.38,0l66.01,60.36c0.73,0.58,1.42,1.21,2.06,1.88
	l34.96,31.96C513.65,369.97,514.21,382.6,506.77,390.73z"/>
<path class="st2" d="M436.15,353.21v102.55c0,9-7.3,16.32-16.27,16.32H307.71c-8.98,0-16.28-7.32-16.28-16.32V354.12l59.2-54.11
	l2.41-2.21c6.41-5.86,16.09-5.86,22.5,0L436.15,353.21z"/>
<path class="st3" d="M410.2,354.47v102.55c0,6.77-4.13,12.59-10,15.06h-92.49c-8.98,0-16.28-7.32-16.28-16.32V354.12l59.2-54.11
	L410.2,354.47z"/>
</svg>
