<?xml version="1.0" encoding="utf-8"?>
<!-- Generator: Adobe Illustrator 23.0.1, SVG Export Plug-In . SVG Version: 6.00 Build 0)  -->
<svg version="1.1" id="Layer_1" xmlns="http://www.w3.org/2000/svg" xmlns:xlink="http://www.w3.org/1999/xlink" x="0px" y="0px"
	 viewBox="0 0 512 512" style="enable-background:new 0 0 512 512;" xml:space="preserve">
<style type="text/css">
	.st0{fill:#E2EBF9;}
	.st1{fill:#FFFFFF;}
	.st2{fill:#434C54;}
	.st3{fill:#5DE1C0;}
	.st4{fill:#FF9052;}
</style>
<path class="st0" d="M495.29,428.87v28.9c0,3.99-3.23,7.23-7.22,7.23H54.52c-3.99,0-7.23-3.24-7.23-7.23v-28.9
	c0-3.99,3.24-7.22,7.23-7.22h7.23V154.29c0-3.99,3.23-7.23,7.22-7.23h21.68V96.48c0-3.98,3.24-7.22,7.22-7.22h79.49V24.23
	c0-3.99,3.24-7.23,7.22-7.23H358c3.99,0,7.23,3.24,7.23,7.23v65.03h79.48c3.99,0,7.23,3.24,7.23,7.22v50.58h21.68
	c3.99,0,7.22,3.24,7.22,7.23v267.36h7.23C492.06,421.65,495.29,424.88,495.29,428.87z"/>
<path class="st1" d="M466.39,427.36v28.9c0,3.99-3.23,7.23-7.22,7.23H50.11c-1.72-1.32-2.82-3.39-2.82-5.72v-28.9
	c0-3.99,3.24-7.22,7.23-7.22h7.23V154.29c0-3.99,3.23-7.23,7.22-7.23h21.68V96.48c0-3.98,3.24-7.22,7.22-7.22h79.49V24.23
	c0-3.99,3.24-7.23,7.22-7.23h148.93c1.72,1.32,2.82,3.39,2.82,5.72v65.03h79.48c1.66,0,3.19,0.56,4.41,1.51
	c1.72,1.32,2.82,3.39,2.82,5.71v50.58h21.68c3.99,0,7.22,3.24,7.22,7.23v267.36h7.23c1.66,0,3.19,0.56,4.41,1.51
	C465.29,422.96,466.39,425.03,466.39,427.36z"/>
<g>
	<path class="st1" d="M314.65,82.03h-28.9v-28.9h-28.9v28.9h-28.9v28.9h28.9v28.9h28.9v-28.9h28.9V82.03z"/>
	<path class="st1" d="M68.97,197.65h382.97v72.26H68.97V197.65z"/>
	<g>
		<path class="st2" d="M488.07,421.65h-7.23V154.29c0-3.99-3.23-7.23-7.22-7.23h-21.68V96.48c0-3.98-3.24-7.22-7.23-7.22h-79.48
			V24.23c0-3.99-3.24-7.23-7.23-7.23H184.58c-3.98,0-7.22,3.24-7.22,7.23v65.03H97.87c-3.98,0-7.22,3.24-7.22,7.22v50.58H68.97
			c-3.99,0-7.22,3.24-7.22,7.23v267.36h-7.23c-3.99,0-7.23,3.23-7.23,7.22v28.9c0,2.33,1.1,4.4,2.82,5.72
			c1.22,0.95,2.74,1.51,4.41,1.51h433.55c3.99,0,7.22-3.24,7.22-7.23v-28.9C495.29,424.88,492.06,421.65,488.07,421.65z
			 M437.49,103.71v43.35h-72.26v-43.35H437.49z M191.81,31.45h158.97v130.07H191.81V31.45z M105.1,103.71h72.26v43.35H105.1V103.71z
			 M76.2,161.52h101.16v7.22c0,3.99,3.24,7.23,7.22,7.23H358c3.99,0,7.23-3.24,7.23-7.23v-7.22h101.16v28.9H76.2V161.52z
			 M379.68,421.65V277.13h86.71v144.52H379.68z M365.23,277.13v144.52h-14.45V277.13H365.23z M271.29,349.39
			c-19.92,0-36.12,16.2-36.12,36.13v36.13h-28.91V277.13h130.07v144.52h-28.91v-36.13C307.42,365.59,291.22,349.39,271.29,349.39z
			 M292.97,385.52v36.13h-43.35v-36.13c0-11.96,9.72-21.68,21.67-21.68C283.25,363.84,292.97,373.56,292.97,385.52z M191.81,277.13
			v144.52h-14.45V277.13H191.81z M162.91,277.13v144.52H76.2V277.13H162.91z M365.23,204.87v57.81h-86.71v-57.81H365.23z
			 M264.07,204.87v57.81h-86.71v-57.81H264.07z M76.2,204.87h86.71v57.81H76.2V204.87z M379.68,262.68v-57.81h86.71v57.81H379.68z
			 M480.84,450.55H61.75V436.1h419.09V450.55z"/>
		<path class="st3" d="M141.23,306.03H97.87c-3.98,0-7.22,3.24-7.22,7.23v86.71c0,3.99,3.24,7.22,7.22,7.22h43.36
			c3.99,0,7.23-3.23,7.23-7.22v-86.71C148.46,309.27,145.22,306.03,141.23,306.03z M134,392.74h-28.9v-28.9H134V392.74z M134,349.39
			h-28.9v-28.91H134V349.39z"/>
		<path class="st3" d="M444.71,306.03h-43.35c-3.99,0-7.23,3.24-7.23,7.23v86.71c0,3.99,3.24,7.22,7.23,7.22h43.35
			c3.99,0,7.23-3.23,7.23-7.22v-86.71C451.94,309.27,448.7,306.03,444.71,306.03z M437.49,392.74h-28.91v-28.9h28.91V392.74z
			 M437.49,349.39h-28.91v-28.91h28.91V349.39z"/>
		<path class="st4" d="M314.65,74.81h-21.68V53.13c0-3.99-3.24-7.23-7.22-7.23h-28.91c-3.99,0-7.22,3.24-7.22,7.23v21.68h-21.68
			c-3.99,0-7.23,3.23-7.23,7.22v28.91c0,3.98,3.24,7.22,7.23,7.22h21.68v21.68c0,3.99,3.23,7.22,7.22,7.22h28.91
			c3.98,0,7.22-3.23,7.22-7.22v-21.68h21.68c3.99,0,7.22-3.24,7.22-7.22V82.03C321.87,78.04,318.64,74.81,314.65,74.81z
			 M307.42,103.71h-21.67c-3.99,0-7.23,3.24-7.23,7.23v21.67h-14.45v-21.67c0-3.99-3.24-7.23-7.23-7.23h-21.67V89.26h21.67
			c3.99,0,7.23-3.24,7.23-7.23V60.35h14.45v21.68c0,3.99,3.24,7.23,7.23,7.23h21.67V103.71z"/>
		<path class="st3" d="M314.65,291.58h-86.71c-3.99,0-7.23,3.24-7.23,7.23v28.9c0,3.99,3.24,7.23,7.23,7.23h86.71
			c3.99,0,7.22-3.24,7.22-7.23v-28.9C321.87,294.82,318.64,291.58,314.65,291.58z M307.42,320.48h-72.25v-14.45h72.25V320.48z"/>
	</g>
</g>
</svg>
