<?xml version="1.0" encoding="utf-8"?>
<!-- Generator: Adobe Illustrator 23.0.1, SVG Export Plug-In . SVG Version: 6.00 Build 0)  -->
<svg version="1.1" id="Capa_1" xmlns="http://www.w3.org/2000/svg" xmlns:xlink="http://www.w3.org/1999/xlink" x="0px" y="0px"
	 viewBox="0 0 448.9 553.4" style="enable-background:new 0 0 448.9 553.4;" xml:space="preserve">
<style type="text/css">
	.st0{fill:#FFFFFF;}
	.st1{fill:#434C54;}
	.st2{fill:#FF8125;}
	.st3{fill:#E2EBF9;}
	.st4{fill:#E3E7F2;}
	.st5{fill:#1AE5BE;}
	.st6{fill:#99AAC1;}
</style>
<path class="st0" d="M148.6,124.1c1.6,1.6,2.2,4,1.5,6.1c-0.7,2.2-2.6,3.8-4.9,4.1l-33.3,4.8l-14.9,30.2c-1,2-3.1,3.3-5.4,3.3
	c-2.3,0-4.4-1.3-5.4-3.3l-14.9-30.2l-33.3-4.8c-2.3-0.3-4.1-1.9-4.8-4.1c-0.7-2.2-0.1-4.5,1.5-6.1l24.1-23.5l-5.7-33.2
	c-0.4-2.3,0.5-4.5,2.4-5.9c1.8-1.3,4.3-1.5,6.3-0.5l29.8,15.7l29.8-15.7c2-1.1,4.5-0.9,6.3,0.5c1.8,1.3,2.8,3.6,2.4,5.9l-5.7,33.2
	L148.6,124.1z"/>
<path class="st0" d="M287.3,70.8c1.6,1.6,2.2,4,1.5,6.1c-0.7,2.2-2.6,3.8-4.8,4.1l-33.3,4.8l-14.9,30.2c-1,2-3.1,3.3-5.4,3.3
	c-2.3,0-4.4-1.3-5.4-3.3l-14.9-30.2L176.9,81c-2.3-0.3-4.1-1.9-4.8-4.1c-0.7-2.2-0.1-4.5,1.5-6.1l24.1-23.5L192,14.2
	c-0.4-2.3,0.5-4.5,2.4-5.9c1.8-1.3,4.3-1.5,6.3-0.5l29.8,15.7l29.8-15.7c2-1.1,4.5-0.9,6.3,0.5c1.9,1.3,2.8,3.6,2.4,5.9l-5.7,33.1
	L287.3,70.8z"/>
<path class="st0" d="M427.6,130.3c-0.7,2.2-2.6,3.8-4.8,4.1l-33.3,4.8l-14.9,30.2c-1,2-3.1,3.3-5.4,3.3c-2.3,0-4.4-1.3-5.4-3.3
	l-14.9-30.2l-33.3-4.8c-2.3-0.3-4.1-1.9-4.8-4.1c-0.7-2.2-0.1-4.5,1.5-6.1l24.1-23.5l-5.7-33.2c-0.4-2.3,0.5-4.5,2.4-5.9
	c1.9-1.3,4.3-1.5,6.3-0.5l29.8,15.7L399,61.2c2-1.1,4.5-0.9,6.3,0.5c1.8,1.3,2.8,3.6,2.4,5.9l-5.7,33.2l24.1,23.5
	C427.7,125.7,428.3,128.1,427.6,130.3z"/>
<path class="st1" d="M411.6,231.8c0.2,0.1,0.3,0.2,0.4,0.3C411.9,232,411.8,231.9,411.6,231.8z"/>
<path class="st1" d="M411,231.4c0.2,0.1,0.3,0.2,0.5,0.3C411.4,231.6,411.2,231.5,411,231.4z"/>
<path class="st1" d="M412.2,232.2c0.1,0.1,0.3,0.2,0.4,0.3C412.5,232.4,412.3,232.3,412.2,232.2z"/>
<path class="st1" d="M412.7,232.6c0.1,0.1,0.2,0.2,0.3,0.3C412.9,232.8,412.8,232.7,412.7,232.6z"/>
<path class="st1" d="M410.3,231c0.2,0.1,0.4,0.2,0.6,0.3C410.7,231.2,410.5,231.1,410.3,231z"/>
<path class="st1" d="M409.6,230.6c0.2,0.1,0.5,0.2,0.7,0.4C410.1,230.9,409.8,230.7,409.6,230.6z"/>
<path class="st1" d="M413.2,233c0.1,0.1,0.3,0.3,0.4,0.4C413.4,233.3,413.3,233.2,413.2,233z"/>
<path class="st1" d="M410.3,231C410.3,231,410.3,231,410.3,231C410.3,231,410.3,231,410.3,231z"/>
<path class="st1" d="M410.9,231.3C410.9,231.4,411,231.4,410.9,231.3C411,231.4,410.9,231.4,410.9,231.3z"/>
<path class="st1" d="M409.6,230.6C409.6,230.6,409.6,230.6,409.6,230.6C409.6,230.6,409.6,230.6,409.6,230.6z"/>
<path class="st1" d="M411.5,231.7c0,0,0.1,0,0.1,0.1C411.6,231.8,411.6,231.7,411.5,231.7z"/>
<path class="st1" d="M412.1,232.1c0,0,0.1,0.1,0.1,0.1C412.2,232.2,412.1,232.1,412.1,232.1z"/>
<path class="st1" d="M412.6,232.5c0,0,0.1,0.1,0.1,0.1C412.7,232.6,412.6,232.5,412.6,232.5z"/>
<path class="st1" d="M413,232.9c0,0,0.1,0.1,0.1,0.1C413.1,233,413.1,233,413,232.9z"/>
<path class="st2" d="M287.3,70.8l-24.1-23.5l5.7-33.1c0.4-2.3-0.5-4.5-2.4-5.9c-1.8-1.3-4.3-1.5-6.3-0.5l-29.8,15.7L200.7,7.9
	c-2-1.1-4.5-0.9-6.3,0.5c-1.8,1.3-2.8,3.6-2.4,5.9l5.7,33.2l-24.1,23.5c-1.6,1.6-2.2,4-1.5,6.1c0.7,2.2,2.6,3.8,4.8,4.1l33.3,4.8
	l14.9,30.2c1,2,3.1,3.3,5.4,3.3c2.3,0,4.4-1.3,5.4-3.3l14.9-30.2L284,81c2.3-0.3,4.1-1.9,4.8-4.1C289.5,74.8,289,72.4,287.3,70.8z
	 M245.9,74.5c-2,0.3-3.6,1.5-4.5,3.3l-10.9,22.1l-10.9-22.1c-0.9-1.8-2.6-3-4.5-3.3l-24.4-3.5l17.7-17.2c1.4-1.4,2.1-3.4,1.7-5.3
	l-4.2-24.3l21.8,11.5c1.7,0.9,3.8,0.9,5.6,0l21.8-11.5l-4.2,24.3c-0.3,1.9,0.3,3.9,1.7,5.3l17.7,17.2L245.9,74.5z"/>
<path class="st2" d="M148.6,124.1l-24.1-23.5l5.7-33.2c0.4-2.3-0.5-4.5-2.4-5.9c-1.9-1.3-4.3-1.5-6.3-0.5L91.7,76.8L61.9,61.2
	c-2-1.1-4.5-0.9-6.3,0.5c-1.8,1.3-2.8,3.6-2.4,5.9l5.7,33.2l-24.1,23.5c-1.6,1.6-2.2,4-1.5,6.1c0.7,2.2,2.6,3.8,4.8,4.1l33.3,4.8
	l14.9,30.2c1,2,3.1,3.3,5.4,3.3c2.3,0,4.4-1.3,5.4-3.3l14.9-30.2l33.3-4.8c2.3-0.3,4.1-1.9,4.9-4.1
	C150.8,128.1,150.2,125.7,148.6,124.1z M107.1,127.8c-2,0.3-3.6,1.5-4.5,3.3l-10.9,22.1l-10.9-22.1c-0.9-1.8-2.6-3-4.5-3.3
	l-24.4-3.5L69.5,107c1.4-1.4,2-3.4,1.7-5.3l-4.2-24.3l21.8,11.5c1.8,0.9,3.8,0.9,5.6,0l21.8-11.5l-4.2,24.3
	c-0.3,1.9,0.3,3.9,1.7,5.3l17.7,17.2L107.1,127.8z"/>
<path class="st2" d="M426.1,124.1L402,100.7l5.7-33.2c0.4-2.3-0.5-4.5-2.4-5.9c-1.8-1.3-4.3-1.5-6.3-0.5l-29.8,15.7l-29.8-15.7
	c-2-1.1-4.5-0.9-6.3,0.5c-1.8,1.3-2.8,3.6-2.4,5.9l5.7,33.2l-24.1,23.5c-1.6,1.6-2.2,4-1.5,6.1c0.7,2.2,2.6,3.8,4.8,4.1l33.3,4.8
	l14.9,30.2c1,2,3.1,3.3,5.4,3.3c2.3,0,4.4-1.3,5.4-3.3l14.9-30.2l33.3-4.8c2.3-0.3,4.1-1.9,4.8-4.1
	C428.3,128.1,427.7,125.7,426.1,124.1z M384.6,127.8c-2,0.3-3.6,1.5-4.5,3.3l-10.9,22.1l-10.9-22.1c-0.9-1.8-2.6-3-4.5-3.3
	l-24.4-3.5L347,107c1.4-1.4,2.1-3.4,1.7-5.3l-4.2-24.3l21.8,11.5c1.7,0.9,3.8,0.9,5.6,0l21.8-11.5l-4.2,24.3c-0.3,2,0.3,3.9,1.7,5.3
	l17.7,17.2L384.6,127.8z"/>
<g>
	<path class="st3" d="M238.4,181.4h69.2c11.2,0,20.3,9.1,20.3,20.3v305.6c0,11.2-9.1,20.3-20.3,20.3h-69.2
		c-11.2,0-20.3-9.1-20.3-20.3V201.7C218,190.5,227.1,181.4,238.4,181.4z"/>
	<path class="st0" d="M151.2,181.4h69.2c11.2,0,20.3,9.1,20.3,20.3v305.6c0,11.2-9.1,20.3-20.3,20.3h-69.2
		c-11.2,0-20.3-9.1-20.3-20.3V201.7C130.9,190.5,140,181.4,151.2,181.4z"/>
	<path class="st4" d="M169.1,181.4h114.6c11.2,0,20.3,9.1,20.3,20.3v305.6c0,11.2-9.1,20.3-20.3,20.3H169.1
		c-11.2,0-20.3-9.1-20.3-20.3V201.7C148.8,190.5,157.9,181.4,169.1,181.4z"/>
	<rect x="148.8" y="217.2" class="st0" width="155.2" height="238.8"/>
	<circle class="st5" cx="226.4" cy="491.8" r="17.9"/>
	<g>
		<path class="st1" d="M301.6,533.6H151.2c-14.5,0-26.3-11.8-26.3-26.3V201.7c0-14.5,11.8-26.3,26.3-26.3h150.4
			c14.5,0,26.3,11.8,26.3,26.3v305.6C327.9,521.8,316.1,533.6,301.6,533.6L301.6,533.6z M151.2,187.3c-7.9,0-14.4,6.4-14.4,14.4
			v305.6c0,7.9,6.4,14.4,14.4,14.4h150.4c7.9,0,14.4-6.4,14.4-14.4V201.7c0-7.9-6.4-14.4-14.4-14.4H151.2z"/>
		<path class="st6" d="M226.4,515.7c-13.2,0-23.9-10.7-23.9-23.9c0-13.2,10.7-23.9,23.9-23.9c13.2,0,23.9,10.7,23.9,23.9
			C250.3,505,239.6,515.7,226.4,515.7L226.4,515.7z M226.4,479.9c-6.6,0-11.9,5.3-11.9,11.9s5.3,11.9,11.9,11.9
			c6.6,0,11.9-5.3,11.9-11.9C238.4,485.2,233,479.9,226.4,479.9L226.4,479.9z"/>
		<path class="st1" d="M321.9,462h-191c-3.3,0-6-2.7-6-6s2.7-6,6-6h191c3.3,0,6,2.7,6,6S325.2,462,321.9,462z"/>
		<path class="st1" d="M321.9,223.2h-191c-3.3,0-6-2.7-6-6c0-3.3,2.7-6,6-6h191c3.3,0,6,2.7,6,6
			C327.9,220.5,325.2,223.2,321.9,223.2z"/>
		<path class="st1" d="M226.4,205.3h-23.9c-3.3,0-6-2.7-6-6c0-3.3,2.7-6,6-6h23.9c3.3,0,6,2.7,6,6
			C232.4,202.6,229.7,205.3,226.4,205.3z"/>
		<path class="st1" d="M250.3,205.3h-6c-3.3,0-6-2.7-6-6c0-3.3,2.7-6,6-6h6c3.3,0,6,2.7,6,6C256.3,202.6,253.6,205.3,250.3,205.3z"
			/>
		<path class="st1" d="M381.1,302.2c-2.4,0-4.6-1.5-5.5-3.7c-0.9-2.2-0.4-4.8,1.3-6.5c22.3-22.4,22.3-58.5,0-80.9
			c-1.5-1.5-2.1-3.7-1.5-5.8c0.6-2.1,2.2-3.7,4.2-4.2s4.3,0,5.8,1.5c27,27,27,70.8,0,97.8C384.2,301.6,382.7,302.2,381.1,302.2
			L381.1,302.2z"/>
		<path class="st1" d="M355.9,290.3c-2.4,0-4.6-1.5-5.5-3.7c-0.9-2.2-0.4-4.8,1.3-6.5c15.3-15.3,15.3-40.1,0-55.4
			c-2.3-2.3-2.3-6.1,0-8.4c2.3-2.3,6.1-2.3,8.4,0c19.9,20,19.9,52.3,0,72.3C359,289.7,357.5,290.3,355.9,290.3L355.9,290.3z"/>
		<path class="st1" d="M71.8,302.2c-1.6,0-3.1-0.6-4.2-1.7c-27-27-27-70.8,0-97.8c1.5-1.5,3.7-2.1,5.8-1.5c2.1,0.6,3.7,2.2,4.2,4.2
			c0.6,2.1,0,4.3-1.5,5.8c-22.3,22.4-22.3,58.5,0,80.9c1.7,1.7,2.2,4.3,1.3,6.5C76.4,300.8,74.2,302.2,71.8,302.2L71.8,302.2z"/>
		<path class="st1" d="M96.9,288.6c-1.6,0-3.1-0.6-4.2-1.7c-19.9-20-19.9-52.3,0-72.3c2.3-2.3,6.1-2.3,8.4,0c2.3,2.3,2.3,6.1,0,8.4
			c-15.3,15.3-15.3,40.1,0,55.4c1.7,1.7,2.2,4.3,1.3,6.5C101.5,287.2,99.3,288.6,96.9,288.6L96.9,288.6z"/>
	</g>
</g>
</svg>
