<?xml version="1.0" encoding="utf-8"?>
<!-- Generator: Adobe Illustrator 23.0.1, SVG Export Plug-In . SVG Version: 6.00 Build 0)  -->
<svg version="1.1" id="Capa_1" xmlns="http://www.w3.org/2000/svg" xmlns:xlink="http://www.w3.org/1999/xlink" x="0px" y="0px"
	 viewBox="0 0 385.41 309.18" style="enable-background:new 0 0 385.41 309.18;" xml:space="preserve">
<style type="text/css">
	.st0{fill:#E2EBF9;}
	.st1{fill:#FFFFFF;}
	.st2{fill:#FF6417;}
	.st3{fill:#5DE1C0;}
</style>
<g>
	<path d="M351.32,112.86c-0.9,5.48-1.6,11.01-2.74,16.45c-3.93,18.79-11.75,35.99-21.83,52.23c-12.99,20.94-29.22,39.17-47.08,56.03
		c-25.1,23.71-52.77,43.96-82.44,61.56c-3.24,1.93-5.93,1.91-9.16-0.01c-39.32-23.33-75.1-51.05-105.45-85.4
		c-17.9-20.26-32.65-42.55-41.45-68.36c-5.34-15.67-8.32-31.72-6.62-48.37c3.94-38.59,32.26-72.49,71.3-78.91
		c34.44-5.66,62.7,5.76,84.71,32.79c0.52,0.64,1.01,1.31,1.53,1.95c0.12,0.14,0.33,0.21,0.54,0.33c3.32-3.76,6.49-7.68,10-11.25
		c29.83-30.29,79.23-33.98,112.92-8.1c19.33,14.84,30.82,34.62,34.56,58.79c0.41,2.63,0.79,5.26,1.19,7.89
		C351.32,104.6,351.32,108.73,351.32,112.86z M44.36,101.94c0.1,19.69,3.9,34.41,9.75,48.63c9.8,23.81,24.77,44.22,42.15,62.93
		c27.54,29.64,59.36,53.96,93.86,74.9c2.01,1.22,3.38,1.02,5.27-0.12c29.07-17.61,56.23-37.72,80.63-61.42
		c18.21-17.69,34.63-36.85,46.98-59.22c9.27-16.79,15.94-34.5,17.61-53.69c1.97-22.73-4.32-43.18-19.23-60.56
		c-14.53-16.95-33.18-26.07-55.53-26.46c-21.61-0.38-40.43,7.06-55.85,22.41c-3.35,3.34-6.2,7.18-9.4,10.68
		c-4.49,4.93-11.24,4.93-15.82,0.08c-0.85-0.9-1.64-1.86-2.39-2.84c-8.47-11.06-19.07-19.38-32.03-24.54
		c-21.15-8.42-42.31-8.39-62.59,2.12C59.11,49.68,45.88,74.47,44.36,101.94z"/>
	<path class="st0" d="M44.36,101.94c1.52-27.47,14.74-52.26,43.41-67.12c20.27-10.51,41.43-10.54,62.59-2.12
		c12.97,5.16,23.56,13.48,32.03,24.54c0.75,0.98,1.54,1.94,2.39,2.84c4.57,4.84,11.32,4.84,15.82-0.08c3.2-3.5,6.05-7.34,9.4-10.68
		c15.42-15.35,34.25-22.8,55.85-22.41c22.35,0.4,41.01,9.52,55.53,26.46c14.91,17.39,21.2,37.84,19.23,60.56
		c-1.66,19.19-8.34,36.91-17.61,53.69c-12.35,22.37-28.77,41.53-46.98,59.22c-24.4,23.7-51.56,43.81-80.63,61.42
		c-1.89,1.14-3.25,1.35-5.27,0.12c-34.51-20.94-66.32-45.26-93.86-74.9c-17.39-18.71-32.36-39.12-42.15-62.93
		C48.26,136.34,44.47,121.63,44.36,101.94z M95.11,179.78c-3.95-0.03-6.37,2.21-6,5.08c0.21,1.62,1.03,3.41,2.14,4.61
		c10.83,11.74,21.52,23.65,32.8,34.95c7.12,7.14,15.11,13.44,22.91,19.86c1.35,1.11,3.9,1.63,5.57,1.19
		c1.37-0.36,3.17-2.6,3.12-3.94c-0.07-1.86-1.26-4.19-2.73-5.4c-19.82-16.3-38.46-33.76-54.45-53.92
		C97.46,180.95,95.76,180.24,95.11,179.78z M329.42,105.91c-0.2-11.76-3.02-22.84-8.64-33.18c-3.78-6.95-8.75-12.99-14.59-18.3
		c-2.47-2.25-5.41-2.26-7.46-0.17c-2.02,2.06-1.92,4.96,0.32,7.46c0.89,1,1.88,1.91,2.83,2.86c7.34,7.28,12.27,15.95,15.01,25.9
		c1.91,6.94,2.49,13.97,2.04,21.14c-0.24,3.84,1.68,6.17,4.78,6.31c3.14,0.14,5.14-2.04,5.36-5.83
		C329.18,110.03,329.3,107.97,329.42,105.91z M123.75,38.57c-1.13,0-2.3-0.17-3.39,0.03c-2.68,0.49-4.22,2.3-4.24,4.94
		c-0.02,2.47,1.26,4.45,3.87,4.86c3.15,0.5,6.36,0.55,9.51,1.04c7.72,1.21,14.84,4.06,21.54,8.08c3.05,1.83,6.13,1.12,7.58-1.38
		c1.54-2.64,0.71-5.46-2.27-7.38C146.42,42.39,135.52,39.08,123.75,38.57z M275.31,39.07c-2.88,0.51-4.88,1.99-5.29,4.46
		c-0.44,2.65,0.49,4.8,3.1,5.68c3.89,1.31,7.83,2.5,11.82,3.45c2.62,0.62,4.7-0.59,5.64-3.15c0.94-2.54,0.27-5.01-2.21-6.03
		C284.14,41.73,279.68,40.51,275.31,39.07z"/>
	<path class="st1" d="M42.64,104.45c1.52-27.47,10.75-46.42,29.8-62.33c18.02-15.06,53.82-18.95,74.97-10.53
		c12.97,5.16,25.66,13.7,34.14,24.76c0.85,0.9,0,0,0.85,0.9c4.57,4.84,8.52,8.08,13.25,5.9c3.2-3.5-2.33,2.51,1.02-0.83
		c15.42-15.35,26.18-23.7,47.79-23.31c22.35,0.4,41.01,9.52,55.53,26.46c14.91,17.39,21.2,37.84,19.23,60.56
		c-1.66,19.19-8.34,36.91-17.61,53.69c-12.35,22.37-28.77,41.53-46.98,59.22c-24.4,23.7-36.37,30.5-65.44,48.11
		c-1.89,1.14-16.31-7.53-18.32-8.75c-34.51-20.94-71.63-57.42-94.99-89.37c-13.83-19.54,0,0-20.46-35.32
		C49.56,139.4,42.74,124.15,42.64,104.45z M102.34,50.66c-1.13,0-2.3-0.17-3.39,0.03C96.26,51.19,114.11,51.17,102.34,50.66z"/>
	<path class="st2" d="M95.11,179.78c0.66,0.46,2.35,1.17,3.35,2.43c15.99,20.16,34.64,37.62,54.45,53.92
		c1.47,1.21,2.66,3.54,2.73,5.4c0.05,1.34-1.75,3.58-3.12,3.94c-1.67,0.44-4.22-0.08-5.57-1.19c-7.8-6.42-15.79-12.72-22.91-19.86
		c-11.28-11.3-21.97-23.21-32.8-34.95c-1.11-1.2-1.93-3-2.14-4.61C88.74,181.98,91.15,179.74,95.11,179.78z"/>
	<path class="st3" d="M329.42,105.91c-0.12,2.06-0.23,4.12-0.35,6.18c-0.22,3.8-2.22,5.97-5.36,5.83c-3.1-0.14-5.02-2.47-4.78-6.31
		c0.45-7.17-0.13-14.2-2.04-21.14c-2.74-9.96-7.67-18.62-15.01-25.9c-0.95-0.94-1.94-1.86-2.83-2.86c-2.24-2.5-2.34-5.4-0.32-7.46
		c2.05-2.09,4.99-2.07,7.46,0.17c5.84,5.31,10.81,11.34,14.59,18.3C326.4,83.07,329.22,94.15,329.42,105.91z"/>
	<path class="st2" d="M123.75,38.57c11.77,0.51,22.67,3.82,32.6,10.21c2.98,1.92,3.8,4.74,2.27,7.38c-1.45,2.49-4.53,3.21-7.58,1.38
		c-6.7-4.02-13.82-6.87-21.54-8.08c-3.15-0.49-6.36-0.54-9.51-1.04c-2.61-0.41-3.89-2.39-3.87-4.86c0.02-2.65,1.56-4.45,4.24-4.94
		C121.46,38.4,122.62,38.57,123.75,38.57z"/>
	<path class="st3" d="M275.31,39.07c4.37,1.44,8.82,2.66,13.06,4.41c2.47,1.02,3.14,3.49,2.21,6.03c-0.94,2.56-3.02,3.77-5.64,3.15
		c-3.99-0.95-7.93-2.14-11.82-3.45c-2.61-0.88-3.54-3.02-3.1-5.68C270.43,41.06,272.43,39.58,275.31,39.07z"/>
</g>
</svg>
