<?xml version="1.0" encoding="utf-8"?>
<!-- Generator: Adobe Illustrator 23.0.1, SVG Export Plug-In . SVG Version: 6.00 Build 0)  -->
<svg version="1.1" id="Capa_1" xmlns="http://www.w3.org/2000/svg" xmlns:xlink="http://www.w3.org/1999/xlink" x="0px" y="0px"
	 viewBox="0 0 375.9 435.2" style="enable-background:new 0 0 375.9 435.2;" xml:space="preserve">
<style type="text/css">
	.st0{fill:#E2EBF9;}
	.st1{fill:#FFFFFF;}
	.st2{fill:none;}
	.st3{fill:#FF914D;}
	.st4{fill:#FF8125;}
	.st5{fill:#434C54;}
	.st6{fill:#E1EAF8;}
	.st7{fill:#5DE0BF;}
	.st8{fill:#FFC843;}
	.st9{fill:#969BA1;}
	.st10{fill:#5DE1C0;}
</style>
<polygon class="st0" points="179.7,46.2 74.8,106.8 23.4,79.4 131.4,16.9 "/>
<polygon class="st0" points="248.1,217.8 135.4,272.2 135.4,145.2 244.6,82.6 "/>
<polygon class="st1" points="246.3,221.1 148.8,268.1 148.8,141.2 248.1,81 "/>
<polygon class="st1" points="186.4,51.3 81.5,111.9 30.1,84.5 138.1,22 "/>
<polygon class="st0" points="235.2,77.4 130.2,138 78.9,110.6 186.9,48.1 "/>
<polygon class="st1" points="241.9,82.5 136.9,143.2 85.6,115.8 193.6,53.3 "/>
<polygon class="st0" points="131.4,269.7 18.4,209.6 23.4,86.9 131.4,149 "/>
<polygon class="st1" points="119.9,264.1 20.8,211.4 18.4,82.6 119.9,143.4 "/>
<path class="st2" d="M260.7,297c-22.8,4.4-77.2,7-89.3,0c-7.9-4.6-30.3-5.1-44.9-4.8v3.5c15-1.6,27.9-0.1,44.4,5.2
	c0.2,0.1,0.3,0.1,0.5,0.2c0.2,0,0.4,0.1,0.6,0.2c0.4,0.1,0.9,0.2,1.4,0.4c6.3,1.7,19.4,5.3,30.9,3.7c13.1-1.8,35.3-3.5,51.5-4.5
	c0.2,0,0.4,0,0.6,0c8.3,0.6,14.7,3,19.2,7.2v-8.1C272.2,297.2,267.5,295.7,260.7,297z"/>
<path class="st1" d="M336,281.6l-43.6,48.1c-0.6,0.6-1.3,1.1-2.1,1.3c-1.4,0.4-2.8,0.9-4.2,1.5c-2.2,0.8-4.5,1.6-6.9,2.2
	c-0.1,0-0.1,0-0.2,0c-20.8,5-43.8,8.2-66,11.3c-8.9,1.3-17.3,2.4-25.6,3.7c-0.2,0-0.5,0.1-0.7,0.1c0,0-0.1,0-0.1,0
	c-6.2-0.1-10.6-4.1-11-9.9c-0.2-2.6,1.8-4.8,4.3-5c2.6-0.2,4.8,1.8,5,4.3c0,0.5,0.1,1.1,1.5,1.2c8.2-1.3,16.9-2.5,25.3-3.7
	c20.8-2.9,42.3-5.9,61.8-10.4c0-0.2,0.1-0.5,0.1-0.7c0.1-0.6,0.3-1.5,0.2-1.8c-1.5-8.9-6.8-13.1-17.8-14c-16,1-37.7,2.7-50.5,4.4
	c-13.4,1.8-27.7-2.1-34.6-4c-0.5-0.1-1-0.3-1.4-0.4c-1.1-0.3-1.8-0.5-2.3-0.6c-0.5-0.1-1-0.3-1.4-0.5c-16.2-4.9-28.3-5.8-43.9-3.4
	c-4.9,0.8-10.8,1.8-17,3c-2.5,0.4-5,0.9-7.4,1.3V359c19.4,3.3,57.7,10,77.7,15.6c8.2,2.3,16.8,2.1,24.9-0.4
	c29.9-9.3,80.1-23.1,98.1-32.1c3.8-0.6,18.5-15.9,18.5-15.9c8.5-15.2,19-31,29.1-46.2c-1.1-0.4-2.4-0.7-3.7-0.7
	C339.4,279.2,337.4,280,336,281.6z"/>
<path class="st0" d="M298.1,342.1c-17.9,9-68.2,22.8-98.1,32.1c-8.1,2.5-16.7,2.7-24.9,0.4c-20-5.6-58.3-12.3-77.7-15.6v26.4
	c19.5,3.3,58.5,10.1,78.9,15.8c7.3,2,15,1.9,22.3-0.3c7.5-2.3,16.3-5,25.5-7.7c27.5-8.2,58.8-17.5,71.8-24.1c0.3-0.2,0.7-0.3,1-0.4
	c2.2-1,9.8-8,15.7-14.1c7.9-14.1,17.4-28.5,26.7-42.5c3.8-5.8,7.8-11.8,11.4-17.5c3.1-4.8-1.1-11.3-2.3-12.8
	c-0.4-0.4-1.5-1.1-2.9-1.7c-10.1,15.3-20.6,31-29.1,46.2C316.6,326.2,301.9,341.5,298.1,342.1z"/>
<rect x="52.9" y="301.6" class="st3" width="9.7" height="95"/>
<path class="st4" d="M85.5,357v-49.9c0.8-0.1,1.7-0.3,2.6-0.4v-5.1H62.5v95h25.6v-8.1c-1.7-0.3-2.6-0.4-2.6-0.4V357z"/>
<path class="st4" d="M85.5,307.2V357c0,0,0.9,0.1,2.6,0.4v-50.7C87.2,306.9,86.4,307.1,85.5,307.2z"/>
<path class="st4" d="M85.5,388.1c0,0,0.9,0.1,2.6,0.4v-31.1c-1.7-0.3-2.6-0.4-2.6-0.4V388.1z"/>
<path class="st5" d="M355.7,275.6c-2.8-3.3-8.3-5.5-13.6-5.6c-5.1-0.1-9.7,1.8-13,5.4l-42.7,47.2c-0.5,0.2-1,0.3-1.5,0.5l-9.3-15.2
	c-4.5-4.2-10.9-6.6-19.2-7.2c-0.2,0-0.4,0-0.6,0c-16.2,1-38.4,2.7-51.5,4.5c-11.5,1.6-24.6-2-30.9-3.7c-0.5-0.1-1-0.3-1.4-0.4
	c-0.2-0.1-0.4-0.1-0.6-0.2c-0.2-0.1-0.3-0.1-0.5-0.2c-16.4-5.2-29.4-6.8-44.4-5.2l-9.3,1.3c-4.2,0.7-9,1.6-14,2.5
	c-1.9,0.4-3.9,0.7-5.8,1c-0.5-4.6-4.4-8.1-9.1-8.1H52.7c-5,0-9.1,4.1-9.1,9.1v95.3c0,5,4.1,9.1,9.1,9.1h35.6c5,0,9.1-4.1,9.1-9.1v-2
	c19.8,3.3,57,9.9,76.4,15.3c4.3,1.2,8.7,1.8,13.1,1.8c4.9,0,9.8-0.7,14.5-2.2c7.5-2.3,16.2-4.9,25.4-7.7
	c27.6-8.2,58.8-17.5,72.9-24.5c1.9-0.5,4.9-2.3,12.2-9.2c4.2-3.9,7.8-7.7,8-7.9c0.3-0.3,0.5-0.6,0.7-1c7.8-13.9,17.4-28.4,26.6-42.5
	c3.8-5.8,7.8-11.8,11.5-17.6C364.2,291,359.9,280.6,355.7,275.6z M354.8,297c-12.5,19.5-27.1,40.3-38.3,60.3
	c0,0-14.6,15.3-18.5,15.9c-17.4,8.8-65.1,21.9-95.2,31.2c-1,0.3-1.9,0.6-2.9,0.9c-8.1,2.5-16.7,2.7-24.9,0.4
	c-21.7-6.1-65.2-13.5-82.3-16.4v7.5c0,2.5-2,4.5-4.5,4.5H62.5h-9.8c-2.5,0-4.5-2-4.5-4.5v-95.3c0-2.5,2-4.5,4.5-4.5h9.8h25.8
	c0.2,0,0.3,0,0.5,0c2.3,0.2,4,2.1,4,4.4v4.5c9.6-1.7,20.4-3.7,28.4-5c17.7-2.8,31.2-1.2,48.3,4.2c0,0-4.3-1.1,1.3,0.4
	c6.2,1.7,20.8,6,34.1,4.2c13.3-1.8,36-3.6,51.1-4.5c12.1,0.8,20.3,5.8,22.3,17.9c0.3,2-0.9,4.9-0.5,7c3.8-0.8,7.4-2.5,11.1-3.6
	l43.6-48.2c4.7-5.1,11.8-4.4,16.3-2.2c0,0,0,0,0,0c0.2,0.1,0.4,0.2,0.6,0.3c0,0,0,0,0,0c0.2,0.1,0.3,0.2,0.5,0.3c0,0,0,0,0.1,0
	c0.1,0.1,0.3,0.2,0.4,0.3c0,0,0.1,0,0.1,0.1c0.1,0.1,0.2,0.2,0.4,0.3c0,0,0.1,0.1,0.1,0.1c0.1,0.1,0.2,0.2,0.3,0.2
	c0,0,0.1,0.1,0.1,0.1c0.1,0.1,0.2,0.2,0.3,0.2c0,0,0.1,0.1,0.1,0.1c0.1,0.1,0.2,0.2,0.3,0.3C354.6,281.5,359.3,290,354.8,297z"/>
<path class="st5" d="M383.3,263.2c0.2,0.1,0.3,0.2,0.4,0.3C383.6,263.4,383.4,263.3,383.3,263.2z"/>
<path class="st5" d="M382.7,262.8c0.2,0.1,0.3,0.2,0.5,0.3C383,263,382.8,262.9,382.7,262.8z"/>
<path class="st5" d="M383.9,263.6c0.1,0.1,0.3,0.2,0.4,0.3C384.1,263.8,384,263.7,383.9,263.6z"/>
<path class="st5" d="M384.4,264c0.1,0.1,0.2,0.2,0.3,0.3C384.6,264.2,384.5,264.1,384.4,264z"/>
<path class="st5" d="M382,262.4c0.2,0.1,0.4,0.2,0.6,0.3C382.4,262.6,382.2,262.5,382,262.4z"/>
<path class="st5" d="M381.2,262c0.2,0.1,0.5,0.2,0.7,0.4C381.7,262.2,381.5,262.1,381.2,262z"/>
<path class="st5" d="M354.8,297c-12.5,19.5-27.1,40.3-38.3,60.3C327.7,337.3,342.3,316.5,354.8,297z"/>
<path class="st5" d="M384.8,264.4c0.1,0.1,0.3,0.3,0.4,0.4C385.1,264.7,385,264.6,384.8,264.4z"/>
<path class="st5" d="M97.4,359v-49.1c2.5-0.4,5-0.9,7.4-1.3c6.2-1.1,12.1-2.2,17-3c15.6-2.4,27.8-1.5,43.9,3.4
	c0.4,0.2,0.9,0.4,1.4,0.5c0.4,0.1,1.2,0.3,2.3,0.6c0.4,0.1,0.9,0.2,1.4,0.4c6.9,1.9,21.2,5.8,34.6,4c12.8-1.7,34.5-3.5,50.5-4.4
	c10.9,0.8,16.3,5,17.8,14c0,0.3-0.1,1.2-0.2,1.8c0,0.2-0.1,0.5-0.1,0.7c-19.5,4.4-41,7.5-61.8,10.4c-8.4,1.2-17.1,2.4-25.3,3.7
	c-1.4-0.1-1.5-0.7-1.5-1.2c-0.2-2.6-2.4-4.5-5-4.3c-2.6,0.2-4.5,2.4-4.3,5c0.4,5.8,4.8,9.7,11,9.9c0,0,0.1,0,0.1,0
	c0.2,0,0.5,0,0.7-0.1c8.3-1.3,16.7-2.5,25.6-3.7c22.3-3.1,45.3-6.3,66-11.3c0.1,0,0.1,0,0.2,0c2.4-0.6,4.7-1.4,6.9-2.2
	c1.5-0.5,2.9-1,4.2-1.5c0.8-0.2,1.6-0.7,2.1-1.3l43.6-48.1c1.5-1.6,3.4-2.4,5.9-2.3c1.4,0,2.7,0.3,3.7,0.7c0.9-1.3,1.7-2.7,2.6-4
	c0.2,0.1,0.4,0.2,0.6,0.3c-4.5-2.2-11.7-2.9-16.3,2.2l-43.6,48.2c-3.7,1.1-7.3,2.8-11.1,3.6c-0.4-2.1,0.8-5,0.5-7
	c-2-12.1-10.2-17.1-22.3-17.9c-15.1,0.9-37.8,2.7-51.1,4.5c-13.3,1.8-28-2.6-34.1-4.2c-5.6-1.5-1.3-0.4-1.3-0.4
	c-17.1-5.5-30.5-7-48.3-4.2c-8,1.2-18.7,3.3-28.4,5v52.2C94.2,358.5,95.7,358.7,97.4,359z"/>
<path class="st5" d="M381.9,262.4C381.9,262.4,382,262.4,381.9,262.4C382,262.4,381.9,262.4,381.9,262.4z"/>
<path class="st5" d="M382.6,262.7C382.6,262.7,382.6,262.8,382.6,262.7C382.6,262.8,382.6,262.7,382.6,262.7z"/>
<path class="st5" d="M381.2,262C381.2,262,381.2,262,381.2,262C381.2,262,381.2,262,381.2,262z"/>
<path class="st5" d="M175.1,405.7c8.2,2.3,16.8,2.1,24.9-0.4C191.9,407.8,183.3,407.9,175.1,405.7z"/>
<path class="st5" d="M298.1,373.2c-17.4,8.8-65.1,21.9-95.2,31.2C233.1,395.1,280.7,381.9,298.1,373.2z"/>
<path class="st5" d="M383.2,263.1c0,0,0.1,0,0.1,0.1C383.2,263.2,383.2,263.1,383.2,263.1z"/>
<path class="st5" d="M383.7,263.5c0,0,0.1,0.1,0.1,0.1C383.8,263.6,383.8,263.5,383.7,263.5z"/>
<path class="st5" d="M384.2,263.9c0,0,0.1,0.1,0.1,0.1C384.3,264,384.3,263.9,384.2,263.9z"/>
<path class="st5" d="M384.7,264.3c0,0,0.1,0.1,0.1,0.1C384.8,264.4,384.7,264.4,384.7,264.3z"/>
<path class="st5" d="M351.8,278.3C351.8,278.3,351.7,278.2,351.8,278.3c-0.2-0.2-0.3-0.3-0.4-0.3c0,0-0.1-0.1-0.1-0.1
	c-0.1-0.1-0.2-0.2-0.3-0.2c0,0-0.1-0.1-0.1-0.1c-0.1-0.1-0.2-0.2-0.4-0.3c0,0-0.1,0-0.1-0.1c-0.1-0.1-0.3-0.2-0.4-0.3c0,0,0,0-0.1,0
	c-0.2-0.1-0.3-0.2-0.5-0.3c0,0,0,0,0,0c-0.2-0.1-0.4-0.2-0.6-0.3c0,0,0,0,0,0c-0.2-0.1-0.4-0.2-0.6-0.3c-0.9,1.3-1.7,2.6-2.6,4
	c1.5,0.5,2.6,1.2,2.9,1.7c1.3,1.5,5.4,8,2.3,12.8c-3.7,5.7-7.6,11.7-11.4,17.5c-9.2,14-18.8,28.4-26.7,42.5
	c-5.9,6.2-13.5,13.1-15.7,14.1c-0.4,0.1-0.7,0.2-1,0.4c-13.1,6.6-44.3,15.9-71.8,24.1c-9.3,2.8-18,5.4-25.5,7.7
	c-7.3,2.3-15,2.4-22.3,0.3c-20.4-5.7-59.5-12.6-78.9-15.8V359c-1.7-0.3-3.3-0.5-4.7-0.8v31.1c17.2,2.8,60.6,10.3,82.3,16.4
	c8.2,2.3,16.8,2.1,24.9-0.4c0.9-0.3,1.9-0.6,2.9-0.9c30.1-9.3,77.8-22.5,95.2-31.2c3.8-0.6,18.5-15.9,18.5-15.9
	c11.2-20,25.7-40.8,38.3-60.3c4.5-7-0.2-15.5-2.7-18.4C352,278.5,351.9,278.4,351.8,278.3z"/>
<path class="st5" d="M52.9,396.6v-95h9.7V297h-9.8c-2.5,0-4.5,2-4.5,4.5v95.3c0,2.5,2,4.5,4.5,4.5h9.8v-4.7H52.9z"/>
<path class="st5" d="M92.8,301.4c0-2.3-1.8-4.2-4-4.4C91,297.2,92.8,299.1,92.8,301.4z"/>
<path class="st5" d="M88.1,301.6v5.1c1.5-0.2,3.1-0.5,4.7-0.8v-4.5c0-2.3-1.8-4.2-4-4.4c-0.2,0-0.3,0-0.5,0H62.5v4.7H88.1z"/>
<path class="st5" d="M88.1,396.6H62.5v4.7h25.8c2.5,0,4.5-2,4.5-4.5v-7.5c-1.9-0.3-3.5-0.6-4.7-0.8V396.6z"/>
<path class="st5" d="M88.1,357.5c1.2,0.2,2.8,0.5,4.7,0.8V306c-1.6,0.3-3.1,0.5-4.7,0.8V357.5z"/>
<path class="st5" d="M88.1,357.5v31.1c1.2,0.2,2.8,0.5,4.7,0.8v-31.1C90.9,357.9,89.3,357.7,88.1,357.5z"/>
<path class="st5" d="M250.1,118.9V79.6c0-1.5-0.7-2.9-2-3.7L134.7,10.4c-1.3-0.8-2.9-0.8-4.2,0L17,75.9c-1.3,0.8-2.1,2.2-2.1,3.7
	v131c0,1.5,0.8,2.9,2.1,3.7l113.5,65.5c0.6,0.4,1.4,0.6,2.1,0.6c0.8,0,1.5-0.2,2.2-0.6l59.7-34.4L250.1,118.9z M266.3,127.4
	c3.4,0,6.1,2.8,6.1,6.1l0,0v0.4c0,3.4-2.8,6.1-6.1,6.1c0,0,0,0,0,0h-24.6c-3.4,0-6.1-2.8-6.1-6.1l0,0v-0.4c0-3.4,2.8-6.1,6.1-6.1
	c0,0,0,0,0,0H266.3z M132.6,19l47.1,27.2l-105,60.6L27.6,79.6L132.6,19z M128.6,268.8L23.4,208.2V86.9l105.2,60.6V268.8z
	 M132.6,140.2l-49.4-28.5l105-60.6l49.4,28.5L132.6,140.2z M194.5,235.6L137,268.8V147.5l104.6-60.6v32h0.1
	C235.1,119,194.5,235.6,194.5,235.6z"/>
<path class="st1" d="M298.8,153.4v122.8H186.3V127.3h86.5L298.8,153.4z"/>
<path class="st6" d="M298.8,153.4v122.8h-10.1V143.2L298.8,153.4z"/>
<path class="st6" d="M273,153.2l25.9,0.2l-26.1-26.1L273,153.2z"/>
<path class="st7" d="M200.5,164.1h13.7v13.7h-13.7V164.1z"/>
<path class="st8" d="M200.5,202.9h13.7v13.7h-13.7V202.9z"/>
<path class="st8" d="M200.5,241.6h13.7v13.7h-13.7V241.6z"/>
<path class="st3" d="M251.2,137.2h-13.8l-1.8-16H253L251.2,137.2z"/>
<path class="st5" d="M186.3,139.6c1.3,0,2.3-1,2.3-2.3v-7.6h45.6l0.9,7.9c0.1,1.2,1.1,2.1,2.3,2.1h13.8c1.2,0,2.2-0.9,2.3-2.1
	l0.9-7.9h16l0.2,23.5c0,1.3,1,2.3,2.3,2.3l23.5,0.2v33c0,1.3,1,2.3,2.3,2.3c1.3,0,2.3-1,2.3-2.3v-35.3c0-0.6-0.2-1.2-0.7-1.7
	l-26.1-26.1c-0.4-0.4-1-0.7-1.7-0.7h-17.8l0.4-3.4c0.1-0.7-0.1-1.3-0.6-1.8c-0.4-0.5-1.1-0.8-1.7-0.8h-17.4c-0.7,0-1.3,0.3-1.7,0.8
	c-0.4,0.5-0.7,1.2-0.6,1.8l0.4,3.4h-47.4c-1.3,0-2.3,1-2.3,2.3v9.9C183.9,138.5,185,139.6,186.3,139.6z M275.2,133l18,18l-17.9-0.1
	L275.2,133z M250.4,123.6l-1.3,11.3h-9.6l-0.9-7.8c0,0,0,0,0,0l-0.4-3.4H250.4z"/>
<path class="st5" d="M186.3,145.3c-1.3,0-2.3,1-2.3,2.3v16.6c0,1.3,1,2.3,2.3,2.3c1.3,0,2.3-1,2.3-2.3v-16.6
	C188.6,146.3,187.6,145.3,186.3,145.3z"/>
<g>
	<path class="st9" d="M281.7,164h-56.5c-1.3,0-2.3,1-2.3,2.3s1,2.3,2.3,2.3h56.5c1.3,0,2.3-1,2.3-2.3S283,164,281.7,164z"/>
	<path class="st9" d="M281.7,173.2h-56.5c-1.3,0-2.3,1-2.3,2.3c0,1.3,1,2.3,2.3,2.3h56.5c1.3,0,2.3-1,2.3-2.3
		C284,174.2,283,173.2,281.7,173.2z"/>
	<path class="st9" d="M281.7,202.8h-56.5c-1.3,0-2.3,1-2.3,2.3c0,1.3,1,2.3,2.3,2.3h56.5c1.3,0,2.3-1,2.3-2.3
		C284,203.8,283,202.8,281.7,202.8z"/>
	<path class="st9" d="M281.7,211.9h-56.5c-1.3,0-2.3,1-2.3,2.3c0,1.3,1,2.3,2.3,2.3h56.5c1.3,0,2.3-1,2.3-2.3
		C284,213,283,211.9,281.7,211.9z"/>
	<path class="st9" d="M225.3,246.2h56.4c1.3,0,2.3-1,2.3-2.3c0-1.3-1-2.3-2.3-2.3h-56.5c-1.3,0-2.4,1.1-2.3,2.4
		C222.9,245.2,224,246.2,225.3,246.2z"/>
	<path class="st9" d="M225.3,255.3h56.4c1.3,0,2.3-1,2.3-2.3c0-1.3-1-2.3-2.3-2.3h-56.5c-1.3,0-2.4,1.1-2.3,2.4
		C222.9,254.4,224,255.3,225.3,255.3z"/>
</g>
<path class="st10" d="M313.9,239.1l-36.4-13c-1.9-0.7-3.8,1.2-3.1,3.1l13,36.4c0.7,2.1,3.6,2.2,4.5,0.2l4.3-9.2l13.7,13.7
	c1,1,2.5,1,3.5,0l5.2-5.2c1-1,1-2.5,0-3.5l-13.7-13.7l9.2-4.3C316.1,242.7,315.9,239.8,313.9,239.1z"/>
<path class="st5" d="M320.2,260l-11.4-11.4l6.2-2.9c1.8-0.8,2.8-2.6,2.7-4.6c-0.1-1.9-1.3-3.6-3.2-4.3l-13.5-4.8v-33.9
	c0-1.3-1-2.3-2.3-2.3c-1.3,0-2.3,1-2.3,2.3v32.2l-18.2-6.5c-1.8-0.6-3.7-0.2-5,1.1c-1.3,1.3-1.7,3.2-1.1,5l13,36.4
	c0.7,1.8,2.3,3.1,4.3,3.2c1.9,0.1,3.7-1,4.6-2.7l2.4-5.2v12.2H188.6V174c0-1.3-1-2.3-2.3-2.3c-1.3,0-2.3,1-2.3,2.3v102.2
	c0,1.3,1,2.3,2.3,2.3h112.6c1.3,0,2.3-1,2.3-2.3v-11.4l7.2,7.2c0.9,0.9,2.1,1.4,3.4,1.4c1.3,0,2.5-0.5,3.4-1.4l5.2-5.2
	C322.1,264.9,322.1,261.9,320.2,260z M316.9,263.5l-5.2,5.2c0,0,0,0-0.1,0s-0.1,0-0.1,0l-13.7-13.7c-0.4-0.4-1-0.7-1.7-0.7
	c-0.1,0-0.3,0-0.4,0c-0.8,0.1-1.4,0.6-1.7,1.3l-4.3,9.2c0,0,0,0.1-0.1,0.1c-0.1,0-0.1,0-0.1-0.1l-13-36.4c0,0,0-0.1,0-0.1
	c0,0,0.1,0,0.1,0l36.4,13c0,0,0.1,0,0.1,0.1c0,0.1,0,0.1-0.1,0.1l-9.2,4.3c-0.7,0.3-1.2,1-1.3,1.7c-0.1,0.7,0.1,1.5,0.6,2.1
	l13.7,13.7C317,263.3,317,263.4,316.9,263.5z"/>
</svg>
