<?xml version="1.0" encoding="utf-8"?>
<!-- Generator: Adobe Illustrator 23.0.1, SVG Export Plug-In . SVG Version: 6.00 Build 0)  -->
<svg version="1.1" id="Capa_1" xmlns="http://www.w3.org/2000/svg" xmlns:xlink="http://www.w3.org/1999/xlink" x="0px" y="0px"
	 viewBox="0 0 385.4 309.2" style="enable-background:new 0 0 385.4 309.2;" xml:space="preserve">
<style type="text/css">
	.st0{fill:#FFFFFF;}
	.st1{fill:none;}
	.st2{fill:#E2EBF9;}
	.st3{fill:#FF914D;}
	.st4{fill:#FF8125;}
	.st5{fill:#434C54;}
	.st6{fill:#D4E1F4;}
	.st7{fill:#1AE5BE;}
</style>
<path class="st0" d="M286.7,93.6v38.7c0,1.5-1.4,2.7-3.2,2.7h-5.7V158c0,11.2-11.1,20.4-24.9,20.4H146.8c-0.4,0.5-0.8,1-1.2,1.5h-69
	V67.8c0-11.2,11.1-20.4,24.9-20.4h25.3l36.3-29.7c1.3-1,3.3-1,4.6,0l14.8,12.1l15.9-13c1.3-1,3.3-1,4.6,0l37.4,30.6h12.6
	c13.7,0,24.8,9.1,24.9,20.4v23.1h5.7C285.3,90.9,286.7,92.1,286.7,93.6z"/>
<path class="st1" d="M244.1,212.3c-20.1,3.2-67.9,5.1-78.5,0c-6.9-3.3-26.6-3.6-39.5-3.5v2.5c13.2-1.2,24.6,0,39,3.7
	c0.1,0,0.3,0.1,0.4,0.1c0.2,0,0.3,0.1,0.5,0.1c0.4,0.1,0.8,0.2,1.2,0.3c5.5,1.2,17.1,3.8,27.2,2.7c11.5-1.3,31.1-2.6,45.3-3.3
	c0.2,0,0.4,0,0.5,0c7.3,0.4,12.9,2.1,16.9,5.2v-5.8C254.2,212.4,250,211.3,244.1,212.3z"/>
<path class="st0" d="M310.3,201.2L272,235.9c-0.5,0.5-1.2,0.8-1.9,1c-1.2,0.3-2.4,0.7-3.7,1c-1.9,0.6-4,1.2-6.1,1.6c0,0-0.1,0-0.1,0
	c-18.3,3.6-38.5,5.9-58.1,8.2c-7.8,0.9-15.3,1.8-22.6,2.7c-0.2,0-0.4,0-0.6,0c0,0-0.1,0-0.1,0c-5.4-0.1-9.3-3-9.6-7.1
	c-0.2-1.9,1.5-3.5,3.8-3.6c2.3-0.1,4.2,1.3,4.4,3.1c0,0.3,0.1,0.8,1.3,0.9c7.2-0.9,14.9-1.8,22.3-2.6c18.3-2.1,37.2-4.3,54.4-7.5
	c0-0.2,0.1-0.3,0.1-0.5c0.1-0.4,0.2-1.1,0.2-1.3c-1.3-6.4-6-9.5-15.6-10.1c-14.1,0.7-33.2,1.9-44.4,3.2c-11.8,1.3-24.4-1.5-30.4-2.9
	c-0.4-0.1-0.8-0.2-1.2-0.3c-1-0.2-1.6-0.4-2-0.5c-0.5-0.1-0.9-0.2-1.2-0.4c-14.2-3.6-24.9-4.2-38.7-2.4c-4.3,0.6-9.5,1.3-15,2.1
	c-2.2,0.3-4.4,0.6-6.5,1V257c17.1,2.4,50.8,7.2,68.4,11.2c7.2,1.6,14.8,1.5,21.9-0.3c26.3-6.7,70.5-16.6,86.3-23.2
	c3.3-0.4,16.2-11.4,16.2-11.4c7.5-11,16.7-22.3,25.6-33.3c-0.9-0.3-2.1-0.5-3.3-0.5C313.3,199.5,311.6,200.1,310.3,201.2z"/>
<path class="st2" d="M277,244.8c-15.8,6.5-60,16.4-86.3,23.2c-7.1,1.8-14.7,1.9-21.9,0.3c-17.6-4-51.3-8.9-68.4-11.2v19
	c17.1,2.4,51.5,7.3,69.5,11.4c6.4,1.5,13.2,1.4,19.6-0.2c6.6-1.7,14.3-3.6,22.5-5.6c24.2-5.9,51.7-12.6,63.2-17.4
	c0.3-0.1,0.6-0.2,0.9-0.3c2-0.7,8.6-5.8,13.8-10.2c6.9-10.1,15.3-20.6,23.5-30.7c3.4-4.2,6.8-8.5,10.1-12.6c2.7-3.5-0.9-8.2-2-9.3
	c-0.3-0.3-1.3-0.8-2.6-1.2c-8.9,11-18.1,22.3-25.6,33.3C293.2,233.3,280.3,244.3,277,244.8z"/>
<rect x="61.2" y="215.6" class="st3" width="8.5" height="68.5"/>
<path class="st4" d="M90,255.6v-35.9c0.7-0.1,1.5-0.2,2.3-0.3v-3.7H69.7v68.5h22.5v-5.8c-1.5-0.2-2.3-0.3-2.3-0.3V255.6z"/>
<path class="st4" d="M90,219.6v35.9c0,0,0.8,0.1,2.3,0.3v-36.6C91.5,219.4,90.7,219.5,90,219.6z"/>
<path class="st4" d="M90,278c0,0,0.8,0.1,2.3,0.3v-22.4c-1.5-0.2-2.3-0.3-2.3-0.3V278z"/>
<path class="st5" d="M327.6,196.8c-2.5-2.4-7.3-4-12-4c-4.5-0.1-8.5,1.3-11.4,3.9l-37.6,34.1c-0.4,0.1-0.9,0.2-1.3,0.4l-8.2-10.9
	c-4-3-9.6-4.7-16.9-5.2c-0.2,0-0.4,0-0.5,0c-14.2,0.7-33.8,2-45.3,3.3c-10.1,1.1-21.6-1.5-27.2-2.7c-0.5-0.1-0.9-0.2-1.2-0.3
	c-0.2,0-0.4-0.1-0.5-0.1c-0.1,0-0.3-0.1-0.4-0.1c-14.5-3.8-25.8-4.9-39-3.7l-8.2,1c-3.7,0.5-7.9,1.1-12.3,1.8
	c-1.7,0.3-3.4,0.5-5.1,0.8c-0.4-3.3-3.8-5.9-8-5.9H61c-4.4,0-8,2.9-8,6.6v68.7c0,3.6,3.6,6.6,8,6.6h31.4c4.4,0,8-3,8-6.6v-1.4
	c17.4,2.4,50.1,7.2,67.3,11.1c3.8,0.9,7.6,1.3,11.5,1.3c4.3,0,8.6-0.5,12.7-1.6c6.6-1.7,14.2-3.6,22.4-5.5
	c24.3-5.9,51.7-12.6,64.1-17.7c1.6-0.4,4.3-1.6,10.8-6.6c3.7-2.8,6.9-5.6,7-5.7c0.2-0.2,0.5-0.4,0.6-0.7c6.8-10,15.3-20.5,23.4-30.6
	c3.4-4.2,6.9-8.5,10.1-12.7C335.1,208,331.3,200.4,327.6,196.8z M326.9,212.3c-11,14.1-23.8,29.1-33.7,43.5c0,0-12.9,11-16.2,11.5
	c-15.3,6.3-57.2,15.8-83.8,22.5c-0.9,0.2-1.7,0.4-2.5,0.6c-7.1,1.8-14.7,1.9-21.9,0.3c-19.1-4.4-57.3-9.7-72.5-11.8v5.4
	c0,1.8-1.8,3.2-3.9,3.2H69.7H61c-2.2,0-3.9-1.4-3.9-3.2v-68.7c0-1.8,1.8-3.2,3.9-3.2h8.7h22.7c0.1,0,0.3,0,0.4,0
	c2,0.2,3.5,1.5,3.5,3.2v3.3c8.5-1.2,18-2.7,25-3.6c15.6-2,27.4-0.9,42.5,3.1c0,0-3.8-0.8,1.1,0.3c5.4,1.2,18.3,4.4,30,3.1
	c11.7-1.3,31.7-2.6,45-3.2c10.7,0.6,17.9,4.2,19.6,12.9c0.3,1.5-0.8,3.5-0.4,5c3.3-0.6,6.5-1.8,9.8-2.6l38.4-34.7
	c4.1-3.7,10.4-3.2,14.4-1.6c0,0,0,0,0,0c0.2,0.1,0.3,0.1,0.5,0.2c0,0,0,0,0,0c0.1,0.1,0.3,0.1,0.4,0.2c0,0,0,0,0.1,0
	c0.1,0.1,0.3,0.1,0.4,0.2c0,0,0.1,0,0.1,0c0.1,0.1,0.2,0.1,0.3,0.2c0,0,0.1,0,0.1,0.1c0.1,0.1,0.2,0.1,0.3,0.2c0,0,0.1,0,0.1,0.1
	c0.1,0.1,0.2,0.1,0.2,0.2c0,0,0.1,0,0.1,0.1c0.1,0.1,0.2,0.2,0.3,0.2C326.7,201.1,330.8,207.3,326.9,212.3z"/>
<path class="st5" d="M318.5,172.6c0.1,0.1,0.2,0.1,0.3,0.2C318.7,172.8,318.6,172.7,318.5,172.6z"/>
<path class="st5" d="M318,172.4c0.1,0.1,0.3,0.1,0.4,0.2C318.3,172.5,318.1,172.5,318,172.4z"/>
<path class="st5" d="M318.9,172.9c0.1,0.1,0.2,0.1,0.3,0.2C319.1,173,319,172.9,318.9,172.9z"/>
<path class="st5" d="M319.3,173.1c0.1,0.1,0.2,0.1,0.2,0.2C319.4,173.2,319.3,173.2,319.3,173.1z"/>
<path class="st5" d="M317.5,172.2c0.1,0.1,0.3,0.1,0.4,0.2C317.8,172.3,317.7,172.2,317.5,172.2z"/>
<path class="st5" d="M317,171.9c0.2,0.1,0.3,0.1,0.5,0.2C317.3,172.1,317.2,172,317,171.9z"/>
<path class="st5" d="M326.9,212.3c-11,14.1-23.8,29.1-33.7,43.5C303,241.3,315.9,226.3,326.9,212.3z"/>
<path class="st5" d="M319.6,173.4c0.1,0.1,0.2,0.2,0.3,0.2C319.8,173.5,319.7,173.5,319.6,173.4z"/>
<path class="st5" d="M100.4,257v-35.4c2.2-0.3,4.4-0.6,6.5-1c5.5-0.8,10.7-1.6,15-2.1c13.8-1.8,24.4-1.1,38.7,2.4
	c0.4,0.1,0.8,0.3,1.2,0.4c0.4,0.1,1,0.2,2,0.5c0.4,0.1,0.8,0.2,1.2,0.3c6.1,1.4,18.7,4.2,30.4,2.9c11.3-1.2,30.4-2.5,44.4-3.2
	c9.6,0.6,14.3,3.6,15.6,10.1c0,0.2-0.1,0.9-0.2,1.3c0,0.2-0.1,0.3-0.1,0.5c-17.1,3.2-36,5.4-54.4,7.5c-7.4,0.8-15,1.7-22.3,2.6
	c-1.3-0.1-1.3-0.5-1.3-0.9c-0.2-1.8-2.1-3.2-4.4-3.1c-2.3,0.1-4,1.7-3.8,3.6c0.3,4.2,4.2,7,9.6,7.1c0,0,0.1,0,0.1,0
	c0.2,0,0.4,0,0.6,0c7.3-0.9,14.7-1.8,22.6-2.7c19.6-2.2,39.8-4.6,58.1-8.2c0.1,0,0.1,0,0.1,0c2.1-0.4,4.2-1,6.1-1.6
	c1.3-0.4,2.5-0.8,3.7-1c0.7-0.2,1.4-0.5,1.9-1l38.3-34.7c1.3-1.2,3-1.7,5.2-1.7c1.2,0,2.4,0.2,3.3,0.5c0.8-1,1.5-1.9,2.3-2.9
	c0.2,0.1,0.4,0.1,0.5,0.2c-3.9-1.6-10.3-2.1-14.4,1.6l-38.4,34.7c-3.3,0.8-6.5,2-9.8,2.6c-0.4-1.5,0.7-3.6,0.4-5
	c-1.8-8.7-9-12.3-19.6-12.9c-13.3,0.7-33.3,1.9-45,3.2c-11.7,1.3-24.6-1.9-30-3.1c-4.9-1.1-1.1-0.3-1.1-0.3
	c-15-3.9-26.9-5.1-42.5-3.1c-7,0.9-16.5,2.4-25,3.6v37.7C97.5,256.6,98.9,256.8,100.4,257z"/>
<path class="st5" d="M317.5,172.1C317.5,172.2,317.5,172.2,317.5,172.1C317.5,172.2,317.5,172.2,317.5,172.1z"/>
<path class="st5" d="M318,172.4C318,172.4,318,172.4,318,172.4C318,172.4,318,172.4,318,172.4z"/>
<path class="st5" d="M317,171.9C317,171.9,317,171.9,317,171.9C317,171.9,317,171.9,317,171.9z"/>
<path class="st5" d="M168.8,290.6c7.2,1.6,14.8,1.5,21.9-0.3C183.6,292.2,176,292.3,168.8,290.6z"/>
<path class="st5" d="M277,267.2c-15.3,6.3-57.2,15.8-83.8,22.5C219.7,283,261.7,273.5,277,267.2z"/>
<path class="st5" d="M318.4,172.6C318.4,172.6,318.4,172.6,318.4,172.6C318.4,172.6,318.4,172.6,318.4,172.6z"/>
<path class="st5" d="M318.8,172.8C318.8,172.8,318.9,172.9,318.8,172.8C318.9,172.9,318.8,172.8,318.8,172.8z"/>
<path class="st5" d="M319.2,173.1c0,0,0.1,0,0.1,0.1C319.2,173.1,319.2,173.1,319.2,173.1z"/>
<path class="st5" d="M319.5,173.3C319.5,173.3,319.5,173.3,319.5,173.3C319.5,173.3,319.5,173.3,319.5,173.3z"/>
<path class="st5" d="M324.2,198.8C324.2,198.8,324.2,198.7,324.2,198.8c-0.2-0.1-0.2-0.2-0.3-0.2c0,0-0.1,0-0.1-0.1
	c-0.1-0.1-0.2-0.1-0.3-0.2c0,0-0.1,0-0.1-0.1c-0.1-0.1-0.2-0.1-0.3-0.2c0,0-0.1,0-0.1,0c-0.1-0.1-0.2-0.1-0.4-0.2c0,0,0,0-0.1,0
	c-0.1-0.1-0.3-0.1-0.4-0.2c0,0,0,0,0,0c-0.2-0.1-0.3-0.1-0.5-0.2c0,0,0,0,0,0c-0.2-0.1-0.4-0.1-0.5-0.2c-0.8,1-1.5,1.9-2.3,2.9
	c1.3,0.4,2.3,0.9,2.6,1.2c1.1,1.1,4.8,5.8,2,9.3c-3.2,4.1-6.7,8.4-10.1,12.6c-8.1,10.1-16.5,20.5-23.5,30.7
	c-5.2,4.4-11.9,9.5-13.8,10.2c-0.3,0.1-0.6,0.2-0.9,0.3c-11.5,4.8-39,11.5-63.2,17.4c-8.1,2-15.8,3.9-22.5,5.6
	c-6.4,1.6-13.2,1.7-19.6,0.2c-17.9-4.1-52.3-9.1-69.5-11.4v-19c-1.5-0.2-2.9-0.4-4.1-0.6v22.4c15.1,2.1,53.3,7.4,72.5,11.8
	c7.2,1.6,14.8,1.5,21.9-0.3c0.8-0.2,1.7-0.4,2.5-0.6c26.5-6.7,68.5-16.2,83.8-22.5c3.3-0.4,16.2-11.5,16.2-11.5
	c9.8-14.4,22.6-29.4,33.7-43.5c3.9-5-0.2-11.2-2.4-13.2C324.4,198.9,324.3,198.9,324.2,198.8z"/>
<path class="st5" d="M61.2,284.1v-68.5h8.5v-3.4H61c-2.2,0-3.9,1.4-3.9,3.2v68.7c0,1.8,1.8,3.2,3.9,3.2h8.7v-3.4H61.2z"/>
<path class="st5" d="M96.3,215.5c0-1.7-1.5-3-3.5-3.2C94.8,212.4,96.3,213.8,96.3,215.5z"/>
<path class="st5" d="M92.2,215.6v3.7c1.3-0.2,2.7-0.4,4.1-0.6v-3.3c0-1.7-1.5-3-3.5-3.2c-0.1,0-0.3,0-0.4,0H69.7v3.4H92.2z"/>
<path class="st5" d="M92.2,284.1H69.7v3.4h22.7c2.2,0,3.9-1.4,3.9-3.2v-5.4c-1.7-0.2-3-0.4-4.1-0.6V284.1z"/>
<path class="st5" d="M92.2,255.9c1,0.1,2.4,0.3,4.1,0.6v-37.7c-1.4,0.2-2.8,0.4-4.1,0.6V255.9z"/>
<path class="st5" d="M92.2,255.9v22.4c1,0.1,2.4,0.3,4.1,0.6v-22.4C94.7,256.2,93.3,256,92.2,255.9z"/>
<g>
	<path class="st6" d="M192.5,38L206,26.8l25.1,20.6l-30.5-25l-13.6,11.1L204,47.4L192.5,38z"/>
	<path class="st6" d="M165.4,23.3L136,47.4h10.8l24-19.7L165.4,23.3z"/>
	<path class="st6" d="M212.2,52.7h-0.1H212.2L212.2,52.7z"/>
	<path class="st6" d="M140.4,52.7h-0.1H140.4L140.4,52.7z"/>
	<path class="st6" d="M94,67.8c0-8.3,8.2-15.1,18.4-15.1h-10.8c-10.1,0-18.4,6.7-18.4,15.1v49.6c3.7-1.9,7.3-3.8,10.8-5.8V67.8z"/>
	<path class="st6" d="M165.5,132.7c0-1.1-0.8-2-2-2.4l-0.3-0.1c-16.9-6-32.9-13.6-47.7-22.6c-1.2-0.7-2.7-0.7-3.9,0
		c-1.1,0.7-2.3,1.4-3.5,2.1c13.8,8.1,28.6,15,44.2,20.5l0.3,0.1c1.2,0.4,2,1.4,2,2.4v23.1c0,5.9-1.5,11.8-4.4,17.2h10.8
		c2.9-5.4,4.4-11.3,4.4-17.2V132.7z"/>
	<path class="st6" d="M235.2,96.2c-6.4,0-12.3,2.4-16.2,6.6c-3.8,4.1-5.1,9.5-3.4,14.5c2.4-7.2,10.5-12.2,19.6-12.2h45v-8.9
		L235.2,96.2z"/>
</g>
<path class="st5" d="M283.5,90.9h-5.7V67.8c0-11.2-11.1-20.4-24.9-20.4h-12.6l-37.4-30.6c-1.3-1-3.3-1-4.6,0l-15.9,13l-14.8-12.1
	c-1.3-1-3.3-1-4.6,0l-36.3,29.7h-25.3c-13.7,0-24.9,9.1-24.9,20.4v54.3h6.5V67.8c0-8.3,8.2-15.1,18.4-15.1h27.9l0.1,0l0.1,0h71.8
	l0.1,0l0.1,0h51.5c10.1,0,18.4,6.7,18.4,15.1v23.1h-36.1c-14.8,0.1-26.7,9.9-26.7,22s11.9,21.9,26.7,22h36.1V158
	c0,8.3-8.2,15.1-18.4,15.1H145v5.3h107.9c13.7,0,24.8-9.1,24.9-20.4v-23.1h5.7c1.8,0,3.2-1.2,3.2-2.7V93.6
	C286.7,92.1,285.3,90.9,283.5,90.9z M136,47.4l29.4-24.1l5.4,4.4l24,19.7H136z M204,47.4l-16.9-13.9l13.6-11.1l30.5,25H204z
	 M280.2,129.6h-45c-9.4,0-17.3-5.3-19.6-12.4c-0.4-1.4-0.7-2.8-0.7-4.3c0-8.9,8.5-16.2,19.2-16.6c0.3,0,0.7,0,1,0h45V129.6z"/>
<path class="st3" d="M243.5,105.1c-2-1.3-4.6-2.1-7.4-2.1c-3.8,0-7.1,1.4-9.3,3.6c0,0,0,0,0,0c-1.7,1.7-2.8,3.9-2.8,6.3
	c0,5.5,5.4,9.9,12.1,9.9c6.7,0,12.1-4.4,12.1-9.9C248.2,109.7,246.3,106.9,243.5,105.1z M236.1,117.5c-3.1,0-5.6-2.1-5.6-4.6
	c0-2.5,2.5-4.6,5.6-4.6c3.1,0,5.6,2.1,5.6,4.6C241.7,115.4,239.2,117.5,236.1,117.5z"/>
<path class="st7" d="M153.7,130.8c-0.1-0.1-0.3-0.2-0.5-0.3c-0.2-0.1-0.3-0.2-0.5-0.2l-0.3-0.1c-1.3-0.5-2.6-0.9-3.9-1.4
	c-0.8-0.3-1.5-0.6-2.3-0.9c-0.8-0.3-1.7-0.6-2.5-1c-0.8-0.3-1.6-0.6-2.4-1c-0.2-0.1-0.4-0.1-0.5-0.2c-0.7-0.3-1.4-0.6-2-0.8
	c-0.3-0.1-0.7-0.3-1-0.4c-0.6-0.2-1.2-0.5-1.8-0.8c-0.4-0.2-0.7-0.3-1.1-0.5c-0.7-0.3-1.3-0.6-2-0.9c-0.2-0.1-0.4-0.2-0.6-0.3
	c-0.8-0.4-1.7-0.7-2.5-1.1c0,0,0,0,0,0c-0.8-0.4-1.6-0.7-2.4-1.1c-0.4-0.2-0.8-0.4-1.1-0.6c-0.6-0.3-1.3-0.6-1.9-0.9c0,0,0,0,0,0
	c-0.9-0.4-1.8-0.9-2.7-1.4c-0.9-0.5-1.8-0.9-2.7-1.4c-1.8-0.9-3.6-1.9-5.3-2.9c-0.9-0.5-1.8-1-2.6-1.5c-0.7-0.4-1.5-0.9-2.2-1.3
	c-0.1-0.1-0.2-0.1-0.4-0.2c-1.2-0.7-2.3-1.4-3.5-2.1c-1.2-0.7-2.7-0.7-3.9,0c-4,2.4-8,4.8-12.2,7c-1.8,1-3.6,1.9-5.5,2.8
	c-2.1,1.1-4.3,2.1-6.5,3.2c-7.6,3.6-15.5,6.8-23.5,9.6l-0.3,0.1c-1.2,0.4-2,1.4-2,2.4v23.1c0,15,8.7,28.1,25.2,38
	c7.6,4.5,16,8.1,24.9,10.4c0.3,0.1,0.6,0.1,0.9,0.1c0.3,0,0.6,0,0.9-0.1c9.2-2.4,17.9-5.9,25.7-10.4c7.1-4.1,12.9-8.8,17.1-14
	c0.4-0.5,0.8-1,1.2-1.5c1.3-1.7,2.5-3.5,3.4-5.3c0.2-0.4,0.4-0.7,0.6-1.1c0.2-0.3,0.3-0.6,0.5-1c0.2-0.3,0.3-0.7,0.5-1
	c0.2-0.3,0.3-0.7,0.4-1c0.1-0.3,0.3-0.7,0.4-1.1c0.1-0.3,0.3-0.7,0.4-1.1c0.1-0.3,0.2-0.6,0.3-0.9c0-0.1,0.1-0.2,0.1-0.3
	c0.1-0.2,0.1-0.5,0.2-0.7c0.1-0.2,0.1-0.4,0.2-0.6c0.1-0.2,0.1-0.4,0.2-0.7c0.1-0.4,0.2-0.8,0.3-1.2c0.2-0.8,0.3-1.7,0.4-2.6
	c0.1-0.5,0.1-0.9,0.1-1.4c0.1-0.9,0.1-1.7,0.1-2.6v-23.3C154.7,132,154.3,131.3,153.7,130.8z M135,182.3c-0.2-1.4-1.6-2.5-3.4-2.4
	c-1.7,0-3.1,1.2-3.1,2.6v2.4c0,0.6,0.3,1.2,0.8,1.7c-1.4,0.9-2.8,1.8-4.4,2.7c-7.1,4.1-14.8,7.3-23,9.5c-7.9-2.3-15.4-5.5-22.2-9.5
	c-1.3-0.8-2.6-1.6-3.9-2.5c0.7-0.5,1.1-1.2,1.1-2v-2.4c0-1.5-1.4-2.7-3.2-2.7c-1.8,0-3.2,1.2-3.2,2.7v0.2
	c-8.7-7.7-13.2-16.7-13.2-26.9v-21.4c6.6-2.4,13-5,19.3-7.8c9-4.1,17.8-8.6,26.1-13.7c14.1,8.5,29.4,15.7,45.4,21.5v21.4
	c0,9-3.5,17-10.5,24C136.8,180.7,135.9,181.5,135,182.3z"/>
<path class="st7" d="M102.8,179.9c-1.8,0-3.2,1.2-3.2,2.7v2.4c0,1.5,1.5,2.7,3.2,2.7c1.8,0,3.2-1.2,3.2-2.7v-2.4
	C106,181.1,104.5,179.9,102.8,179.9z"/>
<path class="st7" d="M112.4,179.9c-1.8,0-3.2,1.2-3.2,2.7v2.4c0,1.5,1.5,2.7,3.2,2.7c1.8,0,3.2-1.2,3.2-2.7v-2.4
	C115.7,181.1,114.2,179.9,112.4,179.9z"/>
<path class="st7" d="M118.8,182.5v2.4c0,1.5,1.5,2.7,3.2,2.7c1.8,0,3.2-1.2,3.2-2.7v-2.4c0-1.5-1.5-2.7-3.2-2.7
	C120.3,179.9,118.8,181.1,118.8,182.5z"/>
<path class="st7" d="M93.1,179.9c-1.8,0-3.2,1.2-3.2,2.7v2.4c0,1.5,1.5,2.7,3.2,2.7c1.8,0,3.2-1.2,3.2-2.7v-2.4
	C96.3,181.1,94.9,179.9,93.1,179.9z"/>
<path class="st7" d="M83.4,179.9c-1.8,0-3.2,1.2-3.2,2.7v2.4c0,1.5,1.5,2.7,3.2,2.7c1.8,0,3.2-1.2,3.2-2.7v-2.4
	C86.7,181.1,85.2,179.9,83.4,179.9z"/>
<path class="st7" d="M89.9,152.7c-1.3-1-3.3-1-4.5,0c-1.3,1-1.3,2.7,0,3.7l11,9c1.3,1,3.3,1,4.6,0l19.4-15.9c1.3-1,1.3-2.7,0-3.8
	c-1.3-1-3.3-1-4.6,0l-17.1,14L89.9,152.7z"/>
</svg>
