<?xml version="1.0" encoding="utf-8"?>
<!-- Generator: Adobe Illustrator 23.0.1, SVG Export Plug-In . SVG Version: 6.00 Build 0)  -->
<svg version="1.1" id="Capa_1" xmlns="http://www.w3.org/2000/svg" xmlns:xlink="http://www.w3.org/1999/xlink" x="0px" y="0px"
	 viewBox="0 0 289.74 379.39" style="enable-background:new 0 0 289.74 379.39;" xml:space="preserve">
<style type="text/css">
	.st0{fill:#FF9052;}
	.st1{fill:#FF8031;}
	.st2{fill:#FFBEAB;}
	.st3{fill:#C2C7D0;}
	.st4{fill:#E4EAF8;}
	.st5{fill:#FFFFFF;}
	.st6{fill:#ABFFDB;}
	.st7{fill:#6DC296;}
	.st8{fill:#5FA77E;}
	.st9{fill:#92E0C0;}
	.st10{display:none;fill:#474D54;}
	.st11{fill:#474D54;}
</style>
<path class="st0" d="M144.19,7.15c-39.38,0-71.3,31.92-71.3,71.3v28.21c4.76-4.42,11.54-6.82,18.16-5.93v-3.55
	c0-2.82,2.41-5.05,5.21-4.84c27.57,1.98,55.62-6.78,76.83-20.64c1.98-1.29,4.6-0.97,6.21,0.76c18.13,19.49,18.02,18.74,18.02,21.28
	v6.98c7.25-1.09,13.69,1.15,18.16,5.31V78.45C215.49,39.07,183.57,7.15,144.19,7.15z"/>
<path class="st1" d="M92.03,78.45c0-36.13,26.88-65.96,61.73-70.64c-3.13-0.42-6.32-0.66-9.57-0.66c-39.38,0-71.3,31.92-71.3,71.3
	v28.21c4.76-4.42,11.54-6.82,18.16-5.93v-3.55c0-1.1,0.37-2.1,0.97-2.91L92.03,78.45L92.03,78.45z"/>
<path class="st2" d="M92,136.94V97.9c-12.03-1.61-24.62,7.63-24.62,20.15c0,12.25,10.8,22.25,24.65,20.16
	C92.02,137.78,92,137.36,92,136.94z"/>
<g>
	<path class="st3" d="M213.68,102.43c-4.42-3.66-10.49-5.57-17.29-4.55v39.06c0,0.42-0.02,0.84-0.03,1.26
		c6.82,1.03,12.9-0.88,17.32-4.55V102.43z"/>
	<path class="st3" d="M92,133.66c-4.54-3.77-7.32-9.4-7.32-15.61c0-6.04,2.94-11.32,7.32-14.98V97.9
		c-12.03-1.61-24.61,7.63-24.61,20.15c0,12.25,10.8,22.25,24.64,20.16c-0.01-0.42-0.03-0.84-0.03-1.26V133.66z"/>
</g>
<path class="st4" d="M144.95,188.37c-11.52,0-21.64-3.16-29.92-8.45v27.98l29.79,36.77l29.79-36.77v-28.77
	C166.17,184.95,155.96,188.37,144.95,188.37z"/>
<path class="st3" d="M134.11,187.39c-7.1-1.32-13.51-3.91-19.08-7.47v27.98l19.08,23.55V187.39z"/>
<path class="st5" d="M253.41,236.53l-78.81-30.52l-29.79,36.77l-29.79-36.77l-78.73,30.52c0,0-29.15,11.98-29.15,45.21v73.75
	c0,3.75,3.04,6.78,6.78,6.78h261.93c3.71,0,6.72-3.01,6.72-6.72v-73.81C282.56,248.52,253.41,236.53,253.41,236.53z"/>
<path class="st6" d="M26.23,355.5v-82.34c0-22.8,13.72-35.59,22.33-41.38l-12.26,4.75c0,0-29.15,11.98-29.15,45.21v73.75
	c0,3.75,3.04,6.78,6.78,6.78h19.08C29.26,362.28,26.23,359.24,26.23,355.5z"/>
<path class="st5" d="M179.3,70.57c-1.61-1.73-4.23-2.05-6.21-0.76c-21.21,13.86-49.26,22.62-76.83,20.64
	c-2.8-0.21-5.21,2.02-5.21,4.84v42.59c0,27.38,21.45,52.38,53.9,52.38c28.88,0,52.38-23.5,52.38-52.38V91.85
	C197.33,89.31,197.44,90.06,179.3,70.57z"/>
<path class="st4" d="M110.13,137.88V90.55c-4.61,0.25-9.25,0.22-13.87-0.11c-2.8-0.21-5.21,2.02-5.21,4.84v42.59
	c0,27.38,21.45,52.38,53.9,52.38c2.99,0,5.92-0.27,8.78-0.75C129.02,185.32,110.13,163.77,110.13,137.88z"/>
<g>
	<path class="st6" d="M180.79,261.68l22.28-44.65l-28.46-11.02l-29.79,36.77l29.05,20.63C176.22,265.08,179.51,264.26,180.79,261.68
		z"/>
	<path class="st6" d="M108.89,261.68l-22.28-44.65l28.46-11.02l29.79,36.77l-29.05,20.63C113.47,265.08,110.18,264.26,108.89,261.68
		z"/>
</g>
<path class="st7" d="M144.86,242.81v-0.03l-0.02,0.01l-0.02-0.01v0.03l-21.13,15l9.99,15.03c8.06,0,14.26,0,22.32,0l9.99-15.03
	L144.86,242.81z"/>
<path class="st6" d="M118.55,362.28h52.59L156,272.85c-8.06,0-14.26,0-22.32,0L118.55,362.28z"/>
<path class="st8" d="M155.41,250.31l-10.55-7.5v-0.03l-0.02,0.01l-0.02-0.01v0.03l-21.13,15l9.99,15.03c7.77,0,13.8,0,21.14,0
	l-8.2-12.34c-1-1.5-0.62-3.52,0.85-4.56L155.41,250.31z"/>
<path class="st9" d="M133.68,272.85l-15.14,89.44h21.14l15.14-89.44C147.46,272.85,141.48,272.85,133.68,272.85z"/>
<g>
	<path class="st10" d="M420.59-118.98h-63.01c-3.95,0-7.15,3.2-7.15,7.15c0,3.95,3.2,7.15,7.15,7.15h63.01
		c8.58,0,15.55,6.98,15.55,15.55V34.05c0,8.58-6.98,15.55-15.55,15.55h-86.38c-3.19,0-6.26,0.95-8.9,2.74L274.39,87l7.83-23.72
		c1.04-3.16,0.5-6.66-1.45-9.36s-5.11-4.31-8.44-4.31h-7.58c-8.58,0-15.55-6.98-15.55-15.55V-89.12c0-8.58,6.98-15.55,15.55-15.55
		h59.44c3.95,0,7.15-3.2,7.15-7.15c0-3.95-3.2-7.15-7.15-7.15h-59.44c-16.47,0-29.86,13.4-29.86,29.86V34.06
		c0,16.47,13.4,29.86,29.86,29.86h2.19l-9.69,29.37c-1.41,4.26,0.06,8.93,3.64,11.63c1.86,1.4,4.08,2.11,6.3,2.11
		c2.05,0,4.1-0.6,5.88-1.81l60.3-41.04c0.25-0.17,0.54-0.26,0.85-0.26h86.38c16.47,0,29.86-13.4,29.86-29.86V-89.12
		C450.45-105.58,437.06-118.98,420.59-118.98z"/>
	<path class="st11" d="M289.74,355.56v-21.3c0-3.95-3.2-7.15-7.15-7.15s-7.15,3.2-7.15,7.15v20.87h-35.3v-61.95
		c0-3.95-3.2-7.15-7.15-7.15c-3.95,0-7.15,3.2-7.15,7.15v61.95h-48.63l-13.66-80.68l4.33-6.52l1.86,1.32
		c2.03,1.44,4.42,2.19,6.86,2.19c0.96,0,1.93-0.12,2.88-0.35c3.36-0.84,6.18-3.1,7.73-6.21l0,0l19.37-38.82l44.17,17.11
		c1.66,0.72,24.69,11.16,24.69,38.58v19.12c0,3.95,3.2,7.15,7.15,7.15c3.95,0,7.15-3.2,7.15-7.15v-19.12
		c0-37.59-32.21-51.27-33.58-51.83c-0.04-0.02-0.09-0.04-0.14-0.05l-74.24-28.75v-16.48c11.7-9.24,19.87-22.76,22.1-38.19
		c5.83-0.56,11.24-2.82,15.69-6.65c6.06-5.21,9.54-12.8,9.54-20.81c0-6.54-2.31-12.79-6.46-17.7V78.45
		C222.65,35.19,187.46,0,144.2,0S65.74,35.19,65.74,78.45v23.44c-4.19,4.86-6.45,10.8-6.45,17.1c0,8.01,3.48,15.6,9.54,20.81
		c4.46,3.83,9.88,6.1,15.72,6.65c2.26,15.01,10.37,29.48,23.33,39.14v15.52l-74.16,28.75c-0.04,0.02-0.09,0.04-0.13,0.05
		C32.21,230.48,0,244.16,0,281.75v73.75c0,7.68,6.25,13.94,13.94,13.94h261.93C283.51,369.44,289.74,363.21,289.74,355.56z
		 M193.17,220.87l-17.49,35.05l-5.45-3.87c-0.03-0.02-0.06-0.05-0.1-0.07l-14.95-10.62l21.71-26.8L193.17,220.87z M144.85,251.58
		l11.35,8.06l-4.02,6.06h-14.64l-4.02-6.06L144.85,251.58z M144.85,231.39l-22.66-27.97v-9.26c6.48,2.14,13.85,3.21,22.25,3.25
		c0.17,0,0.34,0,0.51,0l0,0c0.12,0,0.25,0,0.37,0c0.04,0,0.08,0,0.12,0c0.08,0,0.17,0,0.25,0c0.06,0,0.12,0,0.18,0
		c0.06,0,0.13,0,0.19,0c0.06,0,0.12,0,0.18,0c0.07,0,0.14,0,0.2,0c0.06,0,0.11,0,0.17,0c0.06,0,0.12,0,0.19-0.01
		c0.07,0,0.14,0,0.21-0.01c0.05,0,0.1,0,0.15-0.01c0.07,0,0.14-0.01,0.21-0.01c0.05,0,0.11,0,0.16-0.01c0.07,0,0.13-0.01,0.2-0.01
		c0.06,0,0.12-0.01,0.18-0.01c0.07,0,0.14-0.01,0.2-0.01c0.05,0,0.11-0.01,0.16-0.01c0.07,0,0.14-0.01,0.22-0.01
		c0.05,0,0.1-0.01,0.15-0.01c0.07,0,0.14-0.01,0.21-0.01c0.06,0,0.11-0.01,0.17-0.01c0.07,0,0.14-0.01,0.21-0.01l0.14-0.01
		c0.08-0.01,0.16-0.01,0.24-0.02c0.04,0,0.08-0.01,0.12-0.01c0.08-0.01,0.17-0.01,0.25-0.02c0.03,0,0.06-0.01,0.09-0.01
		c0.09-0.01,0.19-0.02,0.28-0.02c0.03,0,0.05,0,0.08-0.01c0.09-0.01,0.19-0.02,0.28-0.03c0.03,0,0.06-0.01,0.09-0.01
		c0.09-0.01,0.19-0.02,0.28-0.03c0.02,0,0.03,0,0.05-0.01c5.71-0.59,11.18-2,16.3-4.1v10.48l-4.35,5.37L144.85,231.39z
		 M210.62,109.38c0.04,0.04,0.08,0.08,0.13,0.12c2.58,2.46,4.04,5.89,4.04,9.5c0,3.84-1.66,7.47-4.56,9.96
		c-1.65,1.42-3.61,2.4-5.74,2.91v-25.74c1.34,0.32,2.6,0.82,3.76,1.5c0.02,0.01,0.04,0.02,0.06,0.04c0.03,0.02,0.06,0.03,0.08,0.05
		C209.19,108.18,209.93,108.74,210.62,109.38z M83.9,131.86c-2.14-0.51-4.09-1.49-5.74-2.91c-2.9-2.49-4.56-6.12-4.56-9.96
		c0-4.21,2.31-7.19,3.98-8.81c0.06-0.05,0.12-0.11,0.18-0.16c1.75-1.62,3.89-2.83,6.14-3.52L83.9,131.86L83.9,131.86z M88.62,85.75
		c-0.3,0.23-0.59,0.47-0.87,0.73c-1.56,1.45-2.7,3.29-3.32,5.29c-1.48,0.2-2.94,0.52-4.38,0.94V78.45
		c0-35.37,28.77-64.14,64.14-64.14s64.14,28.77,64.14,64.14v13.86c-1.26-0.32-2.54-0.56-3.85-0.72c-0.02-4.64-0.99-5.67-11.11-16.46
		c-0.29-0.31-0.59-0.62-0.89-0.95c-0.08-0.08-0.16-0.17-0.23-0.25c-0.98-1.05-2.06-2.19-3.23-3.45c-0.18-0.19-0.36-0.39-0.55-0.59
		c-0.44-0.48-0.9-0.97-1.38-1.47c-0.64-0.69-1.31-1.4-2.01-2.15c-0.12-0.13-0.24-0.26-0.36-0.39c-0.06-0.06-0.12-0.12-0.18-0.19l0,0
		c-0.12-0.13-0.25-0.26-0.38-0.39c0,0,0,0,0,0c-1.75-1.72-3.91-2.81-6.19-3.24c-2.96-0.56-6.1,0-8.79,1.76
		c-8.56,5.59-17.87,10.08-27.49,13.36c-0.13,0.05-0.27,0.09-0.4,0.14c-0.84,0.28-1.68,0.55-2.52,0.82
		c-0.09,0.03-0.19,0.06-0.28,0.09c-0.49,0.15-0.98,0.3-1.48,0.45c-1.95,0.58-3.92,1.11-5.89,1.59c-1,0.24-2,0.47-3,0.69
		c-0.71,0.15-1.42,0.3-2.13,0.44c-0.08,0.02-0.15,0.03-0.23,0.04c-1.26,0.25-2.52,0.47-3.78,0.67c-0.14,0.02-0.28,0.04-0.42,0.07
		c-1.59,0.25-3.18,0.47-4.77,0.65c-0.38,0.04-0.76,0.09-1.14,0.13c-3.81,0.4-7.6,0.61-11.37,0.61c-2.51,0-5-0.08-7.47-0.26
		C93.88,83.09,90.95,83.97,88.62,85.75z M98.24,139.38c0-0.14,0.01-0.27,0-0.41l-0.01-0.48c-0.01-0.2-0.01-0.41-0.01-0.61V97.73
		c2.04,0.1,4.09,0.15,6.15,0.15c20.59-0.05,41.95-5.42,60.98-15.28c0.19-0.1,0.38-0.2,0.57-0.3c3.23-1.69,6.39-3.51,9.47-5.46
		c1.1,1.18,2.12,2.27,3.08,3.29c1.7,1.81,3.18,3.4,4.48,4.78c3.54,3.77,6.11,6.51,7.24,7.86v45.1c0,0.05,0,0.1,0,0.15
		c0,0.14-0.01,0.28-0.01,0.43l-0.02,0.52c0,0.15,0,0.3,0,0.44c-0.49,14.67-8.01,27.6-19.29,35.51c-0.1,0.06-0.21,0.13-0.31,0.2
		c-5.43,3.75-11.53,6.23-17.94,7.33c-0.01,0-0.01,0-0.02,0c-0.13,0.02-0.26,0.04-0.39,0.06c-0.03,0-0.05,0.01-0.08,0.01
		c-0.37,0.06-0.74,0.11-1.11,0.16c-0.05,0.01-0.11,0.02-0.16,0.02c-0.1,0.01-0.2,0.03-0.3,0.04c-0.07,0.01-0.13,0.02-0.2,0.02
		c-0.14,0.02-0.27,0.03-0.41,0.05c-0.1,0.01-0.21,0.02-0.32,0.03c-0.08,0.01-0.16,0.02-0.25,0.02c-0.09,0.01-0.18,0.02-0.26,0.02
		c-0.08,0.01-0.16,0.01-0.24,0.02c-0.1,0.01-0.21,0.02-0.31,0.03c-0.06,0-0.13,0.01-0.19,0.02c-0.16,0.01-0.32,0.02-0.48,0.03
		c-0.06,0-0.12,0.01-0.18,0.01c-0.12,0.01-0.23,0.01-0.35,0.02c-0.06,0-0.12,0.01-0.18,0.01c-0.14,0.01-0.28,0.01-0.43,0.02
		c-0.03,0-0.06,0-0.09,0c-0.17,0.01-0.34,0.01-0.51,0.02c-0.05,0-0.11,0-0.16,0c-0.13,0-0.26,0.01-0.38,0.01c-0.05,0-0.1,0-0.16,0
		c-0.17,0-0.35,0-0.52,0h-0.01C116.36,183.1,99.01,161.14,98.24,139.38z M112.77,214.58l21.72,26.81l-14.92,10.6
		c-0.03,0.02-0.06,0.04-0.09,0.07l-5.45,3.87l-17.49-35.05L112.77,214.58z M112.51,355.13H63.92v-61.95c0-3.95-3.2-7.15-7.15-7.15
		s-7.15,3.2-7.15,7.15v61.95h-35.3v-73.38c0-27.54,23.22-37.96,24.68-38.58l44.14-17.11l19.37,38.82l0,0
		c1.55,3.1,4.37,5.36,7.73,6.21c0.95,0.24,1.92,0.35,2.88,0.35c2.43,0,4.83-0.75,6.86-2.19l1.86-1.32l4.33,6.52L112.51,355.13z
		 M127.02,355.13L139.74,280h10.22l12.72,75.13H127.02z"/>
</g>
</svg>
