<?xml version="1.0" encoding="utf-8"?>
<!-- Generator: Adobe Illustrator 23.0.1, SVG Export Plug-In . SVG Version: 6.00 Build 0)  -->
<svg version="1.1" id="Capa_1" xmlns="http://www.w3.org/2000/svg" xmlns:xlink="http://www.w3.org/1999/xlink" x="0px" y="0px"
	 viewBox="0 0 512 512" style="enable-background:new 0 0 512 512;" xml:space="preserve">
<style type="text/css">
	.st0{fill:#E2EBF9;}
	.st1{fill:#FFFFFF;}
	.st2{fill:#E3E7F2;}
	.st3{fill:#1AE5BE;}
	.st4{fill:#434C54;}
	.st5{fill:#FF8125;}
</style>
<g>
	<g transform="translate(1 1)">
		<path class="st0" d="M451.3,67.3l0,315.1c0.2,19-15.1,34.6-34.1,34.8H41.7c-19-0.2-34.3-15.8-34.1-34.8l0-315.1H451.3z"/>
		<path class="st1" d="M425.7,67.3l0,315.1c0.2,19-15.1,34.6-34.1,34.8H41.7c-19-0.2-34.3-15.8-34.1-34.8l0-315.1H425.7z"/>
		<path class="st0" d="M451.3,41.7v34.1H7.5V41.7c0-18.9,15.3-34.1,34.1-34.1h375.5C436,7.5,451.3,22.8,451.3,41.7z"/>
		<path class="st1" d="M425.7,41.7v34.1H7.5V41.7c0-18.9,15.3-34.1,34.1-34.1h349.9C410.4,7.5,425.7,22.8,425.7,41.7z"/>
		<path class="st0" d="M502.5,323.3v128c0,28.3-22.9,51.2-51.2,51.2H331.8c-28.3,0-51.2-22.9-51.2-51.2v-128c0-4.7,3.8-8.5,8.5-8.5
			h204.8C498.6,314.7,502.5,318.6,502.5,323.3z"/>
		<g>
			<path class="st1" d="M476.9,323.3v128c0,28.3-22.9,51.2-51.2,51.2h-93.9c-28.3,0-51.2-22.9-51.2-51.2v-128c0-4.7,3.8-8.5,8.5-8.5
				h179.2C473,314.7,476.9,318.6,476.9,323.3z"/>
			<rect x="58.7" y="127" class="st2" width="85.3" height="85.3"/>
			<rect x="58.7" y="272.1" class="st2" width="85.3" height="85.3"/>
		</g>
		<circle class="st3" cx="391.5" cy="391.5" r="17.1"/>
		<path class="st1" d="M41.7,417.1h25.6c-19-0.2-34.3-15.8-34.1-34.8V41.7c0-18.9,15.3-34.1,34.1-34.1H41.7
			C22.8,7.5,7.5,22.8,7.5,41.7v340.7C7.4,401.4,22.6,416.9,41.7,417.1z"/>
	</g>
	<g>
		<polygon class="st1" points="17.1,76.8 17.1,187.7 17.1,384 0,384 0,187.7 0,76.8 		"/>
		<g>
			<path class="st4" d="M8.5,153.6c2.3,0,4.4-0.9,6.1-2.5c3.3-3.4,3.3-8.8,0-12.1l-1.3-1c-0.5-0.3-1-0.6-1.5-0.8
				c-0.5-0.2-1-0.4-1.5-0.5c-0.6-0.1-1.1-0.2-1.7-0.2c-2.3,0-4.4,0.9-6.1,2.5c-0.8,0.8-1.4,1.8-1.8,2.8c-1.3,3.2-0.6,6.8,1.8,9.3
				c0.8,0.8,1.8,1.4,2.8,1.8C6.3,153.4,7.4,153.6,8.5,153.6z"/>
			<path class="st5" d="M59.7,34.1h-8.5c-4.7,0-8.5,3.8-8.5,8.5s3.8,8.5,8.5,8.5h8.5c4.7,0,8.5-3.8,8.5-8.5S64.4,34.1,59.7,34.1z"/>
			<path class="st5" d="M102.4,34.1h-8.5c-4.7,0-8.5,3.8-8.5,8.5s3.8,8.5,8.5,8.5h8.5c4.7,0,8.5-3.8,8.5-8.5S107.1,34.1,102.4,34.1z
				"/>
			<path class="st5" d="M145.1,34.1h-8.5c-4.7,0-8.5,3.8-8.5,8.5s3.8,8.5,8.5,8.5h8.5c4.7,0,8.5-3.8,8.5-8.5S149.8,34.1,145.1,34.1z
				"/>
			<path class="st3" d="M409.6,34.1H179.2c-4.7,0-8.5,3.8-8.5,8.5s3.8,8.5,8.5,8.5h230.4c4.7,0,8.5-3.8,8.5-8.5
				S414.3,34.1,409.6,34.1z"/>
			<path class="st4" d="M494.9,307.2h-8.5v-42.7c0-23.9-9.2-46.9-25.6-64.2V42.7c0-23.6-19.1-42.6-42.7-42.7H42.7
				C19.1,0,0,19.1,0,42.7v68.3c0,4.7,3.8,8.5,8.5,8.5s8.5-3.8,8.5-8.5V85.3h426.7V186c-28.8-18.9-65.7-20.4-96-4
				s-49.1,48.1-49.1,82.6v42.7h-8.5c-9.4,0-17.1,7.6-17.1,17.1v85.3H42.7c-14.1,0-25.6-11.5-25.6-25.6V179.2c0-4.7-3.8-8.5-8.5-8.5
				S0,174.5,0,179.2V384c0,23.6,19.1,42.6,42.7,42.7h230.4v25.6c0,33,26.8,59.7,59.7,59.7h119.5c33,0,59.7-26.8,59.7-59.7v-128
				C512,314.8,504.4,307.2,494.9,307.2z M17.1,68.3V42.7c0-14.1,11.5-25.6,25.6-25.6h375.5c14.1,0,25.6,11.5,25.6,25.6v25.6H17.1z
				 M315.7,264.5c0-42.4,34.4-76.8,76.8-76.8s76.8,34.4,76.8,76.8v42.7H315.7V264.5z M452.3,494.9H332.8
				c-20.3,0-37.7-14.3-41.8-34.1h24.7c4.7,0,8.5-3.8,8.5-8.5s-3.8-8.5-8.5-8.5h-25.6v-17.1h25.6c4.7,0,8.5-3.8,8.5-8.5
				s-3.8-8.5-8.5-8.5h-25.6v-17.1h25.6c4.7,0,8.5-3.8,8.5-8.5s-3.8-8.5-8.5-8.5h-25.6v-17.1h25.6c4.7,0,8.5-3.8,8.5-8.5
				c0-4.7-3.8-8.5-8.5-8.5h-25.6v-17.1h204.8v17.1h-25.6c-4.7,0-8.5,3.8-8.5,8.5c0,4.7,3.8,8.5,8.5,8.5h25.6v17.1h-25.6
				c-4.7,0-8.5,3.8-8.5,8.5s3.8,8.5,8.5,8.5h25.6v17.1h-25.6c-4.7,0-8.5,3.8-8.5,8.5s3.8,8.5,8.5,8.5h25.6v17.1h-25.6
				c-4.7,0-8.5,3.8-8.5,8.5s3.8,8.5,8.5,8.5h24.7C490,480.7,472.5,494.9,452.3,494.9z"/>
			<path class="st5" d="M392.5,366.9c-12.5,0-23.1,8.9-25.2,21.2c-2.1,12.3,4.9,24.3,16.7,28.4v18.6c0,4.7,3.8,8.5,8.5,8.5
				s8.5-3.8,8.5-8.5v-18.6c11.7-4.1,18.8-16.1,16.7-28.4C415.6,375.9,405,366.9,392.5,366.9z M392.5,401.1c-4.7,0-8.5-3.8-8.5-8.5
				s3.8-8.5,8.5-8.5s8.5,3.8,8.5,8.5S397.2,401.1,392.5,401.1z"/>
			<path class="st5" d="M102.4,119.5H68.3c-9.4,0-17.1,7.6-17.1,17.1v68.3c0,9.4,7.6,17.1,17.1,17.1h68.3c9.4,0,17.1-7.6,17.1-17.1
				v-25.6c0-4.7-3.8-8.5-8.5-8.5c-4.7,0-8.5,3.8-8.5,8.5v25.6H68.3v-68.3h34.1c4.7,0,8.5-3.8,8.5-8.5
				C110.9,123.3,107.1,119.5,102.4,119.5z"/>
			<path class="st3" d="M91.4,156.1c-3.3-3.2-8.7-3.2-12,0.1s-3.3,8.6-0.1,12l17.1,17.1c1.6,1.6,3.8,2.5,6,2.5h0.4
				c2.4-0.1,4.6-1.2,6.2-3.1l42.7-51.2c2-2.3,2.5-5.5,1.5-8.4c-1.1-2.9-3.5-4.9-6.6-5.5s-6.1,0.6-8,2.9l-36.7,44L91.4,156.1z"/>
			<path class="st5" d="M51.2,349.9c0,9.4,7.6,17.1,17.1,17.1h68.3c9.4,0,17.1-7.6,17.1-17.1v-25.6c0-4.7-3.8-8.5-8.5-8.5
				c-4.7,0-8.5,3.8-8.5,8.5v25.6H68.3v-68.3h34.1c4.7,0,8.5-3.8,8.5-8.5s-3.8-8.5-8.5-8.5H68.3c-9.4,0-17.1,7.6-17.1,17.1
				L51.2,349.9z"/>
			<path class="st3" d="M138.5,267.6l-36.7,44l-10.5-10.5c-3.3-3.2-8.7-3.2-12,0.1c-3.3,3.3-3.3,8.6-0.1,12l17.1,17.1
				c1.6,1.6,3.8,2.5,6,2.5h0.4c2.4-0.1,4.6-1.2,6.2-3.1l42.7-51.2c2-2.3,2.5-5.5,1.5-8.4s-3.5-4.9-6.6-5.5S140.5,265.3,138.5,267.6
				L138.5,267.6z"/>
			<path class="st0" d="M187.7,145.1H256c4.7,0,8.5-3.8,8.5-8.5s-3.8-8.5-8.5-8.5h-68.3c-4.7,0-8.5,3.8-8.5,8.5
				S183,145.1,187.7,145.1z"/>
			<path class="st0" d="M187.7,187.7h110.9c4.7,0,8.5-3.8,8.5-8.5s-3.8-8.5-8.5-8.5H187.7c-4.7,0-8.5,3.8-8.5,8.5
				S183,187.7,187.7,187.7z"/>
			<path class="st0" d="M187.7,290.1H256c4.7,0,8.5-3.8,8.5-8.5s-3.8-8.5-8.5-8.5h-68.3c-4.7,0-8.5,3.8-8.5,8.5
				S183,290.1,187.7,290.1z"/>
			<path class="st0" d="M187.7,332.8h59.7c4.7,0,8.5-3.8,8.5-8.5s-3.8-8.5-8.5-8.5h-59.7c-4.7,0-8.5,3.8-8.5,8.5
				S183,332.8,187.7,332.8z"/>
		</g>
	</g>
</g>
</svg>
