<?xml version="1.0" encoding="utf-8"?>
<!-- Generator: Adobe Illustrator 23.0.1, SVG Export Plug-In . SVG Version: 6.00 Build 0)  -->
<svg version="1.1" id="Objects" xmlns="http://www.w3.org/2000/svg" xmlns:xlink="http://www.w3.org/1999/xlink" x="0px" y="0px"
	 viewBox="0 0 208.67 221" style="enable-background:new 0 0 208.67 221;" xml:space="preserve">
<style type="text/css">
	.st0{display:none;opacity:0.17;fill:url(#SVGID_1_);}
	.st1{fill:#69DED5;}
	.st2{fill:#FFFFFF;}
	.st3{clip-path:url(#SVGID_3_);}
	.st4{fill:none;}
	.st5{fill:#E3E3E3;}
	.st6{fill:#5592DB;}
	.st7{fill:#EDC0AA;}
	.st8{fill:#3B2314;}
	.st9{fill:#603813;}
	.st10{fill:#EFEFF0;}
	.st11{fill:#518BD1;}
	.st12{fill:#F2C4AE;}
	.st13{fill:#CED0D1;}
	.st14{fill:#864242;}
	.st15{fill:#404041;}
	.st16{fill:#E0A489;}
</style>
<radialGradient id="SVGID_1_" cx="842.0339" cy="68611.4141" r="464.1941" gradientTransform="matrix(0.3177 0 0 0.0477 -164.9915 -3070.9312)" gradientUnits="userSpaceOnUse">
	<stop  offset="0" style="stop-color:#A5A5A5"/>
	<stop  offset="0.0156" style="stop-color:#A7A7A7"/>
	<stop  offset="0.3089" style="stop-color:#CDCDCD"/>
	<stop  offset="0.5802" style="stop-color:#E9E9E9"/>
	<stop  offset="0.8191" style="stop-color:#F9F9F9"/>
	<stop  offset="1" style="stop-color:#FFFFFF"/>
</radialGradient>
<path class="st0" d="M-43.62,201.83c0-7.82,65.43-14.17,146.14-14.17c80.71,0,146.15,6.35,146.15,14.17
	c0,7.82-65.43,14.17-146.15,14.17C21.81,216-43.62,209.66-43.62,201.83z"/>
<g>
	<g>
		
			<ellipse transform="matrix(0.7071 -0.7071 0.7071 0.7071 -44.5654 104.8922)" class="st1" cx="104.33" cy="106.24" rx="94.33" ry="94.33"/>
		<path class="st2" d="M104.33,1.91L104.33,1.91C46.71,1.91,0,48.62,0,106.24v0c0,57.62,46.71,104.33,104.33,104.33h0
			c57.62,0,104.33-46.71,104.33-104.33v0C208.67,48.62,161.96,1.91,104.33,1.91z M10,106.24c0-52.02,42.32-94.33,94.33-94.33
			s94.33,42.32,94.33,94.33s-42.32,94.33-94.33,94.33S10,158.26,10,106.24z"/>
	</g>
	<g>
		<defs>
			<path id="SVGID_2_" d="M104.33,1.91L104.33,1.91c57.62,0,104.33,46.71,104.33,104.33v0c0,57.62-46.71,104.33-104.33,104.33h0
				C46.71,210.57,0,163.86,0,106.24v0C0,48.62,46.71,1.91,104.33,1.91z"/>
		</defs>
		<clipPath id="SVGID_3_">
			<use xlink:href="#SVGID_2_"  style="overflow:visible;"/>
		</clipPath>
		<g class="st3">
			<polygon class="st4" points="123.96,203.28 123.96,203.28 120.97,212.45 133.97,172.62 			"/>
			<polygon class="st4" points="86.13,203.28 76.13,172.62 89.13,212.45 86.13,203.28 			"/>
			<polygon class="st4" points="98.08,185.88 97.35,186.94 97.35,186.94 98.08,185.88 			"/>
			<polygon class="st5" points="114.81,189.96 115.51,190.97 108.71,200.28 111.21,212.45 120.97,212.45 123.96,203.28 			"/>
			<path class="st5" d="M94.69,190.82l2.67-3.88l0,0l-11.22,16.34l2.99,9.17h8.33l3.5-12.17C98.87,197.13,96.78,193.98,94.69,190.82
				z"/>
			<path class="st6" d="M104.88,199.37c-1.84-0.01-3.23,0.57-3.92,0.92l-3.5,12.17h13.75l-2.5-12.17
				C108.03,199.94,106.67,199.38,104.88,199.37z"/>
			<path class="st7" d="M110.26,183.33l15.75-15.75l-1.41-10.38c-2.61,3.41-14.97,10.34-20.27,10.39
				c-5.1,0.05-18.27-8.88-19.19-9.51l-1.05,9.51l15.74,15.74H110.26z"/>
			<polygon class="st7" points="99.83,183.33 98.08,185.88 98.08,185.88 			"/>
			<path class="st8" d="M76.63,202.62l-15-6.5l7.17-21.51v0l-37.34,10.85c0,0-7.88,7.88-18.5,27h55.5l-2.83-6.67L76.63,202.62z"/>
			<polygon class="st9" points="81.79,165.28 69.46,172.62 68.8,174.6 61.63,196.12 76.63,202.62 65.63,205.78 68.46,212.45 
				85.08,212.45 89.13,212.45 76.13,172.62 			"/>
			<polygon class="st10" points="86.13,203.28 86.13,203.28 97.35,186.94 98.08,185.88 99.83,183.33 84.09,167.59 81.79,165.28 
				76.13,172.62 			"/>
			<path class="st8" d="M178.63,185.45L141.3,174.6l7.17,21.51l-15,6.5l11,3.17l-2.83,6.67h55.5
				C186.51,193.33,178.63,185.45,178.63,185.45z"/>
			<polygon class="st9" points="133.47,202.62 148.47,196.12 141.3,174.6 140.63,172.62 128.3,165.28 133.97,172.62 120.97,212.45 
				125.01,212.45 141.63,212.45 144.47,205.78 			"/>
			<polygon class="st10" points="110.26,183.33 114.81,189.96 123.96,203.28 123.96,203.28 133.97,172.62 128.3,165.28 
				126.01,167.58 110.26,183.33 			"/>
			<path class="st11" d="M110.26,183.33L110.26,183.33H99.83l-1.75,2.55l-0.73,1.06l-2.67,3.88c2.09,3.15,4.18,6.31,6.27,9.46
				c0.69-0.34,2.08-0.93,3.92-0.92c1.8,0.01,3.15,0.57,3.83,0.92l6.8-9.31l-0.69-1.01L110.26,183.33z"/>
			<path class="st12" d="M138.08,100.95c0,0,2.38-46.67-35.46-46.5c-37.83-0.17-35.46,46.5-35.46,46.5
				c-4.37-0.25-9.25-0.38-8.25,11.5s12.04,13,12.04,13c0.67,12,8.33,23.67,14,28.67c5.67,5,17.67,5,17.67,5s12,0,17.67-5
				c5.67-5,13.33-16.67,14-28.67c0,0,11.04-1.13,12.04-13S142.46,100.7,138.08,100.95z"/>
			<polygon class="st13" points="81.79,165.28 84.35,165.28 84.09,167.59 			"/>
			<polygon class="st13" points="128.3,165.28 125.7,165.28 126,167.59 			"/>
			<path class="st14" d="M144.72,62.45c-3.8-7.84-42.85-25.4-64.53-9.93c-0.67-3.05-2.45-5.69-5.3-7.66
				c2.08,2.3,3.02,4.95,2.86,7.72c-1.74-2.16-5.08-3.04-7.82-2.75c2.98,0.61,5.28,2.59,5.06,5.56c-5.1,0.79-18.15,4.64-15.52,23.37
				c3.25,23.18,4.5,22.18,4.5,22.18s3.5,2.75,5,10.25c0,0,1.75-21.25,2.5-24.5s7.25-13,7.25-13s26.5,21.25,43.75,18.75
				c0,0,6.75-1.25,11.75-5.75l1.5,22c0,0,1.81-7.97,6.9-7.45C142.62,101.25,148.72,70.7,144.72,62.45z"/>
			<g>
				<path class="st15" d="M102.45,136.16c-0.91,0.1-2.42-0.16-2.62-0.17c-1.09-0.07-2.2,0.09-3.17,0.53
					c-0.73,0.34-1.24,0.8-1.86,1.24c-3.06,2.17-6.36,1.7-7.56,0.23c-0.97-1.19,3.6,0.02,5.36-2.65c-0.09,0.1-0.02,0.02-0.04,0.04
					c1.08-1.54,2.55-2.77,4.5-3.55c1.48-0.59,3.54-1.1,5.38-1.08c0.97,0.01,1.77,0.62,1.91,1.42
					C104.61,133.65,104.64,135.92,102.45,136.16z"/>
				<path class="st15" d="M105,136.16c0.91,0.1,2.42-0.16,2.62-0.17c1.09-0.07,2.2,0.09,3.17,0.53c0.73,0.34,1.24,0.8,1.86,1.24
					c3.06,2.17,6.36,1.7,7.56,0.23c0.97-1.19-3.6,0.02-5.36-2.65c0.09,0.1,0.02,0.02,0.04,0.04c-1.08-1.54-2.55-2.77-4.5-3.55
					c-1.48-0.59-3.54-1.1-5.38-1.08c-0.97,0.01-1.77,0.62-1.91,1.42C102.84,133.65,102.81,135.92,105,136.16z"/>
			</g>
			<path class="st16" d="M120.29,154.12c-5.67,5-17.67,5-17.67,5s-11.18,0-17.05-4.5l-0.24,1.64l-0.26,1.78c0,0,0.02,0.02,0.06,0.04
				c0.93,0.63,14.09,9.57,19.19,9.51c5.29-0.05,17.66-6.99,20.27-10.39l-0.91-6.63C122.53,151.96,121.37,153.16,120.29,154.12z"/>
		</g>
	</g>
</g>
</svg>
