<?xml version="1.0" encoding="utf-8"?>
<!-- Generator: Adobe Illustrator 23.0.1, SVG Export Plug-In . SVG Version: 6.00 Build 0)  -->
<svg version="1.1" id="Capa_1" xmlns="http://www.w3.org/2000/svg" xmlns:xlink="http://www.w3.org/1999/xlink" x="0px" y="0px"
	 viewBox="0 0 402.4 389.6" style="enable-background:new 0 0 402.4 389.6;" xml:space="preserve">
<style type="text/css">
	.st0{display:none;fill:none;stroke:#2B2B2B;stroke-width:9;stroke-miterlimit:10;}
	.st1{display:none;fill:none;stroke:#FFAA16;stroke-width:6;stroke-miterlimit:10;}
	.st2{display:none;fill:none;stroke:#FFAA16;stroke-width:5;stroke-miterlimit:10;}
	.st3{display:none;fill:none;stroke:#2B2B2B;stroke-width:6;stroke-miterlimit:10;}
	.st4{fill:none;}
	.st5{fill:#FFFFFF;}
	.st6{fill:#E2EBF9;}
	.st7{fill:#FF914D;}
	.st8{fill:#FF8125;}
	.st9{fill:#434C54;}
	.st10{display:none;fill:#FF8125;}
	.st11{display:none;fill:#5DE1C0;}
	.st12{display:none;fill:#FFFFFF;}
	.st13{display:none;fill:#E2EBF9;}
	.st14{display:none;fill:#FFAA16;}
	.st15{display:none;fill:#FF914D;}
	.st16{display:none;}
	.st17{display:inline;fill:#FF8125;}
	.st18{display:none;fill:#434C54;}
	.st19{fill:#EFB81D;}
	.st20{fill:#FCCC28;}
	.st21{display:none;fill:url(#SVGID_1_);}
	.st22{display:none;fill:url(#SVGID_2_);}
	.st23{fill:url(#SVGID_3_);}
	.st24{fill:#FEAD3A;}
</style>
<circle class="st0" cx="-71.1" cy="-50.1" r="29.4"/>
<circle class="st1" cx="3.5" cy="135.8" r="23.1"/>
<path class="st2" d="M341.4,387.9h-16.2v-16.2c0-4-3.3-7.2-7.3-7.2c-4,0-7.3,3.3-7.3,7.2v16.2h-16.2c-4,0-7.2,3.3-7.2,7.3
	s3.3,7.3,7.2,7.3h16.2v16.2c0,4,3.3,7.2,7.3,7.2c4,0,7.3-3.3,7.3-7.2v-16.2h16.2c4,0,7.2-3.3,7.2-7.3S345.4,387.9,341.4,387.9z"/>
<path class="st3" d="M-49.4,387.4h-17.3v-17.3c0-4.3-3.6-7.7-7.8-7.7c-4.3,0-7.8,3.5-7.8,7.7v17.3h-17.3c-4.3,0-7.7,3.6-7.7,7.8
	s3.5,7.8,7.7,7.8h17.3v17.3c0,4.3,3.6,7.7,7.8,7.7c4.3,0,7.8-3.5,7.8-7.7V403h17.3c4.3,0,7.7-3.6,7.7-7.8S-45.1,387.4-49.4,387.4z"
	/>
<path class="st4" d="M276.7,236.5c-27.9,5.4-94.3,8.6-109,0c-9.6-5.6-37-6.2-54.9-5.9v4.2c18.3-2,34.1-0.1,54.2,6.3
	c0.2,0.1,0.4,0.1,0.6,0.2c0.2,0.1,0.5,0.1,0.7,0.2c0.5,0.1,1.1,0.3,1.7,0.5c7.7,2.1,23.7,6.5,37.7,4.6c16-2.2,43.1-4.3,62.9-5.5
	c0.2,0,0.5,0,0.7,0c10.1,0.7,18,3.6,23.5,8.7V240C290.7,236.8,284.9,234.9,276.7,236.5z"/>
<path class="st5" d="M368.6,217.8l-53.2,58.8c-0.7,0.8-1.6,1.3-2.6,1.6c-1.7,0.5-3.4,1.1-5.2,1.8c-2.7,1-5.5,2-8.5,2.7
	c-0.1,0-0.1,0-0.2,0.1c-25.4,6.1-53.5,10-80.6,13.8c-10.9,1.5-21.2,3-31.3,4.5c-0.3,0-0.6,0.1-0.9,0.1c0,0-0.1,0-0.1,0
	c-7.5-0.2-12.9-5-13.4-12c-0.2-3.1,2.1-5.8,5.3-6.1c3.1-0.2,5.8,2.1,6.1,5.3c0,0.6,0.1,1.3,1.8,1.4c10.1-1.6,20.7-3,30.9-4.5
	c25.4-3.6,51.7-7.2,75.4-12.7c0.1-0.3,0.1-0.6,0.1-0.9c0.1-0.7,0.3-1.8,0.3-2.2c-1.8-10.9-8.3-16-21.7-17.1
	c-19.5,1.2-46,3.3-61.6,5.4c-16.3,2.2-33.8-2.6-42.2-4.9c-0.6-0.2-1.2-0.3-1.7-0.5c-1.4-0.4-2.3-0.6-2.8-0.8
	c-0.6-0.2-1.2-0.4-1.7-0.6c-19.8-6-34.6-7.1-53.7-4.1c-6,0.9-13.2,2.2-20.8,3.6c-3,0.5-6.1,1.1-9.1,1.6v60c23.7,4,70.5,12.2,94.9,19
	c10,2.8,20.5,2.6,30.4-0.5c36.5-11.4,97.9-28.2,119.7-39.2c4.6-0.8,22.5-19.4,22.5-19.4c10.4-18.6,23.2-37.8,35.5-56.4
	c-1.3-0.5-2.9-0.8-4.6-0.8C372.8,214.8,370.4,215.8,368.6,217.8z"/>
<path class="st6" d="M322.4,291.5c-21.9,11-83.2,27.8-119.7,39.2c-9.9,3.1-20.4,3.2-30.4,0.5c-24.4-6.8-71.2-15-94.9-19v32.2
	c23.8,4,71.5,12.4,96.4,19.3c8.9,2.5,18.3,2.3,27.2-0.4c9.2-2.9,19.9-6.1,31.2-9.4c33.6-10,71.8-21.4,87.7-29.5
	c0.4-0.2,0.8-0.4,1.3-0.5c2.7-1.2,12-9.8,19.2-17.3c9.6-17.2,21.3-34.8,32.6-51.9c4.7-7.1,9.5-14.4,14-21.3
	c3.8-5.9-1.3-13.9-2.8-15.7c-0.5-0.5-1.8-1.4-3.6-2c-12.3,18.6-25.1,37.8-35.5,56.4C344.9,272.2,327,290.8,322.4,291.5z"/>
<rect x="22.9" y="242.2" class="st7" width="11.8" height="116"/>
<path class="st8" d="M62.8,309.8v-60.9c1-0.2,2.1-0.3,3.2-0.5v-6.3H34.7v116H66v-9.8c-2-0.3-3.2-0.5-3.2-0.5V309.8z"/>
<path class="st8" d="M62.8,248.9v60.9c0,0,1.1,0.2,3.2,0.5v-61.9C64.9,248.6,63.8,248.8,62.8,248.9z"/>
<path class="st8" d="M62.8,347.8c0,0,1.1,0.2,3.2,0.5v-37.9c-2-0.3-3.2-0.5-3.2-0.5V347.8z"/>
<path class="st9" d="M392.6,210.4c-3.4-4-10.1-6.7-16.6-6.9c-6.2-0.1-11.8,2.2-15.8,6.6L308,267.8c-0.6,0.2-1.2,0.4-1.8,0.6
	l-11.4-18.5c-5.5-5.1-13.3-8-23.5-8.7c-0.2,0-0.5,0-0.7,0c-19.8,1.2-46.9,3.3-62.9,5.5c-14,1.9-30-2.5-37.7-4.6
	c-0.6-0.2-1.2-0.3-1.7-0.5c-0.3-0.1-0.5-0.1-0.7-0.2c-0.2-0.1-0.4-0.2-0.6-0.2c-20.1-6.4-35.9-8.3-54.2-6.3l-11.4,1.6
	c-5.2,0.9-11,1.9-17,3c-2.4,0.4-4.8,0.9-7.1,1.3c-0.6-5.6-5.3-9.9-11.1-9.9H22.7c-6.1,0-11.1,5-11.1,11.1v116.4
	c0,6.1,5,11.1,11.1,11.1h43.5c6.1,0,11.1-5,11.1-11.1v-2.4c24.1,4.1,69.6,12.1,93.3,18.7c5.2,1.5,10.6,2.2,16,2.2
	c6,0,11.9-0.9,17.7-2.7c9.1-2.8,19.8-6,31-9.4c33.7-10,71.8-21.4,89-29.9c2.3-0.7,6-2.8,15-11.2c5.1-4.8,9.5-9.4,9.7-9.6
	c0.3-0.4,0.6-0.7,0.9-1.2c9.5-17,21.2-34.7,32.5-51.8c4.7-7.1,9.5-14.4,14-21.5C403.1,229.2,397.8,216.4,392.6,210.4z M391.6,236.5
	c-15.3,23.8-33.1,49.2-46.7,73.6c0,0-17.9,18.6-22.5,19.4c-21.2,10.7-79.4,26.8-116.3,38.2c-1.2,0.4-2.4,0.7-3.5,1.1
	c-9.9,3.1-20.4,3.2-30.4,0.5c-26.5-7.4-79.6-16.5-100.6-20v9.1c0,3-2.4,5.4-5.4,5.4H34.7h-12c-3,0-5.4-2.4-5.4-5.4V241.9
	c0-3,2.4-5.4,5.4-5.4h12h31.5c0.2,0,0.4,0,0.6,0c2.7,0.3,4.9,2.6,4.9,5.4v5.5c11.8-2,24.9-4.5,34.7-6.1c21.7-3.4,38.1-1.5,58.9,5.2
	c0,0-5.2-1.3,1.6,0.5c7.6,2,25.4,7.4,41.7,5.2c16.3-2.2,44-4.4,62.4-5.5c14.8,1,24.8,7.1,27.3,21.9c0.4,2.5-1.1,6-0.6,8.5
	c4.6-1,9-3.1,13.5-4.4l53.2-58.8c5.7-6.2,14.5-5.3,19.9-2.7c0,0,0,0,0,0c0.2,0.1,0.5,0.2,0.7,0.4c0,0,0,0,0,0
	c0.2,0.1,0.4,0.2,0.6,0.3c0,0,0.1,0,0.1,0.1c0.2,0.1,0.3,0.2,0.5,0.3c0,0,0.1,0,0.1,0.1c0.2,0.1,0.3,0.2,0.4,0.3
	c0,0,0.1,0.1,0.1,0.1c0.1,0.1,0.3,0.2,0.4,0.3c0,0,0.1,0.1,0.1,0.1c0.1,0.1,0.2,0.2,0.3,0.3c0,0,0.1,0.1,0.1,0.1
	c0.1,0.1,0.3,0.3,0.4,0.4C391.3,217.6,397.1,228,391.6,236.5z"/>
<path class="st9" d="M386.4,212.4c0.2,0.1,0.3,0.2,0.4,0.3C386.7,212.6,386.5,212.5,386.4,212.4z"/>
<path class="st9" d="M385.8,212c0.2,0.1,0.3,0.2,0.5,0.3C386.1,212.2,385.9,212.1,385.8,212z"/>
<path class="st9" d="M387,212.8c0.1,0.1,0.3,0.2,0.4,0.3C387.2,213,387.1,212.9,387,212.8z"/>
<path class="st9" d="M387.5,213.2c0.1,0.1,0.2,0.2,0.3,0.3C387.7,213.4,387.6,213.3,387.5,213.2z"/>
<path class="st9" d="M385.1,211.6c0.2,0.1,0.4,0.2,0.6,0.3C385.5,211.8,385.3,211.7,385.1,211.6z"/>
<path class="st9" d="M384.3,211.2c0.2,0.1,0.5,0.2,0.7,0.4C384.8,211.5,384.6,211.3,384.3,211.2z"/>
<path class="st9" d="M391.6,236.5c-15.3,23.8-33.1,49.2-46.7,73.6C358.5,285.7,376.3,260.3,391.6,236.5z"/>
<path class="st9" d="M387.9,213.7c0.1,0.1,0.3,0.3,0.4,0.4C388.2,213.9,388.1,213.8,387.9,213.7z"/>
<path class="st9" d="M77.3,312.2v-60c3-0.5,6.1-1.1,9.1-1.6c7.6-1.4,14.8-2.7,20.8-3.6c19.1-3,33.9-1.9,53.7,4.1
	c0.5,0.2,1.1,0.5,1.7,0.6c0.5,0.2,1.4,0.4,2.8,0.8c0.5,0.1,1.1,0.3,1.7,0.5c8.4,2.3,25.9,7.1,42.2,4.9c15.6-2.1,42.1-4.2,61.6-5.4
	c13.4,1,19.9,6.1,21.7,17.1c0,0.4-0.2,1.5-0.3,2.2c0,0.3-0.1,0.6-0.1,0.9c-23.8,5.4-50,9.1-75.4,12.7c-10.3,1.4-20.9,2.9-30.9,4.5
	c-1.8-0.1-1.8-0.9-1.8-1.4c-0.2-3.1-2.9-5.5-6.1-5.3c-3.1,0.2-5.5,2.9-5.3,6.1c0.5,7,5.9,11.9,13.4,12c0,0,0.1,0,0.1,0
	c0.3,0,0.6,0,0.9-0.1c10.1-1.6,20.4-3,31.3-4.5c27.2-3.8,55.3-7.7,80.6-13.8c0.1,0,0.1,0,0.2-0.1c3-0.7,5.8-1.7,8.5-2.7
	c1.8-0.7,3.5-1.3,5.2-1.8c1-0.3,1.9-0.9,2.6-1.6l53.2-58.8c1.8-2,4.2-2.9,7.2-2.9c1.7,0,3.3,0.4,4.6,0.8c1.1-1.6,2.1-3.2,3.2-4.8
	c0.3,0.1,0.5,0.2,0.8,0.3c-5.5-2.7-14.2-3.5-19.9,2.7l-53.2,58.8c-4.5,1.3-9,3.4-13.5,4.4c-0.5-2.6,1-6,0.6-8.5
	c-2.5-14.7-12.5-20.8-27.3-21.9c-18.5,1.1-46.2,3.3-62.4,5.5c-16.3,2.2-34.1-3.1-41.7-5.2c-6.8-1.8-1.6-0.5-1.6-0.5
	c-20.9-6.7-37.3-8.6-58.9-5.2c-9.7,1.5-22.9,4-34.7,6.1v63.8C73.3,311.6,75.2,311.9,77.3,312.2z"/>
<path class="st9" d="M385,211.6C385,211.6,385.1,211.6,385,211.6C385.1,211.6,385,211.6,385,211.6z"/>
<path class="st9" d="M385.7,212C385.7,212,385.7,212,385.7,212C385.7,212,385.7,212,385.7,212z"/>
<path class="st9" d="M384.3,211.2C384.3,211.2,384.3,211.2,384.3,211.2C384.3,211.2,384.3,211.2,384.3,211.2z"/>
<path class="st9" d="M172.2,369.2c10,2.8,20.5,2.6,30.4-0.5C192.7,371.8,182.2,372,172.2,369.2z"/>
<path class="st9" d="M322.4,329.5c-21.2,10.7-79.4,26.8-116.3,38.2C242.9,356.3,301.2,340.2,322.4,329.5z"/>
<path class="st9" d="M386.3,212.3c0,0,0.1,0,0.1,0.1C386.4,212.4,386.3,212.4,386.3,212.3z"/>
<path class="st9" d="M386.8,212.7c0,0,0.1,0.1,0.1,0.1C386.9,212.8,386.9,212.8,386.8,212.7z"/>
<path class="st9" d="M387.3,213.1c0,0,0.1,0.1,0.1,0.1C387.4,213.2,387.4,213.2,387.3,213.1z"/>
<path class="st9" d="M387.8,213.5c0,0,0.1,0.1,0.1,0.1C387.9,213.6,387.8,213.6,387.8,213.5z"/>
<path class="st9" d="M387.9,213.7c0,0-0.1-0.1-0.1-0.1c-0.1-0.1-0.2-0.2-0.3-0.3c0,0-0.1-0.1-0.1-0.1c-0.1-0.1-0.2-0.2-0.4-0.3
	c0,0-0.1-0.1-0.1-0.1c-0.1-0.1-0.3-0.2-0.4-0.3c0,0-0.1,0-0.1-0.1c-0.2-0.1-0.3-0.2-0.5-0.3c0,0-0.1,0-0.1-0.1
	c-0.2-0.1-0.4-0.2-0.6-0.3c0,0,0,0,0,0c-0.2-0.1-0.5-0.2-0.7-0.4c0,0,0,0,0,0c-0.2-0.1-0.5-0.2-0.8-0.3c-1.1,1.6-2.1,3.2-3.2,4.8
	c1.8,0.6,3.1,1.5,3.6,2c1.6,1.8,6.6,9.8,2.8,15.7c-4.5,7-9.3,14.3-14,21.3c-11.3,17.1-22.9,34.7-32.6,51.9
	c-7.3,7.5-16.5,16-19.2,17.3c-0.4,0.1-0.9,0.3-1.3,0.5c-16,8.1-54.1,19.4-87.7,29.5c-11.3,3.4-22,6.6-31.2,9.4
	c-8.9,2.8-18.3,2.9-27.2,0.4c-24.9-6.9-72.6-15.3-96.4-19.3v-32.2c-2.1-0.4-4-0.7-5.7-0.9v37.9c21,3.5,74,12.6,100.6,20
	c10,2.8,20.5,2.6,30.4-0.5c1.1-0.4,2.3-0.7,3.5-1.1c36.8-11.4,95-27.4,116.3-38.2c4.6-0.8,22.5-19.4,22.5-19.4
	c13.6-24.4,31.4-49.8,46.7-73.6c5.5-8.5-0.3-18.9-3.3-22.4C388.2,213.9,388.1,213.8,387.9,213.7z"/>
<path class="st9" d="M22.9,358.1v-116h11.8v-5.7h-12c-3,0-5.4,2.4-5.4,5.4v116.4c0,3,2.4,5.4,5.4,5.4h12v-5.7H22.9z"/>
<path class="st9" d="M71.6,241.9c0-2.8-2.1-5.1-4.9-5.4C69.5,236.8,71.6,239.1,71.6,241.9z"/>
<path class="st9" d="M66,242.2v6.3c1.8-0.3,3.7-0.6,5.7-1v-5.5c0-2.8-2.1-5.1-4.9-5.4c-0.2,0-0.4,0-0.6,0H34.7v5.7H66z"/>
<path class="st9" d="M66,358.1H34.7v5.7h31.5c3,0,5.4-2.4,5.4-5.4v-9.1c-2.3-0.4-4.2-0.7-5.7-0.9V358.1z"/>
<path class="st9" d="M66,310.3c1.5,0.2,3.4,0.6,5.7,0.9v-63.8c-1.9,0.3-3.8,0.7-5.7,1V310.3z"/>
<path class="st9" d="M66,310.3v37.9c1.5,0.2,3.4,0.6,5.7,0.9v-37.9C69.3,310.9,67.4,310.6,66,310.3z"/>
<path class="st10" d="M277.5,238.7H245c-17.3,0-31.4-14.1-31.4-31.4v-2c0-2.3,1.9-4.1,4.1-4.1c2.3,0,4.1,1.9,4.1,4.1v2
	c0,12.8,10.4,23.1,23.1,23.1h32.5c12.8,0,23.1-10.4,23.1-23.1V44c0-16.2,13.2-29.4,29.4-29.4c16.2,0,29.4,13.2,29.4,29.4v12.8
	c0,2.3-1.9,4.1-4.1,4.1c-2.3,0-4.1-1.9-4.1-4.1V44c0-11.6-9.5-21.1-21.1-21.1s-21.1,9.5-21.1,21.1v163.3
	C308.9,224.7,294.8,238.7,277.5,238.7z"/>
<path class="st11" d="M358.5,84.6h-6.2c-3.1,0-5.6-2.5-5.6-5.6V62.4c0-3.1,2.5-5.6,5.6-5.6h6.2c3.1,0,5.6,2.5,5.6,5.6V79
	C364.1,82.1,361.6,84.6,358.5,84.6z"/>
<path class="st12" d="M251.9-21.1c-16.2-12-35.8-18.5-56-18.5h-28.3c-20.2,0-39.8,6.5-56,18.5c-6.4,4.8-10.2,12.3-10.2,20.3v149.4
	c0,9.6,5.7,18.3,14.6,22l20.6,8.8h0v8.3c0,2,1.6,3.6,3.6,3.6h12.1c2,0,3.6-1.6,3.6-3.6v-8.3h52.1v22.4c0,2,1.6,3.6,3.6,3.6h12.1
	c2,0,3.6-1.6,3.6-3.6v-22.4l20.5-8.7c8.8-3.8,14.6-12.4,14.6-22V-0.9C262.1-8.8,258.4-16.4,251.9-21.1z"/>
<path class="st13" d="M251.9-21.1c-16.2-12-35.8-18.5-56-18.5h-27c20.2,0,39.8,6.5,56,18.5c6.4,4.8,10.2,12.3,10.2,20.3v149.4
	c0,9.6-5.7,18.3-14.6,22l-20.5,8.7v0h7.8v22.4c0,2,1.6,3.6,3.6,3.6h12.1c2,0,3.6-1.6,3.6-3.6v-22.4l20.5-8.7
	c8.8-3.8,14.6-12.4,14.6-22V-0.9C262.1-8.8,258.4-16.4,251.9-21.1z"/>
<path class="st14" d="M158.9,163.5c-12.6,0-25.1-2.5-36.7-7.5c-3-1.3-4.9-4.2-4.9-7.4v-133c0-2.9,1.4-5.7,3.7-7.4
	c13.4-9.9,29.9-15.4,46.6-15.4h28.3c16.7,0,33.2,5.5,46.6,15.4c2.3,1.7,3.7,4.5,3.7,7.4v133c0,3.2-1.9,6.1-4.9,7.4h0
	c-11.6,4.9-24.1,7.5-36.7,7.5H158.9z"/>
<path class="st15" d="M242.5,8.2c-7.1-5.3-15-9.3-23.4-11.9v166.1c7.6-1.2,15.1-3.3,22.2-6.4h0c3-1.3,4.9-4.2,4.9-7.4v-133
	C246.2,12.7,244.9,9.9,242.5,8.2z"/>
<path class="st12" d="M181.8,29.6c0,0-21.7,22.8-21.7,41.3c0,11.1,9.7,20.1,21.7,20.1c12,0,21.7-9,21.7-20.1
	C203.4,52.4,181.8,29.6,181.8,29.6z"/>
<g class="st16">
	<path class="st17" d="M220.4,137.3h-77.3c-2.3,0-4.1-1.9-4.1-4.1s1.9-4.1,4.1-4.1h77.3c2.3,0,4.1,1.9,4.1,4.1
		S222.7,137.3,220.4,137.3z"/>
	<path class="st17" d="M220.4,121.5h-49.2c-2.3,0-4.1-1.9-4.1-4.1s1.9-4.1,4.1-4.1h49.2c2.3,0,4.1,1.9,4.1,4.1
		S222.7,121.5,220.4,121.5z"/>
	<path class="st17" d="M151.8,121.5h-8.7c-2.3,0-4.1-1.9-4.1-4.1s1.9-4.1,4.1-4.1h8.7c2.3,0,4.1,1.9,4.1,4.1
		S154.1,121.5,151.8,121.5z"/>
</g>
<path class="st18" d="M254.4-24.4c-16.8-12.5-37.6-19.3-58.5-19.3h-28.3c-20.9,0-41.7,6.9-58.5,19.3c-7.4,5.5-11.9,14.3-11.9,23.6
	v149.4c0,11.3,6.7,21.4,17.1,25.8l18.1,7.7v5.6c0,4.3,3.5,7.7,7.7,7.7h12.1c4.3,0,7.7-3.5,7.7-7.7v-4.2h43.8v18.3
	c0,4.3,3.5,7.7,7.7,7.7h12.1c4.3,0,7.7-3.5,7.7-7.7v-19.7l18-7.7c10.4-4.4,17.1-14.6,17.1-25.8V-0.9
	C266.3-10.1,261.8-18.9,254.4-24.4z M191.1-35.5v1.3c0,2.3-1.9,4.2-4.2,4.2h-10.3c-2.3,0-4.2-1.9-4.2-4.2v-1.3H191.1z M258,148.6
	c0,8-4.7,15.1-12,18.2l-20.5,8.7c-1.5,0.6-2.5,2.1-2.5,3.8v21.9h-11v-21.8c0-2.3-1.9-4.1-4.1-4.1h-52.1c-2.3,0-4.1,1.9-4.1,4.1v7.8
	h-11v-7.8c0-1.7-1.1-3.2-2.6-3.8l-20.5-8.7c-7.3-3.1-12-10.3-12-18.2V-0.9c0-6.6,3.2-13,8.5-16.9c14.5-10.7,32.1-16.9,50.1-17.6v1.2
	c0,6.9,5.6,12.4,12.4,12.4h10.3c6.9,0,12.4-5.6,12.4-12.4v-1.2c18,0.7,35.6,6.9,50.1,17.6c5.3,4,8.5,10.3,8.5,16.9V148.6z"/>
<path class="st18" d="M358.5,52.7h-6.2c-5.4,0-9.8,4.4-9.8,9.8V79c0,5,3.7,9.1,8.5,9.7v11.1c0,2.3,1.9,4.1,4.1,4.1
	c2.3,0,4.1-1.9,4.1-4.1v-11c5-0.4,8.9-4.6,8.9-9.7V62.4C368.3,57,363.9,52.7,358.5,52.7z M360,79c0,0.8-0.7,1.5-1.5,1.5h-6.2
	c-0.8,0-1.5-0.7-1.5-1.5V62.4c0-0.8,0.7-1.5,1.5-1.5h6.2c0.8,0,1.5,0.7,1.5,1.5V79z"/>
<g>
	<g>
		
			<ellipse transform="matrix(0.9778 -0.2097 0.2097 0.9778 -19.3808 47.3251)" class="st19" cx="213.5" cy="115.1" rx="100.7" ry="100.7"/>
		<path class="st20" d="M289,115.1c0,41.7-33.8,75.5-75.5,75.5c-41.7,0-75.5-33.8-75.5-75.5c0-41.7,33.8-75.5,75.5-75.5
			C255.2,39.5,289,73.4,289,115.1z"/>
		<g>
			
				<linearGradient id="SVGID_1_" gradientUnits="userSpaceOnUse" x1="97.0903" y1="-15.7855" x2="97.0903" y2="126.7234" gradientTransform="matrix(1 0 0 1 119.9533 66.2063)">
				<stop  offset="0" style="stop-color:#FCD224"/>
				<stop  offset="1" style="stop-color:#FFA340"/>
			</linearGradient>
			<path class="st21" d="M210.8,96.9c1.3-0.8,3.5-1.3,6.8-1.3c6.7-0.1,14.3,1.9,22.7,5.8l7-18.4c-8.1-3.6-16.2-5.7-24.2-6.1
				l-0.1-8.7l-12.5,0.1l0.1,8.8c-8.5,1-14.8,3.5-19.1,7.6c-4.2,4-6.3,9.6-6.2,16.6c0,4.6,0.8,8.5,2.2,11.6c1.5,3.1,3.8,5.9,6.9,8.3
				c3.2,2.5,7.3,4.7,12.4,6.7c4.5,1.7,8.2,3.2,10.8,4.4c2.7,1.2,4.6,2.3,5.7,3.3c1.2,1,1.7,2.2,1.7,3.6c0,2.1-0.8,3.5-2.3,4.4
				c-1.6,0.9-4.1,1.4-7.5,1.4c-4.1,0-8.9-0.8-14.4-2.4c-5.5-1.6-10.5-3.7-15.2-6.2l0.2,21.3c8.2,3.7,16.7,5.7,25.4,6.1l0.1,12
				l12.5-0.1l-0.1-12.4c8.2-1.1,14.4-4,18.6-8.5c4.2-4.5,6.3-10.4,6.2-17.6c-0.1-6.4-1.9-11.6-5.6-15.6c-3.7-4-9.7-7.6-18.2-10.7
				c-4.1-1.5-7.4-2.7-9.7-3.9c-2.3-1.1-4-2.1-4.9-3c-1-0.9-1.4-2.1-1.4-3.5C208.9,99,209.5,97.7,210.8,96.9z"/>
			
				<linearGradient id="SVGID_2_" gradientUnits="userSpaceOnUse" x1="97.0899" y1="-22.7403" x2="97.0899" y2="119.7691" gradientTransform="matrix(1 0 0 1 119.9533 66.2063)">
				<stop  offset="0.3081" style="stop-color:#FFA340"/>
				<stop  offset="1" style="stop-color:#FCD224"/>
			</linearGradient>
			<path class="st22" d="M210.8,89.9c1.3-0.8,3.5-1.3,6.8-1.3c6.7-0.1,14.3,1.9,22.7,5.8l7-18.4c-8.1-3.6-16.2-5.7-24.2-6.1
				l-0.1-8.7l-12.5,0.1l0.1,8.8c-8.5,1-14.8,3.5-19.1,7.6c-4.2,4-6.3,9.6-6.2,16.6c0,4.6,0.8,8.5,2.2,11.6c1.5,3.1,3.8,5.9,6.9,8.3
				c3.2,2.5,7.3,4.7,12.4,6.7c4.5,1.7,8.2,3.2,10.8,4.4c2.7,1.2,4.6,2.3,5.7,3.3c1.2,1,1.7,2.2,1.7,3.6c0,2.1-0.8,3.5-2.3,4.4
				c-1.6,0.9-4.1,1.4-7.5,1.4c-4.1,0-8.9-0.8-14.4-2.4c-5.5-1.6-10.5-3.7-15.2-6.2l0.2,21.3c8.2,3.7,16.7,5.7,25.4,6.1l0.1,12
				l12.5-0.1l-0.1-12.4c8.2-1.1,14.4-4,18.6-8.5c4.2-4.5,6.3-10.4,6.2-17.6c-0.1-6.4-1.9-11.6-5.6-15.6c-3.7-4-9.7-7.6-18.2-10.7
				c-4.1-1.5-7.4-2.7-9.7-3.9c-2.3-1.1-4-2.1-4.9-3c-1-0.9-1.4-2.1-1.4-3.5C208.9,92,209.5,90.8,210.8,89.9z"/>
			
				<linearGradient id="SVGID_3_" gradientUnits="userSpaceOnUse" x1="123.8239" y1="5.6634" x2="123.8239" y2="39.2187" gradientTransform="matrix(1 0 0 1 119.9533 66.2063)">
				<stop  offset="0" style="stop-color:#FCD224"/>
				<stop  offset="1" style="stop-color:#FFA340"/>
			</linearGradient>
			<polygon class="st23" points="247.3,76.1 247.3,83 240.3,101.4 240.3,94.4 			"/>
		</g>
		<path class="st19" d="M213.5,46.5c40.5,0,73.5,32,75.3,72c0.1-1.2,0.2-2.3,0.2-3.5c0-41.7-33.8-75.5-75.5-75.5
			c-41.7,0-75.5,33.8-75.5,75.5c0,1.2,0.1,2.3,0.2,3.5C140,78.5,172.9,46.5,213.5,46.5z"/>
	</g>
</g>
<g>
	<path class="st24" d="M225.3,97c-1.1,0-2.2,0-3.3,0c-9.8,0-19.6,0-29.3,0c-0.7,0-0.9-0.1-0.8-0.8c0.1-1.7,0-3.4,0-5.2
		c0-0.6,0.1-0.8,0.7-0.8c7.4,0,14.8,0,22.3,0c2.9,0,5.7,0,8.6,0c0.2,0,0.4,0,0.7,0c-0.2-0.5-0.3-0.9-0.5-1.3
		c-3.7-7.6-9.7-11.7-18.1-12c-4.3-0.1-8.5,0-12.8,0c-0.6,0-0.8-0.2-0.8-0.8c0-1.8,0-3.5,0-5.3c0-0.5,0.2-0.7,0.7-0.7
		c9.1,0,18.2,0,27.4,0c8.2,0,16.5,0,24.7,0c0.9,0,0.9,0,0.9,0.8c0,1.7,0,3.4,0,5.2c0,0.6-0.2,0.7-0.7,0.7c-7,0-13.9,0-20.9,0
		c-0.3,0-0.5,0-0.9,0c0.2,0.2,0.3,0.3,0.4,0.4c3.7,3.4,6.3,7.6,7.7,12.5c0.1,0.5,0.4,0.5,0.8,0.5c4.3,0,8.6,0,12.9,0
		c0.7,0,0.8,0.2,0.8,0.9c0,1.7,0,3.5,0,5.2c0,0.5-0.2,0.7-0.7,0.7c-4,0-7.9,0-11.9,0c-0.3,0-0.5,0-0.8,0c-0.2,8.3-3.4,15.1-9.6,20.5
		c-6.3,5.4-13.7,6.9-21.8,6.2c0,0.1,0,0.2,0,0.3c12,11,23.9,22.1,36,33.2c-0.3,0-0.5,0.1-0.7,0.1c-2.9,0-5.7,0-8.6,0
		c-0.4,0-0.8-0.2-1.1-0.5c-9.8-9.1-19.6-18.1-29.5-27.2c-1.5-1.4-3-2.8-4.5-4.2c-0.3-0.3-0.5-0.6-0.5-1.1c0-2.2,0-4.4,0-6.6
		c0-0.5,0.2-0.7,0.7-0.7c4,0,8.1,0,12.1,0c7.4,0,13.3-3,17.5-9.1c2.1-3.1,3.1-6.7,3.2-10.5C225.3,97.3,225.3,97.2,225.3,97z"/>
</g>
<g>
	<path class="st19" d="M225.3,97c-1.1,0-2.2,0-3.3,0c-9.8,0-19.6,0-29.3,0c-0.7,0-0.9-0.1-0.8-0.8c0.1-1.7,0-3.4,0-5.2
		c0-0.6,0.1-0.8,0.7-0.8c7.4,0,14.8,0,22.3,0c2.9,0,5.7,0,8.6,0c0.2,0,0.4,0,0.7,0c-0.2-0.5-0.3-0.9-0.5-1.3
		c-3.7-7.6-9.7-11.7-18.1-12c-4.3-0.1-8.5,0-12.8,0c-0.6,0-0.8-0.2-0.8-0.8c0-1.8,0-3.5,0-5.3c0-0.5,0.2-0.7,0.7-0.7
		c9.1,0,18.2,0,27.4,0c8.2,0,16.5,0,24.7,0c0.9,0,0.9,0,0.9,0.8c0,1.7,0,3.4,0,5.2c0,0.6-0.2,0.7-0.7,0.7c-7,0-13.9,0-20.9,0
		c-0.3,0-0.5,0-0.9,0c0.2,0.2,0.3,0.3,0.4,0.4c3.7,3.4,6.3,7.6,7.7,12.5c0.1,0.5,0.4,0.5,0.8,0.5c4.3,0,8.6,0,12.9,0
		c0.7,0,0.8,0.2,0.8,0.9c0,1.7,0,3.5,0,5.2c0,0.5-0.2,0.7-0.7,0.7c-4,0-7.9,0-11.9,0c-0.3,0-0.5,0-0.8,0c-0.2,8.3-3.4,15.1-9.6,20.5
		c-6.3,5.4-13.7,6.9-21.8,6.2c0,0.1,0,0.2,0,0.3c12,11,23.9,22.1,36,33.2c-0.3,0-0.5,0.1-0.7,0.1c-2.9,0-5.7,0-8.6,0
		c-0.4,0-0.8-0.2-1.1-0.5c-9.8-9.1-19.6-18.1-29.5-27.2c-1.5-1.4-3-2.8-4.5-4.2c-0.3-0.3-0.5-0.6-0.5-1.1c0-2.2,0-4.4,0-6.6
		c0-0.5,0.2-0.7,0.7-0.7c4,0,8.1,0,12.1,0c7.4,0,13.3-3,17.5-9.1c2.1-3.1,3.1-6.7,3.2-10.5C225.3,97.3,225.3,97.2,225.3,97z"/>
</g>
</svg>
