<?xml version="1.0" encoding="utf-8"?>
<!-- Generator: Adobe Illustrator 23.0.1, SVG Export Plug-In . SVG Version: 6.00 Build 0)  -->
<!DOCTYPE svg PUBLIC "-//W3C//DTD SVG 1.1//EN" "http://www.w3.org/Graphics/SVG/1.1/DTD/svg11.dtd" [
	<!ENTITY ns_extend "http://ns.adobe.com/Extensibility/1.0/">
	<!ENTITY ns_ai "http://ns.adobe.com/AdobeIllustrator/10.0/">
	<!ENTITY ns_graphs "http://ns.adobe.com/Graphs/1.0/">
	<!ENTITY ns_vars "http://ns.adobe.com/Variables/1.0/">
	<!ENTITY ns_imrep "http://ns.adobe.com/ImageReplacement/1.0/">
	<!ENTITY ns_sfw "http://ns.adobe.com/SaveForWeb/1.0/">
	<!ENTITY ns_custom "http://ns.adobe.com/GenericCustomNamespace/1.0/">
	<!ENTITY ns_adobe_xpath "http://ns.adobe.com/XPath/1.0/">
]>
<svg version="1.1" id="Isolation_Mode" xmlns:x="&ns_extend;" xmlns:i="&ns_ai;" xmlns:graph="&ns_graphs;"
	 xmlns="http://www.w3.org/2000/svg" xmlns:xlink="http://www.w3.org/1999/xlink" x="0px" y="0px" width="702px" height="372.45px"
	 viewBox="0 0 702 372.45" style="enable-background:new 0 0 702 372.45;" xml:space="preserve">
<style type="text/css">
	.st0{opacity:0.47;fill:url(#SVGID_1_);enable-background:new    ;}
	.st1{opacity:0.29;fill:#72BFC1;enable-background:new    ;}
	.st2{fill:url(#SVGID_2_);}
	.st3{opacity:0.47;}
	.st4{fill:#719191;}
	.st5{fill:#819897;}
	.st6{fill:#4E69FF;}
	.st7{fill:#17014C;}
	.st8{fill:#FFB54A;}
	.st9{opacity:0.62;fill:#72BFC1;enable-background:new    ;}
	.st10{fill:#FFFFFF;}
	.st11{fill:#FCF0E3;}
	.st12{fill:#72BFC1;}
	.st13{fill:#47ACB2;}
	.st14{fill:url(#SVGID_3_);}
	.st15{fill:#FEC29E;}
	.st16{fill:none;}
	.st17{opacity:0.17;fill:#FF887C;enable-background:new    ;}
	.st18{fill:#FB8E77;}
	.st19{fill:#53537C;}
	.st20{fill:none;stroke:#FB8E77;stroke-linecap:round;stroke-miterlimit:10;}
	.st21{opacity:0.05;fill:#1B1B25;enable-background:new    ;}
	.st22{opacity:0.18;fill:#FF887C;enable-background:new    ;}
	.st23{fill:#1B1B25;}
	.st24{opacity:0.35;fill:#1B1B25;enable-background:new    ;}
	.st25{opacity:0.32;fill:#FF887C;enable-background:new    ;}
	.st26{opacity:0.08;fill:#FF887C;enable-background:new    ;}
	.st27{fill:url(#SVGID_4_);}
	.st28{fill:url(#SVGID_5_);}
	.st29{display:none;fill:url(#SVGID_6_);}
	.st30{display:none;fill:url(#SVGID_7_);}
	.st31{fill:url(#SVGID_8_);}
	.st32{fill:url(#SVGID_9_);}
	.st33{fill:#FEAD3A;}
	.st34{fill:url(#SVGID_10_);}
	.st35{fill:url(#SVGID_11_);}
	.st36{fill:url(#SVGID_12_);}
	.st37{display:none;fill:url(#SVGID_13_);}
	.st38{display:none;fill:url(#SVGID_14_);}
	.st39{fill:url(#SVGID_15_);}
	.st40{fill:url(#SVGID_16_);}
	.st41{fill:url(#SVGID_17_);}
</style>
<metadata>
	<sfw  xmlns="&ns_sfw;">
		<slices></slices>
		<sliceSourceBounds  bottomLeftOrigin="true" height="357.247" width="685.551" x="8.899" y="15.202"></sliceSourceBounds>
	</sfw>
</metadata>
<g>
	<g>
		<g>
			
				<linearGradient id="SVGID_1_" gradientUnits="userSpaceOnUse" x1="64.9592" y1="187.9217" x2="620.3622" y2="187.9217" gradientTransform="matrix(1 0 0 -1 0 374)">
				<stop  offset="0" style="stop-color:#AFDBD7"/>
				<stop  offset="0.1349" style="stop-color:#9FD4D1"/>
				<stop  offset="0.3997" style="stop-color:#74C0C2"/>
				<stop  offset="0.7651" style="stop-color:#30A1AA"/>
				<stop  offset="1" style="stop-color:#018C99"/>
			</linearGradient>
			<path class="st0" d="M619.73,167.8c-2.72-27.03-15.8-54.1-38.45-73.45c-35.3-30.15-88.7-37.75-135.5-30.78
				c-19.6,2.92-39.04,8.09-59.11,6.46c-29.27-2.37-55.06-18.65-81.71-30.57c-36.28-16.24-77.87-24.98-116.44-17.91
				c-43.73,8.01-79.59,38.27-83.87,78.42c-1.94,18.19,17.76,50.24,11.54,67.48c-6.31,17.49-52.35,71.05-51.21,111.79
				c1.13,40.59,11.73,53.21,26.72,73.84h11.98h451.35H581c9.33-20.9,16.64-37.62,5.72-65.07c-8.73-21.93,14.98-39.99,24.16-60.41
				C619.04,209.44,621.73,187.6,619.73,167.8z"/>
		</g>
		<path class="st1" d="M12.97,171.88c-9.33-18.27-2.08-40.64,16.19-49.97s53.33-8.56,62.66,9.71s-18.79,33.87-30.28,50.86
			C45.51,206.18,22.29,190.15,12.97,171.88z"/>
		<path class="st1" d="M654.39,242.59c8.94,9.68,9.66,23.55,1.62,30.96c-8.04,7.42-27.38,10.73-36.32,1.05
			c-8.94-9.68,3.18-21.83,5.9-33C629.39,226.02,645.46,232.9,654.39,242.59z"/>
		<path class="st1" d="M579.17,24.68c10.37-5.47,23.21-1.5,28.68,8.86c5.47,10.37,5.31,30.41-5.06,35.88s-19.5-10.47-29.3-16.91
			C559.82,43.54,568.8,30.15,579.17,24.68z"/>
	</g>
	<g>
		
			<linearGradient id="SVGID_2_" gradientUnits="userSpaceOnUse" x1="111.7363" y1="165.4611" x2="573.5923" y2="165.4611" gradientTransform="matrix(1 0 0 -1 0 374)">
			<stop  offset="0" style="stop-color:#018C99"/>
			<stop  offset="0.2349" style="stop-color:#30A1AA"/>
			<stop  offset="0.6003" style="stop-color:#74C0C2"/>
			<stop  offset="0.8651" style="stop-color:#9FD4D1"/>
			<stop  offset="1" style="stop-color:#AFDBD7"/>
		</linearGradient>
		<path class="st2" d="M565.76,329.17c4.77-23.71-2.88-43.93-4.78-67.17c-1.8-22.01,6.01-40.51,10.35-61.47
			c3.86-18.65,2.57-39.78-2.27-58.11c-6.61-25.03-21.85-48.21-43.79-62.34c-34.19-22.02-79.8-19.42-117.57-4.28
			c-15.82,6.34-31.14,14.78-48.09,16.92c-24.71,3.11-48.76-7.54-72.84-13.93c-32.77-8.7-68.74-9.34-99.66,4.39
			c-35.06,15.57-59.98,50.71-57.07,89.41c1.32,17.54,8.07,34.84,5.68,52.26c-2.42,17.67-12.92,32.45-18.48,49.09
			c-7.58,22.71-8.27,56.09,3.92,79.14h436.39C561.31,345.55,564.08,337.48,565.76,329.17z"/>
	</g>
	<g>
		<g>
			<g class="st3">
				<path class="st4" d="M484.61,254.9c-1.39-14.32-8.09-28.67-19.7-38.92c-18.09-15.97-45.44-20-69.42-16.31
					c-10.04,1.55-20,4.29-30.29,3.42c-15-1.26-28.21-9.88-41.86-16.2c-18.59-8.6-39.89-13.23-59.66-9.49
					c-22.41,4.24-40.78,20.28-42.97,41.55c-0.99,9.64,9.1,26.62,5.91,35.76c-3.23,9.27-26.82,37.65-26.24,59.23
					c0.58,21.51,6.01,28.2,13.69,39.13h6.14h231.24h13.31c4.78-11.08,8.53-19.93,2.93-34.48c-4.47-11.62,7.68-21.19,12.38-32.01
					C484.25,276.97,485.63,265.39,484.61,254.9z"/>
			</g>
		</g>
	</g>
</g>
<path class="st5" d="M688.38,356.22H38.25c-0.87,0-1.58-0.71-1.58-1.58l0,0c0-0.87,0.71-1.58,1.58-1.58h650.13
	c0.87,0,1.58,0.71,1.58,1.58l0,0C689.96,355.51,689.25,356.22,688.38,356.22z"/>
<circle class="st1" cx="663.58" cy="206.58" r="4.5"/>
<circle class="st6" cx="631.58" cy="331.58" r="3.5"/>
<circle class="st1" cx="88.58" cy="50.58" r="4.5"/>
<path class="st7" d="M46.22,318.51c0,2.64-2.14,4.78-4.78,4.78s-4.78-2.14-4.78-4.78c0-2.64,2.14-4.78,4.78-4.78
	S46.22,315.87,46.22,318.51z"/>
<circle class="st7" cx="59.58" cy="72.58" r="1.5"/>
<path class="st1" d="M443.08,14.53c-1.39,6.49-7.77,10.63-14.26,9.24c-6.49-1.39-10.63-7.77-9.24-14.26s7.77-10.63,14.26-9.24
	C440.33,1.65,444.47,8.04,443.08,14.53z"/>
<path class="st8" d="M632.58,32.53c-0.42,1.97-2.36,3.23-4.33,2.81c-1.97-0.42-3.23-2.36-2.81-4.33s2.36-3.23,4.33-2.81
	C631.75,28.62,633,30.56,632.58,32.53z"/>
<path class="st8" d="M162.72,9.31c-0.42,1.97-2.36,3.23-4.33,2.81s-3.23-2.36-2.81-4.33s2.36-3.23,4.33-2.81
	C161.88,5.4,163.14,7.34,162.72,9.31z"/>
<path class="st1" d="M662.65,114.67c-0.42,1.97-2.36,3.23-4.33,2.81c-1.97-0.42-3.23-2.36-2.81-4.33s2.36-3.23,4.33-2.81
	C661.81,110.76,663.07,112.7,662.65,114.67z"/>
<path class="st9" d="M399.99,25.96c-0.33,1.55-1.85,2.53-3.4,2.2s-2.53-1.85-2.2-3.4s1.85-2.53,3.4-2.2
	C399.34,22.9,400.32,24.42,399.99,25.96z"/>
<g>
	<path class="st10" d="M258.67,95.91L258.67,95.91c0-6.24-5.06-11.29-11.29-11.29l0,0c6.24,0,11.29-5.06,11.29-11.29l0,0
		c0,6.24,5.06,11.29,11.29,11.29l0,0C263.73,84.61,258.67,89.67,258.67,95.91z"/>
	<path class="st10" d="M391.33,152.68L391.33,152.68c0-4.58-3.71-8.29-8.29-8.29l0,0c4.58,0,8.29-3.71,8.29-8.29l0,0
		c0,4.58,3.71,8.29,8.29,8.29l0,0C395.05,144.39,391.33,148.1,391.33,152.68z"/>
	<path class="st10" d="M337.13,192.62L337.13,192.62c0-8.42-6.83-15.25-15.25-15.25l0,0c8.42,0,15.25-6.83,15.25-15.25l0,0
		c0,8.42,6.83,15.25,15.25,15.25l0,0C343.95,177.37,337.13,184.2,337.13,192.62z"/>
	<path class="st11" d="M389.77,74.96L389.77,74.96c0-7.89-6.4-14.29-14.29-14.29l0,0c7.89,0,14.29-6.4,14.29-14.29l0,0
		c0,7.89,6.4,14.29,14.29,14.29l0,0C396.17,60.67,389.77,67.07,389.77,74.96z"/>
	<path class="st10" d="M437.54,84.61L437.54,84.61c0-4.35-3.53-7.88-7.88-7.88l0,0c4.35,0,7.88-3.53,7.88-7.88l0,0
		c0,4.35,3.53,7.88,7.88,7.88l0,0C441.07,76.73,437.54,80.26,437.54,84.61z"/>
</g>
<g>
	<path class="st12" d="M195.99,58.31h-87.8c-9.03,0-16.35,7.32-16.35,16.35s7.32,16.35,16.35,16.35h72.36l9.95,9.07v-9.07h5.49
		c9.03,0,16.35-7.32,16.35-16.35C212.34,65.63,205.02,58.31,195.99,58.31z"/>
	<path class="st8" d="M116.11,72.41c1.14-0.95,1.87-2.38,1.87-3.99c0-2.86-2.32-5.18-5.18-5.18s-5.18,2.32-5.18,5.18
		c0,1.6,0.73,3.04,1.87,3.99c-3.68,1.35-6.3,4.87-6.3,9.02c0,5.31,19.23,5.31,19.23,0C122.42,77.28,119.79,73.76,116.11,72.41z"/>
	<g>
		<path class="st10" d="M197.09,67.1h-62.91c-0.28,0-0.5-0.22-0.5-0.5s0.22-0.5,0.5-0.5h62.91c0.28,0,0.5,0.22,0.5,0.5
			S197.37,67.1,197.09,67.1z"/>
		<path class="st10" d="M187.33,81.86h-53.15c-0.28,0-0.5-0.22-0.5-0.5s0.22-0.5,0.5-0.5h53.15c0.28,0,0.5,0.22,0.5,0.5
			C187.83,81.64,187.61,81.86,187.33,81.86z"/>
		<path class="st10" d="M172.86,74.95h-38.68c-0.28,0-0.5-0.22-0.5-0.5s0.22-0.5,0.5-0.5h38.68c0.28,0,0.5,0.22,0.5,0.5
			C173.36,74.73,173.13,74.95,172.86,74.95z"/>
		<path class="st10" d="M197.09,74.95h-19.41c-0.28,0-0.5-0.22-0.5-0.5s0.22-0.5,0.5-0.5h19.41c0.28,0,0.5,0.22,0.5,0.5
			C197.59,74.73,197.37,74.95,197.09,74.95z"/>
	</g>
	<path class="st10" d="M119.02,79.93c-0.38,0-0.77-0.15-1.06-0.44l-3.77-3.77c-0.59-0.59-0.59-1.54,0-2.12
		c0.59-0.59,1.54-0.59,2.12,0l2.71,2.71l7.27-7.27c0.59-0.59,1.54-0.59,2.12,0c0.59,0.59,0.59,1.54,0,2.12l-8.33,8.33
		C119.79,79.79,119.41,79.93,119.02,79.93z"/>
	<g>
		<path class="st8" d="M587.59,143.46h90.08c9.26,0,16.78,7.51,16.78,16.78c0,9.26-7.51,16.78-16.78,16.78h-74.24l-10.21,9.31v-9.31
			h-5.63c-9.26,0-16.78-7.51-16.78-16.78S578.32,143.46,587.59,143.46z"/>
		<g>
			<g>
				<g>
					<g>
						<path class="st13" d="M675.65,157.77c1.14-0.95,1.87-2.38,1.87-3.99c0-2.86-2.32-5.18-5.18-5.18s-5.18,2.32-5.18,5.18
							c0,1.6,0.73,3.04,1.87,3.99c-3.68,1.35-6.3,4.87-6.3,9.02c0,5.31,19.23,5.31,19.23,0
							C681.95,162.64,679.33,159.12,675.65,157.77z"/>
					</g>
					<g>
						<path class="st10" d="M683.54,160.66h-2.48v-2.48c0-0.27-0.22-0.49-0.49-0.49h-2.27c-0.27,0-0.49,0.22-0.49,0.49v2.48h-2.48
							c-0.27,0-0.49,0.22-0.49,0.49v2.27c0,0.27,0.22,0.49,0.49,0.49h2.48v2.48c0,0.27,0.22,0.49,0.49,0.49h2.27
							c0.27,0,0.49-0.22,0.49-0.49v-2.48h2.48c0.27,0,0.49-0.22,0.49-0.49v-2.27C684.03,160.88,683.81,160.66,683.54,160.66z"/>
					</g>
				</g>
			</g>
		</g>
		<g>
			<path class="st10" d="M654.86,153.47h-62.91c-0.28,0-0.5-0.22-0.5-0.5s0.22-0.5,0.5-0.5h62.91c0.28,0,0.5,0.22,0.5,0.5
				S655.14,153.47,654.86,153.47z"/>
			<path class="st10" d="M645.1,168.23h-53.15c-0.28,0-0.5-0.22-0.5-0.5s0.22-0.5,0.5-0.5h53.15c0.28,0,0.5,0.22,0.5,0.5
				C645.6,168,645.38,168.23,645.1,168.23z"/>
			<path class="st10" d="M630.63,161.31h-38.68c-0.28,0-0.5-0.22-0.5-0.5s0.22-0.5,0.5-0.5h38.68c0.28,0,0.5,0.22,0.5,0.5
				S630.9,161.31,630.63,161.31z"/>
			<path class="st10" d="M654.86,161.31h-19.41c-0.28,0-0.5-0.22-0.5-0.5s0.22-0.5,0.5-0.5h19.41c0.28,0,0.5,0.22,0.5,0.5
				S655.14,161.31,654.86,161.31z"/>
		</g>
	</g>
	<g>
		
			<linearGradient id="SVGID_3_" gradientUnits="userSpaceOnUse" x1="462.78" y1="315.68" x2="547.96" y2="315.68" gradientTransform="matrix(1 0 0 -1 0 374)">
			<stop  offset="0" style="stop-color:#018C99"/>
			<stop  offset="0.2349" style="stop-color:#30A1AA"/>
			<stop  offset="0.6003" style="stop-color:#74C0C2"/>
			<stop  offset="0.8651" style="stop-color:#9FD4D1"/>
			<stop  offset="1" style="stop-color:#AFDBD7"/>
		</linearGradient>
		<path class="st14" d="M474.35,46.76h62.05c6.38,0,11.56,5.17,11.56,11.56c0,6.38-5.17,11.56-11.56,11.56h-58.18h-3.88
			c-6.38,0-11.56-5.17-11.56-11.56C462.8,51.93,467.97,46.76,474.35,46.76z"/>
		<g>
			<path class="st10" d="M529.4,54.51h-48.11c-0.28,0-0.5-0.22-0.5-0.5s0.22-0.5,0.5-0.5h48.11c0.28,0,0.5,0.22,0.5,0.5
				C529.9,54.29,529.68,54.51,529.4,54.51z"/>
			<path class="st10" d="M521.94,63.25h-40.65c-0.28,0-0.5-0.22-0.5-0.5s0.22-0.5,0.5-0.5h40.65c0.28,0,0.5,0.22,0.5,0.5
				S522.22,63.25,521.94,63.25z"/>
			<path class="st10" d="M510.87,59.16h-29.58c-0.28,0-0.5-0.22-0.5-0.5s0.22-0.5,0.5-0.5h29.58c0.28,0,0.5,0.22,0.5,0.5
				S511.15,59.16,510.87,59.16z"/>
			<path class="st10" d="M529.4,59.16h-14.84c-0.28,0-0.5-0.22-0.5-0.5s0.22-0.5,0.5-0.5h14.84c0.28,0,0.5,0.22,0.5,0.5
				S529.68,59.16,529.4,59.16z"/>
		</g>
	</g>
	<g>
		<path class="st8" d="M53.78,210.59h55.18c5.67,0,10.28,4.6,10.28,10.28s-4.6,10.28-10.28,10.28H57.22h-3.45
			c-5.67,0-10.28-4.6-10.28-10.28C43.5,215.19,48.1,210.59,53.78,210.59z"/>
		<g>
			<path class="st10" d="M102.72,217.54H59.94c-0.28,0-0.5-0.22-0.5-0.5s0.22-0.5,0.5-0.5h42.78c0.28,0,0.5,0.22,0.5,0.5
				C103.22,217.31,103,217.54,102.72,217.54z"/>
			<path class="st10" d="M96.09,225.31H59.94c-0.28,0-0.5-0.22-0.5-0.5s0.22-0.5,0.5-0.5h36.14c0.28,0,0.5,0.22,0.5,0.5
				C96.59,225.09,96.36,225.31,96.09,225.31z"/>
			<path class="st10" d="M86.24,221.67h-26.3c-0.28,0-0.5-0.22-0.5-0.5s0.22-0.5,0.5-0.5h26.3c0.28,0,0.5,0.22,0.5,0.5
				S86.52,221.67,86.24,221.67z"/>
			<path class="st10" d="M102.72,221.67h-13.2c-0.28,0-0.5-0.22-0.5-0.5s0.22-0.5,0.5-0.5h13.2c0.28,0,0.5,0.22,0.5,0.5
				S103,221.67,102.72,221.67z"/>
		</g>
	</g>
</g>
<g>
	<g>
		<path class="st10" d="M461.59,266.15h-98.04c-0.28,0-0.5-0.22-0.5-0.5s0.22-0.5,0.5-0.5h98.04c0.28,0,0.5,0.22,0.5,0.5
			S461.87,266.15,461.59,266.15z"/>
		<path class="st10" d="M461.59,289.15h-82.83c-0.28,0-0.5-0.22-0.5-0.5s0.22-0.5,0.5-0.5h82.83c0.28,0,0.5,0.22,0.5,0.5
			S461.87,289.15,461.59,289.15z"/>
		<path class="st10" d="M461.59,278.38h-60.27c-0.28,0-0.5-0.22-0.5-0.5s0.22-0.5,0.5-0.5h60.27c0.28,0,0.5,0.22,0.5,0.5
			S461.87,278.38,461.59,278.38z"/>
		<path class="st10" d="M393.81,278.38h-30.25c-0.28,0-0.5-0.22-0.5-0.5s0.22-0.5,0.5-0.5h30.25c0.28,0,0.5,0.22,0.5,0.5
			S394.08,278.38,393.81,278.38z"/>
	</g>
	<g>
		<path class="st10" d="M350.72,302.64h-98.04c-0.28,0-0.5-0.22-0.5-0.5s0.22-0.5,0.5-0.5h98.04c0.28,0,0.5,0.22,0.5,0.5
			S350.99,302.64,350.72,302.64z"/>
		<path class="st10" d="M335.51,325.64h-82.83c-0.28,0-0.5-0.22-0.5-0.5s0.22-0.5,0.5-0.5h82.83c0.28,0,0.5,0.22,0.5,0.5
			S335.78,325.64,335.51,325.64z"/>
		<path class="st10" d="M312.95,314.87h-60.27c-0.28,0-0.5-0.22-0.5-0.5s0.22-0.5,0.5-0.5h60.27c0.28,0,0.5,0.22,0.5,0.5
			S313.23,314.87,312.95,314.87z"/>
		<path class="st10" d="M350.72,314.87h-30.25c-0.28,0-0.5-0.22-0.5-0.5s0.22-0.5,0.5-0.5h30.25c0.28,0,0.5,0.22,0.5,0.5
			S350.99,314.87,350.72,314.87z"/>
	</g>
</g>
<g>
	<g>
		<g>
			<g>
				<g>
					<path class="st15" d="M424.63,209.73l0.03-0.11l14.48-50.37l-0.06-0.05c0.65-1.27,2.34-4.01,5.79-6.42
						c5.97-4.16,6.68-11.06,6.68-11.06c3.19-3.08,6.78-5.72,10.03-8.73c0.34-0.31,0.69-0.66,0.79-1.11c0.11-0.5-0.12-1.02-0.41-1.45
						c-1.68-2.49-4.77-2.85-7.33-1.7c-1.5,0.67-2.85,1.63-4.11,2.68c-0.6,0.5-2.64,1.87-3.26,2.79l11.52-24.59
						c1.02-2.18,0.35-4.68-1.49-5.54l0,0c-0.92-0.43-1.97-0.38-2.91,0.06c-0.6,0.28-1.14,0.72-1.6,1.28
						c0.04-0.18,0.06-0.29,0.06-0.29c-13.49-11.34-30.13,27.26-30.13,27.26l-4.72,11.15l-40.06,74.28
						c-5.66,10.78-1.3,24.1,9.65,29.44l0,0c0.16,0.08,0.32,0.14,0.48,0.22c3.21,1.85,6.94,2.92,10.91,2.92h78.84l16.99-40.38
						L424.63,209.73z M447.09,134.58L447.09,134.58L447.09,134.58L447.09,134.58z"/>
					<g>
						<path class="st16" d="M422.37,217.6l-2.02,7.02C421.08,222.19,421.77,219.81,422.37,217.6z"/>
						<path class="st17" d="M411.13,250.37C408.56,250.29,410.12,250.34,411.13,250.37L411.13,250.37z"/>
						<path class="st17" d="M411.14,250.37c0.36,0.01,0.65,0.02,0.65,0.02C411.54,250.38,411.34,250.38,411.14,250.37z"/>
						<path class="st17" d="M424.66,209.62l-2.29,7.98c-0.6,2.21-1.28,4.59-2.02,7.02l-2.77,9.64c-0.38,1.24-0.87,2.41-1.44,3.52
							c-2.39,7.14-4.35,12.61-4.35,12.61l28.35-40.6C433.09,209.79,431.47,209.62,424.66,209.62z"/>
					</g>
					<path class="st18" d="M436.08,136.72c-0.1,0-0.21-0.03-0.3-0.1c-0.22-0.16-0.27-0.48-0.11-0.7c5.03-6.82,11.8-3.14,11.86-3.1
						c0.24,0.14,0.33,0.44,0.19,0.68c-0.13,0.24-0.44,0.33-0.68,0.19c-0.25-0.14-6.07-3.28-10.57,2.82
						C436.38,136.65,436.23,136.72,436.08,136.72z"/>
					<path class="st18" d="M453.07,105.32c-2.08,2.62-4.01,5.37-5.73,8.24c-0.85,1.43-1.63,2.91-2.27,4.43
						c-0.64,1.51-1.15,3.13-1.07,4.65v0.03c0.01,0.28-0.2,0.51-0.47,0.53s-0.51-0.2-0.53-0.47v-0.01c-0.05-1.86,0.56-3.52,1.24-5.08
						c0.7-1.56,1.52-3.05,2.42-4.49c1.8-2.87,3.79-5.6,5.95-8.21c0.1-0.13,0.29-0.14,0.42-0.04
						C453.15,105,453.17,105.19,453.07,105.32L453.07,105.32z"/>
					<path class="st18" d="M449.59,103.89c-1.32,0.91-2.5,2.11-3.56,3.36c-1.06,1.26-1.99,2.63-2.83,4.05
						c-0.82,1.43-1.55,2.92-2.16,4.45c-0.33,0.76-0.57,1.55-0.86,2.32l-0.72,2.37l-0.01,0.03c-0.08,0.26-0.36,0.41-0.62,0.33
						s-0.41-0.36-0.33-0.62v-0.01l0.78-2.41c0.31-0.79,0.58-1.59,0.93-2.36c0.66-1.56,1.43-3.07,2.3-4.52
						c0.89-1.44,1.87-2.83,2.98-4.11c1.13-1.27,2.33-2.46,3.78-3.43c0.14-0.09,0.34-0.06,0.43,0.09c0.09,0.14,0.06,0.33-0.08,0.43
						L449.59,103.89z"/>
					<path class="st18" d="M444.14,104.28c-1.91,2-3.7,4.17-5.24,6.47c-0.76,1.16-1.49,2.34-2.06,3.58
						c-0.58,1.24-1.05,2.53-1.26,3.84v0.01c-0.04,0.27-0.3,0.46-0.57,0.42c-0.27-0.04-0.46-0.3-0.42-0.57v-0.01
						c0.27-1.45,0.81-2.8,1.45-4.08c0.63-1.28,1.41-2.47,2.22-3.64c1.63-2.31,3.48-4.44,5.48-6.44c0.11-0.11,0.3-0.11,0.41,0
						C444.25,103.97,444.26,104.15,444.14,104.28L444.14,104.28z"/>
				</g>
				<g>
					<path class="st19" d="M606.59,283.07l-19.34-52.72c-2.3-11.57-13.31-20.34-26.55-20.34l-54.02-0.43l-60.86,0.23v40.57h18.89
						l-9.75,105.83l134.02,0.76l-0.75-71.66L606.59,283.07z"/>
				</g>
				<path class="st21" d="M506.58,210.04l0.11-0.45l-60.86,0.23v40.57h18.89l0.1-1.07C464.81,227.91,483.42,210.5,506.58,210.04z"/>
				<path class="st22" d="M429.66,151.32c0,0,3.42,29.01,3.62,28.32c0.2-0.7,5.86-20.39,5.86-20.39L429.66,151.32z"/>
			</g>
		</g>
	</g>
	<g>
		<g>
			<path class="st23" d="M509.44,298.21l-5.11-25.78l-3.95-19.89c-0.46-2.34-2.76-3.87-5.1-3.41l-19.76,3.92
				c-2.34,0.46-3.87,2.76-3.41,5.1l3.97,20.02l3.15,15.88l1.94,9.77c0.46,2.34,2.76,3.87,5.1,3.41l11.67-2.32l8.09-1.6
				C508.37,302.85,509.9,300.55,509.44,298.21z"/>
		</g>
		<g>
			<path class="st15" d="M614.6,321.97l-8.91-38.79l-40.5,4.96l2.22,9.87l-0.21-0.05l-44.03-10.9l-0.04,0.05
				c-1.21-0.61-3.5-2.06-5.51-5.06c-3.69-5.52-9.89-5.67-9.89-5.67c-1.19-1.25-2.31-2.59-3.41-3.94l1.03,5.2l-0.26,0.14
				c-2.8,1.48-5.96,2.14-9.12,1.89c-5.84-0.46-15.39-1.2-19.36-1.51c-1.21-0.09-2.37,0.55-2.9,1.65
				c-5.67,11.91,18.66,22.81,24.22,25.11l0,0c0.07,0.03,0.13,0.05,0.2,0.08c0.08,0.03,0.16,0.06,0.23,0.09
				c0.08,0.03,0.14,0.06,0.21,0.09c0.06,0.03,0.13,0.05,0.18,0.07c0.07,0.03,0.12,0.05,0.17,0.07c0.02,0.01,0.05,0.02,0.06,0.03
				c0.05,0.02,0.08,0.03,0.08,0.03l9.52,3.57l75.38,37.11c0.7,0.34,1.41,0.63,2.12,0.88c3.66,1.67,7.86,2.22,12.08,1.25l0,0
				C609.95,345.47,617.3,333.74,614.6,321.97z"/>
			<path class="st17" d="M611.72,309.46l-46.54-21.33c1.55,6.77,0.65,3.78,2.02,9.82l3.17,0.78
				C583.77,299.64,611.72,309.46,611.72,309.46z"/>
		</g>
		<path class="st24" d="M561.42,288.63c-0.23,0-0.44-0.16-0.49-0.4l-5.82-28.17c-0.06-0.27,0.12-0.54,0.39-0.59
			c0.26-0.06,0.54,0.12,0.59,0.39l5.72,27.71l19.59-2.49c0.27-0.04,0.52,0.16,0.56,0.43s-0.16,0.52-0.43,0.56l-20.04,2.55
			C561.46,288.63,561.44,288.63,561.42,288.63z"/>
	</g>
	<g>
		<path class="st17" d="M612.04,311.07c0.04,0.19,0.07,0.34,0.08,0.4C612.11,311.43,612.09,311.3,612.04,311.07z"/>
		<path class="st17" d="M612.12,311.47C612.12,311.49,612.13,311.49,612.12,311.47L612.12,311.47z"/>
		<path class="st17" d="M611.72,309.46c0,0,0.11,0.54,0.21,1.07C611.88,310.25,611.81,309.91,611.72,309.46z"/>
		<path class="st17" d="M611.93,310.53c0.04,0.22,0.08,0.4,0.11,0.53C612.01,310.91,611.97,310.72,611.93,310.53z"/>
	</g>
	<g>
		<g>
			<path class="st23" d="M556.84,105.57c-1.23-8.49-8.98-14.53-17.57-13.56c-2.28,0.26-4.39,0.99-6.25,2.08
				c-2.76-4.52-7.97-7.29-13.58-6.66c-3.21,0.36-6.03,1.79-8.18,3.87c-3.1-1.55-6.66-2.27-10.36-1.85
				c-10.17,1.15-17.48,10.33-16.33,20.49c0.54,4.76,2.84,8.88,6.17,11.81l-3.77,20.12c-1.08,5.78,2.72,11.33,8.5,12.41l44.62,8.35
				c5.78,1.08,11.33-2.72,12.41-8.5l7.31-39.05C560.49,111.49,559.26,107.97,556.84,105.57z"/>
			<g>
				<path class="st11" d="M491.8,116.58c-0.17,0-0.33-0.08-0.42-0.23c-7.97-12.61,3.01-20.7,3.12-20.78
					c0.22-0.16,0.54-0.11,0.7,0.11s0.11,0.54-0.11,0.7c-0.42,0.31-10.32,7.63-2.86,19.44c0.15,0.23,0.08,0.54-0.16,0.69
					C491.98,116.55,491.89,116.58,491.8,116.58z"/>
			</g>
		</g>
		<g>
			<g>
				<path class="st15" d="M549.62,145.01l-0.98-0.18l-9.85-21.17c-2.42-0.35-4.7-1.24-6.66-2.58c-1.89,2.05-4.49,3.46-7.47,3.79
					c-3.59,0.41-6.99-0.82-9.46-3.08c-2.75,2.41-6.22,4.05-10.13,4.49c-4.47,0.51-8.75-0.63-12.23-2.91l-6.86,36.65
					c-0.95,5.06,0.09,10.03,2.54,14.13c2.44,6.03,7.68,10.77,14.43,12.32v24.21c0,8.41,6.88,15.29,15.29,15.29h4.82
					c8.41,0,15.29-6.88,15.29-15.29V183.2c2.48-2.72,4.27-6.13,5-10.02l1.25-6.69l0.98,0.18c5.79,1.08,11.42-2.77,12.5-8.56
					l0.11-0.59C559.26,151.72,555.41,146.1,549.62,145.01z"/>
			</g>
			<path class="st25" d="M542.32,165.63l-0.89,4.77c-2.06,11.01-12.66,18.27-23.68,16.21l-15.57-2.92
				c-5.95-1.11-10.79-4.73-13.67-9.55c2.54,6.28,8.11,11.18,15.26,12.52l0.62,0.12c2.47,5.13,7.72,8.7,13.76,8.7h4.88
				c7.21,0,13.29-5.07,14.87-11.82c2.71-2.8,4.65-6.38,5.42-10.49l1.25-6.69L542.32,165.63z"/>
		</g>
		<g>
			<path class="st18" d="M550.47,159.37c-0.11,0-0.22-0.03-0.31-0.1l-3.89-3.02c-0.12-0.09-0.19-0.23-0.19-0.37
				c-0.01-0.15,0.05-0.29,0.16-0.39l4.8-4.53c0.2-0.19,0.52-0.18,0.71,0.02s0.18,0.52-0.02,0.71l-4.37,4.13l3.43,2.66
				c0.22,0.17,0.26,0.48,0.09,0.7C550.77,159.3,550.62,159.37,550.47,159.37z"/>
			<g>
				<g>
					<g>
						<g>
							<path class="st23" d="M525.73,140.76c-0.75-0.02-1.52-0.48-2.3-0.87c-0.77-0.42-1.55-0.81-2.25-1.14
								c-0.69-0.32-1.5-0.67-2.32-0.99c-0.8-0.34-1.65-0.64-2.14-1.2c-0.48-0.53-0.38-1.36,0.73-1.92c1.06-0.55,3.23-0.69,5.53,0.38
								c2.29,1.07,3.56,2.81,3.79,3.97C527.05,140.19,526.45,140.79,525.73,140.76z"/>
						</g>
						<g>
							<path class="st23" d="M493.91,138.02c0.65,0.36,1.54,0.41,2.41,0.5c0.87,0.08,1.74,0.17,2.5,0.28s1.63,0.25,2.48,0.42
								c0.86,0.15,1.73,0.35,2.44,0.18c0.68-0.15,1.04-0.82,0.39-1.78c-0.61-0.94-2.38-2.11-4.89-2.47c-2.51-0.35-4.49,0.3-5.3,1.04
								C493.09,136.95,493.29,137.69,493.91,138.02z"/>
						</g>
					</g>
				</g>
				<path class="st23" d="M518.38,149.31l0.07,0.01c0.67,0.13,1.32-0.32,1.44-0.99l0.3-1.58c0.13-0.67-0.32-1.32-0.99-1.44
					l-0.07-0.01c-0.67-0.13-1.32,0.32-1.44,0.99l-0.3,1.58C517.26,148.54,517.71,149.19,518.38,149.31z"/>
				<path class="st23" d="M496.82,145.81l0.07,0.01c0.67,0.13,1.32-0.32,1.44-0.99l0.3-1.58c0.13-0.67-0.32-1.32-0.99-1.44
					l-0.07-0.01c-0.67-0.13-1.32,0.32-1.44,0.99l-0.3,1.58C495.71,145.03,496.15,145.68,496.82,145.81z"/>
				<path class="st17" d="M519.27,155.04l4.43,0.5c0.84,0.09,1.6-0.51,1.69-1.35l0.01-0.08c0.09-0.84-0.51-1.6-1.35-1.69l-4.43-0.5
					c-0.84-0.09-1.6,0.51-1.69,1.35l-0.01,0.08C517.82,154.19,518.43,154.95,519.27,155.04z"/>
				<path class="st17" d="M490.08,150.45l4.43,0.5c0.84,0.09,1.6-0.51,1.69-1.35l0.01-0.09c0.09-0.84-0.51-1.6-1.35-1.69l-4.43-0.5
					c-0.84-0.09-1.6,0.51-1.69,1.35l-0.01,0.08C488.64,149.59,489.24,150.35,490.08,150.45z"/>
				<path class="st18" d="M502.98,173.08c-0.15,0-0.31-0.07-0.4-0.21c-0.16-0.22-0.11-0.54,0.11-0.7c2.1-1.53,4.44-0.67,5.39-0.01
					c0.23,0.16,0.28,0.47,0.12,0.69c-0.16,0.23-0.47,0.28-0.7,0.12c-0.09-0.06-2.2-1.49-4.23-0.01
					C503.18,173.05,503.08,173.08,502.98,173.08z"/>
				<path class="st10" d="M506.36,158.87l11.69-1.67l-1.28,4.06c-0.82,2.6-3.23,4.37-5.96,4.37l0,0c-2.12,0-3.9-1.6-4.13-3.71
					L506.36,158.87z"/>
				<path class="st18" d="M509.38,154.72c-0.04,0-0.08-0.01-0.13-0.02l-3.63-0.94c-1.54-0.4-2.78-1.47-3.4-2.93
					c-0.63-1.46-0.54-3.1,0.23-4.48l5.52-9.94c0.14-0.24,0.44-0.33,0.68-0.19c0.24,0.13,0.33,0.44,0.19,0.68l-5.52,9.94
					c-0.62,1.12-0.69,2.43-0.18,3.61c0.5,1.17,1.5,2.03,2.74,2.35l3.63,0.94c0.27,0.07,0.43,0.34,0.36,0.61
					C509.81,154.58,509.6,154.72,509.38,154.72z"/>
			</g>
		</g>
	</g>
</g>
<g>
	<g>
		<g>
			<g>
				<path class="st15" d="M339.56,226.62l-40.06-74.28l-4.72-11.15c0,0-16.64-38.61-30.13-27.26c0,0,0.02,0.11,0.06,0.29
					c-0.46-0.56-1-1-1.6-1.28c-0.94-0.44-1.99-0.49-2.91-0.06l0,0c-1.84,0.86-2.51,3.35-1.49,5.54l11.52,24.59
					c-0.62-0.91-2.66-2.29-3.26-2.79c-1.26-1.05-2.6-2.01-4.11-2.68c-2.57-1.15-5.65-0.79-7.33,1.7c-0.29,0.43-0.52,0.94-0.41,1.45
					c0.1,0.45,0.45,0.8,0.79,1.11c3.25,3.01,6.85,5.65,10.03,8.73c0,0,0.71,6.9,6.68,11.06c3.45,2.41,5.14,5.14,5.79,6.42
					l-0.06,0.05l14.51,50.48l-21.19,0.28v40.38h46.87c3.98,0,7.71-1.07,10.92-2.93c0.15-0.07,0.31-0.14,0.46-0.21l0,0
					C340.86,250.72,345.23,237.4,339.56,226.62z"/>
				<path class="st17" d="M305.7,259.2C310.35,259.06,305.7,259.2,305.7,259.2s-10.89-29.3-12.76-40.78
					c-7.22,0-8.31,0.32-15.53,0.32L305.7,259.2z"/>
				<path class="st18" d="M281.41,145.53c-0.15,0-0.3-0.07-0.4-0.2c-4.5-6.1-10.32-2.96-10.57-2.82c-0.24,0.13-0.54,0.05-0.68-0.19
					c-0.13-0.24-0.05-0.54,0.19-0.68c0.07-0.04,6.83-3.72,11.86,3.1c0.16,0.22,0.12,0.54-0.11,0.7
					C281.62,145.5,281.51,145.53,281.41,145.53z"/>
				<path class="st18" d="M264.86,113.72c1.21,1.21,2.32,2.5,3.37,3.84c1.04,1.34,2.02,2.74,2.9,4.21c0.86,1.48,1.63,3.01,2.24,4.62
					c0.58,1.62,0.99,3.32,1.12,5.07c0.02,0.28-0.18,0.52-0.46,0.54c-0.28,0.02-0.52-0.18-0.54-0.46c0,0,0,0,0-0.01v-0.02
					c-0.1-1.63-0.45-3.24-0.97-4.81c-0.56-1.56-1.27-3.07-2.08-4.53c-0.83-1.45-1.76-2.84-2.76-4.19c-1.01-1.34-2.08-2.64-3.23-3.84
					l-0.01-0.01c-0.11-0.12-0.11-0.31,0.01-0.42C264.56,113.61,264.74,113.61,264.86,113.72z"/>
				<path class="st18" d="M268.24,111.8c1.63,0.84,2.83,2.1,3.94,3.42c1.1,1.33,2.05,2.78,2.87,4.28c0.85,1.5,1.55,3.06,2.22,4.64
					l0.91,2.4l0.81,2.44c0.09,0.26-0.06,0.54-0.32,0.63c-0.26,0.09-0.55-0.06-0.63-0.32c0,0,0,0,0-0.01l-0.01-0.02l-0.75-2.41
					l-0.85-2.38c-0.63-1.56-1.28-3.11-2.09-4.59c-0.77-1.49-1.68-2.91-2.72-4.22c-1.03-1.29-2.24-2.55-3.63-3.3l-0.05-0.03
					c-0.15-0.08-0.21-0.27-0.13-0.42C267.9,111.78,268.09,111.72,268.24,111.8z"/>
				<path class="st18" d="M273.73,112.65c1.12,0.91,2.12,1.91,3.05,2.98c0.94,1.07,1.8,2.2,2.57,3.39c0.78,1.19,1.48,2.43,2.06,3.74
					c0.61,1.29,1.06,2.65,1.48,4.02c0.08,0.26-0.07,0.54-0.33,0.62c-0.26,0.08-0.54-0.07-0.62-0.33v-0.01l-0.01-0.03
					c-0.36-1.32-0.76-2.65-1.33-3.91c-0.53-1.27-1.18-2.5-1.91-3.67c-0.72-1.18-1.53-2.31-2.42-3.37c-0.88-1.06-1.85-2.08-2.89-2.96
					l-0.01-0.01c-0.12-0.1-0.14-0.29-0.03-0.41C273.43,112.56,273.61,112.55,273.73,112.65z"/>
				<path class="st22" d="M276.54,165.2l15.48-1.91l-9.57,19.04C282.45,182.33,279.6,168.17,276.54,165.2z"/>
			</g>
			<g>
				<path class="st10" d="M214.33,218.82v0.02c-0.24-0.01-0.48-0.02-0.72-0.02H164.7c-10.62,0-19.68,6.67-23.23,16.04l0,0l-0.07,0.2
					c-0.01,0.03-0.02,0.06-0.04,0.1l-20.8,56.71l19.31,2.36v62.98h105.11l7.86-98.02h18.28v-40.57L214.33,218.82z"/>
				<path class="st21" d="M271.66,218.62l-55.84,0.23v0.01c20.94,0.87,37.64,18.11,37.64,39.26l-0.09,1.07h18.28v-40.57H271.66z"/>
			</g>
		</g>
	</g>
	<g>
		<path class="st23" d="M252.16,261.86l-19.76-3.92c-2.34-0.46-4.63,1.07-5.1,3.41l-3.95,19.89l-5.11,25.78
			c-0.46,2.34,1.07,4.63,3.41,5.1l8.09,1.6l11.67,2.32c2.34,0.46,4.63-1.07,5.1-3.41l1.94-9.77l3.15-15.88l3.97-20.02
			C256.03,264.62,254.5,262.33,252.16,261.86z"/>
		<g>
			<path class="st15" d="M254.23,288.41c-0.25-0.52-0.64-0.93-1.11-1.21c-0.08-0.12-0.15-0.25-0.24-0.37c0,0-0.18,0.02-0.47,0.06
				c-0.34-0.1-0.71-0.15-1.07-0.12c-3.97,0.31-13.52,1.05-19.36,1.51c-3.16,0.25-6.32-0.41-9.12-1.89l-0.47-0.25l0.97-4.89
				c-1.05,1.28-2.11,2.55-3.23,3.74c-0.57,0.03-3.83,0.32-6.88,2.59c-1.13,0.8-2.24,1.86-3.19,3.27c-1.19,1.78-2.48,3.01-3.58,3.84
				c-0.65,0.47-1.22,0.8-1.65,1.01l-0.04-0.05l-44.03,10.9l-0.2,0.05l2.23-9.91l-40.52-4.91l-8.91,38.79
				c-2.7,11.77,4.65,23.5,16.42,26.2l0,0c4.22,0.97,8.43,0.42,12.08-1.25c0.71-0.25,1.42-0.55,2.12-0.88l74.53-36.69l10.1-3.79
				c0,0,0.41-0.16,1.12-0.45l-0.15-0.03C234.21,311.82,260.05,300.64,254.23,288.41z"/>
			<g>
				<path class="st17" d="M115.65,319.84c-0.04,0.21-0.07,0.34-0.08,0.4C115.59,320.17,115.61,320.02,115.65,319.84z"/>
				<path class="st17" d="M160.48,306.76c0.91-4.2,0.65-3.84,2.03-9.86l-46.55,21.38c0,0,4.61-1.39,10.98-3.08
					c0.59-0.22,1.19-0.42,1.81-0.58L160.48,306.76z"/>
				<path class="st17" d="M115.76,319.27c-0.04,0.2-0.08,0.4-0.11,0.57C115.68,319.69,115.72,319.5,115.76,319.27z"/>
				<path class="st17" d="M115.57,320.24C115.56,320.3,115.56,320.3,115.57,320.24L115.57,320.24z"/>
				<path class="st17" d="M115.96,318.27c-0.08,0.41-0.14,0.72-0.2,1C115.86,318.77,115.96,318.27,115.96,318.27z"/>
			</g>
			<path class="st24" d="M166.26,297.39c-0.02,0-0.04,0-0.06,0l-8.84-1.09c-0.27-0.03-0.47-0.28-0.43-0.56
				c0.03-0.27,0.29-0.47,0.56-0.43l8.36,1.03l4.65-29.69c0.04-0.27,0.3-0.46,0.57-0.42c0.27,0.04,0.46,0.3,0.42,0.57l-4.73,30.17
				C166.72,297.22,166.51,297.39,166.26,297.39z"/>
		</g>
		<path class="st26" d="M176.59,302.6l19.96-0.5c3.72,0.49,9.65-2.87,8.96-6.56l0,0L176.59,302.6z"/>
	</g>
	<g>
		<g>
			<path class="st23" d="M239.54,206.05l-6.79-46.19c-0.74-5.06-2.21-9.83-4.28-14.24l3.68-0.59c0,0-2.59-37.49-44.63-28.54
				c-4.14-0.43-8.4-0.36-12.71,0.28l0,0c-20.43,3-34.55,21.99-31.55,42.42l3.96,26.92c3,20.43,21.99,34.55,42.42,31.55l46.32-6.81
				C238.28,210.52,239.89,208.36,239.54,206.05z"/>
			<path class="st11" d="M211.65,143.56c-0.25,0-0.46-0.18-0.5-0.43c-0.04-0.27,0.15-0.53,0.43-0.56l13.52-1.85
				c0.11-0.01,0.21-0.07,0.27-0.16c0.04-0.05,0.09-0.15,0.07-0.29c-2.19-12.19-13.41-17.81-13.53-17.87
				c-0.25-0.12-0.35-0.42-0.23-0.67c0.12-0.25,0.42-0.35,0.67-0.23c0.12,0.06,11.79,5.89,14.07,18.59c0.07,0.37-0.02,0.74-0.24,1.05
				s-0.57,0.52-0.94,0.57l-13.52,1.85C211.7,143.56,211.67,143.56,211.65,143.56z"/>
		</g>
		<g>
			<g>
				<path class="st15" d="M224.68,146.23l-37.01,5.95l-8.98-13.29c1.76,14.82-9.17,24.4-9.17,24.4s-0.11-0.15-0.31-0.43l-0.31,0.06
					c-5.79,1.08-9.64,6.71-8.56,12.5l0,0c1.08,5.79,6.71,9.64,12.5,8.56l0.71-0.13c1.27,5.55,4.12,10.37,8.01,14.02v23.72
					c0,8.41,6.88,15.29,15.29,15.29l0,0c8.41,0,15.29-6.88,15.29-15.29v-18.73c6.09-2.8,10.86-7.7,13.58-13.62
					c0.01-0.01,0.01-0.02,0.02-0.03c3.31-5.54,4.69-12.26,3.41-19.11L224.68,146.23z"/>
			</g>
			<path class="st25" d="M207.22,202.13L207.22,202.13c-13.71,2.57-26.95-5.54-31.15-18.47c-0.14-0.42-2.55,0.13-2.49,0.39
				c1.3,5.5,4.18,10.26,8.06,13.88c0.72,7.75,7.28,13.88,15.22,13.88l0,0c5.87,0,10.98-3.36,13.54-8.24
				c6.93-2.63,12.37-7.88,15.34-14.37C221.84,195.73,215.27,200.62,207.22,202.13z"/>
		</g>
		<g>
			<path class="st18" d="M167.78,176.95c-0.15,0-0.3-0.07-0.4-0.19c-0.17-0.22-0.13-0.53,0.09-0.7l3.33-2.58l-4.24-4
				c-0.2-0.19-0.21-0.51-0.02-0.71c0.19-0.2,0.51-0.21,0.71-0.02l4.67,4.41c0.11,0.1,0.16,0.24,0.16,0.39
				c-0.01,0.15-0.08,0.28-0.19,0.37l-3.79,2.94C168,176.91,167.89,176.95,167.78,176.95z"/>
			<g>
				<g>
					<g>
						<g>
							<g>
								<path class="st23" d="M194.41,158.72c0.45-0.01,0.91-0.28,1.36-0.52c0.46-0.25,0.92-0.48,1.33-0.68
									c0.41-0.19,0.89-0.4,1.38-0.59c0.48-0.2,0.98-0.38,1.27-0.71c0.28-0.31,0.23-0.81-0.44-1.14c-0.63-0.33-1.92-0.41-3.28,0.22
									c-1.36,0.64-2.11,1.67-2.25,2.36C193.63,158.38,193.99,158.73,194.41,158.72z"/>
							</g>
							<g>
								<path class="st23" d="M220.94,154.1c-0.43,0.11-0.95-0.02-1.45-0.12c-0.51-0.11-1.02-0.21-1.47-0.28
									c-0.45-0.07-0.97-0.13-1.48-0.18c-0.51-0.06-1.05-0.09-1.42-0.33c-0.36-0.22-0.44-0.71,0.1-1.22
									c0.52-0.49,1.73-0.92,3.22-0.69c1.48,0.24,2.49,1.02,2.81,1.64C221.6,153.56,221.36,154,220.94,154.1z"/>
							</g>
						</g>
					</g>
					<path class="st18" d="M205.95,179.41c-4.1,0-6.84-3.22-6.87-3.26c-0.18-0.21-0.15-0.53,0.06-0.7c0.21-0.18,0.53-0.15,0.7,0.06
						c0.16,0.19,3.95,4.62,9.25,2.17c0.25-0.12,0.55-0.01,0.66,0.24c0.12,0.25,0.01,0.55-0.24,0.66
						C208.25,179.18,207.05,179.41,205.95,179.41z"/>
					<path class="st18" d="M208.94,172.43c-0.23,0-0.44-0.17-0.49-0.4c-0.05-0.27,0.12-0.53,0.39-0.59l3.52-0.69
						c2.19-0.43,3.61-2.56,3.18-4.74c-0.16-0.79-0.92-1.3-1.71-1.15c-1.85,0.36-3.65-0.84-4.01-2.69l-0.85-4.31
						c-0.05-0.27,0.12-0.53,0.39-0.59c0.27-0.05,0.53,0.12,0.59,0.39l0.85,4.31c0.26,1.31,1.53,2.16,2.84,1.9
						c0.65-0.13,1.3,0.01,1.85,0.37c0.55,0.37,0.92,0.92,1.04,1.57c0.54,2.73-1.24,5.38-3.97,5.92l-3.52,0.69
						C209,172.42,208.97,172.43,208.94,172.43z"/>
					<path class="st23" d="M198.98,167.15L198.98,167.15c-0.67,0.13-1.32-0.32-1.44-0.99l-0.28-1.48c-0.13-0.67,0.32-1.32,0.99-1.44
						l0,0c0.67-0.13,1.32,0.32,1.44,0.99l0.28,1.48C200.09,166.38,199.65,167.03,198.98,167.15z"/>
					<path class="st23" d="M219.95,163.75L219.95,163.75c-0.67,0.13-1.32-0.32-1.44-0.99l-0.28-1.48c-0.13-0.67,0.32-1.32,0.99-1.44
						l0,0c0.67-0.13,1.32,0.32,1.44,0.99l0.28,1.48C221.06,162.97,220.62,163.62,219.95,163.75z"/>
					<path class="st17" d="M198.1,172.73l-4.22,0.47c-0.84,0.09-1.6-0.51-1.69-1.35l0,0c-0.09-0.84,0.51-1.6,1.35-1.69l4.22-0.47
						c0.84-0.09,1.6,0.51,1.69,1.35l0,0C199.55,171.87,198.94,172.63,198.1,172.73z"/>
					<path class="st17" d="M226.5,168.26l-4.22,0.47c-0.84,0.09-1.6-0.51-1.69-1.35l0,0c-0.09-0.84,0.51-1.6,1.35-1.69l4.22-0.47
						c0.84-0.09,1.6,0.51,1.69,1.35l0,0C227.94,167.4,227.33,168.16,226.5,168.26z"/>
					<path class="st18" d="M213.99,190.29c-0.1,0-0.21-0.03-0.29-0.1c-1.97-1.44-4.01-0.05-4.1,0.01c-0.23,0.16-0.54,0.1-0.7-0.12
						c-0.16-0.23-0.1-0.54,0.12-0.7c0.93-0.65,3.22-1.49,5.26,0.01c0.22,0.16,0.27,0.48,0.11,0.7
						C214.3,190.22,214.14,190.29,213.99,190.29z"/>
				</g>
			</g>
		</g>
	</g>
</g>
<g>
	<g>
		
			<linearGradient id="SVGID_4_" gradientUnits="userSpaceOnUse" x1="241.0767" y1="375.6813" x2="241.0767" y2="317.964" gradientTransform="matrix(1 0 0 -1 119.9533 440.2063)">
			<stop  offset="0" style="stop-color:#FCD224"/>
			<stop  offset="1" style="stop-color:#FFA340"/>
		</linearGradient>
		<circle class="st27" cx="361.03" cy="102.56" r="36.16"/>
		
			<linearGradient id="SVGID_5_" gradientUnits="userSpaceOnUse" x1="241.0767" y1="372.8678" x2="241.0767" y2="328.5315" gradientTransform="matrix(1 0 0 -1 119.9533 440.2063)">
			<stop  offset="0" style="stop-color:#FFA340"/>
			<stop  offset="1" style="stop-color:#FCD224"/>
		</linearGradient>
		<path class="st28" d="M388.15,102.56c0,14.98-12.14,27.12-27.12,27.12c-14.98,0-27.12-12.14-27.12-27.12s12.14-27.12,27.12-27.12
			C376.01,75.44,388.15,87.58,388.15,102.56z"/>
		<g>
			
				<linearGradient id="SVGID_6_" gradientUnits="userSpaceOnUse" x1="242.3617" y1="360.8641" x2="242.3617" y2="309.6758" gradientTransform="matrix(1 0 0 -1 119.9533 440.2063)">
				<stop  offset="0" style="stop-color:#FCD224"/>
				<stop  offset="1" style="stop-color:#FFA340"/>
			</linearGradient>
			<path class="st29" d="M360.07,96.03c0.47-0.3,1.27-0.46,2.43-0.47c2.42-0.02,5.14,0.68,8.17,2.09l2.51-6.6
				c-2.92-1.31-5.82-2.04-8.69-2.18l-0.03-3.11l-4.47,0.04l0.03,3.16c-3.05,0.37-5.33,1.27-6.85,2.72
				c-1.51,1.44-2.26,3.44-2.23,5.97c0.02,1.66,0.28,3.05,0.81,4.16c0.52,1.11,1.35,2.11,2.48,3s2.62,1.69,4.45,2.39
				c1.63,0.62,2.93,1.14,3.89,1.58c0.96,0.44,1.65,0.83,2.06,1.18s0.62,0.78,0.63,1.29c0.01,0.74-0.27,1.27-0.84,1.59
				s-1.46,0.49-2.69,0.5c-1.48,0.01-3.21-0.27-5.17-0.86c-1.97-0.59-3.79-1.33-5.47-2.22l0.07,7.66c2.94,1.33,5.98,2.05,9.14,2.18
				l0.04,4.31l4.47-0.04l-0.04-4.45c2.94-0.41,5.16-1.43,6.68-3.06s2.27-3.74,2.24-6.32c-0.02-2.29-0.69-4.16-2.02-5.6
				c-1.32-1.44-3.5-2.72-6.52-3.83c-1.49-0.52-2.65-0.99-3.49-1.39s-1.43-0.76-1.77-1.09c-0.34-0.33-0.51-0.75-0.52-1.25
				C359.37,96.78,359.6,96.34,360.07,96.03z"/>
			
				<linearGradient id="SVGID_7_" gradientUnits="userSpaceOnUse" x1="242.352" y1="363.3622" x2="242.352" y2="312.1738" gradientTransform="matrix(1 0 0 -1 119.9533 440.2063)">
				<stop  offset="0.3081" style="stop-color:#FFA340"/>
				<stop  offset="1" style="stop-color:#FCD224"/>
			</linearGradient>
			<path class="st30" d="M360.07,93.54c0.47-0.3,1.27-0.46,2.43-0.47c2.42-0.02,5.14,0.67,8.17,2.09l2.51-6.6
				c-2.92-1.31-5.82-2.04-8.69-2.18l-0.03-3.11l-4.47,0.04l0.03,3.16c-3.05,0.37-5.33,1.27-6.85,2.72
				c-1.51,1.44-2.26,3.43-2.24,5.97c0.02,1.66,0.28,3.05,0.81,4.16c0.52,1.11,1.35,2.11,2.48,3s2.62,1.69,4.45,2.39
				c1.63,0.62,2.93,1.14,3.89,1.58c0.96,0.44,1.65,0.83,2.06,1.18s0.62,0.78,0.63,1.29c0.01,0.74-0.27,1.27-0.84,1.59
				s-1.46,0.49-2.69,0.5c-1.48,0.01-3.21-0.27-5.17-0.86c-1.97-0.59-3.79-1.33-5.47-2.22l0.07,7.66c2.94,1.33,5.98,2.05,9.14,2.18
				l0.04,4.31l4.47-0.04l-0.04-4.45c2.94-0.41,5.16-1.43,6.68-3.06s2.27-3.74,2.24-6.32c-0.02-2.29-0.69-4.16-2.02-5.6
				c-1.32-1.44-3.5-2.72-6.52-3.83c-1.49-0.52-2.65-0.99-3.49-1.39s-1.43-0.76-1.77-1.09c-0.34-0.33-0.52-0.75-0.52-1.25
				C359.37,94.29,359.6,93.84,360.07,93.54z"/>
			
				<linearGradient id="SVGID_8_" gradientUnits="userSpaceOnUse" x1="251.9617" y1="353.1598" x2="251.9617" y2="341.107" gradientTransform="matrix(1 0 0 -1 119.9533 440.2063)">
				<stop  offset="0" style="stop-color:#FCD224"/>
				<stop  offset="1" style="stop-color:#FFA340"/>
			</linearGradient>
			<polygon class="st31" points="373.17,88.56 373.17,91.06 370.66,97.65 370.66,95.16 			"/>
		</g>
		
			<linearGradient id="SVGID_9_" gradientUnits="userSpaceOnUse" x1="241.0767" y1="369.0058" x2="241.0767" y2="345.8164" gradientTransform="matrix(1 0 0 -1 119.9533 440.2063)">
			<stop  offset="0" style="stop-color:#FFA340"/>
			<stop  offset="1" style="stop-color:#FCD224;stop-opacity:0"/>
		</linearGradient>
		<path class="st32" d="M361.03,77.93c14.56,0,26.4,11.48,27.06,25.87c0.02-0.42,0.06-0.83,0.06-1.25
			c0-14.98-12.14-27.12-27.12-27.12c-14.98,0-27.12,12.14-27.12,27.12c0,0.42,0.04,0.83,0.06,1.25
			C334.63,89.41,346.47,77.93,361.03,77.93z"/>
	</g>
</g>
<g>
	<path class="st33" d="M365.28,96.06c-0.4,0-0.79,0-1.17,0c-3.51,0-7.02,0-10.53,0.01c-0.23,0-0.31-0.05-0.3-0.3
		c0.02-0.62,0.01-1.24,0-1.85c0-0.2,0.05-0.27,0.26-0.27c2.67,0.01,5.33,0.01,8,0.01c1.02,0,2.05,0,3.07,0
		c0.07,0,0.14-0.01,0.25-0.02c-0.07-0.18-0.11-0.33-0.18-0.47c-1.31-2.73-3.47-4.21-6.51-4.3c-1.53-0.05-3.07-0.01-4.6-0.01
		c-0.22,0-0.3-0.06-0.29-0.29c0.01-0.63,0.01-1.27,0-1.9c0-0.19,0.06-0.24,0.24-0.24c3.28,0,6.55,0,9.83,0c2.96,0,5.91,0,8.87,0
		c0.31,0,0.31,0,0.31,0.3c0,0.62-0.01,1.24,0,1.85c0,0.21-0.06,0.26-0.27,0.26c-2.5-0.01-5.01,0-7.51,0c-0.09,0-0.18,0-0.32,0
		c0.06,0.08,0.09,0.12,0.13,0.15c1.33,1.24,2.27,2.72,2.76,4.47c0.05,0.18,0.16,0.18,0.3,0.18c1.54,0,3.08,0,4.62-0.01
		c0.24,0,0.3,0.07,0.3,0.31c-0.02,0.63-0.01,1.25,0,1.88c0,0.19-0.06,0.24-0.24,0.24c-1.42-0.01-2.85-0.01-4.27-0.01
		c-0.09,0-0.18,0-0.29,0c-0.08,2.98-1.21,5.44-3.46,7.36c-2.26,1.93-4.93,2.47-7.82,2.23c-0.01,0.03-0.01,0.06-0.02,0.1
		c4.3,3.97,8.59,7.93,12.93,11.94c-0.11,0.01-0.18,0.03-0.24,0.03c-1.02,0-2.05,0.01-3.07-0.01c-0.13,0-0.29-0.07-0.39-0.16
		c-3.53-3.25-7.06-6.51-10.58-9.77c-0.54-0.5-1.08-1-1.62-1.49c-0.12-0.11-0.17-0.22-0.17-0.38c0.01-0.79,0.01-1.58,0-2.37
		c0-0.2,0.05-0.25,0.25-0.25c1.45,0.01,2.89,0,4.34,0.01c2.66,0.01,4.77-1.07,6.27-3.27c0.77-1.13,1.13-2.4,1.17-3.76
		C365.29,96.2,365.28,96.15,365.28,96.06z"/>
</g>
<g>
	
		<linearGradient id="SVGID_10_" gradientUnits="userSpaceOnUse" x1="353.2792" y1="271.9287" x2="372.5399" y2="271.9287" gradientTransform="matrix(1 0 0 -1 0 374)">
		<stop  offset="0.3081" style="stop-color:#FFA340"/>
		<stop  offset="1" style="stop-color:#FCD224"/>
	</linearGradient>
	<path class="st34" d="M365.28,96.06c-0.4,0-0.79,0-1.17,0c-3.51,0-7.02,0-10.53,0.01c-0.23,0-0.31-0.05-0.3-0.3
		c0.02-0.62,0.01-1.24,0-1.85c0-0.2,0.05-0.27,0.26-0.27c2.67,0.01,5.33,0.01,8,0.01c1.02,0,2.05,0,3.07,0
		c0.07,0,0.14-0.01,0.25-0.02c-0.07-0.18-0.11-0.33-0.18-0.47c-1.31-2.73-3.47-4.21-6.51-4.3c-1.53-0.05-3.07-0.01-4.6-0.01
		c-0.22,0-0.3-0.06-0.29-0.29c0.01-0.63,0.01-1.27,0-1.9c0-0.19,0.06-0.24,0.24-0.24c3.28,0,6.55,0,9.83,0c2.96,0,5.91,0,8.87,0
		c0.31,0,0.31,0,0.31,0.3c0,0.62-0.01,1.24,0,1.85c0,0.21-0.06,0.26-0.27,0.26c-2.5-0.01-5.01,0-7.51,0c-0.09,0-0.18,0-0.32,0
		c0.06,0.08,0.09,0.12,0.13,0.15c1.33,1.24,2.27,2.72,2.76,4.47c0.05,0.18,0.16,0.18,0.3,0.18c1.54,0,3.08,0,4.62-0.01
		c0.24,0,0.3,0.07,0.3,0.31c-0.02,0.63-0.01,1.25,0,1.88c0,0.19-0.06,0.24-0.24,0.24c-1.42-0.01-2.85-0.01-4.27-0.01
		c-0.09,0-0.18,0-0.29,0c-0.08,2.98-1.21,5.44-3.46,7.36c-2.26,1.93-4.93,2.47-7.82,2.23c-0.01,0.03-0.01,0.06-0.02,0.1
		c4.3,3.97,8.59,7.93,12.93,11.94c-0.11,0.01-0.18,0.03-0.24,0.03c-1.02,0-2.05,0.01-3.07-0.01c-0.13,0-0.29-0.07-0.39-0.16
		c-3.53-3.25-7.06-6.51-10.58-9.77c-0.54-0.5-1.08-1-1.62-1.49c-0.12-0.11-0.17-0.22-0.17-0.38c0.01-0.79,0.01-1.58,0-2.37
		c0-0.2,0.05-0.25,0.25-0.25c1.45,0.01,2.89,0,4.34,0.01c2.66,0.01,4.77-1.07,6.27-3.27c0.77-1.13,1.13-2.4,1.17-3.76
		C365.29,96.2,365.28,96.15,365.28,96.06z"/>
</g>
<g>
	<g>
		
			<linearGradient id="SVGID_11_" gradientUnits="userSpaceOnUse" x1="195.6467" y1="374.5833" x2="195.6467" y2="342.9997" gradientTransform="matrix(1 0 0 -1 119.9533 440.2063)">
			<stop  offset="0" style="stop-color:#FCD224"/>
			<stop  offset="1" style="stop-color:#FFA340"/>
		</linearGradient>
		<circle class="st35" cx="315.6" cy="86.43" r="19.79"/>
		
			<linearGradient id="SVGID_12_" gradientUnits="userSpaceOnUse" x1="195.6467" y1="373.0437" x2="195.6467" y2="348.7823" gradientTransform="matrix(1 0 0 -1 119.9533 440.2063)">
			<stop  offset="0" style="stop-color:#FFA340"/>
			<stop  offset="1" style="stop-color:#FCD224"/>
		</linearGradient>
		<path class="st36" d="M330.44,86.43c0,8.2-6.64,14.84-14.84,14.84c-8.2,0-14.84-6.64-14.84-14.84s6.64-14.84,14.84-14.84
			C323.8,71.59,330.44,78.24,330.44,86.43z"/>
		<g>
			
				<linearGradient id="SVGID_13_" gradientUnits="userSpaceOnUse" x1="196.3514" y1="366.4751" x2="196.3514" y2="338.4643" gradientTransform="matrix(1 0 0 -1 119.9533 440.2063)">
				<stop  offset="0" style="stop-color:#FCD224"/>
				<stop  offset="1" style="stop-color:#FFA340"/>
			</linearGradient>
			<path class="st37" d="M315.07,82.87c0.25-0.17,0.7-0.25,1.33-0.26c1.32-0.01,2.81,0.37,4.47,1.15l1.37-3.61
				c-1.6-0.72-3.18-1.11-4.75-1.19l-0.02-1.7l-2.45,0.02l0.02,1.73c-1.67,0.2-2.92,0.7-3.75,1.49s-1.24,1.88-1.22,3.27
				c0.01,0.91,0.16,1.67,0.44,2.27c0.29,0.61,0.74,1.15,1.36,1.64s1.43,0.92,2.44,1.31c0.89,0.34,1.6,0.62,2.13,0.86
				s0.9,0.45,1.13,0.65c0.23,0.19,0.34,0.43,0.34,0.7c0,0.4-0.15,0.69-0.46,0.87s-0.8,0.27-1.47,0.27
				c-0.81,0.01-1.76-0.15-2.83-0.47c-1.08-0.32-2.07-0.73-2.99-1.22l0.04,4.19c1.61,0.73,3.27,1.12,5,1.19l0.02,2.36l2.45-0.02
				l-0.02-2.44c1.61-0.23,2.83-0.78,3.66-1.67c0.83-0.89,1.24-2.04,1.23-3.46c-0.01-1.25-0.38-2.27-1.1-3.06s-1.91-1.49-3.57-2.09
				c-0.82-0.29-1.45-0.54-1.91-0.76s-0.78-0.42-0.97-0.6s-0.28-0.41-0.28-0.69C314.69,83.28,314.82,83.03,315.07,82.87z"/>
			
				<linearGradient id="SVGID_14_" gradientUnits="userSpaceOnUse" x1="196.3514" y1="367.8421" x2="196.3514" y2="339.8312" gradientTransform="matrix(1 0 0 -1 119.9533 440.2063)">
				<stop  offset="0.3081" style="stop-color:#FFA340"/>
				<stop  offset="1" style="stop-color:#FCD224"/>
			</linearGradient>
			<path class="st38" d="M315.07,81.5c0.25-0.17,0.7-0.25,1.33-0.26c1.32-0.01,2.81,0.37,4.47,1.15l1.37-3.61
				c-1.6-0.72-3.18-1.11-4.75-1.19l-0.02-1.7l-2.45,0.02l0.02,1.73c-1.67,0.2-2.92,0.7-3.75,1.49s-1.24,1.88-1.22,3.27
				c0.01,0.91,0.16,1.67,0.44,2.27c0.29,0.61,0.74,1.15,1.36,1.64s1.43,0.92,2.44,1.31c0.89,0.34,1.6,0.62,2.13,0.86
				s0.9,0.45,1.13,0.65c0.23,0.19,0.34,0.43,0.34,0.7c0,0.4-0.15,0.69-0.46,0.87s-0.8,0.27-1.47,0.27
				c-0.81,0.01-1.76-0.15-2.83-0.47c-1.08-0.32-2.07-0.73-2.99-1.22l0.04,4.19c1.61,0.73,3.27,1.12,5,1.19l0.02,2.36l2.45-0.02
				l-0.02-2.44c1.61-0.23,2.83-0.78,3.66-1.68c0.83-0.89,1.24-2.04,1.23-3.46c-0.01-1.25-0.38-2.27-1.1-3.06s-1.91-1.49-3.57-2.09
				c-0.81-0.29-1.45-0.54-1.91-0.76s-0.78-0.42-0.97-0.6s-0.28-0.41-0.28-0.69C314.69,81.91,314.82,81.66,315.07,81.5z"/>
			
				<linearGradient id="SVGID_15_" gradientUnits="userSpaceOnUse" x1="201.6017" y1="362.2592" x2="201.6017" y2="355.6638" gradientTransform="matrix(1 0 0 -1 119.9533 440.2063)">
				<stop  offset="0" style="stop-color:#FCD224"/>
				<stop  offset="1" style="stop-color:#FFA340"/>
			</linearGradient>
			<polygon class="st39" points="322.24,78.77 322.24,80.14 320.87,83.75 320.87,82.38 			"/>
		</g>
		
			<linearGradient id="SVGID_16_" gradientUnits="userSpaceOnUse" x1="195.6467" y1="370.9304" x2="195.6467" y2="358.2409" gradientTransform="matrix(1 0 0 -1 119.9533 440.2063)">
			<stop  offset="0" style="stop-color:#FFA340"/>
			<stop  offset="1" style="stop-color:#FCD224;stop-opacity:0"/>
		</linearGradient>
		<path class="st40" d="M315.6,72.96c7.97,0,14.45,6.28,14.81,14.16c0.01-0.23,0.03-0.45,0.03-0.68c0-8.2-6.64-14.84-14.84-14.84
			c-8.2,0-14.84,6.64-14.84,14.84c0,0.23,0.02,0.46,0.03,0.68C301.15,79.24,307.63,72.96,315.6,72.96z"/>
	</g>
</g>
<g>
	<path class="st33" d="M317.92,82.88c-0.22,0-0.43,0-0.64,0c-1.92,0-3.84,0-5.76,0c-0.13,0-0.17-0.03-0.17-0.16
		c0.01-0.34,0.01-0.68,0-1.01c0-0.11,0.03-0.15,0.14-0.15c1.46,0,2.92,0,4.38,0c0.56,0,1.12,0,1.68,0c0.04,0,0.07,0,0.14-0.01
		c-0.04-0.1-0.06-0.18-0.1-0.26c-0.72-1.49-1.9-2.3-3.56-2.35c-0.84-0.02-1.68-0.01-2.52,0c-0.12,0-0.16-0.03-0.16-0.16
		c0.01-0.35,0.01-0.69,0-1.04c0-0.1,0.04-0.13,0.13-0.13c1.79,0,3.59,0,5.38,0c1.62,0,3.24,0,4.85,0c0.17,0,0.17,0,0.17,0.17
		c0,0.34,0,0.68,0,1.01c0,0.11-0.04,0.14-0.15,0.14c-1.37,0-2.74,0-4.11,0c-0.05,0-0.1,0-0.18,0c0.04,0.04,0.05,0.07,0.07,0.08
		c0.73,0.68,1.24,1.49,1.51,2.45c0.03,0.1,0.09,0.1,0.16,0.1c0.84,0,1.69,0,2.53-0.01c0.13,0,0.17,0.04,0.16,0.17
		c-0.01,0.34-0.01,0.68,0,1.03c0,0.1-0.03,0.13-0.13,0.13c-0.78,0-1.56,0-2.34,0c-0.05,0-0.1,0-0.16,0
		c-0.05,1.63-0.66,2.98-1.89,4.03c-1.23,1.05-2.7,1.35-4.28,1.22c0,0.02-0.01,0.04-0.01,0.05c2.35,2.17,4.7,4.34,7.07,6.53
		c-0.06,0.01-0.1,0.01-0.13,0.01c-0.56,0-1.12,0-1.68,0c-0.07,0-0.16-0.04-0.21-0.09c-1.93-1.78-3.86-3.56-5.79-5.35
		c-0.3-0.27-0.59-0.55-0.89-0.82c-0.07-0.06-0.1-0.12-0.09-0.21c0-0.43,0-0.86,0-1.3c0-0.11,0.03-0.14,0.14-0.14
		c0.79,0,1.58,0,2.38,0c1.46,0,2.61-0.58,3.43-1.79c0.42-0.62,0.62-1.31,0.64-2.06C317.93,82.96,317.93,82.93,317.92,82.88z"/>
</g>
<g>
	
		<linearGradient id="SVGID_17_" gradientUnits="userSpaceOnUse" x1="311.3493" y1="287.835" x2="321.8912" y2="287.835" gradientTransform="matrix(1 0 0 -1 0 374)">
		<stop  offset="0.3081" style="stop-color:#FFA340"/>
		<stop  offset="1" style="stop-color:#FCD224"/>
	</linearGradient>
	<path class="st41" d="M317.92,82.88c-0.22,0-0.43,0-0.64,0c-1.92,0-3.84,0-5.76,0c-0.13,0-0.17-0.03-0.17-0.16
		c0.01-0.34,0.01-0.68,0-1.01c0-0.11,0.03-0.15,0.14-0.15c1.46,0,2.92,0,4.38,0c0.56,0,1.12,0,1.68,0c0.04,0,0.07,0,0.14-0.01
		c-0.04-0.1-0.06-0.18-0.1-0.26c-0.72-1.49-1.9-2.3-3.56-2.35c-0.84-0.02-1.68-0.01-2.52,0c-0.12,0-0.16-0.03-0.16-0.16
		c0.01-0.35,0.01-0.69,0-1.04c0-0.1,0.04-0.13,0.13-0.13c1.79,0,3.59,0,5.38,0c1.62,0,3.24,0,4.85,0c0.17,0,0.17,0,0.17,0.17
		c0,0.34,0,0.68,0,1.01c0,0.11-0.04,0.14-0.15,0.14c-1.37,0-2.74,0-4.11,0c-0.05,0-0.1,0-0.18,0c0.04,0.04,0.05,0.07,0.07,0.08
		c0.73,0.68,1.24,1.49,1.51,2.45c0.03,0.1,0.09,0.1,0.16,0.1c0.84,0,1.69,0,2.53-0.01c0.13,0,0.17,0.04,0.16,0.17
		c-0.01,0.34-0.01,0.68,0,1.03c0,0.1-0.03,0.13-0.13,0.13c-0.78,0-1.56,0-2.34,0c-0.05,0-0.1,0-0.16,0
		c-0.05,1.63-0.66,2.98-1.89,4.03c-1.23,1.05-2.7,1.35-4.28,1.22c0,0.02-0.01,0.04-0.01,0.05c2.35,2.17,4.7,4.34,7.07,6.53
		c-0.06,0.01-0.1,0.01-0.13,0.01c-0.56,0-1.12,0-1.68,0c-0.07,0-0.16-0.04-0.21-0.09c-1.93-1.78-3.86-3.56-5.79-5.35
		c-0.3-0.27-0.59-0.55-0.89-0.82c-0.07-0.06-0.1-0.12-0.09-0.21c0-0.43,0-0.86,0-1.3c0-0.11,0.03-0.14,0.14-0.14
		c0.79,0,1.58,0,2.38,0c1.46,0,2.61-0.58,3.43-1.79c0.42-0.62,0.62-1.31,0.64-2.06C317.93,82.96,317.93,82.93,317.92,82.88z"/>
</g>
</svg>
