<?xml version="1.0" encoding="utf-8"?>
<!-- Generator: Adobe Illustrator 23.0.1, SVG Export Plug-In . SVG Version: 6.00 Build 0)  -->
<svg version="1.1" id="Capa_1" xmlns="http://www.w3.org/2000/svg" xmlns:xlink="http://www.w3.org/1999/xlink" x="0px" y="0px"
	 viewBox="0 0 512 512" style="enable-background:new 0 0 512 512;" xml:space="preserve">
<g>
	<path d="M407,302c-35.66,0-67.22,17.87-86.21,45.13l-116.13-58.07c3.46-10.4,5.34-21.51,5.34-33.06s-1.88-22.66-5.34-33.06
		l116.13-58.07C339.78,192.13,371.34,210,407,210c57.9,0,105-47.1,105-105S464.9,0,407,0S302,47.1,302,105
		c0,11.55,1.88,22.66,5.34,33.06l-116.13,58.07C172.22,168.87,140.66,151,105,151C47.1,151,0,198.1,0,256s47.1,105,105,105
		c35.66,0,67.22-17.87,86.21-45.13l116.13,58.07c-3.46,10.4-5.34,21.51-5.34,33.06c0,57.9,47.1,105,105,105s105-47.1,105-105
		S464.9,302,407,302z M407,30c41.36,0,75,33.65,75,75s-33.64,75-75,75s-75-33.65-75-75S365.64,30,407,30z M105,331
		c-41.35,0-75-33.64-75-75s33.65-75,75-75s75,33.65,75,75S146.35,331,105,331z M407,482c-41.36,0-75-33.64-75-75s33.64-75,75-75
		s75,33.64,75,75S448.36,482,407,482z"/>
</g>
</svg>
