<?xml version="1.0" encoding="utf-8"?>
<!-- Generator: Adobe Illustrator 23.0.1, SVG Export Plug-In . SVG Version: 6.00 Build 0)  -->
<svg version="1.1" id="Capa_1" xmlns="http://www.w3.org/2000/svg" xmlns:xlink="http://www.w3.org/1999/xlink" x="0px" y="0px"
	 viewBox="0 0 385.41 309.18" style="enable-background:new 0 0 385.41 309.18;" xml:space="preserve">
<style type="text/css">
	.st0{fill:#E2EBF9;}
	.st1{fill:#FFFFFF;}
	.st2{fill:#5DE0BF;}
	.st3{fill:#76FFD9;}
	.st4{fill:#C1C8D2;}
	.st5{fill:#E1EAF8;}
	.st6{fill:#434C54;}
	.st7{fill:#FF6417;}
	.st8{fill:#FF8125;}
</style>
<path class="st0" d="M259.53,63.61l5.03,158.74H32.18V64.69h178.59L259.53,63.61z"/>
<path class="st1" d="M245.85,63.84l49.22,157.77H62.69V63.95h178.59L245.85,63.84z"/>
<path class="st2" d="M370.03,221.63c0.01,3.05-2.46,5.52-5.51,5.53l-26.52,0.04c-5.75-9.88-16.46-16.52-28.72-16.5
	c-12.26,0.02-22.96,6.71-28.66,16.62l-20.98,0.03l-0.12-60.72l109.69-0.21c0.47,1.78,0.71,3.63,0.72,5.52l0.03,16.56l-11.04,0.02
	c-3.04,0.01-5.51,2.49-5.51,5.53l0.01,5.52c0.01,3.04,2.5,5.52,5.53,5.51l11.04-0.02L370.03,221.63z"/>
<path class="st1" d="M369.97,188.51l0.03,16.56l-11.04,0.02c-3.04,0.01-5.53-2.48-5.53-5.51l-0.01-5.52
	c-0.01-3.04,2.47-5.52,5.51-5.53L369.97,188.51z"/>
<path class="st3" d="M369.22,166.43l-109.69,0.21l-0.04-22.08l77.28-0.14l20.93,7.81C363.5,155.11,367.64,160.34,369.22,166.43z"/>
<path class="st4" d="M338.01,227.2c2.83,4.87,4.45,10.52,4.46,16.56c0.03,18.29-14.77,33.15-33.06,33.18
	c-18.29,0.03-33.15-14.77-33.18-33.06c-0.01-6.03,1.59-11.69,4.39-16.56c5.71-9.92,16.4-16.6,28.66-16.62
	C321.54,210.68,332.26,217.31,338.01,227.2z"/>
<path class="st1" d="M324.84,99.45l11.92,44.96l-77.28,0.14l-0.11-60.72l44.29-0.08C313.42,83.73,322.02,90.11,324.84,99.45z"/>
<path class="st5" d="M198.97,249.54c0.01,6.07-4.95,11.05-11.02,11.06l-33.12,0.06c-6.07,0.01-11.05-4.95-11.06-11.02l-0.01-5.52
	l-0.01-5.52c-0.01-6.07,4.95-11.05,11.02-11.06l33.12-0.06c0.01,0,0.01,0,0.01,0c6.06,0,11.03,4.95,11.05,11.02l0.01,5.52
	L198.97,249.54z"/>
<path class="st4" d="M117.2,227.61c2.84,4.86,4.46,10.52,4.47,16.56c0.03,18.29-14.77,33.15-33.06,33.18
	c-18.29,0.03-33.15-14.77-33.18-33.05c-0.01-6.03,1.59-11.68,4.39-16.56c5.71-9.92,16.41-16.6,28.67-16.62
	C100.75,211.1,111.46,217.73,117.2,227.61z"/>
<g>
	<circle class="st1" cx="309.26" cy="244.15" r="11.73"/>
	<circle class="st1" cx="88.46" cy="244.15" r="12.42"/>
</g>
<path class="st4" d="M160.31,238.92c-1.36,0-2.69,0.55-3.66,1.52c-0.97,0.96-1.52,2.3-1.52,3.66c0,1.36,0.55,2.7,1.52,3.66
	c0.97,0.97,2.3,1.52,3.66,1.52c1.37,0,2.7-0.55,3.66-1.52c0.96-0.96,1.51-2.3,1.51-3.66c0-1.36-0.55-2.7-1.51-3.66
	C163.01,239.48,161.68,238.92,160.31,238.92z"/>
<path class="st6" d="M370.07,238.53h-0.01l-22.78,0.04c-0.29-2.13-0.75-4.2-1.38-6.21l18.63-0.04c2.86-0.01,5.54-1.12,7.56-3.15
	c2.02-2.02,3.12-4.71,3.12-7.57l-0.03-16.56v0v0l-0.06-33.12c0-1.31-0.1-2.6-0.28-3.87c0.04-0.87-0.6-3.31-1.34-5.38
	c-2.33-6.47-7.08-11.9-13.49-15.1c-0.16-0.08-0.33-0.15-0.5-0.22l-18.42-6.88l-11.24-42.38c-0.02-0.06-0.03-0.11-0.05-0.17
	c-3.5-11.59-13.98-19.37-26.09-19.37h-0.06l-39.12,0.07l-0.02-11.39c-0.01-2.86-1.12-5.54-3.15-7.56c-2.02-2.01-4.7-3.12-7.55-3.12
	h-0.02L33,57c-5.9,0.01-10.69,4.82-10.67,10.71l0.23,121.44v0v0l0.06,33.12c0.01,2.86,1.12,5.54,3.15,7.56
	c2.02,2.01,4.7,3.12,7.55,3.12h0.02l18.62-0.04c-0.62,2.02-1.07,4.1-1.35,6.21l-22.78,0.04c-2.86,0.01-5.17,2.33-5.17,5.18
	c0.01,2.86,2.32,5.17,5.17,5.17h0.01l22.78-0.04c2.57,18.64,18.6,33.05,37.92,33.05h0.07c10.23-0.02,19.84-4.02,27.06-11.27
	c5.99-6.01,9.73-13.66,10.82-21.92l12.08-0.02l0,0.34c0.02,8.92,7.29,16.18,16.21,16.18h0.03l33.12-0.06
	c4.32-0.01,8.38-1.71,11.45-4.78c3.06-3.07,4.74-7.15,4.74-11.47l0-0.34l67.29-0.13c2.57,18.64,18.6,33.05,37.92,33.05h0.07
	c19.36-0.04,35.37-14.51,37.87-33.19l22.78-0.04c2.86-0.01,5.17-2.33,5.17-5.18C375.24,240.84,372.93,238.53,370.07,238.53z
	 M303.68,88.93h0.03c7.48,0,13.96,4.79,16.16,11.94l10.18,38.38l-65.39,0.12L264.56,89L303.68,88.93z M108.35,263.96
	c-5.27,5.29-12.28,8.21-19.74,8.22h-0.05c-15.38,0-27.91-12.51-27.94-27.89c-0.01-7.46,2.88-14.49,8.15-19.78
	c5.27-5.29,12.28-8.21,19.8-8.22c15.38,0,27.91,12.51,27.94,27.89C116.52,251.65,113.62,258.67,108.35,263.96z M138.57,238.62
	l0,0.34l-12.09,0.02c-0.29-2.13-0.75-4.2-1.38-6.21l14.56-0.03C138.94,234.6,138.57,236.58,138.57,238.62z M187.94,255.43
	l-33.12,0.06h-0.01c-3.23,0-5.86-2.63-5.86-5.85l-0.01-5.5c0,0,0-0.01,0-0.02s0-0.01,0-0.01l-0.01-5.51c0-1.55,0.61-3.03,1.72-4.14
	c1.11-1.11,2.57-1.73,4.13-1.73l33.14-0.06c3.23,0,5.86,2.63,5.86,5.85l0.02,11.04C193.8,252.79,191.17,255.43,187.94,255.43z
	 M186.85,222.31l-32.09,0.06c0,0-0.01,0-0.01,0l-33.1,0.06c-0.51,0-1,0.08-1.47,0.22c-6.91-10.08-18.5-16.72-31.61-16.72h-0.07
	c-10.23,0.02-19.84,4.02-27.06,11.27c-1.72,1.73-3.25,3.59-4.59,5.56c-0.46-0.13-0.93-0.21-1.43-0.21H55.4l-22.08,0.04
	c-0.02-0.01-0.14,0-0.24-0.1c-0.1-0.1-0.1-0.21-0.1-0.24l-0.05-27.94l-0.02-10.35L32.68,67.7c0-0.19,0.15-0.35,0.34-0.35l220.8-0.41
	c0.03,0,0.14,0,0.24,0.1c0.1,0.1,0.1,0.21,0.1,0.24l0.03,16.56v0v0l0.11,60.72v0l0.04,22.08v0v0l0.1,55.54L186.85,222.31z
	 M271.4,238.72l-67.28,0.13l0-0.34c0-2.07-0.4-4.04-1.12-5.86l56.65-0.11l13.1-0.02C272.13,234.52,271.68,236.6,271.4,238.72z
	 M309.41,271.76h-0.05c-15.38,0-27.91-12.51-27.94-27.89c-0.01-7.46,2.88-14.49,8.15-19.78c5.27-5.29,12.28-8.21,19.8-8.22
	c15.38,0,27.91,12.51,27.94,27.89C337.33,259.18,324.81,271.74,309.41,271.76z M364.83,210.25l0.02,11.38c0,0.04,0,0.14-0.1,0.24
	c-0.1,0.1-0.21,0.1-0.24,0.1l-22.08,0.04c-0.51,0-1,0.08-1.47,0.22c-6.91-10.08-18.5-16.71-31.61-16.71h-0.07
	c-10.23,0.02-19.84,4.02-27.06,11.27c-1.72,1.73-3.25,3.59-4.59,5.56c-0.46-0.13-0.93-0.21-1.43-0.21h-0.01l-11.38,0.02l-0.14-72.45
	l71.16-0.13l19.78,7.38c2.1,1.08,4.02,2.46,5.33,4.3c3.73,5.26,3.8,10.34,3.8,10.34c0,0.11,0.01,0.23,0.01,0.34l0.02,11.38
	L364.83,210.25z"/>
<path class="st7" d="M150.34,205.2c34.36,0,62.22-27.86,62.22-62.22s-27.86-62.22-62.22-62.22s-62.22,27.86-62.22,62.22
	C88.16,177.33,115.99,205.16,150.34,205.2z M150.34,90.33c29.08,0,52.65,23.57,52.65,52.65s-23.57,52.65-52.65,52.65
	s-52.65-23.57-52.65-52.65C97.72,113.92,121.28,90.37,150.34,90.33z"/>
<path class="st8" d="M150.34,186.06c1.27,0,2.49-0.5,3.38-1.4c3.08-3.08,30.12-30.71,30.12-51.25c0-18.5-15-33.5-33.5-33.5
	s-33.5,15-33.5,33.5c0,20.53,27.04,48.16,30.12,51.25C147.85,185.55,149.07,186.06,150.34,186.06z M150.34,109.48
	c13.21,0.02,23.92,10.72,23.93,23.93c0,12.28-15.06,31.26-23.93,40.93c-8.87-9.67-23.93-28.65-23.93-40.93
	C126.42,120.2,137.13,109.49,150.34,109.48z"/>
<path class="st8" d="M164.7,133.41c0-7.93-6.43-14.36-14.36-14.36c-7.93,0-14.36,6.43-14.36,14.36c0,7.93,6.43,14.36,14.36,14.36
	C158.27,147.77,164.7,141.34,164.7,133.41z M145.55,133.41c0-2.64,2.14-4.79,4.79-4.79c2.64,0,4.79,2.14,4.79,4.79
	s-2.14,4.79-4.79,4.79C147.7,138.19,145.55,136.05,145.55,133.41z"/>
</svg>
