<?xml version="1.0" encoding="utf-8"?>
<!-- Generator: Adobe Illustrator 23.0.1, SVG Export Plug-In . SVG Version: 6.00 Build 0)  -->
<svg version="1.1" id="Capa_1" xmlns="http://www.w3.org/2000/svg" xmlns:xlink="http://www.w3.org/1999/xlink" x="0px" y="0px"
	 viewBox="0 0 525.18 504" style="enable-background:new 0 0 525.18 504;" xml:space="preserve">
<style type="text/css">
	.st0{fill:#434C54;}
	.st1{fill:#FFFFFF;}
	.st2{fill:#E2EBF9;}
	.st3{fill:#C1C8D2;}
	.st4{fill:#76FFDA;}
	.st5{fill:#5DE1C0;}
	.st6{fill:#FF6417;}
	.st7{fill:#E85210;}
</style>
<g>
	<g>
		<path class="st0" d="M69.99,216.51l-0.54,21.24l-33.22-31.23c-4.93-4.63-12.68-4.39-17.31,0.54c-2.14,2.28-3.24,5.17-3.32,8.07
			c-0.09,3.37,1.21,6.75,3.85,9.24l47.49,44.65c7.77,7.31,19.77,7.61,27.91,0.71l49.7-42.18c5.16-4.38,5.79-12.11,1.41-17.26
			s-12.11-5.79-17.26-1.41l-34.77,29.51l0.54-21.24c2.54-100.31,86.22-179.85,186.53-177.3c100.31,2.54,179.85,86.22,177.3,186.53
			s-86.22,179.85-186.53,177.3c-6.76-0.17-12.38,5.17-12.55,11.93c-0.17,6.76,5.17,12.38,11.93,12.55
			c113.81,2.89,208.75-87.36,211.64-201.17c2.89-113.81-87.35-208.75-201.17-211.64C167.82,12.46,72.88,102.7,69.99,216.51z"/>
	</g>
</g>
<circle class="st1" cx="370.56" cy="242.99" r="5.08"/>
<g>
	<path class="st2" d="M210.3,219.49v-21.23h-12.95c-6.16,0-11.15,4.99-11.15,11.15v8.62c0,6.16,4.99,11.15,11.15,11.15h12.95V219.49
		z"/>
	<path class="st2" d="M354.16,198.26h-12.95v30.92h12.95c6.16,0,11.15-4.99,11.15-11.15v-8.62
		C365.31,203.26,360.32,198.26,354.16,198.26z"/>
	<path class="st2" d="M301.92,364.17l39.95-37.52l-15.86-2.95c-7.65-1.54-13.16-10.42-13.16-18.23v-34.8h-74.18v34.8
		c0,7.81-5.51,16.69-13.16,18.23l-15.86,2.95l39.95,37.52C264.3,377.98,287.21,377.98,301.92,364.17z"/>
</g>
<path class="st3" d="M294.88,270.68v52.76c0,7.81,5.51,16.69,13.16,18.23l13.67,3.91l20.16-18.93l-15.86-2.95
	c-7.65-1.54-13.16-10.42-13.16-18.23v-34.8H294.88z"/>
<path class="st4" d="M322.06,321.79l-46.31,34.61l-46.31-34.61c-2.48-1.86-5.7-2.42-8.66-1.53l-77.8,23.47
	c-8.37,2.53-14.59,9.57-16.07,18.19l-17.14,100.34c-1.18,6.9,4.14,13.21,11.14,13.21h309.65c7.01,0,12.32-6.3,11.14-13.21
	l-17.14-100.34c-1.47-8.62-7.69-15.66-16.07-18.19l-77.79-23.47C327.76,319.37,324.55,319.94,322.06,321.79z"/>
<path class="st5" d="M220.78,320.26l-13.38,4.04l29.54,41.33c2.33,3.25,6.6,4.45,10.28,2.89l28.54-12.12l-46.31-34.61
	C226.97,319.94,223.75,319.37,220.78,320.26z"/>
<path class="st5" d="M304.3,368.52c3.68,1.56,7.95,0.36,10.28-2.89l29.54-41.33l-0.07-0.02l-13.31-4.02
	c-2.97-0.9-6.18-0.33-8.67,1.53l-46.31,34.61L304.3,368.52z"/>
<path class="st1" d="M323.35,125.97c-11.17-9.62-26.86-8.99-47.6-9.22c-20.74,0.23-36.43-0.39-47.6,9.22
	c-14.24,12.26-21.96,30.48-21.96,49.27v54.64c0,18.8,23.62,68.65,69.56,68.65s69.56-49.85,69.56-68.65v-54.64
	C345.31,156.44,337.6,138.23,323.35,125.97z"/>
<path class="st2" d="M323.35,125.97c-4.44-3.82-9.59-6.02-15.49-7.3c0,0.03,0,0.05,0,0.08v111.13c0,16.04-17.22,54.72-50.84,65.7
	c5.76,1.88,12,2.95,18.72,2.95c45.93,0,69.56-49.85,69.56-68.65v-54.64C345.31,156.44,337.6,138.23,323.35,125.97z"/>
<path class="st1" d="M275.76,457.97c0,0-52.01-138.6-54.97-137.71l-77.8,23.47c-8.37,2.53-14.59,9.57-16.07,18.19l-17.14,100.34
	c-1.18,6.9,4.14,13.21,11.14,13.21h309.65c7.01,0,12.32-6.3,11.14-13.21l-17.14-100.34c-1.47-8.62-7.69-15.66-16.07-18.19
	l-77.79-23.47C327.76,319.37,275.76,457.97,275.76,457.97z"/>
<path class="st2" d="M441.73,462.26l-17.14-100.34c-1.47-8.62-7.69-15.66-16.07-18.19l-77.79-23.47
	c-0.81-0.24-5.24,9.82-11.26,24.61l56.42,17.02c4.27,1.29,7.43,4.88,8.18,9.27l17.82,104.31h28.69
	C437.59,475.47,442.91,469.17,441.73,462.26z"/>
<path class="st6" d="M317.6,99.39h-83.69c-21.53,0-38.99,17.46-38.99,38.99v64.01c0,0,10.74-0.24,17.64,6.59
	c1.44,1.42,3.88,0.38,3.88-1.64v-52.38c0-9.52,7.72-17.24,17.24-17.24h15.66c4.11,0,8.09,1.42,11.27,4.02l1.53,1.26
	c3.85,3.14,8.66,4.86,13.62,4.86s9.78-1.72,13.62-4.86l1.54-1.26c3.18-2.6,7.16-4.02,11.27-4.02h15.66
	c9.52,0,17.23,7.72,17.23,17.24v52.38c0,2.02,2.44,3.06,3.88,1.64c6.9-6.83,17.64-6.59,17.64-6.59v-64.01
	C356.59,116.85,339.14,99.39,317.6,99.39z"/>
<path class="st7" d="M317.6,99.39h-37.45c21.33,0,38.65,17.14,38.98,38.39c8.92,0.66,15.94,8.1,15.94,17.18v52.38
	c0,2.02,2.44,3.06,3.88,1.64c6.9-6.83,17.64-6.59,17.64-6.59v-64.01C356.59,116.85,339.14,99.39,317.6,99.39z"/>
<path class="st0" d="M364.13,336.27l42.75,12.9c6.35,1.92,10.99,7.17,12.11,13.71l17.14,100.34c0.28,1.66-0.16,3.29-1.25,4.58
	c-1.09,1.29-2.62,2-4.3,2H120.93c-1.69,0-3.22-0.71-4.31-2c-1.09-1.29-1.53-2.92-1.24-4.58l5.65-33.11
	c0.53-3.09-1.55-6.02-4.64-6.55c-3.09-0.53-6.02,1.55-6.55,4.64l-5.65,33.11c-0.85,4.94,0.52,9.98,3.76,13.81
	c3.23,3.83,7.96,6.03,12.98,6.03h309.65c5.02,0,9.75-2.2,12.98-6.03c3.23-3.83,4.6-8.86,3.76-13.81l-17.14-100.34
	c-1.85-10.81-9.52-19.5-20.02-22.67l-46.23-13.95c-0.96-11.3-5.59-21.96-13.3-30.4c-6.17-6.75-13.93-11.66-22.48-14.38
	c1.46-1.62,2.82-3.24,4.06-4.82c10.99-13.98,16.88-29.38,18.38-39.9h3.56c9.28,0,16.82-7.55,16.82-16.82v-8.62
	c0-6.19-3.48-11.8-8.72-14.71v-20.74c0-3.14-2.54-5.68-5.68-5.68c-3.14,0-5.68,2.54-5.68,5.68v23.28c-2.21,0.38-4.85,1.05-7.54,2.18
	c-0.27,0.1-0.54,0.22-0.8,0.36c-0.61,0.28-1.22,0.57-1.82,0.9v-45.72c0-12.63-10.28-22.91-22.91-22.91h-15.66
	c-5.4,0-10.68,1.88-14.86,5.3l-1.54,1.25c-2.82,2.31-6.38,3.58-10.03,3.58s-7.21-1.27-10.03-3.58l-1.54-1.26
	c-4.18-3.42-9.46-5.3-14.86-5.3h-15.66c-12.63,0-22.91,10.28-22.91,22.91v45.72c-0.61-0.33-1.22-0.62-1.83-0.9
	c-0.25-0.14-0.52-0.26-0.8-0.35c-2.7-1.14-5.33-1.8-7.54-2.18v-58.86c0-18.37,14.95-33.32,33.32-33.32h83.69
	c18.37,0,33.32,14.95,33.32,33.32v8.92c0,3.14,2.54,5.68,5.68,5.68c3.13,0,5.68-2.54,5.68-5.68v-8.92
	c0-24.63-20.04-44.67-44.67-44.67h-83.69c-24.63,0-44.67,20.04-44.67,44.67v56.32c-5.23,2.91-8.72,8.52-8.72,14.71v8.62
	c0,9.28,7.55,16.82,16.82,16.82h3.56c1.5,10.51,7.38,25.91,18.38,39.9c1.24,1.58,2.6,3.2,4.06,4.82
	c-19.66,6.24-33.99,23.92-35.77,44.78l-46.23,13.95c-10.5,3.17-18.17,11.85-20.02,22.67l-6.96,40.75c-0.53,3.09,1.55,6.02,4.64,6.55
	c3.09,0.54,6.02-1.55,6.55-4.64l6.96-40.75c1.11-6.54,5.76-11.79,12.11-13.71l42.75-12.9l11.35-3.43l19.5-5.88
	c1.84,3.86,5.53,12.37,12.96,31c6.89,17.29,15.32,39.04,23.4,60.19c0.06,0.19,0.13,0.36,0.21,0.54c5.58,14.61,11,28.92,15.63,41.27
	c0.83,2.22,2.95,3.68,5.31,3.68c2.36,0,4.48-1.47,5.31-3.68c4.63-12.35,10.05-26.66,15.64-41.27c0.08-0.18,0.14-0.35,0.2-0.54
	c8.22-21.5,16.78-43.59,23.73-61.02c7.22-18.05,10.83-26.37,12.64-30.17l19.5,5.88 M351.99,320.75l-19.6-5.91
	c-0.01,0-0.01,0-0.02-0.01c0,0-0.01,0-0.01,0c-3.29-0.99-6.81-0.83-9.96,0.37c-2.28-2.49-3.87-6.17-3.87-9.73v-16.52
	C335.52,291.46,348.72,304.31,351.99,320.75z M317.53,334.68c-0.25,0.61-0.51,1.23-0.78,1.87c-0.08,0.2-0.17,0.41-0.25,0.61
	c-0.22,0.54-0.45,1.09-0.68,1.65c-0.06,0.15-0.12,0.29-0.18,0.43c-0.07,0.17-0.14,0.34-0.21,0.51c-0.12,0.29-0.24,0.58-0.36,0.87
	c-0.15,0.37-0.3,0.74-0.46,1.12c-0.11,0.27-0.22,0.55-0.34,0.82c-0.3,0.74-0.61,1.5-0.93,2.28c-0.12,0.29-0.23,0.57-0.35,0.86
	c-0.17,0.43-0.35,0.86-0.52,1.3c-0.13,0.31-0.25,0.62-0.38,0.94c-0.17,0.42-0.34,0.84-0.51,1.27c-0.16,0.39-0.32,0.8-0.48,1.19
	c-0.15,0.38-0.31,0.77-0.46,1.16c-0.3,0.75-0.6,1.5-0.91,2.28c-0.12,0.29-0.24,0.59-0.35,0.89c-0.22,0.56-0.45,1.13-0.68,1.71
	c-0.14,0.35-0.27,0.7-0.41,1.05c-0.22,0.54-0.43,1.08-0.65,1.64c-0.14,0.35-0.28,0.71-0.42,1.06c-0.26,0.67-0.53,1.34-0.8,2.02
	c-0.09,0.24-0.19,0.47-0.28,0.7c-0.03,0.07-0.05,0.13-0.08,0.2l-5.57-2.36c-0.03-0.01-0.06-0.03-0.09-0.04l-13.35-5.67l31.96-23.88
	c-0.15,0.35-0.3,0.7-0.45,1.06c-0.27,0.63-0.54,1.29-0.82,1.96C317.67,334.34,317.6,334.51,317.53,334.68z M296.84,386.73
	c-1.13,2.92-2.26,5.84-3.38,8.75l-2.31-12.65l8.65-10.05l2.11,0.9C300.3,377.82,298.61,382.16,296.84,386.73z M254.67,386.73
	c-1.77-4.57-3.46-8.92-5.08-13.05l2.12-0.9l8.65,10.05l-2.31,12.65C256.93,392.57,255.81,389.65,254.67,386.73z M245.1,362.22
	c-0.27-0.69-0.54-1.37-0.81-2.04c-0.14-0.35-0.28-0.71-0.42-1.06c-0.22-0.54-0.43-1.08-0.64-1.62c-0.15-0.37-0.3-0.74-0.44-1.11
	c-0.21-0.53-0.42-1.06-0.63-1.58c-0.13-0.33-0.27-0.67-0.4-1c-0.3-0.77-0.61-1.52-0.9-2.26c-0.17-0.43-0.34-0.85-0.51-1.27
	c-0.14-0.34-0.27-0.69-0.41-1.02c-0.19-0.46-0.37-0.91-0.55-1.35c-0.12-0.3-0.24-0.6-0.36-0.9c-0.18-0.44-0.35-0.88-0.53-1.31
	c-0.12-0.28-0.22-0.56-0.34-0.84c-0.31-0.76-0.61-1.5-0.91-2.23c-0.12-0.3-0.25-0.61-0.37-0.9c-0.14-0.35-0.28-0.69-0.43-1.04
	c-0.14-0.33-0.27-0.66-0.4-0.98c-0.06-0.15-0.13-0.31-0.19-0.46c-0.05-0.13-0.1-0.25-0.16-0.38c-0.28-0.67-0.55-1.34-0.82-1.98
	c-0.02-0.05-0.04-0.11-0.07-0.16c-0.31-0.75-0.61-1.47-0.9-2.17c-0.04-0.09-0.08-0.19-0.12-0.28c-0.3-0.71-0.59-1.4-0.87-2.07
	c-0.15-0.36-0.3-0.72-0.45-1.06l31.96,23.89l-13.35,5.67c-0.03,0.01-0.05,0.02-0.08,0.03l-5.57,2.37c-0.03-0.07-0.05-0.13-0.08-0.2
	C245.28,362.68,245.19,362.45,245.1,362.22z M244.34,296.33c8.74,4.7,19.17,7.87,31.42,7.87c12.25,0,22.68-3.17,31.42-7.87v9.14
	c0,5.37,2.07,11.38,5.75,16.07l-37.17,27.78l-37.17-27.78c3.69-4.69,5.75-10.7,5.75-16.07V296.33z M269.04,375.51l-6.36-7.39
	l13.08-5.55l13.08,5.55l-6.36,7.39L269.04,375.51L269.04,375.51z M359.64,218.04c0,3.02-2.46,5.47-5.47,5.47h-3.17v-14.71
	c3.02-0.75,5.45-0.74,5.48-0.74c0.98,0.01,1.92-0.22,2.77-0.66c0.25,0.63,0.4,1.3,0.4,2.01V218.04z M191.88,218.04v-8.62
	c0-0.7,0.15-1.38,0.4-2.01c0.85,0.44,1.79,0.67,2.77,0.66c0.04,0.01,2.46-0.01,5.47,0.74v14.71h-3.17
	C194.33,223.51,191.88,221.05,191.88,218.04z M211.87,229.87v-14.9c1.72,0.52,3.6,0.45,5.34-0.28c2.98-1.24,4.9-4.13,4.9-7.35
	v-52.38c0-6.38,5.19-11.56,11.56-11.56h15.66c2.79,0,5.52,0.97,7.67,2.74l1.54,1.26c4.84,3.96,10.96,6.14,17.22,6.14
	c6.26,0,12.37-2.18,17.22-6.14l1.54-1.26c2.16-1.76,4.89-2.74,7.68-2.74h15.66c6.37,0,11.56,5.19,11.56,11.56v52.38
	c0,3.22,1.92,6.11,4.9,7.35c1,0.42,2.04,0.62,3.07,0.62c0.77,0,1.53-0.11,2.27-0.33v14.9c0,8.28-5.73,24.37-16.34,37.87
	c-3.51,4.47-8.03,9.27-13.59,13.47c-0.18,0.12-0.35,0.25-0.52,0.39c-8.62,6.37-19.7,11.25-33.43,11.25
	c-13.73,0-24.81-4.88-33.43-11.25c-0.17-0.14-0.34-0.27-0.52-0.39c-5.56-4.2-10.08-9-13.59-13.47
	C217.6,254.24,211.87,238.16,211.87,229.87z M232.99,288.96v16.51c0,3.56-1.59,7.24-3.87,9.73c-3.16-1.2-6.68-1.37-9.97-0.37
	c0,0-0.01,0-0.01,0l-19.59,5.91C202.86,304.45,216.1,291.47,232.99,288.96z M275.86,441.59c-0.16-0.34-0.35-0.65-0.58-0.95
	c-2.56-6.78-5.81-15.35-9.42-24.78l5.3-29h9.18l5.3,29C281.87,425.74,278.48,434.68,275.86,441.59z"/>
</svg>
