<svg xmlns="http://www.w3.org/2000/svg" width="126" height="117" viewBox="0 0 126.2 116.8">
  <path fill="#FDFFFD" d="M66.3 26.1s17.7-10.7 19-10.7 22 3.3 27.7 14.3 11.2 28.1-9.7 49-53.7 31.7-53.7 31.7-44-53-42.7-62.3c1.3-9.3-2-31.7 21.7-41.7 0 0 24.7 2.3 31.3 9.3s6.4 10.4 6.4 10.4z"/>
  <path fill="#0AAD11" d="M49.7 116.7a7.3 7.3 0 0 1-4.5-2.7c-4.2-5.3-8.3-10.4-12-14.8C22.6 86.2 13.4 75 7.5 64.5A47.5 47.5 0 0 1 .7 31.8 39.6 39.6 0 0 1 15.4 6.9a34 34 0 0 1 27-6.3c7.2 1.3 14.4 2.8 19.4 8.3 1.4 1.4 5.2 5.2 6.9 8.9a34 34 0 0 1 8.9-6c6.8-3.2 12.6-2.5 19.8-1.2a34.3 34.3 0 0 1 23 15.4c5.1 8.1 6.9 18.2 5.1 28.5a47.2 47.2 0 0 1-17.9 28.2c-9.2 7.7-21.8 15-36.3 23.4l-16.5 9.6a7 7 0 0 1-5.1 1zM42.2 10.5c-7.2-1.3-14.3.4-20.1 4.7a31 31 0 0 0-11.3 19.2c-1.5 8.4.2 16.5 5.7 26.3 5.3 9.4 13.8 19.9 23.7 31.9l11.4 14.1 15.7-9.2A253.8 253.8 0 0 0 100.7 76a37.5 37.5 0 0 0 14.6-22.6c1.5-8 .1-15.8-3.8-21.9A25.7 25.7 0 0 0 94.4 20c-5.3-1-10.4-.2-15.3 2.4a34 34 0 0 0-9.7 7.8 4.6 4.6 0 0 1-4.1 1.5 4.4 4.4 0 0 1-3.4-2.8c-1.1-2.9-3-7.1-6.3-10.7a22.7 22.7 0 0 0-13.4-7.7z"/>
</svg>
