<svg xmlns="http://www.w3.org/2000/svg" width="113" height="115" viewBox="0 0 113.2 115">
  <path fill="#FFF" d="M8.7 84.1V62.4l7.2-12.6s17.1-9.3 17.9-9.9c.8-.6 3.1-3.7 5.1-5.8 2.1-2.1 5.8-7.2 6.8-8.4 1-1.2 3.9-4.1 5.8-5.6 1.9-1.4 8.9-6.8 11.1-7.6l7.2-2.5 8.4-1.4s7-1.2 10.1-1.2c3.1 0 8.2-.2 9.3 0 1 .2 6.6.8 8.2 1.4l4.1 1.4 3.1 3.9v97.6l-54.6-1.4-25.1-3.1s-2.7-.2-7.8-3.3-8.9-4.7-9.7-5.8c-.8-1-6.4-5.1-6.4-7s-.7-7-.7-7z"/>
  <path fill="#2399CA" d="M38.9 47.3c2.8 0 5.2-1.8 6.1-4.6a44.8 44.8 0 0 1 55.6-27.2c4.7 1.5 8.9 3.8 12.6 6.7v-16a58.2 58.2 0 0 0-78.9 27.7 38.3 38.3 0 0 0-24.3 13A42.6 42.6 0 0 0 .2 78.4 40.6 40.6 0 0 0 40.3 115h73v-13.5h-73a27.3 27.3 0 0 1-20.6-45.3 25.7 25.7 0 0 1 19.2-8.9z"/>
</svg>
