<?xml version="1.0" encoding="utf-8"?>
<!-- Generator: Adobe Illustrator 23.0.1, SVG Export Plug-In . SVG Version: 6.00 Build 0)  -->
<svg version="1.1" id="Capa_1" xmlns="http://www.w3.org/2000/svg" xmlns:xlink="http://www.w3.org/1999/xlink" x="0px" y="0px"
	 viewBox="0 0 268.9 286.9" style="enable-background:new 0 0 268.9 286.9;" xml:space="preserve">
<style type="text/css">
	.st0{display:none;fill:#FF8125;}
	.st1{fill:#E2EBF9;}
	.st2{fill:#FFFFFF;}
	.st3{fill:#606060;}
	.st4{fill:#FF8125;}
</style>
<path class="st0" d="M-471.3,154c-2.8-0.2-6.1,0.2-8.6-0.9c-3.3-1.4-4.2-4.8-3.5-8.5c1.4-7.4,3.3-14.7,3.8-22.1
	c2.1-29.9-4.4-58.6-13.2-86.8c-1-3.2-2.2-6.3-3.1-9.5c-1.2-4.4,0.9-8.2,5-9.6c3.8-1.3,8.2,0.6,9.7,4.8
	c12.8,37.1,21.6,74.9,15.7,114.6c-0.6,4.1-1.7,8.1-2.8,12.2C-468.8,149.8-469.9,151.3-471.3,154z"/>
<path class="st0" d="M-834.5,161.1c2.8-0.2,6.1,0.2,8.7-0.9c3.3-1.4,4.2-4.8,3.5-8.5c-1.4-7.4-3.3-14.7-3.8-22.1
	c-2.2-29.9,4.4-58.6,13.2-86.8c1-3.2,2.2-6.3,3.1-9.5c1.2-4.5-0.9-8.2-5-9.6c-3.8-1.3-8.2,0.6-9.7,4.8
	c-12.8,37.1-21.6,74.9-15.7,114.6c0.6,4.1,1.7,8.1,2.8,12.2C-837,156.9-835.9,158.4-834.5,161.1z"/>
<path class="st1" d="M268.2,250.6v13.2H1.2v-0.2c0-2.2,0.1-4.4,0.1-6.6c0-0.6,0.1-1.2,0.1-1.7c0.3-35.5,11.2-68.3,25.2-100.4
	c9.2-21,14.9-42.9,13.4-66.1c-0.8-13.4-2.5-26.8-3.7-40.2c-0.7-8.8-1.3-17.6-1.7-26.4c0,0,0-0.1,0-0.1h200.1c0,0.4,0,0.9,0,1.4
	c-1.1,15-1.5,30.1-3.7,45c-4.5,30.7-0.1,59.9,12.4,88.2c8.1,18.3,15.7,36.9,19.4,56.7C265.1,225.7,266.5,238.1,268.2,250.6z"/>
<path class="st2" d="M234.4,250.6v13.2H1.2v-0.2c0-2.2,0.1-4.4,0.1-6.6c0-0.6,0.1-1.2,0.1-1.7c0.3-35.5,11.2-68.3,25.2-100.4
	c9.2-21,14.9-42.9,13.4-66.1c-0.8-13.4-2.5-26.8-3.7-40.2c-0.7-8.8-1.3-17.6-1.7-26.4c0,0,0-0.1,0-0.1H201c0,0.4,0,0.9,0,1.4
	c-1.1,15-1.5,30.1-3.7,45c-4.5,30.7-0.1,59.9,12.4,88.2c8.1,18.3,15.7,36.9,19.4,56.7C231.3,225.7,232.8,238.1,234.4,250.6z"/>
<g>
	<path class="st3" d="M40.3,152.4c-6,15.7-12.5,31.2-18,47c-7.3,20.7-10.1,42.3-10.2,64.2v0.1c0,5.4-1.8,8-5.3,8.1
		c-3.7,0.1-5.5-2.6-5.5-8.1v-0.2c0-2.2,0.1-4.4,0.1-6.6c0-0.6,0.1-1.2,0.1-1.7c0.3-35.5,11.2-68.3,25.2-100.4
		c9.2-21,14.9-42.9,13.4-66.1c-0.8-13.4-2.5-26.8-3.7-40.2c-0.7-8.8-1.3-17.6-1.7-26.4c0,0,0-0.1,0-0.1c-0.1-3.5,2.2-5.9,5.3-6
		c3.1-0.1,5.3,2.3,5.6,5.9c0,0,0,0.1,0,0.1c1.6,19.1,3.1,38.3,4.8,57.4C52.5,104.5,49.2,128.8,40.3,152.4z"/>
	<path class="st3" d="M268.2,255.4c0,2.8,0,5.6,0,8.3c0,0.6,0,1.2,0,1.8c0,3.8-2.3,6.4-5.4,6.3c-3.2,0-5.4-2.5-5.4-6.4
		c0-0.6,0-1.2,0-1.8c-0.1-17.7-1.5-35.3-6.7-52.2c-5.5-17.7-12.2-34.9-19-52.2c-8.9-22.6-14.4-45.8-13-70.2
		c0.9-15.6,2.8-31.2,4.2-46.7c0.5-6.3,0.8-12.7,1.1-19.1c0-0.5,0.1-0.9,0.1-1.4c0.5-3.9,2.3-6,5.4-6c3.1,0,5.2,2.2,5.4,6
		c0,0.4,0,0.9,0,1.4c-1.1,15-1.5,30.1-3.7,45c-4.5,30.7-0.1,59.9,12.4,88.2c8.1,18.3,15.7,36.9,19.4,56.7
		c2.3,12.3,3.7,24.8,5.4,37.2c0.2,1.6,0.4,3.2,0.6,4.7C268.6,255.3,268.4,255.4,268.2,255.4z"/>
	<path class="st4" d="M124.8,163.2c-0.1-5.3,2.7-9.2,6.6-12.4c2.4-1.9,5.3-1.6,7.2,0.6c2,2.3,2,4.8,0,7.2c-0.7,0.8-1.5,1.5-2.1,2.3
		c-1.7,2.1-1.7,3.9,0.5,6c1.4,1.4,2.8,3.6,2.8,5.5c0,4.1-5.1,6.1-8.5,3.6C127.1,172.8,124.8,168.6,124.8,163.2z"/>
</g>
</svg>
