<?xml version="1.0" encoding="utf-8"?>
<!-- Generator: Adobe Illustrator 23.0.1, SVG Export Plug-In . SVG Version: 6.00 Build 0)  -->
<svg version="1.1" id="Capa_1" xmlns="http://www.w3.org/2000/svg" xmlns:xlink="http://www.w3.org/1999/xlink" x="0px" y="0px"
	 viewBox="0 0 528 528.35" style="enable-background:new 0 0 528 528.35;" xml:space="preserve">
<style type="text/css">
	.st0{fill:#E2EBF9;}
	.st1{fill:#FFFFFF;}
	.st2{fill:#434C54;}
	.st3{fill:#FF914D;}
	.st4{fill:#1AE5BE;}
</style>
<circle class="st0" cx="266.12" cy="260.47" r="247.06"/>
<circle class="st1" cx="266.12" cy="260.47" r="215.69"/>
<path class="st2" d="M202.65,189.01H175.1c-5.57,0-10.08,4.52-10.08,10.08c0,5.57,4.51,10.08,10.08,10.08h17.47V328
	c0,5.56,4.51,10.08,10.08,10.08c5.57,0,10.08-4.52,10.08-10.08V199.09C212.73,193.53,208.22,189.01,202.65,189.01z M292.09,242.67
	c-4.99,0-9.81,0.79-14.33,2.23c12.43-24.03,29.11-36.86,29.34-37.03c4.46-3.32,5.39-9.64,2.07-14.1c-3.33-4.47-9.89-5.62-14.1-2.07
	c-29.89,25.76-50.33,59.96-50.33,98.33c0,26.11,21.24,47.35,47.35,47.35c26.11,0,47.36-21.24,47.36-47.35
	S318.21,242.67,292.09,242.67z M292.09,317.23c-14.99,0-27.19-12.2-27.19-27.2s12.2-27.2,27.19-27.2c15,0,27.2,12.2,27.2,27.2
	S307.09,317.23,292.09,317.23z M419.69,189.01h-15.56v-16.23c0-5.56-4.51-10.07-10.08-10.07c-5.56,0-10.08,4.51-10.08,10.07v16.23
	h-16.9c-5.56,0-10.08,4.52-10.08,10.08c0,5.57,4.52,10.08,10.08,10.08h16.9v16.23c0,5.57,4.52,10.08,10.08,10.08
	c5.57,0,10.08-4.51,10.08-10.08v-16.23h15.56c5.56,0,10.07-4.51,10.07-10.08C429.76,193.53,425.25,189.01,419.69,189.01z
	 M292.09,242.67c-4.99,0-9.81,0.79-14.33,2.23c12.43-24.03,29.11-36.86,29.34-37.03c4.46-3.32,5.39-9.64,2.07-14.1
	c-3.33-4.47-9.89-5.62-14.1-2.07c-29.89,25.76-50.33,59.96-50.33,98.33c0,26.11,21.24,47.35,47.35,47.35
	c26.11,0,47.36-21.24,47.36-47.35S318.21,242.67,292.09,242.67z M292.09,317.23c-14.99,0-27.19-12.2-27.19-27.2
	s12.2-27.2,27.19-27.2c15,0,27.2,12.2,27.2,27.2S307.09,317.23,292.09,317.23z M202.65,189.01H175.1c-5.57,0-10.08,4.52-10.08,10.08
	c0,5.57,4.51,10.08,10.08,10.08h17.47V328c0,5.56,4.51,10.08,10.08,10.08c5.57,0,10.08-4.52,10.08-10.08V199.09
	C212.73,193.53,208.22,189.01,202.65,189.01z M419.69,189.01h-15.56v-16.23c0-5.56-4.51-10.07-10.08-10.07
	c-5.56,0-10.08,4.51-10.08,10.07v16.23h-16.9c-5.56,0-10.08,4.52-10.08,10.08c0,5.57,4.52,10.08,10.08,10.08h16.9v16.23
	c0,5.57,4.52,10.08,10.08,10.08c5.57,0,10.08-4.51,10.08-10.08v-16.23h15.56c5.56,0,10.07-4.51,10.07-10.08
	C429.76,193.53,425.25,189.01,419.69,189.01z M266.12,44.78c-118.93,0-215.69,96.76-215.69,215.69s96.76,215.69,215.69,215.69
	s215.69-96.76,215.69-215.69S385.05,44.78,266.12,44.78z M266.12,456c-107.81,0-195.53-87.72-195.53-195.53
	S158.31,64.94,266.12,64.94s195.53,87.72,195.53,195.53S373.93,456,266.12,456z M292.09,242.67c-4.99,0-9.81,0.79-14.33,2.23
	c12.43-24.03,29.11-36.86,29.34-37.03c4.46-3.32,5.39-9.64,2.07-14.1c-3.33-4.47-9.89-5.62-14.1-2.07
	c-29.89,25.76-50.33,59.96-50.33,98.33c0,26.11,21.24,47.35,47.35,47.35c26.11,0,47.36-21.24,47.36-47.35
	S318.21,242.67,292.09,242.67z M292.09,317.23c-14.99,0-27.19-12.2-27.19-27.2s12.2-27.2,27.19-27.2c15,0,27.2,12.2,27.2,27.2
	S307.09,317.23,292.09,317.23z M202.65,189.01H175.1c-5.57,0-10.08,4.52-10.08,10.08c0,5.57,4.51,10.08,10.08,10.08h17.47V328
	c0,5.56,4.51,10.08,10.08,10.08c5.57,0,10.08-4.52,10.08-10.08V199.09C212.73,193.53,208.22,189.01,202.65,189.01z M419.69,189.01
	h-15.56v-16.23c0-5.56-4.51-10.07-10.08-10.07c-5.56,0-10.08,4.51-10.08,10.07v16.23h-16.9c-5.56,0-10.08,4.52-10.08,10.08
	c0,5.57,4.52,10.08,10.08,10.08h16.9v16.23c0,5.57,4.52,10.08,10.08,10.08c5.57,0,10.08-4.51,10.08-10.08v-16.23h15.56
	c5.56,0,10.07-4.51,10.07-10.08C429.76,193.53,425.25,189.01,419.69,189.01z M202.65,189.01H175.1c-5.57,0-10.08,4.52-10.08,10.08
	c0,5.57,4.51,10.08,10.08,10.08h17.47V328c0,5.56,4.51,10.08,10.08,10.08c5.57,0,10.08-4.52,10.08-10.08V199.09
	C212.73,193.53,208.22,189.01,202.65,189.01z M292.09,242.67c-4.99,0-9.81,0.79-14.33,2.23c12.43-24.03,29.11-36.86,29.34-37.03
	c4.46-3.32,5.39-9.64,2.07-14.1c-3.33-4.47-9.89-5.62-14.1-2.07c-29.89,25.76-50.33,59.96-50.33,98.33
	c0,26.11,21.24,47.35,47.35,47.35c26.11,0,47.36-21.24,47.36-47.35S318.21,242.67,292.09,242.67z M292.09,317.23
	c-14.99,0-27.19-12.2-27.19-27.2s12.2-27.2,27.19-27.2c15,0,27.2,12.2,27.2,27.2S307.09,317.23,292.09,317.23z M419.69,189.01
	h-15.56v-16.23c0-5.56-4.51-10.07-10.08-10.07c-5.56,0-10.08,4.51-10.08,10.07v16.23h-16.9c-5.56,0-10.08,4.52-10.08,10.08
	c0,5.57,4.52,10.08,10.08,10.08h16.9v16.23c0,5.57,4.52,10.08,10.08,10.08c5.57,0,10.08-4.51,10.08-10.08v-16.23h15.56
	c5.56,0,10.07-4.51,10.07-10.08C429.76,193.53,425.25,189.01,419.69,189.01z M91.76,77.04c-5.57,0-10.08,4.51-10.08,10.08
	c0,5.56,4.51,10.07,10.08,10.07c5.56,0,10.08-4.51,10.08-10.07C101.84,81.55,97.32,77.04,91.76,77.04z M447.14,79.45
	C358.47-9.22,220.92-19.25,121.2,49.38c-4.58,3.15-5.74,9.43-2.59,14.02c3.15,4.59,9.43,5.75,14.02,2.59
	C224.49,2.78,351.2,12.02,432.89,93.7c92.1,92.11,92.1,241.43,0,333.54c-92.11,92.1-241.43,92.1-333.54,0
	C17.73,345.62,8.44,219.05,71.49,127.2c3.15-4.59,1.98-10.86-2.61-14.01c-4.59-3.15-10.87-1.98-14.02,2.61
	C-13.58,215.5-3.5,352.89,85.1,441.49c99.97,99.97,262.07,99.97,362.04,0S547.11,179.42,447.14,79.45z M419.69,189.01h-15.56v-16.23
	c0-5.56-4.51-10.07-10.08-10.07c-5.56,0-10.08,4.51-10.08,10.07v16.23h-16.9c-5.56,0-10.08,4.52-10.08,10.08
	c0,5.57,4.52,10.08,10.08,10.08h16.9v16.23c0,5.57,4.52,10.08,10.08,10.08c5.57,0,10.08-4.51,10.08-10.08v-16.23h15.56
	c5.56,0,10.07-4.51,10.07-10.08C429.76,193.53,425.25,189.01,419.69,189.01z M202.65,189.01H175.1c-5.57,0-10.08,4.52-10.08,10.08
	c0,5.57,4.51,10.08,10.08,10.08h17.47V328c0,5.56,4.51,10.08,10.08,10.08c5.57,0,10.08-4.52,10.08-10.08V199.09
	C212.73,193.53,208.22,189.01,202.65,189.01z M292.09,242.67c-4.99,0-9.81,0.79-14.33,2.23c12.43-24.03,29.11-36.86,29.34-37.03
	c4.46-3.32,5.39-9.64,2.07-14.1c-3.33-4.47-9.89-5.62-14.1-2.07c-29.89,25.76-50.33,59.96-50.33,98.33
	c0,26.11,21.24,47.35,47.35,47.35c26.11,0,47.36-21.24,47.36-47.35S318.21,242.67,292.09,242.67z M292.09,317.23
	c-14.99,0-27.19-12.2-27.19-27.2s12.2-27.2,27.19-27.2c15,0,27.2,12.2,27.2,27.2S307.09,317.23,292.09,317.23z"/>
<path class="st0" d="M212.73,199.09V328c0,5.56-4.51,10.08-10.08,10.08c-5.57,0-10.08-4.52-10.08-10.08V209.17H175.1
	c-5.57,0-10.08-4.51-10.08-10.08c0-5.56,4.51-10.08,10.08-10.08h27.55C208.22,189.01,212.73,193.53,212.73,199.09z"/>
<path class="st0" d="M292.09,242.67c-4.99,0-9.81,0.79-14.33,2.23c12.43-24.03,29.11-36.86,29.34-37.03
	c4.46-3.32,5.39-9.64,2.07-14.1c-3.33-4.47-9.89-5.62-14.1-2.07c-29.89,25.76-50.33,59.96-50.33,98.33
	c0,26.11,21.24,47.35,47.35,47.35c26.11,0,47.36-21.24,47.36-47.35S318.21,242.67,292.09,242.67z M292.09,317.23
	c-14.99,0-27.19-12.2-27.19-27.2s12.2-27.2,27.19-27.2c15,0,27.2,12.2,27.2,27.2S307.09,317.23,292.09,317.23z"/>
<path class="st3" d="M216.97,198.38v128.91c0,5.56-4.51,10.08-10.08,10.08c-5.57,0-10.08-4.52-10.08-10.08V208.46h-17.47
	c-5.57,0-10.08-4.51-10.08-10.08c0-5.56,4.51-10.08,10.08-10.08h27.55C212.46,188.3,216.97,192.82,216.97,198.38z"/>
<path class="st3" d="M296.33,241.96c-4.99,0-9.81,0.79-14.33,2.23c12.43-24.03,29.11-36.86,29.34-37.03
	c4.46-3.32,5.39-9.64,2.07-14.1c-3.33-4.47-9.89-5.62-14.1-2.07c-29.89,25.76-50.33,59.96-50.33,98.33
	c0,26.11,21.24,47.35,47.35,47.35c26.11,0,47.36-21.24,47.36-47.35S322.45,241.96,296.33,241.96z M296.33,316.52
	c-14.99,0-27.19-12.2-27.19-27.2s12.2-27.2,27.19-27.2c15,0,27.2,12.2,27.2,27.2S311.33,316.52,296.33,316.52z"/>
<path class="st4" d="M429.76,199.09c0,5.57-4.51,10.08-10.07,10.08h-15.56v16.23c0,5.57-4.51,10.08-10.08,10.08
	c-5.56,0-10.08-4.51-10.08-10.08v-16.23h-16.9c-5.56,0-10.08-4.51-10.08-10.08c0-5.56,4.52-10.08,10.08-10.08h16.9v-16.23
	c0-5.56,4.52-10.07,10.08-10.07c5.57,0,10.08,4.51,10.08,10.07v16.23h15.56C425.25,189.01,429.76,193.53,429.76,199.09z"/>
<path class="st2" d="M-27.78,124.05c0.1,0.1,0.3,0.2,0.4,0.3C-27.48,124.25-27.58,124.15-27.78,124.05z"/>
<path class="st2" d="M-28.38,123.65c0.2,0.1,0.4,0.2,0.5,0.3C-28.08,123.85-28.18,123.75-28.38,123.65z"/>
<path class="st2" d="M-27.18,124.45c0.1,0.1,0.3,0.2,0.4,0.3C-26.98,124.65-27.08,124.55-27.18,124.45z"/>
<path class="st2" d="M-26.68,124.85c0.1,0.1,0.2,0.2,0.3,0.3C-26.48,125.05-26.58,124.95-26.68,124.85z"/>
<path class="st2" d="M-29.08,123.25c0.2,0.1,0.4,0.2,0.6,0.3C-28.68,123.45-28.88,123.35-29.08,123.25z"/>
<path class="st2" d="M-29.78,122.85c0.2,0.1,0.5,0.2,0.7,0.4C-29.38,123.05-29.58,122.95-29.78,122.85z"/>
<path class="st2" d="M-26.18,125.25c0.1,0.1,0.3,0.3,0.4,0.4C-25.98,125.55-26.08,125.45-26.18,125.25z"/>
<path class="st2" d="M-29.08,123.15C-29.08,123.25-29.08,123.25-29.08,123.15C-29.08,123.25-29.08,123.15-29.08,123.15z"/>
<path class="st2" d="M-28.48,123.55C-28.48,123.55-28.38,123.55-28.48,123.55C-28.38,123.55-28.48,123.55-28.48,123.55z"/>
<path class="st2" d="M-29.78,122.85L-29.78,122.85L-29.78,122.85z"/>
<path class="st2" d="M-27.88,123.95c0,0,0.1,0,0.1,0.1C-27.78,123.95-27.88,123.95-27.88,123.95z"/>
<path class="st2" d="M-27.28,124.35l0.1,0.1C-27.28,124.35-27.28,124.35-27.28,124.35z"/>
<path class="st2" d="M-26.78,124.75l0.1,0.1C-26.68,124.85-26.78,124.75-26.78,124.75z"/>
<path class="st2" d="M-26.38,125.15l0.1,0.1C-26.28,125.25-26.28,125.15-26.38,125.15z"/>
</svg>
