<?xml version="1.0" encoding="utf-8"?>
<!-- Generator: Adobe Illustrator 23.0.1, SVG Export Plug-In . SVG Version: 6.00 Build 0)  -->
<svg version="1.1" id="Capa_1" xmlns="http://www.w3.org/2000/svg" xmlns:xlink="http://www.w3.org/1999/xlink" x="0px" y="0px"
	 viewBox="0 0 272.47 468.71" style="enable-background:new 0 0 272.47 468.71;" xml:space="preserve">
<style type="text/css">
	.st0{fill:#E2EBF9;}
	.st1{fill:#FFFFFF;}
	.st2{fill:#606060;}
	.st3{fill:#FF8125;}
</style>
<path class="st0" d="M137.18,342.1c-6.05,6.76-7.99,13.55-4.42,21.86c0.13,0.31,0.28,0.61,0.39,0.92
	c8.95,25.73,11.15,21.94,0.01,54.73c-4.1,12.06-10.13,23.49-15.65,35.03c-0.23,0.48-0.47,0.93-0.73,1.36H98.77
	c-1.03-2.29-1.15-5.23-0.48-8.82c2.44-13.25,4.65-26.54,6.72-39.85c0.3-1.97-0.36-4.27-1.14-6.19c-4.4-10.78-8.87-21.54-13.51-32.22
	c-0.9-2.07-1.66-4.12-2.29-6.17c-0.01-0.04-0.03-0.09-0.04-0.13c-0.18-0.58-0.34-1.16-0.5-1.74c-0.16-0.57-0.3-1.14-0.43-1.71
	c-0.03-0.11-0.06-0.22-0.08-0.33c-0.13-0.56-0.25-1.12-0.35-1.68c-0.11-0.56-0.21-1.12-0.3-1.68c-0.03-0.14-0.05-0.28-0.06-0.42
	c-0.08-0.52-0.15-1.04-0.21-1.55c-0.01-0.03-0.01-0.05-0.01-0.07c-0.06-0.54-0.12-1.08-0.16-1.61c-0.02-0.19-0.03-0.38-0.04-0.56
	c-0.04-0.49-0.06-0.96-0.08-1.44c-0.01-0.04-0.01-0.07,0-0.1c-0.03-0.6-0.04-1.19-0.04-1.78c-0.01-8.92,2.53-17.69,7.45-26.41
	c22.35-39.55,47.85-76.89,77.13-111.65c1.38-1.65,2.71-3.35,3.45-4.26c-26.39-26.9-52.35-53.36-78.12-79.63
	c-3.74,11.6-7.28,24.38-11.95,36.73c-0.7,1.85-1.4,3.7-2.11,5.55c-9.31,24.59-18.77,49.12-28.95,73.36
	c-9.7,23.09-8.14,44.41,5.63,65.43c29.69,45.3,35.94,94.02,20,145.69c-0.33,1.09-0.7,2.17-1.14,3.23c-0.01,0-0.01,0.01-0.02,0.01
	H42.35c-1.78,0-3.52-0.16-5.2-0.48c-13.11-2.44-23.03-13.94-23.03-27.75V74.82c0-16.9,6.06-32.38,16.12-44.39
	c2.64-3.16,5.57-6.08,8.73-8.72c3.45-2.88,7.19-5.43,11.16-7.61c15.79,2.86,31.66,5.5,47.23,9.33
	c15.56,3.83,29.09,12.16,41.28,22.58c42.29,36.11,81.4,75.39,117.42,117.75c5.84,6.87,8.82,14.66,8.82,22.44
	c0,7.69-2.92,15.37-8.87,22.11C216.53,253.02,176.94,297.64,137.18,342.1z"/>
<path class="st1" d="M61.76,312.54c26.7,43.74,31.84,90.62,16.54,140.22c-0.29,0.95-0.61,1.9-0.98,2.83
	c-0.06,0.14-0.11,0.28-0.18,0.41c-1.97,4.5-5.94,6.56-10.04,5.18c-2.65-0.89-4.34-2.75-5.01-5.18c-0.47-1.69-0.45-3.65,0.07-5.75
	c2.65-10.8,5.97-21.55,7.34-32.54c3.97-31.98-1.67-62.03-17-89.51C55.53,322.94,58.61,317.72,61.76,312.54z"/>
<path class="st1" d="M14.54,319.07c27.91,42.59,35.11,88.2,22.61,136.45c-13.11-2.44-23.03-13.94-23.03-27.75V318.41
	C14.25,318.63,14.4,318.85,14.54,319.07z"/>
<path class="st1" d="M221.12,198.2c0,7.69-2.92,15.37-8.87,22.11c-36.63,41.49-73.36,82.9-110.24,124.17
	c-2.86,3.21-5.72,6.42-8.59,9.62c-2.54,2.84-4.36,5.69-5.35,8.65c-0.01-0.04-0.03-0.09-0.04-0.13c-0.18-0.58-0.34-1.16-0.5-1.74
	c-0.16-0.57-0.3-1.14-0.43-1.71c-0.03-0.11-0.06-0.22-0.08-0.33c-0.13-0.56-0.25-1.12-0.35-1.68c-0.11-0.56-0.21-1.12-0.3-1.68
	c-0.03-0.14-0.05-0.28-0.06-0.42c-0.08-0.52-0.15-1.04-0.21-1.55c-0.01-0.03-0.01-0.05-0.01-0.07c-0.06-0.54-0.12-1.08-0.16-1.61
	c-0.02-0.19-0.03-0.38-0.04-0.56c-0.04-0.49-0.06-0.96-0.08-1.44c-0.01-0.04-0.01-0.07,0-0.1c-0.03-0.6-0.04-1.19-0.04-1.78
	c-0.01-8.92,2.53-17.69,7.45-26.41c22.35-39.55,47.85-76.89,77.13-111.65c1.38-1.65,2.71-3.35,3.45-4.26
	c-26.39-26.9-52.35-53.36-78.12-79.63c-3.74,11.6-7.28,24.38-11.95,36.73c-0.7,1.85-1.4,3.7-2.11,5.55
	c-4.09-4.18-8.18-8.34-12.25-12.5c-5.83-5.94-11.65-11.86-17.45-17.78c-3.74,11.6-7.28,24.38-11.95,36.73
	c-8.39,22.19-16.86,44.36-25.85,66.32V74.82c0-16.9,6.06-32.38,16.12-44.39c7.82,1.49,15.63,3.09,23.36,5
	c15.56,3.83,29.09,12.16,41.28,22.58c42.29,36.11,81.4,75.39,117.42,117.75C218.14,182.63,221.12,190.42,221.12,198.2z"/>
<g>
	<path class="st2" d="M137.18,342.1c-6.05,6.76-7.99,13.55-4.42,21.86c0.13,0.31,0.28,0.61,0.39,0.92
		c8.95,25.73,11.15,21.94,0.01,54.73c-4.1,12.06-10.13,23.49-15.65,35.03c-0.23,0.48-0.47,0.93-0.73,1.36
		c-3.06,5.19-7.82,6.75-12.69,4.8c-2.63-1.05-4.37-2.64-5.32-4.8c-1.03-2.29-1.15-5.23-0.48-8.82c2.44-13.25,4.65-26.54,6.72-39.85
		c0.3-1.97-0.36-4.27-1.14-6.19c-4.4-10.78-8.87-21.54-13.51-32.22c-0.9-2.07-1.66-4.12-2.29-6.17c-4.36-14.1-2.47-27.72,5.15-41.21
		c22.35-39.55,47.85-76.89,77.13-111.65c1.38-1.65,2.71-3.35,3.45-4.26c-26.39-26.9-52.35-53.36-78.12-79.63
		c-3.74,11.6-7.28,24.38-11.95,36.73c-0.7,1.85-1.4,3.7-2.11,5.55c-9.31,24.59-18.77,49.12-28.95,73.36
		c-9.7,23.09-8.14,44.41,5.63,65.43c1.19,1.82,2.34,3.64,3.46,5.47c26.7,43.74,31.84,90.62,16.54,140.22
		c-0.29,0.95-0.61,1.9-0.98,2.83c-0.06,0.14-0.11,0.28-0.18,0.41c-1.97,4.5-5.94,6.56-10.04,5.18c-2.65-0.89-4.34-2.75-5.01-5.18
		c-0.47-1.69-0.45-3.65,0.07-5.75c2.65-10.8,5.97-21.55,7.34-32.54c3.97-31.98-1.67-62.03-17-89.51c-2.03-3.67-4.25-7.29-6.64-10.86
		c-18.09-27.05-20.31-54.68-6.85-84.19c11.52-25.27,21.62-51.08,30.36-77.37c4.74-14.25,9.09-28.65,13.05-43.17
		c0.56-2.04,0.14-4.89-0.93-6.72c-2.98-5.09-2.85-9.61,1.06-12.4c3.95-2.8,8.36-1.84,12.05,2.98c19.3,25.17,40.28,48.85,63.19,70.78
		c8.54,8.18,17.43,16,26.22,23.91c8.47,7.62,9.31,16.23,1.91,24.97c-29.9,35.33-56.19,73.13-78.87,113.48
		c-2.79,4.95-4.49,9.88-5.04,14.87c-0.65,5.91,0.31,11.9,3.01,18.09c5.05,11.59,9.8,23.31,14.71,34.96c0.56,1.34,1.3,2.61,2.07,4.13
		c3.04-6.71,3.35-13.05,0.55-19.56c-1.71-3.97-2.88-8.16-4.49-12.17c-6.02-14.96-2.77-27.66,8.17-39.38
		c21.6-23.14,42.95-46.53,63.99-70.19c18.04-20.29,35.55-41.06,53.22-61.69c7.62-8.89,7.44-16.47-0.18-25.43
		c-35.05-41.22-73.25-79.28-114.21-114.62C111.69,43.8,91.56,36.57,69.49,33.57c-7.91-1.08-15.77-2.61-23.62-4.09
		c-4.28-0.8-6.9-3.95-6.9-7.77c0-0.38,0.03-0.77,0.08-1.16c0.58-4.35,4.37-7.66,8.88-6.84c0.73,0.13,1.47,0.27,2.2,0.39
		c15.79,2.86,31.66,5.5,47.23,9.33c15.56,3.83,29.09,12.16,41.28,22.58c42.29,36.11,81.4,75.39,117.42,117.75
		c5.84,6.87,8.82,14.66,8.82,22.44c0,7.69-2.92,15.37-8.87,22.11C216.53,253.02,176.94,297.64,137.18,342.1z"/>
</g>
<path class="st3" d="M196.7,178.25c-2.15,0.43-4.4,1.46-6.68,1.21c-2.94-0.32-4.76-2.54-5.51-5.32c-1.49-5.54-2.6-11.17-4.75-16.57
	c-8.64-21.77-23.25-40.84-39.43-59.13c-1.82-2.05-3.79-4.01-5.51-6.12c-2.38-2.93-2.16-6.02,0.37-7.91
	c2.37-1.77,6.25-1.33,8.78,1.39c22.15,23.78,41.58,48.8,50.78,78.38c0.95,3.06,1.55,6.17,2.1,9.26
	C197.09,174.74,196.79,176.06,196.7,178.25z"/>
</svg>
