<?xml version="1.0" encoding="utf-8"?>
<!-- Generator: Adobe Illustrator 23.0.1, SVG Export Plug-In . SVG Version: 6.00 Build 0)  -->
<svg version="1.1" id="Capa_1" xmlns="http://www.w3.org/2000/svg" xmlns:xlink="http://www.w3.org/1999/xlink" x="0px" y="0px"
	 viewBox="0 0 240.04 234.18" style="enable-background:new 0 0 240.04 234.18;" xml:space="preserve">
<style type="text/css">
	.st0{fill:#E2EBF9;}
	.st1{fill:#FFFFFF;}
	.st2{fill:#606060;}
	.st3{fill:#FF8125;}
</style>
<g>
	<path class="st0" d="M204.56,234.18c-61.33,0-122.67,0-184,0c0.17-2.98,0.62-5.97,0.45-8.93c-0.76-12.96-1.7-25.92-2.59-38.87
		c-2.38-34.61-2.39-69.24-0.75-103.88c0.2-4.18,1.53-6.57,5.55-8.16c12.71-5.04,25.85-7.21,39.48-7.33
		c20.2-0.18,39.54,3.29,56.84,14.15c19.93,12.5,34.31,29.42,36.26,53.79c1.59,19.89-2.11,27.59-20.39,37.66
		c-5.32,2.93-11.34,4.73-17.2,6.5c-5.76,1.74-11.73,2.78-17.61,4.12c14.06,3.18,27.38,0.95,40.29-5.15
		c-0.06,18.77-2.4,36.88,0.7,54.98c4.7-17.83,4.83-36.22,6.68-54.68c16.8,2.24,33.11,4.41,49.41,6.58c0.08-0.46,0.17-0.92,0.25-1.38
		c-14.91-6.32-30.92-8.64-47.86-12.01c35.8-19.58,53.49-52.57,70.3-86.52c10.37,33.99,12.31,66.71-12.6,96.09
		c-2.32,2.74-4.43,6.73-4.44,10.15C203.29,205.59,204.08,219.88,204.56,234.18z"/>
	<path class="st1" d="M200.52,172.75c-1.88,2.83-3.99,5.63-6.34,8.4c-0.2,0.23-0.39,0.47-0.58,0.72c-0.56,0.72-1.1,1.51-1.58,2.34
		c-1.32,2.25-2.27,4.8-2.28,7.09c-0.05,14.29,0.74,28.58,1.22,42.88H19.55c-0.57-1.86-1.09-3.72-1.59-5.58
		c-0.23-0.88-0.45-1.76-0.66-2.64c-0.4-1.61-0.77-3.23-1.12-4.86c-0.45-2.11-0.86-4.23-1.24-6.35c-0.13-0.73-0.26-1.46-0.37-2.19
		c-0.2-1.18-0.39-2.36-0.56-3.54c-0.25-1.65-0.48-3.3-0.7-4.95c-0.01-0.11-0.02-0.22-0.04-0.33c-0.22-1.75-0.43-3.5-0.62-5.25
		c-0.12-1.05-0.23-2.1-0.33-3.16c-0.17-1.72-0.34-3.44-0.49-5.17c-0.01-0.15-0.03-0.3-0.04-0.45c-0.12-1.35-0.23-2.71-0.34-4.06
		c-0.11-1.35-0.21-2.71-0.31-4.06c-0.11-1.36-0.2-2.71-0.3-4.07c-0.1-1.36-0.19-2.71-0.29-4.07c-0.38-5.42-0.67-10.85-1-16.27v-54
		c0.24-1.12,0.67-2.24,0.7-3.37c0.25-8.75,0.63-17.5,1.25-26.2c12.12-4.53,24.64-6.5,37.59-6.61c2.81-0.03,5.6,0.02,8.37,0.15h0.05
		c17.16,0.78,33.54,4.65,48.43,14c19.93,12.5,34.31,29.42,36.26,53.79c1.58,19.9-2.12,27.6-20.4,37.66
		c-5.32,2.93-11.33,4.74-17.2,6.51c-5.76,1.73-11.73,2.77-17.61,4.12c6.7,1.51,13.22,1.8,19.62,1.03
		c7.03-0.85,13.91-2.98,20.67-6.18c-0.01,1.64-0.03,3.27-0.07,4.9c-0.05,2.25-0.12,4.5-0.2,6.73c-0.53,14.67-1.48,29.02,0.98,43.35
		c3.75-14.22,4.59-28.78,5.72-43.46c0.22-2.94,0.46-5.88,0.73-8.82c0.07-0.8,0.15-1.6,0.23-2.4l4.29,0.57h0.01
		c0.64,0.09,1.26,0.17,1.9,0.26c2.42,0.32,4.83,0.64,7.23,0.96c8.31,1.1,16.51,2.2,24.69,3.29h0.01l11.28,1.5
		c0.09-0.46,0.17-0.92,0.26-1.38c-0.47-0.2-0.93-0.39-1.4-0.58c-1.28-0.52-2.56-1.01-3.85-1.47c-13.25-4.75-27.29-6.92-42.06-9.84
		c-0.18-0.04-0.37-0.07-0.55-0.11c3.07-1.68,6.01-3.46,8.83-5.33c0.01,0,0.02-0.02,0.02-0.02c0.01-0.01,0.02-0.02,0.03-0.02
		c0.01-0.01,0.01-0.01,0.02-0.02c29.96-19.91,46.05-50.13,61.4-81.14c1.82,5.95,3.37,11.87,4.57,17.73
		C216.36,127.24,215.15,150.83,200.52,172.75z"/>
	<path class="st2" d="M234.55,114.18v19c-0.22,0.62-0.6,1.23-0.64,1.87c-0.36,6.33-1.35,12.4-2.98,18.2
		c-3.34,12.02-9.39,22.92-18.16,32.75c-1.8,2.02-2.69,5.29-3.03,8.1c-1.58,13.34-2.82,26.71-4.19,40.08h-1
		c-0.48-14.3-1.26-28.59-1.21-42.88c0.01-3.42,2.12-7.42,4.44-10.15c0.35-0.41,0.69-0.83,1.03-1.24c0.31-0.37,0.61-0.75,0.9-1.12
		c0.06-0.07,0.11-0.13,0.17-0.2c0.3-0.39,0.6-0.78,0.9-1.17c1.32-1.71,2.54-3.44,3.68-5.18c0.24-0.37,0.48-0.73,0.71-1.1
		c0.87-1.37,1.69-2.74,2.45-4.12c0.18-0.32,0.36-0.65,0.53-0.97c0.46-0.86,0.91-1.71,1.33-2.57c0.16-0.32,0.32-0.65,0.47-0.98
		c0.19-0.39,0.37-0.78,0.54-1.17c0.07-0.14,0.14-0.29,0.2-0.43c0.04-0.08,0.07-0.16,0.1-0.24c0.24-0.51,0.46-1.03,0.67-1.54
		c0.06-0.14,0.12-0.29,0.18-0.43c0.26-0.63,0.51-1.26,0.75-1.9c0.04-0.08,0.07-0.17,0.1-0.26c0.23-0.6,0.45-1.2,0.66-1.81
		c0.27-0.79,0.54-1.58,0.78-2.37c0.16-0.49,0.31-0.99,0.45-1.48c0.15-0.51,0.29-1.02,0.43-1.53c0.12-0.44,0.23-0.87,0.33-1.3
		c0.52-2.04,0.94-4.09,1.28-6.14c0.08-0.45,0.16-0.9,0.22-1.35c0.06-0.37,0.11-0.75,0.16-1.12c0.08-0.58,0.16-1.16,0.22-1.74
		c0.25-2.08,0.41-4.17,0.5-6.26c0.03-0.49,0.05-0.97,0.06-1.46c0.01-0.35,0.02-0.69,0.02-1.04c0.27-14.26-2.66-28.95-7.22-43.88
		c-0.55,1.12-1.11,2.23-1.66,3.35c-1.44,2.88-2.89,5.76-4.36,8.61c-0.24,0.46-0.47,0.91-0.71,1.37c-0.68,1.32-1.36,2.62-2.05,3.92
		c-0.06,0.12-0.13,0.25-0.19,0.37c-0.02,0.04-0.04,0.07-0.06,0.11c-0.01,0.02-0.02,0.04-0.03,0.06c-0.75,1.41-1.51,2.82-2.28,4.22
		c-0.43,0.79-0.86,1.57-1.29,2.34c-0.02,0.04-0.04,0.07-0.06,0.11c-0.4,0.7-0.79,1.4-1.19,2.1c-0.41,0.74-0.83,1.47-1.26,2.2
		c-0.39,0.69-0.79,1.38-1.2,2.06c-0.4,0.68-0.81,1.36-1.22,2.04c-0.48,0.79-0.96,1.58-1.45,2.36c-0.04,0.08-0.09,0.16-0.14,0.25
		c-0.15,0.24-0.29,0.47-0.44,0.7c-0.33,0.53-0.67,1.06-1.01,1.59c-0.51,0.81-1.03,1.62-1.56,2.42c-0.52,0.8-1.05,1.6-1.59,2.39
		c-0.44,0.65-0.88,1.29-1.32,1.93c-0.15,0.23-0.31,0.45-0.46,0.67c-0.03,0.05-0.07,0.09-0.1,0.14c-0.32,0.44-0.63,0.89-0.95,1.33
		c-0.32,0.45-0.64,0.9-0.97,1.35c-0.39,0.54-0.78,1.07-1.18,1.6c-0.46,0.62-0.92,1.23-1.39,1.84c-0.12,0.15-0.23,0.3-0.35,0.45
		c-0.58,0.75-1.17,1.5-1.77,2.25c-0.01,0.01-0.02,0.03-0.03,0.04c-0.59,0.73-1.19,1.46-1.79,2.18c-0.51,0.61-1.03,1.22-1.55,1.83
		c-0.17,0.19-0.33,0.38-0.5,0.57c-0.56,0.65-1.14,1.3-1.72,1.94c-0.42,0.47-0.85,0.94-1.28,1.4c-0.27,0.29-0.55,0.59-0.82,0.88
		c-0.53,0.56-1.06,1.11-1.59,1.65c-0.54,0.55-1.09,1.1-1.64,1.64c-0.55,0.55-1.11,1.09-1.67,1.62c-0.56,0.54-1.13,1.07-1.7,1.59
		c-0.58,0.53-1.16,1.05-1.74,1.57c-0.68,0.6-1.36,1.2-2.06,1.78c-0.57,0.48-1.14,0.96-1.72,1.43c-0.36,0.3-0.73,0.59-1.1,0.88
		c-0.73,0.58-1.46,1.16-2.21,1.72c-0.57,0.44-1.16,0.87-1.75,1.3c-0.03,0.02-0.05,0.04-0.08,0.06c-0.17,0.13-0.34,0.25-0.51,0.37
		c-0.49,0.36-0.99,0.71-1.49,1.06c-0.2,0.14-0.41,0.28-0.61,0.42c-0.64,0.45-1.29,0.88-1.95,1.31c-0.16,0.12-0.33,0.22-0.49,0.33
		c-0.51,0.33-1.03,0.66-1.55,0.98c-0.43,0.28-0.85,0.55-1.29,0.81c-0.39,0.25-0.78,0.49-1.18,0.72c-0.39,0.24-0.79,0.47-1.19,0.7
		c-0.94,0.55-1.89,1.09-2.86,1.62c1.32,0.26,2.64,0.52,3.96,0.77c1.73,0.34,3.45,0.66,5.16,0.99c0.11,0.02,0.22,0.04,0.32,0.06
		c2.07,0.4,4.13,0.79,6.17,1.19c1.02,0.2,2.04,0.4,3.05,0.61c0.76,0.15,1.52,0.31,2.27,0.47c0.71,0.14,1.42,0.29,2.13,0.45
		c1.55,0.33,3.09,0.68,4.62,1.05c0.33,0.08,0.66,0.16,0.99,0.24c0.6,0.14,1.2,0.29,1.79,0.45c0.55,0.14,1.1,0.28,1.65,0.43
		c0.34,0.08,0.67,0.17,1.01,0.27c0.8,0.22,1.6,0.44,2.4,0.67v0.01c0.32,0.09,0.64,0.18,0.96,0.28c0.63,0.19,1.26,0.38,1.88,0.58
		c0.7,0.22,1.39,0.45,2.08,0.68c0.31,0.1,0.61,0.21,0.92,0.31c0.08,0.03,0.15,0.05,0.23,0.08c0.65,0.23,1.3,0.46,1.94,0.7
		c0.04,0.01,0.08,0.03,0.12,0.04c0.61,0.23,1.22,0.46,1.83,0.7c0.8,0.31,1.6,0.63,2.39,0.97c-0.09,0.46-0.17,0.92-0.26,1.38
		c-1.89-0.25-3.78-0.5-5.66-0.75c-3.03-0.41-6.05-0.81-9.08-1.21c-1.99-0.26-3.98-0.53-5.97-0.79c-2.34-0.32-4.69-0.63-7.04-0.94
		c-1.42-0.19-2.84-0.38-4.26-0.57c-1.42-0.19-2.85-0.38-4.28-0.57c-4.35-0.58-8.72-1.16-13.12-1.75c-0.06,0.6-0.12,1.19-0.17,1.79
		c-0.11,1.12-0.21,2.23-0.3,3.35c-0.15,1.68-0.28,3.35-0.41,5.03c-0.31,3.97-0.59,7.94-0.92,11.89c-0.08,1.01-0.16,2.02-0.25,3.03
		c-0.12,1.4-0.25,2.8-0.39,4.2c-0.12,1.14-0.23,2.28-0.36,3.42c-0.02,0.24-0.05,0.48-0.08,0.72c-0.04,0.33-0.08,0.65-0.12,0.98
		c-0.06,0.57-0.13,1.14-0.21,1.71c-0.07,0.57-0.14,1.13-0.22,1.7c-0.22,1.7-0.48,3.4-0.76,5.09c-0.2,1.19-0.41,2.38-0.64,3.57
		c-0.09,0.46-0.18,0.92-0.27,1.38c-0.02,0.08-0.03,0.17-0.05,0.26c-0.11,0.51-0.22,1.02-0.33,1.53c-0.13,0.59-0.26,1.19-0.4,1.79
		c-0.25,1.08-0.52,2.16-0.8,3.24c-1.23-7.19-1.61-14.39-1.61-21.63c0-0.95,0.01-1.9,0.02-2.85c0.01-0.81,0.02-1.62,0.04-2.43
		c0.01-0.3,0.01-0.6,0.02-0.9c0.05-1.93,0.11-3.86,0.18-5.8c0.03-0.83,0.06-1.66,0.09-2.49c0.06-1.29,0.11-2.57,0.16-3.86
		c0.05-1.29,0.1-2.59,0.14-3.89c0.01-0.2,0.02-0.4,0.02-0.6c0.03-0.7,0.05-1.39,0.07-2.09c0.04-1.2,0.07-2.39,0.1-3.6
		c0.02-0.9,0.03-1.81,0.04-2.72c0-0.33,0.01-0.66,0.01-0.99c0.01-0.38,0.01-0.75,0.01-1.13c-0.64,0.3-1.27,0.59-1.91,0.87h-0.01
		c-0.37,0.17-0.75,0.33-1.13,0.49c-0.37,0.16-0.75,0.32-1.13,0.47c-0.75,0.3-1.51,0.6-2.26,0.87c-2.4,0.88-4.81,1.62-7.23,2.2
		c-0.57,0.14-1.14,0.27-1.71,0.39c-0.68,0.15-1.36,0.28-2.04,0.4c-0.38,0.07-0.76,0.13-1.14,0.19s-0.75,0.11-1.12,0.16
		c-0.49,0.07-0.97,0.13-1.45,0.18c-0.91,0.11-1.82,0.19-2.73,0.25c-1.22,0.08-2.44,0.12-3.67,0.12c-1.05,0-2.1-0.03-3.15-0.09
		c-0.21-0.01-0.42-0.03-0.62-0.04c-0.09-0.01-0.19-0.01-0.28-0.02c-0.33-0.02-0.65-0.05-0.98-0.08h-0.05
		c-0.53-0.05-1.06-0.11-1.59-0.17c-0.02,0-0.05-0.01-0.07-0.01c-0.4-0.05-0.8-0.1-1.21-0.15c-0.53-0.08-1.05-0.16-1.58-0.25
		c-0.54-0.09-1.08-0.18-1.61-0.29c-0.54-0.11-1.08-0.22-1.62-0.34c5.88-1.35,11.85-2.39,17.61-4.12c5.86-1.77,11.88-3.58,17.2-6.51
		c0.56-0.31,1.1-0.61,1.63-0.91c2.06-1.18,3.93-2.33,5.6-3.48c0,0,0.01,0,0.01-0.01c0.3-0.19,0.58-0.39,0.86-0.6
		c0.63-0.45,1.23-0.9,1.81-1.35c0.01,0,0.02-0.02,0.02-0.02c0.01-0.01,0.02-0.02,0.03-0.02c0.01-0.01,0.01-0.01,0.02-0.02
		c0.38-0.3,0.74-0.6,1.1-0.9c0.33-0.27,0.64-0.55,0.95-0.83c0.04-0.02,0.07-0.05,0.1-0.08c0.37-0.34,0.73-0.68,1.07-1.03
		c0.25-0.24,0.48-0.48,0.71-0.73c0.19-0.19,0.37-0.39,0.54-0.59c0.38-0.43,0.73-0.85,1.06-1.28c0.11-0.14,0.22-0.28,0.32-0.42
		c0.16-0.21,0.31-0.43,0.46-0.65c0.2-0.29,0.4-0.58,0.58-0.88l0.01-0.01c0.18-0.29,0.35-0.59,0.52-0.89
		c0.16-0.28,0.31-0.56,0.45-0.85c0.21-0.41,0.41-0.82,0.59-1.25c0.1-0.24,0.2-0.48,0.3-0.73c0.13-0.32,0.24-0.65,0.36-0.98
		c0,0,0,0,0-0.01c0.11-0.34,0.22-0.68,0.32-1.02c0.08-0.26,0.15-0.52,0.22-0.79c0.04-0.15,0.08-0.29,0.11-0.44
		c0.07-0.3,0.14-0.6,0.2-0.9c0.08-0.37,0.15-0.74,0.21-1.12c0.07-0.39,0.13-0.78,0.18-1.18c0.05-0.36,0.1-0.72,0.13-1.1
		c0.05-0.42,0.09-0.85,0.12-1.28c0.03-0.41,0.05-0.83,0.07-1.26c0.02-0.3,0.03-0.61,0.04-0.93c0-0.23,0.01-0.46,0.01-0.7
		c0.01-0.37,0.01-0.74,0.01-1.12c0-0.5-0.01-1.01-0.02-1.53c-0.01-0.33-0.02-0.66-0.03-1c-0.03-0.89-0.07-1.8-0.14-2.75v-0.12
		c-0.04-0.62-0.09-1.25-0.14-1.9c-1.94-24.37-16.33-41.29-36.25-53.79C102.23,70.29,82.9,66.82,62.69,67
		c-0.76,0.01-1.51,0.02-2.26,0.04l-0.78,0.03c-0.12,0-0.24,0-0.36,0.01c-0.4,0.01-0.79,0.02-1.18,0.04c-0.2,0.01-0.4,0.02-0.6,0.03
		h-0.05c-0.29,0.02-0.59,0.03-0.88,0.05c-0.5,0.03-1,0.06-1.5,0.09c-0.78,0.06-1.55,0.11-2.32,0.18c-0.06,0.01-0.12,0.01-0.18,0.02
		h-0.05c-0.83,0.07-1.65,0.16-2.47,0.25c-0.67,0.07-1.34,0.15-2.01,0.24c-0.35,0.04-0.71,0.09-1.06,0.14
		c-0.33,0.05-0.65,0.09-0.98,0.15c-0.46,0.06-0.91,0.13-1.37,0.21c-0.13,0.02-0.26,0.04-0.39,0.06c-0.55,0.09-1.1,0.18-1.64,0.28
		c-1.65,0.3-3.28,0.63-4.91,1.01c-0.65,0.14-1.29,0.3-1.93,0.47c-0.13,0.03-0.25,0.06-0.37,0.09c-0.19,0.04-0.38,0.09-0.57,0.15
		c-0.1,0.02-0.2,0.05-0.3,0.08c-0.36,0.09-0.72,0.19-1.09,0.3C33.29,70.95,33.15,71,33,71.04c-0.12,0.02-0.24,0.05-0.35,0.09
		c-0.53,0.15-1.06,0.3-1.59,0.47c-0.07,0.02-0.13,0.04-0.2,0.06c-0.29,0.08-0.58,0.17-0.87,0.27c-0.39,0.12-0.79,0.25-1.19,0.38
		c-0.02,0.01-0.05,0.01-0.07,0.02c-0.39,0.13-0.78,0.26-1.17,0.4c-0.65,0.22-1.3,0.45-1.95,0.69c-0.8,0.29-1.59,0.59-2.39,0.91
		c-4.03,1.59-5.36,3.98-5.56,8.16c-1.63,34.65-1.62,69.27,0.76,103.88c0.08,1.11,0.15,2.23,0.23,3.34c0.01,0.08,0.01,0.17,0.02,0.25
		c0.32,4.66,0.65,9.31,0.96,13.97c0.27,3.87,0.53,7.73,0.77,11.6c0.21,3.24,0.41,6.48,0.6,9.72c0.18,2.96-0.28,5.95-0.45,8.93h-1
		c-0.57-1.86-1.09-3.72-1.59-5.58c-0.23-0.88-0.45-1.76-0.66-2.64c-0.4-1.61-0.77-3.23-1.12-4.86c-0.45-2.11-0.86-4.23-1.24-6.35
		c-0.13-0.73-0.26-1.46-0.37-2.19c-0.2-1.18-0.39-2.36-0.56-3.54c-0.25-1.65-0.48-3.3-0.7-4.95c-0.01-0.11-0.02-0.22-0.04-0.33
		c-0.22-1.75-0.43-3.5-0.62-5.25c-0.12-1.05-0.23-2.1-0.33-3.16c-0.17-1.72-0.34-3.44-0.49-5.17c-0.01-0.15-0.03-0.3-0.04-0.45
		c-0.12-1.35-0.23-2.71-0.34-4.06c-0.11-1.35-0.21-2.71-0.31-4.06c-0.11-1.36-0.2-2.71-0.3-4.07c-0.1-1.36-0.19-2.71-0.29-4.07
		c-0.38-5.42-0.67-10.85-1-16.27v-54c0.24-1.12,0.67-2.24,0.7-3.37c0.25-8.75,0.63-17.5,1.25-26.2c1.14-16.16,3.13-32.2,6.71-48.02
		c1.24-5.5,2.68-10.97,4.34-16.41h1c-0.02,0.79-0.03,1.57-0.03,2.36c-0.01,0.78-0.02,1.57-0.02,2.35c0,0.48-0.01,0.96-0.01,1.44
		c0,0.69-0.01,1.37-0.01,2.06c0,0.16-0.01,0.31-0.01,0.46c-0.01,1.21-0.03,2.43-0.06,3.64c-0.02,1.37-0.07,2.74-0.15,4.1
		c-0.04,0.81-0.09,1.63-0.15,2.44c-0.71,9.19-1.88,18.34-2.91,28.01c26.07-7.36,51.77-11.71,77.89-13.24
		c33.01-1.93,66.04-3.31,98.65,5.86c-1.44-2.18-2.81-4.39-4.07-6.62c-0.19-0.34-0.38-0.67-0.56-1c-1.44-2.61-2.75-5.26-3.87-7.97
		c-0.19-0.44-0.36-0.88-0.54-1.32c-0.23-0.59-0.46-1.19-0.67-1.79c-0.15-0.41-0.3-0.83-0.44-1.25c-0.35-1.03-0.67-2.07-0.97-3.12
		c-0.02-0.08-0.04-0.15-0.06-0.23c-0.15-0.52-0.28-1.04-0.41-1.57c-0.1-0.41-0.2-0.83-0.29-1.25c-0.04-0.13-0.07-0.27-0.09-0.41
		c-0.05-0.22-0.1-0.45-0.14-0.68c-0.07-0.33-0.14-0.66-0.2-0.99c-0.04-0.21-0.08-0.43-0.11-0.64c-0.09-0.51-0.17-1.01-0.24-1.53
		c-0.09-0.58-0.16-1.16-0.22-1.75c-0.02-0.08-0.02-0.16-0.03-0.24c-0.06-0.57-0.11-1.15-0.16-1.73v-0.05
		c-0.05-0.63-0.08-1.27-0.1-1.91c-0.03-0.62-0.04-1.25-0.04-1.88c0-0.51,0.01-1.03,0.02-1.55h1c1.84,5.66,4.01,11.14,6.54,16.41
		c4.18,8.68,9.36,16.81,15.74,24.35c11.37,13.43,19.99,28.53,24.19,45.8C232.49,101.81,233.39,108.03,234.55,114.18z"/>
	<path class="st1" d="M183.56,9.18c-0.41,14.71,5.22,27.44,13.19,39.48c-32.61-9.16-65.64-7.79-98.65-5.86
		c-26.12,1.53-51.82,5.88-77.89,13.24c1.03-9.68,2.2-18.83,2.9-28.01c0.48-6.26,0.32-12.57,0.45-18.85
		C76.89,9.18,130.22,9.18,183.56,9.18z"/>
</g>
<path class="st3" d="M218.96,87.99c-1.44,2.88-2.89,5.76-4.36,8.61c-0.24,0.46-0.47,0.91-0.71,1.37c-0.68,1.32-1.36,2.62-2.05,3.92
	c-0.06,0.12-0.13,0.25-0.19,0.37c-0.02,0.04-0.04,0.07-0.06,0.11c-0.01,0.02-0.02,0.04-0.03,0.06c-0.75,1.41-1.51,2.82-2.28,4.22
	c-0.43,0.79-0.86,1.57-1.29,2.34c-0.02,0.04-0.04,0.07-0.06,0.11c-0.4,0.7-0.79,1.4-1.19,2.1c-0.41,0.74-0.83,1.47-1.26,2.2
	c-0.39,0.69-0.79,1.38-1.2,2.06c-0.4,0.68-0.81,1.36-1.22,2.04c-0.48,0.79-0.96,1.58-1.45,2.36c-0.04,0.08-0.09,0.16-0.14,0.25
	c-0.15,0.24-0.29,0.47-0.44,0.7c-0.33,0.53-0.67,1.06-1.01,1.59c-0.51,0.81-1.03,1.62-1.56,2.42c-0.52,0.8-1.05,1.6-1.59,2.39
	c-0.44,0.65-0.88,1.29-1.32,1.93c-0.15,0.23-0.31,0.45-0.46,0.67c-0.03,0.05-0.07,0.09-0.1,0.14c-0.32,0.44-0.63,0.89-0.95,1.33
	c-0.32,0.45-0.64,0.9-0.97,1.35c-0.39,0.54-0.78,1.07-1.18,1.6c-0.46,0.62-0.92,1.23-1.39,1.84c-0.12,0.15-0.23,0.3-0.35,0.45
	c-0.58,0.75-1.17,1.5-1.77,2.25c-0.01,0.01-0.02,0.03-0.03,0.04c-0.59,0.73-1.19,1.46-1.79,2.18c-0.51,0.61-1.03,1.22-1.55,1.83
	c-0.17,0.19-0.33,0.38-0.5,0.57c-0.56,0.65-1.14,1.3-1.72,1.94c-0.42,0.47-0.85,0.94-1.28,1.4c-0.27,0.29-0.55,0.59-0.82,0.88
	c-0.53,0.56-1.06,1.11-1.59,1.65c-0.54,0.55-1.09,1.1-1.64,1.64c-0.55,0.55-1.11,1.09-1.67,1.62c-0.56,0.54-1.13,1.07-1.7,1.59
	c-0.58,0.53-1.16,1.05-1.74,1.57c-0.68,0.6-1.36,1.2-2.06,1.78c-0.57,0.48-1.14,0.96-1.72,1.43c-0.36,0.3-0.73,0.59-1.1,0.88
	c-0.73,0.58-1.46,1.16-2.21,1.72c-0.57,0.44-1.16,0.87-1.75,1.3c-0.03,0.02-0.05,0.04-0.08,0.06c-0.17,0.13-0.34,0.25-0.51,0.37
	c-0.49,0.36-0.99,0.71-1.49,1.06c-0.2,0.14-0.41,0.28-0.61,0.42c-0.64,0.45-1.29,0.88-1.95,1.31c-0.16,0.12-0.33,0.22-0.49,0.33
	c-0.51,0.33-1.03,0.66-1.55,0.98c-0.43,0.28-0.85,0.55-1.29,0.81c-0.39,0.25-0.78,0.49-1.18,0.72c-0.39,0.24-0.79,0.47-1.19,0.7
	c-0.94,0.55-1.89,1.09-2.86,1.62c1.32,0.26,2.64,0.52,3.96,0.77c1.73,0.34,3.45,0.66,5.16,0.99c0.11,0.02,0.22,0.04,0.32,0.06
	c2.07,0.4,4.13,0.79,6.17,1.19c1.02,0.2,2.04,0.4,3.05,0.61c0.76,0.15,1.52,0.31,2.27,0.47c0.71,0.14,1.42,0.29,2.13,0.45
	c1.55,0.33,3.09,0.68,4.62,1.05c0.33,0.08,0.66,0.16,0.99,0.24c0.6,0.14,1.2,0.29,1.79,0.45c0.55,0.14,1.1,0.28,1.65,0.43
	c0.34,0.08,0.67,0.17,1.01,0.27c0.8,0.22,1.6,0.44,2.4,0.67v0.01c0.32,0.09,0.64,0.18,0.96,0.28c0.63,0.19,1.26,0.38,1.88,0.58
	c0.7,0.22,1.39,0.45,2.08,0.68c0.31,0.1,0.61,0.21,0.92,0.31c0.08,0.03,0.15,0.05,0.23,0.08c0.65,0.23,1.3,0.46,1.94,0.7
	c0.04,0.01,0.08,0.03,0.12,0.04c0.61,0.23,1.22,0.46,1.83,0.7c0.8,0.31,1.6,0.63,2.39,0.97c-0.09,0.46-0.17,0.92-0.26,1.38
	c-1.89-0.25-3.78-0.5-5.66-0.75c-3.03-0.41-6.05-0.81-9.08-1.21c-1.99-0.26-3.98-0.53-5.97-0.79c-2.34-0.32-4.69-0.63-7.04-0.94
	c-1.42-0.19-2.84-0.38-4.26-0.57c-1.42-0.19-2.85-0.38-4.28-0.57c-4.35-0.58-8.72-1.16-13.12-1.75c-0.06,0.6-0.12,1.19-0.17,1.79
	c-0.11,1.12-0.21,2.23-0.3,3.35c-0.15,1.68-0.28,3.35-0.41,5.03c-0.31,3.97-0.59,7.94-0.92,11.89c-0.08,1.01-0.16,2.02-0.25,3.03
	c-0.12,1.4-0.25,2.8-0.39,4.2c-0.12,1.14-0.23,2.28-0.36,3.42c-0.02,0.24-0.05,0.48-0.08,0.72c-0.04,0.33-0.08,0.65-0.12,0.98
	c-0.06,0.57-0.13,1.14-0.21,1.71c-0.07,0.57-0.14,1.13-0.22,1.7c-0.22,1.7-0.48,3.4-0.76,5.09c-0.2,1.19-0.41,2.38-0.64,3.57
	c-0.09,0.46-0.18,0.92-0.27,1.38c-0.02,0.08-0.03,0.17-0.05,0.26c-0.11,0.51-0.22,1.02-0.33,1.53c-0.13,0.59-0.26,1.19-0.4,1.79
	c-0.25,1.08-0.52,2.16-0.8,3.24c-1.23-7.19-1.61-14.39-1.61-21.63c0-0.95,0.01-1.9,0.02-2.85c0.01-0.81,0.02-1.62,0.04-2.43
	c0.01-0.3,0.01-0.6,0.02-0.9c0.05-1.93,0.11-3.86,0.18-5.8c0.03-0.83,0.06-1.66,0.09-2.49c0.06-1.29,0.11-2.57,0.16-3.86
	c0.05-1.29,0.1-2.59,0.14-3.89c0.01-0.2,0.02-0.4,0.02-0.6c0.03-0.7,0.05-1.39,0.07-2.09c0.04-1.2,0.07-2.39,0.1-3.6
	c0.02-0.9,0.03-1.81,0.04-2.72c0-0.33,0.01-0.66,0.01-0.99c0.01-0.38,0.01-0.75,0.01-1.13c-0.64,0.3-1.27,0.59-1.91,0.87h-0.01
	c-0.37,0.17-0.75,0.33-1.13,0.49c-0.37,0.16-0.75,0.32-1.13,0.47c-0.75,0.3-1.51,0.6-2.26,0.87c-2.4,0.88-4.81,1.62-7.23,2.2
	c-0.57,0.14-1.14,0.27-1.71,0.39c-0.68,0.15-1.36,0.28-2.04,0.4c-0.38,0.07-0.76,0.13-1.14,0.19s-0.75,0.11-1.12,0.16
	c-0.49,0.07-0.97,0.13-1.45,0.18c-0.91,0.11-1.82,0.19-2.73,0.25c-1.22,0.08-2.44,0.12-3.67,0.12c-1.05,0-2.1-0.03-3.15-0.09
	c-0.21-0.01-0.42-0.03-0.62-0.04c-0.09-0.01-0.19-0.01-0.28-0.02c-0.33-0.02-0.65-0.05-0.98-0.08h-0.05
	c-0.53-0.05-1.06-0.11-1.59-0.17c-0.02,0-0.05-0.01-0.07-0.01c-0.4-0.05-0.8-0.1-1.21-0.15c-0.53-0.08-1.05-0.16-1.58-0.25
	c-0.54-0.09-1.08-0.18-1.61-0.29c-0.54-0.11-1.08-0.22-1.62-0.34c5.88-1.35,11.85-2.39,17.61-4.12c5.86-1.77,11.88-3.58,17.2-6.51
	c0.56-0.31,1.1-0.61,1.63-0.91c2.06-1.18,3.93-2.33,5.6-3.48c0,0,0.01,0,0.01-0.01c0.3-0.19,0.58-0.39,0.86-0.6
	c0.63-0.45,1.23-0.9,1.81-1.35c0.01,0,0.02-0.02,0.02-0.02c0.01-0.01,0.02-0.02,0.03-0.02c0.01-0.01,0.01-0.01,0.02-0.02
	c0.38-0.3,0.74-0.6,1.1-0.9c0.33-0.27,0.64-0.55,0.95-0.83c0.04-0.02,0.07-0.05,0.1-0.08c0.37-0.34,0.73-0.68,1.07-1.03
	c0.25-0.24,0.48-0.48,0.71-0.73c0.19-0.19,0.37-0.39,0.54-0.59c0.38-0.43,0.73-0.85,1.06-1.28c0.11-0.14,0.22-0.28,0.32-0.42
	c0.16-0.21,0.31-0.43,0.46-0.65c0.2-0.29,0.4-0.58,0.58-0.88l0.01-0.01c0.18-0.29,0.35-0.59,0.52-0.89
	c0.16-0.28,0.31-0.56,0.45-0.85c0.21-0.41,0.41-0.82,0.59-1.25c0.1-0.24,0.2-0.48,0.3-0.73c0.13-0.32,0.24-0.65,0.36-0.98
	c0,0,0,0,0-0.01c0.11-0.34,0.22-0.68,0.32-1.02c0.08-0.26,0.15-0.52,0.22-0.79c0.04-0.15,0.08-0.29,0.11-0.44
	c0.07-0.3,0.14-0.6,0.2-0.9c0.08-0.37,0.15-0.74,0.21-1.12c0.07-0.39,0.13-0.78,0.18-1.18c0.05-0.36,0.1-0.72,0.13-1.1
	c0.05-0.42,0.09-0.85,0.12-1.28c0.03-0.41,0.05-0.83,0.07-1.26c0.02-0.3,0.03-0.61,0.04-0.93c0-0.23,0.01-0.46,0.01-0.7
	c0.01-0.37,0.01-0.74,0.01-1.12c0-0.5-0.01-1.01-0.02-1.53c-0.01-0.33-0.02-0.66-0.03-1c-0.03-0.89-0.07-1.8-0.14-2.75v-0.12
	c-0.04-0.62-0.09-1.25-0.14-1.9c-1.94-24.37-16.33-41.29-36.25-53.79c-17.31-10.86-36.64-14.33-56.85-14.15
	c-0.76,0.01-1.51,0.02-2.26,0.04l-0.78,0.03c-0.12,0-0.24,0-0.36,0.01c-0.4,0.01-0.79,0.02-1.18,0.04c-0.2,0.01-0.4,0.02-0.6,0.03
	H57.7c-0.29,0.02-0.59,0.03-0.88,0.05c-0.5,0.03-1,0.06-1.5,0.09c-0.78,0.06-1.55,0.11-2.32,0.18c-0.06,0.01-0.12,0.01-0.18,0.02
	h-0.05c-0.83,0.07-1.65,0.16-2.47,0.25c-0.67,0.07-1.34,0.15-2.01,0.24c-0.35,0.04-0.71,0.09-1.06,0.14
	c-0.33,0.05-0.65,0.09-0.98,0.15c-0.46,0.06-0.91,0.13-1.37,0.21c-0.13,0.02-0.26,0.04-0.39,0.06c-0.55,0.09-1.1,0.18-1.64,0.28
	c-1.65,0.3-3.28,0.63-4.91,1.01c-0.65,0.14-1.29,0.3-1.93,0.47c-0.13,0.03-0.25,0.06-0.37,0.09c-0.19,0.04-0.38,0.09-0.57,0.15
	c-0.1,0.02-0.2,0.05-0.3,0.08c-0.36,0.09-0.72,0.19-1.09,0.3c-0.15,0.03-0.29,0.08-0.44,0.12c-0.12,0.02-0.24,0.05-0.35,0.09
	c-0.53,0.15-1.06,0.3-1.59,0.47c-0.07,0.02-0.13,0.04-0.2,0.06c-0.29,0.08-0.58,0.17-0.87,0.27c-0.39,0.12-0.79,0.25-1.19,0.38
	c-0.02,0.01-0.05,0.01-0.07,0.02c-0.39,0.13-0.78,0.26-1.17,0.4c-0.65,0.22-1.3,0.45-1.95,0.69c-0.8,0.29-1.59,0.59-2.39,0.91
	c-4.03,1.59-12.34,7.98-11.72-0.72c1.14-16.16,9.73-27.24,8.7-17.57c26.07-7.36,51.77-11.71,77.89-13.24
	c33.01-1.93,66.04-3.31,98.65,5.86c-1.44-2.18-2.81-4.39-4.07-6.62c-0.19-0.34,7.78,0.36,14.16,7.9
	C218.44,62.96,219.51,86.87,218.96,87.99z"/>
</svg>
