<?xml version="1.0" encoding="utf-8"?>
<!-- Generator: Adobe Illustrator 23.0.1, SVG Export Plug-In . SVG Version: 6.00 Build 0)  -->
<svg version="1.1" id="Capa_1" xmlns="http://www.w3.org/2000/svg" xmlns:xlink="http://www.w3.org/1999/xlink" x="0px" y="0px"
	 viewBox="0 0 268.9 286.94" style="enable-background:new 0 0 268.9 286.94;" xml:space="preserve">
<style type="text/css">
	.st0{display:none;fill:#FF8125;}
	.st1{fill:#E2EBF9;stroke:#606060;stroke-width:2;stroke-miterlimit:10;}
	.st2{fill:#E2EBF9;stroke:#606060;stroke-miterlimit:10;}
	.st3{fill:#FFFFFF;}
	.st4{fill:#FF8125;}
</style>
<path class="st0" d="M-471.3,153.99c-2.81-0.23-6.07,0.24-8.65-0.88c-3.31-1.44-4.22-4.81-3.52-8.51c1.38-7.35,3.28-14.68,3.81-22.1
	c2.15-29.89-4.36-58.56-13.18-86.83c-0.99-3.17-2.22-6.28-3.06-9.49c-1.17-4.45,0.87-8.19,4.96-9.61c3.84-1.34,8.2,0.57,9.66,4.82
	c12.8,37.14,21.64,74.86,15.71,114.56c-0.61,4.1-1.68,8.15-2.78,12.16C-468.83,149.8-469.94,151.33-471.3,153.99z"/>
<path class="st0" d="M-834.5,161.05c2.81-0.23,6.07,0.24,8.65-0.88c3.31-1.44,4.22-4.81,3.52-8.51c-1.38-7.35-3.28-14.68-3.81-22.1
	c-2.15-29.89,4.36-58.56,13.18-86.83c0.99-3.17,2.22-6.28,3.06-9.49c1.17-4.45-0.87-8.19-4.96-9.61c-3.84-1.34-8.2,0.57-9.66,4.82
	c-12.8,37.14-21.64,74.86-15.71,114.56c0.61,4.1,1.68,8.15,2.78,12.16C-836.97,156.86-835.86,158.38-834.5,161.05z"/>
<path class="st1" d="M210.02,175.76c-3.55,32.29-6.76,61.25-10.01,91.02c-38.93,8.61-78.43,11.04-118.05,1.58
	c-0.88-0.2-1.83-0.63-2.78-1.23c0,0-0.03,0-0.05,0c-2.53-1.58-4.96-4.13-5.18-6.16c-3.1-26.06-5.48-52.17-7.99-78.3
	c-0.03-0.35-0.08-0.7-0.1-1.05c-0.1-1.03,0.45-2.13,0.93-4.16c4.08,3.88,8.16,6.73,12.27,8.69c13.64,6.48,27.59,3.08,42.91-4.31
	c5.31-2.58,12.64-3.58,19.53-3.03c4.48,0.35,8.74,1.35,12.17,3.05c3,1.48,5.93,2.8,8.84,3.91c0.03,0,0.03,0,0.03,0
	c11.31,4.28,22.05,5.33,33.27,0.03C200.41,183.62,205.14,180.34,210.02,175.76z"/>
<path class="st2" d="M196,54.75c-1,17.32-1.73,33.49-3.1,49.61c-0.23,2.73-2.68,6.38-5.13,7.64
	c-19.88,10.11-32.17,26.99-42.53,45.86c-5.76,10.51-9.19,10.69-15.02,0.48c-0.5-0.88-1-1.75-1.5-2.63
	c-10.46-18-22.35-34.42-41.93-44.13c-2.7-1.33-4.38-6.66-4.78-10.34c-1.38-12.37-1.73-24.83-2.93-37.25
	c-0.6-6.26,0.9-10.09,7.56-11.82c13.22-3.43,21.55-11.97,24.46-25.48c0.18-0.8,0.23-2.25,0.58-2.33l14.97-3.35l11.69-2.63
	c8.61,0.3,22.68,2.95,24.61,8.19C168.94,42.79,179.73,50.52,196,54.75z"/>
<path class="st1" d="M65.7,58.18c0.93,23.71,7.53,46.27-5.09,68.1c-3.3,5.7-3.13,13.62-3.79,20.6c-2.28,24.33-4.04,48.71-6.58,73.01
	c-0.28,2.67-4.02,6.43-6.78,7.08c-6.35,1.51-13.09,1.93-19.66,1.85c-9.68-0.12-14.11-5.12-12.58-15.18
	c6.17-40.63,11.59-81.38,18.52-121.88C32.88,73.43,44.7,61.69,65.7,58.18z"/>
<path class="st1" d="M263.26,218.32c0.08,3.38-4.38,9.09-7.64,9.81c-5.26,1.2-11.14,1.63-16.57,0.8c-1.45-0.2-2.88-0.53-4.23-0.93
	c-4.31-1.3-9.79-6.98-10.31-11.21c-2.78-23.43-4.13-47.04-6.16-70.54c-0.55-6.18-0.18-13.29-3.08-18.27
	c-9.91-17.02-9.26-34.87-6.96-53.22c0.33-2.68,0.48-5.38,0.6-8.31c0.1-2.48,0.2-5.11,0.35-8.06c17.95,2.48,29.39,11.24,34.17,26.94
	C256.71,128.6,262.41,173.16,263.26,218.32z"/>
<path class="st3" d="M198.07,186.02c-2.98,27.01-5.54,55.04-8.37,80.65c-35.67,7.89-71.96,7.59-108.24,0.68c0,0-0.03,0-0.05,0
	c-2.53-1.58-4.96-4.13-5.18-6.16c-3.1-26.06-5.48-52.17-7.99-78.3c4.33,2.08,8.66,3.2,13.09,3.48c13.64,6.48,27.59,3.08,42.91-4.31
	c5.31-2.58,12.64-3.58,19.53-3.03c7.23,3.55,14.14,6.11,21,6.96c0.03,0,0.03,0,0.03,0C176.12,190.27,186.86,191.32,198.07,186.02z"
	/>
<path class="st3" d="M177.18,56.7c-1.03,17.32-1.75,33.49-3.13,49.61c-0.23,2.73-2.68,6.38-5.11,7.63
	c-18.45,9.36-30.34,24.56-40.23,41.75c-10.46-18-22.35-34.42-41.93-44.13c-2.7-1.33-4.38-6.66-4.78-10.34
	c-1.38-12.37-1.73-24.83-2.93-37.25c-0.6-6.26,0.9-10.09,7.56-11.82c13.22-3.43,21.55-11.97,24.46-25.48
	c0.18-0.8,0.23-2.25,0.58-2.33l14.97-3.35c7.69,1.1,16,3.58,17.45,7.51C150.09,44.74,160.88,52.47,177.18,56.7z"/>
<path class="st3" d="M58.69,62.48c0.78,22.75,6.28,44.4-4.25,65.36c-2.75,5.47-2.61,13.07-3.16,19.76
	c-1.9,23.35-3.37,46.75-5.49,70.06c-0.23,2.56-3.35,6.17-5.65,6.8c-5.3,1.45-10.92,1.85-16.39,1.77
	c-8.07-0.12-11.77-4.91-10.49-14.57c5.15-38.99,9.66-78.1,15.44-116.96C31.32,77.12,41.18,65.85,58.69,62.48z"/>
<path class="st3" d="M245.91,218.8c0.05,2.63-2.65,6.66-5.38,8.66c-1.45-0.2-2.88-0.53-4.23-0.93c-4.31-1.3-9.79-6.98-10.31-11.21
	c-2.78-23.43-4.13-47.04-6.16-70.54c-0.55-6.18-0.18-13.29-3.08-18.27c-9.91-17.02-9.26-34.87-6.96-53.22
	c0.33-2.68,0.48-5.38,0.6-8.31c7.58,4.56,12.82,11.44,15.7,20.83C239.33,129.1,245.04,173.64,245.91,218.8z"/>
<path class="st4" d="M72.57,110.81c28.22,7.94,43.68,29.05,55.8,53.41c0.89,1.79-1.26,6.18-3.23,8.11
	c-10.99,10.8-24.09,17.09-39.52,12.17c-15.69-5-22.12-18.14-24.33-33.39C59.15,136.33,64.36,123.33,72.57,110.81z"/>
<path class="st4" d="M202.51,110.67c11.09,16.81,15.26,33.96,8.19,52.6c-4.55,11.99-12.75,20.97-25.99,22.51
	c-14.63,1.7-26.82-4.57-36.57-15.22c-1.42-1.55-1.72-5.64-0.72-7.64C159.24,139.27,174.74,119.28,202.51,110.67z"/>
<path class="st4" d="M204.68,57.27c-0.74,16.27-1.48,32.54-2.22,48.8c-1.74-0.11-3.47-0.22-5.21-0.33
	c0.96-16.25,1.91-32.51,2.87-48.76C201.64,57.08,203.16,57.17,204.68,57.27z"/>
<path class="st4" d="M75,57.15c1.05,16.16,2.1,32.32,3.15,48.48c-1.67,0.12-3.34,0.24-5.01,0.37c-0.91-16.17-1.81-32.34-2.72-48.5
	C71.95,57.38,73.47,57.27,75,57.15z"/>
</svg>
