<?xml version="1.0" encoding="utf-8"?>
<!-- Generator: Adobe Illustrator 23.0.1, SVG Export Plug-In . SVG Version: 6.00 Build 0)  -->
<svg version="1.1" id="Capa_1" xmlns="http://www.w3.org/2000/svg" xmlns:xlink="http://www.w3.org/1999/xlink" x="0px" y="0px"
	 viewBox="0 0 272.08 296.82" style="enable-background:new 0 0 272.08 296.82;" xml:space="preserve">
<style type="text/css">
	.st0{display:none;fill:#FF8125;}
	.st1{fill:#E2EBF9;stroke:#606060;stroke-width:2;stroke-miterlimit:10;}
	.st2{fill:#FFFFFF;}
	.st3{display:none;fill:#E2EBF9;stroke:#606060;stroke-width:2;stroke-miterlimit:10;}
	.st4{display:none;fill:#E2EBF9;stroke:#606060;stroke-miterlimit:10;}
	.st5{display:none;fill:#FFFFFF;}
	.st6{fill:#FF8125;}
</style>
<path class="st0" d="M-202.4,180.82c-2.81-0.23-6.07,0.24-8.65-0.88c-3.31-1.44-4.22-4.81-3.52-8.51c1.38-7.35,3.28-14.68,3.81-22.1
	c2.15-29.89-4.36-58.56-13.18-86.83c-0.99-3.17-2.22-6.28-3.06-9.49c-1.17-4.45,0.87-8.19,4.96-9.61c3.84-1.34,8.2,0.57,9.66,4.82
	c12.8,37.14,21.64,74.86,15.71,114.56c-0.61,4.1-1.68,8.15-2.78,12.16C-199.93,176.63-201.04,178.15-202.4,180.82z"/>
<path class="st0" d="M-565.6,187.87c2.81-0.23,6.07,0.24,8.65-0.88c3.31-1.44,4.22-4.81,3.52-8.51c-1.38-7.35-3.28-14.68-3.81-22.1
	c-2.15-29.89,4.36-58.56,13.18-86.83c0.99-3.17,2.22-6.28,3.06-9.49c1.17-4.45-0.87-8.19-4.96-9.61c-3.84-1.34-8.2,0.57-9.66,4.82
	c-12.8,37.14-21.64,74.86-15.71,114.56c0.61,4.1,1.68,8.15,2.78,12.16C-568.07,183.69-566.96,185.21-565.6,187.87z"/>
<path class="st1" d="M40.52,197.99c-4.71,8.86-13.14,10.94-28.04,8.29c-0.95-0.15-1.93-0.35-2.95-0.55
	c-3.43-0.7-8.66-6.31-8.41-9.21c2.63-28.94,5.36-57.95,9.99-86.61c2.13-13.29,12.27-21.3,25.38-26.81
	c18.37-7.69,35.77-17.7,53.27-27.34c3.7-2.03,7.43-6.21,8.66-10.19c2.9-9.39,8.86-12.57,15.72-13.69c3.98-0.7,8.29-0.68,12.42-0.78
	c11.31-0.28,22.25,0.73,26.43,15.07c1.38,4.78,7.11,9.29,11.97,11.84c18.7,9.91,38.5,17.95,56.57,28.89
	c7.81,4.71,16.15,14.04,17.75,22.53c5.26,27.69,7.63,55.92,10.89,83.98c0.98,8.59-2.78,12.57-12.04,13.17
	c-4.71,0.3-9.01-0.05-12.87-1.03c-17.75-4.48-26.08-21.78-19.65-44.88c2.85-10.26,5.53-20.55,8.29-30.84
	c-9.06,22.18-18.1,44.38-23.58,67.19c-5.98,24.81-7.79,50.34-0.88,77.3c-23.06,7.36-45.51,10.71-68.04,10.26h-0.08
	c-19.68-0.38-39.4-3.63-59.65-9.64c12.24-51.42-5.16-98.28-24.33-144.79c1.9,8.06,4.31,16.02,5.61,24.16
	c1.35,8.44,2.98,17.2,2.08,25.58C44.2,187.7,42.8,193.66,40.52,197.99"/>
<path class="st2" d="M225.26,205.55c-17.75-4.48-26.08-21.78-19.65-44.88c2.85-10.26,5.53-20.55,8.29-30.84
	c-9.06,22.18-18.1,44.38-23.58,67.19c-6.86-8.16-8.91-20.73-4.73-35.75c2.85-10.26,5.53-20.55,8.29-30.84
	c-18.92,46.31-37.7,92.77-24.46,144.49c-16.22,5.18-32.14,8.36-48.01,9.66h-0.08c-19.68-0.38-39.4-3.63-59.65-9.64
	c12.24-51.42-5.16-98.28-24.33-144.79c1.9,8.06,4.31,16.02,5.61,24.16c1.35,8.44,2.98,17.2,2.08,25.58
	c-0.83,7.81-2.23,13.77-4.51,18.1c-5.33-22.78-14.07-45.06-23.21-67.24c1.9,8.06,4.31,16.02,5.61,24.16
	c1.35,8.44,2.98,17.2,2.08,25.58c-1.53,14.47-5.03,22.55-12.52,25.78c-0.95-0.15-1.93-0.35-2.95-0.55c-3.43-0.7-8.66-6.31-8.41-9.21
	c2.63-28.94,5.36-57.95,9.99-86.61c2.13-13.29,12.27-21.3,25.38-26.81c18.37-7.68,35.77-17.7,53.27-27.34
	c3.7-2.03,7.43-6.21,8.66-10.19c2.9-9.39,8.86-12.57,15.72-13.69c8.34,0.7,15.6,3.83,18.82,14.92c1.38,4.76,7.11,9.26,11.97,11.82
	c18.7,9.91,38.5,17.95,56.57,28.89c7.81,4.71,16.15,14.04,17.75,22.53c5.26,27.69,7.64,55.92,10.89,83.98
	C230.82,199.86,229.27,203.59,225.26,205.55z"/>
<path class="st2" d="M126.18,104.68c-0.59,0.02-1.19,0.04-1.78,0.06c0,15.92,0,31.84,0,47.75c0.59-0.03,1.19-0.05,1.78-0.08
	C126.18,136.5,126.18,120.59,126.18,104.68z"/>
<path class="st2" d="M61.55,165.21c17.67,11.66,44.33,8.7,57.96-7.77C99.43,169.39,81.01,171.93,61.55,165.21z"/>
<path class="st2" d="M132.02,158.21c12.82,16.11,50.09,19.06,56.29,5.82C169.18,172.48,151.18,168.84,132.02,158.21z"/>
<path class="st2" d="M183.3,85.11c-0.4-1.22-0.79-2.44-1.19-3.67c-15.59,3.81-31.18,7.61-46.77,11.42c0.33,1.26,0.67,2.52,1,3.77
	C152,92.8,167.65,88.95,183.3,85.11z"/>
<path class="st2" d="M114.84,96.57c0.29-1.23,0.59-2.47,0.88-3.7c-15.68-3.72-31.35-7.45-47.03-11.17
	c-0.29,1.22-0.58,2.45-0.87,3.67C83.49,89.1,99.17,92.84,114.84,96.57z"/>
<path class="st3" d="M478.92,202.58c-3.55,32.29-6.76,61.25-10.01,91.02c-38.93,8.61-78.43,11.04-118.05,1.58
	c-0.88-0.2-1.83-0.63-2.78-1.23c0,0-0.03,0-0.05,0c-2.53-1.58-4.96-4.13-5.18-6.16c-3.1-26.06-5.48-52.17-7.99-78.3
	c-0.03-0.35-0.08-0.7-0.1-1.05c-0.1-1.03,0.45-2.13,0.93-4.16c4.08,3.88,8.16,6.73,12.27,8.69c13.64,6.48,27.59,3.08,42.91-4.31
	c5.31-2.58,12.64-3.58,19.53-3.03c4.48,0.35,8.74,1.35,12.17,3.05c3,1.48,5.93,2.8,8.84,3.91c0.03,0,0.03,0,0.03,0
	c11.31,4.28,22.05,5.33,33.27,0.03C469.31,210.44,474.04,207.16,478.92,202.58z"/>
<path class="st4" d="M464.9,81.58c-1,17.32-1.73,33.49-3.1,49.61c-0.23,2.73-2.68,6.38-5.13,7.64
	c-19.88,10.11-32.17,26.99-42.53,45.86c-5.76,10.51-9.19,10.69-15.02,0.48c-0.5-0.88-1-1.75-1.5-2.63
	c-10.46-18-22.35-34.42-41.93-44.13c-2.7-1.33-4.38-6.66-4.78-10.34c-1.38-12.37-1.73-24.83-2.93-37.25
	c-0.6-6.26,0.9-10.09,7.56-11.82c13.22-3.43,21.55-11.97,24.46-25.48c0.18-0.8,0.23-2.25,0.58-2.33l14.97-3.35l11.69-2.63
	c8.61,0.3,22.68,2.95,24.61,8.19C437.84,69.61,448.63,77.35,464.9,81.58z"/>
<path class="st3" d="M334.6,85c0.93,23.71,7.53,46.27-5.09,68.1c-3.3,5.7-3.13,13.62-3.79,20.6c-2.28,24.33-4.04,48.71-6.58,73.01
	c-0.28,2.67-4.02,6.43-6.78,7.08c-6.35,1.51-13.09,1.93-19.66,1.85c-9.68-0.12-14.11-5.12-12.58-15.18
	c6.17-40.63,11.59-81.38,18.52-121.88C301.78,100.26,313.6,88.51,334.6,85z"/>
<path class="st3" d="M532.16,245.14c0.08,3.38-4.38,9.09-7.64,9.81c-5.26,1.2-11.14,1.63-16.57,0.8c-1.45-0.2-2.88-0.53-4.23-0.93
	c-4.31-1.3-9.79-6.98-10.31-11.21c-2.78-23.43-4.13-47.04-6.16-70.54c-0.55-6.18-0.18-13.29-3.08-18.27
	c-9.91-17.02-9.26-34.87-6.96-53.22c0.33-2.68,0.48-5.38,0.6-8.31c0.1-2.48,0.2-5.11,0.35-8.06c17.95,2.48,29.39,11.24,34.17,26.94
	C525.61,155.42,531.31,199.98,532.16,245.14z"/>
<path class="st5" d="M466.97,212.84c-2.98,27.01-5.54,55.04-8.37,80.65c-35.67,7.89-71.96,7.59-108.24,0.68c0,0-0.03,0-0.05,0
	c-2.53-1.58-4.96-4.13-5.18-6.16c-3.1-26.06-5.48-52.17-7.99-78.3c4.33,2.08,8.66,3.2,13.09,3.48c13.64,6.48,27.59,3.08,42.91-4.31
	c5.31-2.58,12.64-3.58,19.53-3.03c7.23,3.55,14.14,6.11,21,6.96c0.03,0,0.03,0,0.03,0C445.02,217.1,455.76,218.15,466.97,212.84z"/>
<path class="st5" d="M446.08,83.53c-1.03,17.32-1.75,33.49-3.13,49.61c-0.23,2.73-2.68,6.38-5.11,7.63
	c-18.45,9.36-30.34,24.56-40.23,41.75c-10.46-18-22.35-34.42-41.93-44.13c-2.7-1.33-4.38-6.66-4.78-10.34
	c-1.38-12.37-1.73-24.83-2.93-37.25c-0.6-6.26,0.9-10.09,7.56-11.82c13.22-3.43,21.55-11.97,24.46-25.48
	c0.18-0.8,0.23-2.25,0.58-2.33l14.97-3.35c7.69,1.1,16,3.58,17.45,7.51C418.99,71.56,429.78,79.3,446.08,83.53z"/>
<path class="st5" d="M327.59,89.31c0.78,22.75,6.28,44.4-4.25,65.36c-2.75,5.47-2.61,13.07-3.16,19.76
	c-1.9,23.35-3.37,46.75-5.49,70.06c-0.23,2.56-3.35,6.17-5.65,6.8c-5.3,1.45-10.92,1.85-16.39,1.77
	c-8.07-0.12-11.77-4.91-10.49-14.57c5.15-38.99,9.66-78.1,15.44-116.96C300.22,103.94,310.08,92.67,327.59,89.31z"/>
<path class="st5" d="M514.81,245.62c0.05,2.63-2.65,6.66-5.38,8.66c-1.45-0.2-2.88-0.53-4.23-0.93c-4.31-1.3-9.79-6.98-10.31-11.21
	c-2.78-23.43-4.13-47.04-6.16-70.54c-0.55-6.18-0.18-13.29-3.08-18.27c-9.91-17.02-9.26-34.87-6.96-53.22
	c0.33-2.68,0.48-5.38,0.6-8.31c7.58,4.56,12.82,11.44,15.7,20.83C508.23,155.93,513.94,200.46,514.81,245.62z"/>
<path class="st0" d="M341.47,137.63c28.22,7.94,43.68,29.05,55.8,53.41c0.89,1.79-1.26,6.18-3.23,8.11
	c-10.99,10.8-24.09,17.09-39.52,12.17c-15.69-5-22.12-18.14-24.33-33.39C328.05,163.15,333.26,150.15,341.47,137.63z"/>
<path class="st0" d="M471.41,137.5c11.09,16.81,15.26,33.96,8.19,52.6c-4.55,11.99-12.75,20.97-25.99,22.51
	c-14.63,1.7-26.82-4.57-36.57-15.22c-1.42-1.55-1.72-5.64-0.72-7.64C428.14,166.1,443.64,146.1,471.41,137.5z"/>
<path class="st0" d="M473.58,84.09c-0.74,16.27-1.48,32.54-2.22,48.8c-1.74-0.11-3.47-0.22-5.21-0.33
	c0.96-16.25,1.91-32.51,2.87-48.76C470.54,83.9,472.06,84,473.58,84.09z"/>
<path class="st0" d="M343.9,83.98c1.05,16.16,2.1,32.32,3.15,48.48c-1.67,0.12-3.34,0.24-5.01,0.37
	c-0.91-16.17-1.81-32.34-2.72-48.5C340.85,84.2,342.37,84.09,343.9,83.98z"/>
<path class="st6" d="M126.18,104.68c0,15.91,0,31.83,0,47.74c-0.59,0.03-1.19,0.05-1.78,0.08c0-15.92,0-31.84,0-47.75
	C125,104.72,125.59,104.7,126.18,104.68z"/>
<path class="st6" d="M61.55,165.21c19.46,6.72,37.89,4.18,57.96-7.77C105.88,173.91,79.22,176.87,61.55,165.21z"/>
<path class="st6" d="M132.02,158.21c19.16,10.62,37.16,14.27,56.29,5.82C182.12,177.28,144.84,174.32,132.02,158.21z"/>
<path class="st6" d="M183.3,85.11c-15.65,3.84-31.31,7.68-46.96,11.53c-0.33-1.26-0.67-2.52-1-3.77
	c15.59-3.81,31.18-7.61,46.77-11.42C182.51,82.67,182.91,83.89,183.3,85.11z"/>
<path class="st6" d="M114.84,96.57c-15.67-3.73-31.35-7.47-47.02-11.2c0.29-1.22,0.58-2.45,0.87-3.67
	c15.68,3.72,31.35,7.45,47.03,11.17C115.43,94.1,115.13,95.34,114.84,96.57z"/>
</svg>
