<?xml version="1.0" encoding="utf-8"?>
<!-- Generator: Adobe Illustrator 23.0.1, SVG Export Plug-In . SVG Version: 6.00 Build 0)  -->
<svg version="1.1" id="Capa_1" xmlns="http://www.w3.org/2000/svg" xmlns:xlink="http://www.w3.org/1999/xlink" x="0px" y="0px"
	 viewBox="0 0 128.4 165.8" style="enable-background:new 0 0 128.4 165.8;" xml:space="preserve">
<style type="text/css">
	.st0{display:none;fill:#FF8125;}
	.st1{fill:#E2EBF9;}
	.st2{fill:#FFFFFF;}
	.st3{fill:#606060;}
	.st4{fill:#FF8125;}
</style>
<path class="st0" d="M-541.6,94.9c-2.8-0.2-6.1,0.2-8.7-0.9c-3.3-1.4-4.2-4.8-3.5-8.5c1.4-7.4,3.3-14.7,3.8-22.1
	c2.1-29.9-4.4-58.6-13.2-86.8c-1-3.2-2.2-6.3-3.1-9.5c-1.2-4.4,0.9-8.2,5-9.6c3.8-1.3,8.2,0.6,9.7,4.8
	c12.8,37.1,21.6,74.9,15.7,114.6c-0.6,4.1-1.7,8.1-2.8,12.2C-539.1,90.7-540.2,92.3-541.6,94.9z"/>
<path class="st0" d="M-904.8,102c2.8-0.2,6.1,0.2,8.7-0.9c3.3-1.4,4.2-4.8,3.5-8.5c-1.4-7.4-3.3-14.7-3.8-22.1
	c-2.2-29.9,4.4-58.6,13.2-86.8c1-3.2,2.2-6.3,3.1-9.5c1.2-4.5-0.9-8.2-5-9.6c-3.8-1.3-8.2,0.6-9.7,4.8
	C-907.6,6.5-916.4,44.3-910.5,84c0.6,4.1,1.7,8.1,2.8,12.2C-907.2,97.8-906.1,99.3-904.8,102z"/>
<path class="st1" d="M123.3,126.3l-13,10.9l-4.3-8.5l-2.9-5.8l-0.1,8.3l-0.4,36.2L90,159.9l-56.5-33.6l-4.1-18.5l-1.2-7.3L10.3,71.1
	c-2.6-4.9-3.8-10.4-3.6-16L7.6,30l2.7-1.6l9.8-1.7l0.9,0.1l7.3,0.5l3.4,0.4c4.4,0.6,8.2,3.5,9.8,7.6l4.1,2l5.8,5.1l5.6,4.9l1.3,1.1
	l0.3-0.3c2,1.5,2.8,4.1,3.2,7c1.2,8.2,2.1,16.5,3.3,25.3c3.2-4,5-7.5,3.7-12.5c-1.8-7.1-3.1-14.3-4.4-21.5c-0.2-1.2-0.3-2.3-0.2-3.4
	l1.3-1.2l1.2-4.1l3.3-6.2l4.1-5.7l2.8-9.8l4.4-2.2l1.3-0.9c2-1.4,4.5-1.9,6.9-1.5l0.5,0.1l5.1-4.9l1.3-0.9l2.5-1.8
	c1.5-1.1,3.5-1.1,5.1-0.2c3.9,2.4,9.9,6.4,10.7,9.1c2.5,8.8,5,17.6,6.6,26.6c0.7,4.2-0.4,8.9-1.5,13.2c-1.2,4.8-3.1,9.5-5,14.1
	c-4.4,10.9-3.3,21.4,1.8,31.8c2.7,5.7,5.3,11.5,7,17.6C124.3,119.7,124.3,123.2,123.3,126.3z"/>
<path class="st2" d="M110.5,124.9l-4.5,3.8l-3,2.5l-5.5,4.6l-7.2-14.3L90,159.9l-56.5-33.6l-4.1-18.5l-1.2-7.3L10.3,71.1
	c-2.6-4.9-3.8-10.4-3.6-16L7.6,30l2.7-1.6l9.8-1.7l0.9,0.1c3.5,1.1,6.3,3.7,7.7,7.1l4.1,2.1l11.4,9.9l1.3,1.1l0.3-0.3
	c2,1.4,2.8,4.1,3.2,6.9c1.2,8.2,2.1,16.4,3.3,25.3c3.2-4,5-7.5,3.7-12.5c-1.8-7.1-3.1-14.3-4.4-21.5c-0.2-0.9-0.3-1.8-0.3-2.6
	l5.6,4.9l1.3,1.1l0.3-0.3c2,1.5,2.8,4.1,3.2,7c1.2,8.2,2.1,16.5,3.3,25.3c3.2-4,5-7.5,3.7-12.5c-1.8-7.1-3.1-14.3-4.4-21.5
	c-0.2-1.2-0.3-2.3-0.2-3.4l1.3-1.2l1.2-4.1l3.3-6.2l4.1-5.7l2.8-9.8l4.4-2.2l1.3-0.9c2-1.4,4.5-1.9,6.9-1.5l0.5,0.1l5.1-4.9l1.3-0.9
	c2.7,2,5.1,4.1,5.6,5.7c2.5,8.8,5,17.6,6.5,26.6c0.7,4.2-0.4,8.9-1.5,13.2c-1.2,4.8-3.1,9.4-5,14.1c-4.4,10.9-3.3,21.4,1.8,31.8
	c2.7,5.7,5.3,11.5,7,17.6C111.6,118.3,111.5,121.8,110.5,124.9z"/>
<g>
	<path class="st3" d="M123.3,126.3c-1.4,4.7-4.9,8.5-9.9,10.7c-0.9,0.4-2,0.1-3.1,0.2c0.1-1.1,0.1-2.1,0.3-3.1
		c0-0.3,0.3-0.6,0.6-0.8c2.5-2.3,4-4.6,5-7c2.2-5.6,0.9-11.7-1.2-18.6c-3.7-12.3-5.4-25.3-6.8-38.1c-0.5-4.8,1.6-10.2,3.6-14.8
		c4.5-10.5,5.2-20.8,1.1-31.5c-1.4-3.5-1.6-7.6-3.2-11c-1.3-2.7-3.7-4.9-5.7-7.3c-0.1-0.1-0.1-0.1-0.1-0.2c0,0,0.2,0.2,0.2,0.2h0
		c0,0-0.1-0.1-0.1-0.2c-0.3-0.5-0.6-1-1-1.7c2.5,0.1,4.5,0.7,6.2,1.7c2.8,1.7,4.6,4.4,5.6,7.9c2.5,8.8,5,17.6,6.6,26.6
		c0.7,4.2-0.4,8.9-1.5,13.2c-1.2,4.8-3.1,9.5-5,14.1c-4.4,10.9-3.3,21.4,1.8,31.8c2.7,5.7,5.3,11.5,7,17.6
		C124.3,119.7,124.3,123.2,123.3,126.3z"/>
	<path class="st3" d="M77.1,55.3c0.1,16.6-4.9,31-16.5,43c-8.1,8.3-16,17-24,25.4c-1.2,1.3-2.7,2.3-3.2,2.6
		c8.2-11.5,17-23.8,25.8-35.9c1.8-2.4,2-4.6,1.3-7.7c-1.4-7.3-1.9-14.8-2.7-22.2c-0.5-4.4-0.9-8.9-1.3-13.3c0.1,0,0.2,0.1,0.3,0.1
		c0.6,0.2,1.2,0.5,1.6,0.8c2,1.5,2.8,4.1,3.2,7c1.2,8.2,2.1,16.5,3.3,25.3c3.2-4,5-7.5,3.7-12.5c-1.8-7.1-3.1-14.3-4.4-21.5
		c-0.2-1.2-0.3-2.3-0.2-3.4c0.1-2.2,0.9-4.1,2.5-5.3c2,8.3,4,16.8,6.2,26.2C74.5,60.6,75.8,58,77.1,55.3z"/>
	<path class="st3" d="M10.3,28.4c-0.7,4.9-1.6,9.8-2.1,14.7c-0.2,2,0.4,4,0.3,6C8,60,11.6,69.3,19.3,77.1
		c9.9,10.1,12.4,24.3,10.6,36.7c0.2-15.4-10.5-24.9-18.8-35.7c-4.3-5.6-6.3-11.9-6.5-19c-0.1-6.5-0.9-12.9-1-19.4
		C3.5,34.2,6,30.2,10.3,28.4z"/>
	<path class="st3" d="M103.9,122.6c2,10.5,4.3,21,5.9,31.6c0.4,3-0.9,6.4-2,9.4c-0.5,1.3-2.6,2-5.2,3.8c0-15.9,0-30.3,0-44.7
		C103,122.6,103.5,122.6,103.9,122.6z"/>
	<path class="st4" d="M102.4,115.6c-1.9-9.5,2.3-17.2,2.1-25.6C111,96.4,111.8,106.9,102.4,115.6z"/>
	<path class="st3" d="M96.9,31.5c-1.5-9-7.2-16.7-2-24.9c1.2,3.8,2.2,7.7,3.7,11.3C100.5,22.5,101.1,26.7,96.9,31.5z"/>
	<path class="st3" d="M20.1,26.7C27,33.1,24.8,41.7,26,50c-5.4-2.5-6.7-5.8-6-11.6C20.5,34.7,20.1,30.9,20.1,26.7z"/>
	<path class="st3" d="M86.5,14.3c0.7,6.4,1.4,12.3,2.1,18.2c-0.5,0-1,0.1-1.5,0.1c-2.4-6.4-5-12.9-2.4-19.9c1.5-4.2,3.6-4.3,6.6-0.4
		c-0.7,0.4-1.4,0.8-2.1,1.1C88.4,13.7,87.6,13.9,86.5,14.3z"/>
	<path class="st3" d="M79.6,37.9c-1.4-5.4-3-10.8-4.3-16.2c-1.3-5.3,0.7-7.8,6.4-8.1c-0.4,1.2-0.5,2.8-1.2,3c-4.8,1.8-3,5.1-2,8.2
		c1,2.8,2.2,5.6,2.8,8.5c0.3,1.5-0.6,3.3-0.9,4.9C80.2,38.1,79.9,38,79.6,37.9z"/>
	<path class="st3" d="M35.4,28.4c4.1-1.3,6.9,0.6,7.5,4.6c0.9,6.1,1.1,12.4,0.5,19c-0.8-2.1-2.1-4.2-2.4-6.4c-0.3-2.6,0.3-5.3,0.2-8
		c-0.1-2.7,0.5-6-4-5.9c-1.1,0-2.3-1-3.4-1.6C34.3,29.7,34.8,29,35.4,28.4z"/>
	<path class="st3" d="M34,48.8c-0.8-4-1.5-7.9-2.3-11.9c-0.5-2.7-0.1-5.9-4.3-6.2c-0.6,0-1-1.7-1.5-2.6c1.1-0.3,3-1.2,3.3-0.8
		c1.9,2.2,4.3,4.4,5,7.1c1.2,4.6,1.3,9.4,1.9,14.1C35.5,48.7,34.7,48.7,34,48.8z"/>
	<path class="st3" d="M74.6,45.8c-4.2-4-6.2-14.6-3.3-18.6c0.7-1,2.5-1.1,3.8-1.7c-0.3,1.2-0.8,2.3-0.8,3.5c-0.1,2.7-0.3,5.5,0,8.2
		c0.3,2.8,1.2,5.5,1.8,8.3C75.5,45.6,75.1,45.7,74.6,45.8z"/>
	<path class="st3" d="M50.7,57.5c-0.5-2.3-1.6-4.6-1.3-6.8c0.5-4.9,0.3-9.4-5-12.1c0.3-0.5,0.6-0.9,0.9-1.4c1.3,0.5,2.8,0.6,3.9,1.5
		C52.7,41.6,54.1,51.2,50.7,57.5z"/>
	<path class="st4" d="M103.7,4.9c0.7,1.5,2,3.1,1.9,4.5c-0.1,1.8-1,4.1-2.4,5.1c-2.5,1.7-4.3,0-5.4-2.5c-0.9-2-2.3-4,1-5.2
		c1.7-0.6,3.4-1.1,5.1-1.7C103.9,5.1,103.7,4.9,103.7,4.9z"/>
	<path class="st4" d="M12.5,28c3,0.7,5.1,1.2,8.3,2c-1.4,2.8-2.3,5.3-3.8,7.2c-0.5,0.6-4.1-0.3-4.2-0.9C12.2,33.8,12.5,31.2,12.5,28
		z"/>
</g>
</svg>
