<?xml version="1.0" encoding="utf-8"?>
<!-- Generator: Adobe Illustrator 23.0.1, SVG Export Plug-In . SVG Version: 6.00 Build 0)  -->
<svg version="1.1" id="Capa_1" xmlns="http://www.w3.org/2000/svg" xmlns:xlink="http://www.w3.org/1999/xlink" x="0px" y="0px"
	 viewBox="0 0 465.88 340.24" style="enable-background:new 0 0 465.88 340.24;" xml:space="preserve">
<style type="text/css">
	.st0{fill:#E2EBF9;stroke:#606060;stroke-width:6;stroke-miterlimit:10;}
	.st1{fill:#FFAA16;stroke:#FF8125;stroke-width:2;stroke-miterlimit:10;}
	.st2{fill:#FFAA16;stroke:#FF8125;stroke-width:3;stroke-miterlimit:10;}
	.st3{fill:#FCFCFC;}
</style>
<g>
	<path class="st0" d="M116.53,329.22c0.83-2.65,1.71-5.28,2.47-7.95c6.39-22.37,12.88-44.72,19.09-67.14
		c3.98-14.37,0.33-27.49-8.3-39.13c-5.23-7.05-10.72-14.25-17.39-19.82c-13.71-11.44-24.34-25.03-32.35-40.8
		c-7.02-13.81-17.69-24.52-29.11-34.56c-9.34-8.21-17.29-17.16-22.59-28.78c-5.09-11.16-12.03-21.48-18.11-32.19
		c-1.06-1.87-2.37-3.82-2.63-5.86c-0.3-2.39-0.47-6,0.9-7.1c1.97-1.6,5.97-2.69,8.06-1.73c4.23,1.96,8.55,4.81,11.42,8.42
		c5.77,7.27,11.46,14.86,15.63,23.1c7.69,15.18,19.65,25.35,34.44,32.74c6.84,3.42,13.57,7.32,20.79,9.63
		c13.59,4.36,21.93,13.94,28.46,25.78c1.19,2.17,2.3,4.39,3.44,6.58c0.47-0.2,0.94-0.4,1.41-0.59c-2.64-6.24-4.92-12.65-7.99-18.67
		c-5.75-11.26-12.03-22.24-17.91-33.44c-1.45-2.77-3.11-5.91-3.07-8.85c0.05-3.17,1.15-7.34,3.36-9.14
		c1.95-1.58,6.73-1.67,9.08-0.34c4.21,2.39,8.18,5.86,11.1,9.74c6.38,8.51,12.09,17.54,17.97,26.42
		c5.94,8.97,13.22,16.53,21.75,23.17c12.06,9.38,22.12,20.66,29.21,34.39c8.79,17.01,9.93,34.54,4.26,52.77
		c-1.81,5.82-3.61,11.92-3.79,17.94c-0.85,28.47-1.13,56.95-1.61,85.43C168.53,329.22,142.53,329.22,116.53,329.22z"/>
	<path class="st1" d="M95.07,111.65c-14.25-8.9-31.03-14.12-40.8-29.5c-4.19-6.6-8.36-13.26-13.09-19.47
		c-4.68-6.14-6.55-13.06-6.83-20.43c-0.09-2.29,1.07-5.72,2.78-6.71c1.96-1.15,6.09-1.24,7.64,0.1c3.66,3.17,7.63,7.01,9.21,11.39
		c8.35,23.11,24.63,40.88,39.06,59.91c0.95,1.25,1.9,2.51,2.85,3.76C95.62,111.02,95.34,111.33,95.07,111.65z"/>
	<path class="st2" d="M114.55,119.74c-0.3,0.36-0.82,0.42-1.19,0.14c-5.28-3.93-11.19-7.28-15.49-12.08
		c-8.73-9.76-16.5-20.37-24.61-30.67c-2.75-3.5-3.56-7.48-3.82-12c-0.38-6.58-1.77-13.12-3.08-19.61c-1.05-5.18,1.62-8.23,6.8-6.87
		c5.21,1.37,8.6,4.95,10.1,10.07c2.05,7.01,4.53,13.98,5.65,21.15c2.99,19.09,13.3,34.27,25.63,48.6
		C114.55,118.95,114.55,119.26,114.55,119.74L114.55,119.74z"/>
</g>
<path class="st3" d="M19.62,54.65c0,0,70.59,112.24,110.12,135.53s21.18,79.76,21.18,79.76l-16.24,50.12l-2.82,5.29h60l2.12-92.47
	c0,0,13.89-38.23-2.82-62.82s-47.29-42-53.65-60.35c-6.35-18.35-26.12-33.53-28.94-26.82c-2.82,6.71-7.94,7.9,9,31.24
	s17.82,37.59,17.82,37.59l-4.24,1.76l-2.82-0.35c0,0-10.59-29.53-36.47-34.24c0,0-24.71-5.29-55.06-49.65l-12-15.76
	C24.79,53.48,17.03,48.06,19.62,54.65z"/>
<g>
	<path class="st0" d="M347.58,320.83c-0.83-2.65-1.71-5.28-2.47-7.95c-6.39-22.37-12.88-44.72-19.09-67.14
		c-3.98-14.37-0.33-27.49,8.3-39.13c5.23-7.05,10.72-14.25,17.39-19.82c13.71-11.44,24.34-25.03,32.35-40.8
		c7.02-13.81,17.69-24.52,29.11-34.56c9.34-8.21,17.29-17.16,22.59-28.78c5.09-11.16,12.03-21.48,18.11-32.19
		c1.06-1.87,2.37-3.82,2.63-5.86c0.3-2.39,0.47-6-0.9-7.1c-1.97-1.6-5.97-2.69-8.06-1.73c-4.23,1.96-8.55,4.81-11.42,8.42
		c-5.77,7.27-11.46,14.86-15.63,23.1c-7.69,15.18-19.65,25.35-34.44,32.74c-6.84,3.42-13.57,7.32-20.79,9.63
		c-13.59,4.36-21.93,13.94-28.46,25.78c-1.19,2.17-2.3,4.39-3.44,6.58c-0.47-0.2-0.94-0.4-1.41-0.59
		c2.64-6.24,4.92-12.65,7.99-18.67c5.75-11.26,12.03-22.24,17.91-33.44c1.45-2.77,3.11-5.91,3.07-8.85
		c-0.05-3.17-1.15-7.34-3.36-9.14c-1.95-1.58-6.73-1.67-9.08-0.34c-4.21,2.39-8.18,5.86-11.1,9.74
		c-6.38,8.51-12.09,17.54-17.97,26.42c-5.94,8.97-13.22,16.53-21.75,23.17c-12.06,9.38-22.12,20.66-29.21,34.39
		c-8.79,17.01-9.93,34.54-4.26,52.77c1.81,5.82,3.61,11.92,3.79,17.94c0.85,28.47,1.13,56.95,1.61,85.43
		C295.58,320.83,321.58,320.83,347.58,320.83z"/>
	<path class="st1" d="M369.04,103.26c14.25-8.9,31.03-14.12,40.8-29.5c4.19-6.6,8.36-13.26,13.09-19.47
		c4.68-6.14,6.55-13.06,6.83-20.43c0.09-2.29-1.07-5.72-2.78-6.71c-1.96-1.15-6.09-1.24-7.64,0.1c-3.66,3.17-7.63,7.01-9.21,11.39
		c-8.35,23.11-24.63,40.88-39.06,59.91c-0.95,1.25-1.9,2.51-2.85,3.76C368.5,102.62,368.77,102.94,369.04,103.26z"/>
	<path class="st2" d="M349.56,111.35c0.3,0.36,0.82,0.42,1.19,0.14c5.28-3.93,11.19-7.28,15.49-12.08
		c8.73-9.76,16.5-20.37,24.61-30.67c2.75-3.5,3.56-7.48,3.82-12c0.38-6.58,1.77-13.12,3.08-19.61c1.05-5.18-1.62-8.23-6.8-6.87
		c-5.21,1.37-8.6,4.95-10.1,10.07c-2.05,7.01-4.53,13.98-5.65,21.15c-2.99,19.09-13.3,34.27-25.63,48.6
		C349.57,110.56,349.56,110.87,349.56,111.35L349.56,111.35z"/>
</g>
<path class="st3" d="M444.5,46.26c0,0-70.59,112.24-110.12,135.53s-21.18,79.76-21.18,79.76l16.24,50.12l2.82,5.29h-60l-2.12-92.47
	c0,0-13.89-38.23,2.82-62.82c16.72-24.6,47.29-42,53.65-60.35s26.12-33.53,28.94-26.82c2.82,6.71,7.94,7.9-9,31.24
	c-16.94,23.33-17.82,37.59-17.82,37.59l4.24,1.76l2.82-0.35c0,0,10.59-29.53,36.47-34.24c0,0,24.71-5.29,55.06-49.65l12-15.76
	C439.32,45.08,447.09,39.67,444.5,46.26z"/>
</svg>
