<?xml version="1.0" encoding="utf-8"?>
<!-- Generator: Adobe Illustrator 23.0.1, SVG Export Plug-In . SVG Version: 6.00 Build 0)  -->
<!DOCTYPE svg PUBLIC "-//W3C//DTD SVG 1.1//EN" "http://www.w3.org/Graphics/SVG/1.1/DTD/svg11.dtd" [
	<!ENTITY ns_extend "http://ns.adobe.com/Extensibility/1.0/">
	<!ENTITY ns_ai "http://ns.adobe.com/AdobeIllustrator/10.0/">
	<!ENTITY ns_graphs "http://ns.adobe.com/Graphs/1.0/">
	<!ENTITY ns_vars "http://ns.adobe.com/Variables/1.0/">
	<!ENTITY ns_imrep "http://ns.adobe.com/ImageReplacement/1.0/">
	<!ENTITY ns_sfw "http://ns.adobe.com/SaveForWeb/1.0/">
	<!ENTITY ns_custom "http://ns.adobe.com/GenericCustomNamespace/1.0/">
	<!ENTITY ns_adobe_xpath "http://ns.adobe.com/XPath/1.0/">
	<!ENTITY st0 "fill:#E2EBF9;stroke:#606060;stroke-width:10;stroke-miterlimit:10;">
	<!ENTITY st1 "fill:#FCFCFC;">
	<!ENTITY st2 "fill:#FFAA16;stroke:#FF8125;stroke-width:7;stroke-miterlimit:10;">
]>
<svg version="1.1" id="Capa_1" xmlns:x="&ns_extend;" xmlns:i="&ns_ai;" xmlns:graph="&ns_graphs;"
	 xmlns="http://www.w3.org/2000/svg" xmlns:xlink="http://www.w3.org/1999/xlink" x="0px" y="0px" width="650.8px" height="653.6px"
	 viewBox="0 0 650.8 653.6" style="enable-background:new 0 0 650.8 653.6;" xml:space="preserve">
<metadata>
	<sfw  xmlns="&ns_sfw;">
		<slices></slices>
		<sliceSourceBounds  bottomLeftOrigin="true" height="599.3" width="544.6" x="-54.1" y="30.5"></sliceSourceBounds>
	</sfw>
</metadata>
<path style="&st0;" d="M181.9,612.6c-3.6-0.3-5.1-2-5.6-6c-2-16.5-4.2-33-6.4-49.5c-0.3-2.5-0.7-5-1.3-7.4
	c-2.3-9-7.5-13.9-16.8-13.3c-10.3,0.8-20.6,2.4-30.9,3.7c-1,0.1-2,0.3-3,0.4c-3.1,0.4-6.1,0.7-9.2,1c-10.2,0.9-20.7,1.7-30.8,0.5
	c-2.1-0.3-4.1-0.6-6.1-1.1c-0.4-0.1-0.7-0.2-1.1-0.3c-21.3-5.5-30.8-22.7-25.2-46c1.9-7.9,4.7-15.6,7.7-23.2c2-5.1,0.8-8.6-3.3-11.7
	c-3.1-2.3-6.3-4.4-9.1-7c-6.3-5.9-5.6-11.5,1.9-15.5c3.6-1.9,7.5-3.2,11.8-5c-4.5-1-8.6-1.6-12.6-2.8c-9.1-2.7-10.9-5.8-8.9-15.1
	c0.8-3.9,2.2-7.7,3.5-11.5c3.2-9.9,2.4-11.9-7.3-16c-4.6-1.9-9.4-3.4-14.1-5.1c-2.3-0.9-4.7-1.7-6.9-2.9c-7.5-4-10.4-10.4-6.7-18
	c5.5-11.2,11.6-22.1,18.3-32.6C30.1,312,41,296.1,51.6,280c4.8-7.3,5-7.9-1-14c-4.9-5-5.3-10.8-4.5-17.1
	c5-37.1,14.6-72.8,32.5-105.8c17.2-31.6,38.6-59.5,68.7-80c25.7-17.5,54.5-27.8,84.9-33.4c13.8-2.5,27.7-4.3,41.4-5.3
	c0.6,0,1.2-0.1,1.7-0.1c39.3-2.5,78.2,1.7,116.2,14.6c78,26.4,124.8,81.1,139.3,162.1c12.5,69.4-7.2,130.4-51.8,184.1
	c-4.3,5.1-8.2,10.6-13,15.2c-16.8,16.3-25.2,36.6-28.7,59.1c-5.8,37.1-6.4,74.1,5.7,110.2c4.2,12.6,10.1,24.6,15.3,36.8
	c0.8,1.8,1.7,3.5,3.1,6.3c-11.2,0-21.5,0-31.8,0c-3.6,0-7.2,0-10.8,0h-3.4h-42.7c-14.7,0-29.5,0-44.2,0c-5.9,0-11.8,0-17.6,0
	c-3.2,0-6.3,0-9.5,0c-39.3,0-78.5,0.1-117.8,0.1C183.1,612.7,182.6,612.7,181.9,612.6C182,612.6,182,612.6,181.9,612.6
	C182,612.6,182,612.6,181.9,612.6"/>
<path style="&st1;" d="M433.1,384.9c-4.3,5.1-8.2,10.6-13,15.2c-16.8,16.3-25.2,36.6-28.7,59.2c-5.8,37.1-6.4,74.1,5.7,110.2
	c4.2,12.6,10.1,24.6,15.3,36.8c0.8,1.8,1.7,3.5,3.1,6.3H341c-10,0-20,0-30,0h-28.4c-33.5,0-67.1,0-100.6,0.1c-3.5-0.4-5-2-5.5-6
	c-2-16.5-4.2-33-6.4-49.5c-0.3-2.5-0.7-5-1.4-7.4c-2.3-9-7.5-13.9-16.8-13.3c-10.3,0.8-20.6,2.4-30.9,3.7c-1,0.1-2,0.3-3,0.4
	c-2.9-3-6.8-4.5-12.2-4.1c-10.3,0.8-20.6,2.4-30.9,3.7c-1.4,0.2-2.7,0.4-4.1,0.5c-21.3-5.5-30.8-22.7-25.2-46
	c1.9-7.9,4.7-15.6,7.7-23.2c2-5.1,0.8-8.6-3.3-11.7c-3.1-2.3-6.3-4.4-9.1-7c-6.3-5.9-5.6-11.5,1.9-15.5c3.6-1.9,7.5-3.2,11.8-5
	c-4.5-1-8.6-1.6-12.6-2.8c-9.1-2.7-10.9-5.8-8.9-15.1c0.8-3.9,2.2-7.7,3.5-11.5c3.2-9.9,2.4-11.9-7.3-16c-4.6-1.9-9.4-3.4-14.1-5.1
	c-2.3-0.9-4.7-1.7-6.9-2.9c-7.5-4-10.4-10.4-6.7-18c5.5-11.2,11.6-22.1,18.3-32.6C30.1,312,41,296.1,51.6,280c4.8-7.3,5-7.9-1-14
	c-4.9-5-5.3-10.8-4.5-17.1c5-37.1,14.6-72.8,32.5-105.8c17.2-31.6,38.6-59.5,68.7-80c25.7-17.5,54.5-27.8,84.9-33.4
	c13.8-2.5,27.7-4.3,41.4-5.3c24.2,1.8,48.2,6.4,71.9,14.4c78,26.4,124.8,81.1,139.3,162.1C497.3,270.1,477.7,331.2,433.1,384.9z"/>
<path style="&st2;" d="M191.7,267.2c-21.3-0.2-41.3-3.6-61.1-8.3c-3.1-0.7-6.1-1.8-8.9-3.1c-13-5.8-17-13.7-14.4-28.4
	c-8.4-0.6-15.2-4.3-19.4-11.7c-5.2-9.1-5.6-19.1-3.5-29.1c3.8-18.6,13.2-30.9,31.4-41.7c-2.8-14.3,10.5-23.8,22.8-25
	c1.8-0.2,4.6-1.1,5.2-2.5c6.5-16.1,34.7-29.1,54.1-21.4c0.4,0.2,1,0.2,1.7,0.3c6.5-10,15.5-16.7,27.5-18.7c8-1.4,15.6,0.2,22.8,3.5
	c2.8,1.3,4.6,0.8,7.2-0.6c15.9-8.9,32.5-11.2,49-2.1c4.9,2.7,8.6,3.9,14.3,2.7c16.7-3.5,27.1,2.2,36.8,18.5
	c3.8-0.9,7.6-2.4,11.5-2.6c14.2-0.7,23.5,7,30,18.6c1.6,2.8,3,4,6.4,4.3c12.5,1.1,19.6,9.2,20,21.7c0,1.5,1.4,3.3,2.7,4.4
	c2.5,2.2,5.6,3.7,7.9,6c9.3,9.5,14.5,19.8,5.9,35c19.6,21.7,24.9,47.2,20.3,75.2c-2.4,14.8-10.3,26.2-24.5,32.9
	c3.3,13.8,0.8,26.4-9.7,36.2c-11.1,10.4-24.3,7.7-36.7,4c-2.8,8-4.8,16.1-8.3,23.6c-11.2,23.5-36,29.2-56.7,13.4
	c-4.2-3.2-7.8-7.1-12.1-11c-2.8,12.8-5.5,25.4-8.3,38.7c-5.2,0-10.5,0.2-15.8-0.2c-1.1-0.1-2.5-2.2-3-3.6c-5.1-15-10.3-29.9-14.8-45
	c-6.6-21.9-22.4-31.4-43.8-34.4c-10.8-1.5-21-5.2-29.8-11.9c-12.5-9.4-15.1-20.1-8.3-34.1C190.5,269.8,191,268.8,191.7,267.2z"/>
</svg>
