<?xml version="1.0" encoding="utf-8"?>
<!-- Generator: Adobe Illustrator 23.0.1, SVG Export Plug-In . SVG Version: 6.00 Build 0)  -->
<svg version="1.1" id="Capa_1" xmlns="http://www.w3.org/2000/svg" xmlns:xlink="http://www.w3.org/1999/xlink" x="0px" y="0px"
	 viewBox="0 0 592.94 635.92" style="enable-background:new 0 0 592.94 635.92;" xml:space="preserve">
<style type="text/css">
	.st0{fill:#E2EBF9;}
	.st1{fill:#FFFFFF;}
	.st2{fill:#FF8125;}
	.st3{fill:none;stroke:#606060;stroke-width:12;stroke-miterlimit:10;}
	.st4{fill:#606060;}
</style>
<path class="st0" d="M575.88,453.55c0,1.07,0,2.14-0.02,3.21c-0.41,33.14-5.81,66.07-17.07,98.73
	c-5.65,16.41-12.88,32.09-22.34,46.69c-2.56,3.95-5.67,6.37-9.71,7.33c-1.35,0.32-2.81,0.48-4.38,0.48
	c-22.76-0.01-45.51-0.02-68.27-0.02c-125.56-0.04-251.13-0.03-376.7-0.05c-1.61,0-3.08-0.11-4.42-0.34
	c-0.44-0.08-0.87-0.17-1.29-0.27c-0.31-0.08-0.61-0.16-0.91-0.26c-4.44-1.43-7.13-4.7-8.73-10.61
	c-9.47-34.86-19.66-69.56-27.77-104.75c-6.23-27.01-9.53-54.52-9.59-82.26c0.01-6.08,0.19-12.17,0.53-18.27
	c2.16-38.73,14.09-74.45,34.64-107.22c14.43-23,29.61-45.52,44.11-68.47c15.9-25.16,27.77-52.07,31.61-81.83
	c1.05-8.12,1.52-16.1,1.4-23.9v-0.12c0.58-34.47-9.95-65.92-33.37-93.3c-2.47-2.89-3.9-5.78-4.51-8.5
	c-0.08-0.36-0.15-0.73-0.21-1.08c-0.7-4.62,3-8.74,7.66-8.74h388.72c4.99,0,8.8,4.69,7.52,9.51c-0.01,0.03-0.02,0.07-0.03,0.1
	c0,0.03-0.01,0.06-0.02,0.09c-0.92,3.25-2.95,6.39-5.12,9.06c-12.3,15.16-23.22,31.1-30.93,49.25c-6.64,15.65-9.82,31.32-9.4,46.88
	c-0.41,15.91,3.01,31.73,10.39,47.32c8.15,17.23,18.36,33.58,28.51,49.78c31.6,50.43,57.08,103.49,70.32,161.83
	C572.56,400.5,575.83,427.08,575.88,453.55z"/>
<path class="st1" d="M506.89,453.55c0,1.07,0,2.14-0.01,3.21c-0.42,33.14-5.81,66.07-17.07,98.73
	c-5.66,16.41-12.89,32.09-22.35,46.69c-2.56,3.95-5.67,6.37-9.71,7.33c-1.14,0.27-2.37,0.43-3.66,0.46
	c-125.56-0.04-251.13-0.03-376.7-0.05c-1.61,0-3.08-0.11-4.42-0.34c-0.44-0.08-0.87-0.17-1.29-0.27c-0.31-0.08-0.61-0.16-0.91-0.26
	c-4.44-1.43-7.13-4.7-8.73-10.61c-9.47-34.86-19.66-69.56-27.77-104.75c-6.23-27.01-9.53-54.52-9.59-82.26
	c0.01-6.08,0.19-12.17,0.53-18.27c2.16-38.73,14.09-74.45,34.64-107.22c14.43-23,29.61-45.52,44.11-68.47
	c15.9-25.16,27.77-52.07,31.61-81.83c1.05-8.12,1.52-16.1,1.4-23.9v-0.12c0.58-34.47-9.95-65.92-33.37-93.3
	c-2.47-2.89-3.9-5.78-4.51-8.5c-0.08-0.36-0.15-0.73-0.21-1.08c-0.7-4.62,3-8.74,7.66-8.74h319.73c4.99,0,8.81,4.69,7.52,9.51
	c-0.01,0.03-0.02,0.07-0.03,0.1c0,0.03-0.01,0.06-0.01,0.09c-0.93,3.25-2.96,6.39-5.12,9.06c-12.31,15.16-23.23,31.1-30.94,49.25
	c-6.63,15.65-9.81,31.32-9.4,46.88c-0.41,15.91,3.02,31.73,10.4,47.32c8.14,17.23,18.35,33.58,28.5,49.78
	c31.6,50.43,57.08,103.49,70.32,161.83C503.57,400.5,506.84,427.08,506.89,453.55z"/>
<path class="st2" d="M499.29,478.58c-2.81-0.23-6.07,0.24-8.65-0.88c-3.31-1.44-4.22-4.81-3.52-8.51c1.38-7.35,3.28-14.68,3.81-22.1
	c2.15-29.89-4.36-58.56-13.18-86.83c-0.99-3.17-2.22-6.28-3.06-9.49c-1.17-4.45,0.87-8.19,4.96-9.61c3.84-1.34,8.2,0.57,9.66,4.82
	c12.8,37.14,21.64,74.86,15.71,114.56c-0.61,4.1-1.68,8.15-2.78,12.16C501.76,474.39,500.65,475.91,499.29,478.58z"/>
<path class="st2" d="M136.09,485.64c2.81-0.23,6.07,0.24,8.65-0.88c3.31-1.44,4.22-4.81,3.52-8.51c-1.38-7.35-3.28-14.68-3.81-22.1
	c-2.15-29.89,4.36-58.56,13.18-86.83c0.99-3.17,2.22-6.28,3.06-9.49c1.17-4.45-0.87-8.19-4.96-9.61c-3.84-1.34-8.2,0.57-9.66,4.82
	c-12.8,37.14-21.64,74.86-15.71,114.56c0.61,4.1,1.68,8.15,2.78,12.16C133.62,481.45,134.73,482.97,136.09,485.64z"/>
<g>
	<path class="st3" d="M575.88,453.55c0,1.07,0,2.14-0.02,3.21c-0.24,33.32-5.64,66.45-17.07,99.29
		c-5.65,16.24-12.88,31.76-22.34,46.21c-2.56,3.91-5.67,6.31-9.71,7.25c-1.35,0.32-2.81,0.48-4.38,0.48
		c-148.32-0.06-296.64-0.05-444.97-0.07c-1.61,0-3.08-0.11-4.42-0.34c-0.44-0.08-0.87-0.17-1.29-0.27
		c-0.31-0.08-0.61-0.16-0.91-0.26c-4.44-1.4-7.13-4.65-8.73-10.49c-9.47-34.5-19.66-68.84-27.77-103.66
		c-6.39-27.41-9.69-55.32-9.59-83.47c0.01-6.08,0.19-12.17,0.53-18.27c2.16-38.73,14.09-74.45,34.64-107.22
		c14.43-23,29.61-45.52,44.11-68.47c15.9-25.16,27.77-52.07,31.61-81.83c1.05-8.12,1.52-16.1,1.4-23.9v-0.12
		c-0.53-32.1-11.14-61.44-33.37-87.17c-4.49-5.2-5.55-10.39-4.51-14.63c0.3-1.26,0.79-2.43,1.43-3.5c1.83-3.05,4.88-5.21,8.34-5.9
		c5.76-1.15,10.11,1.25,13.7,5.32c0.17,0.19,0.34,0.38,0.5,0.58c12.11,13.85,21.57,29.37,28.27,46.5
		c20.21,51.74,14.15,101.93-9.41,150.92c-14.06,29.24-33.41,55.26-50.96,82.36C76.4,308.59,63.88,332,57.37,358.2
		c-7,28.16-7.44,56.71-4.47,85.4c4.8,46.45,17.08,91.22,30.57,135.73c1,3.28,2.5,4.32,5.96,4.31c64.16-0.11,128.32-0.08,192.49-0.1
		c1.46,0,2.92-0.17,4.88-0.29c0.09-1.9,0.2-3.22,0.2-4.55c0.01-36.33-0.02-72.66,0.07-108.99c0.01-2.94-0.83-4.11-3.7-5.31
		c-22.71-9.52-45.33-19.28-67.9-29.16c-7.98-3.49-10.99-10.87-7.88-17.96c3.04-6.93,10.54-9.61,18.69-6.15
		c21.15,8.96,42.25,18.03,63.27,27.29c7.2,3.17,13.95,3.17,21.16,0c20.56-9.07,41.25-17.83,61.88-26.73
		c4.92-2.13,9.84-3.21,14.81-0.21c7.98,4.81,8.7,15.88,1.18,21.4c-2.63,1.93-5.79,3.23-8.83,4.54
		c-21.24,9.16-42.52,18.21-63.73,27.44c-1.17,0.51-2.56,2.25-2.57,3.42c-0.13,38.15-0.11,76.31-0.11,115.04
		c1.87,0.09,3.46,0.23,5.06,0.23c64.66,0.01,129.32-0.01,193.98,0.05c2.88,0,4.79-0.47,6.41-3.35
		c17.61-31.37,26.48-65.28,29.34-100.87c5.32-66.42-10.79-128.49-38.54-188.18c-14.09-30.3-32-58.37-49.58-86.67
		c-14.98-24.13-26.47-49.67-28.51-78.57c-2.24-31.81,7.07-60.62,23.62-87.21c7.05-11.32,15.47-21.82,23.63-32.43
		c0.16-0.21,0.33-0.43,0.49-0.64C482.18,1.85,485.95,0,489.81,0c1.97,0,3.96,0.48,5.88,1.43c2.35,1.17,4.27,2.87,5.57,4.89
		c0.66,1.02,1.17,2.13,1.49,3.29c0.57,1.99,0.6,4.14-0.02,6.31c-0.92,3.22-2.95,6.33-5.12,8.97c-12.3,15-23.22,30.78-30.93,48.74
		c-5.9,13.77-9.07,27.55-9.4,41.26c-0.41,15.91,3.01,31.73,10.39,47.32c8.15,17.23,18.36,33.58,28.51,49.78
		c31.6,50.43,57.08,103.49,70.32,161.83C572.56,400.5,575.83,427.08,575.88,453.55z"/>
	<path class="st4" d="M319.37,281.52c-0.05,10.69-8.82,19.26-19.51,19.05c-10.63-0.2-18.86-8.55-18.89-19.15
		c-0.02-10.7,8.62-19.4,19.24-19.37C310.85,262.08,319.42,270.79,319.37,281.52z"/>
</g>
</svg>
