<?xml version="1.0" encoding="utf-8"?>
<!-- Generator: Adobe Illustrator 23.0.1, SVG Export Plug-In . SVG Version: 6.00 Build 0)  -->
<svg version="1.1" id="Capa_1" xmlns="http://www.w3.org/2000/svg" xmlns:xlink="http://www.w3.org/1999/xlink" x="0px" y="0px"
	 viewBox="0 0 275.4 474.4" style="enable-background:new 0 0 275.4 474.4;" xml:space="preserve">
<style type="text/css">
	.st0{fill:#606060;}
	.st1{fill:#E2EBF9;}
	.st2{fill:#FFFFFF;}
	.st3{fill:#FF8125;}
</style>
<g>
	<path class="st0" d="M135.7,255.5c-19.7,25-39,48.6-53.8,75.3c-5.7,10.2-6.9,21.5-8.6,32.6c-2.7,18.1-5.1,36.2-7.8,54.3
		c-1.1,7.1,1.4,11.7,8,14.7c3.7,1.7,7.2,4.2,10.3,6.9c5.1,4.5,4.5,10.3-1.8,12.6c-7.2,2.7-15,5.1-22.6,5.5
		c-10.5,0.5-21.4,0.2-31.7-1.8c-16.9-3.3-25.2-14.3-22.6-31c3.5-23,2.5-45.3-3.6-67.7c-4-14.9,1.3-27.4,14.1-35.5
		c18.2-11.5,28.6-28.2,35.2-48.1c12.6-38.2,29.6-74.2,54-106.3c8.5-11.3,18.3-21.5,27.7-32.1c13.1-14.8,15.6-31,6.1-48.4
		c-6.7-12.4-14.2-24.5-21.7-36.4c-2.5-3.9-2.1-6.3,1.1-9.4C140.2,18.6,167,7,198.3,5.8c3.5-0.1,7,0.1,10.5-0.1
		c4.7-0.3,8.7-0.1,9.3,6.1c0.1,0.8,2.6,1.9,4.2,2.1c8.5,1.2,17.2,1.6,25.7,3.2c7.1,1.3,7,2,5.4,8.7c-4.8,19.2-9.6,38.4-14.3,57.6
		c-0.6,2.6-0.7,5.7,0.1,8.2c7.6,24.3,1.3,45.1-14.5,64.1c-1.9,2.3-2.5,6-3,9.2c-7.4,47.5-14.6,95.1-22.2,142.6
		c-2.6,16.2-7.3,32.2-9.1,48.5c-1.3,11.7,0.2,23.8,1.3,35.7c0.3,3.3,3.3,6.9,6,9.2c10.4,8.8,21,17.5,31.9,25.7
		c4.4,3.3,10,5.1,15,7.5c8.6,4.2,17.7,7.7,25.7,12.9c7.7,5,6.4,12.2-2,16c-7.8,3.5-16.3,4-24.5,2.6c-15.5-2.8-30.9-6.5-46.3-9.7
		c-3.4-0.7-6.8-1.3-10.2-1.6c-14.4-1.1-28.8-2.1-43.3-3.2c-1.6-0.1-3.2-0.8-4.8-1.3c-7.8-2.7-10.1-5.6-9.1-13.7
		c1.5-11.7,2.9-23.5,5.7-34.9c4.5-18.2,5.1-36.6,4.4-55.1c-1.1-28.8-2.7-57.6-4.1-86.4C136.1,258.6,135.9,257.7,135.7,255.5z
		 M119.6,44c2.3,3.6,4.5,6.7,6.4,10.1c6.3,11.3,13.1,22.4,18.6,34.1c6.9,14.8,4.9,29.3-5,42.3c-3.8,5-8.3,9.5-12.3,14.5
		c-10.7,13.5-22.2,26.6-31.8,40.9c-19,28.3-32.2,59.6-43,91.9c-5.8,17.5-14.9,32.7-31,42.8c-3.1,1.9-5.6,4.7-8.3,7.1
		c-7.7,6.6-9.8,15.2-8.4,24.8c0.7,4.4,1.4,8.9,2.6,13.2c3.3,13,4.7,26.2,3.1,39.6c-0.8,6.8-1.8,13.6-2.1,20.4
		c-0.7,12.9,4.1,20.1,16.6,23.8c5.7,1.7,11.8,3.1,17.6,2.8c10.6-0.4,21.1-2,31.6-3.5c2-0.3,3.8-2.3,5.7-3.5c-1.5-1.7-2.7-3.7-4.4-5
		c-2.8-2.1-5.9-3.7-9-5.4c-4.8-2.6-7.6-6.3-7.3-12c0.1-2.2-0.1-4.4,0.2-6.5c2.7-18.8,5.9-37.5,8-56.3c1.9-17,8.4-32,17.6-46.1
		c19.5-29.7,40.9-58,64.1-84.9c23.1-26.7,47.3-52.5,70.8-78.8c13.3-14.9,19.9-32.4,15.3-52.1C228.5,70,220.3,42.1,213,13.9
		c-0.9-3.5-2.7-4.7-5.9-4.6c-6.3,0.2-12.7,0.1-18.9,0.8C161.6,13.4,139,24.8,119.6,44z M215.7,164.6c-1.5,1.4-2.3,1.9-2.9,2.6
		c-23.8,26.5-47.7,53.1-71.4,79.7c-1.2,1.3-1.8,3.6-1.8,5.4c1.1,27.6,2.8,55.2,3.4,82.9c0.4,19.3-0.1,38.6-1.7,57.8
		c-1.2,14.4-4.9,28.5-6.9,42.8c-1.1,7.8-0.1,9.4,7.8,10.3c15.2,1.8,30.5,2.5,45.7,3.7c3.1,0.2,6.3,0.6,9.3,1.3
		c13.8,3.1,27.4,7.2,41.3,9.3c8.5,1.3,17.5-0.3,26.2-1.2c1.9-0.2,4.6-2.4,4.9-4.1c0.3-1.5-1.8-4.3-3.5-5.2
		c-7.3-3.8-15-7.1-22.4-10.7c-6.1-2.9-12.7-5.2-18.1-9.1c-10.5-7.6-20.3-16.3-30.6-24.2c-5.5-4.2-9.1-9.6-9.4-16.3
		c-0.6-11.9-1.7-24-0.2-35.8c2-16.3,6.4-32.3,9.1-48.5c5.9-35.6,11.4-71.3,16.9-107C213,187.4,214.2,176.5,215.7,164.6z M219.3,18.7
		c5.3,20,10.2,38.6,15.1,57.3c0.3-0.1,0.6-0.1,1-0.2c4.4-17.6,8.8-35.3,13.4-53.9C238.9,20.8,229.6,19.8,219.3,18.7z"/>
	<path class="st1" d="M219.9,150.4c-23.6,26.3-47.7,52.1-70.8,78.8c-23.2,26.9-44.6,55.2-64.1,84.9c-9.3,14.1-15.7,29.1-17.6,46.1
		c-2.1,18.8-5.3,37.5-8,56.3c-0.3,2.1,0,4.3-0.2,6.5c-0.3,5.7,2.4,9.4,7.3,12c3.1,1.6,6.2,3.3,9,5.4c1.8,1.3,3,3.3,4.4,5
		c-1.9,1.2-3.7,3.2-5.7,3.5c-10.5,1.5-21,3.1-31.6,3.5c-2.8,0.1-5.6-0.1-8.4-0.6c-3.1-0.5-6.2-1.3-9.2-2.2
		c-12.4-3.7-17.3-10.9-16.5-23.8c0.4-6.8,1.3-13.6,2.1-20.4c1.5-13.4,0.2-26.6-3.1-39.6c-1.1-4.4-1.9-8.8-2.6-13.2
		c-1.4-9.7,0.6-18.2,8.4-24.8c2.8-2.4,5.3-5.2,8.3-7.1c16.1-10.1,25.2-25.3,31-42.8c10.8-32.3,24-63.6,43-91.9
		c9.6-14.3,21.1-27.4,31.8-40.9c3.9-5,8.4-9.4,12.3-14.5c9.9-13.1,11.9-27.5,5-42.3C139.2,76.4,132.4,65.3,126,54
		c-1.8-3.3-4.1-6.4-6.4-10c19.4-19.2,42-30.6,68.5-33.8c1.5-0.2,3-0.3,4.5-0.4c4.8-0.3,9.6-0.3,14.4-0.4c3.1-0.1,4.9,1.1,5.8,4.6
		c7.3,28.2,15.5,56.1,22.2,84.4C239.7,118,233.2,135.5,219.9,150.4z"/>
	<path class="st2" d="M202.6,150.4c-23.5,26.3-47.7,52.1-70.8,78.8c-23.2,26.9-44.6,55.2-64,84.9c-9.3,14.1-15.7,29.1-17.6,46.1
		c-2.1,18.8-5.4,37.5-8,56.3c-0.3,2.1,0,4.3-0.2,6.5c-0.4,5.7,2.4,9.4,7.3,12c3.1,1.6,6.2,3.3,9,5.4c1.8,1.3,3,3.3,4.4,5
		c-1.9,1.2-3.7,3.2-5.7,3.5c-7.6,1.1-15.1,2.2-22.7,2.9c-3.1-0.5-6.2-1.3-9.2-2.2c-12.4-3.7-17.3-10.9-16.5-23.8
		c0.4-6.8,1.3-13.6,2.1-20.4c1.5-13.4,0.2-26.6-3.1-39.6c-1.1-4.4-1.9-8.8-2.6-13.2c-1.4-9.7,0.6-18.2,8.4-24.8
		c2.8-2.4,5.3-5.2,8.3-7.1c16.1-10.1,25.2-25.3,31-42.8c10.8-32.3,24-63.6,43-91.9c9.6-14.3,21.1-27.4,31.8-40.9
		c3.9-5,8.4-9.4,12.3-14.5c9.9-13.1,11.9-27.5,5-42.3C139.2,76.4,132.4,65.3,126,54c-1.8-3.3-4.1-6.4-6.4-10
		c19.4-19.2,42-30.6,68.5-33.8c1.5-0.2,3-0.3,4.5-0.4c1.4,0.6,2.4,1.9,3,4.1C203,42,211.2,70,217.8,98.3
		C222.4,118,215.9,135.5,202.6,150.4z"/>
	<path class="st1" d="M269.7,455c-0.3,1.7-3.1,3.9-5,4.1c-8.7,0.8-17.7,2.4-26.1,1.2c-13.9-2.1-27.6-6.2-41.3-9.3
		c-3-0.7-6.2-1.1-9.3-1.3c-15.2-1.2-30.5-1.9-45.7-3.7c-7.9-0.9-8.9-2.5-7.8-10.3c2-14.3,5.8-28.4,6.9-42.8
		c1.5-19.2,2.1-38.6,1.7-57.8c-0.5-27.6-2.3-55.3-3.4-82.9c-0.1-1.8,0.6-4,1.8-5.4c23.7-26.6,47.6-53.1,71.4-79.7
		c0.6-0.7,1.4-1.2,2.9-2.6c-0.1,0.4-0.1,0.9-0.2,1.4c-1.5,11.4-2.6,21.8-4.2,32.2c-5.5,35.7-11,71.4-16.9,107
		c-2.7,16.2-7.1,32.2-9.1,48.5c-1.4,11.8-0.4,23.9,0.2,35.8c0.3,6.7,3.9,12.1,9.4,16.3c10.3,7.9,20,16.6,30.6,24.2
		c5.4,3.9,12,6.2,18.1,9.1c7.5,3.6,15.1,6.9,22.4,10.7c0.6,0.3,1.3,0.9,1.9,1.6C269.1,452.5,269.9,454.1,269.7,455z"/>
	<path class="st2" d="M268.1,451.3c-6.8,0.8-13.7,1.5-20.3,0.5c-13.9-2.1-27.5-6.2-41.3-9.3c-3-0.7-6.2-1.1-9.3-1.3
		c-15.2-1.2-30.5-1.9-45.7-3.7c-8-0.9-8.9-2.5-7.8-10.3c2-14.3,5.8-28.4,6.9-42.8c1.6-19.2,2.1-38.6,1.7-57.8
		c-0.5-27.6-2.3-55.3-3.4-82.9c-0.1-1.8,0.6-4,1.8-5.3c21.6-24.2,43.3-48.4,64.9-72.5c-1.5,11.4-2.6,21.8-4.2,32.2
		c-5.5,35.7-11,71.4-16.9,107c-2.7,16.2-7.1,32.2-9.1,48.5c-1.4,11.8-0.4,23.9,0.2,35.8c0.3,6.7,3.9,12.1,9.4,16.3
		c10.3,7.9,20,16.6,30.6,24.2c5.4,3.9,12,6.2,18.1,9.1c7.5,3.6,15.1,6.9,22.4,10.7C266.8,450.1,267.5,450.7,268.1,451.3z"/>
	<path class="st1" d="M248.8,21.8c-3.7,14.8-7.2,29-10.7,43c-0.9,3.6-1.8,7.3-2.7,10.9c-0.3,0.1-0.6,0.1-1,0.2
		c-4.9-18.7-9.8-37.3-15.1-57.3c2.3,0.2,4.6,0.5,6.8,0.7C233.8,20.3,241.1,21,248.8,21.8z"/>
	<path class="st2" d="M248.8,21.8c-3.7,14.8-7.2,29-10.7,43c-3.9-14.8-7.8-29.7-12-45.4C233.8,20.3,241.1,21,248.8,21.8z"/>
</g>
<g>
	<path class="st3" d="M162.7,47.4c1.9,6.1,3.1,12.4,4.1,18.7c1,6.3,1.6,12.7,1.9,19.1c0.5,12.8-0.2,25.7-2.6,38.4
		c-2.3,12.7-6.3,25.2-11.9,36.9l-1,2.2l-1.1,2.2l-2.3,4.3l-2.5,4.2c-0.4,0.7-0.8,1.4-1.3,2.1l-1.4,2l-2.8,4l-3,3.9l-1.5,1.9
		l-1.6,1.9l-3.2,3.7c-8.5,9.3-16.5,19-24,29.1c-7.6,10-14.5,20.6-20.9,31.4c-3.2,5.4-6.2,11-9.3,16.5c-3.1,5.5-6.1,11.1-9,16.7
		c-5.9,11.2-11.7,22.5-17.3,33.9c4.2-12,9.1-23.8,14.2-35.4c5.2-11.6,10.6-23.1,16.6-34.5c1.5-2.8,3.1-5.6,4.7-8.4
		c1.6-2.8,3.3-5.5,5-8.2c3.4-5.4,7-10.8,10.7-16c7.5-10.4,15.6-20.4,24.1-29.9c16.6-18.4,27.8-41.4,33.3-65.7
		c1.4-6.1,2.4-12.3,3.2-18.5c0.8-6.2,1.2-12.5,1.4-18.8c0.2-6.3,0-12.6-0.4-18.9c-0.2-3.2-0.5-6.3-0.8-9.5
		C163.7,53.6,163.3,50.5,162.7,47.4z"/>
</g>
</svg>
