<?xml version="1.0" encoding="utf-8"?>
<!-- Generator: Adobe Illustrator 23.0.1, SVG Export Plug-In . SVG Version: 6.00 Build 0)  -->
<!DOCTYPE svg PUBLIC "-//W3C//DTD SVG 1.1//EN" "http://www.w3.org/Graphics/SVG/1.1/DTD/svg11.dtd" [
	<!ENTITY ns_extend "http://ns.adobe.com/Extensibility/1.0/">
	<!ENTITY ns_ai "http://ns.adobe.com/AdobeIllustrator/10.0/">
	<!ENTITY ns_graphs "http://ns.adobe.com/Graphs/1.0/">
	<!ENTITY ns_vars "http://ns.adobe.com/Variables/1.0/">
	<!ENTITY ns_imrep "http://ns.adobe.com/ImageReplacement/1.0/">
	<!ENTITY ns_sfw "http://ns.adobe.com/SaveForWeb/1.0/">
	<!ENTITY ns_custom "http://ns.adobe.com/GenericCustomNamespace/1.0/">
	<!ENTITY ns_adobe_xpath "http://ns.adobe.com/XPath/1.0/">
]>
<svg version="1.1" id="Capa_1" xmlns:x="&ns_extend;" xmlns:i="&ns_ai;" xmlns:graph="&ns_graphs;"
	 xmlns="http://www.w3.org/2000/svg" xmlns:xlink="http://www.w3.org/1999/xlink" x="0px" y="0px" viewBox="0 0 268.9 286.9"
	 style="enable-background:new 0 0 268.9 286.9;" xml:space="preserve">
<style type="text/css">
	.st0{display:none;fill:#FF8125;}
	.st1{fill:#FFFFFF;}
	.st2{fill:#E2EBF9;}
	.st3{fill:#606060;}
	.st4{fill:#FF8125;}
</style>
<metadata>
	<sfw  xmlns="&ns_sfw;">
		<slices></slices>
		<sliceSourceBounds  bottomLeftOrigin="true" height="264" width="1093.7" x="-842.1" y="11"></sliceSourceBounds>
	</sfw>
</metadata>
<path class="st0" d="M-471.3,154c-2.8-0.2-6.1,0.2-8.6-0.9c-3.3-1.4-4.2-4.8-3.5-8.5c1.4-7.4,3.3-14.7,3.8-22.1
	c2.1-29.9-4.4-58.6-13.2-86.8c-1-3.2-2.2-6.3-3.1-9.5c-1.2-4.4,0.9-8.2,5-9.6c3.8-1.3,8.2,0.6,9.7,4.8
	c12.8,37.1,21.6,74.9,15.7,114.6c-0.6,4.1-1.7,8.1-2.8,12.2C-468.8,149.8-469.9,151.3-471.3,154z"/>
<path class="st0" d="M-834.5,161.1c2.8-0.2,6.1,0.2,8.7-0.9c3.3-1.4,4.2-4.8,3.5-8.5c-1.4-7.4-3.3-14.7-3.8-22.1
	c-2.2-29.9,4.4-58.6,13.2-86.8c1-3.2,2.2-6.3,3.1-9.5c1.2-4.5-0.9-8.2-5-9.6c-3.8-1.3-8.2,0.6-9.7,4.8
	c-12.8,37.1-21.6,74.9-15.7,114.6c0.6,4.1,1.7,8.1,2.8,12.2C-837,156.9-835.9,158.4-834.5,161.1z"/>
<path class="st1" d="M215,265.5h-2.7c-0.5-2-0.9-4.1-1.5-6.1c-1.7-7-3.7-14-5.9-20.9h2.1c1.7,5.1,3.4,10.2,5.1,15.3
	c0.6,1.8,1.1,3.7,1.5,5.6C214.2,261.4,214.6,263.4,215,265.5z"/>
<path class="st1" d="M220.7,238.5H218c0.1,0.6,0.3,1.1,0.4,1.7c1.6,6.5,3.7,12.9,5.8,19.2c0.7,2,1.4,4.1,2.1,6.1h2.3L220.7,238.5z"
	/>
<path class="st2" d="M251.5,237.9c-0.1,0.2-0.2,0.4-0.3,0.6h-27c-2.1-5.8-4.2-11.6-5.8-17.6c-0.5-1.7-0.9-3.5-1.3-5.3c0,0,0,0,0,0
	c-2.9-13.1-3.7-26.5-4.5-39.9c0-0.5-0.1-0.9-0.1-1.4c0,0,0,0,0,0c-0.6-6.4-2.6-12.7-4.1-19c-1.6-6.7-3.4-13.4-5.1-20.1c0,0,0,0,0,0
	c-0.5-2.1-1.1-4.2-1.6-6.3c-0.2-1-0.6-1.9-0.9-2.9c-0.2,0-0.5,0-0.7,0c-0.6,3.6-1.1,7.3-1.8,10.9c-0.4,1.9-0.7,3.8-1.1,5.7
	c-1,5.1-2,10.2-3.5,15.2c-1.1,3.8-2.5,7.6-4.3,11.3c-0.5,0.9,0,2.4,0.4,3.4c0,0,0,0,0,0c0.6,1.7,1.3,3.5,1.9,5.2c0,0,0,0,0,0
	c-0.7,1.9-1.4,3.9-2.3,5.7c-0.5,1,0,2.6,0.4,3.8c5.8,17.1,11.6,34.1,24.5,80.6h-160c-0.1-1.9-0.1-3.7-0.1-5.4c0.2-1,0.4-2.1,0.6-3.1
	c0.4-1.6,0.8-3.3,1.3-4.9c1.8-5.3,3.6-10.7,5.3-16c5.5-16.5,11.1-33,16.8-49.5c1-2.9,0.8-5.1,0-8c-0.4-1.3-0.7-2.6-1.1-3.9
	c0.4-1,0.7-2,1.1-3c0.1-0.2-0.9-0.6-0.8-0.8l1,0.2c0.8-2.3-2.5-5-3.3-7.4c-1.1-3.5,0.9-6.4-0.1-10c0,0,0,0,0-0.1
	c-1.6-5.7-3-11.4-4.4-17c-1.1-4.4-1.5-9-2.3-13.4c-0.2,0-0.4,0-0.6-0.1c-1.1,4.1-2.2,8.2-3.3,12.3c0,0.1,0,0.1,0,0.2
	c-0.3,1-0.5,1.9-0.8,2.9c-0.1,0.4-0.2,0.9-0.3,1.3c-2.4,9.4-5.1,18.7-6.9,28.2c-0.3,1.5-0.5,3.1-0.7,4.6v0
	c-0.6,5.8-0.6,11.6-1.1,17.4c-0.7,7.7-1.7,15.2-3.2,22.7c0,0,0,0,0,0c-1.6,7.9-3.7,15.7-6.5,23.4H17.6c-0.2-0.6-0.4-1.1-0.5-1.7
	c-0.2-1.7-0.1-3.4-0.1-5.1c0.8-17.1,3.9-33.6,9.9-49.7c0.5-1.4,0.8-3.1,0.7-4.6c-0.6-18.8,1.8-37.5,3.5-56.2
	c1-10.7,0.7-21.6,1.3-32.4c0.3-5.7,1-11.4,2.2-16.9c2.6-12.3,10.3-19.3,21.6-22.1c1.2-0.3,2.4-0.5,3.7-0.7c4.5-0.7,9.2-1,13.7-1.6
	c2.4-0.3,4.8-0.6,7.2-1.2c16.3-3.6,25.7-14.2,29.5-30.2c0-0.1,0-0.1,0-0.2c0.1-0.4,0.2-0.7,0.4-1.1h47.1c0,0.1,0,0.1,0,0.2
	c3.3,18.6,17.9,31.4,37.3,32.6c5.2,0.3,10.4,0.9,15.6,1.9c13.6,2.5,21.4,11,23.6,24.4c1.4,8.5,1.8,17.2,2.7,25.8
	c-0.5,0-0.9,0.1-1.4,0.1c1.5,16.9,3.2,33.7,4.4,50.6c0.6,8.6,0.4,17.3,0.7,25.9c0.1,2,0.3,4.1,1,5.9c6.5,17.8,9.6,36.2,9.7,55.2
	C251.6,237.7,251.6,237.8,251.5,237.9z"/>
<path class="st1" d="M243.8,239.2c-0.1,0.2-0.2,0.4-0.3,0.6h-25.2c-0.1-0.4-0.2-0.9-0.3-1.3c-3.7-15.6-4.5-31.7-5.4-47.7
	c-0.4-7.5-2.6-15-4.2-22.4c-2.1-9.7-4.5-19.3-6.7-28.9c-0.2-1.1-0.6-2.1-0.9-3.1c-0.2,0-0.5,0-0.7,0c-0.6,3.7-1,7.3-1.6,11
	c-0.4-1.6-0.8-3.2-1.2-4.8c-0.2-0.9-0.5-1.8-0.7-2.7c-0.3-1.1-0.6-2.2-0.9-3.4c0,0,0,0,0,0c-0.5-2.1-1.1-4.2-1.6-6.3
	c-0.2-1-0.6-1.9-0.9-2.9c-0.2,0-0.5,0-0.7,0c-0.6,3.6-1.1,7.3-1.8,10.9c-1.3,7-2.5,14.1-4.5,20.9c-1.1,3.8-2.5,7.6-4.3,11.3
	c-0.5,0.9,0,2.4,0.4,3.4c0,0,0,0,0,0c0.6,1.7,1.3,3.5,1.9,5.2c0,0,0,0,0,0c-0.7,1.9-1.4,3.9-2.3,5.7c-0.5,1,0,2.6,0.4,3.8
	c5.7,16.9,11.5,33.8,24.2,79.3H54.3c-0.1-1.9-0.1-3.7-0.1-5.4c0.2-1,0.4-2.1,0.6-3.1c0.4-1.6,0.8-3.3,1.3-4.9
	c1.8-5.3,3.6-10.7,5.3-16c5.5-16.5,11.1-33,16.8-49.5c1-2.9,0.8-5.1,0-8c-0.4-1.3-0.7-2.6-1.1-3.9c0.4-1,0.7-2,1.1-3
	c0.1-0.2-0.9-0.6-0.8-0.8l1,0.2c0.8-2.3-2.5-5-3.3-7.4c-1.1-3.5,0.9-6.4-0.1-10c0,0,0,0,0-0.1c-1.6-5.7-3-11.4-4.4-17
	c-1.1-4.4-1.5-9-2.3-13.4c-0.2,0-0.4,0-0.6-0.1c-1.1,4.1-2.2,8.2-3.3,12.3c0,0.1,0,0.1,0,0.2c-0.3,1-0.5,1.9-0.8,2.9
	c-0.1,0.4-0.2,0.9-0.3,1.3c-0.2-0.6-0.3-1.2-0.5-1.9c-1.1-4.4-1.5-9-2.3-13.4c-0.2,0-0.4,0-0.6-0.1c-1.1,4.1-2.2,8.2-3.3,12.3
	c0,0.1,0,0.1,0,0.2c-0.3,1-0.5,1.9-0.8,2.9c-2.5,9.8-5.4,19.6-7.2,29.5c-0.3,1.5-0.5,3.1-0.7,4.6v0c-0.6,5.8-0.6,11.6-1.1,17.4
	c-0.7,7.7-1.7,15.2-3.2,22.7c0,0,0,0,0,0c-1.5,7.5-3.4,14.9-6,22.1H17.6c-0.2-0.6-0.4-1.1-0.5-1.7c-0.2-1.7-0.1-3.4-0.1-5.1
	c0.8-17.1,3.9-33.6,9.9-49.7c0.5-1.4,0.8-3.1,0.7-4.6c-0.6-18.8,1.8-37.5,3.5-56.2c1-10.7,0.7-21.6,1.3-32.4
	c0.3-5.7,1-11.4,2.2-16.9c2.6-12.3,10.3-19.3,21.6-22.1c5.7-0.7,11.4-1,16.9-2.2c0.2,0,0.3-0.1,0.5-0.1c2.4-0.3,4.8-0.6,7.2-1.2
	c16.3-3.6,25.7-14.2,29.5-30.2h39.8c0,0.1,0,0.1,0,0.2c3.3,18.6,17.9,31.4,37.3,32.6c5.2,0.3,10.4,0.9,15.6,1.9
	c13.6,2.5,21.4,11,23.6,24.4c1.4,8.5,1.8,17.2,2.7,25.8c-0.5,0-0.9,0.1-1.4,0.1c1.5,16.9,3.2,33.7,4.4,50.6
	c0.6,8.6,0.4,17.3,0.7,25.9c0.1,2,0.3,4.1,1,5.9c6.4,17.7,9.6,36,9.7,54.8c0,0.1,0,0.2,0,0.3C243.8,238.9,243.9,239.1,243.8,239.2z"
	/>
<g>
	<path class="st3" d="M80.3,191.1c-6,15.7-11.9,31.4-16.8,47.4c-2.1,6.9-4.1,13.9-5.8,20.9c-0.4,1.5-0.7,3.1-1.1,4.6
		c-0.3,1.1-0.3,2.3-0.7,3.3c-0.1,0.2-0.2,0.4-0.4,0.6c-0.4,0.4-0.9,0.7-1.3,1.1c-0.3-0.7-1-1.5-0.9-2.2c0.3-1.4,0.6-2.9,0.8-4.3
		c0.2-1,0.4-2.1,0.6-3.1c0.4-1.6,0.8-3.3,1.3-4.9c1.8-5.3,3.6-10.7,5.3-16c5.5-16.5,11.1-33,16.8-49.5c1-2.9,0.8-5.1,0-8
		c-0.4-1.3-0.7-2.6-1.1-3.9c-2.4-8.8-4.5-17.6-6.4-26.5c-1.1-4.8-1.5-9.8-2.3-14.7c-0.2,0-0.4,0-0.6-0.1c-1.4,5.6-2.7,11.2-4,16.8
		c-2.5,10.7-5.4,21.4-7.2,32.3c-1.3,7.9-1.1,16.1-1.8,24.1c-0.8,10-2.1,19.9-4.1,29.5c-1.5,7.1-3.3,14-5.6,20.9
		c-1.5,4.6-3.3,9.2-5.3,13.7c-0.3,0.7-0.5,1.6-1,2.1c-0.4,0.4-1.1,0.5-1.7,0.7c-0.2-0.6-0.6-1.1-0.6-1.7v0c0-0.6,0.4-1.3,0.7-1.9
		c1.9-4.3,3.5-8.6,5-12.9c2.4-6.9,4.2-13.8,5.7-20.9c1.6-7.7,2.8-15.5,3.6-23.4c0,0,0,0,0,0c0.6-6.2,1-12.5,1.2-18.8
		c0.2-7.3,1.6-14.3,3.2-21.3v0c0.9-4,1.9-8.1,2.8-12.1c1.8-8.3,3.9-16.6,5.8-24.9c0-0.1,0-0.1,0-0.2c0.6-2.7,1.2-5.4,1.8-8.2
		c0.8-3.7,0.3-7.6,0-11.4c-0.6-8.3-1.6-16.5-2.3-24.8c-0.1-0.9,0.6-1.9,0.9-2.9c0.6,0.9,1.6,1.8,1.7,2.7c1.3,12.6,2.1,25.2,3.9,37.7
		c1.2,8.4,2.8,16.8,4.4,25.2c0,0,0,0,0,0.1c1.1,5.8,2.3,11.6,3.4,17.4v0c0.1,0.4,0.2,0.8,0.2,1.2c0.3,1.6,0.7,3.3,1.6,4.5
		C83.3,183.2,82,186.9,80.3,191.1z"/>
	<path class="st3" d="M231.3,276c-0.7-0.7-1.9-1.3-2.2-2.1c-0.9-2.8-1.9-5.6-2.8-8.4c-0.7-2-1.4-4.1-2.1-6.1
		c-2.1-6.4-4.2-12.7-5.8-19.2c0-0.1-0.1-0.3-0.1-0.4c-0.1-0.4-0.2-0.9-0.3-1.3c-3.7-15.6-4.5-31.7-5.4-47.7
		c-0.4-7.5-2.6-15-4.2-22.4c-2.1-9.7-4.5-19.3-6.7-28.9c-0.2-1.1-0.6-2.1-0.9-3.1c-0.2,0-0.5,0-0.7,0c-0.6,3.7-1,7.3-1.6,11
		c0,0.3-0.1,0.6-0.2,0.9c-1.7,10-3.2,20-6.6,29.5c0,0,0,0,0,0c-0.7,1.9-1.4,3.9-2.3,5.7c-0.5,1,0,2.6,0.4,3.8
		c5.8,17.1,11.6,34.1,17.3,51.2c1.7,5.1,3.4,10.2,5.1,15.3c0.6,1.8,1.1,3.7,1.5,5.6c0.5,2,0.9,4.1,1.3,6.1c0.1,0.3,0.1,0.6,0.2,0.9
		c0.2,0.8-0.5,1.7-0.8,2.6c-0.6-0.7-1.5-1.3-1.7-2c-0.1-0.5-0.2-1-0.3-1.5c-0.5-2-0.9-4.1-1.5-6.1c-1.7-7-3.7-14-5.9-20.9
		c-5.4-17.3-11.8-34.2-18.1-51.2c-0.6-1.6-0.2-3.6,0.2-5.4c0.8-3.1,1.7-6.2,2.6-9.4c1.4-4.9,2.9-9.8,4-14.8c0.4-1.8,0.7-3.6,1-5.5
		c0.6-4.2,1.2-8.3,1.7-12.5c2-15.4,3.5-30.9,5.3-46.4c0.1-1,0.9-2,1.4-3c0.4,1,1.2,2.1,1.1,3c-0.4,6.1-0.6,12.3-1.6,18.4
		c-1.4,7.9-1,15.6,0.5,23.3c0,0,0,0,0,0c0.4,1.9,0.8,3.7,1.3,5.6c2.9,11.1,5.5,22.3,7.9,33.6c0,0,0,0,0,0c0.8,3.5,1.5,7,2.2,10.6
		c1.2,5.7,0.9,11.8,1.3,17.7c0.3,4.4,0.6,8.7,1.1,13.1c0,0,0,0,0,0c0.8,7.7,2,15.3,3.6,22.8c0.1,0.4,0.2,0.9,0.3,1.3
		c1.4,6.6,3.2,13.1,5.4,19.6c0.6,1.7,1.2,3.5,1.8,5.2c0.1,0.3,0.2,0.6,0.3,0.9c1,2.4,2.1,4.8,2.9,7.3
		C231.8,273.7,231.4,274.9,231.3,276z"/>
	<path class="st3" d="M112.9,16.7C109.2,36,93.8,49.2,74,50.3c-4.3,0.3-8.6,0.7-12.9,1.3C46.3,54,38.5,61.5,36.5,76.3
		c-1.1,8.7-1.1,17.5-1.7,26.2c-0.9,12.3-2,24.7-2.7,37c-0.7,12.9-1,25.9-1.6,38.8c0,1.1-0.1,2.3-0.5,3.3
		c-6.9,17.7-10.1,36.1-10.3,55c0,0.6-0.2,1.2-0.4,1.8c-0.3,0.8-0.7,1.5-0.9,2.3c-0.3-0.8-0.6-1.5-0.9-2.3c-0.2-0.6-0.4-1.1-0.5-1.7
		c-0.2-1.7-0.1-3.4-0.1-5.1c0.8-17.1,3.9-33.6,9.9-49.7c0.5-1.4,0.8-3.1,0.7-4.6c-0.6-18.8,1.8-37.5,3.5-56.2
		c1-10.7,0.7-21.6,1.3-32.4c0.3-5.7,1-11.4,2.2-16.9c2.9-13.6,11.9-20.7,25.3-22.8c7-1.1,14.1-1.2,20.9-2.7
		c16.4-3.6,25.8-14.3,29.6-30.4c0.1-0.4,0.2-0.7,0.4-1.1c0.5-1,1.2-1.9,1.7-2.9c0.1,0.9,0.3,1.9,0.4,2.9
		C113,15.5,113,16.1,112.9,16.7z"/>
	<path class="st3" d="M251.5,237.9c-0.1,0.2-0.2,0.4-0.3,0.6c-0.4,0.8-0.8,1.5-1.2,2.3c-0.3-0.8-0.9-1.5-1.1-2.3
		c0-0.2-0.1-0.3-0.1-0.5c-0.3-3.7-0.3-7.5-0.6-11.2c-0.9-15.4-4.1-30.4-9.7-44.8c-0.5-1.3-0.7-2.9-0.6-4.3
		c0.7-19.8-1.5-39.3-3.8-58.9c-0.6-5.5-0.1-11.1-0.4-16.7c-0.5-9-0.7-18-2-26.8c-2.1-14.1-9.9-21.4-24-23.5
		c-7-1.1-14.1-1.2-20.9-2.7c-17.4-3.9-27.2-15.4-31.3-32.3c-0.1-0.3-0.2-0.7-0.1-1c0-0.2,0.1-0.5,0.1-0.7c0.2-1,0.4-1.9,0.6-2.9
		c0.6,1,1.5,1.9,1.8,2.9c0,0.1,0,0.1,0,0.2c3.3,18.6,17.9,31.4,37.3,32.6c5.2,0.3,10.4,0.9,15.6,1.9c13.6,2.5,21.4,11,23.6,24.4
		c1.4,8.5,1.8,17.2,2.7,25.8c-0.5,0-0.9,0.1-1.4,0.1c1.5,16.9,3.2,33.7,4.4,50.6c0.6,8.6,0.4,17.3,0.7,25.9c0.1,2,0.3,4.1,1,5.9
		c6.5,17.8,9.6,36.2,9.7,55.2C251.6,237.7,251.6,237.8,251.5,237.9z"/>
	<path class="st4" d="M135.1,193.9c0.2,0.4,0.5,0.9,0.5,1.3c0,13.1,0,26.2,0,39.3c0,2.6,0,5.1,0,7.7c0,0.3,0,0.6-0.2,0.9
		c-0.1,0.1-0.8,0.3-1.2,0.3c-0.4,0-1.1-0.2-1.2-0.3c-0.2-0.3-0.2-0.5-0.2-0.8c0-15.7,0-31.5,0-47.2c0-0.4,0.4-0.8,0.6-1.2
		C134,193.9,134.6,193.9,135.1,193.9z"/>
	<path class="st3" d="M118,75.5c-0.2,16.2-4,31.5-11.9,45.6c-0.4,0.8-0.9,1.6-1.4,2.3c-0.3,0.3-1.2,0.6-1.4,0.4
		c-0.4-0.4-0.8-1.1-0.7-1.6c0.2-0.9,0.7-1.6,1.2-2.4c9.5-17,12.9-35.2,10.9-54.5c-0.1-1.1,0.5-2.2,0.8-3.3c0.6,1,1.7,1.9,1.8,3
		C117.6,68.5,117.7,72,118,75.5z"/>
	<path class="st3" d="M154.1,73.7c0.2-2.1,0.3-5.7,0.8-9.3c0.1-0.8,1.2-1.5,1.8-2.3c0.3,0.9,0.9,1.8,0.8,2.6
		c-1.7,15.6,0.2,30.7,6.1,45.2c1.5,3.7,3.5,7.1,5.2,10.7c0.4,1,0.2,2.2,0.3,3.3c-0.9-0.7-2.1-1.1-2.6-2
		C158,107.4,154.3,91.8,154.1,73.7z"/>
	<path class="st4" d="M115.7,247.1c-0.4,0.5-0.8,1.2-1.1,1.2c-0.6,0-1.4-0.3-1.6-0.7c-1.3-2.3-2.6-4.7-3.7-7.2
		c-0.2-0.4,0.1-1.3,0.4-1.7c0.2-0.2,1.3-0.2,1.4,0.1C112.6,241.4,114.1,244.2,115.7,247.1z"/>
	<path class="st4" d="M156.1,248.6c-0.3-0.7-1-1.4-0.8-1.8c1.2-2.7,2.5-5.3,3.9-7.9c0.2-0.3,1.2-0.6,1.4-0.5
		c0.4,0.4,0.9,1.2,0.7,1.6c-1.2,2.7-2.6,5.2-4,7.8C157.2,248.2,156.8,248.3,156.1,248.6z"/>
</g>
</svg>
