<?xml version="1.0" encoding="utf-8"?>
<!-- Generator: Adobe Illustrator 23.0.1, SVG Export Plug-In . SVG Version: 6.00 Build 0)  -->
<svg version="1.1" id="Capa_1" xmlns="http://www.w3.org/2000/svg" xmlns:xlink="http://www.w3.org/1999/xlink" x="0px" y="0px"
	 viewBox="0 0 509.65 424.94" style="enable-background:new 0 0 509.65 424.94;" xml:space="preserve">
<style type="text/css">
	.st0{fill:#E2EBF9;}
	.st1{fill:#FFFFFF;}
	.st2{fill:#FF8125;}
	.st3{fill:none;stroke:#606060;stroke-width:9;stroke-miterlimit:10;}
</style>
<path class="st0" d="M498.9,403.88c0,6.37-5.16,11.53-11.53,11.53H22.56c-3.18,0-6.07-1.29-8.15-3.38
	c-2.09-2.08-3.38-4.97-3.38-8.15c0-1.06,0.16-2.09,0.42-3.07c-0.12-0.48-0.18-0.99-0.15-1.51c0.24-5.23,0.47-10.38,0.9-15.51
	c1.41-16.9,5.15-33.22,13.06-48.35c13.63-26.06,35.67-40.64,64.04-46.27c18.93-3.76,37.96-7.1,55.75-15.06
	c21.41-9.57,37.22-24.41,41.41-48.3c2-11.38,1.58-23.21,1.72-34.84c0.02-1.85-2.54-4.01-4.32-5.57
	c-33.79-29.59-58.63-65.24-73.15-107.88c-6.16-18.08-9.38-36.72-10.27-55.78V21.7c-0.01-0.2,0-0.4,0.01-0.59
	c0.01-0.11,0.02-0.21,0.03-0.31h309.11c0.06,0.39,0.08,0.81,0.05,1.23c-0.57,7.36-1.01,14.75-2.22,22.01
	c-9.42,56.57-37.76,102.48-80.15,140.2c-4.1,3.65-6.18,7.15-5.67,12.7c0.88,9.6,0.24,19.42,1.95,28.83
	c4,21.99,17.8,36.68,37.39,46.39c17.04,8.45,35.37,12.74,53.94,15.77c50.36,8.2,75.39,40.76,81.98,86.86
	c1.08,7.57,1.38,15.26,1.96,22.89c0.04,0.53,0.06,1.05,0.07,1.59c0.02,0.66-0.11,1.29-0.33,1.88
	C498.77,402.02,498.9,402.94,498.9,403.88z"/>
<path class="st1" d="M456.55,404.19c0,5.45-3.78,10.02-8.87,11.22H22.56c-3.18,0-6.07-1.29-8.15-3.38
	c-2.09-2.08-3.38-4.97-3.38-8.15c0-1.06,0.16-2.09,0.42-3.07c-0.12-0.48-0.18-0.99-0.15-1.51c0.24-5.23,0.47-10.38,0.9-15.51
	c1.41-16.9,5.15-33.22,13.06-48.35c13.63-26.06,35.67-40.64,64.04-46.27c18.93-3.76,37.96-7.1,55.75-15.06
	c21.41-9.57,37.22-24.41,41.41-48.3c2-11.38,1.58-23.21,1.72-34.84c0.02-1.85-2.54-4.01-4.32-5.57
	c-33.79-29.59-58.63-65.24-73.15-107.88c-6.16-18.08-9.38-36.72-10.27-55.78V21.7c-0.01-0.2,0-0.4,0.01-0.59h266.79
	c0.06,0.39,0.08,0.81,0.05,1.23c-0.57,7.36-1.01,14.75-2.22,22.01c-9.42,56.57-37.76,102.48-80.15,140.2
	c-4.1,3.65-6.18,7.15-5.67,12.7c0.88,9.6,0.24,19.42,1.95,28.83c4,21.99,17.8,36.68,37.39,46.39c17.04,8.45,35.37,12.74,53.94,15.77
	c50.36,8.2,75.39,40.76,81.98,86.86c1.08,7.57,1.38,15.26,1.96,22.89c0.04,0.53,0.06,1.05,0.07,1.59c0.02,0.66-0.11,1.29-0.33,1.88
	C456.42,402.33,456.55,403.25,456.55,404.19z"/>
<path class="st2" d="M129.37,316.84c10.26,0.87,19.51,1.59,28.76,2.44c16.72,1.54,33.46,2.85,50.13,4.83
	c12.82,1.52,23.22,7.67,30.42,18.67c0.5,0.76,0.79,1.67,1.56,3.36c-1.54-0.6-2.27-0.79-2.91-1.15
	c-12.85-7.37-26.9-10.09-41.49-11.13c-15.58-1.11-31.15-2.53-46.69-4.15C141.06,328.86,134.34,325.26,129.37,316.84z"/>
<path class="st2" d="M270.96,345.85c5.7-12.75,16.16-19.89,29.13-21.48c25.61-3.15,51.38-4.93,77.09-7.27
	c0.81-0.07,1.64-0.01,3.27-0.01c-4.45,8.17-11.3,11.74-19.43,12.59c-18.88,1.98-37.89,2.85-56.68,5.45
	c-9.71,1.35-19.06,5.39-28.53,8.33C274.1,343.99,272.57,345.04,270.96,345.85z"/>
<path class="st3" d="M498.56,401.15c0.22-0.59,0.35-1.22,0.33-1.88c-0.01-0.54-0.03-1.06-0.07-1.59
	c-0.58-7.63-0.88-15.32-1.96-22.89c-6.59-46.1-31.62-78.66-81.98-86.86c-18.57-3.03-36.9-7.32-53.94-15.77
	c-19.59-9.71-33.39-24.4-37.39-46.39c-1.71-9.41-1.07-19.23-1.95-28.83c-0.51-5.55,1.57-9.05,5.67-12.7
	c42.39-37.72,70.73-83.63,80.15-140.2c1.21-7.26,1.65-14.65,2.22-22.01c0.03-0.42,0.01-0.84-0.05-1.23
	c-0.4-2.42-2.51-4.29-5.07-4.29h-9.14c-2.53,0-4.67,1.83-5.06,4.29c-0.02,0.11-0.04,0.23-0.05,0.34
	c-0.78,8.07-1.38,15.89-2.68,23.59c-6.1,35.97-21.79,67.61-44.65,95.76c-17.7,21.8-38.18,40.36-63.52,53.17
	c-16.19,8.18-32.03,8.41-48.32,0.22c-22.25-11.19-40.85-26.87-57.19-45.38c-25.26-28.63-43.07-61.18-50.48-98.88
	c-1.84-9.38-2.66-18.97-3.75-28.61c-0.01-0.07-0.02-0.14-0.03-0.21c-0.39-2.5-2.53-4.36-5.08-4.36h-9.04c-2.57,0-4.72,1.9-5.05,4.36
	c-0.04,0.29-0.05,0.59-0.04,0.9v0.04c0.89,19.06,4.11,37.7,10.27,55.78c14.52,42.64,39.36,78.29,73.15,107.88
	c1.78,1.56,4.34,3.72,4.32,5.57c-0.14,11.63,0.28,23.46-1.72,34.84c-4.19,23.89-20,38.73-41.41,48.3
	c-17.79,7.96-36.82,11.3-55.75,15.06c-28.37,5.63-50.41,20.21-64.04,46.27c-7.91,15.13-11.65,31.45-13.06,48.35
	c-0.43,5.13-0.66,10.28-0.9,15.51c-0.03,0.52,0.03,1.03,0.15,1.51c-0.26,0.98-0.42,2.01-0.42,3.07c0,3.18,1.29,6.07,3.38,8.15
	c2.08,2.09,4.97,3.38,8.15,3.38h464.81c6.37,0,11.53-5.16,11.53-11.53C498.9,402.94,498.77,402.02,498.56,401.15z"/>
<path class="st2" d="M411.15,176.31c0,3.02,0,4.66,0,6.3c0.02,9.56-1.07,8.29,8.63,8.33c14.45,0.05,28.9,0.01,43.68,0.01
	c0,15.95,0,31.48,0,47.54c-17.29,0-34.37,0-52.14,0c0,5.55,0,10.6,0,17.06c-19.08-13.57-37.03-26.34-55.76-39.67
	C373.96,202.78,391.97,189.96,411.15,176.31z"/>
</svg>
