<?xml version="1.0" encoding="utf-8"?>
<!-- Generator: Adobe Illustrator 23.0.1, SVG Export Plug-In . SVG Version: 6.00 Build 0)  -->
<svg version="1.1" id="Capa_1" xmlns="http://www.w3.org/2000/svg" xmlns:xlink="http://www.w3.org/1999/xlink" x="0px" y="0px"
	 viewBox="0 0 331.76 323.29" style="enable-background:new 0 0 331.76 323.29;" xml:space="preserve">
<style type="text/css">
	.st0{fill:#E2EBF9;}
	.st1{fill:#FFFFFF;}
	.st2{fill:#606060;}
	.st3{fill:#FF8125;}
</style>
<path class="st0" d="M321.12,257.87c0.59,32.4-25.51,58.98-57.92,58.98H44.66c-16.71,0-29.54-14.79-27.18-31.33l22.51-157.6
	l50.87-36.23l38.81-17.23c28.95-5.01,57.11-12.94,83.51-26.63c13.32-6.91,25.75-14.94,35.48-26.21l18.32-8.13l37.55,1.04l12.2,0.34
	L321.12,257.87z"/>
<path class="st1" d="M321.12,257.87c0.59,32.4-25.51,58.98-57.92,58.98H84.56c-16.71,0-29.54-14.79-27.18-31.33l6.63-46.4
	c9.86-69.06,54.11-128.37,117.48-157.54c31.69-14.59,61.12-28.32,71.59-33.75c13.32-6.91,25.75-14.94,35.48-26.21l15.97-7.09
	l12.2,0.34L321.12,257.87z"/>
<g>
	<path class="st2" d="M316.73,14.87c-0.21,4.86-3.14,7.17-9.38,7.19c-11.83,0.05-23.67-0.1-35.49,0.14
		c-2.02,0.04-4.79,1.03-5.87,2.54c-12.54,17.45-29.78,28.89-48.55,38.31c-28.96,14.53-59.95,22.56-91.75,27.73
		c-15.61,2.53-31.23,4.4-44.9,13.61c-19.77,13.3-32.14,31.93-40.36,53.79c-7.63,20.3-11.11,41.42-11.62,62.98
		c-0.44,18.32-0.16,36.66-0.21,54.99c-0.02,6.79-2.47,10.04-7.56,10.08c-1.35,0.01-2.54-0.23-3.56-0.71
		c-2.89-1.34-4.4-4.62-4.41-9.7c-0.02-11.33,0-22.66,0-37.18c-0.44-25.24,1.61-53.35,10.87-80.53c8.6-25.28,21.66-47.5,43.66-63.56
		c13.32-9.72,28.17-15.17,44.57-17.4c5.86-0.8,11.69-1.68,17.5-2.69c28.95-5.01,57.11-12.94,83.51-26.63
		c13.32-6.91,25.75-14.94,35.48-26.21c2.81-3.24,5.39-6.75,7.7-10.57c1.46-2.41,5.81-4.21,8.88-4.31
		c14.15-0.45,28.32-0.31,42.49-0.15C313.88,6.65,316.95,9.75,316.73,14.87z"/>
	<path class="st3" d="M119.92,265.83c-2.98,5.25-5.65,10.17-8.53,14.97c-3.21,5.35-7.82,6.91-11.94,4.28
		c-4.09-2.61-4.64-6.87-1.4-12.26c6.88-11.47,13.22-23.29,15.2-36.63c1.17-7.84,0.61-15.94,0.71-23.92
		c0.09-7.33-0.04-14.66,0.05-21.99c0.06-5.18,3.2-8.74,7.56-8.87c4.56-0.14,7.91,3.52,7.93,8.96c0.06,13.66-0.06,27.33,0.04,40.99
		c0.26,34.98,20.85,61.02,54.17,68.28c4.84,1.05,9.9,1.46,14.86,1.49c27.66,0.14,55.32-0.12,82.97,0.19
		c7.69,0.09,12.61-3.37,16.4-9.32c5.23-8.22,7.09-17.53,7.97-27.02c0.63-6.78,0.68-13.62,0.9-20.43c0.16-4.94,2.52-7.95,6.75-8.33
		c4.38-0.4,8.13,1.97,8.36,6.67c1.05,21.54-0.31,42.75-13.56,61.07c-6.17,8.53-14.61,13.02-25.62,12.91
		c-27.16-0.27-54.32-0.02-81.47-0.11c-36.46-0.12-63.58-15.68-79.95-48.79C121.04,267.39,120.63,266.89,119.92,265.83z"/>
	<path class="st3" d="M302.16,175.29c-1.98,2.01-3.72,4.81-6.23,6.06c-3.23,1.61-6.4,0.14-8.78-2.77
		c-4.74-5.78-9.14-11.95-14.49-17.12c-21.52-20.85-47.67-34.29-75-45.7c-3.07-1.28-6.24-2.33-9.24-3.75
		c-4.16-1.97-5.71-5.93-4.18-9.98c1.44-3.8,5.71-5.91,9.9-4.31c36.68,14.06,71.26,31.52,97.87,61.58c2.75,3.11,5.17,6.53,7.53,9.95
		C300.54,170.71,301,172.54,302.16,175.29z"/>
</g>
</svg>
