<?xml version="1.0" encoding="utf-8"?>
<!-- Generator: Adobe Illustrator 23.0.1, SVG Export Plug-In . SVG Version: 6.00 Build 0)  -->
<svg version="1.1" id="Capa_1" xmlns="http://www.w3.org/2000/svg" xmlns:xlink="http://www.w3.org/1999/xlink" x="0px" y="0px"
	 viewBox="0 0 268.9 286.94" style="enable-background:new 0 0 268.9 286.94;" xml:space="preserve">
<style type="text/css">
	.st0{display:none;fill:#FF8125;}
	.st1{fill:#FFFFFF;}
	.st2{fill:#E2EBF9;}
	.st3{fill:#606060;}
	.st4{fill:#FF8125;}
</style>
<path class="st0" d="M-471.3,153.99c-2.81-0.23-6.07,0.24-8.65-0.88c-3.31-1.44-4.22-4.81-3.52-8.51c1.38-7.35,3.28-14.68,3.81-22.1
	c2.15-29.89-4.36-58.56-13.18-86.83c-0.99-3.17-2.22-6.28-3.06-9.49c-1.17-4.45,0.87-8.19,4.96-9.61c3.84-1.34,8.2,0.57,9.66,4.82
	c12.8,37.14,21.64,74.86,15.71,114.56c-0.61,4.1-1.68,8.15-2.78,12.16C-468.83,149.8-469.94,151.33-471.3,153.99z"/>
<path class="st0" d="M-834.5,161.05c2.81-0.23,6.07,0.24,8.65-0.88c3.31-1.44,4.22-4.81,3.52-8.51c-1.38-7.35-3.28-14.68-3.81-22.1
	c-2.15-29.89,4.36-58.56,13.18-86.83c0.99-3.17,2.22-6.28,3.06-9.49c1.17-4.45-0.87-8.19-4.96-9.61c-3.84-1.34-8.2,0.57-9.66,4.82
	c-12.8,37.14-21.64,74.86-15.71,114.56c0.61,4.1,1.68,8.15,2.78,12.16C-836.97,156.86-835.86,158.38-834.5,161.05z"/>
<path class="st1" d="M213.15,261.86h-2.59c-0.45-1.98-0.93-3.96-1.42-5.93c-1.7-6.86-3.64-13.63-5.73-20.37h2.02
	c1.67,4.97,3.34,9.94,5,14.91c0.6,1.78,1.08,3.61,1.5,5.45C212.37,257.9,212.76,259.89,213.15,261.86z"/>
<path class="st1" d="M218.64,235.57h-2.6c0.13,0.55,0.27,1.09,0.4,1.64c1.58,6.32,3.57,12.54,5.66,18.73
	c0.67,1.98,1.34,3.95,2.02,5.93h2.2L218.64,235.57z"/>
<path class="st2" d="M248.74,234.98c-0.09,0.19-0.19,0.39-0.29,0.59H222.1c-2.09-5.67-4.08-11.35-5.66-17.13
	c-0.47-1.7-0.89-3.42-1.27-5.13c0-0.01,0-0.01-0.01-0.02c-2.85-12.77-3.57-25.83-4.35-38.87c-0.03-0.45-0.06-0.91-0.11-1.36
	c0.01-0.01,0-0.01,0-0.03c-0.58-6.23-2.5-12.4-3.97-18.56c-1.57-6.56-3.28-13.09-4.99-19.62c-0.01-0.01-0.01-0.02-0.01-0.03
	c-0.53-2.04-1.06-4.06-1.58-6.09c-0.24-0.95-0.61-1.86-0.91-2.8c-0.22-0.01-0.44-0.01-0.66-0.02c-0.59,3.54-1.09,7.09-1.76,10.61
	c-0.35,1.84-0.69,3.69-1.05,5.54c-0.94,5-1.94,9.98-3.38,14.86c-1.1,3.75-2.46,7.44-4.23,11.03c-0.44,0.89-0.03,2.3,0.36,3.35
	c0,0.01,0.01,0.02,0.01,0.03c0.63,1.69,1.25,3.38,1.88,5.07c0,0.01,0,0.01,0,0.01c-0.67,1.89-1.41,3.75-2.24,5.6
	c-0.45,0.98-0.02,2.53,0.37,3.69c5.61,16.64,11.28,33.25,23.91,78.53H56.47c-0.07-1.81-0.1-3.57-0.1-5.29c0.19-1,0.4-2,0.63-3
	c0.37-1.6,0.79-3.2,1.3-4.75c1.72-5.21,3.46-10.41,5.2-15.61c5.39-16.1,10.83-32.19,16.36-48.25c0.97-2.79,0.8-4.99-0.02-7.84
	c-0.36-1.26-0.72-2.52-1.06-3.77c0.35-0.97,0.72-1.92,1.08-2.89c0.07-0.19-0.85-0.57-0.79-0.76l0.99,0.17
	c0.74-2.28-2.42-4.85-3.18-7.26c-1.09-3.44,0.87-6.23-0.1-9.71c-0.01-0.02-0.01-0.04-0.01-0.07c-1.51-5.51-2.9-11.07-4.27-16.62
	c-1.05-4.3-1.49-8.73-2.22-13.1c-0.19-0.02-0.39-0.04-0.58-0.07c-1.06,3.99-2.14,7.98-3.17,11.96c-0.01,0.05-0.03,0.11-0.04,0.16
	c-0.25,0.94-0.49,1.88-0.73,2.82c-0.11,0.43-0.22,0.85-0.33,1.28c-2.35,9.14-5,18.24-6.7,27.47c-0.28,1.49-0.49,2.99-0.64,4.5v0.02
	c-0.6,5.62-0.57,11.33-1.08,16.97c-0.67,7.46-1.68,14.86-3.14,22.16c0,0.01-0.01,0.01-0.01,0.02c-1.54,7.72-3.59,15.33-6.3,22.79
	H20.69c-0.2-0.55-0.36-1.1-0.44-1.66c-0.23-1.63-0.05-3.32-0.05-4.98c0.77-16.63,3.85-32.78,9.63-48.39
	c0.52-1.41,0.77-3.02,0.73-4.53c-0.61-18.36,1.72-36.52,3.4-54.74c0.97-10.47,0.67-21.04,1.26-31.56c0.31-5.51,0.97-11.07,2.1-16.46
	c2.54-11.98,10.01-18.81,21.01-21.52c1.17-0.29,2.37-0.53,3.61-0.73c4.43-0.7,8.93-1,13.39-1.54c2.36-0.28,4.7-0.63,7.02-1.13
	c15.88-3.49,25.09-13.83,28.79-29.41c0.01-0.07,0.03-0.13,0.05-0.19c0.09-0.36,0.23-0.71,0.39-1.06h45.9
	c0.02,0.06,0.03,0.13,0.05,0.19c3.22,18.14,17.48,30.57,36.33,31.77c5.07,0.33,10.16,0.93,15.16,1.86
	c13.24,2.46,20.89,10.74,23,23.82c1.34,8.29,1.78,16.73,2.62,25.11c-0.45,0.04-0.89,0.08-1.33,0.13c1.46,16.43,3.1,32.86,4.3,49.31
	c0.62,8.4,0.41,16.84,0.69,25.27c0.07,1.94,0.3,3.98,0.96,5.79c6.32,17.37,9.36,35.3,9.5,53.75
	C248.75,234.76,248.79,234.89,248.74,234.98z"/>
<path class="st1" d="M241.22,236.23c-0.09,0.19-0.19,0.39-0.29,0.59h-24.59c-0.1-0.42-0.21-0.83-0.31-1.25
	c-3.59-15.23-4.37-30.87-5.23-46.5c-0.4-7.33-2.5-14.58-4.07-21.81c-2.06-9.41-4.36-18.77-6.58-28.15
	c-0.24-1.03-0.61-2.04-0.91-3.06c-0.22-0.01-0.44-0.01-0.66-0.03c-0.54,3.57-1.01,7.14-1.6,10.69c-0.39-1.55-0.79-3.1-1.2-4.65
	c-0.23-0.89-0.46-1.78-0.69-2.67c-0.29-1.1-0.57-2.19-0.86-3.29c-0.01-0.01-0.01-0.02-0.01-0.03c-0.53-2.04-1.06-4.06-1.58-6.09
	c-0.24-0.95-0.61-1.86-0.91-2.8c-0.22-0.01-0.44-0.01-0.66-0.02c-0.59,3.54-1.09,7.09-1.76,10.61c-1.3,6.84-2.46,13.71-4.43,20.4
	c-1.1,3.75-2.46,7.44-4.23,11.03c-0.44,0.89-0.03,2.3,0.36,3.35c0,0.01,0.01,0.02,0.01,0.03c0.63,1.69,1.25,3.38,1.88,5.07
	c0,0.01,0,0.01,0,0.01c-0.67,1.89-1.41,3.75-2.24,5.6c-0.45,0.98-0.02,2.53,0.37,3.69c5.55,16.48,11.18,32.94,23.56,77.28H56.47
	c-0.07-1.81-0.1-3.57-0.1-5.29c0.19-1,0.4-2,0.63-3c0.37-1.6,0.79-3.2,1.3-4.75c1.72-5.21,3.46-10.41,5.2-15.61
	c5.39-16.1,10.83-32.19,16.36-48.25c0.97-2.79,0.8-4.99-0.02-7.84c-0.36-1.26-0.72-2.52-1.06-3.77c0.35-0.97,0.72-1.92,1.08-2.89
	c0.07-0.19-0.85-0.57-0.79-0.76l0.99,0.17c0.74-2.28-2.42-4.85-3.18-7.26c-1.09-3.44,0.87-6.23-0.1-9.71
	c-0.01-0.02-0.01-0.04-0.01-0.07c-1.51-5.51-2.9-11.07-4.27-16.62c-1.05-4.3-1.49-8.73-2.22-13.1c-0.19-0.02-0.39-0.04-0.58-0.07
	c-1.06,3.99-2.14,7.98-3.17,11.96c-0.01,0.05-0.03,0.11-0.04,0.16c-0.25,0.94-0.49,1.88-0.73,2.82c-0.11,0.43-0.22,0.85-0.33,1.28
	c-0.15-0.61-0.3-1.21-0.45-1.81c-1.05-4.3-1.49-8.73-2.22-13.1c-0.19-0.02-0.39-0.04-0.58-0.07c-1.06,3.99-2.14,7.98-3.17,11.96
	c-0.01,0.05-0.03,0.11-0.04,0.16c-0.25,0.94-0.49,1.88-0.73,2.82c-2.43,9.57-5.25,19.08-7.04,28.75c-0.28,1.49-0.49,2.99-0.64,4.5
	v0.02c-0.6,5.62-0.57,11.33-1.08,16.97c-0.67,7.46-1.68,14.86-3.14,22.16c0,0.01-0.01,0.01-0.01,0.02
	c-1.45,7.28-3.36,14.47-5.86,21.54H20.69c-0.2-0.55-0.36-1.1-0.44-1.66c-0.23-1.63-0.05-3.32-0.05-4.98
	c0.77-16.63,3.85-32.78,9.63-48.39c0.52-1.41,0.77-3.02,0.73-4.53c-0.61-18.36,1.72-36.52,3.4-54.74
	c0.97-10.47,0.67-21.04,1.26-31.56c0.31-5.51,0.97-11.07,2.1-16.46c2.54-11.98,10.01-18.81,21.01-21.52
	c5.52-0.65,11.1-0.96,16.5-2.14c0.17-0.04,0.33-0.07,0.5-0.12c2.36-0.28,4.7-0.63,7.02-1.13c15.88-3.49,25.09-13.83,28.79-29.41
	h38.82c0.02,0.06,0.03,0.13,0.05,0.19c3.22,18.14,17.48,30.57,36.33,31.77c5.07,0.33,10.16,0.93,15.16,1.86
	c13.24,2.46,20.89,10.74,23,23.82c1.34,8.29,1.78,16.73,2.62,25.11c-0.45,0.04-0.89,0.08-1.33,0.13c1.46,16.43,3.1,32.86,4.3,49.31
	c0.62,8.4,0.41,16.84,0.69,25.27c0.07,1.94,0.3,3.98,0.96,5.79c6.28,17.26,9.32,35.08,9.49,53.41c0.01,0.11,0.01,0.23,0.01,0.34
	C241.23,236.01,241.27,236.15,241.22,236.23z"/>
<g>
	<path class="st3" d="M81.88,189.41c-5.83,15.27-11.56,30.57-16.39,46.16c-2.09,6.73-4.01,13.51-5.7,20.37
		c-0.37,1.48-0.72,2.98-1.07,4.47c-0.25,1.08-0.27,2.24-0.69,3.24c-0.09,0.21-0.23,0.4-0.4,0.57c-0.37,0.38-0.86,0.7-1.24,1.07
		c-0.3-0.71-0.97-1.5-0.84-2.13c0.28-1.4,0.55-2.82,0.83-4.22c0.19-1,0.4-2,0.63-3c0.37-1.6,0.79-3.2,1.3-4.75
		c1.72-5.21,3.46-10.41,5.2-15.61c5.39-16.1,10.83-32.19,16.36-48.25c0.97-2.79,0.8-4.99-0.02-7.84c-0.36-1.26-0.72-2.52-1.06-3.77
		c-2.35-8.54-4.34-17.18-6.28-25.83c-1.05-4.71-1.49-9.55-2.22-14.32c-0.19-0.03-0.39-0.05-0.58-0.07
		c-1.32,5.45-2.68,10.88-3.94,16.34c-2.43,10.47-5.25,20.87-7.04,31.44c-1.3,7.71-1.07,15.67-1.72,23.5
		c-0.81,9.73-2.07,19.35-4.03,28.8c-1.42,6.88-3.2,13.67-5.42,20.37c-1.5,4.49-3.2,8.93-5.12,13.32c-0.31,0.71-0.5,1.52-0.99,2.09
		c-0.35,0.41-1.08,0.49-1.64,0.71c-0.21-0.55-0.61-1.11-0.61-1.64v-0.04c0.02-0.63,0.41-1.25,0.67-1.86
		c1.82-4.15,3.45-8.35,4.9-12.58c2.3-6.7,4.13-13.5,5.59-20.37c1.6-7.52,2.74-15.11,3.5-22.79c0-0.01,0.01-0.01,0.01-0.02
		c0.6-6.08,0.97-12.2,1.13-18.35c0.2-7.13,1.54-13.97,3.08-20.78v-0.02c0.9-3.94,1.86-7.86,2.71-11.82
		c1.74-8.12,3.83-16.16,5.7-24.25c0.01-0.05,0.03-0.11,0.04-0.16c0.61-2.64,1.2-5.29,1.74-7.95c0.73-3.57,0.29-7.45-0.01-11.15
		c-0.63-8.07-1.54-16.11-2.22-24.17c-0.07-0.92,0.59-1.89,0.91-2.84c0.57,0.88,1.56,1.72,1.66,2.65c1.31,12.24,2.04,24.55,3.84,36.7
		c1.22,8.23,2.73,16.41,4.31,24.58c0,0.03,0.01,0.05,0.01,0.07c1.09,5.66,2.21,11.31,3.28,16.97v0.01c0.07,0.38,0.15,0.76,0.22,1.14
		c0.29,1.51,0.65,3.18,1.53,4.37C84.74,181.71,83.44,185.31,81.88,189.41z"/>
	<path class="st3" d="M228.99,272.12c-0.72-0.68-1.84-1.23-2.11-2.06c-0.9-2.74-1.83-5.47-2.76-8.2c-0.68-1.98-1.35-3.95-2.02-5.93
		c-2.09-6.19-4.08-12.41-5.66-18.73c-0.03-0.13-0.06-0.26-0.09-0.39c-0.1-0.42-0.21-0.83-0.31-1.25
		c-3.59-15.23-4.37-30.87-5.23-46.5c-0.4-7.33-2.5-14.58-4.07-21.81c-2.06-9.41-4.36-18.77-6.58-28.15
		c-0.24-1.03-0.61-2.04-0.91-3.06c-0.22-0.01-0.44-0.01-0.66-0.03c-0.54,3.57-1.01,7.14-1.6,10.69c-0.05,0.31-0.1,0.61-0.15,0.92
		c-1.68,9.7-3.13,19.46-6.42,28.76c0,0.01,0,0.01,0,0.01c-0.67,1.89-1.41,3.75-2.24,5.6c-0.45,0.98-0.02,2.53,0.37,3.69
		c5.61,16.64,11.28,33.25,16.9,49.88c1.67,4.97,3.34,9.94,5,14.91c0.6,1.78,1.08,3.61,1.5,5.45c0.45,1.97,0.83,3.95,1.22,5.93
		c0.06,0.3,0.12,0.59,0.18,0.89c0.15,0.76-0.5,1.68-0.79,2.52c-0.57-0.65-1.49-1.23-1.66-1.96c-0.11-0.49-0.21-0.97-0.33-1.45
		c-0.45-1.98-0.93-3.96-1.42-5.93c-1.7-6.86-3.64-13.63-5.73-20.37c-5.24-16.86-11.48-33.38-17.68-49.93
		c-0.57-1.51-0.19-3.55,0.24-5.22c0.78-3.05,1.66-6.09,2.56-9.12c1.4-4.77,2.82-9.55,3.87-14.38c0.39-1.77,0.73-3.55,1-5.34
		c0.61-4.05,1.17-8.12,1.69-12.19c1.94-15.05,3.41-30.16,5.21-45.23c0.12-1.01,0.92-1.95,1.4-2.92c0.39,0.99,1.15,2,1.09,2.96
		c-0.38,5.98-0.54,12.01-1.54,17.89c-1.33,7.73-0.96,15.21,0.5,22.73c0,0.01,0,0.02,0.01,0.03c0.35,1.82,0.77,3.63,1.24,5.45
		c2.8,10.85,5.36,21.77,7.72,32.73c0,0.01,0.01,0.02,0,0.03c0.75,3.43,1.46,6.86,2.16,10.3c1.14,5.59,0.92,11.46,1.26,17.2
		c0.25,4.26,0.59,8.5,1.04,12.72c0.01,0.01,0.01,0.01,0.01,0.02c0.79,7.49,1.92,14.92,3.48,22.26c0.09,0.42,0.18,0.84,0.27,1.25
		c1.4,6.44,3.14,12.82,5.27,19.11c0.57,1.69,1.17,3.38,1.79,5.05c0.11,0.29,0.22,0.59,0.34,0.88c0.94,2.38,2.04,4.71,2.86,7.14
		C229.48,269.91,229.07,271.07,228.99,272.12z"/>
	<path class="st3" d="M113.63,19.36c-3.66,18.82-18.65,31.7-37.96,32.84c-4.2,0.25-8.41,0.65-12.56,1.28
		c-14.37,2.24-22.04,9.63-23.94,24c-1.11,8.44-1.08,17.02-1.68,25.53c-0.85,12.04-2,24.06-2.67,36.1
		c-0.71,12.61-1.01,25.25-1.51,37.86c-0.04,1.09-0.08,2.24-0.46,3.23c-6.7,17.25-9.81,35.16-10.01,53.63
		c-0.01,0.58-0.17,1.16-0.39,1.74c-0.28,0.75-0.66,1.5-0.91,2.24c-0.26-0.75-0.59-1.49-0.85-2.24c-0.2-0.55-0.36-1.1-0.44-1.66
		c-0.23-1.63-0.05-3.32-0.05-4.98c0.77-16.63,3.85-32.78,9.63-48.39c0.52-1.41,0.77-3.02,0.73-4.53
		c-0.61-18.36,1.72-36.52,3.4-54.74c0.97-10.47,0.67-21.04,1.27-31.56c0.31-5.51,0.97-11.07,2.1-16.46
		C40.13,60,48.97,53.05,61.95,51c6.78-1.07,13.73-1.21,20.41-2.67c15.95-3.5,25.17-13.91,28.83-29.61c0.09-0.36,0.23-0.71,0.39-1.06
		c0.46-0.96,1.17-1.86,1.69-2.8c0.09,0.93,0.31,1.88,0.41,2.8C113.73,18.25,113.74,18.81,113.63,19.36z"/>
	<path class="st3" d="M248.74,234.98c-0.09,0.19-0.19,0.39-0.29,0.59c-0.37,0.75-0.75,1.5-1.13,2.26c-0.33-0.75-0.85-1.49-1.05-2.26
		c-0.05-0.15-0.07-0.31-0.09-0.47c-0.28-3.64-0.33-7.31-0.55-10.96c-0.92-15.04-4.04-29.61-9.43-43.69c-0.49-1.29-0.64-2.8-0.59-4.2
		c0.69-19.25-1.48-38.3-3.74-57.37c-0.63-5.37-0.11-10.87-0.41-16.28c-0.49-8.73-0.68-17.54-1.96-26.16
		c-2.04-13.71-9.63-20.81-23.43-22.92c-6.78-1.04-13.73-1.19-20.41-2.67c-16.94-3.75-26.55-15.01-30.52-31.52
		c-0.08-0.33-0.19-0.68-0.13-0.99c0.04-0.23,0.09-0.45,0.13-0.67c0.19-0.95,0.41-1.9,0.62-2.84c0.57,0.95,1.46,1.84,1.72,2.84
		c0.02,0.06,0.03,0.13,0.05,0.19c3.22,18.14,17.48,30.57,36.33,31.77c5.07,0.33,10.16,0.93,15.16,1.86
		c13.24,2.46,20.89,10.74,23,23.82c1.34,8.29,1.78,16.73,2.62,25.11c-0.45,0.04-0.89,0.08-1.33,0.13c1.46,16.43,3.1,32.86,4.3,49.31
		c0.62,8.4,0.41,16.84,0.69,25.27c0.07,1.94,0.3,3.98,0.96,5.79c6.32,17.37,9.36,35.3,9.5,53.75
		C248.75,234.76,248.79,234.89,248.74,234.98z"/>
	<path class="st4" d="M136.83,57.01c0.17,1.19,0.49,2.38,0.49,3.57c0.03,35.21,0.03,70.42,0.03,105.63c0,6.91,0.01,13.82,0,20.73
		c0,0.84,0,1.69-0.21,2.5c-0.09,0.33-0.75,0.77-1.15,0.77c-0.4,0-1.06-0.43-1.16-0.76c-0.22-0.71-0.19-1.48-0.19-2.22
		c-0.01-42.31-0.01-84.62,0.02-126.93c0-1.1,0.35-2.21,0.54-3.31C135.74,57,136.28,57,136.83,57.01z"/>
	<path class="st4" d="M118.55,76.75c-0.2,15.81-3.9,30.67-11.64,44.48c-0.43,0.77-0.83,1.59-1.41,2.23
		c-0.28,0.32-1.18,0.57-1.38,0.38c-0.4-0.36-0.78-1.1-0.68-1.57c0.19-0.83,0.73-1.6,1.16-2.37c9.23-16.57,12.61-34.29,10.65-53.11
		c-0.11-1.03,0.48-2.13,0.74-3.2c0.61,0.97,1.62,1.89,1.75,2.92C118.18,69.9,118.3,73.33,118.55,76.75z"/>
	<path class="st4" d="M153.73,74.93c0.15-2.03,0.33-5.57,0.77-9.09c0.1-0.81,1.13-1.51,1.74-2.26c0.26,0.84,0.83,1.72,0.75,2.52
		c-1.62,15.17,0.2,29.87,5.95,44.02c1.46,3.58,3.45,6.94,5.03,10.47c0.42,0.94,0.24,2.15,0.34,3.24c-0.86-0.64-2.04-1.1-2.54-1.96
		C157.57,107.85,153.98,92.59,153.73,74.93z"/>
	<path class="st3" d="M116.33,243.92c-0.42,0.47-0.74,1.15-1.08,1.16c-0.54,0.01-1.35-0.27-1.59-0.69c-1.31-2.27-2.53-4.6-3.64-6.98
		c-0.2-0.43,0.07-1.26,0.4-1.7c0.17-0.22,1.26-0.17,1.4,0.06C113.35,238.4,114.79,241.1,116.33,243.92z"/>
	<path class="st3" d="M155.72,245.45c-0.31-0.65-0.97-1.39-0.8-1.77c1.16-2.6,2.46-5.15,3.82-7.66c0.18-0.33,1.18-0.61,1.36-0.45
		c0.4,0.38,0.87,1.21,0.7,1.58c-1.2,2.59-2.55,5.11-3.88,7.63C156.79,245.01,156.38,245.09,155.72,245.45z"/>
</g>
</svg>
