<svg xmlns="http://www.w3.org/2000/svg" xmlns:xlink="http://www.w3.org/1999/xlink" width="970.082" height="386.98"><g opacity=".05" fill="#fff"><path d="M65.95 171.343H28.985c-4.5 0-8.163-3.662-8.163-8.163 0-52.82-.374-50.26.8-50.26H73.3a.81.81 0 0 1 .81.81v49.45c0 4.5-3.66 8.163-8.16 8.163zM22.442 114.54v48.642a6.55 6.55 0 0 0 6.543 6.543H65.95a6.55 6.55 0 0 0 6.542-6.543V114.54h-50.05z"/><path d="M75.867 114.54h-56.8c-1.257 0-2.28-1.023-2.28-2.28V95.017c0-1.258 1.023-2.28 2.28-2.28h56.8c1.257 0 2.28 1.023 2.28 2.28v17.242c0 1.257-1.022 2.28-2.28 2.28zm-56.8-20.184a.66.66 0 0 0-.661.662v17.242a.66.66 0 0 0 .661.661h56.8a.66.66 0 0 0 .661-.661V95.017a.66.66 0 0 0-.661-.662h-56.8zM73.2 112.703a1.8 1.8 0 0 1-1.794-1.794V96.983a1.8 1.8 0 0 1 1.794-1.794 1.8 1.8 0 0 1 1.794 1.794V110.9c0 .987-.805 1.793-1.794 1.793zm0-15.895c-.096 0-.175.08-.175.175V110.9c0 .192.35.192.35 0V96.983c0-.096-.078-.175-.175-.175zm-7.35 15.895a1.8 1.8 0 0 1-1.794-1.794V96.983a1.8 1.8 0 0 1 1.794-1.794 1.8 1.8 0 0 1 1.794 1.794V110.9a1.8 1.8 0 0 1-1.794 1.793zm0-15.895c-.097 0-.175.08-.175.175V110.9c0 .192.35.192.35 0V96.983c0-.096-.078-.175-.174-.175zm-7.354 15.895a1.8 1.8 0 0 1-1.794-1.794V96.983a1.8 1.8 0 0 1 1.794-1.794 1.8 1.8 0 0 1 1.794 1.794V110.9c0 .987-.805 1.793-1.794 1.793zm-.175-15.72V110.9c0 .192.35.2.35 0V96.983c0-.23-.35-.232-.35 0zm-7.178 15.72a1.8 1.8 0 0 1-1.794-1.794V96.983a1.8 1.8 0 0 1 1.794-1.794 1.8 1.8 0 0 1 1.795 1.794V110.9a1.8 1.8 0 0 1-1.795 1.793zm-.175-15.72V110.9c0 .192.35.2.35 0V96.983c0-.23-.35-.232-.35 0zM41.996 110.9V96.983a1.8 1.8 0 0 1 1.795-1.794 1.8 1.8 0 0 1 1.794 1.794V110.9c-.001 2.37-3.6 2.37-3.6-.001zm1.62-13.926V110.9c0 .2.35.192.35 0V96.983c-.001-.232-.35-.23-.35 0zM34.644 110.9V96.983c0-2.37 3.588-2.37 3.588 0V110.9c-.001 2.37-3.588 2.37-3.588-.001zm1.62-13.926V110.9c0 .192.35.192.35 0V96.983c-.001-.23-.35-.23-.35 0zM27.3 110.9V96.983a1.8 1.8 0 0 1 1.794-1.794 1.8 1.8 0 0 1 1.794 1.794V110.9c-.001 2.37-3.588 2.37-3.588-.001zm1.793-14.1c-.096 0-.175.08-.175.175V110.9c0 .192.35.192.35 0V96.983c0-.096-.078-.175-.175-.175zm-9.145 14.1V96.983a1.8 1.8 0 0 1 1.794-1.794 1.8 1.8 0 0 1 1.794 1.794V110.9c0 2.37-3.588 2.37-3.588-.001zm1.794-14.1c-.097 0-.175.08-.175.175V110.9c0 .192.35.2.35 0V96.983c0-.096-.078-.175-.175-.175zm44.238 59.933H28.963c-1.257 0-2.28-1.023-2.28-2.28v-30.675c0-1.257 1.023-2.28 2.28-2.28H65.97c1.257 0 2.28 1.023 2.28 2.28v30.675c.001 1.256-1.022 2.28-2.28 2.28zm-37.666-32.956v30.675a.66.66 0 0 0 .661.661H65.97a.66.66 0 0 0 .66-.661v-30.675a.66.66 0 0 0-.66-.661c-39.433 0-37.667-.305-37.667.66zm35.728 28.63H30.138a1.8 1.8 0 0 1-1.794-1.794 1.79 1.79 0 0 1 1.794-1.795h33.895c1 0 1.794.805 1.794 1.795a1.8 1.8 0 0 1-1.795 1.794zm-33.894-1.97c-.097 0-.175.078-.175.176s.08.175.175.175h33.895c.097 0 .175-.08.175-.175s-.078-.176-.175-.176H30.138zm33.894-5.383H30.138c-1 0-1.794-.805-1.794-1.794a1.8 1.8 0 0 1 1.794-1.795h33.895a1.8 1.8 0 0 1 1.794 1.795 1.8 1.8 0 0 1-1.795 1.794zm-33.894-1.97c-.097 0-.175.08-.175.175s.08.175.175.175h33.895c.097 0 .175-.077.175-.175s-.078-.175-.175-.175H30.138zm33.894-5.384H30.138c-1 0-1.794-.805-1.794-1.794s.805-1.793 1.794-1.793h33.895c1 0 1.794.805 1.794 1.793a1.8 1.8 0 0 1-1.795 1.794zm-34.07-1.794c0 .097.08.175.175.175h33.895c.097 0 .175-.08.175-.175s-.078-.174-.175-.174c-.27-.001-34.07-.097-34.07.174zm34.07-5.558H30.138c-1 0-1.794-.805-1.794-1.794a1.8 1.8 0 0 1 1.794-1.794h33.895a1.8 1.8 0 0 1 1.794 1.794 1.8 1.8 0 0 1-1.795 1.794zm-34.07-1.794c0 .098.08.176.175.176h33.895c.097 0 .175-.078.175-.176s-.078-.174-.175-.174c-.272 0-34.07-.098-34.07.174zM356.76 186.18c-18.647 0-34.597-14.614-39.08-35.665a3.12 3.12 0 0 1-.79.103c-4.32 0-6-8.438-5.7-9.305 2.183-6.364 5.908-13.34 6.576-14.148a.75.75 0 0 1 .058-.117c9.244-15.7 27.568-35.288 62.372-39.33a.81.81 0 0 1 .902.797c.157 19.198 14.834 43.193 21.14 52.618a.82.82 0 0 1 .13.553c-.764 5.95-3.516 9.612-6.525 8.83-4.484 21.05-20.434 35.665-39.082 35.665zm-38.485-37.6a.79.79 0 0 1 .323.068.81.81 0 0 1 .471.587c4.042 20.805 19.54 35.335 37.7 35.335s33.65-14.53 37.692-35.335a.81.81 0 0 1 .471-.587c.58-.255.986.36 1.7.36 1.763 0 3.496-3.084 4.088-7.222-6.374-9.567-20.632-33.047-21.223-52.345-33.477 4.18-51.202 23.074-60.205 38.313-.054.3-.12.503-.394.673-3.13 5.414-5.043 10.146-6.114 13.24.575 4.196 2.326 7.34 4.105 7.34.313 0 .626-.1.96-.307.132-.08.28-.12.43-.12z"/><path d="M310.795 144.8a.81.81 0 0 1-.709-.816c.096-6.256.54-54.504 4.902-58.412 10.103-9.05 25.86-14.6 42.154-14.817h.546c16.313.23 32.08 5.768 42.184 14.817 4.373 3.917 4.812 52.502 4.902 58.412a.81.81 0 0 1-1.465.489c-.952-1.304-23.076-31.848-23.813-56.1-28.914 3.616-45.774 18.467-54.85 30.354-9.934 13-12.937 25.332-12.965 25.455-.095.4-.484.67-.886.617zM381.1 87.46c.165 20.276 16.853 46.327 22.017 53.907-.07-4.704-.782-51.415-4.322-54.588-9.822-8.796-25.193-14.18-41.116-14.403h-.522c-15.902.223-31.266 5.607-41.085 14.403-2.118 1.898-3.8 22.2-4.28 51.833 10.178-27.2 34.1-47.964 68.408-51.948a.81.81 0 0 1 .9.796zm-96.36 144.605a.81.81 0 0 1-.797-.949c1.413-8.008 3.757-15.06 6.967-20.958 6.76-12.427 17.174-27.438 28.42-28.462 2.64-.587 3.204-.453 14.675-.453.43 0 23.086 17.62 23.427 17.884l23.426-17.884c11.46 0 12.03-.134 14.673.453 11.235 1.02 21.655 16.032 28.422 28.458 3.2 5.898 5.554 12.95 6.966 20.962.252 1.427 6.16.95-146.178.95zm.97-1.62h143.44c-1.397-7.445-3.623-14.008-6.62-19.518-6.588-12.098-16.655-26.7-27.195-27.625a.64.64 0 0 1-.108-.017c-1.256-.283-2.506-.427-3.714-.427h-10.38c-24.4 18.853-23.388 18.556-24.197 17.93l-23.208-17.93c-17.698 0-10.625.132-14.203.442-10.55.917-20.6 15.53-27.2 27.628-3 5.514-5.227 12.076-6.623 19.517zm67.2-173.68c-4.148-.412-4.16-6.52 0-6.932.4-4.15 6.52-4.16 6.93 0 4.152.413 4.158 6.52 0 6.932-.4 4.152-6.52 4.16-6.93 0zm.346-5.33c-1.027 0-1.863.835-1.863 1.862a1.87 1.87 0 0 0 1.863 1.865h.446a.81.81 0 0 1 .81.81v.446c0 2.464 3.73 2.464 3.73 0v-.446a.81.81 0 0 1 .81-.81h.446c2.46 0 2.468-3.728 0-3.728h-.446a.81.81 0 0 1-.81-.81v-.446c0-1.028-.836-1.864-1.863-1.864a1.87 1.87 0 0 0-1.865 1.864v.446a.81.81 0 0 1-.81.81h-.447zm-30.2 19.216c1.66-18.776 12.908-27.904 34.388-27.904 26.887 0 33.042 17.276 34.305 27.7a.81.81 0 0 1-.77 1.064c-.154 0-.293-.035-.417-.107-19.797-11.304-46.4-11.355-66.296.022-.57.324-1.267-.125-1.2-.775zm34.386-26.285c-19.885 0-30.568 8.146-32.613 24.895 19.324-10.367 44.836-10.875 65.108-.05-1.588-9.957-8.057-24.844-32.495-24.844zM859.94 188.424l-10.354-10.354c-.805-.803-1.248-1.87-1.248-3.008a4.22 4.22 0 0 1 4.256-4.255 4.22 4.22 0 0 1 3.008 1.247l10.355 10.354a4.25 4.25 0 0 1 0 6.017c-1.664 1.662-4.355 1.662-6.017-.001zm-7.346-16a2.62 2.62 0 0 0-1.863.771c-.498.498-.77 1.16-.77 1.863a2.62 2.62 0 0 0 .77 1.863l10.354 10.354c.994.995 2.73.997 3.73 0 1.03-1.03 1.03-2.696 0-3.728l-10.354-10.354c-.5-.494-1.163-.77-1.866-.77z"/><path d="M865.246 183.985l-11.223-11.22 24.328-24.33a7.88 7.88 0 0 1 5.613-2.325c7.016 0 10.6 8.544 5.6 13.545l-24.327 24.33zm-8.934-11.22l8.934 8.93 23.184-23.184c2.463-2.462 2.463-6.47 0-8.932a6.31 6.31 0 0 0-8.932 0l-23.186 23.185zm-30.792 45.71l-5.986-5.987 3.744-3.743 1.7-6.947 25.3-25.307 11.22 11.22-25.3 25.308-6.943 1.7-3.747 3.745zm-3.695-5.987l3.695 3.697 2.918-2.92 6.945-1.7 23.844-23.844-8.93-8.93-23.844 23.843-1.7 6.945-2.917 2.92z"/><path d="M824.748 235.9c-3.746 0-6.74-3.656-5.87-7.42.736-3.17 4.012-6.193 5.303-6.892l-.016-.025.197-.125h.46l.197.12-.016.023c1.566.83 8.37 6.665 4.234 11.954-1.137 1.45-2.846 2.357-4.463 2.365h-.028zm-.147-12.675c-7.498 5.862-3.445 11.056.146 11.056v.8l.02-.8c3.02-.016 7.67-5.062-.167-11.056zm5.82-27.02h20.684v1.62H830.42zm.98 6.904c0-2.973 4.498-2.974 4.498 0s-4.498 2.974-4.498 0zm1.617 0c0 .833 1.262.833 1.262 0s-1.262-.833-1.262 0zm-3.685 5.67c0-1.042.848-1.9 1.9-1.9s1.9.848 1.9 1.9c-.001 2.497-3.778 2.497-3.778 0zm1.888-.27c-.357 0-.357.54 0 .54.146 0 .27-.122.27-.27a.27.27 0 0 0-.27-.27zm9.268-8.2c0-2.258 3.42-2.26 3.42 0s-3.42 2.26-3.42 0zM574.585 93.788h-42.95a2.06 2.06 0 0 1-2.059-2.058 2.06 2.06 0 0 1 2.059-2.058h42.95a2.06 2.06 0 0 1 2.057 2.058 2.06 2.06 0 0 1-2.057 2.058zm-42.95-2.495a.44.44 0 0 0-.44.438.44.44 0 0 0 .439.438h42.95a.44.44 0 0 0 .439-.438.44.44 0 0 0-.439-.438h-42.95zm42.95-8.35h-42.95a2.06 2.06 0 0 1-2.059-2.058 2.06 2.06 0 0 1 2.059-2.056h42.95a2.06 2.06 0 0 1 2.057 2.056 2.06 2.06 0 0 1-2.057 2.058zm-42.95-2.494c-.244 0-.44.194-.44.436a.44.44 0 0 0 .439.438h42.95a.44.44 0 0 0 .439-.438.44.44 0 0 0-.44-.436h-42.95z"/><use xlink:href="#B"/><use xlink:href="#B" y="-10.845"/><path d="M574.585 50.412h-42.95a2.06 2.06 0 0 1-2.059-2.06 2.06 2.06 0 0 1 2.059-2.056h42.95a2.06 2.06 0 0 1 2.057 2.056 2.06 2.06 0 0 1-2.057 2.06zm-42.95-2.495c-.244 0-.44.195-.44.437a.44.44 0 0 0 .439.439h42.95a.44.44 0 0 0 .439-.439.44.44 0 0 0-.439-.437h-42.95zm40.943-9.547H533.64a.81.81 0 0 1-.645-.322.8.8 0 0 1-.131-.711c2-6.965 8.457-11.83 15.7-11.83h9.1c7.244 0 13.7 4.865 15.7 11.83a.81.81 0 0 1-.778 1.032zm-37.82-1.62h36.7c-2.115-5.718-7.643-9.625-13.805-9.625h-9.1c-6.16 0-11.7 3.907-13.806 9.625z"/><path d="M553.1 26.857a6.04 6.04 0 0 1-6.031-6.03 6.04 6.04 0 0 1 6.031-6.031 6.04 6.04 0 0 1 6.031 6.031 6.04 6.04 0 0 1-6.031 6.03zm0-10.442a4.42 4.42 0 0 0-4.412 4.412 4.42 4.42 0 0 0 4.412 4.412 4.42 4.42 0 0 0 4.412-4.412 4.42 4.42 0 0 0-4.412-4.412zm26.743 91.405H526.37a.81.81 0 0 1-.811-.81V36.032a.81.81 0 0 1 .811-.811h7.812c.27 0 .52.133.67.356s.182.506.08.756l-.164.417h36.686l-.164-.417c-.1-.25-.07-.533.08-.756a.81.81 0 0 1 .672-.356h7.812a.81.81 0 0 1 .811.811v70.98a.81.81 0 0 1-.811.809zm-52.676-1.62h51.867V36.84h-5.842l.154.496a.81.81 0 0 1-.777 1.032h-38.94a.81.81 0 0 1-.776-1.033l.152-.495h-5.84l.001 69.36z"/><path d="M582.826 111.766h-59.43a.81.81 0 0 1-.811-.81V32.088a.81.81 0 0 1 .811-.811h13.096a.81.81 0 0 1 .628 1.318 14.62 14.62 0 0 0-2.363 4.154h36.703a14.64 14.64 0 0 0-2.363-4.154c-.195-.242-.234-.576-.102-.858a.81.81 0 0 1 .73-.46h13.098a.81.81 0 0 1 .811.811v78.868a.81.81 0 0 1-.808.81zm-58.62-1.62h57.8V32.898H571.32c.898 1.37 1.582 2.856 2.037 4.44.07.245.02.508-.13.7a.81.81 0 0 1-.646.322h-38.938a.81.81 0 0 1-.776-1.032c.455-1.583 1.14-3.07 2.037-4.44H524.21v77.248zm-418.02-26.688a.81.81 0 0 1-.807-.762l-.05-1.72c0-12.607 5.484-19.564 17.26-21.895 1.047-.2 1.367 1.38.314 1.588-10.886 2.152-15.956 8.605-15.956 20.307a27.42 27.42 0 0 0 .048 1.625.81.81 0 0 1-.76.856c-.017.001-.033.002-.05.002zm58.927.08c-.018 0-.035 0-.053-.001a.81.81 0 0 1-.756-.86l.055-1.7c0-11.75-5.12-18.213-16.1-20.337a.81.81 0 0 1-.641-.949c.084-.438.506-.727.95-.64 11.886 2.297 17.423 9.264 17.423 21.927a28.6 28.6 0 0 1-.058 1.804.81.81 0 0 1-.808.757z"/><path d="M148.433 170.24h-1.747a15.39 15.39 0 0 1-15.369-15.369v-36.947c-10.06-2.01-25.335-14.52-28.384-31.268a3.73 3.73 0 0 1 2.994-4.328c.22-.04.445-.062.667-.062a3.72 3.72 0 0 1 3.661 3.055c2.63 14.447 17.416 25.45 23.813 25.45h3.17c6.397 0 21.183-11.002 23.812-25.45.322-1.77 1.86-3.056 3.654-3.056a3.74 3.74 0 0 1 .675.062 3.73 3.73 0 0 1 2.994 4.327c-3.197 17.566-19.6 30.26-29.612 31.457v36.758a7.94 7.94 0 0 0 7.926 7.927h1.747a7.94 7.94 0 0 0 7.927-7.927l-.194-18.208c0-8.5 6.894-15.41 15.368-15.41.932 0 1.974-.168 1.974.8v5.824c0 .974-1.056.8-1.974.8a7.94 7.94 0 0 0-7.926 7.928l.194 18.208c.001 8.5-6.894 15.408-15.37 15.408zm-41.84-86.352c-.125 0-.25.01-.378.034-1.14.208-1.898 1.306-1.7 2.445 2.99 16.43 18.164 28.592 27.725 30.078a.81.81 0 0 1 .685.801v37.625a13.77 13.77 0 0 0 13.75 13.75h1.747c7.583 0 13.75-6.183 13.75-13.78l-.195-18.208c0-4.968 3.856-9.555 9.9-9.555v-4.205c-8.42 0-14.104 6.54-14.104 13.78l.194 18.208c0 5.272-4.283 9.556-9.546 9.556h-1.747a9.56 9.56 0 0 1-9.545-9.546v-37.495a.81.81 0 0 1 .759-.809c9.524-.594 25.846-13.538 28.88-30.2.208-1.14-.552-2.236-1.692-2.445-1.163-.213-2.24.565-2.444 1.69-2.767 15.2-18.558 26.778-25.405 26.778h-3.17c-6.848 0-22.64-11.577-25.407-26.778a2.1 2.1 0 0 0-2.068-1.724z"/><path d="M179.203 131.997a7.42 7.42 0 0 1-7.411-7.41 7.42 7.42 0 0 1 7.411-7.408 7.42 7.42 0 0 1 7.408 7.408 7.42 7.42 0 0 1-7.408 7.41zm0-13.2a5.8 5.8 0 0 0-5.792 5.789 5.8 5.8 0 0 0 5.792 5.791 5.8 5.8 0 0 0 5.789-5.791 5.8 5.8 0 0 0-5.789-5.789zM130.878 63.37H125.2c-1.692 0-3.07-1.377-3.07-3.07v-1.708c0-1.693 1.377-3.07 3.07-3.07h5.668c1.692 0 3.07 1.377 3.07 3.07V60.3c0 1.693-1.376 3.07-3.07 3.07zm-5.668-6.23a1.45 1.45 0 0 0-1.45 1.452V60.3c0 .8.65 1.452 1.45 1.452h5.668a1.45 1.45 0 0 0 1.45-1.452v-1.708c0-.8-.65-1.452-1.45-1.452H125.2zm20.885 6.23h-5.667c-1.693 0-3.07-1.377-3.07-3.07v-1.708c0-1.693 1.377-3.07 3.07-3.07h5.667c1.693 0 3.07 1.377 3.07 3.07V60.3c0 1.693-1.378 3.07-3.07 3.07zm-5.667-6.23a1.45 1.45 0 0 0-1.45 1.452V60.3c0 .8.65 1.452 1.45 1.452h5.667c.8 0 1.452-.65 1.452-1.452v-1.708c0-.8-.65-1.452-1.452-1.452h-5.667zm141.114 299.443l-1.403-.8 11.552-20.004a.81.81 0 0 1 .701-.404h23.105c.3 0 .557.153.7.404l11.55 20.004-1.402.8-11.316-19.6h-22.17l-11.32 19.6z"/><path d="M315.498 336.983h-23.105c-.3 0-.557-.153-.7-.403-12.222-21.17-11.934-20.157-11.552-20.82 12.224-21.17 11.488-20.41 12.253-20.41 24.445 0 23.423-.258 23.806.404l11.55 20.007a.81.81 0 0 1 0 .81l-11.55 20.01c-.145.247-.412.4-.7.4zm-22.638-1.618h22.17l11.083-19.2-11.083-19.196h-22.17l-11.084 19.196 11.084 19.2z"/><path d="M326.348 356.583l-11.552-20.004c-.144-.25-.144-.56 0-.8 12.222-21.17 11.488-20.415 12.253-20.415h23.102v1.62h-22.635l-11.084 19.2 11.318 19.6-1.402.8zm-10.85-59.616c-24.445 0-23.424.258-23.806-.404l-11.552-20.008 1.403-.8 11.318 19.604h22.17l11.316-19.604 1.402.8c-12.22 21.17-11.487 20.412-12.25 20.412z"/><path d="M350.15 316.973h-23.102c-.3 0-.557-.153-.7-.404-12.223-21.17-11.934-20.152-11.552-20.815l11.552-20.008 1.402.8-11.318 19.604 11.084 19.195h22.635v1.617zm-68.608 39.6l-1.403-.8 11.318-19.6-11.084-19.2h-22.635v-1.62c24.445 0 23.42-.258 23.803.405l11.552 20a.81.81 0 0 1 0 .811l-11.55 20.004z"/><path d="M257.74 316.973v-1.62h22.635l11.084-19.195-11.318-19.604 1.403-.81c12.223 21.17 11.934 20.154 11.552 20.817l-11.552 20.006c-.384.664.64.406-23.804.406z"/><path d="M276.772 278.5c-4.952 0-8.98-4.028-8.98-8.98s4.03-8.98 8.98-8.98 8.98 4.028 8.98 8.98-4.03 8.98-8.98 8.98zm0-16.342a7.37 7.37 0 0 0-7.36 7.362 7.37 7.37 0 0 0 7.361 7.36c4.06 0 7.362-3.303 7.362-7.36s-3.302-7.362-7.362-7.362zm52.998 109.664c-4.95 0-8.98-4.028-8.98-8.98s4.03-8.982 8.98-8.982 8.98 4.03 8.98 8.982-4.03 8.98-8.98 8.98zm0-16.344a7.37 7.37 0 0 0-7.36 7.362c0 4.058 3.302 7.362 7.36 7.362s7.362-3.305 7.362-7.362-3.303-7.362-7.362-7.362zm-7.633-81.33c-2.528-4.258-1.123-9.778 3.135-12.3 4.346-2.582 9.835-1.03 12.308 3.136 2.53 4.257 1.123 9.78-3.134 12.3-4.35 2.58-9.835 1.03-12.3-3.135zm3.96-10.918c-6.404 3.8-3.695 13.693 3.77 13.693 5.683 0 9.23-6.228 6.32-11.123-2.027-3.413-6.525-4.687-10.1-2.57zm-58.117 97.344c1.958-7.688 12.313-9.3 16.423-2.37 2.536 4.267 1.134 9.773-3.134 12.308-6.82 4.052-15.267-2.175-13.3-9.94zm1.57.4c-.485 1.906-.2 3.887.804 5.577 3.385 5.696 11.864 4.338 13.463-1.943.485-1.904.2-3.885-.805-5.575-3.348-5.64-11.852-4.377-13.462 1.94zm87.375-36.183c1.032 0-6.62.575-8.632-6.536-2.165-7.644 6.033-14.2 13.02-10.286 8.05 4.498 4.828 16.822-4.4 16.822zm-7.074-6.977c1.77 6.25 10.284 7.354 13.5 1.584 1.98-3.543.707-8.036-2.837-10.017-5.728-3.203-12.446 2.17-10.674 8.433zm-100.25 7.712c-6.78 0-11.198-7.337-7.832-13.36 3.9-7.002 14.32-5.707 16.48 1.935a8.92 8.92 0 0 1-.803 6.827c-2.95 5.282-9.03 4.598-7.846 4.598zm-6.418-12.57a7.31 7.31 0 0 0-.657 5.595c1.786 6.312 10.327 7.283 13.508 1.586a7.31 7.31 0 0 0 .658-5.596c-1.77-6.26-10.295-7.342-13.5-1.585zm233.095-186.9c-39.097-42.524-38.64-41.208-37.507-42.1 11.75-9.157 28.64-7.757 38.733 3.223 10.036 10.916 10.02 27.988-.036 38.868a.81.81 0 0 1-1.19-.002zm-35.8-41.34l36.397 39.587c8.896-10.285 8.714-25.935-.555-36.017-9.235-10.043-24.662-11.7-35.842-3.57zm-5.21 41.314c-10.034-10.913-10.018-27.986.036-38.866a.81.81 0 0 1 1.19.001l37.605 40.9a.81.81 0 0 1-.098 1.188c-11.8 9.206-28.68 7.7-38.733-3.224zm.64-37.112c-8.896 10.286-8.716 25.936.554 36.017s24.7 11.67 35.843 3.57l-36.397-39.588zm246.252 88.692c-19.676 0-36.502-15.434-41.22-37.656-5.45 1.505-8.8-10.413-6.193-19.33a.81.81 0 0 1 .898-.572c.4.062.695.4.688.815l-.084 4.988c5.057-8.16 13.332-23.108 14.8-32.577a.82.82 0 0 1 .418-.59.81.81 0 0 1 .723-.021c16.7 7.713 41.74 8.186 59.463 0 .23-.106.498-.1.72.02a.81.81 0 0 1 .418.59c1.488 9.543 9.727 24.362 14.8 32.577l-.113-6.423a.81.81 0 0 1 1.56-.318c3.502 8.76.16 22.448-5.674 20.838-4.72 22.225-21.548 37.658-41.224 37.658zm-39.83-38.953c4.27 21.98 20.65 37.333 39.83 37.333s35.56-15.352 39.832-37.333a.81.81 0 0 1 .471-.586c.568-.252.977.383 1.787.383 1.924 0 4.043-3.57 4.5-8.93-.854.335-.97-.303-3.312-4.08-.115-.188-11.688-18.767-14.064-30.876-17.258 7.545-41.496 7.613-58.9 0-2.5 12.75-16.12 34.824-16.908 34.996.4 4.626 2.668 10.33 5.547 8.56a.81.81 0 0 1 1.217.534z"/><path d="M635.156 129.547c-.8-.237-.582-.798-.516-5.205.3-18.808 1.303-50.833 4.832-54 22.207-19.883 63.146-19.465 84.887 0 3.52 3.158 4.543 35.188 4.836 54 .066 4.4.295 4.968-.516 5.205a.81.81 0 0 1-.916-.352l-2.326-3.754c-.115-.188-11.688-18.767-14.064-30.876-17.258 7.545-41.496 7.613-58.9 0-2.098 10.655-10.812 25.63-16.393 34.632-.192.3-.57.452-.914.35zm76.832-36.954a.8.8 0 0 1 .381.096.81.81 0 0 1 .42.59c1.486 9.543 9.727 24.362 14.8 32.577-.07-4.812-.793-51.146-4.318-54.305-21.084-18.88-61.096-19.367-82.725 0-3.54 3.173-4.244 49.593-4.316 54.305 5.057-8.16 13.334-23.108 14.8-32.577.04-.25.193-.47.418-.6a.81.81 0 0 1 .723-.021c16.7 7.713 41.74 8.186 59.46 0a.78.78 0 0 1 .336-.075zm-70.635 52.554l.428-1.562c23.727 6.52 56.162 6.578 80.104.077l.424 1.562c-24.165 6.563-56.9 6.534-80.956-.077zm-32.127 84.893c-.238 0-.467-.106-.62-.3a.82.82 0 0 1-.178-.66c1.412-8.004 3.756-15.055 6.97-20.957 6.76-12.424 17.174-27.436 28.418-28.46a18.62 18.62 0 0 1 4.018-.454h10.658a.8.8 0 0 1 .494.17l22.932 17.717 22.932-17.717a.81.81 0 0 1 .494-.169c11.46 0 12.03-.133 14.672.454 11.24 1.02 21.658 16.033 28.422 28.458 3.2 5.896 5.553 12.947 6.97 20.958.253 1.43 6.16.95-146.18.95zm.97-1.62h143.44c-1.396-7.444-3.625-14.007-6.62-19.515-6.586-12.098-16.648-26.7-27.195-27.625-.8-.07-1.508-.442-3.82-.442h-10.38c-24.4 18.853-23.4 18.557-24.197 17.93l-23.207-17.93c-17.95 0-10.025.08-14.203.442-10.55.92-20.6 15.53-27.2 27.627-3 5.512-5.228 12.074-6.624 19.513zM823.36 338.416c-6.217 0-11.295-5.057-11.32-11.27l-.3-68.726a11.34 11.34 0 0 1 11.27-11.368l117.895-.513c6.264 0 11.342 5.057 11.367 11.27l.3 68.725c.014 3.022-1.152 5.87-3.28 8.02a11.24 11.24 0 0 1-8 3.35l-117.895.514c0-.002-.05-.002-.05-.002zm117.596-90.257l-117.938.513a9.71 9.71 0 0 0-9.656 9.742l.297 68.724c.02 5.325 4.375 9.658 9.7 9.658v.8l.043-.8 117.895-.513a9.65 9.65 0 0 0 6.846-2.871c1.824-1.842 2.822-4.28 2.812-6.87l-.3-68.726c-.026-5.324-4.375-9.656-9.7-9.656zm-25.224 82.506c-.02 0-.04-.001-.062-.003-7.45-.573-13.3-6.882-13.346-14.36s5.775-13.837 13.22-14.478c.23-.026.447.056.615.2a.8.8 0 0 1 .264.594l.12 27.226c0 .228-.094.442-.26.598a.83.83 0 0 1-.551.215zm-.926-27.123c-6.186.968-10.9 6.404-10.86 12.75s4.78 11.743 10.975 12.656l-.114-25.407zm5.424 27.102a.81.81 0 0 1-.547-.212c-.166-.152-.262-.367-.264-.594l-.12-27.227a.82.82 0 0 1 .26-.597c.166-.157.4-.233.613-.214 7.45.576 13.312 6.886 13.344 14.36s-5.77 13.84-13.22 14.478c-.02.005-.047.005-.068.005zm.693-27.13l.1 25.407c6.186-.967 10.9-6.405 10.863-12.75s-4.778-11.743-10.974-12.657zm-5.403-20.67c-.02 0-.04-.001-.06-.002-7.45-.573-13.3-6.88-13.344-14.362s5.773-13.836 13.22-14.477a.79.79 0 0 1 .617.209c.166.15.262.368.264.595l.115 27.225a.81.81 0 0 1-.258.597c-.15.138-.347.215-.552.215zm-.922-27.122c-6.186.968-10.893 6.406-10.863 12.752s4.78 11.744 10.973 12.655l-.1-25.407zm5.422 27.103a.81.81 0 0 1-.547-.213.8.8 0 0 1-.262-.594l-.12-27.224c0-.227.092-.442.258-.598a.8.8 0 0 1 .613-.214c7.45.573 13.312 6.883 13.346 14.36s-5.773 13.84-13.22 14.478c-.02.005-.045.006-.068.006zm.695-27.128l.1 25.406c6.186-.966 10.9-6.402 10.863-12.75s-4.78-11.742-10.974-12.655zm-41.768 75.13c-.02 0-.04-.001-.062-.002-7.45-.574-13.312-6.883-13.346-14.36s5.775-13.838 13.22-14.48c.223-.02.447.058.615.2a.8.8 0 0 1 .264.595l.117 27.227c.002.228-.092.442-.258.597-.15.138-.348.214-.55.214zm-.926-27.123c-6.186.97-10.9 6.406-10.86 12.752s4.78 11.744 10.973 12.655l-.112-25.407zm5.422 27.104c-.2 0-.396-.075-.547-.212a.82.82 0 0 1-.264-.594l-.117-27.228c0-.227.094-.442.26-.597s.4-.23.6-.215c7.45.576 13.312 6.885 13.346 14.363s-5.773 13.836-13.22 14.477c-.02.005-.045.006-.068.006zm.695-27.13l.1 25.407c6.188-.967 10.893-6.405 10.865-12.75s-4.78-11.74-10.974-12.656zm-5.398-20.672c-.02 0-.04-.001-.062-.003-7.45-.574-13.312-6.883-13.346-14.362s5.775-13.837 13.22-14.477a.8.8 0 0 1 .879.803l.117 27.225a.81.81 0 0 1-.258.599.82.82 0 0 1-.551.215zm-.924-27.122c-6.186.967-10.893 6.404-10.865 12.75s4.78 11.744 10.975 12.656l-.1-25.406zm5.42 27.102a.8.8 0 0 1-.545-.212.81.81 0 0 1-.266-.595l-.117-27.223c0-.228.094-.442.26-.598s.38-.234.6-.215c7.45.575 13.312 6.884 13.346 14.36s-5.775 13.84-13.22 14.477a.37.37 0 0 1-.068.005zm.695-27.128l.1 25.406c6.186-.966 10.9-6.404 10.865-12.75s-4.78-11.74-10.974-12.655zm-41.767 75.13c-.02 0-.043 0-.062-.002-7.45-.574-13.312-6.884-13.348-14.36s5.773-13.837 13.22-14.48c.225-.02.45.056.617.2s.262.367.264.594l.12 27.23a.81.81 0 0 1-.258.597.83.83 0 0 1-.551.213zm-.926-27.123c-6.188.97-10.893 6.407-10.863 12.754s4.78 11.74 10.975 12.654l-.112-25.408zm5.422 27.102c-.2 0-.396-.075-.547-.212-.166-.152-.262-.368-.264-.594l-.12-27.227a.82.82 0 0 1 .26-.597.8.8 0 0 1 .613-.214c7.45.574 13.312 6.885 13.346 14.36s-5.773 13.838-13.22 14.478c-.02.005-.047.005-.068.005zm.693-27.13l.1 25.408c6.188-.967 10.893-6.404 10.863-12.75s-4.78-11.743-10.974-12.658zm-5.4-20.67c-.02 0-.04-.001-.062-.002-7.447-.575-13.3-6.885-13.344-14.36s5.775-13.838 13.22-14.478a.79.79 0 0 1 .617.209.81.81 0 0 1 .264.594l.117 27.225c0 .228-.094.442-.26.597a.81.81 0 0 1-.551.216zm-.922-27.122c-6.188.967-10.895 6.404-10.865 12.75a12.93 12.93 0 0 0 10.975 12.656l-.1-25.407zm5.42 27.102c-.2 0-.396-.075-.545-.212a.81.81 0 0 1-.266-.595l-.117-27.225a.82.82 0 0 1 .258-.597.78.78 0 0 1 .613-.214c7.45.574 13.312 6.883 13.346 14.36s-5.773 13.84-13.22 14.477a.37.37 0 0 1-.068.005zm.695-27.13l.1 25.406c6.188-.966 10.9-6.403 10.863-12.75s-4.78-11.74-10.972-12.655zM948.302 107.03h-58.2a11.73 11.73 0 0 1-11.713-11.714V49.678a11.73 11.73 0 0 1 11.713-11.713h58.2a11.73 11.73 0 0 1 11.715 11.713v45.638a11.73 11.73 0 0 1-11.715 11.714zm-58.2-67.447a10.11 10.11 0 0 0-10.094 10.094v45.638a10.11 10.11 0 0 0 10.094 10.096h58.2a10.11 10.11 0 0 0 10.096-10.096V49.678a10.11 10.11 0 0 0-10.096-10.094l-58.2-.001zm29.1 49.62c-8.613 0-15.62-7-15.62-15.623s7.008-15.622 15.62-15.622 15.623 7.008 15.623 15.622-7.008 15.623-15.623 15.623zm0-29.625c-7.72 0-14.002 6.28-14.002 14.003a14.02 14.02 0 0 0 14.002 14.003c7.722 0 14.004-6.28 14.004-14.003s-6.284-14.003-14.004-14.003z"/><path d="M919.203 81.813a3.19 3.19 0 0 1-3.186-3.184v-1.862h-1.86a3.19 3.19 0 0 1-3.186-3.186 3.19 3.19 0 0 1 3.186-3.186h1.86v-1.86a3.19 3.19 0 0 1 3.186-3.186 3.19 3.19 0 0 1 3.184 3.186v1.86h1.863a3.19 3.19 0 0 1 3.184 3.186 3.19 3.19 0 0 1-3.184 3.186h-1.863v1.862a3.19 3.19 0 0 1-3.184 3.184zm-5.047-9.797a1.57 1.57 0 0 0-1.566 1.566c0 3.02 5.047.37 5.047 2.376v2.672c0 .862.703 1.563 1.566 1.563s1.564-.7 1.564-1.563v-2.672a.81.81 0 0 1 .811-.811h2.672c2.068 0 2.068-3.132 0-3.132h-2.672a.81.81 0 0 1-.811-.81v-2.67c0-2.073-3.13-2.065-3.13 0 0 2.374.238 3.48-.8 3.48l-2.67.003zm-24.57-32.42a.81.81 0 0 1-.568-.232c-.162-.16-.25-.38-.24-.607a3.6 3.6 0 0 1 3.607-3.479h3.742c1.88 0 3.428 1.427 3.598 3.28.127.46-.137.97-.797 1.025h-8.83l-.473.012c-.01.002-.027.002-.04.002zm1.036-1.633h7.27c-.703-1.342-1.73-1.066-5.508-1.066-.765 0-1.43.43-1.763 1.066zm48.85 1.62c-1.76 0-.55-4.305 2.8-4.305h3.74c2.936 0 4.2 3.278 3.37 4.084-.36.36.104.22-9.912.22zm1.035-1.62h7.273c-.7-1.342-1.73-1.066-5.5-1.066a1.99 1.99 0 0 0-1.763 1.066zm-6.463 1.62c-31.418 0-30.498.347-30.498-.8v-5.406a7.19 7.19 0 0 1 7.182-7.182h16.945c3.96 0 7.182 3.222 7.182 7.182v5.406a.81.81 0 0 1-.811.811zm-28.88-1.62h28.068v-4.598a5.57 5.57 0 0 0-5.562-5.562h-16.945a5.57 5.57 0 0 0-5.562 5.562l.001 4.598zM785.642 114h-26.826a.81.81 0 0 1-.811-.81V45.582a.81.81 0 0 1 .117-.42l6.85-11.327c0-8.103-.283-8.767.8-8.767h12.893a.81.81 0 0 1 .811.811v7.956l6.97 11.747c-.003 72.438.4 68.426-.814 68.426zm-26.017-1.62h25.2V45.808l-6.672-11.03c-.48-.4-.297-.383-.297-8.1h-11.273c0 7.517.215 7.76-.336 8.156l-6.63 10.963V112.4zm22.708 35.578h-20.2a5.57 5.57 0 0 1-5.564-5.563 5.57 5.57 0 0 1 5.564-5.564h20.2c3.068 0 5.564 2.497 5.564 5.564a5.57 5.57 0 0 1-5.564 5.563zm-20.208-9.5a3.95 3.95 0 0 0-3.945 3.945 3.95 3.95 0 0 0 3.945 3.944h20.2a3.95 3.95 0 0 0 3.947-3.944 3.95 3.95 0 0 0-3.947-3.945h-20.2z"/><path d="M776.1 26.7h-7.723V12.455L776.1 0v26.7zm-6.1-1.62h4.482V5.684L770 12.916V25.07zm6.1 113.388h-7.723V112.4h7.723v26.068zm-6.1-1.62h4.482v-22.83H770v22.83zm15.652-36.014H773.48a3.13 3.13 0 0 1-3.125-3.125 3.13 3.13 0 0 1 3.125-3.125c12.693 0 12.973-.307 12.973.8v4.63a.81.81 0 0 1-.811.81zm-12.162-4.63c-1.988 0-2 3.012 0 3.012h11.354v-3.012H773.48zm12.162-16.414H773.48a3.13 3.13 0 0 1-3.125-3.123 3.13 3.13 0 0 1 3.125-3.125h12.162a.81.81 0 0 1 .811.81v4.63a.81.81 0 0 1-.811.809zm-12.162-4.63a1.51 1.51 0 0 0-1.506 1.505 1.51 1.51 0 0 0 1.506 1.505h11.354v-3H773.48z"/><path d="M785.642 58.737H773.48a3.13 3.13 0 0 1-3.125-3.125 3.13 3.13 0 0 1 3.125-3.125c12.693 0 12.973-.306 12.973.8v4.63a.81.81 0 0 1-.811.809zm-12.162-4.63a1.51 1.51 0 0 0-1.506 1.505 1.51 1.51 0 0 0 1.506 1.506h11.354v-3.012l-11.354.001zM809.187 70.5c-3.35 0-8.316-2.766-8.316-6.585l1.734-22.586c-.002-3.57 2.95-6.523 6.582-6.523s6.586 2.955 6.586 6.585l1.73 22.462c.002 3.882-4.964 6.647-8.316 6.647zm0-34.075c-2.736 0-4.965 2.228-4.965 4.966l-1.734 22.586c.002 2.496 3.775 4.904 6.7 4.904s6.7-2.408 6.7-4.966l-1.73-22.462c-.003-2.8-2.232-5.028-4.97-5.028z"/><path d="M809.187 146.21a10.66 10.66 0 0 1-10.643-10.644l.117-56.33 5-8.254v-2.84a.81.81 0 0 1 1.258-.675c2.805 1.86 5.748 1.863 8.555 0 .54-.355 1.258.03 1.258.674v2.84c.19.316 5.107 8.305 5.107 8.674v55.9c.003 5.87-4.773 10.645-10.642 10.645zm-9.023-66.328v55.685c0 4.977 4.05 9.023 9.023 9.023s9.023-4.048 9.023-9.023V79.883c-6-9.94-5.107-7.758-5.107-10.35-2.686 1.286-5.168 1.275-7.83 0 0 .388.062 1.796-.117 2.097l-4.992 8.253z"/><path d="M818.453 104.15h-18.697c-1.07 0-1.068-1.618 0-1.618 19.8 0 19.506-.307 19.506.8a.81.81 0 0 1-.809.808zm-15.807 6.698c0-3.082 4.664-3.083 4.664 0s-4.664 3.08-4.664 0zm1.62 0c0 .94 1.426.94 1.426 0s-1.426-.943-1.426 0zm8.267 8.756c-1.35 0-2.445-1.096-2.445-2.442a2.45 2.45 0 0 1 2.445-2.445 2.45 2.45 0 0 1 2.443 2.445c0 1.347-1.096 2.442-2.443 2.442zm0-3.27c-1.1 0-1.092 1.65 0 1.65s1.1-1.65 0-1.65zm-6.596 14.32a2.62 2.62 0 0 1-2.613-2.613 2.62 2.62 0 0 1 2.613-2.613 2.62 2.62 0 0 1 2.613 2.613 2.62 2.62 0 0 1-2.613 2.613zm0-3.608c-1.312 0-1.312 2 0 2s1.313-2 0-2zm5.73 9.506c0-2.485 3.762-2.485 3.762 0s-3.762 2.487-3.762 0zm1.62 0c0 .347.52.345.52 0s-.52-.346-.52 0zm-6.617 3.12c-2.932 0-2.932-4.438 0-4.438s2.932 4.438 0 4.438zm-.597-2.218c0 .792 1.197.792 1.197 0s-1.197-.793-1.197 0zM560.896 186.94L537.6 163.343c-7.203-7.296-7.127-19.092.168-26.297 3.504-3.458 8.143-5.362 13.064-5.362a18.46 18.46 0 0 1 13.232 5.53l23.297 23.594c7.203 7.297 7.127 19.094-.17 26.297a18.59 18.59 0 0 1-26.296-.167zm-10.063-53.636a16.87 16.87 0 0 0-11.926 4.896c-6.66 6.576-6.73 17.346-.154 24.007l23.295 23.596a16.86 16.86 0 0 0 12.08 5.048c14.988 0 22.656-18.188 12.082-28.9l-23.297-23.595a16.84 16.84 0 0 0-12.08-5.051z"/><path d="M550.294 174.92c-.2 0-.418-.08-.578-.24a.81.81 0 0 1 .008-1.145l24.846-24.53a.81.81 0 0 1 1.145.007.81.81 0 0 1-.008 1.146l-24.844 24.528a.8.8 0 0 1-.569.235zm8.213 59.66l-31.705-9.7a18.47 18.47 0 0 1-12.334-23.225c3.074-10.042 13.547-15.3 23.225-12.335l31.703 9.708c9.803 3.002 15.336 13.42 12.336 23.226-3.068 10.02-13.53 15.304-23.225 12.335zm-42.492-32.46a16.86 16.86 0 0 0 1.24 12.933 16.88 16.88 0 0 0 10.023 8.27l31.705 9.7c8.832 2.703 18.393-2.093 21.2-11.263 2.74-8.95-2.312-18.46-11.264-21.203l-31.703-9.708c-8.833-2.704-18.4 2.092-21.202 11.262z"/><path d="M543.085 229.132c-.078 0-.158-.01-.238-.036a.81.81 0 0 1-.537-1.011c10.8-35.303 10.105-34.27 11.234-33.92a.81.81 0 0 1 .537 1.011l-10.223 33.384a.81.81 0 0 1-.773.572zm-417.82-1.826H95.622c-.323 0-.584-.26-.584-.584 0-30.668-.27-29.463.584-29.463H110.3c1.978 0 4.625 1.097 6.026 2.497l10.324 10.325c1.376 1.375 2.495 4.077 2.495 6.022v7.33c.001 2.136-1.736 3.874-3.87 3.874zm-29.058-1.17h29.058a2.7 2.7 0 0 0 2.702-2.705v-7.33c0-1.65-.986-4.03-2.153-5.195L115.5 200.583c-1.17-1.167-3.55-2.154-5.2-2.154H96.207v27.708zm48.847 18.764c-9.978 0-10.128.226-10.128-.584 0-9.73-.225-9.884.585-9.884 6.938 0 5.234-.787 10.267 4.243 1.15 1.154.92 2.66.92 4.58 0 .907-.737 1.644-1.643 1.644zm-8.96-1.17c8.735 0 9.433.303 9.433-.476 0-1.692.218-2.956-.578-3.754-4.675-4.67-2.97-3.9-8.855-3.9v8.13zm-22.85-2.97h-8.32a2.55 2.55 0 0 1-2.543-2.543c0-1.402 1.14-2.542 2.543-2.542h8.32c1.402 0 2.543 1.14 2.543 2.542a2.55 2.55 0 0 1-2.543 2.543zm-8.322-3.915c-.757 0-1.374.615-1.374 1.372s.616 1.373 1.374 1.373h8.32c1.816 0 1.816-2.745 0-2.745h-8.32zm-54.28-.59a15.42 15.42 0 0 1-15.406-15.405 15.42 15.42 0 0 1 15.406-15.406 15.42 15.42 0 0 1 15.406 15.406c0 8.506-6.9 15.405-15.406 15.405zm0-29.643c-7.85 0-14.237 6.388-14.237 14.237s6.387 14.237 14.237 14.237S64.88 228.7 64.88 220.85s-6.387-14.237-14.237-14.237zm0 22.247c-1.633 0-2.96-1.327-2.96-2.96v-2.087h-2.088c-1.633 0-2.962-1.33-2.962-2.962a2.97 2.97 0 0 1 2.962-2.963h2.088v-2.085c0-1.633 1.328-2.962 2.96-2.962s2.96 1.33 2.96 2.962v2.085h2.088a2.97 2.97 0 0 1 2.963 2.963 2.97 2.97 0 0 1-2.963 2.962h-2.088v2.087c.001 1.633-1.328 2.96-2.96 2.96zm-5.05-9.802c-.988 0-1.792.804-1.792 1.792s.804 1.792 1.792 1.792h2.673c.323 0 .585.263.585.585v2.672c0 .987.804 1.792 1.792 1.792s1.8-.804 1.8-1.792v-2.672c0-.323.262-.585.584-.585H55.7c1 0 1.793-.804 1.793-1.792s-.805-1.792-1.793-1.792h-2.673c-.323 0-.584-.263-.584-.585v-2.67c0-.988-.804-1.793-1.8-1.793s-1.792.805-1.792 1.793v2.67c0 .322-.262.585-.585.585h-2.673zm-13.22 44.71H17.46c-3.562 0-6.46-2.896-6.46-6.457a6.47 6.47 0 0 1 6.459-6.461h21.476a.59.59 0 0 1 .356 1.049c-3.582 2.75-5.9 6.886-6.336 11.344-.03.298-.28.525-.58.525zm-14.915-11.75a5.3 5.3 0 0 0-5.29 5.292 5.3 5.3 0 0 0 5.3 5.288h14.393c.53-4.04 2.488-7.802 5.484-10.58H17.46zm134.048 11.75c-21.6 0-21.094.283-21.174-.525-.444-4.458-2.753-8.594-6.335-11.344a.59.59 0 0 1 .356-1.049h27.154a6.47 6.47 0 0 1 6.46 6.461 6.47 6.47 0 0 1-6.461 6.457zm-20.07-1.17h20.07c2.917 0 5.3-2.372 5.3-5.288a5.3 5.3 0 0 0-5.291-5.292H125.95c2.997 2.778 4.955 6.54 5.485 10.58zm-65.34 1.17c-.3 0-.552-.228-.582-.525a16.42 16.42 0 0 0-6.336-11.344.58.58 0 0 1-.198-.65c.08-.235.303-.396.554-.396l44.773.396a.58.58 0 0 1-.198.651c-3.582 2.75-5.892 6.886-6.335 11.344-.08.808 1.417.525-31.678.525zm.52-1.17H96.67c.53-4.04 2.488-7.802 5.485-10.58H61.133a17.6 17.6 0 0 1 5.484 10.58zm26.368-73.23c-7.678 0-8.002.226-8.002-.584v-3.164a4.3 4.3 0 0 1 4.293-4.293 4.3 4.3 0 0 1 4.293 4.293v3.164c0 .322-.26.584-.584.584zm-6.833-1.17h6.25v-2.58a3.13 3.13 0 0 0-3.124-3.125 3.13 3.13 0 0 0-3.124 3.125v2.58z"/><path d="M49.235 282.4c-9.667 0-17.532-7.865-17.532-17.532s7.865-17.53 17.532-17.53 17.53 7.863 17.53 17.53S58.9 282.4 49.235 282.4zm0-33.895c-9.022 0-16.363 7.34-16.363 16.362s7.34 16.364 16.363 16.364 16.362-7.342 16.362-16.364-7.34-16.362-16.362-16.362zm0 26.478a10.13 10.13 0 0 1-10.115-10.115 10.13 10.13 0 0 1 10.115-10.112c5.577 0 10.114 4.536 10.114 10.112a10.13 10.13 0 0 1-10.114 10.115zm0-19.06a8.96 8.96 0 0 0-8.945 8.944 8.96 8.96 0 0 0 8.945 8.946 8.96 8.96 0 0 0 8.944-8.946c.001-4.93-4.012-8.944-8.944-8.944zm64.818 26.477c-9.667 0-17.53-7.865-17.53-17.532s7.864-17.53 17.53-17.53 17.532 7.863 17.532 17.53-7.864 17.532-17.532 17.532zm0-33.895c-9.022 0-16.362 7.34-16.362 16.362s7.34 16.364 16.362 16.364 16.363-7.342 16.363-16.364-7.34-16.362-16.363-16.362zm0 26.478a10.13 10.13 0 0 1-10.114-10.115c0-5.576 4.537-10.112 10.114-10.112s10.114 4.536 10.114 10.112a10.13 10.13 0 0 1-10.114 10.115zm0-19.06a8.96 8.96 0 0 0-8.944 8.944c0 4.934 4.012 8.946 8.944 8.946a8.96 8.96 0 0 0 8.945-8.946 8.96 8.96 0 0 0-8.945-8.944z"/><path d="M150.106 252.02c-.3 0-25.864.067-26.1-.12-5.87-4.507-14.002-4.52-19.887 0-.102.078-.227.12-.356.12h-44.22a.59.59 0 0 1-.356-.121c-5.857-4.5-14-4.53-19.887 0a.59.59 0 0 1-.356.121c-20.343 0-19.617.25-19.617-.585v-54.46a8.79 8.79 0 0 1 8.777-8.776h76.5c4.65 0 11.1 2.676 14.397 5.965l25.726 25.723c3.288 3.288 5.962 9.746 5.962 14.396v17.153c0 .323-.262.585-.585.585zm-25.556-1.17h24.97v-16.567c0-4.384-2.52-10.47-5.62-13.57l-25.726-25.725c-3.1-3.1-9.187-5.62-13.57-5.62h-76.5c-4.195 0-7.607 3.4-7.607 7.605v53.876h18.25a17.46 17.46 0 0 1 20.993 0h43.826a17.46 17.46 0 0 1 20.993 0zm329.027 66.204c-69.133-35.1-22.375-84.805.413-55.046 21.937-29.832 69.587 20.057.318 55.047a.81.81 0 0 1-.731-.001zm.367-1.63c66.686-33.932 20.805-81.142.73-51.578a.8.8 0 0 1-.662.354c-.25.02-.515-.125-.668-.342-20.908-29.484-66.042 17.48.6 51.566z"/><path d="M466.134 302.516l-4.078-31.208-3.243 22.112c-.057.392-.388.684-.783.7-.42.005-.74-.27-.813-.656l-2.703-14.163-1.638 3.354a.81.81 0 0 1-.713.454c-.32-.01-.586-.16-.73-.43l-5.418-10.17-4.548 10.868a.81.81 0 0 1-.747.496h-34.487a.81.81 0 1 1 0-1.621h33.95c5.188-12.396 4.9-12.402 5.708-12.44.314-.004.605.152.752.428l5.476 10.275 2-4.114a.81.81 0 0 1 1.523.203l2.26 11.837 3.393-23.14c.06-.4.394-.728.8-.692.403.003.743.306.796.705l4.4 33.592c5.987-17.3 5.52-16.65 6.337-16.65 29.818 0 28.685-.347 28.685.8a.81.81 0 0 1-.811.811h-27.3l-6.505 18.808c-.284.8-1.462.68-1.57-.16zm164.62 49.998h-106.68a18.63 18.63 0 0 1-16.551-10.159h-16.234c-4.63 0-8.4-3.77-8.4-8.398a8.41 8.41 0 0 1 8.4-8.399h16.234a18.62 18.62 0 0 1 16.55-10.16h106.682c10.232 0 18.56 8.326 18.56 18.562-.001 10.23-8.327 18.555-18.562 18.555zM491.287 327.84c-3.37 0-6.116 2.744-6.116 6.116s2.745 6.114 6.116 6.114c18.168 0 17.564-.257 18 .666 2.646 5.768 8.457 9.494 14.795 9.494h106.682c8.977 0 16.277-7.3 16.277-16.274a16.3 16.3 0 0 0-16.277-16.276H524.072c-6.34 0-12.146 3.727-14.797 9.495-.186.405-.592.665-1.037.665h-16.95zm116.896 15.058v-4.994h-5.562v4.994c0 1.17-.95 2.123-2.123 2.123a2.12 2.12 0 0 1-2.12-2.123v-4.994h-5.564v4.994c0 2.806-4.244 2.807-4.244 0v-4.994h-5.564v4.994c0 1.17-.95 2.123-2.123 2.123s-2.123-.952-2.123-2.123v-4.994h-5.562v4.994c0 1.17-.95 2.123-2.123 2.123s-2.123-.952-2.123-2.123v-4.994H563.4v4.994c0 1.17-.95 2.123-2.123 2.123s-2.123-.952-2.123-2.123v-4.994h-5.562v4.994c0 1.17-.95 2.123-2.123 2.123s-2.123-.952-2.123-2.123v-4.994h-5.562v4.994c0 1.17-.95 2.123-2.123 2.123s-2.123-.952-2.123-2.123v-4.994h-33.86c-2.178 0-3.95-1.77-3.95-3.947s1.77-3.95 3.95-3.95h33.86v-4.994c0-1.17.95-2.123 2.123-2.123s2.123.952 2.123 2.123v4.994h5.562v-4.994c0-2.806 4.246-2.807 4.246 0v4.994h5.562v-4.994c0-1.17.953-2.123 2.123-2.123s2.123.952 2.123 2.123v4.994h5.562v-4.994c0-2.806 4.246-2.807 4.246 0v4.994h5.562v-4.994c0-1.17.953-2.123 2.123-2.123s2.123.952 2.123 2.123v4.994h5.564v-4.994c0-1.17.95-2.123 2.123-2.123a2.12 2.12 0 0 1 2.12 2.123v4.994h5.564v-4.994c0-1.17.95-2.123 2.12-2.123s2.123.952 2.123 2.123v4.994h5.562v-4.994c0-1.17.95-2.123 2.123-2.123s2.123.952 2.123 2.123v4.994h21.6c2.178 0 3.95 1.77 3.95 3.95a3.95 3.95 0 0 1-3.95 3.947h-21.6v4.994c0 2.805-4.246 2.806-4.246 0zm-6.373-6.613h7.184a.81.81 0 0 1 .809.81v5.804c0 .665 1.008.665 1.008 0v-5.804a.81.81 0 0 1 .811-.81h22.422a2.33 2.33 0 0 0 2.33-2.329c0-1.285-1.045-2.33-2.33-2.33-23.818 0-23.232.344-23.232-.8v-5.804c0-.277-.225-.504-.502-.504s-.504.227-.504.504v5.804a.81.81 0 0 1-.811.811h-7.182a.81.81 0 0 1-.811-.811v-5.804c0-.277-.225-.504-.504-.504s-.502.227-.502.504v5.804a.81.81 0 0 1-.811.811H592a.81.81 0 0 1-.809-.811v-5.804c0-.277-.227-.504-.506-.504s-.502.227-.502.504v5.804a.81.81 0 0 1-.811.811H582.2a.81.81 0 0 1-.811-.811v-5.804c0-.277-.227-.504-.504-.504s-.504.227-.504.504v5.804a.81.81 0 0 1-.811.811h-7.182a.81.81 0 0 1-.809-.811v-5.804c0-.665-1.008-.665-1.008 0v5.804a.81.81 0 0 1-.811.811h-7.182a.81.81 0 0 1-.811-.811v-5.804c0-.277-.225-.504-.502-.504s-.504.227-.504.504v5.804a.81.81 0 0 1-.811.811h-7.182a.81.81 0 0 1-.809-.811v-5.804c0-.277-.227-.504-.504-.504s-.504.227-.504.504v5.804a.81.81 0 0 1-.811.811h-7.182a.81.81 0 0 1-.811-.811v-5.804c0-.277-.225-.504-.504-.504s-.502.227-.502.504v5.804a.81.81 0 0 1-.811.811h-34.668c-3.08 0-3.078 4.66 0 4.66 36.77 0 35.48-.36 35.48.8v5.804c0 .277.227.504.502.504s.504-.227.504-.504v-5.804a.81.81 0 0 1 .811-.81h7.182a.81.81 0 0 1 .811.81v5.804c0 .277.227.504.504.504s.504-.227.504-.504v-5.804a.81.81 0 0 1 .809-.81h7.182a.81.81 0 0 1 .811.81v5.804c0 .277.225.504.504.504s.502-.227.502-.504v-5.804a.81.81 0 0 1 .811-.81h7.182a.81.81 0 0 1 .811.81v5.804c0 .277.227.504.504.504s.504-.227.504-.504v-5.804a.81.81 0 0 1 .809-.81h7.182a.81.81 0 0 1 .811.81v5.804c0 .665 1.008.665 1.008 0v-5.804a.81.81 0 0 1 .811-.81c7.277 0 7.992-.27 7.992.8v5.804c0 .277.227.504.502.504a.51.51 0 0 0 .506-.504v-5.804a.81.81 0 0 1 .809-.81h7.184a.81.81 0 0 1 .811.81v5.804c0 .665 1.006.665 1.006 0v-5.804a.81.81 0 0 1 .809-.81zM266.845 172.3H246.37a.811.811 0 1 1 0-1.621h20.474a.811.811 0 1 1 0 1.621zm-55.293 93.55h-24.76a.811.811 0 1 1 0-1.621h24.76a.811.811 0 1 1 0 1.621zM409.945 7.22H358.05a.81.81 0 1 1 0-1.621h51.896a.811.811 0 0 1-.001 1.621zM285.2 75.783h-20.95a.81.81 0 1 1 0-1.621h20.95a.81.81 0 1 1 0 1.621z"/><use xlink:href="#C"/><path d="M244.626 248.025h-14.283a.811.811 0 0 1 0-1.621h14.283a.811.811 0 0 1 0 1.621zm-39.312-229.55H182.46a.811.811 0 0 1 0-1.621h22.854a.811.811 0 0 1 0 1.621zm541.96 285.032h-43.8a.81.81 0 1 1 0-1.621h43.8a.81.81 0 1 1 0 1.621zm-685.7 48.677H17.3a.811.811 0 1 1 0-1.621h44.277a.811.811 0 1 1-.001 1.621zM40.68 375.992H20.207a.811.811 0 1 1 0-1.621H40.68a.811.811 0 1 1 0 1.621zM865.195 66.288h-11.428a.81.81 0 1 1 0-1.621h11.428a.81.81 0 1 1 0 1.621z"/><path d="M859.48 72a.81.81 0 0 1-.811-.811V59.765a.811.811 0 1 1 1.622 0V71.2a.81.81 0 0 1-.811.809zm29.814 142.05h-24.76a.811.811 0 1 1 0-1.621h24.76a.811.811 0 1 1 0 1.621zm62.796 16.757h-51.895a.81.81 0 1 1 0-1.621H952.1a.81.81 0 1 1 0 1.621zM935.484 198.2h-20.95a.811.811 0 1 1 0-1.621h20.95a.811.811 0 0 1 0 1.621zM407.927 26.88h-14.285a.81.81 0 1 1 0-1.621h14.285a.81.81 0 1 1 0 1.621zM134.084 375.992H111.23c-1.07 0-1.07-1.62 0-1.62 24.3 0 23.664-.347 23.664.8a.81.81 0 0 1-.81.809zM76.65 14.557h-43.8a.811.811 0 1 1 0-1.621h43.8a.811.811 0 1 1 0 1.621zm867.023 118.67c-47.13 0-45.088.377-45.088-.8a.81.81 0 0 1 .811-.811h44.277a.81.81 0 1 1 0 1.621zm-231.795 161.51h-20.473a.81.81 0 1 1 0-1.62h20.473a.81.81 0 0 1 0 1.62zm233.5 75.54h-11.426a.81.81 0 0 1 0-1.62h11.426a.81.81 0 1 1 0 1.62z"/><path d="M939.675 375.992a.81.81 0 0 1-.811-.811v-11.426a.811.811 0 1 1 1.622 0v11.426a.81.81 0 0 1-.811.811zM785.132 189.975a7.16 7.16 0 0 1-7.146-7.148 7.16 7.16 0 0 1 7.146-7.148 7.16 7.16 0 0 1 7.15 7.148c.001 3.942-3.206 7.148-7.15 7.148zm0-12.678c-3.05 0-5.527 2.48-5.527 5.53s2.48 5.53 5.527 5.53a5.54 5.54 0 0 0 5.531-5.529 5.54 5.54 0 0 0-5.531-5.529zm38.9 198.695a7.16 7.16 0 0 1-7.148-7.149 7.16 7.16 0 0 1 7.148-7.147 7.16 7.16 0 0 1 7.15 7.147 7.16 7.16 0 0 1-7.15 7.149zm0-12.678c-3.05 0-5.53 2.48-5.53 5.528a5.54 5.54 0 0 0 5.53 5.53c3.05 0 5.53-2.48 5.53-5.53s-2.48-5.528-5.53-5.528zm41.776-319.07a7.16 7.16 0 0 1-7.146-7.15c0-3.943 3.205-7.147 7.146-7.147a7.16 7.16 0 0 1 7.15 7.147 7.16 7.16 0 0 1-7.15 7.149zm0-12.678c-3.05 0-5.527 2.48-5.527 5.53s2.48 5.53 5.527 5.53a5.54 5.54 0 0 0 5.53-5.53c0-3.05-2.48-5.53-5.53-5.53zM497.453 181.714a7.16 7.16 0 0 1-7.148-7.149 7.16 7.16 0 0 1 7.148-7.147 7.16 7.16 0 0 1 7.148 7.147 7.16 7.16 0 0 1-7.148 7.149zm0-12.678c-3.05 0-5.53 2.48-5.53 5.528a5.54 5.54 0 0 0 5.529 5.53c3.05 0 5.53-2.48 5.53-5.53s-2.48-5.528-5.53-5.528zm73.94 116.474a7.16 7.16 0 0 1-7.145-7.148c0-3.94 3.205-7.146 7.145-7.146a7.16 7.16 0 0 1 7.152 7.146c-.002 3.94-3.2 7.148-7.152 7.148zm0-12.676c-3.047 0-5.525 2.48-5.525 5.527a5.54 5.54 0 0 0 5.525 5.53 5.54 5.54 0 0 0 5.53-5.53c0-3.05-2.48-5.527-5.53-5.527zm35.623-152.484a7.16 7.16 0 0 1-7.145-7.148c0-3.94 3.205-7.147 7.145-7.147a7.16 7.16 0 0 1 7.15 7.147 7.16 7.16 0 0 1-7.15 7.148zm0-12.678c-3.047 0-5.525 2.48-5.525 5.528s2.48 5.53 5.525 5.53a5.54 5.54 0 0 0 5.53-5.53c0-3.05-2.48-5.528-5.53-5.528zM120.002 353.597a7.16 7.16 0 0 1-7.147-7.147 7.16 7.16 0 0 1 7.147-7.149 7.16 7.16 0 0 1 7.15 7.149 7.16 7.16 0 0 1-7.15 7.147zm0-12.68c-3.048 0-5.527 2.48-5.527 5.53s2.48 5.528 5.527 5.528a5.54 5.54 0 0 0 5.53-5.528 5.54 5.54 0 0 0-5.531-5.53zm536.288-35.32a7.16 7.16 0 0 1-7.146-7.148c0-3.94 3.205-7.147 7.146-7.147a7.16 7.16 0 0 1 7.15 7.147 7.16 7.16 0 0 1-7.15 7.148zm0-12.678c-3.05 0-5.527 2.48-5.527 5.528a5.54 5.54 0 0 0 5.527 5.53 5.54 5.54 0 0 0 5.53-5.53 5.54 5.54 0 0 0-5.531-5.528zm88.225-31.56a7.16 7.16 0 0 1-7.146-7.148 7.16 7.16 0 0 1 7.146-7.148 7.16 7.16 0 0 1 7.15 7.148 7.16 7.16 0 0 1-7.15 7.148zm0-12.678c-3.05 0-5.527 2.48-5.527 5.528a5.54 5.54 0 0 0 5.527 5.53 5.54 5.54 0 0 0 5.531-5.53c0-3.05-2.48-5.528-5.53-5.528zM148.613 26.253a7.16 7.16 0 0 1-7.146-7.149 7.16 7.16 0 0 1 7.146-7.147 7.16 7.16 0 0 1 7.15 7.147 7.16 7.16 0 0 1-7.15 7.149zm0-12.677c-3.048 0-5.527 2.48-5.527 5.528a5.54 5.54 0 0 0 5.527 5.53 5.54 5.54 0 0 0 5.531-5.53c0-3.048-2.48-5.528-5.53-5.528zm327.66 186.354a7.16 7.16 0 0 1-7.146-7.149 7.16 7.16 0 0 1 7.146-7.147 7.16 7.16 0 0 1 7.149 7.147 7.16 7.16 0 0 1-7.15 7.15zm0-12.678c-3.05 0-5.527 2.48-5.527 5.528a5.54 5.54 0 0 0 5.527 5.53 5.54 5.54 0 0 0 5.53-5.53c0-3.05-2.48-5.528-5.53-5.528zM189.907 312.884a7.16 7.16 0 0 1-7.146-7.148 7.16 7.16 0 0 1 7.146-7.147 7.16 7.16 0 0 1 7.15 7.147 7.16 7.16 0 0 1-7.15 7.148zm0-12.677c-3.048 0-5.527 2.48-5.527 5.528a5.54 5.54 0 0 0 5.527 5.53 5.54 5.54 0 0 0 5.53-5.53c0-3.05-2.48-5.528-5.53-5.528zm260.445 79.695a7.16 7.16 0 0 1-7.146-7.147 7.16 7.16 0 0 1 7.146-7.148 7.16 7.16 0 0 1 7.15 7.148 7.16 7.16 0 0 1-7.15 7.147zm0-12.678c-3.048 0-5.526 2.48-5.526 5.53s2.48 5.53 5.526 5.53a5.54 5.54 0 0 0 5.53-5.53 5.54 5.54 0 0 0-5.531-5.529zm-5.395-342.4a7.16 7.16 0 0 1-7.146-7.148 7.16 7.16 0 0 1 7.146-7.148 7.16 7.16 0 0 1 7.15 7.148 7.16 7.16 0 0 1-7.15 7.148zm0-12.678c-3.047 0-5.527 2.48-5.527 5.53s2.48 5.53 5.527 5.53a5.54 5.54 0 0 0 5.53-5.53 5.54 5.54 0 0 0-5.531-5.529zm-221.99 214.25a7.16 7.16 0 0 1-7.147-7.149 7.16 7.16 0 0 1 7.147-7.148 7.16 7.16 0 0 1 7.15 7.148 7.16 7.16 0 0 1-7.15 7.149zm0-12.68c-3.05 0-5.528 2.48-5.528 5.53s2.48 5.53 5.528 5.53a5.54 5.54 0 0 0 5.531-5.53 5.54 5.54 0 0 0-5.531-5.529zM153.5 316.413a7.16 7.16 0 0 1-7.147-7.149 7.16 7.16 0 0 1 7.147-7.147 7.16 7.16 0 0 1 7.15 7.147 7.16 7.16 0 0 1-7.15 7.149zm0-12.678c-3.048 0-5.528 2.48-5.528 5.528a5.54 5.54 0 0 0 5.528 5.53 5.54 5.54 0 0 0 5.531-5.53c0-3.05-2.48-5.528-5.53-5.528zM33.744 73.535a7.16 7.16 0 0 1-7.147-7.149 7.16 7.16 0 0 1 7.147-7.146 7.16 7.16 0 0 1 7.151 7.146 7.16 7.16 0 0 1-7.151 7.149zm0-12.677c-3.048 0-5.528 2.48-5.528 5.528a5.54 5.54 0 0 0 5.528 5.53 5.54 5.54 0 0 0 5.531-5.53 5.54 5.54 0 0 0-5.531-5.528zm101.5-16.122a7.16 7.16 0 0 1-7.146-7.148 7.16 7.16 0 0 1 7.146-7.148 7.16 7.16 0 0 1 7.15 7.148 7.16 7.16 0 0 1-7.15 7.148zm0-12.678c-3.048 0-5.527 2.48-5.527 5.53s2.48 5.53 5.527 5.53a5.54 5.54 0 0 0 5.531-5.53 5.54 5.54 0 0 0-5.531-5.529zm291.98 297.967h-11.427a.81.81 0 1 1 0-1.621h11.427a.81.81 0 1 1 0 1.621z"/><path d="M421.52 335.738a.81.81 0 0 1-.81-.81v-11.426a.81.81 0 1 1 1.621 0v11.426a.81.81 0 0 1-.811.81z"/><use xlink:href="#C" x="137.218" y="214.588"/><path d="M386.667 303.458a.81.81 0 0 1-.81-.811V291.22a.81.81 0 0 1 1.62 0v11.426a.81.81 0 0 1-.81.811zM209.408 84.1h-11.426a.81.81 0 0 1 0-1.621h11.426a.81.81 0 0 1 0 1.621z"/><path d="M203.695 89.812a.81.81 0 0 1-.81-.81V77.577a.81.81 0 1 1 1.62 0v11.426a.81.81 0 0 1-.81.809zm751.28 77.42h-11.428a.811.811 0 0 1 0-1.621h11.428a.811.811 0 1 1 0 1.621z"/><path d="M949.263 172.946a.81.81 0 0 1-.811-.81V160.7a.81.81 0 1 1 1.622 0v11.426a.81.81 0 0 1-.811.81z"/><use xlink:href="#C" x="34.246" y="44.49"/><path d="M283.695 133.36a.81.81 0 0 1-.81-.81v-11.425a.81.81 0 1 1 1.62 0v11.425a.81.81 0 0 1-.81.81z"/><use xlink:href="#C" x="-77.492" y="270.392"/><path d="M171.148 358.456V347.03a.81.81 0 1 1 1.62 0v11.425c-.001 1.07-1.62 1.07-1.62 0zM876.4 112.22c-26.402 0-25.568.347-25.568-.8a.81.81 0 0 1 .811-.811c26.402 0 25.568-.347 25.568.8a.81.81 0 0 1-.811.81zM68.264 35.422H16.37a.81.81 0 1 1 0-1.621h51.895a.81.81 0 1 1 0 1.621zm715.618 288.513h-20.947a.81.81 0 1 1 0-1.621h20.947a.81.81 0 1 1 0 1.621zm-17.627-127.612H751.97a.811.811 0 0 1 0-1.621h14.285a.811.811 0 1 1 0 1.621zm-216.263 179.67h-22.855a.811.811 0 1 1 0-1.621h22.855a.811.811 0 1 1 0 1.621zM270.603 28.73h-43.8a.81.81 0 1 1 0-1.621h43.8a.81.81 0 1 1 0 1.621zm235.012 193.035h-44.277a.81.81 0 1 1 0-1.621h44.277a.81.81 0 1 1 0 1.621zm400.193 154.227h-20.475a.811.811 0 1 1 0-1.621h20.475a.811.811 0 1 1 0 1.621zM638.5 51.492h-11.426a.81.81 0 1 1 0-1.621H638.5a.81.81 0 1 1 0 1.621z"/><path d="M632.8 57.205a.81.81 0 0 1-.811-.811V44.97a.81.81 0 1 1 1.62 0v11.425a.81.81 0 0 1-.809.81zm66.588 212.07H674.62a.81.81 0 1 1 0-1.621h24.758a.81.81 0 1 1 0 1.621zm-589.462 25.752H58.02a.81.81 0 0 1 0-1.62h51.895a.81.81 0 0 1 0 1.62zm338.282-132.44h-20.95a.811.811 0 0 1 0-1.621h20.95a.811.811 0 0 1 0 1.621zm-245.376 36.816h-11.425a.81.81 0 0 1 0-1.62h11.425a.81.81 0 0 1 0 1.62zm689.24-73.837h-14.285a.81.81 0 1 1 0-1.621h14.285a.81.81 0 1 1 0 1.621zM726.78 347.84h-22.854a.81.81 0 1 1 0-1.621h22.854a.81.81 0 0 1 .811.81c-.003.448-.364.8-.8.8zM712.822 32.06h-43.8a.811.811 0 1 1 0-1.621h43.8a.81.81 0 0 1 .811.811c-.003.447-.364.8-.8.8zM562.685 9.122h-44.277a.81.81 0 1 1 0-1.621h44.277a.81.81 0 1 1 0 1.621z"/><use xlink:href="#C" x="374.48" y="171.722"/><path d="M623.93 260.595a.81.81 0 0 1-.811-.81V248.36a.811.811 0 0 1 1.622 0v11.426a.81.81 0 0 1-.811.809zM215.7 144.442h-24.76a.81.81 0 0 1 0-1.62h24.76a.81.81 0 0 1 0 1.62zm48.592 199.976c-55.47 0-52.706.376-52.706-.8a.81.81 0 0 1 .81-.81c55.47 0 52.705-.375 52.705.8a.81.81 0 0 1-.809.811zm405.88 31.574h-20.947a.811.811 0 1 1 0-1.621h20.947a.81.81 0 0 1 .811.81c-.003.448-.364.8-.8.8zm-200.32-18.215H458.42a.81.81 0 0 1 0-1.62h11.424a.81.81 0 1 1 0 1.62zm301.04 18.215h-51.896a.811.811 0 1 1 0-1.621h51.896a.811.811 0 1 1 0 1.621z"/></g><defs ><path id="B" d="M574.585 72.1h-42.95a2.06 2.06 0 0 1-2.059-2.057 2.06 2.06 0 0 1 2.059-2.057h42.95a2.06 2.06 0 0 1 2.057 2.057 2.06 2.06 0 0 1-2.057 2.057zm-42.95-2.494c-.244 0-.44.196-.44.438a.44.44 0 0 0 .439.438h42.95a.44.44 0 0 0 .439-.438.44.44 0 0 0-.439-.438h-42.95z"/><path id="C" d="M255.162 83.158h-11.426a.81.81 0 1 1 0-1.621h11.426a.81.81 0 1 1 0 1.621z"/></defs></svg>