<?xml version="1.0" encoding="utf-8"?>
<!-- Generator: Adobe Illustrator 22.0.1, SVG Export Plug-In . SVG Version: 6.00 Build 0)  -->
<svg version="1.1" id="Layer_1" xmlns="http://www.w3.org/2000/svg" xmlns:xlink="http://www.w3.org/1999/xlink" x="0px" y="0px"
	 viewBox="0 0 374.5 476.2" style="enable-background:new 0 0 374.5 476.2;" xml:space="preserve">
<style type="text/css">
	.st0{clip-path:url(#SVGID_2_);fill:#C1C8D2;}
	.st1{clip-path:url(#SVGID_2_);fill:#AAB2B9;}
	.st2{clip-path:url(#SVGID_2_);fill:#FFFFFF;}
	.st3{clip-path:url(#SVGID_2_);fill:#E2EBF9;}
	.st4{clip-path:url(#SVGID_2_);fill:#FFAA16;}
	.st5{clip-path:url(#SVGID_2_);fill:#FF914D;}
	.st6{clip-path:url(#SVGID_2_);fill:#434C54;}
	.st7{clip-path:url(#SVGID_2_);fill:#FFC943;}
	.st8{clip-path:url(#SVGID_2_);fill:#00C395;}
</style>
<g>
	<defs>
		<rect id="SVGID_1_" width="374.5" height="476.2"/>
	</defs>
	<clipPath id="SVGID_2_">
		<use xlink:href="#SVGID_1_"  style="overflow:visible;"/>
	</clipPath>
	<path class="st0" d="M350.8,58.4v-25h-65.1v25l-12.6,11.3c-3.7,3.3-5.8,8.1-5.8,13v111.5c0,5.5,4.4,9.9,9.9,9.9h81.9
		c5.5,0,9.9-4.4,9.9-9.9V82.7c0-5-2.1-9.7-5.8-13L350.8,58.4z"/>
	<path class="st1" d="M363.4,69.7l-12.6-11.3v-25h-34.5v25l17.2,15.5c0.7,0.6,1.1,1.6,1.1,2.5v127.8h24.5c5.5,0,9.9-4.4,9.9-9.9
		V82.7C369.2,77.8,367.1,73,363.4,69.7"/>
	<path class="st2" d="M350.8,58.4h-65.1l-12.6,11.3c-3.7,3.3-5.8,8.1-5.8,13v111.5c0,5.5,4.4,9.9,9.9,9.9h81.9
		c5.5,0,9.9-4.4,9.9-9.9V82.7c0-5-2.1-9.7-5.8-13L350.8,58.4z"/>
	<path class="st3" d="M368.3,77.3c-0.1-0.3-0.2-0.6-0.3-0.9c-0.2-0.6-0.5-1.1-0.7-1.7c-0.3-0.5-0.6-1.1-0.9-1.6
		c-0.3-0.5-0.7-1-1.1-1.5c-0.6-0.7-1.2-1.4-1.9-2l-12.6-11.3h-34.5l17.2,15.5c0.7,0.6,1.1,1.6,1.1,2.5v127.8h24.5
		c2.1,0,4-0.6,5.5-1.7c1.6-1.1,2.8-2.6,3.6-4.4c0.5-1.2,0.8-2.5,0.8-3.9V82.7C369.2,80.9,368.9,79,368.3,77.3"/>
	<path class="st4" d="M355.3,42.2h-74c-2.6,0-4.7-2.1-4.7-4.7V10c0-2.6,2.1-4.7,4.7-4.7h74c2.6,0,4.7,2.1,4.7,4.7v27.4
		C360,40.1,357.9,42.2,355.3,42.2"/>
	<path class="st5" d="M355.3,5.3h-30v36.9h30c2.6,0,4.7-2.1,4.7-4.7V10C360,7.4,357.9,5.3,355.3,5.3"/>
	<path class="st2" d="M319.5,175.5h-52.2V99.9h52.2c2.3,0,4.1,1.8,4.1,4.1v67.3C323.6,173.6,321.8,175.5,319.5,175.5"/>
	<path class="st2" d="M319.5,100h-30.6v75.5h30.6c2.3,0,4.1-1.8,4.1-4.1v-67.3C323.6,101.8,321.8,100,319.5,100"/>
	<path class="st6" d="M366.9,65.7L356.1,56v-8.5c5.1-0.4,9.2-4.7,9.2-10V10c0-5.5-4.5-10-10-10h-74c-5.5,0-10,4.5-10,10v27.4
		c0,5.3,4.1,9.6,9.2,10V56l-10.8,9.7c-4.8,4.3-7.6,10.5-7.6,17v111.5c0,8.4,6.8,15.2,15.2,15.2h81.9c8.4,0,15.2-6.8,15.2-15.2V82.7
		C374.5,76.3,371.7,70.1,366.9,65.7 M291.1,47.5h54.4v5.6h-54.4V47.5z M281.8,10.6h72.9v26.3h-72.9V10.6z M363.9,194.2
		c0,2.5-2.1,4.6-4.6,4.6h-81.9c-2.6,0-4.6-2.1-4.6-4.6V82.7c0-3.5,1.5-6.8,4.1-9.1l11-10h61l11,10c2.6,2.3,4.1,5.6,4.1,9.1V194.2z"
		/>
	<path class="st4" d="M70.9,188.3c8,8,8,21,0,29l-29,29c-8,8-21,8-29,0c-8-8-8-21,0-29l29-29C49.9,180.3,62.9,180.3,70.9,188.3"/>
	<polygon class="st4" points="179,305.1 80.3,305.1 41.9,246.4 70.9,217.4 	"/>
	<path class="st7" d="M82.2,211.9l-26.6,26.6c-5.7,5.7-13.8,7.3-20.9,5c-3-1-5.7-2.6-8.1-5c-5.4-5.4-7.1-13-5.3-19.9
		c0.9-3.4,2.7-6.5,5.3-9.2l29-29c1.9-1.9,4.1-3.4,6.4-4.3c5,1,9.8,3.5,13.7,7.4C83.4,191.2,85.6,202.3,82.2,211.9"/>
	<path class="st7" d="M180.1,297.2h-86l-36.9-56.4l-1.5-2.3l26.6-26.6c-0.5,1.5-1.2,2.9-1.9,4.3L180.1,297.2z"/>
	<path class="st3" d="M247.5,428.3v27.4c0,7.6-6.1,13.7-13.7,13.7H116.2c-7.6,0-13.7-6.1-13.7-13.7v-27.4H247.5z"/>
	<path class="st3" d="M329.6,305.1v41.1c0,45.3-36.8,82.1-82.1,82.1h-145c-45.3,0-82.1-36.8-82.1-82.1v-41.1H329.6z"/>
	<path class="st2" d="M329.6,286.8c-2.9,4-6.1,7.9-9.5,11.5h9.5v24c0,12.3-2.7,24-7.6,34.5c-13,28.1-41.5,47.6-74.5,47.6h-145
		c-33,0-61.5-19.5-74.5-47.6c-4.9-10.5-7.6-22.2-7.6-34.5v-24h47.3l-11.1-17h16.4l11.1,17h75.7l-1.3-1.1l-19.6-15.9h21.7l19.6,15.9
		l1.3,1.1h20.8c-5-5.2-9.4-10.9-13.2-17h140.6L329.6,286.8L329.6,286.8z"/>
	<path class="st8" d="M322.8,223c-23.1,0-44.4,7.6-61.6,20.5c-17.1-12.9-38.5-20.5-61.6-20.5h-20.5c0,33.6,16.1,63.4,41,82.1h82.1
		c24.9-18.7,41-48.5,41-82.1H322.8z"/>
	<path class="st6" d="M329.6,298.3h-9.5c3.4-3.6,6.6-7.4,9.5-11.5c13-18,20.5-40,20.5-63.8c0-3.8-3.1-6.8-6.8-6.8h-20.5
		c-22.2,0-43.4,6.5-61.6,18.9c-18.2-12.4-39.4-18.9-61.6-18.9h-20.5c-3.8,0-6.8,3.1-6.8,6.8c0,21.4,6.1,41.3,16.8,58.2
		c3.8,6.1,8.3,11.8,13.2,17h-20.8l-1.3-1.1l-19.6-15.9l-80.2-65.1c0.8-1.4,1.4-2.8,1.9-4.3v0c3.3-9.6,1.2-20.7-6.5-28.4
		c-3.9-3.9-8.7-6.4-13.7-7.4c-8.7-1.8-18.2,0.6-25,7.4l-29,29c-10.7,10.7-10.7,28,0,38.7c8.7,8.7,21.7,10.3,32.1,4.9l16.4,25.1
		l11.1,17H20.4c-3.8,0-6.8,3.1-6.8,6.8v41c0,46.7,36.3,85.2,82.1,88.7v20.8c0,11.3,9.2,20.5,20.5,20.5h117.7
		c11.3,0,20.5-9.2,20.5-20.5v-20.8c45.9-3.5,82.1-41.9,82.1-88.7v-41C336.5,301.3,333.4,298.3,329.6,298.3 M322.8,229.9h1.8
		l-47.3,39.2c-2.9,2.4-3.3,6.7-0.9,9.6c2.4,2.9,6.7,3.3,9.6,0.9l49.1-40.7c-2.6,15.5-8.9,30-18.4,42.3c-4.8,6.3-10.5,12-16.9,17h-69
		c1.8-5.9,4.1-11.6,6.9-17C253.9,250.7,285.9,229.9,322.8,229.9 M186.2,229.9h13.4c18,0,35.1,4.9,50.2,14.2
		c-11.6,10.4-20.9,23.1-27.1,37.2c-1.9,4.3-3.5,8.7-4.9,13.1c-4.5-4-8.6-8.4-12.2-13.1C194.3,266.5,187.5,248.8,186.2,229.9
		 M37.1,241.6c-0.7,0.7-1.5,1.4-2.3,1.9c-5.3,3.4-12.4,2.7-17-1.9c-5.3-5.3-5.3-14,0-19.3l29-29c5.4-5.3,14-5.3,19.4,0
		c5.3,5.3,5.3,14,0,19.4C66.1,212.5,37.1,241.5,37.1,241.6 M50.7,247.3l6.5-6.5l14.2-14.2l67.4,54.7l19.6,15.9l1.3,1.1H84l-11.1-17
		L50.7,247.3z M247.5,421.4h-41.7c-3.8,0-6.8,3.1-6.8,6.8s3.1,6.8,6.8,6.8h34.9v20.5c0,3.8-3.1,6.8-6.8,6.8H116.2
		c-3.8,0-6.8-3.1-6.8-6.8v-20.5h34.9c3.8,0,6.8-3.1,6.8-6.8s-3.1-6.8-6.8-6.8h-41.7c-37.9,0-69.3-28.1-74.5-64.6
		c-0.5-3.5-0.8-7-0.8-10.7V312h295.6v34.2c0,3.6-0.3,7.2-0.8,10.7C316.9,393.3,285.4,421.4,247.5,421.4"/>
	<path class="st6" d="M181.9,428.3c0,3.8-3.1,6.8-6.8,6.8s-6.8-3.1-6.8-6.8s3.1-6.8,6.8-6.8S181.9,424.5,181.9,428.3"/>
</g>
</svg>
