<?xml version="1.0" encoding="utf-8"?>
<!-- Generator: Adobe Illustrator 22.0.1, SVG Export Plug-In . SVG Version: 6.00 Build 0)  -->
<svg version="1.1" id="Layer_1" xmlns="http://www.w3.org/2000/svg" xmlns:xlink="http://www.w3.org/1999/xlink" x="0px" y="0px"
	 viewBox="0 0 450.6 450.5" style="enable-background:new 0 0 450.6 450.5;" xml:space="preserve">
<style type="text/css">
	.st0{clip-path:url(#SVGID_2_);fill:#E2EBF9;}
	.st1{clip-path:url(#SVGID_2_);fill:#FFFFFF;}
	.st2{clip-path:url(#SVGID_2_);fill:#00C395;}
	.st3{clip-path:url(#SVGID_2_);fill:#FF8125;}
	.st4{clip-path:url(#SVGID_2_);fill:#434B53;}
</style>
<g>
	<defs>
		<rect id="SVGID_1_" width="450.6" height="450.5"/>
	</defs>
	<clipPath id="SVGID_2_">
		<use xlink:href="#SVGID_1_"  style="overflow:visible;"/>
	</clipPath>
	<path class="st0" d="M15.7,434.9l124-125.9l34.7,32.8l-97.2,94.3C77.2,436.1,51.3,454,15.7,434.9"/>
	<path class="st1" d="M18,436.1l128.6-121.3l-32-35.4l-96.3,95.2C18.2,374.5-0.3,400,18,436.1"/>
	<path class="st0" d="M283.4,319.8c-84.2,0-152.6-68.5-152.6-152.6S199.2,14.5,283.4,14.5S436,83,436,167.1S367.6,319.8,283.4,319.8
		"/>
	<path class="st1" d="M283.4,304c-75.5,0-136.9-61.4-136.9-136.9S207.9,30.3,283.4,30.3s136.9,61.4,136.9,136.9S358.9,304,283.4,304
		"/>
	<path class="st2" d="M283.4,286.9c-66,0-119.8-53.7-119.8-119.8c0-66.1,53.8-119.7,119.8-119.7s119.8,53.7,119.8,119.8
		S349.4,286.9,283.4,286.9"/>
	<polygon class="st1" points="14.5,51.7 159.9,55.2 127.4,117.1 122.5,175.9 94.4,161.6 88.6,207.2 48.6,165.8 7.7,163.7 	"/>
	<path class="st2" d="M283.4,327.1c-20.5,0-40.1-3.9-58.1-11v76.4c0,8,6.5,14.5,14.5,14.5s14.5-6.5,14.5-14.5v-21.8
		c0-8,6.5-14.5,14.5-14.5s14.6,6.4,14.6,14.5v58.1c0,8,6.5,14.5,14.5,14.5s14.5-6.5,14.5-14.5v-43.6c0-8,6.5-14.5,14.5-14.5
		s14.5,6.5,14.5,14.5v14.5c0,8,6.5,14.5,14.5,14.5s14.5-6.5,14.5-14.5v-98.6C345.5,317.5,315.6,327.1,283.4,327.1"/>
	<path class="st3" d="M50.8,377.9c-12,0-21.8,9.8-21.8,21.8s9.8,21.8,21.8,21.8s21.8-9.8,21.8-21.8S62.8,377.9,50.8,377.9 M50.8,407
		c-4,0-7.3-3.3-7.3-7.3s3.3-7.3,7.3-7.3s7.3,3.3,7.3,7.3S54.8,407,50.8,407"/>
	<path class="st1" d="M325.7,199c-5.5,0-10.9,1.6-15.4,4.7l-14.9,9.9c-7.5,5-16.3,7.7-25.3,7.7c-15.3,0-27.8,12.5-27.8,27.8
		s12.5,27.8,27.8,27.8c20.1,0,39.5-5.9,56.2-17l14.9-9.9c6.2-4.1,10.4-10.4,11.8-17.7c1.5-7.3,0-14.7-4.1-20.9
		C343.7,203.7,335.1,199,325.7,199 M342.1,230.1c-0.9,4.4-3.4,8.1-7.1,10.6l-14.9,9.9c-14.9,9.9-32.1,15.1-50,15.1
		c-9.2,0-16.7-7.5-16.7-16.7c0-9.2,7.5-16.7,16.7-16.7c11.3,0,22.1-3.3,31.5-9.5l14.9-9.9c2.7-1.8,5.9-2.8,9.2-2.8
		c5.6,0,10.8,2.8,13.9,7.4C342.1,221.3,343,225.7,342.1,230.1"/>
	<path class="st1" d="M270.1,243.5c3.1,0,5.6,2.5,5.6,5.6c0,3.1-2.5,5.6-5.6,5.6c-3.1,0-5.6-2.5-5.6-5.6
		C264.5,246,267,243.5,270.1,243.5"/>
	<path class="st1" d="M325.7,221.2c3.1,0,5.6,2.5,5.6,5.6s-2.5,5.6-5.6,5.6c-3.1,0-5.6-2.5-5.6-5.6S322.6,221.2,325.7,221.2"/>
	<path class="st1" d="M292.4,243.5c3.1,0,5.6,2.5,5.6,5.6c0,3.1-2.5,5.6-5.6,5.6c-3.1,0-5.6-2.5-5.6-5.6
		C286.8,246,289.3,243.5,292.4,243.5"/>
	<path class="st1" d="M303.5,226.8c3.1,0,5.6,2.5,5.6,5.6c0,3.1-2.5,5.6-5.6,5.6c-3.1,0-5.6-2.5-5.6-5.6
		C297.9,229.3,300.4,226.8,303.5,226.8"/>
	<path class="st1" d="M348,110.7l-14.9-9.9c-16.7-11.1-36.1-17-56.2-17c-15.3,0-27.8,12.5-27.8,27.8c0,15.3,12.5,27.8,27.8,27.8
		c9,0,17.8,2.7,25.3,7.7L317,157c4.6,3.1,9.9,4.7,15.4,4.7c9.3,0,18-4.6,23.1-12.4c4.1-6.2,5.6-13.6,4.1-20.9
		C358.4,121.1,354.2,114.8,348,110.7 M346.5,143.1c-3.1,4.6-8.3,7.4-13.9,7.4c-3.3,0-6.5-1-9.2-2.8l-14.9-9.9
		c-9.4-6.2-20.2-9.5-31.5-9.5c-9.2,0-16.7-7.5-16.7-16.7c0-9.2,7.5-16.7,16.7-16.7c17.9,0,35.1,5.2,50,15.1l14.9,9.9
		c3.7,2.5,6.2,6.2,7.1,10.6C349.8,134.9,348.9,139.4,346.5,143.1"/>
	<path class="st1" d="M277,106c3.1,0,5.6,2.5,5.6,5.6c0,3.1-2.5,5.6-5.6,5.6c-3.1,0-5.6-2.5-5.6-5.6C271.4,108.5,273.9,106,277,106"
		/>
	<path class="st1" d="M332.6,128.2c3.1,0,5.6,2.5,5.6,5.6c0,3.1-2.5,5.6-5.6,5.6c-3.1,0-5.6-2.5-5.6-5.6
		C327,130.7,329.5,128.2,332.6,128.2"/>
	<path class="st1" d="M299.2,106c3.1,0,5.6,2.5,5.6,5.6c0,3.1-2.5,5.6-5.6,5.6c-3.1,0-5.6-2.5-5.6-5.6
		C293.6,108.5,296.1,106,299.2,106"/>
	<path class="st1" d="M310.4,122.6c3.1,0,5.6,2.5,5.6,5.6c0,3.1-2.5,5.6-5.6,5.6c-3.1,0-5.6-2.5-5.6-5.6
		C304.8,125.1,307.3,122.6,310.4,122.6"/>
	<rect x="29" y="72.7" class="st4" width="87.2" height="14.5"/>
	<rect x="29" y="101.8" class="st4" width="87.2" height="14.5"/>
	<rect x="29" y="130.8" class="st4" width="14.5" height="14.5"/>
	<rect x="58.1" y="130.8" class="st4" width="14.5" height="14.5"/>
	<rect x="87.2" y="130.8" class="st4" width="14.5" height="14.5"/>
	<path class="st4" d="M283.4,0c-43.3,0-82.8,16.5-112.5,43.6H21.8C9.8,43.6,0,53.4,0,65.4v87.2c0,12,9.8,21.8,21.8,21.8H47
		l24.1,36.2c3.1,4.7,8.3,7.4,13.9,7.4c9.2,0,16.7-7.5,16.7-16.7v-26.9h14.7c1.3,29.6,10.3,57.2,25,80.8l-21.5,21.5L109,265.8
		l-93.3,93.3C5.6,369.2,0,382.6,0,396.9c0,14.3,5.6,27.8,15.7,37.9c10.1,10.1,23.5,15.7,37.9,15.7c14.3,0,27.7-5.6,37.8-15.7
		l93.3-93.3l-10.9-10.9l21.5-21.5c25.6,15.9,55.8,25.2,88.1,25.2c92.2,0,167.2-75,167.2-167.2C450.6,75,375.6,0,283.4,0 M87.2,159.9
		v41.4c0,1.9-3,2.8-4,1.2l-28.4-42.6h-33c-4,0-7.3-3.3-7.3-7.3V65.4c0-4,3.3-7.3,7.3-7.3h135.1c-23.8,27.6-38.7,63-40.4,101.8H87.2z
		 M81.1,424.6C73.7,432,64,436,53.6,436c-10.4,0-20.2-4.1-27.6-11.4c-7.4-7.4-11.4-17.2-11.4-27.6s4.1-20.2,11.4-27.5l83-83
		l55.1,55.1L81.1,424.6z M163.5,320.4l-33.3-33.3l19.6-19.6c9.5,12.6,20.7,23.8,33.3,33.3L163.5,320.4z M283.4,319.8
		c-84.2,0-152.6-68.5-152.6-152.6c0-84.2,68.5-152.6,152.6-152.6S436,83.1,436,167.2S367.6,319.8,283.4,319.8"/>
</g>
</svg>
