<?xml version="1.0" encoding="utf-8"?>
<!-- Generator: Adobe Illustrator 22.0.1, SVG Export Plug-In . SVG Version: 6.00 Build 0)  -->
<svg version="1.1" id="Layer_1" xmlns="http://www.w3.org/2000/svg" xmlns:xlink="http://www.w3.org/1999/xlink" x="0px" y="0px"
	 viewBox="0 0 360 512" style="enable-background:new 0 0 360 512;" xml:space="preserve">
<style type="text/css">
	.st0{clip-path:url(#SVGID_2_);fill:#434C54;}
</style>
<g>
	<defs>
		<rect id="SVGID_1_" width="360" height="512"/>
	</defs>
	<clipPath id="SVGID_2_">
		<use xlink:href="#SVGID_1_"  style="overflow:visible;"/>
	</clipPath>
	<path class="st0" d="M180,0C80.7,0,0,80.7,0,180c0,33.5,9.3,66.3,26.9,94.7l142.9,230.3c2.7,4.4,7.6,7.1,12.7,7.1h0.1
		c5.2,0,10.1-2.8,12.8-7.3l139.2-232.5c16.6-27.8,25.4-59.7,25.4-92.2C360,80.7,279.3,0,180,0 M308.9,256.8L182.3,468.2L52.4,258.8
		c-14.6-23.6-22.6-50.9-22.6-78.8C29.8,97.3,97.3,29.8,180,29.8S330.1,97.3,330.1,180C330.1,207.1,322.7,233.7,308.9,256.8"/>
	<path class="st0" d="M180,90c-49.6,0-90,40.4-90,90c0,49.3,39.7,90,90,90c50.9,0,90-41.2,90-90C270,130.4,229.6,90,180,90
		 M180,240.2c-33.3,0-60.2-27-60.2-60.2c0-33.1,27.1-60.2,60.2-60.2s60.1,27.1,60.1,60.2C240.1,212.7,213.8,240.2,180,240.2"/>
</g>
</svg>
