<?xml version="1.0" encoding="utf-8"?>
<!-- Generator: Adobe Illustrator 22.0.1, SVG Export Plug-In . SVG Version: 6.00 Build 0)  -->
<svg version="1.1" id="Layer_1" xmlns="http://www.w3.org/2000/svg" xmlns:xlink="http://www.w3.org/1999/xlink" x="0px" y="0px"
	 viewBox="0 0 512 512" style="enable-background:new 0 0 512 512;" xml:space="preserve">
<style type="text/css">
	.st0{clip-path:url(#SVGID_2_);fill:#434C54;}
</style>
<g>
	<defs>
		<rect id="SVGID_1_" width="512" height="512"/>
	</defs>
	<clipPath id="SVGID_2_">
		<use xlink:href="#SVGID_1_"  style="overflow:visible;"/>
	</clipPath>
	<path class="st0" d="M310,190c-5.5,0-10,4.5-10,10c0,5.5,4.5,10,10,10c5.5,0,10-4.5,10-10C320,194.5,315.5,190,310,190"/>
	<path class="st0" d="M500.3,443.7L366.8,310.2C388.5,277.5,400,239.6,400,200C400,89.7,310.3,0,200,0C89.7,0,0,89.7,0,200
		c0,110.3,89.7,200,200,200c39.6,0,77.5-11.5,110.2-33.2l36.9,36.9c0,0,0,0,0,0l96.6,96.6c7.6,7.6,17.6,11.7,28.3,11.7
		c10.7,0,20.7-4.2,28.3-11.7c7.6-7.6,11.7-17.6,11.7-28.3C512,461.3,507.8,451.3,500.3,443.7 M305.5,345.7
		C305.5,345.7,305.5,345.7,305.5,345.7C274.7,368.1,238.2,380,200,380c-99.3,0-180-80.7-180-180S100.7,20,200,20s180,80.7,180,180
		c0,38.2-11.9,74.7-34.3,105.5C334.5,321,321,334.5,305.5,345.7 M326.5,354.8c10.4-8.5,19.8-17.9,28.3-28.3l28.4,28.4
		c-8.6,10.2-18.1,19.6-28.3,28.3L326.5,354.8z M486.1,486.1c-3.8,3.8-8.8,5.9-14.1,5.9c-5.3,0-10.4-2.1-14.1-5.9l-88.8-88.8
		c10.1-8.7,19.6-18.1,28.3-28.3l88.8,88.8c3.8,3.8,5.9,8.8,5.9,14.1C492,477.3,489.9,482.4,486.1,486.1"/>
	<path class="st0" d="M200,40c-88.2,0-160,71.8-160,160s71.8,160,160,160s160-71.8,160-160S288.2,40,200,40 M200,340
		c-77.2,0-140-62.8-140-140S122.8,60,200,60s140,62.8,140,140S277.2,340,200,340"/>
	<path class="st0" d="M312.1,157.1c-8.6-22.4-23.6-41.6-43.4-55.4C248.5,87.5,224.7,80,200,80c-5.5,0-10,4.5-10,10s4.5,10,10,10
		c41.1,0,78.6,25.8,93.4,64.2c1.5,4,5.3,6.4,9.3,6.4c1.2,0,2.4-0.2,3.6-0.7C311.5,168,314,162.2,312.1,157.1"/>
</g>
</svg>
