<?xml version="1.0" encoding="utf-8"?>
<!-- Generator: Adobe Illustrator 22.0.1, SVG Export Plug-In . SVG Version: 6.00 Build 0)  -->
<svg version="1.1" id="Layer_1" xmlns="http://www.w3.org/2000/svg" xmlns:xlink="http://www.w3.org/1999/xlink" x="0px" y="0px"
	 viewBox="0 0 358.1 528.3" style="enable-background:new 0 0 358.1 528.3;" xml:space="preserve">
<style type="text/css">
	.st0{clip-path:url(#SVGID_2_);fill:#FFAA16;}
	.st1{clip-path:url(#SVGID_2_);fill:#FFC943;}
	.st2{clip-path:url(#SVGID_2_);fill:#E2EBF9;}
	.st3{clip-path:url(#SVGID_2_);fill:#FFFFFF;}
	.st4{clip-path:url(#SVGID_2_);fill:#00C395;}
	.st5{clip-path:url(#SVGID_2_);fill:#434C54;}
	.st6{clip-path:url(#SVGID_2_);fill:#FF7E45;}
	.st7{clip-path:url(#SVGID_2_);fill:#E1EAF8;}
	.st8{clip-path:url(#SVGID_2_);fill:#FFC843;}
	.st9{clip-path:url(#SVGID_2_);fill:#FF6417;}
	.st10{clip-path:url(#SVGID_2_);fill:#76FFD9;}
	.st11{clip-path:url(#SVGID_2_);fill:#5DE0BF;}
</style>
<g>
	<defs>
		<rect id="SVGID_1_" width="358.1" height="528.3"/>
	</defs>
	<clipPath id="SVGID_2_">
		<use xlink:href="#SVGID_1_"  style="overflow:visible;"/>
	</clipPath>
	<path class="st0" d="M70.9,240.4c8,8,8,21,0,29l-29,29c-8,8-21,8-29,0c-8-8-8-21,0-29l29-29C49.9,232.4,62.9,232.4,70.9,240.4"/>
	<polygon class="st0" points="179,357.2 80.3,357.2 41.9,298.5 70.9,269.5 	"/>
	<path class="st1" d="M82.2,264l-26.6,26.6c-5.7,5.7-13.8,7.3-20.9,5c-3-1-5.7-2.6-8.1-5c-5.4-5.4-7.1-13-5.3-19.9
		c0.9-3.4,2.7-6.5,5.3-9.2l29-29c1.9-1.9,4.1-3.4,6.4-4.3c5,1,9.8,3.5,13.7,7.4C83.4,243.3,85.6,254.4,82.2,264"/>
	<path class="st1" d="M180.1,349.3h-86l-36.9-56.4l-1.5-2.3L82.2,264c-0.5,1.5-1.2,2.9-1.9,4.3L180.1,349.3z"/>
	<path class="st2" d="M247.5,480.4v27.4c0,7.6-6.1,13.7-13.7,13.7H116.2c-7.6,0-13.7-6.1-13.7-13.7v-27.4H247.5z"/>
	<path class="st2" d="M329.6,357.2v41c0,45.3-36.8,82.1-82.1,82.1h-145c-45.3,0-82.1-36.8-82.1-82.1v-41H329.6z"/>
	<path class="st3" d="M329.6,338.9c-2.9,4-6.1,7.9-9.5,11.5h9.5v24c0,12.3-2.7,24-7.6,34.5c-13,28.1-41.5,47.6-74.5,47.6h-145
		c-33,0-61.5-19.5-74.5-47.6c-4.9-10.5-7.6-22.2-7.6-34.5v-24h47.3l-11.1-17h16.4l11.1,17h75.7l-1.3-1.1l-19.6-15.9h21.7l19.6,15.9
		l1.3,1.1h20.8c-5-5.2-9.4-10.9-13.2-17h140.6L329.6,338.9L329.6,338.9z"/>
	<path class="st4" d="M322.8,275.1c-23.1,0-44.4,7.6-61.6,20.5c-17.1-12.9-38.5-20.5-61.6-20.5h-20.5c0,33.6,16.1,63.4,41,82.1h82.1
		c24.9-18.7,41-48.5,41-82.1H322.8z"/>
	<path class="st5" d="M329.6,350.4h-9.5c3.4-3.6,6.6-7.4,9.5-11.5c13-18,20.5-40,20.5-63.8c0-3.8-3.1-6.8-6.8-6.8h-20.5
		c-22.2,0-43.4,6.5-61.6,18.9c-18.2-12.4-39.4-18.9-61.6-18.9h-20.5c-3.8,0-6.8,3.1-6.8,6.8c0,21.4,6.1,41.3,16.8,58.2
		c3.8,6.1,8.3,11.8,13.2,17h-20.8l-1.3-1.1l-19.6-15.9l-80.2-65.1c0.8-1.4,1.4-2.8,1.9-4.3v0c3.3-9.6,1.2-20.7-6.5-28.4
		c-3.9-3.9-8.7-6.4-13.7-7.4c-8.7-1.8-18.2,0.6-25,7.4l-29,29c-10.7,10.7-10.7,28,0,38.7c8.7,8.7,21.7,10.3,32.1,4.9l16.4,25.1
		l11.1,17H20.4c-3.8,0-6.8,3.1-6.8,6.8v41.1c0,46.7,36.3,85.2,82.1,88.7v20.8c0,11.3,9.2,20.5,20.5,20.5h117.7
		c11.3,0,20.5-9.2,20.5-20.5V487c45.9-3.5,82.1-41.9,82.1-88.7v-41.1C336.5,353.4,333.4,350.4,329.6,350.4 M322.8,282h1.8
		l-47.3,39.2c-2.9,2.4-3.3,6.7-0.9,9.6c2.4,2.9,6.7,3.3,9.6,0.9l49.1-40.7c-2.6,15.5-8.9,30-18.4,42.4c-4.8,6.3-10.5,12-16.9,17h-69
		c1.8-5.9,4.1-11.6,6.9-17C253.9,302.8,285.9,282,322.8,282 M186.2,282h13.4c18,0,35.1,4.9,50.2,14.2
		c-11.6,10.4-20.9,23.1-27.1,37.2c-1.9,4.3-3.5,8.6-4.9,13.1c-4.5-4-8.6-8.4-12.2-13.1C194.3,318.6,187.5,300.9,186.2,282
		 M37.1,293.7c-0.7,0.7-1.5,1.3-2.3,1.9c-5.3,3.3-12.4,2.7-17-1.9c-5.3-5.3-5.3-14,0-19.3l29-29c5.4-5.3,14-5.3,19.4,0
		c5.3,5.3,5.3,14,0,19.4C66.1,264.6,37.1,293.6,37.1,293.7 M50.7,299.4l6.5-6.5l14.2-14.2l67.4,54.7l19.6,15.9l1.3,1.1H84l-11.1-17
		L50.7,299.4z M247.5,473.5h-41.7c-3.8,0-6.8,3.1-6.8,6.8c0,3.8,3.1,6.8,6.8,6.8h34.9v20.5c0,3.8-3.1,6.8-6.8,6.8H116.2
		c-3.8,0-6.8-3.1-6.8-6.8v-20.5h34.9c3.8,0,6.8-3.1,6.8-6.8c0-3.8-3.1-6.8-6.8-6.8h-41.7c-37.9,0-69.3-28.1-74.5-64.6
		c-0.5-3.5-0.8-7-0.8-10.7v-34.2h295.6v34.2c0,3.6-0.3,7.2-0.8,10.7C316.9,445.4,285.4,473.5,247.5,473.5"/>
	<path class="st5" d="M181.9,480.4c0,3.8-3.1,6.8-6.8,6.8s-6.8-3.1-6.8-6.8s3.1-6.8,6.8-6.8S181.9,476.6,181.9,480.4"/>
	<path class="st3" d="M258.9,65.5l-99.7,99.7c-2.4,2.4-4.6,7.2-4.9,10.5l-1.6,17.1c0,0.3-0.2,0.6-0.4,0.8l-9.1,9.1
		c-1.3,1.3-1.3,3.4,0,4.7l7.4,7.4c0.7,0.6,1.5,1,2.4,1c0.9,0,1.7-0.3,2.4-1l9.1-9.1c0.2-0.2,0.5-0.4,0.8-0.4l17.1-1.6
		c3.3-0.3,8.2-2.6,10.5-4.9l99.7-99.7L258.9,65.5z"/>
	<path class="st6" d="M188.5,135.9l-29.3,29.3c-2.4,2.4-4.6,7.2-4.9,10.5l-1.6,17.1c0,0.3-0.2,0.6-0.4,0.8l-9.1,9.1
		c-1.3,1.3-1.3,3.4,0,4.7l7.4,7.4c0.6,0.7,1.5,1,2.4,1c0.9,0,1.7-0.3,2.4-1l9.1-9.1c0.2-0.2,0.5-0.4,0.8-0.4l17.1-1.6
		c3.3-0.3,8.2-2.6,10.5-4.9l63-63L188.5,135.9z"/>
	<path class="st7" d="M258.9,65.5l-99.7,99.7c-2.4,2.4-4.6,7.2-4.9,10.5l-1.6,17.1c0,0.3-0.2,0.6-0.4,0.8l-9.1,9.1
		c-1.3,1.3-1.3,3.4,0,4.7l7.4,7.4c0.1,0.1,0.2,0.1,0.3,0.2c-1.1-1.3-1-3.2,0.2-4.5l9.1-9.1c0.2-0.2,0.4-0.5,0.4-0.8l1.6-17.1
		c0.3-3.3,2.6-8.2,5-10.5l99.7-99.7L258.9,65.5z"/>
	<path class="st8" d="M188.5,135.9l-29.3,29.3L188.5,135.9z"/>
	<path class="st9" d="M151,210.6l9.1-9.1c0.2-0.2,0.4-0.5,0.4-0.8l1.6-17.1c0.3-3.3,2.6-8.2,4.9-10.5l37.1-37.2h-15.6l-29.3,29.3
		c-2.4,2.4-4.6,7.2-4.9,10.5l-1.6,17.1c0,0.3-0.2,0.6-0.4,0.8l-9.1,9.1c-1.3,1.3-1.3,3.4,0,4.7l7.4,7.4c0.1,0.1,0.2,0.1,0.3,0.2
		C149.7,213.8,149.8,211.9,151,210.6"/>
	<path class="st10" d="M346.7,11.3c-9.4-9.4-24.6-9.4-33.9,0l-26.4,26.4l34,34l26.4-26.4C356.1,35.9,356.1,20.7,346.7,11.3"/>
	<path class="st11" d="M346.7,11.3c-9.4-9.4-24.6-9.4-33.9,0l-26.4,26.4l14.2,14.2L327,25.5c6.8-6.8,16.8-8.7,25.3-5.5
		C351.1,16.8,349.3,13.9,346.7,11.3"/>
	<path class="st3" d="M308.8,91.4l13.6-13.6c1.1-1.1,1.1-2.9,0-4l-38.1-38.1c-1.1-1.1-2.9-1.1-4.1,0l-13.6,13.6L308.8,91.4z"/>
	<path class="st10" d="M248.5,35.1c1.1-1.1,2.9-1.1,4.1,0l70.4,70.5c1.1,1.1,1.1,2.9,0,4l-7.9,7.9c-1.1,1.1-2.9,1.1-4,0l-70.5-70.5
		c-1.1-1.1-1.1-2.9,0-4L248.5,35.1z"/>
	<path class="st11" d="M257.6,60.1l7.9-7.9c1.1-1.1,2.9-1.1,4,0l-17-17c-1.1-1.1-2.9-1.1-4,0l-7.9,7.9c-1.1,1.1-1.1,2.9,0,4l17,17
		C256.5,63,256.5,61.2,257.6,60.1"/>
	<path class="st6" d="M137.3,276.2c-11.3,0-20.5-9.2-20.5-20.5c0-3.4,0.8-6.8,2.4-9.7c0.1-0.1,0.2-0.3,0.3-0.4l15.5-21.1
		c0.5-0.7,1.4-1.2,2.3-1.2c0.9,0,1.8,0.4,2.3,1.2l15.5,21.1c0.1,0.1,0.2,0.3,0.3,0.4c1.6,3,2.4,6.3,2.4,9.7
		C157.8,267,148.6,276.2,137.3,276.2"/>
	<path class="st9" d="M127.2,266.1c0-3.4,0.8-6.8,2.4-9.7c0.1-0.2,0.2-0.3,0.3-0.4l15.5-21.1c0.3-0.4,0.7-0.7,1.1-0.9l-6.9-9.5
		c-0.5-0.7-1.4-1.2-2.3-1.2s-1.8,0.4-2.3,1.2l-15.5,21.1c-0.1,0.1-0.2,0.3-0.3,0.4c-1.6,3-2.4,6.3-2.4,9.7c0,8.3,5,15.5,12.2,18.7
		C127.9,271.9,127.2,269.1,127.2,266.1"/>
	<path class="st3" d="M147,251.4c-2.4,0-4.3,1.9-4.3,4.3c0,3-2.4,5.4-5.4,5.4c-2.4,0-4.3,1.9-4.3,4.3c0,2.4,1.9,4.3,4.3,4.3
		c7.7,0,14-6.3,14-14C151.3,253.4,149.4,251.4,147,251.4"/>
	<path class="st9" d="M198.4,149.6c-0.8,0.8-1.3,1.9-1.3,3c0,1.1,0.5,2.2,1.3,3c0.8,0.8,1.9,1.3,3,1.3s2.2-0.5,3-1.3
		c0.8-0.8,1.3-1.9,1.3-3c0-1.1-0.5-2.2-1.3-3c-0.8-0.8-1.9-1.3-3-1.3C200.3,148.4,199.2,148.8,198.4,149.6"/>
	<path class="st9" d="M182.2,162.5c-0.8-0.8-1.9-1.3-3-1.3c-1.1,0-2.2,0.5-3,1.3c-0.8,0.8-1.3,1.9-1.3,3s0.5,2.2,1.3,3
		c0.8,0.8,1.9,1.3,3,1.3c1.1,0,2.2-0.5,3-1.3c0.8-0.8,1.3-1.9,1.3-3C183.4,164.4,183,163.3,182.2,162.5"/>
	<path class="st9" d="M178,180.6c-1.1,0-2.2,0.5-3,1.3c-0.8,0.8-1.3,1.9-1.3,3s0.5,2.2,1.3,3c0.8,0.8,1.9,1.3,3,1.3
		c1.1,0,2.2-0.5,3-1.3c0.8-0.8,1.3-1.9,1.3-3c0-1.1-0.5-2.2-1.3-3C180.2,181,179.1,180.6,178,180.6"/>
	<path class="st5" d="M358.1,28.3c0-7.6-2.9-14.7-8.3-20c-5.3-5.3-12.4-8.3-20-8.3c-7.6,0-14.7,2.9-20,8.3l-23.5,23.5
		c-1.2-0.8-2.6-1.2-4-1.2c-1.9,0-3.7,0.7-5.1,2.1l-10.5,10.5l-11.1-11.1c-1.4-1.4-3.2-2.1-5.1-2.1s-3.7,0.7-5.1,2.1l-7.9,7.9
		c-1.3,1.4-2.1,3.1-2.1,5.1s0.7,3.7,2.1,5.1l15.4,15.4l-96.7,96.7c-3.1,3.1-5.8,8.9-6.2,13.2l-1.5,16.1l-8.3,8.3c-3,3-3,7.8,0,10.8
		l7.4,7.4c1.4,1.4,3.4,2.2,5.4,2.2c2,0,3.9-0.8,5.4-2.2l8.3-8.3l16.1-1.5c4.3-0.4,10.1-3.1,13.2-6.2l72.2-72.2
		c1.7-1.7,1.7-4.4,0-6.1c-1.7-1.7-4.4-1.7-6.1,0l-72.2,72.2c-1.6,1.6-5.6,3.5-7.9,3.7l-17.1,1.6c-1.3,0.1-2.5,0.7-3.5,1.6l-8.4,8.4
		l-6-6l8.4-8.4c0.9-0.9,1.5-2.2,1.6-3.5l1.6-17.1c0.2-2.3,2.1-6.2,3.7-7.9L259,71.6l27.6,27.6L274.6,111c-1.7,1.7-1.7,4.4,0,6.1
		c1.7,1.7,4.4,1.7,6.1,0l11.9-11.9l15.4,15.4c1.3,1.4,3.1,2.1,5.1,2.1c1.9,0,3.7-0.7,5.1-2.1l7.9-7.9c2.8-2.8,2.8-7.3,0-10.1
		l-11.1-11.1l10.5-10.5c2.5-2.5,2.8-6.3,0.9-9.1l23.5-23.5C355.1,43,358.1,35.9,358.1,28.3 M291.5,48.9l10,10l-1.9,1.9
		c-1.7,1.7-1.7,4.4,0,6.1c0.8,0.8,1.9,1.3,3,1.3c1.1,0,2.2-0.4,3-1.3l1.9-1.9l1.9,1.9l-9.5,9.5l-10-10l1-1.1c1.7-1.7,1.7-4.4,0-6.1
		c-1.7-1.7-4.4-1.7-6.1,0l-1.1,1l-1.9-1.9L291.5,48.9z M282.3,39.7l3.1,3.1l-9.5,9.5l-3.1-3.1L282.3,39.7z M318.9,107.6l-5.9,5.9
		l-68.4-68.4l5.9-5.9L318.9,107.6z M308.8,85.3l-2.8-2.8l9.5-9.5l2.8,2.8L308.8,85.3z M343.7,42.2l-1,1l-6.8-6.8
		c-1.7-1.7-4.4-1.7-6.1,0c-1.7,1.7-1.7,4.4,0,6.1l6.8,6.8l-4.5,4.5l-6.8-6.8c-1.7-1.7-4.4-1.7-6.1,0c-1.7,1.7-1.7,4.4,0,6.1l6.8,6.8
		l-5.7,5.7l-27.9-27.9l23.4-23.4c3.7-3.7,8.7-5.8,13.9-5.8c5.3,0,10.2,2.1,13.9,5.8c3.7,3.7,5.8,8.7,5.8,13.9
		C349.5,33.6,347.4,38.5,343.7,42.2"/>
	<path class="st5" d="M154.6,243.9c-2.2,0.9-3.2,3.4-2.3,5.6c0.8,2,1.2,4.1,1.2,6.2c0,8.9-7.3,16.2-16.2,16.2
		c-8.9,0-16.2-7.3-16.2-16.2c0-2.7,0.7-5.3,1.9-7.7c0,0,0,0,0,0l14.2-19.4l6.3,8.7c1.4,1.9,4.1,2.3,6,0.9c1.9-1.4,2.3-4.1,0.9-6
		l-7.5-10.2c-1.3-1.8-3.5-2.9-5.8-2.9c-2.3,0-4.4,1.1-5.8,2.9L116.1,243c-0.2,0.3-0.4,0.6-0.6,1c-1.9,3.6-2.9,7.6-2.9,11.7
		c0,13.7,11.1,24.8,24.8,24.8c13.7,0,24.8-11.1,24.8-24.8c0-3.3-0.6-6.5-1.9-9.5C159.3,244,156.8,243,154.6,243.9"/>
</g>
</svg>
