<?xml version="1.0" encoding="utf-8"?>
<!-- Generator: Adobe Illustrator 16.0.0, SVG Export Plug-In . SVG Version: 6.00 Build 0)  -->
<!DOCTYPE svg PUBLIC "-//W3C//DTD SVG 1.1//EN" "http://www.w3.org/Graphics/SVG/1.1/DTD/svg11.dtd">
<svg version="1.1" id="Layer_1" xmlns="http://www.w3.org/2000/svg" xmlns:xlink="http://www.w3.org/1999/xlink" x="0px" y="0px"
	 width="1480px" height="1600px" viewBox="0 0 1480 1600" enable-background="new 0 0 1480 1600" xml:space="preserve">
<path fill-rule="evenodd" clip-rule="evenodd" fill="#6A797D" d="M1439.944,799.995c0,122.988-0.035,245.974,0.129,368.96
	c0.006,4.873-1.512,7.15-5.732,9.41c-225.83,120.838-451.586,241.812-677.356,362.762c-5.561,2.979-11.183,8.057-16.8,8.092
	c-5.599,0.033-11.288-4.945-16.836-7.918c-226.514-121.32-453.01-242.674-679.572-363.904c-3.319-1.775-3.767-3.857-3.766-7.064
	c0.051-246.975,0.054-493.948-0.023-740.921c-0.001-3.387,0.927-5.252,4.024-6.909C225.585,325.355,407.112,228.12,588.64,130.884
	c48.975-26.234,97.956-52.454,146.855-78.827c3.38-1.823,5.823-1.692,9.114,0.074c150.833,80.915,301.711,161.745,452.59,242.572
	c79.324,42.495,158.648,84.987,238.027,127.38c3.475,1.855,4.824,3.877,4.82,7.956
	C1439.92,553.357,1439.944,676.677,1439.944,799.995z M1368.004,980.358c-417.656,0-834.706,0-1251.75,0
	c-0.112,0.844-0.233,1.328-0.233,1.814c-0.014,52.332,0.009,104.666-0.099,156.998c-0.006,2.914,1.394,3.943,3.571,5.131
	c47.678,26.031,95.328,52.115,142.972,78.209c158.516,86.816,317.03,173.639,475.521,260.5c2.62,1.436,4.583,1.949,7.611,0.283
	c61.566-33.871,123.235-67.555,184.87-101.303c144.391-79.062,288.768-158.15,433.201-237.137c3.145-1.721,4.441-3.459,4.43-7.18
	c-0.141-50.834-0.094-101.666-0.094-152.5C1368.004,983.69,1368.004,982.206,1368.004,980.358z M547.574,741.949
	c-2.969-2.796-5.399-5.291-8.04-7.539c-21.345-18.167-46.104-25.676-73.924-23.528c-28.824,2.227-52.292,14.479-69.129,38.132
	c-14.544,20.433-18.951,43.495-15.713,68.196c2.807,21.408,11.659,39.971,27.839,54.197c30,26.377,64.479,30.709,101.543,18.143
	c14.526-4.926,26.762-13.717,37.448-25.352c-7.268-6.932-14.313-13.65-21.359-20.371c-34.005,35.449-80.139,24.299-98.839,4.047
	c-21.742-23.549-22.179-65.686-0.134-88.938c11.564-12.199,25.841-18.453,42.438-19.353c22.036-1.193,40.535,6.854,55.95,22.878
	C533.008,755.581,540.031,749.009,547.574,741.949z M980.348,704.234c0,62.754,0,125.125,0,187.36c10.74,0,21.127,0,31.658,0
	c0-21.568-0.041-42.725,0.012-63.881c0.049-19.461,10.201-30.569,29.623-32.564c12.791-1.314,21.975,4.557,25.004,16.271
	c0.822,3.182,1.252,6.553,1.27,9.842c0.117,21.658,0.074,43.318,0.082,64.979c0,1.779,0,3.559,0,5.432c10.93,0,21.312,0,32.008,0
	c0-16.799,0.096-33.27-0.037-49.738c-0.08-9.975-0.039-19.986-0.877-29.913c-2.57-30.45-24.146-45.14-51.621-45.969
	c-12.494-0.377-24.209,2.903-35.527,9.859c0-24.32,0-47.884,0-71.678C1001.239,704.234,990.973,704.234,980.348,704.234z
	 M743.649,891.836c0-41.502,0-82.538,0-123.429c-10.742,0-21.126,0-31.664,0c0,22.729,0.044,45.046-0.014,67.363
	c-0.043,16.514-8.149,26.738-24.217,30.783c-21.735,5.473-35.687-5.312-35.738-27.713c-0.052-21.82-0.013-43.642-0.013-65.463
	c0-1.741,0-3.483,0-5.094c-9.748,0-18.68,0-27.41,0c-0.282,0.419-0.45,0.552-0.449,0.684c0.262,27.621-1.151,55.389,1.237,82.827
	c2.953,33.912,31.631,47.713,58.554,44.494c9.483-1.135,18.627-5.119,27.968-7.814c0.039,0.395,0.18,1.807,0.335,3.363
	C722.727,891.836,733.016,891.836,743.649,891.836z M966.967,785.768c-23.637-21.369-50.385-26.928-79.916-17.634
	c-46.08,14.501-60.271,73.529-25.762,107.394c20.082,19.705,44.709,24.156,71.553,17.912c13.184-3.068,24.488-9.666,34.127-19.641
	c-7.586-6.947-14.877-13.623-22.312-20.434c-11.973,11.387-25.41,15.633-41.184,12.625c-27.666-5.275-39.621-38.117-21.625-59.795
	c11.943-14.389,37.119-17.415,54.273-6.449c3.045,1.947,5.881,4.22,9.004,6.479C952.413,799.4,959.542,792.723,966.967,785.768z
	 M776.178,791.893c0,33.77,0,66.817,0,99.87c12.14,0,23.737,0,35.874,0c0-33.283,0-66.33,0-99.919c8.256,0,15.984,0,23.713,0
	c0-8.152,0-15.751,0-23.897c-7.949,0-15.674,0-23.934,0c0-14.931,0-29.318,0-43.707c-12.147,0-23.745,0-35.887,0
	c0,14.618,0,29.008,0,43.934c-6.931,0-13.327,0-19.701,0c0,8.152,0,15.752,0,23.721
	C762.746,791.893,769.018,791.893,776.178,791.893z M560.348,704.222c0,62.78,0,125.144,0,187.375c12.073,0,23.791,0,35.393,0
	c0-62.656,0-124.903,0-187.375C583.883,704.222,572.285,704.222,560.348,704.222z"/>
<path fill-rule="evenodd" clip-rule="evenodd" fill="#6A797D" d="M0,399c12.194-6.389,24.458-12.648,36.57-19.188
	c98.611-53.232,197.193-106.52,295.786-159.786C467.081,147.24,601.807,74.457,736.526,1.661C737.396,1.191,738.178,0.557,739,0
	c0.667,0,1.333,0,2,0c19.548,10.673,39.057,21.418,58.65,32.008c147.875,79.922,295.764,159.818,443.655,239.713
	c77.529,41.884,155.066,83.752,232.613,125.607c1.287,0.694,2.717,1.12,4.082,1.672c0,267.333,0,534.667,0,802
	c-12.195,6.389-24.459,12.65-36.574,19.189c-98.609,53.232-197.191,106.518-295.783,159.783
	c-134.725,72.787-269.451,145.57-404.168,218.365c-0.87,0.471-1.652,1.104-2.475,1.662c-0.667,0-1.333,0-2,0
	c-19.548-10.674-39.057-21.418-58.649-32.008c-147.875-79.922-295.764-159.816-443.653-239.713
	c-77.53-41.885-155.069-83.752-232.616-125.607c-1.287-0.695-2.718-1.121-4.082-1.672C0,933.667,0,666.333,0,399z M1468.057,799.944
	c0-129.156-0.021-258.312,0.105-387.469c0.004-3.911-1.244-5.842-4.572-7.622c-29.33-15.695-58.566-31.564-87.832-47.377
	C1165.323,243.785,954.881,130.103,744.494,16.323c-3.361-1.818-5.797-1.723-9.085,0.069c-35.932,19.577-71.946,39-107.947,58.449
	C423.758,184.887,220.057,294.937,16.305,404.892c-3.416,1.844-4.453,3.889-4.452,7.694c0.099,258.312,0.101,516.625-0.014,774.938
	c-0.001,3.908,1.24,5.842,4.569,7.621c28.309,15.133,56.527,30.438,84.768,45.695c211.457,114.25,422.917,228.494,634.327,342.834
	c3.358,1.816,5.792,1.725,9.084-0.064c48.076-26.137,96.22-52.148,144.365-78.16c191.414-103.408,382.824-206.822,574.303-310.109
	c3.803-2.051,4.904-4.256,4.9-8.428C1468.036,1057.924,1468.057,928.934,1468.057,799.944z"/>
<path fill-rule="evenodd" clip-rule="evenodd" fill="#FFFFFF" d="M1468.057,799.944c0,128.99-0.021,257.98,0.098,386.968
	c0.004,4.172-1.098,6.377-4.9,8.428c-191.479,103.287-382.889,206.701-574.303,310.109c-48.145,26.012-96.289,52.023-144.365,78.16
	c-3.292,1.789-5.726,1.881-9.084,0.064c-211.409-114.34-422.87-228.584-634.327-342.834c-28.241-15.258-56.459-30.562-84.768-45.695
	c-3.329-1.779-4.571-3.713-4.569-7.621c0.115-258.312,0.113-516.625,0.014-774.938c-0.001-3.806,1.036-5.851,4.452-7.694
	c203.752-109.955,407.453-220.005,611.157-330.05c36.001-19.449,72.016-38.872,107.947-58.449c3.288-1.792,5.724-1.887,9.085-0.069
	c210.387,113.78,420.829,227.461,631.264,341.153c29.266,15.812,58.502,31.682,87.832,47.377c3.328,1.78,4.576,3.711,4.572,7.622
	C1468.036,541.632,1468.057,670.788,1468.057,799.944z M1439.944,799.995c0-123.318-0.023-246.638,0.104-369.956
	c0.004-4.079-1.346-6.101-4.82-7.956c-79.379-42.393-158.703-84.885-238.027-127.38c-150.879-80.827-301.758-161.657-452.59-242.572
	c-3.291-1.766-5.734-1.896-9.114-0.074c-48.899,26.373-97.881,52.593-146.855,78.827C407.112,228.12,225.585,325.355,44.011,422.502
	c-3.097,1.657-4.025,3.522-4.024,6.909c0.077,246.974,0.075,493.947,0.023,740.921c-0.001,3.207,0.447,5.289,3.766,7.064
	c226.562,121.23,453.059,242.584,679.572,363.904c5.548,2.973,11.237,7.951,16.836,7.918c5.617-0.035,11.239-5.113,16.8-8.092
	c225.77-120.949,451.526-241.924,677.356-362.762c4.221-2.26,5.738-4.537,5.732-9.41
	C1439.909,1045.969,1439.944,922.983,1439.944,799.995z"/>
<rect x="39.973" y="579.805" fill-rule="evenodd" clip-rule="evenodd" fill="#17313B" width="1399.975" height="444.044"/>
<g>
	<path fill-rule="evenodd" clip-rule="evenodd" fill="#FFFFFF" d="M547.574,741.949c-7.543,7.06-14.566,13.632-21.919,20.512
		c-15.415-16.024-33.914-24.071-55.95-22.878c-16.598,0.899-30.874,7.153-42.438,19.353c-22.045,23.252-21.608,65.389,0.134,88.938
		c18.7,20.252,64.834,31.402,98.839-4.047c7.046,6.721,14.092,13.439,21.359,20.371c-10.687,11.635-22.922,20.426-37.448,25.352
		c-37.063,12.566-71.543,8.234-101.543-18.143c-16.18-14.227-25.032-32.789-27.839-54.197c-3.238-24.701,1.168-47.763,15.713-68.196
		c16.836-23.652,40.305-35.905,69.129-38.132c27.819-2.147,52.579,5.361,73.924,23.528
		C542.175,736.658,544.605,739.153,547.574,741.949z"/>
	<path fill-rule="evenodd" clip-rule="evenodd" fill="#FFFFFF" d="M980.348,704.234c10.625,0,20.891,0,31.594,0
		c0,23.794,0,47.357,0,71.678c11.318-6.956,23.033-10.236,35.527-9.859c27.475,0.829,49.051,15.519,51.621,45.969
		c0.838,9.926,0.797,19.938,0.877,29.913c0.133,16.469,0.037,32.939,0.037,49.738c-10.695,0-21.078,0-32.008,0
		c0-1.873,0-3.652,0-5.432c-0.008-21.66,0.035-43.32-0.082-64.979c-0.018-3.289-0.447-6.661-1.27-9.842
		c-3.029-11.714-12.213-17.585-25.004-16.271c-19.422,1.995-29.574,13.103-29.623,32.564c-0.053,21.156-0.012,42.312-0.012,63.881
		c-10.531,0-20.918,0-31.658,0C980.348,829.36,980.348,766.988,980.348,704.234z"/>
	<path fill-rule="evenodd" clip-rule="evenodd" fill="#FFFFFF" d="M743.649,891.836c-10.634,0-20.923,0-31.411,0
		c-0.155-1.557-0.296-2.969-0.335-3.363c-9.341,2.695-18.484,6.68-27.968,7.814c-26.923,3.219-55.601-10.582-58.554-44.494
		c-2.389-27.438-0.976-55.206-1.237-82.827c-0.001-0.132,0.167-0.265,0.449-0.684c8.73,0,17.662,0,27.41,0c0,1.61,0,3.353,0,5.094
		c0,21.821-0.039,43.643,0.013,65.463c0.052,22.4,14.003,33.186,35.738,27.713c16.067-4.045,24.174-14.27,24.217-30.783
		c0.058-22.317,0.014-44.634,0.014-67.363c10.538,0,20.922,0,31.664,0C743.649,809.299,743.649,850.334,743.649,891.836z"/>
	<path fill-rule="evenodd" clip-rule="evenodd" fill="#FFFFFF" d="M966.967,785.768c-7.426,6.955-14.555,13.633-21.842,20.458
		c-3.123-2.26-5.959-4.532-9.004-6.479c-17.154-10.966-42.33-7.939-54.273,6.449c-17.996,21.678-6.041,54.52,21.625,59.795
		c15.773,3.008,29.211-1.238,41.184-12.625c7.436,6.811,14.727,13.486,22.312,20.434c-9.639,9.975-20.943,16.572-34.127,19.641
		c-26.844,6.244-51.471,1.793-71.553-17.912c-34.51-33.865-20.318-92.893,25.762-107.394
		C916.583,758.84,943.331,764.398,966.967,785.768z"/>
	<path fill-rule="evenodd" clip-rule="evenodd" fill="#FFFFFF" d="M776.178,791.893c-7.16,0-13.432,0-19.936,0
		c0-7.969,0-15.568,0-23.721c6.374,0,12.771,0,19.701,0c0-14.926,0-29.315,0-43.934c12.143,0,23.74,0,35.887,0
		c0,14.389,0,28.776,0,43.707c8.26,0,15.984,0,23.934,0c0,8.146,0,15.745,0,23.897c-7.729,0-15.457,0-23.713,0
		c0,33.589,0,66.636,0,99.919c-12.136,0-23.734,0-35.874,0C776.178,858.709,776.178,825.663,776.178,791.893z"/>
	<path fill-rule="evenodd" clip-rule="evenodd" fill="#FFFFFF" d="M560.348,704.222c11.938,0,23.535,0,35.393,0
		c0,62.472,0,124.718,0,187.375c-11.602,0-23.319,0-35.393,0C560.348,829.366,560.348,767.002,560.348,704.222z"/>
</g>
<g>
	<path fill-rule="evenodd" clip-rule="evenodd" fill="#FFFFFF" d="M1367.831,619.762c0.064-1.16,0.164-2.127,0.164-3.093
		c0.008-51.833-0.023-103.666,0.09-155.498c0.006-3.065-1.32-4.253-3.711-5.559c-75.656-41.343-151.277-82.748-226.896-124.159
		c-130.545-71.492-261.09-142.987-391.605-214.535c-2.485-1.363-4.341-1.933-7.173-0.376
		c-61.725,33.928-123.527,67.713-185.306,101.544c-144.387,79.069-288.762,158.16-433.2,237.138
		c-3.236,1.77-4.295,3.629-4.286,7.262c0.13,50.666,0.088,101.333,0.088,151.999c0,1.756,0,3.512,0,5.277
		C533.646,619.762,950.577,619.762,1367.831,619.762z"/>
	<path fill="#17313B" d="M791.747,453.383c0,15.711,0,31.423,0,47.621c-3.168,0-5.856,0-8.9,0c0-21.061,0-42.116,0-63.86
		c3.241,0,6.411-0.396,9.403,0.162c1.562,0.291,3.266,1.998,4.136,3.509c7.955,13.816,15.738,27.732,23.583,41.612
		c0.711,1.256,1.506,2.463,2.889,4.712c0-17.131,0-33.138,0-49.573c3.125,0,5.822,0,8.836,0c0,21.079,0,42.163,0,63.913
		c-3.09,0-6.273,0.396-9.281-0.162c-1.578-0.292-3.305-1.991-4.18-3.508c-7.482-12.939-14.78-25.984-22.14-38.994
		c-1.059-1.872-2.155-3.724-3.233-5.585C792.488,453.281,792.117,453.332,791.747,453.383z"/>
	<path fill="#17313B" d="M692.573,474.876c-4.54,0-8.814,0-13.306,0c0-2.629,0-4.89,0-7.501c7.312,0,14.554,0,22.571,0
		c0,9.865,0.063,19.779-0.106,29.688c-0.016,0.908-1.365,2.297-2.361,2.606c-8.993,2.797-18.225,3.612-27.468,1.782
		c-9.427-1.866-15.587-7.851-16.761-17.342c-1.049-8.48-1.753-17.308-0.579-25.697c2.68-19.151,14.727-22.629,30.293-21.787
		c5.85,0.316,11.451,1.845,16.101,6.682c-1.662,2.148-3.326,4.301-5.118,6.616c-5.571-4.519-11.703-5.767-18.361-5.118
		c-7.687,0.749-11.95,3.317-12.685,10.841c-0.94,9.623-0.484,19.46,0.252,29.139c0.443,5.826,5.046,8.607,10.731,9.29
		C692.48,496.081,694.698,493.654,692.573,474.876z"/>
	<path fill="#17313B" d="M428.048,437.373c2.579,0,5.194,0,8.45,0c0,2.194-0.016,4.151,0.002,6.108
		c0.126,13.653,0.094,27.311,0.464,40.957c0.169,6.213,3.497,9.104,9.804,9.659c1.326,0.116,2.651,0.321,3.979,0.332
		c10.861,0.088,14.349-3.354,14.378-14.257c0.033-12.328,0.008-24.655,0.008-36.983c0-1.791,0-3.582,0-5.712
		c3.258,0,5.987,0,9.366,0c0,3.251,0.032,6.375-0.006,9.499c-0.155,12.648-0.119,25.304-0.584,37.94
		c-0.274,7.472-4.294,12.827-11.375,15.484c-7.735,2.902-15.667,2.89-23.415,0.233c-6.104-2.093-10.672-6.688-10.885-13.062
		C427.682,471.007,428.048,454.409,428.048,437.373z"/>
	<path fill="#17313B" d="M734.825,445.509c0,6.51,0,12.396,0,18.87c7.804,0,15.374,0,23.299,0c0,3.123,0,5.663,0,8.662
		c-7.89,0-15.48,0-23.344,0c0,6.719,0,12.986,0,19.937c8.54,0,17.082,0,25.896,0c0,3.09,0,5.506,0,8.225c-11.69,0-23.274,0-35.202,0
		c0-21.269,0-42.298,0-63.699c11.685,0,23.219,0,35.074,0c0,2.595,0,4.987,0,8.006C751.948,445.509,743.543,445.509,734.825,445.509
		z"/>
	<path fill="#17313B" d="M544.851,500.952c-10.21,1.389-10.211,1.39-14.665-6.15c-3.79-6.414-7.576-12.83-11.598-19.64
		c-4.149,7.071-8.019,13.65-11.874,20.237c-4.098,7-5.001,7.365-14.062,5.262c4.945-7.999,9.345-16.194,14.802-23.611
		c4.573-6.216,5.023-11.129,0.153-17.477c-5.109-6.658-8.99-14.258-13.465-21.539c8.493-2.293,10.02-1.674,14.093,5.356
		c3.328,5.743,6.688,11.467,10.508,18.012c3.461-5.935,6.674-11.389,9.834-16.874c4.525-7.854,4.51-7.864,14.442-7.116
		c-0.581,1.284-0.979,2.478-1.617,3.524c-4.929,8.086-9.817,16.197-14.918,24.174c-1.47,2.298-1.416,3.924,0.056,6.232
		C532.692,480.994,538.604,490.8,544.851,500.952z"/>
	<path fill="#17313B" d="M953.264,437.398c11.512,0,22.766,0,34.375,0c0,2.476,0,4.883,0,7.913c-8.277,0-16.668,0-25.359,0
		c0,6.529,0,12.45,0,19.048c7.736,0,15.455,0,23.424,0c0,3.096,0,5.522,0,8.523c-7.775,0-15.51,0-23.469,0
		c0,6.968,0,13.363,0,20.204c8.68,0,17.104,0,25.889,0c0,2.852,0,5.261,0,8.048c-11.625,0-23.178,0-34.859,0
		C953.264,479.83,953.264,458.747,953.264,437.398z"/>
	<path fill="#17313B" d="M1005.268,496.139c1.814-2.576,3.213-4.562,4.613-6.548c0.029,0.475,0.057,0.949,0.086,1.423
		c6.039,1.036,12.049,2.337,18.127,3.015c4.191,0.468,7.693-1.565,8.729-5.812c1.061-4.361,0.699-8.883-3.914-11.303
		c-4.969-2.605-10.221-4.669-15.277-7.115c-5.42-2.621-9.658-6.171-10.863-12.652c-1.217-6.546,0.521-11.789,5.574-15.964
		c8.365-6.909,23.797-6.569,32.479,0.837c-1.33,2.006-2.68,4.039-3.303,4.981c-6.539-0.864-12.15-1.908-17.805-2.246
		c-3.795-0.227-6.76,1.852-7.629,5.823c-0.902,4.121,0.197,7.771,4.08,9.809c4.094,2.148,8.441,3.809,12.652,5.736
		c5.355,2.453,10.439,5.271,12.768,11.166c3.924,9.944-0.785,20.444-11.02,23.571
		C1024.426,503.956,1014.682,503.007,1005.268,496.139z"/>
	<path fill="#17313B" d="M893.905,486.955c1.758,1.784,3.377,3.426,5.992,6.077c-4.094,2.762-7.502,5.99-11.553,7.631
		c-16.484,6.673-30.242-1.322-33.381-18.999c-1.766-9.938-1.684-19.882,1.232-29.562c2.412-8.004,7.678-13.394,16.209-15.132
		c9.623-1.96,18.338-0.666,26.09,6.666c-1.898,2.142-3.504,3.954-4.43,4.997c-5.254-1.521-9.691-3.575-14.273-3.97
		c-9.092-0.783-13.637,2.481-14.756,11.587c-1.041,8.462-1.393,17.292-0.158,25.683c1.797,12.22,12.469,16.27,23.064,9.688
		C889.897,490.407,891.598,488.779,893.905,486.955z"/>
	<path fill="#17313B" d="M669.991,282.971c0,19.684,0,38.64,0,58.06c-3.261,0-6.275,0-9.74,0c0-19.222,0-38.295,0-57.875
		c-6.827,0-13.235,0-19.938,0c0-3.054,0-5.603,0-8.403c16.596,0,33.015,0,49.809,0c0,2.748,0,5.291,0,8.219
		C683.467,282.971,677.031,282.971,669.991,282.971z"/>
	<path fill="#17313B" d="M919.35,437.425c3.166,0,5.922,0,9.102,0c0,21.095,0,42.119,0,63.608c-2.855,0-5.867,0-9.102,0
		C919.35,479.886,919.35,458.985,919.35,437.425z"/>
	<path fill="#17313B" d="M760.985,298.026c-0.802-14.141-8.097-22.805-22-24.571c-14.589-1.854-28.294,3.404-31.117,20.536
		c-1.355,8.227-1.286,16.836-0.734,25.198c0.922,13.984,7.742,21.436,21.346,23.341c14.95,2.094,28.46-3.885,31.567-20.736
		c0.868-4.709,1.239-9.511,1.68-13.002C761.416,304.32,761.164,301.175,760.985,298.026z M750.109,320.626
		c-1.741,9.847-6.864,13.926-16.839,13.831c-9.864-0.095-14.957-3.785-15.882-13.991c-0.815-8.989-0.376-18.245,0.794-27.216
		c1.074-8.237,7.241-11.905,16.469-11.63c9.248,0.276,13.915,3.862,15.369,12.307c0.783,4.55,0.997,9.198,1.452,13.656
		C751.021,312.076,750.856,316.402,750.109,320.626z"/>
	<path fill="#17313B" d="M815.141,275.732c-10.033-1.594-20.389-1.147-30.733-1.605c0,22.983,0,44.863,0,67.031
		c3.178,0,6.076,0,9.392,0c0-8.082,0-15.835,0-24.294c5.064,0,9.367,0.111,13.662-0.021c12.419-0.383,18.777-5.377,20.181-16.904
		C829.143,287.622,825.959,277.451,815.141,275.732z M816.76,302.83c-0.74,3.604-3.988,5.128-7.641,5.178
		c-4.813,0.065-9.626,0.016-14.845,0.016c0-8.251,0-16.293,0-25.013c5.067,0,9.879-0.215,14.662,0.062
		c4.604,0.267,8.094,2.503,8.361,7.525C817.516,294.667,817.571,298.876,816.76,302.83z"/>
	<path fill="#17313B" d="M638.37,498.484c-6.418-18.987-13.021-37.916-19.131-57.003c-1.293-4.039-3.343-4.528-6.819-4.419
		c-3.387,0.107-6.099-0.204-7.517,4.274c-4.6,14.525-9.818,28.854-14.747,43.277c-1.849,5.407-3.556,10.862-5.531,16.923
		c4.476-0.834,9.226,2.47,11.134-3.752c1.2-3.915,1.743-9.334,4.5-11.121c3.09-2.005,8.342-0.76,12.653-0.779
		c10.941-0.05,11.125-0.072,14.281,10.263c1.283,4.199,3.288,6.218,7.743,5.373c1.128-0.214,2.312-0.134,4.193-0.224
		C638.783,500,638.622,499.228,638.37,498.484z M602.103,477.689c3.184-9.668,6.244-18.961,9.304-28.254
		c0.34-0.021,0.679-0.041,1.018-0.062c3.046,9.296,6.092,18.591,9.278,28.316C615.023,477.689,608.823,477.689,602.103,477.689z"/>
</g>
<rect x="212.192" y="579.979" fill="#17313B" width="1060.584" height="4.173"/>
<g>
	<path fill-rule="evenodd" clip-rule="evenodd" fill="#FFFFFF" d="M1368.004,980.358c0,1.848,0,3.332,0,4.816
		c0,50.834-0.047,101.666,0.094,152.5c0.012,3.721-1.285,5.459-4.43,7.18c-144.434,78.986-288.811,158.074-433.201,237.137
		c-61.635,33.748-123.303,67.432-184.87,101.303c-3.028,1.666-4.991,1.152-7.611-0.283
		c-158.491-86.861-317.006-173.684-475.521-260.5c-47.644-26.094-95.294-52.178-142.972-78.209
		c-2.177-1.188-3.577-2.217-3.571-5.131c0.108-52.332,0.085-104.666,0.099-156.998c0-0.486,0.121-0.971,0.233-1.814
		C533.299,980.358,950.348,980.358,1368.004,980.358z M1271.75,1023.885c0.797-6.121-3.697-3.779-5.797-3.779
		c-349.318-0.107-698.635-0.102-1047.953-0.102c-1,0-2.002,0.049-3-0.006c-3.285-0.18-3.516,1.354-2.401,3.887
		C565.622,1023.885,918.417,1023.885,1271.75,1023.885z M680.946,1184.542c0.434,0.064,0.868,0.127,1.302,0.191
		c0,4.16-0.197,8.332,0.075,12.473c0.161,2.445,0.932,4.883,1.665,7.248c2.953,9.535,8.887,14.096,18.561,14.412
		c9.42,0.307,16.781-4.021,19.777-12.889c4.852-14.359,4.999-29.074,0.61-43.57c-2.71-8.949-9.143-13.146-18.312-13.273
		c-9.584-0.133-16.88,4.201-19.522,13.102C682.961,1169.446,682.277,1177.09,680.946,1184.542z M808.942,1212.237
		c4.939,5.111,10.949,6.301,16.867,6.43c10.838,0.236,20.379-3.215,23.381-16.311c2.711-11.822,2.488-23.758,0.717-35.641
		c-1.668-11.174-8.852-17.158-20.254-17.168c-8.021-0.006-15.537,1.943-19.223,9.879c-3.896,8.391-4.118,17.316,1.209,25.16
		c2.008,2.957,6.135,5.016,9.721,6.244c7.066,2.418,13.641,0.402,19.539-4.693c0,4.299,0.41,8.115-0.08,11.811
		c-1.293,9.715-4.812,12.752-14.605,12.018c-4.289-0.32-8.465-2.135-13.143-3.393
		C811.999,1208.042,810.549,1210.032,808.942,1212.237z M630.163,1208.94c-0.781-5.043,1.868-8.291,5.024-10.994
		c3.9-3.342,8.227-6.178,12.256-9.375c3.379-2.68,7.012-5.203,9.796-8.43c5.201-6.029,5.965-13.146,3.028-20.496
		c-2.667-6.672-8.267-9.027-14.981-9.668c-9.368-0.895-18.028,0.281-25.324,7.727c2.053,2.012,3.812,3.736,5.312,5.207
		c3.345-1.564,6.203-3.295,9.3-4.273c7.344-2.318,14.242-0.432,16.486,4.133c2.591,5.27,0.491,11.617-5.553,16.531
		c-1.801,1.465-3.735,2.766-5.616,4.129c-3.494,2.535-7.028,5.016-10.485,7.6c-8.896,6.652-10.742,15.707-8.933,26.148
		c13.749,0,27.325,0,40.999,0c0-2.855,0-5.387,0-8.238C650.802,1208.94,640.521,1208.94,630.163,1208.94z M774.479,1150.196
		c-4.287,0.422-8.383-0.23-11.299,1.326c-6.389,3.412-12.18,7.943-18.572,12.262c1.837,2.457,3.462,4.629,5.194,6.945
		c5.168-3.457,9.896-6.621,14.846-9.932c0,16.492,0,32.234,0,48.375c-5.624,0-10.898,0-16.386,0c0,2.844,0,5.279,0,7.982
		c13.222,0,26.293,0,39.442,0c0-2.775,0-5.203,0-8.264c-4.465,0-8.688,0-13.226,0
		C774.479,1189.293,774.479,1170.325,774.479,1150.196z"/>
	<g>
		<rect x="212.192" y="1019.979" fill="#17313B" width="1060.584" height="4.174"/>
		<g>
			<path fill-rule="evenodd" clip-rule="evenodd" fill="#17313B" d="M685.103,1162.235c2.546-8.929,9.938-13.234,19.522-13.102
				c9.169,0.127,15.602,4.324,18.312,13.273c4.389,14.496,4.241,29.211-0.61,43.57c-2.996,8.867-10.357,13.195-19.777,12.889
				c-9.674-0.316-15.284-3.501-18.237-13.036c-0.733-2.365-1.397-6.124-1.558-8.569
				C682.481,1193.12,681.391,1175.253,685.103,1162.235z M693.045,1200.981c1.093,6.105,4.361,8.945,9.429,9.145
				c6.023,0.238,9.782-2.145,11.312-8.266c2.979-11.93,3.25-23.998,0.237-35.994c-1.193-4.752-3.94-7.951-9.368-8.014
				c-5.749-0.066-8.852,2.015-10.656,7.648C689.765,1175.058,692.084,1195.612,693.045,1200.981z"/>
			<path fill-rule="evenodd" clip-rule="evenodd" fill="#17313B" d="M808.767,1212.706c1.607-2.205,3.35-4.851,4.422-6.319
				c5.522,2.55,8.296,3.705,12.585,4.025c9.793,0.734,13.751-2.749,15.044-12.464c0.49-3.695,0.432-7.646,0.432-11.945
				c-5.898,5.096-13.063,6.82-20.596,5.034c-3.586-1.229-7.008-3.493-9.016-6.45c-5.327-7.844-5.19-16.81-1.209-25.16
				c3.423-7.18,11.201-9.885,19.223-9.879c11.402,0.01,18.586,5.994,20.254,17.168c1.771,11.883,1.994,23.818-0.717,35.641
				c-3.002,13.096-12.543,16.547-23.381,16.311C819.891,1218.538,813.622,1216.868,808.767,1212.706z M817.443,1164.346
				c-4.594,13.371,5.077,18.473,5.667,18.748c4.205,1.961,9.929,0.816,13.373-2.301c3.402-3.079,5.59-8.427,4.051-15.313
				C838.913,1155.11,821.413,1152.76,817.443,1164.346z"/>
			<path fill-rule="evenodd" clip-rule="evenodd" fill="#17313B" d="M630.163,1208.94c10.357,0,20.639,0,31.31,0
				c0,2.852,0,5.383,0,8.238c-13.674,0-27.25,0-40.999,0c-1.81-10.441,0.036-19.496,8.933-26.148
				c3.457-2.584,6.991-5.064,10.485-7.6c1.881-1.363,3.815-2.664,5.616-4.129c6.044-4.914,8.144-11.262,5.553-16.531
				c-2.244-4.564-9.143-6.451-16.486-4.133c-3.097,0.979-5.955,2.709-9.3,4.273c-1.501-1.471-3.26-3.195-5.312-5.207
				c7.296-7.445,15.956-8.621,25.324-7.727c6.715,0.641,12.314,2.996,14.981,9.668c2.937,7.35,2.173,14.467-3.028,20.496
				c-2.784,3.227-6.417,5.75-9.796,8.43c-4.029,3.197-8.355,6.033-12.256,9.375C632.031,1200.649,629.382,1203.897,630.163,1208.94z
				"/>
			<path fill-rule="evenodd" clip-rule="evenodd" fill="#17313B" d="M774.479,1150.714c0,20.129,0,38.579,0,58.177
				c4.538,0,8.761,0,13.226,0c0,3.061,0,5.488,0,8.264c-13.149,0-26.221,0-39.442,0c0-2.703,0-5.139,0-7.982
				c5.487,0,10.762,0,16.386,0c0-16.141,0-31.883,0-48.375c-4.95,3.311-9.678,6.475-14.846,9.932
				c-1.732-2.316-3.357-4.488-5.194-6.945c6.393-4.318,12.184-8.85,18.572-12.262
				C766.096,1149.965,769.226,1150.714,774.479,1150.714z"/>
		</g>
	</g>
</g>
<ellipse fill-rule="evenodd" clip-rule="evenodd" fill="#FF3D2E" cx="913.261" cy="829.792" rx="24.341" ry="22.848"/>
</svg>
