<?xml version="1.0" encoding="utf-8"?>
<!-- Generator: Adobe Illustrator 15.1.0, SVG Export Plug-In . SVG Version: 6.00 Build 0)  -->
<!DOCTYPE svg PUBLIC "-//W3C//DTD SVG 1.1//EN" "http://www.w3.org/Graphics/SVG/1.1/DTD/svg11.dtd">
<svg fill="#fff" version="1.1" id="Capa_1" xmlns="http://www.w3.org/2000/svg" xmlns:xlink="http://www.w3.org/1999/xlink" x="0px" y="0px"
	 width="512px" height="512px" viewBox="0 0 512 512" enable-background="new 0 0 512 512" xml:space="preserve">
<g>
	<g>
		<path fill-rule="evenodd" clip-rule="evenodd" d="M325.072,256L497.694,83.37c19.074-19.075,19.074-50.024,0-69.099
			c-19.075-19.028-49.975-19.028-69.049,0L256,186.924L83.354,14.271c-19.076-19.028-49.976-19.028-69.049,0
			c-19.074,19.075-19.074,50.024,0,69.099L186.927,256L14.305,428.63c-19.074,19.074-19.074,50.024,0,69.1
			c19.074,19.027,49.974,19.027,69.049,0L256,325.076l172.646,172.653c19.074,19.027,49.974,19.027,69.049,0
			c19.074-19.075,19.074-50.025,0-69.1L325.072,256z"/>
	</g>
</g>
</svg>
