<?xml version="1.0" encoding="utf-8"?>
<!-- Generator: Adobe Illustrator 22.0.1, SVG Export Plug-In . SVG Version: 6.00 Build 0)  -->
<svg version="1.1" id="Layer_1" xmlns="http://www.w3.org/2000/svg" xmlns:xlink="http://www.w3.org/1999/xlink" x="0px" y="0px"
	 viewBox="0 0 150.5 69.9" style="enable-background:new 0 0 150.5 69.9;" xml:space="preserve">
<style type="text/css">
	.st0{clip-path:url(#SVGID_2_);}
	.st1{opacity:0.12;clip-path:url(#SVGID_4_);}
	.st2{clip-path:url(#SVGID_6_);fill:#00B798;}
</style>
<g>
	<defs>
		<rect id="SVGID_1_" width="150.5" height="69.9"/>
	</defs>
	<clipPath id="SVGID_2_">
		<use xlink:href="#SVGID_1_"  style="overflow:visible;"/>
	</clipPath>
	<g class="st0">
		<defs>
			<rect id="SVGID_3_" y="0" width="150.5" height="69.9"/>
		</defs>
		<clipPath id="SVGID_4_">
			<use xlink:href="#SVGID_3_"  style="overflow:visible;"/>
		</clipPath>
		<g class="st1">
			<g>
				<defs>
					<rect id="SVGID_5_" y="0" width="150.5" height="69.9"/>
				</defs>
				<clipPath id="SVGID_6_">
					<use xlink:href="#SVGID_5_"  style="overflow:visible;"/>
				</clipPath>
				<path class="st2" d="M148.8,66.8c-0.3,1.1-0.7,2.1-1.1,3.2H6c-1.8-2.7-3.2-5.7-4.2-8.8c-1.3-4-2.1-8.3-1.7-12.6
					c0.4-4,2-8,5.5-10.3c3.2-2.1,7.2-2.7,10.9-3.5c3.9-0.8,7.6-2,10.8-4.4c3.4-2.5,5.8-5.9,7.7-9.7C38.5,13.5,40.9,4.3,49.1,1
					C58.2-2.7,67,4.8,75,8.1c4,1.6,8.2,2.3,12.4,1.3c4-0.9,7.6-2.9,11.3-4.5c3.7-1.6,7.5-2.9,11.6-2.5c3.7,0.4,7.4,2,10.2,4.5
					c2.8,2.5,4.9,5.7,5.7,9.4c0.8,3.8,0.6,7.9,2,11.6c0.7,1.7,1.7,3.3,3.2,4.5c1.5,1.2,3.2,2,5,2.7c1.8,0.8,3.6,1.5,5.3,2.6
					c1.6,1.1,3.1,2.5,4.3,4C151.5,48.8,151.3,58.4,148.8,66.8"/>
			</g>
		</g>
	</g>
</g>
</svg>
