<?xml version="1.0" encoding="utf-8"?>
<!-- Generator: Adobe Illustrator 22.0.1, SVG Export Plug-In . SVG Version: 6.00 Build 0)  -->
<svg version="1.1" id="Layer_1" xmlns="http://www.w3.org/2000/svg" xmlns:xlink="http://www.w3.org/1999/xlink" x="0px" y="0px"
	 viewBox="0 0 65.9 74.6" style="enable-background:new 0 0 65.9 74.6;" xml:space="preserve">
<style type="text/css">
	.st0{clip-path:url(#SVGID_2_);fill:#FFFFFF;}
</style>
<g>
	<defs>
		<rect id="SVGID_1_" y="0" width="65.9" height="74.6"/>
	</defs>
	<clipPath id="SVGID_2_">
		<use xlink:href="#SVGID_1_"  style="overflow:visible;"/>
	</clipPath>
	<path class="st0" d="M65.9,0.1c0,4.9,0.1,9.2-0.1,13.5c0,1-0.6,2.4-1.4,2.8c-7,3.7-7.8,10.1-7.8,17.5h9.1v40.7H38.2
		c0-11.9-0.6-24,0.2-36c0.5-7.3,2.2-14.8,4.7-21.8C46.7,6.7,54.5,1.2,65.9,0.1"/>
	<path class="st0" d="M26.9,0c0,4.9,0.1,9.2-0.1,13.5c0,1-0.6,2.4-1.3,2.9c-6.4,4-7.3,10.3-7.5,17.5h8.7v40.7H0.2
		c0-11.9-0.5-24,0.2-36.1c0.5-7.4,2.2-14.8,4.7-21.8C8.5,7,15.8,1.3,26.9,0"/>
</g>
</svg>
