<?xml version="1.0" encoding="utf-8"?>
<!-- Generator: Adobe Illustrator 22.0.1, SVG Export Plug-In . SVG Version: 6.00 Build 0)  -->
<svg version="1.1" id="Layer_1" xmlns="http://www.w3.org/2000/svg" xmlns:xlink="http://www.w3.org/1999/xlink" x="0px" y="0px"
	 viewBox="0 0 707.3 524.1" style="enable-background:new 0 0 707.3 524.1;" xml:space="preserve">
<style type="text/css">
	.st0{clip-path:url(#SVGID_2_);fill:#AAB2B9;}
	.st1{clip-path:url(#SVGID_2_);fill:#E2EBF9;}
	.st2{clip-path:url(#SVGID_2_);fill:#FFFFFF;}
	.st3{clip-path:url(#SVGID_2_);fill:#FFAA16;}
	.st4{clip-path:url(#SVGID_2_);fill:#FF914D;}
	.st5{clip-path:url(#SVGID_2_);fill:#76FFDA;}
	.st6{clip-path:url(#SVGID_2_);fill:#5DE1C0;}
	.st7{clip-path:url(#SVGID_2_);fill:#C1C8D2;}
	.st8{clip-path:url(#SVGID_2_);fill:#FF8125;}
	.st9{clip-path:url(#SVGID_2_);fill:#434C54;}
	.st10{clip-path:url(#SVGID_2_);fill:#FFC943;}
	.st11{clip-path:url(#SVGID_2_);fill:#00C395;}
	.st12{clip-path:url(#SVGID_2_);fill:#00A97D;}
</style>
<g>
	<defs>
		<rect id="SVGID_1_" width="707.3" height="524.1"/>
	</defs>
	<clipPath id="SVGID_2_">
		<use xlink:href="#SVGID_1_"  style="overflow:visible;"/>
	</clipPath>
	<path class="st0" d="M7.5,524.1c-1.9,0-3.8-0.7-5.3-2.2c-2.9-2.9-2.9-7.7,0-10.6l100.3-100.4c2.9-2.9,7.7-2.9,10.6,0
		c2.9,2.9,2.9,7.7,0,10.6L12.8,521.9C11.3,523.4,9.4,524.1,7.5,524.1"/>
	<path class="st1" d="M119.9,428.4l-24.2-24.2c-4.1-4.1-4.1-10.8,0-14.9l44-44l39.1,39.1l-44,44C130.7,432.5,124,432.5,119.9,428.4"
		/>
	
		<rect x="349" y="104" transform="matrix(0.7071 -0.7071 0.7071 0.7071 31.998 320.2498)" class="st0" width="107.2" height="35.1"/>
	<path class="st2" d="M179,430.9l-85.8-85.8c-3.7-3.7-3.7-9.8,0-13.5l226.1-226.1c3.7-3.7,9.8-3.7,13.5,0l85.8,85.8
		c3.7,3.7,3.7,9.8,0,13.5L192.5,430.9C188.8,434.6,182.7,434.6,179,430.9"/>
	<path class="st1" d="M418.7,191.2L390,162.5L150.4,402.2l28.7,28.7c3.7,3.7,9.8,3.7,13.5,0l226.1-226.1
		C422.4,201,422.4,194.9,418.7,191.2"/>
	<path class="st3" d="M93.2,331.5c-3.7,3.7-3.7,9.8,0,13.5l85.8,85.8c3.7,3.7,9.8,3.7,13.5,0l113-113l-99.3-99.3L93.2,331.5z"/>
	<path class="st4" d="M150.4,402.2l28.7,28.7c3.7,3.7,9.8,3.7,13.5,0l113-113l-35.5-35.5L150.4,402.2z"/>
	<path class="st5" d="M473.7,128.2l-77.9-77.9c-3.5-3.5-3.5-9.1,0-12.5l15.7-15.7c3.5-3.5,9.1-3.5,12.5,0l77.9,77.9
		c3.5,3.4,3.5,9.1,0,12.5l-15.7,15.7C482.8,131.7,477.2,131.7,473.7,128.2"/>
	<path class="st6" d="M501.9,100l-29.1-29.1l-28.2,28.2l29.1,29.1c3.5,3.4,9.1,3.4,12.5,0l15.7-15.7
		C505.3,109.1,505.3,103.5,501.9,100"/>
	<path class="st7" d="M303.7,183.7c-1.9,0-3.8-0.7-5.3-2.2l-27.6-27.6c-2.9-2.9-2.9-7.7,0-10.6c2.9-2.9,7.7-2.9,10.6,0l27.7,27.6
		c2.9,2.9,2.9,7.7,0,10.6C307.6,182.9,305.7,183.7,303.7,183.7"/>
	<path class="st7" d="M248.2,221.7c-1.9,0-3.8-0.7-5.3-2.2l-18.8-18.8c-2.9-2.9-2.9-7.7,0-10.6c2.9-2.9,7.7-2.9,10.6,0l18.9,18.9
		c2.9,2.9,2.9,7.7,0,10.6C252.1,221,250.1,221.7,248.2,221.7"/>
	<path class="st8" d="M210.1,277.3c-1.9,0-3.8-0.7-5.3-2.2l-27.6-27.6c-2.9-2.9-2.9-7.7,0-10.6c2.9-2.9,7.7-2.9,10.6,0l27.6,27.6
		c2.9,2.9,2.9,7.7,0,10.6C214,276.5,212.1,277.3,210.1,277.3"/>
	<path class="st8" d="M154.6,315.3c-1.9,0-3.8-0.7-5.3-2.2l-18.9-18.9c-2.9-2.9-2.9-7.7,0-10.6c2.9-2.9,7.7-2.9,10.6,0l18.9,18.9
		c2.9,2.9,2.9,7.7,0,10.6C158.5,314.6,156.5,315.3,154.6,315.3"/>
	<path class="st9" d="M507.2,94.8l-77.9-77.9c-6.4-6.4-16.7-6.4-23.1,0l-15.7,15.7c-6.4,6.4-6.4,16.8,0,23.1l21.2,21.2l-48.4,48.4
		l-25.2-25.2c-3.2-3.2-7.5-5-12.1-5s-8.8,1.8-12.1,5l-226,226.1c-6.6,6.6-6.6,17.5,0,24.1l18.1,18.1L90.4,384
		c-3.4,3.4-5.3,7.9-5.3,12.7c0,4.8,1.9,9.3,5.3,12.7l24.2,24.2c3.4,3.4,7.9,5.3,12.7,5.3c4.8,0,9.3-1.9,12.7-5.3l15.6-15.6
		l18.1,18.1c3.3,3.3,7.7,5,12.1,5c4.4,0,8.7-1.7,12.1-5l182.7-182.7c2.9-2.9,2.9-7.7,0-10.6c-2.9-2.9-7.7-2.9-10.6,0L187.2,425.6
		c-0.8,0.8-2.1,0.8-2.9,0l-85.8-85.8c-0.8-0.8-0.8-2.1,0-2.9l226.1-226.1c0.5-0.5,1.1-0.6,1.5-0.6s1,0.1,1.5,0.6l85.8,85.8
		c0.5,0.5,0.6,1.1,0.6,1.4s-0.1,1-0.6,1.4l-18.1,18.1c-2.9,2.9-2.9,7.7,0,10.6s7.7,2.9,10.6,0L424,210c3.2-3.2,5-7.5,5-12.1
		s-1.8-8.8-5-12.1l-25.2-25.2l48.4-48.4l21.2,21.2c3.2,3.2,7.4,4.8,11.6,4.8c4.2,0,8.4-1.6,11.6-4.8l15.7-15.7
		C513.6,111.5,513.6,101.1,507.2,94.8 M129.5,423.1c-0.8,0.8-1.7,0.9-2.1,0.9c-0.4,0-1.4-0.1-2.1-0.9l-24.2-24.2
		c-0.8-0.8-0.9-1.7-0.9-2.1s0.1-1.4,0.9-2.1l15.6-15.6l28.5,28.5L129.5,423.1z M388.2,150.1L374,135.9l48.4-48.4l14.2,14.2
		L388.2,150.1z M496.6,107.3l-15.7,15.6c-0.5,0.5-1.4,0.5-1.9,0L401.1,45c-0.5-0.5-0.5-1.4,0-1.9l15.7-15.7c0.5-0.5,1.4-0.5,1.9,0
		l77.9,77.9C497.1,105.9,497.1,106.7,496.6,107.3"/>
	<path class="st10" d="M602.1,7.5c-16.5,0-29.9,13.1-30.4,29.5l-3,101.6h66.8l-3-101.6C632.1,20.5,618.6,7.5,602.1,7.5"/>
	<path class="st3" d="M632.5,37c-0.5-16.5-14-29.5-30.4-29.5c-6,0-11.6,1.7-16.3,4.7l-0.6,126.3h50.3L632.5,37z"/>
	<path class="st2" d="M650.7,193.6v-67.8h-97.1v67.8l-35.9,21.3c-8.2,4.9-13.2,13.7-13.2,23.2v242c0,13.4,10.9,24.3,24.3,24.3h146.6
		c13.5,0,24.3-10.9,24.3-24.3v-242c0-9.5-5-18.4-13.2-23.2L650.7,193.6z"/>
	<path class="st1" d="M686.6,214.9l-35.9-21.3v-67.8h-49.6v67.8l45.6,27.1c2.2,1.3,3.5,3.7,3.5,6.2v277.6h25.2
		c13.5,0,24.3-10.9,24.3-24.3v-242C699.8,228.6,694.8,219.8,686.6,214.9"/>
	<path class="st11" d="M650.7,193.6h-97.1l-35.9,21.3c-8.2,4.9-13.2,13.7-13.2,23.2v242c0,13.4,10.9,24.3,24.3,24.3h146.6
		c13.5,0,24.3-10.9,24.3-24.3v-242c0-9.5-5-18.4-13.2-23.2L650.7,193.6z"/>
	<path class="st12" d="M699.8,238.1c0-6.6-2.4-12.9-6.6-17.7c-0.5-0.6-1.1-1.2-1.7-1.8c-0.6-0.5-1.1-1-1.8-1.5c-1-0.8-2-1.5-3.1-2.2
		l-35.9-21.3h-49.6l45.6,27.1c2.2,1.3,3.5,3.7,3.5,6.2v277.6h25.2c3.8,0,7.4-0.9,10.5-2.4c0.4-0.2,0.7-0.3,1-0.5
		c1.7-0.9,3.3-2.1,4.8-3.4c0.3-0.3,0.6-0.5,0.8-0.8c0.5-0.5,1.1-1.1,1.6-1.7c0.3-0.4,0.6-0.8,0.9-1.2c0.4-0.5,0.8-1.1,1.1-1.7
		c2.2-3.7,3.5-8,3.5-12.6L699.8,238.1z"/>
	<rect x="504.5" y="250" class="st2" width="195.3" height="204.7"/>
	<rect x="651.9" y="250" class="st1" width="49.5" height="204.7"/>
	<path class="st4" d="M652.2,166H552.1c-4,0-7.2-3.2-7.2-7.2v-38.2c0-4,3.2-7.2,7.2-7.2h100.1c4,0,7.2,3.2,7.2,7.2v38.2
		C659.4,162.8,656.2,166,652.2,166"/>
	<path class="st8" d="M652.2,113.4h-41.8V166h41.8c4,0,7.2-3.2,7.2-7.2v-38.2C659.4,116.6,656.2,113.4,652.2,113.4"/>
	<path class="st1" d="M641.3,341.2h-31.7v-31.6c0-4.1-3.4-7.5-7.5-7.5c-4.1,0-7.5,3.4-7.5,7.5v31.6h-31.7c-4.1,0-7.5,3.4-7.5,7.5
		c0,4.1,3.4,7.5,7.5,7.5h31.7v31.6c0,4.1,3.4,7.5,7.5,7.5c4.1,0,7.5-3.4,7.5-7.5v-31.6h31.7c4.1,0,7.5-3.4,7.5-7.5
		C648.8,344.6,645.4,341.2,641.3,341.2"/>
	<path class="st9" d="M699.8,400.8c4.1,0,7.5-3.4,7.5-7.5V238.1c0-12.1-6.5-23.5-16.9-29.7l-32.2-19.1v-17.1
		c5.1-2.3,8.7-7.4,8.7-13.4v-38.2c0-8.1-6.6-14.7-14.7-14.7h-10.1l-2-69.1C639.5,16.2,622.8,0,602.2,0c-20.6,0-37.3,16.2-37.9,36.8
		l-2,69.1h-10.2c-8.1,0-14.7,6.6-14.7,14.7v38.2c0,6,3.6,11.1,8.7,13.4v17.1l-32.2,19.1c-10.4,6.2-16.9,17.6-16.9,29.7v242
		c0,17.5,14.3,31.8,31.8,31.8h146.6c17.6,0,31.8-14.3,31.8-31.8v-51.4c0-4.1-3.4-7.5-7.5-7.5c-4.1,0-7.5,3.4-7.5,7.5v51.4
		c0,9.3-7.5,16.8-16.8,16.8H528.8c-9.3,0-16.8-7.5-16.8-16.8v-242c0-6.9,3.7-13.3,9.6-16.8l34.1-20.3h93l34.1,20.3
		c5.9,3.5,9.6,9.9,9.6,16.8v155.2C692.3,397.4,695.6,400.8,699.8,400.8 M561.1,173.5h82.1v12.6h-82.1V173.5z M579.2,37.2
		c0.4-12.5,10.4-22.3,22.9-22.3s22.5,9.8,22.9,22.3l2,68.7h-49.8L579.2,37.2z M552.4,120.9h99.5v37.6h-1.2h-97.1h-1.2V120.9z"/>
</g>
</svg>
