<?xml version="1.0" encoding="utf-8"?>
<!-- Generator: Adobe Illustrator 23.0.1, SVG Export Plug-In . SVG Version: 6.00 Build 0)  -->
<!DOCTYPE svg PUBLIC "-//W3C//DTD SVG 1.1//EN" "http://www.w3.org/Graphics/SVG/1.1/DTD/svg11.dtd" [
	<!ENTITY ns_extend "http://ns.adobe.com/Extensibility/1.0/">
	<!ENTITY ns_ai "http://ns.adobe.com/AdobeIllustrator/10.0/">
	<!ENTITY ns_graphs "http://ns.adobe.com/Graphs/1.0/">
	<!ENTITY ns_vars "http://ns.adobe.com/Variables/1.0/">
	<!ENTITY ns_imrep "http://ns.adobe.com/ImageReplacement/1.0/">
	<!ENTITY ns_sfw "http://ns.adobe.com/SaveForWeb/1.0/">
	<!ENTITY ns_custom "http://ns.adobe.com/GenericCustomNamespace/1.0/">
	<!ENTITY ns_adobe_xpath "http://ns.adobe.com/XPath/1.0/">
	<!ENTITY st0 "opacity:0.12;fill:#0DB8A0;">
]>
<svg version="1.1" id="Layer_1" xmlns:x="&ns_extend;" xmlns:i="&ns_ai;" xmlns:graph="&ns_graphs;"
	 xmlns="http://www.w3.org/2000/svg" xmlns:xlink="http://www.w3.org/1999/xlink" x="0px" y="0px" width="148.2px" height="114.8px"
	 viewBox="0 0 148.2 114.8" style="enable-background:new 0 0 148.2 114.8;" xml:space="preserve">
<metadata>
	<sfw  xmlns="&ns_sfw;">
		<slices></slices>
		<sliceSourceBounds  bottomLeftOrigin="true" height="114.5" width="139.9" x="-26.5" y="-47.7"></sliceSourceBounds>
	</sfw>
</metadata>
<path style="&st0;" d="M102.4,66.7c-3.3,1.8-5.4,3.1-7.5,4.2C87.3,74.7,80,79.2,72.1,82c-9.9,3.5-14.1-0.4-12-10.7
	c1.1-5.2,3.1-10.1,4.7-15.2c0.6-1.9,1.1-3.9,1-6.2c-12.4,8.6-21.7,20-31.3,31.2C25,92.2,16,103.5,6.7,114.8
	c-0.6-0.3-1.1-0.5-1.7-0.8c0.5-1.8,0.6-3.9,1.5-5.5c20.1-36,41.7-70.9,71.1-100.2c2.6-2.6,5.4-5.1,8.5-6.8c6-3.2,9.9-0.4,9.1,6.4
	c-0.5,4.1-1.5,8.2-3,12c-3.4,8.7-7.5,17.1-10.8,25.8c-1.1,2.9-0.6,6.3-0.8,9.5c3-0.7,6.2-0.8,8.8-2.1c9.7-5.1,19.2-10.7,29-15.7
	c3-1.5,6.9-1.6,10.3-2.3c-0.2,3.5,0.4,7.3-0.7,10.5c-3.5,9.5-7.7,18.8-11.6,28.1c-1,2.5-1.9,5-2.6,7.5c-0.3,1.1,0.2,2.5,0.4,3.7
	c1.2-0.2,2.7,0,3.7-0.6c6.9-4.1,13.6-8.3,20.5-12.5c1.8-1.1,3.7-1.8,5.5-2.7c0.3,0.3,0.6,0.7,0.9,1c-0.9,1.2-1.5,2.7-2.7,3.6
	c-9.3,7.3-18.5,14.6-28.1,21.5c-4,2.9-9.3,5.5-13.9,2.1c-4.5-3.3-3.7-9.1-2.7-14C98.5,78.4,100.4,73.4,102.4,66.7z"/>
</svg>
