<?xml version="1.0" encoding="utf-8"?>
<!-- Generator: Adobe Illustrator 22.0.1, SVG Export Plug-In . SVG Version: 6.00 Build 0)  -->
<svg version="1.1" id="Layer_1" xmlns="http://www.w3.org/2000/svg" xmlns:xlink="http://www.w3.org/1999/xlink" x="0px" y="0px"
	 viewBox="0 0 436.3 511" style="enable-background:new 0 0 436.3 511;" xml:space="preserve">
<style type="text/css">
	.st0{clip-path:url(#SVGID_2_);fill:#76FFD9;}
	.st1{clip-path:url(#SVGID_2_);fill:#FFFFFF;}
	.st2{clip-path:url(#SVGID_2_);fill:#E1EAF8;}
	.st3{clip-path:url(#SVGID_2_);fill:#FFAA16;}
	.st4{clip-path:url(#SVGID_2_);fill:#434C54;}
	.st5{clip-path:url(#SVGID_2_);fill:#2B3237;}
	.st6{clip-path:url(#SVGID_2_);fill:#C3BFB8;}
	.st7{clip-path:url(#SVGID_2_);fill:#E0DCD3;}
	.st8{clip-path:url(#SVGID_2_);fill:#FF6417;}
	.st9{clip-path:url(#SVGID_2_);fill:#FF7E45;}
</style>
<g>
	<defs>
		<rect id="SVGID_1_" width="436.3" height="511"/>
	</defs>
	<clipPath id="SVGID_2_">
		<use xlink:href="#SVGID_1_"  style="overflow:visible;"/>
	</clipPath>
	<path class="st0" d="M418.1,7.9H74c-5.7,0-10.4,4.7-10.4,10.4v46.4h298.9c5.7,0,10.4,4.7,10.4,10.4v371.3h45.3
		c5.7,0,10.4-4.7,10.4-10.4V18.3C428.5,12.6,423.8,7.9,418.1,7.9"/>
	<path class="st1" d="M362.4,503.2c5.7,0,10.4-4.7,10.4-10.4V75.1c0-5.7-4.7-10.4-10.4-10.4H18.3c-5.7,0-10.4,4.7-10.4,10.4v310.4
		c0,5.7,3.3,13.8,7.4,17.8l92.4,92.6c4.1,4.1,12.1,7.4,17.8,7.4h236.9V503.2z"/>
	<path class="st2" d="M18.3,395.9H56c-1.6-3.5-2.6-7.3-2.6-10.4V75.1c0-5.7,4.7-10.4,10.4-10.4H18.3c-5.7,0-10.4,4.7-10.4,10.4
		v310.4c0,5.7,3.3,13.8,7.4,17.8C11.2,399.2,12.6,395.9,18.3,395.9"/>
	<path class="st3" d="M115,406.4c0-5.7-4.7-10.4-10.4-10.4H18.3c-5.7,0-7.1,3.3-3.1,7.4l92.4,92.6c4.1,4.1,7.4,2.7,7.4-3V406.4z"/>
	<path class="st4" d="M428.5,348.9c4.3,0,7.8-3.5,7.8-7.8V18.3C436.3,8.2,428.1,0,418,0H74C63.9,0,55.7,8.2,55.7,18.3v38.5H18.3
		C8.2,56.8,0,65,0,75.1v310.4c0,7.8,4.2,17.8,9.7,23.3l38.9,38.9c1.5,1.5,3.5,2.3,5.5,2.3s4-0.8,5.5-2.3c3.1-3,3.1-8,0-11.1
		l-32.9-33h77.9c1.4,0,2.6,1.2,2.6,2.6v78l-19.4-19.5c-3.1-3.1-8-3.1-11.1,0c-3.1,3.1-3.1,8,0,11.1l25.4,25.5
		c5.5,5.5,15.5,9.7,23.3,9.7h236.9c10.1,0,18.3-8.2,18.3-18.3v-38.5H418c10.1,0,18.3-8.2,18.3-18.3v-53.2c0-4.3-3.5-7.8-7.8-7.8
		c-4.3,0-7.8,3.5-7.8,7.8v53.2c0,1.4-1.2,2.6-2.6,2.6h-37.4V137.7c0-4.3-3.5-7.8-7.8-7.8c-4.3,0-7.8,3.5-7.8,7.8v355.1
		c0,1.4-1.2,2.6-2.6,2.6h-237c-0.8,0-1.7-0.1-2.6-0.3v-88.7c0-10.1-8.2-18.3-18.3-18.3H16c-0.2-0.9-0.3-1.8-0.3-2.6V75.1
		c0-1.4,1.2-2.6,2.6-2.6h344.1c1.4,0,2.6,1.2,2.6,2.6v25.1c0,4.3,3.5,7.8,7.8,7.8s7.8-3.5,7.8-7.8V75.1c0-10.1-8.2-18.3-18.3-18.3
		h-291V18.3c0-1.4,1.2-2.6,2.6-2.6H418c1.4,0,2.6,1.2,2.6,2.6v322.8C420.7,345.4,424.2,348.9,428.5,348.9"/>
	<path class="st5" d="M262,273.7c-6.2,16.3-4.6,34.6-3.1,52.3c1.7,20.1,3.4,39.1-7.2,51c-8.4,9.5-24.1,14.5-48.1,15.3
		c-23.8,0.8-40.3-4.5-49.1-15.6c-15.9-20.2-5.5-57.5,1.4-82.1c2.2-8,4-14.5,4.8-19.5c-1.1,0-2.2,0.1-3.3,0.1c-2.3,0-4.5-0.1-6.7-0.4
		c-0.9,4.5-2.6,10.7-4.4,17.1c-7.4,26.6-18.6,66.8,0.3,90.9c10.2,12.9,27.7,19.5,52.3,19.5c1.6,0,3.2,0,4.9-0.1
		c26.8-0.9,44.9-7,55.2-18.6c13.4-15.1,11.5-37.1,9.7-58.4c-2.5-28.4-4.8-55.5,23.7-71.7c-2-2.5-3.7-5.4-5-8.5
		C275,252,266.6,261.5,262,273.7"/>
	<path class="st6" d="M160.8,275c28.7-1.4,47.8-20.6,49.8-30.1c-12.3,9.6-28.2,14.9-47.4,15.8c-0.6,0.1-1.3,0.2-1.9,0.2h-1
		c-23.2,0-42-6.1-55.8-18.2c-0.1,0-0.1-0.1-0.1-0.1c-0.1,0.2-0.1,0.5-0.1,0.8c0,8.4,18.2,28.6,46.6,31.5c2.2,0.2,4.4,0.4,6.7,0.4
		C158.6,275.1,159.7,275.1,160.8,275"/>
	<path class="st5" d="M94.5,188.4c-0.1-1.4-0.1-2.7-0.1-4.1c0-22,8.5-45,24.5-53.8c-2.5-1.7-4.2-4.5-4.5-7.7
		c-6.3,3.6-11.9,9.1-16.4,16.2c-7.8,12.2-12.1,28.4-12.1,45.3c0,2.1,0.1,4.2,0.2,6.2c1.4-1.2,3.1-2.1,5-2.3
		C92.2,188,93.3,188.1,94.5,188.4"/>
	<path class="st5" d="M226.9,188.1c1.9,0.3,3.6,1.1,5,2.3c0.1-2.1,0.2-4.1,0.2-6.2c0-17-4.3-33.1-12.1-45.3
		c-4.5-7.1-10.1-12.6-16.4-16.2c-0.3,3.2-2,6-4.5,7.7c16,8.8,24.5,31.9,24.5,53.8c0,1.4,0,2.8-0.1,4.1
		C224.5,188,225.7,188,226.9,188.1"/>
	<path class="st7" d="M160.3,260.9h1c0.6,0,1.3-0.1,1.9-0.2c19.2-0.9,35.1-6.1,47.4-15.8c1-0.8,1.9-1.5,2.8-2.3
		c12.2-10.7,19.8-25.5,22-42.8c0.5-3.6-1-7.1-3.5-9.3c-1.4-1.2-3.1-2.1-5-2.3c-1.2-0.2-2.4-0.1-3.5,0.2c-3.9,1-6.9,4.3-7.5,8.7
		c-3.5,27.6-25,43.3-59.1,43h-0.1h-0.2c-31.4-1.2-51.2-16.6-54.5-42.9c-0.6-4.4-3.6-7.8-7.5-8.7c-1.1-0.3-2.3-0.4-3.5-0.2
		c-1.9,0.3-3.6,1.1-5,2.3c-2.5,2.2-3.9,5.6-3.4,9.3c2.2,17.2,9.7,32,21.8,42.6c0.1,0,0.1,0.1,0.1,0.1
		C118.3,254.7,137,260.9,160.3,260.9"/>
	<path class="st8" d="M118.1,130.5c1.6,1.1,3.4,1.7,5.4,1.7c5.5,0,14.9-4.7,14.9-10.5s-9.4-10.5-14.9-10.5c-5.5,0-10,4.7-10,10.5
		c0,0.4,0,0.8,0.1,1.1C113.9,126,115.7,128.8,118.1,130.5"/>
	<path class="st8" d="M204.2,122.7c0-0.4,0.1-0.7,0.1-1.1c0-5.8-4.5-10.5-10-10.5s-14.9,4.7-14.9,10.5c0,5.8,9.4,10.5,14.9,10.5
		c2,0,3.8-0.6,5.4-1.7C202.2,128.7,203.9,125.9,204.2,122.7"/>
	<path class="st8" d="M318.9,198.1c-18.8,0-34,15.2-34,34c0,4.5,0.9,8.9,2.5,12.8c1.3,3.1,3,5.9,5,8.5c6.2,7.8,15.8,12.7,26.5,12.7
		c18.8,0,34-15.2,34-34C353,213.3,337.7,198.1,318.9,198.1 M318.9,260c-15.4,0-27.9-12.5-27.9-27.9c0-15.4,12.5-27.9,27.9-27.9
		c15.4,0,27.9,12.5,27.9,27.9C346.8,247.5,334.3,260,318.9,260"/>
	<path class="st9" d="M318.9,204.3c-15.4,0-27.9,12.5-27.9,27.9c0,15.4,12.5,27.9,27.9,27.9c15.4,0,27.9-12.5,27.9-27.9
		C346.8,216.8,334.3,204.3,318.9,204.3 M318.9,245.3c-7.3,0-13.2-5.9-13.2-13.2c0-7.3,5.9-13.2,13.2-13.2c7.3,0,13.2,5.9,13.2,13.2
		C332.2,239.4,326.2,245.3,318.9,245.3"/>
	<path class="st7" d="M318.9,218.3c7.6,0,13.8,6.2,13.8,13.8s-6.2,13.8-13.8,13.8c-7.6,0-13.8-6.2-13.8-13.8
		S311.3,218.3,318.9,218.3"/>
</g>
</svg>
