<?xml version="1.0" encoding="utf-8"?>
<!-- Generator: Adobe Illustrator 23.0.1, SVG Export Plug-In . SVG Version: 6.00 Build 0)  -->
<!DOCTYPE svg PUBLIC "-//W3C//DTD SVG 1.1//EN" "http://www.w3.org/Graphics/SVG/1.1/DTD/svg11.dtd" [
	<!ENTITY ns_extend "http://ns.adobe.com/Extensibility/1.0/">
	<!ENTITY ns_ai "http://ns.adobe.com/AdobeIllustrator/10.0/">
	<!ENTITY ns_graphs "http://ns.adobe.com/Graphs/1.0/">
	<!ENTITY ns_vars "http://ns.adobe.com/Variables/1.0/">
	<!ENTITY ns_imrep "http://ns.adobe.com/ImageReplacement/1.0/">
	<!ENTITY ns_sfw "http://ns.adobe.com/SaveForWeb/1.0/">
	<!ENTITY ns_custom "http://ns.adobe.com/GenericCustomNamespace/1.0/">
	<!ENTITY ns_adobe_xpath "http://ns.adobe.com/XPath/1.0/">
	<!ENTITY st0 "fill:#FFFFFF;">
	<!ENTITY st1 "clip-path:url(#SVGID_2_);fill:#FFFFFF;">
	<!ENTITY st2 "fill:#07B39A;">
]>
<svg version="1.1" id="Layer_6" xmlns:x="&ns_extend;" xmlns:i="&ns_ai;" xmlns:graph="&ns_graphs;"
	 xmlns="http://www.w3.org/2000/svg" xmlns:xlink="http://www.w3.org/1999/xlink" x="0px" y="0px" width="148.9px" height="28.7px"
	 viewBox="0 0 148.9 28.7" style="enable-background:new 0 0 148.9 28.7;" xml:space="preserve">
<metadata>
	<sfw  xmlns="&ns_sfw;">
		<slices></slices>
		<sliceSourceBounds  bottomLeftOrigin="true" height="44.2" width="142.1" x="705.9" y="-2929.9"></sliceSourceBounds>
	</sfw>
</metadata>
<path style="&st0;" d="M112,13.9c0-6.1-5-11.1-11.1-11.1c-6.1,0-11.1,5-11.1,11.1c0,6.1,5,11.1,11.1,11.1C107,25,112,20.1,112,13.9"
	/>
<g>
	<defs>
		<path id="SVGID_1_" d="M60.2,13.3c0,6.1,5,11.1,11.1,11.1c6.1,0,11.1-5,11.1-11.1c0-6.1-5-11.1-11.1-11.1
			C65.1,2.2,60.2,7.1,60.2,13.3"/>
	</defs>
	<use xlink:href="#SVGID_1_"  style="overflow:visible;fill:#FFFFFF;"/>
	<clipPath id="SVGID_2_">
		<use xlink:href="#SVGID_1_"  style="overflow:visible;"/>
	</clipPath>
	<polygon style="&st1;" points="69.7,35.4 49.2,11.7 72.8,-8.9 93.4,14.8 	"/>
</g>
<path style="&st0;" d="M144.1,13.9c0-6.1-5-11.1-11.1-11.1c-6.1,0-11.1,5-11.1,11.1c0,6.1,5,11.1,11.1,11.1
	C139.1,25.1,144.1,20.1,144.1,13.9"/>
<path style="&st2;" d="M135.8,18h-5.7c-1.5,0-2.7-1.2-2.7-2.7v-2.7c0-1.5,1.2-2.8,2.7-2.8h5.7c1.5,0,2.7,1.2,2.7,2.8v2.7
	C138.6,16.8,137.4,18,135.8,18"/>
<path style="&st0;" d="M135.2,14.1l-3,1.6c-0.1,0.1-0.2,0-0.2-0.1v-3.3c0-0.1,0.1-0.2,0.2-0.1l3,1.6C135.4,13.9,135.4,14,135.2,14.1
	"/>
<path style="&st2;" d="M71.4,17.2c2.2,0,4-1.8,4-4c0-2.2-1.8-4-4-4c-2.2,0-4,1.8-4,4C67.4,15.4,69.2,17.2,71.4,17.2 M68.4,13.2
	c0-1.7,1.4-3,3-3c1.7,0,3,1.3,3,3c0,1.7-1.4,3-3,3C69.7,16.3,68.4,14.9,68.4,13.2"/>
<path style="&st2;" d="M75.2,19.9h-7.9c-1.5,0-2.7-1.2-2.7-2.7V9.4c0-1.5,1.2-2.7,2.7-2.7h7.9c1.5,0,2.7,1.2,2.7,2.7v7.8
	C77.9,18.7,76.7,19.9,75.2,19.9 M67.3,7.7c-0.9,0-1.7,0.8-1.7,1.7v7.8c0,0.9,0.8,1.7,1.7,1.7h7.9c0.9,0,1.7-0.8,1.7-1.7V9.4
	c0-0.9-0.8-1.7-1.7-1.7H67.3z"/>
<path style="&st0;" d="M52.8,13.9c0-6.1-5-11.1-11.1-11.1c-6.1,0-11.1,5-11.1,11.1c0,6.1,5,11.1,11.1,11.1
	C47.9,25,52.8,20.1,52.8,13.9"/>
<path style="&st2;" d="M42.7,11.3v-1c0-0.5,0.3-0.6,0.6-0.6h1.5V7.4l-2,0C40.5,7.4,40,9,40,10.1v1.2h-1.3v2.6H40v6.6h2.6v-6.6h2
	l0.2-2.6H42.7z"/>
<path style="&st0;" d="M24.2,13.3c0-6.1-5-11.1-11.1-11.1C7,2.2,2,7.2,2,13.3c0,6.1,5,11.1,11.1,11.1C19.2,24.4,24.2,19.4,24.2,13.3
	"/>
<path style="&st2;" d="M19.5,10c-0.4,0.2-0.9,0.3-1.4,0.4c0.5-0.3,0.9-0.8,1.2-1.3c0,0,0-0.1-0.1-0.1c-0.5,0.3-1,0.5-1.6,0.6
	c-0.5-0.5-1.2-0.8-2-0.8c-1.5,0-2.7,1.2-2.7,2.7c0,0.2,0,0.4,0.1,0.6c-2.2-0.1-4.2-1.2-5.5-2.8c0,0,0,0,0,0C7.2,9.6,7.1,10,7.1,10.5
	c0,0.9,0.5,1.7,1.2,2.2c0,0,0,0,0,0c-0.4,0-0.8-0.1-1.1-0.3c0,0,0,0,0,0c0,0.1,0,0.6,0.2,1c0.3,0.8,1.1,1.5,2,1.7
	c-0.2,0-0.5,0.1-0.7,0.1c-0.2,0-0.3,0-0.5,0c0,0,0,0,0,0c0.3,1,1.3,1.8,2.5,1.8c0,0,0,0,0,0C9.6,17.6,8.4,18,7.2,18
	c-0.2,0-0.4,0-0.6,0c1.2,0.7,2.6,1.2,4.1,1.2c2.1,0,3.8-0.7,5-1.8c1.3-1.1,2.1-2.6,2.5-4.1c0.1-0.5,0.2-1.1,0.2-1.6
	c0-0.1,0-0.2,0-0.3C18.8,10.9,19.2,10.5,19.5,10C19.6,10,19.6,10,19.5,10"/>
<rect x="95.6" y="11.2" style="&st2;" width="2.6" height="7.3"/>
<path style="&st2;" d="M106.6,13.5c-0.2-1.4-0.9-2.3-2.8-2.3c-1.3,0-1.9,0.2-2.2,0.8v-0.8h-2.1v7.3h2.1v-3.8c0-1,0.2-1.7,1.4-1.7
	c1.2,0,1.3,0.9,1.3,1.7v3.8h2.2C106.6,18.6,106.6,13.8,106.6,13.5"/>
<path style="&st2;" d="M75.3,8.4c-0.4,0-0.7,0.3-0.7,0.7c0,0.4,0.3,0.7,0.7,0.7c0.4,0,0.7-0.3,0.7-0.7C75.9,8.7,75.6,8.4,75.3,8.4"
	/>
<path style="&st2;" d="M96.9,7.4c-0.9,0-1.5,0.8-1.3,1.7c0.1,0.5,0.5,0.9,1.1,1c0.9,0.2,1.7-0.5,1.7-1.3C98.3,8,97.7,7.4,96.9,7.4"
	/>
</svg>
