<?xml version="1.0" encoding="utf-8"?>
<!-- Generator: Adobe Illustrator 22.0.1, SVG Export Plug-In . SVG Version: 6.00 Build 0)  -->
<svg version="1.1" id="Layer_1" xmlns="http://www.w3.org/2000/svg" xmlns:xlink="http://www.w3.org/1999/xlink" x="0px" y="0px"
	 viewBox="0 0 316.1 432.9" style="enable-background:new 0 0 316.1 432.9;" xml:space="preserve">
<style type="text/css">
	.st0{clip-path:url(#SVGID_2_);fill:#FFFFFF;}
	.st1{clip-path:url(#SVGID_2_);fill:#E2EBF9;}
	.st2{clip-path:url(#SVGID_2_);fill:#C1C8D2;}
	.st3{clip-path:url(#SVGID_2_);fill:#76FFDA;}
	.st4{clip-path:url(#SVGID_2_);fill:#5DE1C0;}
	.st5{clip-path:url(#SVGID_2_);fill:#FF6417;}
	.st6{clip-path:url(#SVGID_2_);fill:#E85210;}
	.st7{clip-path:url(#SVGID_2_);fill:#434C54;}
	.st8{clip-path:url(#SVGID_2_);fill:#C9D3E2;}
	.st9{clip-path:url(#SVGID_2_);fill:#EFF3F9;}
	.st10{clip-path:url(#SVGID_2_);fill:#FF8125;}
	.st11{clip-path:url(#SVGID_2_);}
</style>
<g>
	<defs>
		<rect id="SVGID_1_" width="316.1" height="432.9"/>
	</defs>
	<clipPath id="SVGID_2_">
		<use xlink:href="#SVGID_1_"  style="overflow:visible;"/>
	</clipPath>
	<path class="st0" d="M240.3,104.5c2.1,0,3.9,1.7,3.9,3.9c0,2.1-1.7,3.9-3.9,3.9c-2.1,0-3.9-1.7-3.9-3.9
		C236.5,106.2,238.2,104.5,240.3,104.5"/>
	<path class="st1" d="M97.8,115.7V96.2H85.9c-5.7,0-10.3,4.6-10.3,10.3v7.9c0,5.7,4.6,10.3,10.3,10.3h11.9V115.7z"/>
	<path class="st1" d="M230.2,96.2h-11.9v28.5h11.9c5.7,0,10.3-4.6,10.3-10.3v-7.9C240.5,100.8,235.9,96.2,230.2,96.2"/>
	<path class="st1" d="M182.1,248.8l36.8-34.5l-14.6-2.7c-7-1.4-12.1-9.6-12.1-16.8v-32h-68.2v32c0,7.2-5.1,15.4-12.1,16.8l-14.6,2.7
		l36.7,34.5C147.5,261.5,168.6,261.5,182.1,248.8"/>
	<path class="st2" d="M175.7,162.8v48.5c0,7.2,5.1,15.4,12.1,16.8l12.6,3.6l18.5-17.4l-14.6-2.7c-7-1.4-12.1-9.6-12.1-16.8v-32
		H175.7z"/>
	<path class="st3" d="M200.7,209.8l-42.6,31.8l-42.6-31.8c-2.3-1.7-5.2-2.2-8-1.4L35.9,230c-7.7,2.3-13.4,8.8-14.8,16.7L5.4,339.1
		c-1.1,6.4,3.8,12.2,10.3,12.2h284.9c6.4,0,11.3-5.8,10.3-12.2L295,246.8c-1.3-7.9-7.1-14.4-14.8-16.7l-71.6-21.6
		C205.9,207.6,203,208.1,200.7,209.8"/>
	<path class="st4" d="M107.5,208.4l-12.3,3.7l27.2,38c2.1,3,6.1,4.1,9.5,2.7l26.3-11.2l-42.6-31.8
		C113.2,208.1,110.2,207.6,107.5,208.4"/>
	<path class="st4" d="M184.3,252.8c3.4,1.4,7.3,0.3,9.5-2.7l27.2-38l-0.1,0l-12.3-3.7c-2.7-0.8-5.7-0.3-8,1.4l-42.6,31.9
		L184.3,252.8z"/>
	<path class="st0" d="M201.9,29.7c-10.3-8.8-24.7-8.3-43.8-8.5c-19.1,0.2-33.5-0.4-43.8,8.5c-13.1,11.3-20.2,28-20.2,45.3v50.3
		c0,17.3,21.7,63.2,64,63.2s64-45.9,64-63.2V75C222.1,57.7,215,40.9,201.9,29.7"/>
	<path class="st1" d="M201.9,29.7c-4.1-3.5-8.8-5.5-14.3-6.7V23v102.2c0,14.8-15.8,50.3-46.8,60.4c5.3,1.7,11,2.7,17.2,2.7
		c42.3,0,64-45.9,64-63.2V75C222.1,57.7,215,40.9,201.9,29.7"/>
	<path class="st0" d="M158.1,335.1c0,0-47.8-127.5-50.6-126.7L35.9,230c-7.7,2.3-13.4,8.8-14.8,16.7L5.4,339.1
		c-1.1,6.4,3.8,12.2,10.3,12.2h284.9c6.5,0,11.3-5.8,10.3-12.2L295,246.8c-1.4-7.9-7.1-14.4-14.8-16.7l-71.6-21.6
		C205.9,207.6,158.1,335.1,158.1,335.1"/>
	<path class="st1" d="M310.8,339.1L295,246.7c-1.3-7.9-7.1-14.4-14.8-16.7l-71.6-21.6c-0.7-0.2-4.8,9-10.4,22.6l51.9,15.7
		c3.9,1.2,6.8,4.5,7.5,8.5l16.4,96h26.4C307,351.2,311.8,345.4,310.8,339.1"/>
	<path class="st5" d="M196.6,5.2h-77c-19.8,0-35.9,16.1-35.9,35.9V100c0,0,9.9-0.2,16.2,6.1c1.3,1.3,3.6,0.4,3.6-1.5V56.3
		c0-8.8,7.1-15.9,15.9-15.9h14.4c3.8,0,7.4,1.3,10.4,3.7l1.4,1.2c3.5,2.9,8,4.5,12.5,4.5c4.6,0,9-1.6,12.5-4.5l1.4-1.2
		c2.9-2.4,6.6-3.7,10.4-3.7h14.4c8.8,0,15.8,7.1,15.8,15.9v48.2c0,1.9,2.3,2.8,3.6,1.5c6.4-6.3,16.2-6.1,16.2-6.1V41.1
		C232.4,21.3,216.4,5.2,196.6,5.2"/>
	<path class="st6" d="M196.6,5.2h-34.5c19.6,0,35.6,15.8,35.9,35.3c8.2,0.6,14.7,7.5,14.7,15.8v48.2c0,1.9,2.3,2.8,3.6,1.5
		c6.4-6.3,16.2-6.1,16.2-6.1V41.1C232.4,21.3,216.4,5.2,196.6,5.2"/>
	<path class="st7" d="M239.4,223.2l39.3,11.9c5.8,1.8,10.1,6.6,11.1,12.6l15.8,92.3c0.3,1.5-0.1,3-1.2,4.2c-1,1.2-2.4,1.8-4,1.8
		H15.6c-1.6,0-3-0.6-4-1.8s-1.4-2.7-1.1-4.2l5.2-30.5c0.5-2.8-1.4-5.5-4.3-6c-2.8-0.5-5.5,1.4-6,4.3l-5.2,30.5
		c-0.8,4.6,0.5,9.2,3.5,12.7c3,3.5,7.3,5.6,11.9,5.6h284.9c4.6,0,9-2,11.9-5.6c3-3.5,4.2-8.2,3.5-12.7l-15.8-92.3
		c-1.7-10-8.8-17.9-18.4-20.9l-42.5-12.8c-0.9-10.4-5.1-20.2-12.2-28c-5.7-6.2-12.8-10.7-20.7-13.2c1.4-1.5,2.6-3,3.7-4.4
		c10.1-12.9,15.5-27,16.9-36.7h3.3c8.5,0,15.5-7,15.5-15.5v-7.9c0-5.7-3.2-10.9-8-13.5V73.8c0-2.9-2.3-5.2-5.2-5.2
		c-2.9,0-5.2,2.3-5.2,5.2v21.4c-2,0.4-4.5,1-6.9,2c-0.3,0.1-0.5,0.2-0.7,0.3c-0.6,0.3-1.1,0.5-1.7,0.8V56.4
		c0-11.6-9.5-21.1-21.1-21.1h-14.4c-5,0-9.8,1.7-13.7,4.9l-1.4,1.1c-2.6,2.1-5.9,3.3-9.2,3.3s-6.6-1.2-9.2-3.3l-1.4-1.2
		c-3.9-3.1-8.7-4.9-13.7-4.9h-14.4c-11.6,0-21.1,9.5-21.1,21.1v42.1c-0.6-0.3-1.1-0.6-1.7-0.8c-0.2-0.1-0.5-0.2-0.7-0.3
		c-2.5-1-4.9-1.7-6.9-2V41.1c0-16.9,13.8-30.6,30.7-30.6h77c16.9,0,30.7,13.8,30.7,30.6v8.2c0,2.9,2.3,5.2,5.2,5.2
		c2.9,0,5.2-2.3,5.2-5.2v-8.2c0-22.7-18.4-41.1-41.1-41.1h-77C96.9,0,78.5,18.4,78.5,41.1v51.8c-4.8,2.7-8,7.8-8,13.5v7.9
		c0,8.5,6.9,15.5,15.5,15.5h3.3c1.4,9.7,6.8,23.8,16.9,36.7c1.1,1.5,2.4,2.9,3.7,4.4c-18.1,5.7-31.3,22-32.9,41.2L34.4,225
		c-9.7,2.9-16.7,10.9-18.4,20.9l-6.4,37.5c-0.5,2.8,1.4,5.5,4.3,6c2.8,0.5,5.5-1.4,6-4.3l6.4-37.5c1-6,5.3-10.9,11.1-12.6l39.3-11.9
		l10.4-3.1l17.9-5.4c1.7,3.6,5.1,11.4,11.9,28.5c6.3,15.9,14.1,35.9,21.5,55.4c0.1,0.2,0.1,0.3,0.2,0.5c5.1,13.4,10.1,26.6,14.4,38
		c0.8,2,2.7,3.4,4.9,3.4c2.2,0,4.1-1.4,4.9-3.4c4.3-11.4,9.3-24.5,14.4-38c0.1-0.2,0.1-0.3,0.2-0.5c7.6-19.8,15.4-40.1,21.8-56.1
		c6.6-16.6,10-24.3,11.6-27.8l17.9,5.4 M228.2,208.9l-18-5.4c0,0,0,0,0,0h0c-3-0.9-6.3-0.8-9.2,0.3c-2.1-2.3-3.6-5.7-3.6-8.9v-15.2
		C213.1,181.9,225.2,193.7,228.2,208.9 M196.5,221.7c-0.2,0.6-0.5,1.1-0.7,1.7c-0.1,0.2-0.2,0.4-0.2,0.6c-0.2,0.5-0.4,1-0.6,1.5
		c-0.1,0.1-0.1,0.3-0.2,0.4c-0.1,0.1-0.1,0.3-0.2,0.5c-0.1,0.3-0.2,0.5-0.3,0.8c-0.1,0.3-0.3,0.7-0.4,1c-0.1,0.3-0.2,0.5-0.3,0.8
		c-0.3,0.7-0.6,1.4-0.9,2.1c-0.1,0.3-0.2,0.5-0.3,0.8c-0.2,0.4-0.3,0.8-0.5,1.2c-0.1,0.3-0.2,0.6-0.3,0.9c-0.2,0.4-0.3,0.8-0.5,1.2
		c-0.1,0.4-0.3,0.7-0.4,1.1c-0.1,0.4-0.3,0.7-0.4,1.1c-0.3,0.7-0.6,1.4-0.8,2.1c-0.1,0.3-0.2,0.5-0.3,0.8c-0.2,0.5-0.4,1-0.6,1.6
		c-0.1,0.3-0.3,0.6-0.4,1c-0.2,0.5-0.4,1-0.6,1.5c-0.1,0.3-0.3,0.6-0.4,1c-0.2,0.6-0.5,1.2-0.7,1.9c-0.1,0.2-0.2,0.4-0.3,0.7
		c0,0.1,0,0.1-0.1,0.2l-5.1-2.2c0,0-0.1,0-0.1,0l-12.3-5.2l29.4-22c-0.1,0.3-0.3,0.6-0.4,1c-0.2,0.6-0.5,1.2-0.8,1.8
		C196.6,221.4,196.6,221.5,196.5,221.7 M177.5,269.6c-1,2.7-2.1,5.4-3.1,8.1l-2.1-11.6l8-9.3l1.9,0.8
		C180.6,261.4,179.1,265.4,177.5,269.6 M138.7,269.6c-1.6-4.2-3.2-8.2-4.7-12l2-0.8l7.9,9.3l-2.1,11.6
		C140.7,275,139.7,272.3,138.7,269.6 M129.9,247c-0.3-0.6-0.5-1.3-0.7-1.9c-0.1-0.3-0.3-0.7-0.4-1c-0.2-0.5-0.4-1-0.6-1.5
		c-0.1-0.3-0.3-0.7-0.4-1c-0.2-0.5-0.4-1-0.6-1.5c-0.1-0.3-0.2-0.6-0.4-0.9c-0.3-0.7-0.6-1.4-0.8-2.1c-0.2-0.4-0.3-0.8-0.5-1.2
		c-0.1-0.3-0.3-0.6-0.4-0.9c-0.2-0.4-0.3-0.8-0.5-1.3c-0.1-0.3-0.2-0.5-0.3-0.8c-0.2-0.4-0.3-0.8-0.5-1.2c-0.1-0.3-0.2-0.5-0.3-0.8
		c-0.3-0.7-0.6-1.4-0.8-2.1c-0.1-0.3-0.2-0.6-0.3-0.8c-0.1-0.3-0.3-0.6-0.4-1c-0.1-0.3-0.3-0.6-0.4-0.9c-0.1-0.1-0.1-0.3-0.2-0.4
		c-0.1-0.1-0.1-0.2-0.1-0.4c-0.3-0.6-0.5-1.2-0.8-1.8l-0.1-0.2c-0.3-0.7-0.6-1.3-0.8-2c0-0.1-0.1-0.2-0.1-0.3
		c-0.3-0.6-0.5-1.3-0.8-1.9c-0.1-0.3-0.3-0.7-0.4-1l29.4,22l-12.3,5.2c0,0,0,0-0.1,0l-5.1,2.2c0-0.1-0.1-0.1-0.1-0.2
		C130,247.4,129.9,247.2,129.9,247 M129.2,186.4c8,4.3,17.6,7.2,28.9,7.2s20.9-2.9,28.9-7.2v8.4c0,4.9,1.9,10.5,5.3,14.8l-34.2,25.6
		l-34.2-25.6c3.4-4.3,5.3-9.8,5.3-14.8V186.4z M151.9,259.3l-5.8-6.8l12-5.1l12,5.1l-5.9,6.8H151.9z M235.2,114.4c0,2.8-2.3,5-5,5
		h-2.9v-13.5c2.8-0.7,5-0.7,5-0.7c0.9,0,1.8-0.2,2.6-0.6c0.2,0.6,0.4,1.2,0.4,1.9V114.4z M80.9,114.4v-7.9c0-0.6,0.1-1.3,0.4-1.8
		c0.8,0.4,1.7,0.6,2.6,0.6c0,0,2.3,0,5,0.7v13.5h-2.9C83.2,119.4,80.9,117.2,80.9,114.4 M99.3,125.3v-13.7c1.6,0.5,3.3,0.4,4.9-0.3
		c2.7-1.1,4.5-3.8,4.5-6.8V56.3c0-5.9,4.8-10.6,10.6-10.6h14.4c2.6,0,5.1,0.9,7.1,2.5l1.4,1.2c4.5,3.6,10.1,5.6,15.8,5.6
		c5.8,0,11.4-2,15.8-5.6l1.4-1.2c2-1.6,4.5-2.5,7.1-2.5h14.4c5.9,0,10.6,4.8,10.6,10.6v48.2c0,3,1.8,5.6,4.5,6.8
		c0.9,0.4,1.9,0.6,2.8,0.6c0.7,0,1.4-0.1,2.1-0.3v13.7c0,7.6-5.3,22.4-15,34.8c-3.2,4.1-7.4,8.5-12.5,12.4c-0.2,0.1-0.3,0.2-0.5,0.4
		c-7.9,5.9-18.1,10.3-30.8,10.3s-22.8-4.5-30.8-10.3c-0.1-0.1-0.3-0.3-0.5-0.4c-5.1-3.9-9.3-8.3-12.5-12.4
		C104.6,147.7,99.3,132.9,99.3,125.3 M118.7,179.6v15.2c0,3.3-1.5,6.7-3.6,8.9c-2.9-1.1-6.1-1.3-9.2-0.3h0l-18,5.4
		C91,193.9,103.2,181.9,118.7,179.6 M158.2,320c-0.2-0.3-0.3-0.6-0.5-0.9c-2.4-6.2-5.3-14.1-8.7-22.8l4.9-26.7h8.4l4.9,26.7
		C163.7,305.5,160.6,313.7,158.2,320"/>
	<path class="st1" d="M116.5,426.9l47.8-48.5l13.4,12.6l-37.5,36.3C140.2,427.3,130.2,434.2,116.5,426.9"/>
	<path class="st8" d="M219.7,382.5c-32.4,0-58.8-26.4-58.8-58.8s26.4-58.8,58.8-58.8c32.4,0,58.8,26.4,58.8,58.8
		S252.1,382.5,219.7,382.5"/>
	<path class="st0" d="M219.7,372.7c-27,0-49-22-49-49c0-27,22-49,49-49c27,0,49,22,49,49C268.7,350.7,246.7,372.7,219.7,372.7"/>
	<path class="st1" d="M219.7,364.8c-22.7,0-41.1-18.4-41.1-41.1c0-22.7,18.4-41.1,41.1-41.1c22.7,0,41.1,18.4,41.1,41.1
		C260.8,346.4,242.4,364.8,219.7,364.8"/>
	<path class="st9" d="M219.7,352.3c-15.8,0-28.6-12.8-28.6-28.6s12.8-28.6,28.6-28.6s28.6,12.8,28.6,28.6S235.5,352.3,219.7,352.3"
		/>
	<path class="st10" d="M130,404.9c-4.6,0-8.4,3.8-8.4,8.4c0,4.6,3.8,8.4,8.4,8.4c4.6,0,8.4-3.8,8.4-8.4
		C138.4,408.7,134.7,404.9,130,404.9 M130,416.1c-1.5,0-2.8-1.3-2.8-2.8c0-1.6,1.3-2.8,2.8-2.8c1.5,0,2.8,1.3,2.8,2.8
		C132.8,414.9,131.6,416.1,130,416.1"/>
	<path class="st11" d="M219.7,259.3c-16.7,0-31.9,6.4-43.4,16.8c-12.1,12.3-19.4,28.4-20.7,45.6l-0.3,4.8c0.5,11.4,4,22,9.6,31.1
		l-8.3,8.3l-4.2-4.2l-35.7,35.7c-4,4-6.3,9.4-6.3,15c0.1,5.4,2.2,10.5,6,14.4c3.9,3.9,9.1,6,14.6,6h0c5.5,0,10.7-2.1,14.6-6l36-36
		l-4.2-4.2l8.3-8.3c10.2,6.4,22.3,10,35.3,9.7c34.2-0.7,62.1-28.4,63-62.6C285.1,289.1,255.8,259.3,219.7,259.3 M141.7,422.9
		c-2.8,2.8-6.6,4.4-10.6,4.4h0c-4,0-7.8-1.6-10.6-4.4c-2.8-2.8-4.4-6.6-4.4-10.6c0-4,1.6-7.8,4.4-10.6l32-32l21.3,21.3L141.7,422.9z
		 M173.5,382.7l-12.9-12.8l7.6-7.6c3.7,4.9,8,9.2,12.8,12.8L173.5,382.7z M219.7,382.5c-32.4,0-58.8-26.4-58.8-58.8
		c0-32.4,26.4-58.8,58.8-58.8c32.4,0,58.8,26.4,58.8,58.8C278.5,356.1,252.1,382.5,219.7,382.5"/>
</g>
</svg>
