<?xml version="1.0" encoding="utf-8"?>
<!-- Generator: Adobe Illustrator 22.0.1, SVG Export Plug-In . SVG Version: 6.00 Build 0)  -->
<svg version="1.1" id="Layer_1" xmlns="http://www.w3.org/2000/svg" xmlns:xlink="http://www.w3.org/1999/xlink" x="0px" y="0px"
	 viewBox="0 0 628.7 207" style="enable-background:new 0 0 628.7 207;" xml:space="preserve">
<style type="text/css">
	.st0{clip-path:url(#SVGID_2_);fill:url(#SVGID_3_);}
	.st1{clip-path:url(#SVGID_5_);fill:#FFFFFF;}
	.st2{clip-path:url(#SVGID_7_);fill:url(#SVGID_8_);}
	.st3{clip-path:url(#SVGID_10_);fill:url(#SVGID_11_);}
	.st4{clip-path:url(#SVGID_13_);fill:url(#SVGID_14_);}
	.st5{clip-path:url(#SVGID_16_);fill:url(#SVGID_17_);}
	.st6{clip-path:url(#SVGID_19_);fill:url(#SVGID_20_);}
	.st7{clip-path:url(#SVGID_22_);fill:url(#SVGID_23_);}
	.st8{clip-path:url(#SVGID_25_);fill:url(#SVGID_26_);}
	.st9{clip-path:url(#SVGID_28_);fill:#FFFFFF;}
	.st10{clip-path:url(#SVGID_28_);fill:none;stroke:#FFFFFF;stroke-width:11;stroke-miterlimit:1;}
	.st11{clip-path:url(#SVGID_30_);fill:url(#SVGID_31_);}
	.st12{clip-path:url(#SVGID_33_);fill:#FFFFFF;}
	.st13{clip-path:url(#SVGID_35_);fill:url(#SVGID_36_);}
	.st14{clip-path:url(#SVGID_38_);fill:#FFFFFF;}
	.st15{clip-path:url(#SVGID_40_);fill:url(#SVGID_41_);}
	.st16{clip-path:url(#SVGID_43_);fill:url(#SVGID_44_);}
	.st17{clip-path:url(#SVGID_46_);fill:#FFFFFF;}
	.st18{fill:#FFFFFF;}
	.st19{font-family:'Comfortaa-Bold';}
	.st20{font-size:20.3708px;}
	.st21{letter-spacing:1;}
</style>
<g>
	<defs>
		<path id="SVGID_1_" d="M114.1,45.8v152.4c16,0.1,34.6,0,52.2,0c18.4,0,368.6,0,387,0c15.3,0,29.1-4.4,41.7-12.9
			c27.8-18.6,40-53.1,30.4-85.3C615.9,68,587,46,552.8,45.8c-15.5-0.1-94.1-0.1-180.7-0.1C259.5,45.6,133.4,45.7,114.1,45.8"/>
	</defs>
	<clipPath id="SVGID_2_">
		<use xlink:href="#SVGID_1_"  style="overflow:visible;"/>
	</clipPath>
	
		<linearGradient id="SVGID_3_" gradientUnits="userSpaceOnUse" x1="7.562521e-07" y1="206.953" x2="1" y2="206.953" gradientTransform="matrix(514.5099 0 0 -514.5099 114.1426 106601.3047)">
		<stop  offset="0" style="stop-color:#00B697"/>
		<stop  offset="1" style="stop-color:#049A6B"/>
	</linearGradient>
	<rect x="114.1" y="45.6" class="st0" width="520.9" height="152.7"/>
</g>
<g>
	<defs>
		<rect id="SVGID_4_" width="628.7" height="207"/>
	</defs>
	<clipPath id="SVGID_5_">
		<use xlink:href="#SVGID_4_"  style="overflow:visible;"/>
	</clipPath>
	<path class="st1" d="M155,181.2c0.6-0.7,1.1-1.3,1.5-1.8l-6.3-2.9c0.2,0.2,0.4,0.3,0.7,0.5c-0.9,0.7-1.8,1.7-2,1.8
		c-8.5,8.7-19.4,15.9-31.2,20.2l14.9-0.3C141,194.1,148.6,188.1,155,181.2"/>
</g>
<g>
	<defs>
		<path id="SVGID_6_" d="M237.5,80.7l-17,35.1l-17.4-35l-0.1-0.1c-1.6-2.8-4.2-4.3-7.2-4.3c-2.7,0-4.4,1.2-5.5,2.4
			c-1.8,1.8-2,4.1-2,5.8v49c0,1.9,0.3,4.1,2,5.8c1.2,1.2,3,2.4,5.6,2.4c2.3,0,4.4-0.8,5.9-2.4c1.5-1.5,2.5-3.5,2.5-5.9v-16.3
			l8.7,17.6c1.4,3,4.1,4.8,7.5,4.8c2.6,0,5-0.7,6.7-2.8l0.4-0.6l9.8-19.5v16.9c0,1.6,0.2,4,2,5.8c1.2,1.2,2.9,2.4,5.6,2.4
			c2.1,0,4.2-0.8,5.8-2.4c1.5-1.5,2.5-3.5,2.5-5.9v-49c0-2.3-1-4.3-2.5-5.8c-1.6-1.6-3.7-2.4-6-2.4C241.7,76.5,239,78,237.5,80.7"/>
	</defs>
	<clipPath id="SVGID_7_">
		<use xlink:href="#SVGID_6_"  style="overflow:visible;"/>
	</clipPath>
	
		<linearGradient id="SVGID_8_" gradientUnits="userSpaceOnUse" x1="0" y1="206.953" x2="1" y2="206.953" gradientTransform="matrix(0 93.4638 93.4638 0 -19121.9688 74.9276)">
		<stop  offset="0" style="stop-color:#00B697"/>
		<stop  offset="0.1616" style="stop-color:#02AB86"/>
		<stop  offset="0.3776" style="stop-color:#03A177"/>
		<stop  offset="0.6295" style="stop-color:#049C6E"/>
		<stop  offset="1" style="stop-color:#049A6B"/>
	</linearGradient>
	<rect x="188.1" y="76.5" class="st2" width="65" height="65.5"/>
</g>
<g>
	<defs>
		<path id="SVGID_9_" d="M266.7,77.6c-2.3,0-3.9,0.3-5.4,1.8c-2,1.9-2.1,3.8-2.1,5.4v49c0,2.5,0.6,4.2,2,5.7
			c1.6,1.6,3.4,2.2,5.5,2.2h32.7c2.3,0,4.3-0.6,5.8-2c1.6-1.5,2.4-3.3,2.4-5.5c0-2.2-0.8-4-2.5-5.5c-1.7-1.6-4-1.9-5.7-1.9h-24.2v-8
			h16c2,0,4-1.5,5.7-3.1c1.6-1.5,2.5-4.2,2.5-6.5c0-2.3-0.9-4.5-2.5-6c-1.5-1.4-3.5-2.5-5.7-2.5h-16v-7h24.2c2,0,3.9-1,5.7-2.7
			c1.5-1.4,2.4-3.8,2.4-6.2c0-2.2-0.8-3.9-2.4-5.4c-1.5-1.4-3.4-1.7-5.8-1.7H266.7z"/>
	</defs>
	<clipPath id="SVGID_10_">
		<use xlink:href="#SVGID_9_"  style="overflow:visible;"/>
	</clipPath>
	
		<linearGradient id="SVGID_11_" gradientUnits="userSpaceOnUse" x1="0" y1="206.953" x2="1" y2="206.953" gradientTransform="matrix(0 91.705 91.705 0 -18695.2773 75.5721)">
		<stop  offset="0" style="stop-color:#00B697"/>
		<stop  offset="0.1616" style="stop-color:#02AB86"/>
		<stop  offset="0.3776" style="stop-color:#03A177"/>
		<stop  offset="0.6295" style="stop-color:#049C6E"/>
		<stop  offset="1" style="stop-color:#049A6B"/>
	</linearGradient>
	<rect x="259.1" y="77.6" class="st3" width="48.4" height="64"/>
</g>
<g>
	<defs>
		<path id="SVGID_12_" d="M326.1,93.6h4.2c2.9,0,6-0.1,8.5,1.4c2.8,1.6,4.5,3,5.7,5.2c1.4,2.6,2.1,5.6,2.1,9c0,3.4-0.7,6.4-2.1,9
			c-1.5,2.7-3.4,4.8-5.7,6.1c-2.7,1.6-5.5,2.3-8.5,2.3h-4.2V93.6z M317.3,77.6c-2.4,0-4.3,0.3-5.8,1.8c-1.7,1.6-2.4,3.2-2.4,5.4v49
			c0,2.2,0.7,4.1,2.4,5.7c1.5,1.5,3.6,2.2,5.8,2.2h13.1c6.2,0,11.8-1.2,16.8-4c5-2.8,8.9-6.6,11.6-11.5c2.7-4.9,4.1-10.6,4.1-16.8
			c0-6.1-1.4-11.6-4.1-16.5c-2.7-4.9-6.6-8.6-11.6-11.5c-4.7-2.7-10.4-3.6-16.8-3.6H317.3z"/>
	</defs>
	<clipPath id="SVGID_13_">
		<use xlink:href="#SVGID_12_"  style="overflow:visible;"/>
	</clipPath>
	
		<linearGradient id="SVGID_14_" gradientUnits="userSpaceOnUse" x1="0" y1="206.953" x2="1" y2="206.953" gradientTransform="matrix(0 91.705 91.705 0 -18642.6152 75.5721)">
		<stop  offset="0" style="stop-color:#00B697"/>
		<stop  offset="0.1616" style="stop-color:#02AB86"/>
		<stop  offset="0.3776" style="stop-color:#03A177"/>
		<stop  offset="0.6295" style="stop-color:#049C6E"/>
		<stop  offset="1" style="stop-color:#049A6B"/>
	</linearGradient>
	<rect x="309.1" y="77.6" class="st4" width="53.7" height="64"/>
</g>
<g>
	<defs>
		<path id="SVGID_15_" d="M371.5,77.6c-2.3,0-4.3,0.4-5.8,1.8c-1.6,1.5-2.5,3.2-2.4,5.5c-0.1,2.3,0.8,4.6,2.3,6
			c1.8,1.6,3.7,2.7,5.7,2.7h22.2l-29.5,35.7c-1,1.3-1.7,2.3-1.7,4.2c0,2.1,0.8,4,2.1,5.6c1.5,1.8,3.6,2.5,6.1,2.5h38.2
			c2.2,0,4.1-0.5,5.7-1.9c1.6-1.5,2.5-3.3,2.5-5.6c0-2.1-0.8-3.9-2.5-5.4c-1.4-1.3-3.3-2.1-5.7-2.1h-23.1l29.7-36.7
			c1.1-1.4,1.8-3.1,1.8-5c0-2.1-0.7-3.6-2.3-5.3c-1.5-1.6-3.5-2-6.1-2H371.5z"/>
	</defs>
	<clipPath id="SVGID_16_">
		<use xlink:href="#SVGID_15_"  style="overflow:visible;"/>
	</clipPath>
	
		<linearGradient id="SVGID_17_" gradientUnits="userSpaceOnUse" x1="0" y1="206.953" x2="1" y2="206.953" gradientTransform="matrix(0 91.705 91.705 0 -18588.8574 75.5721)">
		<stop  offset="0" style="stop-color:#00B697"/>
		<stop  offset="0.1616" style="stop-color:#02AB86"/>
		<stop  offset="0.3776" style="stop-color:#03A177"/>
		<stop  offset="0.6295" style="stop-color:#049C6E"/>
		<stop  offset="1" style="stop-color:#049A6B"/>
	</linearGradient>
	<rect x="362.4" y="77.6" class="st5" width="54.7" height="64"/>
</g>
<g>
	<defs>
		<path id="SVGID_18_" d="M441.2,124.6c-2.6-1.5-4.6-3.6-6-6.3c-1.5-2.7-2.2-5.8-2.2-9.1c0-3.4,0.7-6.4,2.2-9.1
			c1.4-2.6,3.4-4.7,6-6.2c2.5-1.5,5.5-2.3,8.8-2.3c3.3,0,6.3,0.8,8.8,2.3c2.6,1.5,4.5,3.6,6,6.2c1.5,2.7,2.2,5.8,2.2,9.1
			c0,3.4-0.7,6.4-2.2,9.1c-1.5,2.7-3.4,4.7-6,6.3c-2.6,1.5-5.5,2.3-8.8,2.3C446.7,126.9,443.7,126.1,441.2,124.6 M432.8,80
			c-5.1,2.9-9.1,6.9-11.9,12c-2.8,5-4.2,10.8-4.2,17.1c0,6.3,1.4,12.1,4.2,17.2c2.8,5.1,6.8,9.2,11.9,12.1c5,2.8,10.8,4.3,17.1,4.3
			c6.4,0,12.1-1.4,17.1-4.3c5-2.9,9-6.9,11.9-12c2.8-5.1,4.2-10.8,4.2-17.2c0-6.3-1.4-12.1-4.2-17.1c-2.8-5.1-6.8-9.1-11.9-12
			c-5-2.8-10.8-4.3-17.1-4.3C443.6,75.7,437.8,77.2,432.8,80"/>
	</defs>
	<clipPath id="SVGID_19_">
		<use xlink:href="#SVGID_18_"  style="overflow:visible;"/>
	</clipPath>
	
		<linearGradient id="SVGID_20_" gradientUnits="userSpaceOnUse" x1="0" y1="206.953" x2="1" y2="206.953" gradientTransform="matrix(0 93.464 93.464 0 -18892.7188 74.9274)">
		<stop  offset="0" style="stop-color:#00B697"/>
		<stop  offset="0.1616" style="stop-color:#02AB86"/>
		<stop  offset="0.3776" style="stop-color:#03A177"/>
		<stop  offset="0.6295" style="stop-color:#049C6E"/>
		<stop  offset="1" style="stop-color:#049A6B"/>
	</linearGradient>
	<rect x="416.7" y="75.7" class="st6" width="66.4" height="66.9"/>
</g>
<g>
	<defs>
		<path id="SVGID_21_" d="M488,78.8c-1.9,1.8-2.8,3.9-2.8,5.9v49c0,2,1,4,2.8,5.8c1.5,1.5,3.8,2.4,6.2,2.4c1.9,0,4.6-0.6,6.3-2.5
			c1.2-1.3,2.7-3.3,2.7-5.8v-49c0-2-0.8-3.9-2.8-5.9c-1.7-1.7-4.4-2.4-6.3-2.4C491.8,76.5,489.5,77.3,488,78.8"/>
	</defs>
	<clipPath id="SVGID_22_">
		<use xlink:href="#SVGID_21_"  style="overflow:visible;"/>
	</clipPath>
	
		<linearGradient id="SVGID_23_" gradientUnits="userSpaceOnUse" x1="0" y1="206.953" x2="1" y2="206.953" gradientTransform="matrix(0 93.4638 93.4638 0 -18848.4688 74.9276)">
		<stop  offset="0" style="stop-color:#00B697"/>
		<stop  offset="0.1616" style="stop-color:#02AB86"/>
		<stop  offset="0.3776" style="stop-color:#03A177"/>
		<stop  offset="0.6295" style="stop-color:#049C6E"/>
		<stop  offset="1" style="stop-color:#049A6B"/>
	</linearGradient>
	<rect x="485.1" y="76.5" class="st7" width="18" height="65.5"/>
</g>
<g>
	<defs>
		<path id="SVGID_24_" d="M525.1,93.6h4.1c2.9,0,6-0.1,8.5,1.4c2.8,1.6,4.5,3,5.7,5.2c1.4,2.6,2.1,5.6,2.1,9c0,3.4-0.7,6.4-2.1,9
			c-1.5,2.7-3.4,4.8-5.7,6.1c-2.7,1.6-5.5,2.3-8.5,2.3h-4.1V93.6z M516.2,77.6c-2.4,0-4.2,0.3-5.7,1.8c-1.7,1.7-2.3,3.2-2.3,5.4v49
			c0,2.1,0.6,4,2.3,5.7c1.5,1.5,3.5,2.2,5.7,2.2h13.1c6.2,0,11.8-1.2,16.8-4c5-2.8,8.9-6.5,11.6-11.5c2.7-4.9,4.1-10.6,4.1-16.8
			c0-6.2-1.4-11.8-4.1-16.7c-2.7-4.8-6.5-8.4-11.6-11.3c-4.7-2.7-10.4-3.6-16.8-3.6H516.2z"/>
	</defs>
	<clipPath id="SVGID_25_">
		<use xlink:href="#SVGID_24_"  style="overflow:visible;"/>
	</clipPath>
	
		<linearGradient id="SVGID_26_" gradientUnits="userSpaceOnUse" x1="0" y1="206.953" x2="1" y2="206.953" gradientTransform="matrix(0 91.705 91.705 0 -18443.6777 75.5721)">
		<stop  offset="0" style="stop-color:#00B697"/>
		<stop  offset="0.1616" style="stop-color:#02AB86"/>
		<stop  offset="0.3776" style="stop-color:#03A177"/>
		<stop  offset="0.6295" style="stop-color:#049C6E"/>
		<stop  offset="1" style="stop-color:#049A6B"/>
	</linearGradient>
	<rect x="508.1" y="77.6" class="st8" width="53.6" height="64"/>
</g>
<g>
	<defs>
		<rect id="SVGID_27_" width="628.7" height="207"/>
	</defs>
	<clipPath id="SVGID_28_">
		<use xlink:href="#SVGID_27_"  style="overflow:visible;"/>
	</clipPath>
	<path class="st9" d="M244.7,78.5c-2.3,0-4.2,1.2-5.4,3.3l0,0.1l-18.7,38.6l-19.3-38.7c-1.2-2.1-3.1-3.3-5.4-3.3
		c-1.7,0-2.8,0.6-4,1.8c-1.2,1.2-1.2,2.7-1.2,4.4v49c0,1.7,0,3.2,1.2,4.4c1.2,1.2,2.2,1.8,3.9,1.8c1.7,0,3.2-0.6,4.4-1.8
		c1.2-1.2,1.7-2.7,1.7-4.4v-24.9l12.7,25.3c1.1,2.3,3.3,3.6,5.8,3.6c2.2,0,4.4-1,5.7-2.9l0.1-0.2l13.4-26.3v25.4
		c0,1.7,0.1,3.2,1.3,4.4c1.2,1.2,2.3,1.8,4,1.8c1.6,0,3-0.6,4.2-1.8c1.2-1.2,1.7-2.7,1.7-4.4v-49c0-1.7-0.5-3.2-1.7-4.4
		C247.8,79.1,246.4,78.5,244.7,78.5"/>
	<path class="st9" d="M299.4,91c1.7,0,3.2-0.9,4.3-2c1.2-1.1,1.8-2.9,1.8-4.6c0-1.7-0.6-3-1.8-4.1c-1.1-1.1-2.6-1.6-4.4-1.6h-32.7
		c-1.7,0-3,0.5-4.1,1.6c-1.2,1.2-1.6,2.6-1.6,4.3v49c0,1.7,0.4,3.3,1.6,4.4c1.2,1.2,2.5,1.8,4.2,1.8h32.7c1.7,0,3.2-0.6,4.4-1.7
		c1.2-1.1,1.8-2.5,1.8-4.3c0-1.7-0.6-2.9-1.8-4c-1.1-1-2.6-1.3-4.3-1.3h-26.2v-13.2h18c1.7,0,3.2-0.9,4.3-1.9
		c1.2-1.1,1.8-2.7,1.8-4.4c0-1.7-0.6-3.2-1.8-4.3c-1.1-1.1-2.6-1.6-4.3-1.6h-18V91H299.4z"/>
	<path class="st9" d="M346.1,82.6c-4.6-2.6-9.9-3.8-15.7-3.8h-13.1c-1.7,0-3.3,0.5-4.5,1.6c-1.2,1.2-1.9,2.6-1.9,4.3v49
		c0,1.7,0.7,3.3,1.9,4.4c1.2,1.2,2.8,1.8,4.5,1.8h13.1c5.9,0,11.2-1.4,15.7-4c4.6-2.6,8.3-6.3,10.8-11c2.6-4.6,3.8-10,3.8-15.8
		c0-5.8-1.3-11-3.9-15.7C354.4,88.8,350.8,85.2,346.1,82.6 M330.4,128.7h-7.3V91h7.3c3.5,0,6.7,0.3,9.5,1.9c2.8,1.6,4.9,3.4,6.4,6.3
		c1.6,2.9,2.3,6.2,2.3,9.9c0,3.7-0.8,7.1-2.4,10c-1.6,2.9-3.7,5.3-6.4,6.9C337.1,127.7,333.9,128.7,330.4,128.7"/>
	<path class="st9" d="M415.1,84.6c0-1.6-0.6-2.9-1.7-4.1c-1.2-1.2-2.7-1.7-4.6-1.7h-37.3c-1.7,0-3.2,0.5-4.4,1.6
		c-1.2,1.1-1.8,2.7-1.8,4.4c-0.1,1.6,0.5,3.3,1.7,4.4c1.1,1,2.5,1.9,4.3,1.9h26.5l-32.2,39.3c-0.8,1.1-1.2,1.9-1.2,3.3
		c0,1.6,0.6,3.1,1.6,4.3c1.1,1.3,2.7,2,4.5,2h38.2c1.7,0,3.2-0.6,4.3-1.6c0.8-0.7,1.8-2.1,1.8-4.3c0-1.6-0.6-2.8-1.8-3.9
		c-1.1-1.1-2.6-1.5-4.3-1.5h-27.3l32.3-40.2C414.6,87.4,415.1,86,415.1,84.6"/>
	<path class="st9" d="M466,81.8c-4.7-2.7-10.1-4-16.1-4c-6,0-11.4,1.3-16.1,4c-4.7,2.7-8.5,6.4-11.1,11.2
		c-2.6,4.7-3.9,10.2-3.9,16.2c0,6,1.3,11.4,3.9,16.2c2.6,4.8,6.4,8.6,11.1,11.3c4.7,2.7,10.1,4,16.1,4c6,0,11.4-1.3,16.1-4
		c4.7-2.7,8.5-6.5,11.1-11.3c2.6-4.8,4-10.2,4-16.2c0-6-1.3-11.4-4-16.2C474.5,88.2,470.7,84.5,466,81.8 M449.9,128.9
		c-3.6,0-6.9-0.9-9.8-2.6c-2.9-1.7-5.1-4-6.8-7.1c-1.6-3-2.5-6.4-2.5-10.1c0-3.7,0.8-7.1,2.5-10.1c1.6-3,3.9-5.3,6.7-7
		c2.9-1.7,6.2-2.6,9.9-2.6c3.7,0,7,0.9,9.9,2.6c2.9,1.7,5.1,4,6.7,7c1.6,3,2.5,6.4,2.5,10.1c0,3.7-0.8,7.1-2.5,10.1
		c-1.6,3-3.8,5.3-6.8,7.1C456.9,128,453.6,128.9,449.9,128.9"/>
	<path class="st9" d="M494.1,78.5c-1.7,0-3.5,0.6-4.7,1.7c-1.2,1.2-2.2,2.7-2.2,4.5v49c0,1.7,1,3.2,2.2,4.4c1.2,1.2,3,1.8,4.7,1.8
		c1.8,0,3.9-0.6,5.1-1.8c1.1-1.2,2.3-2.7,2.3-4.4v-49c0-1.8-1.2-3.3-2.4-4.4C498,79.1,495.8,78.5,494.1,78.5"/>
	<path class="st9" d="M555.8,93.3c-2.6-4.6-6.2-8.1-10.8-10.7c-4.6-2.6-9.9-3.8-15.7-3.8h-13.1c-1.7,0-3.4,0.5-4.6,1.6
		c-1.2,1.2-2,2.6-2,4.3v49c0,1.7,0.8,3.3,2,4.4c1.2,1.2,2.9,1.8,4.6,1.8h13.1c5.9,0,11.1-1.4,15.7-4c4.6-2.6,8.3-6.3,10.8-11
		c2.6-4.6,3.8-10,3.8-15.8C559.7,103.3,558.4,97.9,555.8,93.3 M529.3,128.7h-6.4V91h6.4c3.5,0,6.7,0.3,9.5,1.9
		c2.8,1.6,4.9,3.4,6.4,6.3c1.6,2.9,2.3,6.2,2.3,9.9c0,3.7-0.8,7.1-2.4,10c-1.6,2.9-3.7,5.3-6.4,6.9
		C536,127.7,532.8,128.7,529.3,128.7"/>
	<path class="st9" d="M164.5,120.1c0,42.2-34.4,76.4-76.8,76.4c-42.4,0-76.8-34.2-76.8-76.4c0-42.2,34.4-76.4,76.8-76.4
		C130.1,43.7,164.5,77.9,164.5,120.1"/>
	<path class="st10" d="M164.5,120.1c0,42.2-34.4,76.4-76.8,76.4c-42.4,0-76.8-34.2-76.8-76.4c0-42.2,34.4-76.4,76.8-76.4
		C130.1,43.7,164.5,77.9,164.5,120.1z"/>
</g>
<g>
	<defs>
		<path id="SVGID_29_" d="M74.3,44.8l-24.1,29c-1.3,1.6-2.7,3-4.3,4.2c-4.6,3.7-10.2,5.7-16.1,5.8c-0.2,0-0.4,0-0.6,0
			c-2.8,0-5.6-0.4-8.5-1.3c-6.3,11.1-9.9,23.9-9.9,37.5c0,42.2,34.3,76.4,76.7,76.4c42.3,0,76.7-34.2,76.7-76.4S130,43.7,87.7,43.7
			C83.1,43.7,78.7,44.1,74.3,44.8"/>
	</defs>
	<clipPath id="SVGID_30_">
		<use xlink:href="#SVGID_29_"  style="overflow:visible;"/>
	</clipPath>
	
		<linearGradient id="SVGID_31_" gradientUnits="userSpaceOnUse" x1="-4.565339e-06" y1="206.953" x2="1" y2="206.953" gradientTransform="matrix(153.3286 0 0 -153.3286 10.9937 31851.9004)">
		<stop  offset="0" style="stop-color:#00B697"/>
		<stop  offset="1" style="stop-color:#049A6B"/>
	</linearGradient>
	<rect x="11" y="43.7" class="st11" width="153.3" height="152.8"/>
</g>
<g>
	<defs>
		<rect id="SVGID_32_" width="628.7" height="207"/>
	</defs>
	<clipPath id="SVGID_33_">
		<use xlink:href="#SVGID_32_"  style="overflow:visible;"/>
	</clipPath>
	<path class="st12" d="M150.3,152.4c-5.1,1.8-10.2,1.7-14.8-1.7c-3-2.2-4.3-5.4-4.5-9c-0.1-2.5,0.2-5,0.6-7.4
		c0.6-3.8,1.5-7.6,2.3-11.4c0.6-2.9,1.4-5.8,1.7-8.7c0.8-8.8-2.4-16.1-9.1-21.8c-5.9-5-13-6.9-20.7-5.7c-4.9,0.7-9.2,2.7-12.9,5.9
		c-0.7,0.6-1.1,0.6-1.8,0c-6.2-5.2-13.4-7.2-21.4-5.9c-4.7,0.8-8.9,2.8-12.5,5.9c-0.3,0.2-0.6,0.4-0.8,0.6c-1.9-1.3-3.5-2.8-5.4-3.8
		c-4.5-2.2-9.8,0.3-11.6,4.8c-1.3,3.4,0.2,7.8,3.2,9.8c3.1,2.1,4.5,5.3,4.3,8.9c-0.1,2.3-0.6,4.6-1,6.8c-0.5,2.8-1.2,5.6-1.8,8.4
		c-0.6,2.6-1.2,5.3-1.8,7.9c-0.4,1.8-0.7,3.6-0.9,5.4c-0.3,3.7,2.7,7.4,6.9,8.2c3.8,0.7,8.1-1.5,9.4-5.2c0.7-1.8,1-3.8,1.4-5.7
		c0.7-2.9,1.3-5.8,1.9-8.7c1.2-5.4,2.3-10.8,3.5-16.3c0.5-2.1,1-4.3,1.9-6.3c1.2-2.8,4.6-5,9.1-4.4c2.9,0.4,5.8,2.4,6.9,5.7
		c0.6,1.6,0.6,3.3,0.2,5c-1.1,4.7-2,9.5-3.1,14.3c-0.8,3.7-1.6,7.3-2.5,11c-0.9,4.1,0.8,7.7,4.5,9.7c4.5,2.4,10.7-0.2,11.9-5.1
		c1-3.9,1.8-7.9,2.7-11.9c0.8-3.8,1.7-7.5,2.6-11.3c0.9-3.9,1.7-7.7,2.6-11.6c0.8-3.2,4.2-5.7,7.5-5.9c3.9-0.2,6.9,1.3,8.7,4.8
		c1,1.8,1.2,3.8,0.7,5.9c-0.9,3.8-1.6,7.7-2.4,11.5c-0.6,2.8-1.3,5.6-1.7,8.4c-1.2,7.8-0.4,15.4,3.7,22.3c2.3,3.9,5.5,7,9.3,9.5
		c0.2,0.2,0.5,0.3,0.7,0.5c1,0.6,2.2,1.2,3.5,1.8c0.3,0.1,0.7,0.2,1,0.3c3.9,1.4,7.9,2.2,12.1,2c0.1,0,0.2,0,0.4,0.1
		c5.2-5.8,9.6-10.6,12.8-17.7c1.1-2.4-9,3.6-8.2,1c-1.4,2.5,6.6-4,4.2-2.3C152.6,152.4,152.1,151.7,150.3,152.4"/>
	<path class="st12" d="M59.3,102.5c-3.6,4.9-10.6,6-15.5,2.4c-4.9-3.6-6-10.6-2.4-15.5c3.6-4.9,10.6-6,15.5-2.4
		C61.8,90.6,62.9,97.6,59.3,102.5"/>
</g>
<g>
	<defs>
		<path id="SVGID_34_" d="M44.3,104.1c-2.2-1.6-3.6-4-4-6.6c-0.4-2.7,0.2-5.4,1.9-7.5c1.9-2.6,5-4.1,8.2-4.1c2.2,0,4.2,0.7,6,2
			c2.2,1.6,3.6,4,4,6.6c0.4,2.7-0.2,5.4-1.9,7.5c-1.9,2.6-5,4.1-8.2,4.1C48.1,106.1,46.1,105.4,44.3,104.1 M40.6,88.8
			c-1.9,2.6-2.7,5.8-2.2,9c0.5,3.2,2.2,6,4.8,7.9c2.1,1.5,4.5,2.3,7.1,2.3c3.8,0,7.5-1.8,9.7-4.9c1.9-2.6,2.7-5.8,2.2-9
			c-0.5-3.2-2.2-6-4.8-7.9c-2.1-1.5-4.5-2.3-7.1-2.3C46.5,83.9,42.9,85.7,40.6,88.8"/>
	</defs>
	<clipPath id="SVGID_35_">
		<use xlink:href="#SVGID_34_"  style="overflow:visible;"/>
	</clipPath>
	
		<linearGradient id="SVGID_36_" gradientUnits="userSpaceOnUse" x1="0" y1="206.953" x2="1" y2="206.953" gradientTransform="matrix(19.4191 14.2649 14.2649 -19.4191 -2911.5635 4107.6499)">
		<stop  offset="0" style="stop-color:#00B697"/>
		<stop  offset="1" style="stop-color:#049A6B"/>
	</linearGradient>
	<polygon class="st13" points="46.6,72.1 74.2,92.3 54,119.8 26.4,99.5 	"/>
</g>
<g>
	<defs>
		<rect id="SVGID_37_" width="628.7" height="207"/>
	</defs>
	<clipPath id="SVGID_38_">
		<use xlink:href="#SVGID_37_"  style="overflow:visible;"/>
	</clipPath>
	<path class="st14" d="M155.7,180L155.7,180c-0.7,0-1.3,0-2-0.1c-0.3,0-0.5-0.1-0.8-0.1c-2.7-0.5-5.3-1.7-7.3-3.6
		c-4-3.6-5.8-8.8-4.8-14.1c1.3-7.2,7.6-12.4,14.9-12.4c0.7,0,1.3,0,2,0.1c0.3,0,0.5,0.1,0.8,0.1c0.3,0,0.5,0.1,0.8,0.2
		c7.9,1.9,12.9,9.6,11.4,17.5c-0.9,4.7-3.9,8.7-8.2,10.8C160.4,179.5,158,180,155.7,180 M155.7,151c-6.7,0-12.4,4.8-13.6,11.4
		c-0.9,4.8,0.8,9.6,4.4,12.9c1.9,1.7,4.2,2.8,6.7,3.3c0.2,0,0.5,0.1,0.7,0.1c0.6,0.1,1.2,0.1,1.8,0.1c2.1,0,4.2-0.5,6.1-1.4
		c4-2,6.7-5.6,7.5-9.9c1.3-7.3-3.2-14.3-10.4-16c-0.2-0.1-0.5-0.1-0.7-0.1c-0.2,0-0.5-0.1-0.7-0.1C156.9,151,156.3,151,155.7,151"/>
</g>
<g>
	<defs>
		<path id="SVGID_39_" d="M57.7,0.3C50.1-1,42.9,1.7,37.9,7.6l-7,8.5l-1.4-1.2l0,0l0,0l-20.7,25c-4.2,5-5.9,11.3-4.9,17.5
			c1,5.9,4.4,11.6,9.6,15.9c0.1,0.1,0.1,0.1,0.2,0.2C5,86.9,0,102.8,0,119.9c0,48,39.5,87,88,87c24.7,0,47.1-10.1,63.1-26.4
			c0.7-0.7,1.2-1.2,1.6-1.8c0.1,0,0.3,0.1,0.4,0.1c7.8,1.4,15.2-3.7,16.6-11.5c1.4-7.8-3.7-15.2-11.5-16.6
			c-7.8-1.4-15.2,3.7-16.6,11.5c-1,5.5,1.3,10.8,5.4,14c-0.9,0.7-1.8,1.6-2,1.8c-14.8,14.2-34.9,22.9-57,22.9c-45.2,0-82-36.3-82-81
			c0-15.8,4.6-30.6,12.6-43.1c1.6,0.8,3.2,1.5,4.8,2c2.4,0.7,4.9,1.1,7.4,1c4.7-0.1,9.2-1.7,12.9-4.7c1.2-1,2.4-2.1,3.4-3.4L67.6,47
			l0.2-0.3l-1.4-1.2l7-8.5c4.3-5.2,5.8-11.6,4.4-18c0.4-0.9,0.4-2-0.1-3.1c-0.8-1.7-2.6-2.6-4-1.9c-1.4,0.7-1.9,2.6-1.1,4.3
			c0.6,1.3,1.9,2.1,3,2.1c1,5.3-0.4,10.7-4,15l-7.1,8.5L63,42.8l-6.9,8.4L42.6,67.4c-4,4.9-9.7,7-15.4,6.2c-3.5-0.5-7-2-10.2-4.6
			c-8.3-6.9-9.6-17.6-3.1-25.5l20.4-24.6l-1.6-1.3l7.1-8.5c4.1-5,10.1-7.3,16.4-6.6c0,1.3,1,2.6,2.5,3c1.8,0.6,3.7-0.2,4.1-1.6
			c0.5-1.5-0.6-3.2-2.4-3.7C60,0.1,59.6,0,59.2,0C58.6,0,58.1,0.1,57.7,0.3"/>
	</defs>
	<clipPath id="SVGID_40_">
		<use xlink:href="#SVGID_39_"  style="overflow:visible;"/>
	</clipPath>
	
		<linearGradient id="SVGID_41_" gradientUnits="userSpaceOnUse" x1="0" y1="206.9552" x2="1" y2="206.9552" gradientTransform="matrix(0 270.7171 270.7171 0 -55940.7148 -55.0839)">
		<stop  offset="0" style="stop-color:#00B697"/>
		<stop  offset="0.3036" style="stop-color:#00B393"/>
		<stop  offset="0.6027" style="stop-color:#01AC87"/>
		<stop  offset="0.899" style="stop-color:#039F74"/>
		<stop  offset="1" style="stop-color:#049A6B"/>
	</linearGradient>
	<rect x="0" y="-1" class="st15" width="171.2" height="207.9"/>
</g>
<g>
	<defs>
		<path id="SVGID_42_" d="M141.7,162.3c-1.4,7.8,3.7,15.2,11.5,16.6c7.8,1.4,15.2-3.7,16.6-11.5c1.4-7.8-3.7-15.2-11.5-16.6
			c-0.9-0.2-1.7-0.2-2.6-0.2C148.9,150.6,142.9,155.4,141.7,162.3"/>
	</defs>
	<clipPath id="SVGID_43_">
		<use xlink:href="#SVGID_42_"  style="overflow:visible;"/>
	</clipPath>
	
		<linearGradient id="SVGID_44_" gradientUnits="userSpaceOnUse" x1="0" y1="206.9568" x2="1" y2="206.9568" gradientTransform="matrix(-5.1849 28.1082 28.1082 5.1849 -5658.7544 -922.2241)">
		<stop  offset="0" style="stop-color:#00B697"/>
		<stop  offset="1" style="stop-color:#049A6B"/>
	</linearGradient>
	<polygon class="st16" points="176.5,151.5 170.2,185.9 134.9,179.4 141.3,145 	"/>
</g>
<g>
	<defs>
		<rect id="SVGID_45_" width="628.7" height="207"/>
	</defs>
	<clipPath id="SVGID_46_">
		<use xlink:href="#SVGID_45_"  style="overflow:visible;"/>
	</clipPath>
	<path class="st17" d="M155.7,174.1c-0.7,0-1.4-0.1-2.1-0.2c-5-1.2-8.1-6.1-6.9-11.1c1-4.2,4.7-7.2,9-7.2c0.7,0,1.4,0.1,2.1,0.2
		c5,1.2,8.1,6.1,6.9,11.1C163.7,171.2,160,174.1,155.7,174.1 M155.7,156.9c-3.7,0-6.9,2.5-7.8,6.2c-1,4.3,1.7,8.6,6,9.6
		c0.6,0.1,1.2,0.2,1.8,0.2c3.7,0,6.9-2.5,7.8-6.2c1-4.3-1.7-8.6-6-9.6C156.9,157,156.3,156.9,155.7,156.9"/>
</g>
<text transform="matrix(1 0 0 1 183.9004 170.6444)"><tspan x="0" y="0" class="st18 st19 st20 st21">E</tspan><tspan x="11.2" y="0" class="st18 st19 st20 st21">m</tspan><tspan x="29.4" y="0" class="st18 st19 st20 st21">p</tspan><tspan x="42.2" y="0" class="st18 st19 st20 st21">o</tspan><tspan x="54.5" y="0" class="st18 st19 st20">w</tspan><tspan x="70.5" y="0" class="st18 st19 st20 st21">e</tspan><tspan x="81.9" y="0" class="st18 st19 st20 st21">r</tspan><tspan x="89.9" y="0" class="st18 st19 st20 st21">ing </tspan><tspan x="126.5" y="0" class="st18 st19 st20">y</tspan><tspan x="137.1" y="0" class="st18 st19 st20 st21">o</tspan><tspan x="149.5" y="0" class="st18 st19 st20 st21">u </tspan><tspan x="167.5" y="0" class="st18 st19 st20 st21">t</tspan><tspan x="175.3" y="0" class="st18 st19 st20 st21">o</tspan><tspan x="187.7" y="0" class="st18 st19 st20 st21"> i</tspan><tspan x="199.3" y="0" class="st18 st19 st20 st21">m</tspan><tspan x="217.5" y="0" class="st18 st19 st20 st21">p</tspan><tspan x="230.3" y="0" class="st18 st19 st20 st21">r</tspan><tspan x="237.9" y="0" class="st18 st19 st20 st21">o</tspan><tspan x="250.2" y="0" class="st18 st19 st20">v</tspan><tspan x="261" y="0" class="st18 st19 st20 st21">e </tspan><tspan x="278" y="0" class="st18 st19 st20 st21">l</tspan><tspan x="284" y="0" class="st18 st19 st20 st21">i</tspan><tspan x="290" y="0" class="st18 st19 st20">f</tspan><tspan x="296.9" y="0" class="st18 st19 st20">e</tspan></text>
</svg>
